<?xml version="1.0" encoding="utf-8"?>
<!-- Generator: Adobe Illustrator 23.0.4, SVG Export Plug-In . SVG Version: 6.00 Build 0)  -->
<svg version="1.1" id="Layer_1" xmlns="http://www.w3.org/2000/svg" xmlns:xlink="http://www.w3.org/1999/xlink" x="0px" y="0px"
	 viewBox="0 0 160.0 180.0" style="enable-background:new 0 0 566.93 192.22;" xml:space="preserve">
<style type="text/css">
	.st0{fill:#2D2D2D;}
	.st1{fill:#7F488E;}
	.st2{fill:#FFFFFF;}
</style>
<polygon class="st1" points="154.94,136.71 154.94,53.26 82.67,11.54 10.4,53.26 10.4,136.71 82.67,178.44 "/>
<path class="st2" d="M71.02,77.04h11.61v43.88h0.14v9.83h-0.14v13.8H71.72v-13.8H35.09v-9.63L71.02,77.04z M71.72,120.91V91.42
	l-24.04,29.49H71.72z"/>
<path class="st2" d="M82.06,57.1c6.68-4.57,14.16-6.85,22.44-6.85c7.08,0,12.81,1.64,17.17,4.91c4.37,3.28,6.55,7.96,6.55,14.05
	c0,5.05-1.68,9.36-5.05,12.93c-3.37,3.57-7.95,7.07-13.75,10.47c-0.45,0.28-1.29,0.79-2.5,1.54c-1.22,0.75-2.08,1.28-2.59,1.59
	c-0.51,0.31-1.29,0.79-2.33,1.43c-1.05,0.64-1.82,1.12-2.33,1.43c-0.51,0.31-1.17,0.79-2,1.43c-0.82,0.64-1.43,1.18-1.82,1.62
	c-0.39,0.44-0.85,0.98-1.38,1.62c-0.53,0.64-0.9,1.23-1.13,1.77c-0.23,0.54-0.44,1.15-0.64,1.83c-0.2,0.68-0.3,1.35-0.3,2.03
	l36.19-0.1v10.23h-48.8v-5.16c0-8.6,3.64-15.75,10.92-21.44c2.03-1.53,5.84-3.99,11.41-7.39c5.61-3.22,9.22-5.56,10.83-7.01
	c2.65-2.58,3.97-5.46,3.97-8.64c0-2.91-1.18-5.13-3.52-6.65c-2.35-1.52-5.64-2.28-9.88-2.28c-7.35,0-14.49,2.52-21.44,7.54V57.1z"/>
</svg>
