<svg xmlns="http://www.w3.org/2000/svg" xmlns:svg="http://www.w3.org/2000/svg" id="svg900" width="2499.686" height="2499.686" version="1.1" viewBox="0 0 2499.686 2499.686" xml:space="preserve"><metadata id="metadata906"/><style id="style815" type="text/css">path{stroke:#000;fill:#000}.blue,.purple{stroke:none;fill:#001ec8}.purple{fill:#14127b}.lace{fill:none;stroke:#000050;stroke-width:4.56;stroke-linecap:round;stroke-dasharray:4.56,9.12}#beak{stroke-width:1.4543}#eye{fill:#fff}</style><g id="mascot" transform="matrix(0.89154934,0,0,0.90465015,26.993382,126.4591)"><path id="path817" d="m 1611.977,893.89 c 0,0 9.516,-105.79 218.437,-113.147 176.135,10.486 299.541,181.092 341.412,235.654 0,0 -152.667,101.169 -309.918,-74.527 -181.344,-162.704 -249.931,-47.98 -249.931,-47.98 z" style="fill:#000;stroke:#000"/><path id="path819" d="m 1611.977,893.89 c 0,0 9.516,-105.79 218.437,-113.147 176.135,10.486 299.541,181.092 341.412,235.654 0,0 -152.667,101.169 -309.918,-74.527 -181.344,-162.704 -249.931,-47.98 -249.931,-47.98 z" style="fill:#000;stroke:#000"/><path id="path821" d="m 1609.99,951.172 c 0,0 -17.842,77.477 85.748,137.389 72.271,41.798 31.627,53.267 31.627,53.267 0,0 33.552,6.073 89.941,-45.237 80.09,-72.877 39.384,-130.639 39.384,-130.639 0,0 -84.44,-119.765 -160.184,-28.007 -10e-4,-0.001 -23.964,28.114 -86.516,13.227 z" style="fill:#000;stroke:#000"/><path id="path823" d="m 1609.99,951.172 c 0,0 -17.842,77.477 85.748,137.389 72.271,41.798 31.627,53.267 31.627,53.267 0,0 33.552,6.073 89.941,-45.237 80.09,-72.877 39.384,-130.639 39.384,-130.639 0,0 -84.44,-119.765 -160.184,-28.007 -10e-4,-0.001 -23.964,28.114 -86.516,13.227 z" style="fill:#000;stroke:#000"/><path id="path825" d="m 1886.471,988.581 c 0,0 11.138,114.979 -147.041,163.575 0,0 162.152,-61.352 338.891,89.662 0,0 18.5,-138.54 102.683,-209.607 -9.579,2.773 -141.095,89.481 -294.533,-43.63 z" style="fill:#000;stroke:#000"/><path id="path827" d="m 1886.471,988.581 c 0,0 11.138,114.979 -147.041,163.575 0,0 162.152,-61.352 338.891,89.662 0,0 18.5,-138.54 102.683,-209.607 -9.579,2.773 -141.095,89.481 -294.533,-43.63 z" style="fill:#000;stroke:#000"/><path id="path829" d="m 1620.416,927.717 c 0,0 52.75,50.553 101.022,-46.643 0,0.001 -59.981,-41.814 -101.022,46.643 z" style="fill:#000;stroke:#000"/><path id="path831" d="m 1620.416,927.717 c 0,0 52.75,50.553 101.022,-46.643 0,0.001 -59.981,-41.814 -101.022,46.643 z" style="fill:#000;stroke:#000"/><path id="eye" d="m 1663.644,906.901 c 1.978,6.592 -1.131,13.3 -6.948,14.985 -5.818,1.685 -12.139,-2.292 -14.12,-8.884 -1.978,-6.589 1.134,-13.297 6.952,-14.982 5.817,-1.685 12.138,2.292 14.116,8.881 z" style="fill:#fff;stroke:#000"/><path id="path834" d="m 2425.161,1516.737 c 10.324,-223.678 6.519,-390.567 -146.927,-494.139 -197.333,-224.644 -429.309,-530.796 -380.538,-901.605 35.248,-267.985 54.6,-5.352 54.6,-5.352 0,0 43.629,382.154 187.388,504.897 366.257,323.333 366.683,500.749 285.477,896.199 z" style="fill:#000;stroke:#000"/><path id="path836" d="m 2425.161,1516.737 c 10.324,-223.678 6.519,-390.567 -146.927,-494.139 -197.333,-224.644 -429.309,-530.796 -380.538,-901.605 35.248,-267.985 54.6,-5.352 54.6,-5.352 0,0 43.629,382.154 187.388,504.897 366.257,323.333 366.683,500.749 285.477,896.199 z" style="fill:#000;stroke:#000"/><path id="path838" d="m 1828.757,315.384 c 0,0 52.75,258.796 193.011,419.396 147.362,168.734 110.844,131.4 234.271,285.874 0,0 -13.726,-12.4 -55.464,0.307 0,0 -112.847,-170.83 -224.24,-222.873 0,0 -139.636,-143.078 -161.395,-297.193 -35.334,-250.261 -3.128,-280.036 13.817,-185.511 z" style="fill:#000;stroke:#000"/><path id="path840" d="m 1828.757,315.384 c 0,0 52.75,258.796 193.011,419.396 147.362,168.734 110.844,131.4 234.271,285.874 0,0 -13.726,-12.4 -55.464,0.307 0,0 -112.847,-170.83 -224.24,-222.873 0,0 -139.636,-143.078 -161.395,-297.193 -35.334,-250.261 -3.128,-280.036 13.817,-185.511 z" style="fill:#000;stroke:#000"/><path id="path842" d="m 1948.479,783.247 c 0,0 -125.77,-141.083 -137.986,-179.972 -21.57,-68.681 -29.621,-88.42 -36.591,-29.45 -3.865,32.725 19.875,183.652 86.226,190.548 44.038,4.576 88.351,18.874 88.351,18.874 z" style="fill:#000;stroke:#000"/><path id="path844" d="m 1948.479,783.247 c 0,0 -125.77,-141.083 -137.986,-179.972 -21.57,-68.681 -29.621,-88.42 -36.591,-29.45 -3.865,32.725 19.875,183.652 86.226,190.548 44.038,4.576 88.351,18.874 88.351,18.874 z" style="fill:#000;stroke:#000"/><path id="path846" d="m 265.722,564.054 c -8.152,108.752 34.836,295.607 94.35,374.47 116.74,238.76 440.318,520.593 886.586,435.668 138.708,-39.579 259.46,24.864 346.052,98.731 83.282,84.862 112.474,99.424 169.505,65.834 -59.141,-57.281 -122.45,-124.229 -121.132,-212.485 4.155,-64.08 27.511,-126.884 68.622,-161.109 -40.588,-142.423 -268.016,-149.301 -369.352,-139.12 -131.23,8.867 -262.996,76.582 -380.2,89.509 C 634.705,1088.895 398.79,864.875 322.157,519.999 289.667,361.155 273.87,455.302 265.722,564.054 Z" style="fill:#000;stroke:#000"/><path id="path848" d="m 265.722,564.054 c -8.152,108.752 34.836,295.607 94.35,374.47 116.74,238.76 440.318,520.593 886.586,435.668 138.708,-39.579 259.46,24.864 346.052,98.731 83.282,84.862 112.474,99.424 169.505,65.834 -59.141,-57.281 -122.45,-124.229 -121.132,-212.485 4.155,-64.08 27.511,-126.884 68.622,-161.109 -40.588,-142.423 -268.016,-149.301 -369.352,-139.12 -131.23,8.867 -262.996,76.582 -380.2,89.509 C 634.705,1088.895 398.79,864.875 322.157,519.999 289.667,361.155 273.87,455.302 265.722,564.054 Z" style="fill:#000;stroke:#000"/><path id="path850" d="m 562.838,1304.813 c 230.013,136.835 460.685,181.856 650.958,111.34 0,0 173.715,-105.567 417.032,116.186 0,0 -273.168,145.195 -534.295,135.596 -94.496,-3.474 -390.567,-65.621 -583.404,-262.864 -175.166,-179.173 -177.987,-366.224 -99.331,-247.676 77.492,116.786 149.04,147.418 149.04,147.418 z" style="fill:#000;stroke:#000"/><path id="path852" d="m 562.838,1304.813 c 230.013,136.835 460.685,181.856 650.958,111.34 0,0 173.715,-105.567 417.032,116.186 0,0 -273.168,145.195 -534.295,135.596 -94.496,-3.474 -390.567,-65.621 -583.404,-262.864 -175.166,-179.173 -177.987,-366.224 -99.331,-247.676 77.492,116.786 149.04,147.418 149.04,147.418 z" style="fill:#000;stroke:#000"/><path id="path854" d="m 965.398,1707.048 c 335.49,31.676 535.63,-83.299 681.562,-151.143 24.455,174.479 -266.714,305.736 -474.431,287.002 -138.928,-6.75 -333.321,-37.361 -454.117,-163.129 -11.647,-12.125 -91.392,-113.813 36.099,-35.268 82.58,39.237 141.487,48.613 210.887,62.538 z" style="fill:#000;stroke:#000"/><path id="path856" d="m 965.398,1707.048 c 335.49,31.676 535.63,-83.299 681.562,-151.143 24.455,174.479 -266.714,305.736 -474.431,287.002 -138.928,-6.75 -333.321,-37.361 -454.117,-163.129 -11.647,-12.125 -91.392,-113.813 36.099,-35.268 82.58,39.237 141.487,48.613 210.887,62.538 z" style="fill:#000;stroke:#000"/><path id="path858" d="m 1684.492,1568.591 c 63.313,127.972 114.759,155.246 291.324,232.417 107.66,49.228 142.959,77.509 117.842,122.341 0,0 133.856,-71.649 196.353,-165.761 0,0 -339.162,-60.108 -515.42,-210.421 -44.607,36.702 -90.099,21.424 -90.099,21.424 z" style="fill:#000;stroke:#000"/><path id="path860" d="m 1684.492,1568.591 c 63.313,127.972 114.759,155.246 291.324,232.417 107.66,49.228 142.959,77.509 117.842,122.341 0,0 133.856,-71.649 196.353,-165.761 0,0 -339.162,-60.108 -515.42,-210.421 -44.607,36.702 -90.099,21.424 -90.099,21.424 z" style="fill:#000;stroke:#000"/><path id="path862" d="m 1670.934,1581.267 c 0,0 5.497,149.755 -207.863,248.039 -153.561,70.739 39.722,44.073 138.258,-3.812 101.34,-49.249 123.406,-118.457 108.874,-175.288 -11.095,-43.385 -28.16,-56.93 -39.269,-68.939 z" style="fill:#000;stroke:#000"/><path id="path864" d="m 1670.934,1581.267 c 0,0 5.497,149.755 -207.863,248.039 -153.561,70.739 39.722,44.073 138.258,-3.812 101.34,-49.249 123.406,-118.457 108.874,-175.288 -11.095,-43.385 -28.16,-56.93 -39.269,-68.939 z" style="fill:#000;stroke:#000"/><path id="path866" d="m 2421.78,1531.324 c 0,0 -61.757,173.345 -118.533,221.491 0,0 36.291,8.63 49.189,85.811 36.989,-90.593 69.344,-307.302 69.344,-307.302 z" style="fill:#000;stroke:#000"/><path id="path868" d="m 2421.78,1531.324 c 0,0 -61.757,173.345 -118.533,221.491 0,0 36.291,8.63 49.189,85.811 36.989,-90.593 69.344,-307.302 69.344,-307.302 z" style="fill:#000;stroke:#000"/><path id="path870" d="m 2298.067,1774.257 c 0,0 60.485,207.06 -215.383,436.233 -121.197,100.688 -246.916,149.312 -391.878,178.315 0,0 -287.012,47.125 -352.704,-156.11 0,0 58.862,34.805 211.641,24.406 430.153,-29.275 709.851,-266.408 748.324,-482.844 z" style="fill:#000;stroke:#000"/><path id="path872" d="m 2298.067,1774.257 c 0,0 60.485,207.06 -215.383,436.233 -121.197,100.688 -246.916,149.312 -391.878,178.315 0,0 -287.012,47.125 -352.704,-156.11 0,0 58.862,34.805 211.641,24.406 430.153,-29.275 709.851,-266.408 748.324,-482.844 z" style="fill:#000;stroke:#000"/><path id="path874" d="m 1496.487,2128.527 c 0,0 38.184,92.072 159.839,90.203 210.235,-3.234 551.609,-189.684 614.506,-413.938 0,0 -176.721,209.97 -498.868,285.338 -209.259,48.955 -275.477,38.397 -275.477,38.397 z" style="fill:#000;stroke:#000"/><path id="path876" d="m 1496.487,2128.527 c 0,0 38.184,92.072 159.839,90.203 210.235,-3.234 551.609,-189.684 614.506,-413.938 0,0 -176.721,209.97 -498.868,285.338 -209.259,48.955 -275.477,38.397 -275.477,38.397 z" style="fill:#000;stroke:#000"/><path id="path878" d="m 2319.562,1784.373 c 67.984,66.106 49.556,575.534 -455.449,704.963 0,0 -201.498,64.398 -354.49,-55.349 201.174,25.111 498.821,-106.314 617.34,-227.303 131.909,-134.655 211.685,-272.923 192.599,-422.311 z" style="fill:#000;stroke:#000"/><path id="path880" d="m 2319.562,1784.373 c 67.984,66.106 49.556,575.534 -455.449,704.963 0,0 -201.498,64.398 -354.49,-55.349 201.174,25.111 498.821,-106.314 617.34,-227.303 131.909,-134.655 211.685,-272.923 192.599,-422.311 z" style="fill:#000;stroke:#000"/><path id="path882" d="m 947.427,945.126 c 251.781,-104.964 473.12,-102.836 658.46,-50.581 0,0 -8.138,17.765 -24.361,13.907 -5.711,-1.357 1.667,12.11 26.509,40.646 -188.827,-76.332 -414.26,-62.7 -660.608,-3.972 z" style="fill:#000;stroke:#000"/><path id="beak" d="m 947.427,945.126 c 251.781,-104.964 473.12,-102.836 658.46,-50.581 0,0 -8.138,17.765 -24.361,13.907 -5.711,-1.357 1.667,12.11 26.509,40.646 -188.827,-76.332 -414.26,-62.7 -660.608,-3.972 z" style="fill:#000;stroke:#000;stroke-width:1.45430005"/><path id="path885" d="m 2072.565,1258.561 c 0,0 -40.71,-39.82 -105.351,-69.183 -32.318,-14.681 -73.917,-29.034 -112.812,-29.92 -47.728,-1.085 -90.031,-8.288 -139.967,30.381 -161.914,198.937 48.743,442.226 554.504,543.472 -53.728,-4.627 -636.817,-584.716 -196.374,-474.75 z" class="blue" style="fill:#001ec8;stroke:none"/><path id="path887" d="m 2072.565,1258.561 c 0,0 -40.71,-39.82 -105.351,-69.183 -32.318,-14.681 -73.917,-29.034 -112.812,-29.92 -47.728,-1.085 -90.031,-8.288 -139.967,30.381 -161.914,198.937 48.743,442.226 554.504,543.472 -53.728,-4.627 -636.817,-584.716 -196.374,-474.75 z" class="lace" style="fill:none;stroke:#000050;stroke-width:4.55999994;stroke-linecap:round;stroke-dasharray:4.56,9.12"/><path id="path889" d="m 2089,1250.758 c 0,0 6.621,-47.435 31.076,-105.404 24.456,-57.972 69.361,-122.52 135.318,-108.428 99.035,38.683 198.1,202.659 144.854,504.171 -27.158,96.066 -92.941,186.513 -92.941,186.513 11.774,2.201 -14.852,-880.663 -218.307,-476.852 z" class="blue" style="fill:#001ec8;stroke:none"/><path id="path891" d="m 2089,1250.758 c 0,0 6.621,-47.435 31.076,-105.404 24.456,-57.972 69.361,-122.52 135.318,-108.428 99.035,38.683 198.1,202.659 144.854,504.171 -27.158,96.066 -92.941,186.513 -92.941,186.513 11.774,2.201 -14.852,-880.663 -218.307,-476.852 z" class="lace" style="fill:none;stroke:#000050;stroke-width:4.55999994;stroke-linecap:round;stroke-dasharray:4.56,9.12"/><path id="path893" d="m 2093.633,1281.527 c -180.681,-66.114 -247.607,81.789 206.231,465.208 -9.578,-211.528 -48.209,-785.232 -206.231,-465.208 z" class="purple" style="fill:#14127b;stroke:none"/><path id="path895" d="m 2093.633,1281.527 c -180.681,-66.114 -247.607,81.789 206.231,465.208 -9.578,-211.528 -48.209,-785.232 -206.231,-465.208 z" class="lace" style="fill:none;stroke:#000050;stroke-width:4.55999994;stroke-linecap:round;stroke-dasharray:4.56,9.12"/></g></svg>