<svg id="图层_1" data-name="图层 1" xmlns="http://www.w3.org/2000/svg" viewBox="0 0 113.39 113.39"><defs><style>.cls-1{fill:#fff;}.cls-2{fill:#ff6a00;}</style></defs><title>AlibabacloudLogoGithub</title><circle class="cls-1" cx="56.69" cy="56.69" r="56.69"/><rect class="cls-2" x="45.85" y="54.14" width="21.69" height="4.89"/><path class="cls-2" d="M78.4,36.4H64.05l3.47,4.9L78,44.5a4.54,4.54,0,0,1,3.16,4.35h0V64.53h0A4.52,4.52,0,0,1,78,68.88L67.52,72.09,64.05,77H78.4A10.84,10.84,0,0,0,89.24,66.15V47.24A10.84,10.84,0,0,0,78.4,36.4Z"/><path class="cls-2" d="M35,36.4H49.33l-3.46,4.9L35.41,44.5a4.52,4.52,0,0,0-3.16,4.35h0V64.53h0a4.51,4.51,0,0,0,3.16,4.34l10.46,3.21L49.33,77H35A10.84,10.84,0,0,1,24.14,66.15V47.24A10.84,10.84,0,0,1,35,36.4Z"/></svg>