<svg id="Layer_1" data-name="Layer 1" xmlns="http://www.w3.org/2000/svg" viewBox="0 0 31.44 37.52"><defs><style>.cls-1{fill:#307fe2;}</style></defs><path class="cls-1" d="M24.8,29.72V13.77C24.8,9,21,5.51,15.65,5.51A8.83,8.83,0,0,0,7,11.35c0,.45.06,1.25,1.37,1.66s2-.3,2.16-.79A5.29,5.29,0,0,1,15.65,8.7c3.21,0,5.55,2.15,5.55,5.11v1.27c0,.6-.8,1-1.54,1.15L13.27,17.9C8.49,19,6.63,20.84,6.63,24.5c0,4.26,3.83,7.47,8.93,7.51a.48.48,0,0,0,.2,0,1.47,1.47,0,0,0,.78-1.5,1.69,1.69,0,0,0-.78-1.6.42.42,0,0,0-.21-.06c-3.09,0-5.31-1.84-5.31-4.31,0-2.28,1.25-3,3.88-3.61,0,0,4.62-1.22,6.44-1.76a.48.48,0,0,1,.62.46l0,1v5.61a.65.65,0,0,0,0,.2A7.49,7.49,0,0,0,24.42,30C24.73,30.15,24.8,29.89,24.8,29.72Z"/></svg>