<svg fill="none" height="48" viewBox="0 0 48 48" width="48" xmlns="http://www.w3.org/2000/svg"><path d="m12.2831.0000639c-.2201.00214592-.4485.0563946-.6566.1742741-.6608.374348-.9032 1.242212-.5372 1.917032l1.4922 2.75357c-3.59507 2.27318-5.97737 6.15586-5.97737 10.58726 0 .0186-.00005.0465 0 .0741.00002.0097-.00008.0152 0 .0261.00001.0145 0 .0356 0 .0392v.6841c-.69046-.8119-1.70544-1.3245-2.83948-1.3245-2.07759 0-3.76465 1.724-3.76465 3.8471v11.8508c0 2.1231 1.68706 3.8471 3.76465 3.8471 1.13404 0 2.14902-.5127 2.83948-1.3245v1.66c0 2.238 1.79206 4.0693 3.98207 4.0693h1.0105v5.2719c0 2.1231 1.687 3.8471 3.7646 3.8471s3.7647-1.724 3.7647-3.8471v-5.2719h1.748v5.2719c0 2.1231 1.6871 3.8471 3.7647 3.8471s3.7646-1.724 3.7646-3.8471v-5.2719h1.0105c2.19 0 3.9821-1.8313 3.9821-4.0693v-1.66c.6904.8118 1.7054 1.3245 2.8394 1.3245 2.0776 0 3.7647-1.724 3.7647-3.8471v-11.8508c0-2.1231-1.6871-3.8471-3.7647-3.8471-1.134 0-2.149.5126-2.8394 1.3245v-.671-.0131c.0001-.021 0-.0418 0-.0392.0002-.0418 0-.075 0-.1002 0-4.4306-2.3876-8.30956-5.9817-10.5829l1.4965-2.75793c.366-.67482.1236-1.542684-.5372-1.917032-.2081-.1178795-.4365-.17212543-.6566-.1742741-.488-.00477329-.967.2580551-1.2194.7232431l-1.5646 2.888623c-1.53-.57697-3.1947-.89316-4.9329-.89316-1.7364 0-3.4042.31295-4.9329.8888l-1.5647-2.884263c-.2523-.465189-.7313-.72800539-1.2193-.7232431z" fill="#fff" transform="translate(4)"/><g fill="#a4c639"><path d="m2.78405 0c-1.55038 0-2.78405 1.2607-2.78405 2.84505v11.85075c0 1.5844 1.23367 2.8451 2.78405 2.8451 1.55039 0 2.78406-1.2607 2.78406-2.8451v-11.85075c0-1.58435-1.23367-2.84505-2.78406-2.84505zm32.47065 0c-1.5503 0-2.784 1.2607-2.784 2.84505v11.85075c0 1.5844 1.2337 2.8451 2.784 2.8451 1.5504 0 2.7841-1.2607 2.7841-2.8451v-11.85075c0-1.58435-1.2337-2.84505-2.7841-2.84505z" transform="translate(4.98065 15.9332)"/><path d="m2.78405 0c-1.55039 0-2.78405 1.2607-2.78405 2.84505v11.85075c0 1.5844 1.23366 2.8451 2.78405 2.8451s2.78406-1.2607 2.78406-2.8451v-11.85075c0-1.58435-1.23367-2.84505-2.78406-2.84505zm9.27735 0c-1.5504 0-2.78406 1.2607-2.78406 2.84505v11.85075c0 1.5844 1.23366 2.8451 2.78406 2.8451s2.784-1.2607 2.784-2.8451v-11.85075c0-1.58435-1.2336-2.84505-2.784-2.84505z" transform="translate(16.5773 29.457)"/><path d="m4.70689.00001975c-.06582.00068779-.12714.01803895-.1876.05228145-.19852.1124558-.26381.3455808-.15348.5489678l1.9612 3.620591c-3.77326 2.00635-6.32190197 5.81924-6.32701 10.19514h24.8305c-.0051-4.3759-2.5537-8.18879-6.327-10.19514l1.9612-3.620591c.1103-.203387.0451-.436512-.1535-.5489678-.0604-.0342425-.1217-.05164043-.1876-.05228145-.1408-.00138935-.2744.07055195-.3496.20913425l-1.9867 3.659786c-1.6253-.73671-3.4483-1.15022-5.372-1.15022-1.9238 0-3.74676.41351-5.37202 1.15022l-1.98679-3.659786c-.07517-.1385823-.20872-.21051534-.3496-.20913425zm-4.70689 15.41908025v18.3904c0 1.6993 1.33867 3.0673 3.00149 3.0673h18.82751c1.6629 0 3.0015-1.368 3.0015-3.0673v-18.3904z" transform="translate(11.5847 1.00214)"/></g><path d="m1.03603 0c-.566838 0-1.03603.479472-1.03603 1.05873 0 .57925.469192 1.05872 1.03603 1.05872.56683 0 1.03602-.47947 1.03602-1.05872 0-.579258-.46919-1.05873-1.03602-1.05873zm11.46027 0c-.5669 0-1.0361.479472-1.0361 1.05873 0 .57925.4692 1.05872 1.0361 1.05872.5668 0 1.036-.47947 1.036-1.05872 0-.579258-.4692-1.05873-1.036-1.05873z" fill="#fff" transform="translate(17.2338 8.65723)"/></svg>