<svg fill="none" height="48" width="48" xmlns="http://www.w3.org/2000/svg"><path d="M16.283 0a1.36 1.36 0 00-.657.174c-.66.375-.903 1.243-.537 1.917l1.492 2.754C12.986 7.118 10.604 11 10.604 15.432V16.256a3.717 3.717 0 00-2.84-1.325C5.688 14.931 4 16.655 4 18.778V30.63c0 2.123 1.687 3.847 3.765 3.847a3.717 3.717 0 002.84-1.324v1.66c0 2.238 1.791 4.069 3.981 4.069h1.01v5.272c0 2.123 1.688 3.847 3.765 3.847s3.765-1.724 3.765-3.847V38.88h1.748v5.272c0 2.123 1.687 3.847 3.765 3.847s3.764-1.724 3.764-3.847V38.88h1.01c2.19 0 3.983-1.831 3.983-4.07v-1.66a3.717 3.717 0 002.84 1.325c2.077 0 3.764-1.724 3.764-3.847V18.78c0-2.124-1.687-3.848-3.765-3.848a3.716 3.716 0 00-2.84 1.325v-.684-.04-.1c0-4.43-2.387-8.31-5.98-10.583l1.496-2.758c.366-.674.123-1.542-.537-1.917A1.36 1.36 0 0031.717 0a1.376 1.376 0 00-1.22.723l-1.564 2.889A13.96 13.96 0 0024 2.719c-1.736 0-3.404.313-4.933.889L17.502.723A1.375 1.375 0 0016.283 0z" fill="#fff"/><g fill="#a4c639"><path d="M7.765 15.933c-1.55 0-2.784 1.26-2.784 2.845V30.63c0 1.584 1.233 2.845 2.784 2.845 1.55 0 2.784-1.26 2.784-2.845v-11.85c0-1.585-1.234-2.846-2.784-2.846zm32.47 0c-1.55 0-2.784 1.26-2.784 2.845V30.63c0 1.584 1.234 2.845 2.784 2.845 1.55 0 2.784-1.26 2.784-2.845v-11.85c0-1.585-1.233-2.846-2.784-2.846zM19.361 29.457c-1.55 0-2.784 1.26-2.784 2.845v11.85c0 1.585 1.234 2.846 2.784 2.846s2.784-1.26 2.784-2.845v-11.85c0-1.585-1.233-2.846-2.784-2.846zm9.278 0c-1.55 0-2.784 1.26-2.784 2.845v11.85c0 1.585 1.233 2.846 2.784 2.846s2.784-1.26 2.784-2.845v-11.85c0-1.585-1.234-2.846-2.784-2.846z"/><path d="M16.292 1.002a.38.38 0 00-.188.052.397.397 0 00-.153.55l1.96 3.62c-3.773 2.006-6.321 5.82-6.326 10.195h24.83c-.005-4.376-2.554-8.189-6.327-10.195l1.961-3.62a.397.397 0 00-.153-.55.388.388 0 00-.537.157l-1.987 3.66A12.993 12.993 0 0024 3.721c-1.924 0-3.747.413-5.372 1.15l-1.987-3.66a.388.388 0 00-.35-.209zm-4.707 15.42v18.39c0 1.699 1.338 3.067 3.001 3.067h18.828c1.663 0 3.001-1.368 3.001-3.067v-18.39z"/></g><path d="M18.27 8.657c-.567 0-1.036.48-1.036 1.059 0 .58.469 1.059 1.036 1.059.567 0 1.036-.48 1.036-1.059 0-.58-.47-1.059-1.036-1.059zm11.46 0c-.567 0-1.036.48-1.036 1.059 0 .58.47 1.059 1.036 1.059.567 0 1.036-.48 1.036-1.059 0-.58-.47-1.059-1.036-1.059z" fill="#fff"/></svg>