<svg fill="none" height="48" width="48" xmlns="http://www.w3.org/2000/svg"><path clip-rule="evenodd" d="M48 12.698c-.889-.538-1.6-.985-1.911-1.254-.49-.425-1.311-.358-2.889-.111 0 0-4.4 1.029-5.978 1.767-1.555.739-5.066 2.708-5.644 3.222 0 0-.667 0-.911.291-.023-.022-.045-.044-.09-.044-.4-.247-3.021-2.82-3.021-2.82-1.312-1.163-3.534-3.535-4.912-4.699-1.422-1.163-7.022-2.954-9.355-2.73-2.2.202-3.222 1.634-3.778 3.043-.489-.805-.978-1.633-1.467-2.215C6.644 5.492 6.222 5 6.222 5s-1.466 0-2.933.985c-.911.604-2.156 1.969-3 2.93-.111 0-.2.046-.289.046v16.916c.489-.313 1.044-.626 1.578-1.051.71-.538 1.244-1.365 1.355-2.081.111-.157.223-.314.356-.47 1.178-1.858 2.578-3.267 3.289-4.811.266.044.533.09.778.112.088 1.566.8 2.797 1.333 3.759.378.716 1.267 1.521 2.244 2.237-.577.09-1.11.224-1.533.336 0 0-6.644 1.343-7.889 2.014-.555.29-1.044.604-1.511.873v3.647c1.556.515 3.133.873 3.667.336.955-.963 5.244-3.334 6-3.737.755-.425 2.177-.739 2.644-.604.489.09 1.467 3.692 3.156 6.757 1.689 3.066 1.4 4.364 2.51 3.939 1.09-.448 1.09.828 2.09.805 1.022-.045 1.2.671 1.8 1.813.6 1.14 1.2 2.55 2.666 2.797 1.467.201 7.245 1.723 7.911 1.365.667-.358.712-1.276-.977-1.634-1.69-.38-5.623-.38-6.511-1.007-.867-.626-1.09-3.87-2-4.251-.934-.38-2.356-.828-2.512-1.209-.155-.335-3.466-6.22-4.71-9.353 1.666.716 4.266 1.745 5.822 2.238 2.288.738 6.244 1.991 7.888 1.991 1.023 0 1.445-.358 1.6-.649.134.291.2.515.29.65.31.581.822.984.822.984s-.178.335.31.56c.49.268 3.867.76 5.09 1.901 1.244 1.164 2.955 3.401 3.133 5.46.156 2.059 1.467 4.296 2.11 4.386.668.09 1.4 0 .735-2.797-.645-2.82-1.645-5.057-3.2-6.288-1.534-1.253-5.556-3.222-6.067-3.468-.49-.247-1.156-.918-1.378-.918-.245 0-.156-.224-.578-1.656a6.988 6.988 0 01-.222-.805c.111-.269.489-1.32.644-2.73.156-1.656-.577-5.303-1.244-6.198 0 0-.067-.582-.089-1.052.2.09.422.112.578-.023.489-.402 1.8-2.148 3.844-3.043 2.045-.917 4.022-1.745 6.334-1.902 2.288-.179 2.622-.335 2.622-.335s1.044-.18 2.289.492c.11.067.71.358.933.47zM5.756 6.656c.333-.023.6.201.71.649.156.56.6 2.573.934 4.095-.8.134-1.356.268-1.711.447A7.147 7.147 0 003.444 9.79c.29-.672.623-1.477 1.156-2.216.4-.581.8-.895 1.156-.917zm13.933 12.352c.822.09.822.29 1.644 1.544.8 1.23 1.023 2.886.4 3.49-.6.627-1.333.828-3.066-1.544-1.756-2.372-.045-3.647 1.022-3.49z" fill="#a81c7d" fill-rule="evenodd"/></svg>