<svg fill="none" height="48" viewBox="0 0 48 48" width="48" xmlns="http://www.w3.org/2000/svg"><path clip-rule="evenodd" d="m1.2569.201562c-.02328-.014063-.0419-.025781-.05005-.032813-.0128-.011132-.03433-.009375-.07564-.002929 0 0-.11522.026953-.156532.046289-.040733.019335-.132673.070898-.147802.084374 0 0-.017457 0-.023858.007617-.000582-.000585-.001164-.001171-.002328-.001171-.010474-.006446-.079138-.073828-.079138-.073828-.034332-.030469-.092521-.092578-.128599-.123047-.037241-.0304683-.183879-.0773432-.244979-.0714838-.057607.0052734-.084375.0427733-.098922.0796868-.012802-.0210933-.025604-.0427729-.038405-.0580072-.03666-.0433592-.047716-.0562498-.047716-.0562498s-.038405 0-.0768102.0257812c-.0238578.0158202-.056444.0515623-.07855614.0767578-.00290948 0-.00523707.001172-.00756466.001172v.442967c.0128017-.008203.0273492-.016407.0413147-.027539.0186207-.014063.0325862-.035742.0354957-.054492.0029095-.004102.005819-.008203.0093104-.012305.0308402-.048633.0675002-.085546.0861212-.125976.006982.001172.013965.002344.020366.00293.002328.041015.020948.073242.034914.098437.009892.01875.033168.039843.058771.058593-.015129.002344-.029094.00586-.040151.008789 0 0-.1739868.035157-.206573.052735-.0145474.007617-.0273492.01582-.039569.022851v.095507c.0407328.013477.0820475.022852.096013.00879.025022-.025196.137328-.087305.157112-.097852.019785-.011132.057026-.019336.069246-.01582.012802.002344.038405.096679.082629.176953.044225.080273.03666.114257.065755.103124.028513-.011719.028513.02168.054698.021094.026767-.001172.031423.017578.047134.047461.015711.029882.031422.066796.069827.073242.038406.005273.189699.04512.207156.03574.017457-.00937.01862-.033397-.025604-.042772-.044224-.009961-.14722-.009961-.170496-.026367-.022694-.016406-.028512-.101367-.05237-.111327-.02444-.009961-.061681-.02168-.065755-.031641-.004073-.008789-.090776-.16289-.123362-.244921.043642.01875.111724.045703.152457.058594.059936.019335.163513.052148.206574.052148.026767 0 .037823-.009375.041896-.016992.003492.007617.005237.013476.007565.016992.008147.015234.02153.025781.02153.025781s-.004655.008789.008147.014648c.012801.007032.10125.019922.133254.049805.032584.030468.077394.089062.082044.142968.00408.053906.03841.112504.05528.114844.01746.00234.03666 0 .01921-.073243-.01688-.073827-.04306-.132421-.0838-.164647-.04015-.032813-.145471-.084375-.158855-.09082-.012801-.006446-.030258-.024024-.036077-.024024-.006401 0-.004074-.005859-.01513-.043359-.002327-.006445-.004073-.013476-.005819-.021094.00291-.007031.012802-.03457.016875-.071484.004074-.043359-.015129-.138866-.032586-.162304 0 0-.001745-.015234-.002327-.027539.005237.002344.011056.00293.015129-.000586.012802-.010547.047134-.056249.100668-.079687.053535-.024023.105322-.045703.165842-.049804.05993-.004688.06866-.008789.06866-.008789s.02735-.004688.05994.01289c.00291.001758.01862.009375.02444.012305zm-1.106189-.1582028c.008729-.0005859.015712.0052734.018621.0169921.004073.0146484.015711.0673827.02444.1072267-.020949.003515-.035496.007031-.044806.011718-.017457-.024609-.037824-.041601-.0587719-.053906.0075646-.017578.0162929-.0386716.0302589-.0580074.010474-.0152344.020948-.0234374.030258-.0240234zm.36485.3234368c.02153.002343.02153.007617.04306.040429.020949.032226.026767.075586.010474.091406-.015711.016406-.034913.02168-.080301-.04043-.04597-.062109-.001164-.095507.026767-.091405z" fill="#a81c7d" fill-rule="evenodd" transform="matrix(38.1893 0 0 38.1893 0 5)"/></svg>