<?xml version="1.0" encoding="UTF-8"?>
<svg width="1063px" height="248px" viewBox="0 0 1063 248" version="1.1" xmlns="http://www.w3.org/2000/svg" xmlns:xlink="http://www.w3.org/1999/xlink">
    <title>Group</title>
    <g id="Screens" stroke="none" stroke-width="1" fill="none" fill-rule="evenodd">
        <g id="APIsec-Logo" transform="translate(-219.000000, -626.000000)">
            <g id="Group" transform="translate(219.000000, 626.000000)">
                <path d="M1061.495,179.629231 C1060.10361,177.782577 1058.93731,175.762 1057.65846,173.823269 C1054.60458,169.188731 1051.54046,164.559308 1048.62469,160.154962 C1045.28946,163.7255 1040.60888,166.421308 1036.13804,169.291038 C1031.91273,170.805192 1027.56465,171.741308 1023.04265,172.089154 C1014.25442,172.7695 1005.77311,171.787346 998.47346,166.308769 C989.930768,159.899192 986.615999,147.770615 989.889845,135.631808 C992.565191,125.692615 1000.92884,118.940308 1012.39754,117.554038 C1021.47223,116.464462 1030.09165,117.835385 1038.48088,121.451962 C1042.37881,123.733423 1046.2665,126.004654 1049.20273,128.935769 C1051.97015,124.439346 1054.88081,119.712731 1057.78634,114.981 C1059.00381,113.006462 1060.0985,110.944962 1061.4285,109.052269 C1062.40554,107.671115 1062.36461,106.683846 1061.11646,105.522654 C1056.53819,101.261538 1052.86023,98.5299231 1048.60423,96.4275 C1047.99038,95.8392308 1046.67573,95.3583846 1044.06177,94.3046154 C1022.81758,85.7261154 1001.512,85.7414615 980.702614,95.7062308 C968.804229,101.404769 960.553114,110.801731 955.898114,123.201423 C952.608922,131.979423 951.729075,141.100154 952.624268,150.359 C954.532306,170.237385 963.95996,185.286846 982.017268,194.376885 C995.383768,201.103615 1009.70173,202.305731 1024.35219,200.397692 C1030.82827,199.553654 1037.0895,197.988346 1042.99777,195.338577 C1043.15123,195.292538 1043.29446,195.282308 1043.46327,195.220923 C1050.46623,192.612077 1055.00869,189.414962 1061.2955,183.169077 C1062.50273,181.966962 1062.50784,180.984808 1061.495,179.629231" id="Fill-1" fill="#06252D"></path>
                <path d="M591.01466,102.673896 C591.01466,87.8699731 581.285199,78.5395115 564.450468,78.5395115 L525.133622,78.5395115 L525.133622,126.608781 L563.432506,126.608781 C580.875968,126.608781 591.01466,117.273204 591.01466,102.673896 M630.566814,101.66105 C630.566814,135.125896 607.04116,156.421242 569.524929,156.421242 L525.133622,156.421242 L525.133622,197.999088 L486.604545,197.999088 L486.604545,47.7090885 L569.923929,47.7090885 C607.849391,47.7090885 630.566814,69.0044346 630.566814,101.66105" id="Fill-3" fill="#06252D"></path>
                <polygon id="Fill-5" fill="#06252D" points="650.866195 197.997042 689.395272 197.997042 689.395272 47.7070423 650.866195 47.7070423"></polygon>
                <path d="M905.485999,132.287369 C905.485999,120.521985 898.186345,113.017715 885.208614,113.017715 C874.261691,113.017715 866.547691,118.700908 864.516883,132.287369 L905.485999,132.287369 Z M938.95596,151.961138 L865.130729,151.961138 C868.169268,166.964562 877.699229,173.6606 896.365268,173.6606 C908.125537,173.6606 921.103268,170.622062 929.830114,166.560446 L934.086114,192.521023 C925.768499,196.981638 909.547614,201.038138 892.303652,201.038138 C852.961229,201.038138 827.808883,179.742792 827.808883,144.252254 C827.808883,110.183792 850.526306,87.6658692 885.612729,87.6658692 C918.468845,87.6658692 939.764191,107.743754 939.764191,139.791638 C939.764191,143.843023 939.360075,148.917485 938.95596,151.961138 L938.95596,151.961138 Z" id="Fill-7" fill="#06252D"></path>
                <path d="M719.213872,164.672869 C723.157833,166.187023 727.127372,167.803485 731.173641,169.240908 C740.227872,172.448254 749.496949,175.031523 759.236641,175.461215 C762.889025,175.624908 766.653949,175.225908 770.250064,174.530215 C773.529025,173.895908 775.902564,171.834408 776.168564,168.458254 C776.414102,165.332754 774.270756,163.373562 771.513564,162.345369 C766.444218,160.462908 761.211179,158.948754 756.049756,157.286254 C748.003256,154.682523 739.583333,152.774485 731.976756,149.342062 C713.955256,141.213715 707.878179,121.867331 717.883872,106.280754 C723.132256,98.1114846 731.393602,93.6917923 740.959372,91.1545615 C757.732718,86.6939462 774.618602,87.5686769 791.448218,90.8016 C796.604525,91.7888692 801.612487,93.4616 806.630679,95.0013308 C807.351949,95.2212923 808.262487,96.4796769 808.180641,97.1702538 C807.249641,104.853562 806.144718,112.521523 805.070487,120.189485 C805.050025,120.332715 804.860756,120.455485 804.620333,120.752177 C801.193025,119.7291 797.740141,118.5321 794.190064,117.657369 C783.371025,114.956446 772.418987,113.186523 761.144679,114.388638 C759.768641,114.531869 758.377256,114.746715 757.047256,115.115023 C754.377025,115.836292 751.860256,116.910523 751.440795,119.836523 C751.011102,122.823908 753.185141,124.552908 755.712141,125.560638 C760.218795,127.356138 764.848218,128.9061 769.492987,130.374215 C777.396256,132.875638 785.376256,135.151985 793.259064,137.704562 C795.504718,138.430946 797.59691,139.653523 799.648179,140.830062 C810.661602,147.147562 815.158025,156.544523 813.991718,168.222946 C812.436641,183.829985 802.170064,194.367677 784.823795,198.541831 C766.868795,202.859215 749.036564,201.518985 731.434525,196.910023 C725.306295,195.303792 719.464525,192.761446 713.561372,190.500446 C712.845218,190.229331 711.970487,188.909562 712.134179,188.300831 C714.216141,180.551023 716.477141,172.847254 718.702333,165.128138 C718.743256,164.990023 718.958102,164.892831 719.213872,164.672869" id="Fill-8" fill="#06252D"></path>
                <path d="M352.010079,146.429362 L367.632464,110.575631 C372.860387,98.0787462 373.540733,96.2576692 376.497425,88.9784769 C379.449002,96.0274769 381.505387,100.800131 385.817656,110.125477 L402.785387,146.429362 L352.010079,146.429362 Z M426.520772,197.225131 L469.044964,197.225131 L397.184041,45.5386308 L359.892887,45.5386308 L287.812002,197.225131 L329.880925,197.225131 L338.868656,176.589669 L416.888502,176.589669 L426.520772,197.225131 Z" id="Fill-9" fill="#06252D"></path>
                <path d="M105.632695,108.722385 C112.523118,108.722385 118.13981,114.323731 118.13981,121.209038 C118.13981,128.094346 112.523118,133.716154 105.632695,133.716154 C98.7422716,133.716154 93.1460408,128.094346 93.1460408,121.209038 C93.1460408,114.323731 98.7422716,108.722385 105.632695,108.722385 L105.632695,108.722385 Z M105.525272,-1.69109171e-12 L-4.97379915e-13,58.0647308 L-4.97379915e-13,106.696692 C-0.0051129972,135.071731 8.2101947,162.628308 23.7814255,186.373923 C39.3424255,210.099077 61.3385793,228.627 87.3810024,239.952462 L104.993272,247.594846 L117.710118,241.952577 L117.710118,155.814615 C132.063887,150.791308 142.437887,137.256 142.437887,121.209038 C142.437887,100.926538 125.935656,84.4191923 105.632695,84.4191923 C85.3501947,84.4191923 68.8479639,100.926538 68.8479639,121.209038 C68.8479639,137.261115 79.2270793,150.796423 93.5757332,155.819731 L93.5757332,215.859 C73.4876178,206.3495 56.4482716,191.637654 44.217387,172.992077 C31.2805793,153.241577 24.4310793,130.324654 24.4310793,106.717154 L24.4310793,72.5003462 L25.0346947,72.1678462 L105.699195,27.7867692 L106.256772,28.0885769 L189.386887,72.5924231 L189.386887,105.361577 C189.422695,129.281115 182.429964,152.458923 169.181118,172.368 C164.101541,179.984808 158.044925,187.105423 151.169849,193.540577 L151.169849,224.785346 C166.459733,214.257885 179.350502,201.188077 189.504541,185.923769 C205.444079,161.994 213.843541,134.140731 213.807847,105.382038 L213.807847,57.9726538 L105.525272,-1.69109171e-12 Z" id="Fill-10" fill="#025C7A"></path>
            </g>
        </g>
    </g>
</svg>