<svg xmlns="http://www.w3.org/2000/svg" viewBox="0 0 1800 408.18"><defs><style>.cls-1{fill:#343841;}.cls-2{fill:#ff4d3f;}</style></defs><g id="Layer_2" data-name="Layer 2"><g id="Layer_1-2" data-name="Layer 1"><path class="cls-1" d="M242.64,89.94v233H213.08v-40q-18.84,22.91-42.29,34.48a114.51,114.51,0,0,1-51.29,11.56Q70,328.94,35,293.07T0,205.8q0-50.33,35.34-86.09t85-35.76q28.7,0,51.93,12.21t40.79,36.62V89.94ZM122.82,112.86a90.4,90.4,0,0,0-79.9,46.85A94.39,94.39,0,0,0,43,253.82a91.88,91.88,0,0,0,33.9,35,88.64,88.64,0,0,0,45.67,12.51,93.56,93.56,0,0,0,46.64-12.41,86.81,86.81,0,0,0,33.9-33.58Q215,234.16,215,207.62q0-40.43-26.63-67.59T122.82,112.86Z"/><path class="cls-1" d="M279.46,89.94h30v42.84q17.76-24.42,40.86-36.62T401.86,84q49.63,0,84.93,35.76t35.3,86.09q0,51.4-35,87.27t-84.39,35.87a113.63,113.63,0,0,1-51.14-11.56q-23.31-11.56-42.14-34.48V408.18h-30Zm119.92,22.92q-38.88,0-65.48,27.17t-26.6,67.59q0,26.53,11.86,47.7a86.4,86.4,0,0,0,34,33.58,93.9,93.9,0,0,0,46.68,12.41,88,88,0,0,0,45.4-12.51,91.8,91.8,0,0,0,33.87-35,94.49,94.49,0,0,0,.1-94.11,90.27,90.27,0,0,0-79.8-46.85Z"/><path class="cls-1" d="M552.13,89.94h30v42.84Q599.87,108.36,623,96.16T674.53,84q49.63,0,84.93,35.76t35.31,86.09q0,51.4-35,87.27t-84.39,35.87a113.55,113.55,0,0,1-51.13-11.56q-23.32-11.56-42.15-34.48V408.18h-30Zm119.93,22.92q-38.89,0-65.49,27.17T580,207.62q0,26.53,11.86,47.7a86.4,86.4,0,0,0,34,33.58,93.91,93.91,0,0,0,46.69,12.41,88.08,88.08,0,0,0,45.4-12.51,91.78,91.78,0,0,0,33.86-35,94.52,94.52,0,0,0,.11-94.11,90.3,90.3,0,0,0-79.8-46.85Z"/><path class="cls-2" d="M825.52,0H884V186l86.09-96.06h73.42L943.12,201.61l112.37,121.33H982.92L884,215.56V322.94H825.52Z"/><path class="cls-2" d="M1071.28,89.94h58.46v23.88q19.89-16.75,36-23.32a87.08,87.08,0,0,1,33-6.55q34.65,0,58.81,24.2,20.31,20.55,20.31,60.82v154h-57.81v-102q0-41.7-3.74-55.4t-13-20.86q-9.3-7.17-23-7.16a43,43,0,0,0-30.44,11.87q-12.71,11.87-17.62,32.84-2.58,10.91-2.57,47.26v93.48h-58.46Z"/><path class="cls-2" d="M1702.16,213.3,1793.84,323h-70.93l-54.21-63.5L1614.26,323h-67.89l88.47-110.43-64.39-74.22h-155l-.11.44a58.8,58.8,0,0,0-38,18.45q-17.91,18.85-17.91,49.26,0,29.55,18.13,48.5t45.37,19q27.88,0,45.79-18.74t17.92-48.72c0-18.71-5.4-34.19-16.05-46.52h65.85a122.22,122.22,0,0,1,9.09,46.73A120.91,120.91,0,0,1,1484,312.45a123.4,123.4,0,0,1-62,16.49q-45.62,0-80.74-31.69-40-36.4-40-91,0-51,35.44-86.62T1422.19,84c2.7,0,5.38.09,8,.24h169.55l68.54,82.18L1732.11,90H1800Z"/></g></g></svg>
