<svg width="48" height="48" viewBox="0 0 48 48" fill="none" xmlns="http://www.w3.org/2000/svg">
<path d="M24 48C37.2548 48 48 37.2548 48 24C48 10.7452 37.2548 0 24 0C10.7452 0 0 10.7452 0 24C0 37.2548 10.7452 48 24 48Z" fill="#5C2D91"/>
<path opacity="0.1" d="M7.92278 0C5.51649 2.14427 3.57346 4.75736 2.21279 7.67912C0.852115 10.6009 0.102465 13.7697 0.00978818 16.9915C-0.0828884 20.2132 0.483362 23.4199 1.67383 26.415C2.8643 29.4102 4.6539 32.1307 6.93295 34.4097C9.21199 36.6888 11.9325 38.4784 14.9276 39.6688C17.9228 40.8593 21.1295 41.4255 24.3512 41.3329C27.5729 41.2402 30.7418 40.4905 33.6635 39.1299C36.5853 37.7692 39.1984 35.8262 41.3427 33.4199L7.92278 0Z" transform="translate(0 6.65735)" fill="white"/>
<path d="M1.04307 2.10823C0.904997 2.11041 0.767969 2.08392 0.640649 2.03045C0.513329 1.97697 0.398483 1.89767 0.303369 1.79756C0.205646 1.70101 0.128415 1.58573 0.0763024 1.45863C0.02419 1.33152 -0.00173188 1.19521 8.97622e-05 1.05785C-0.00089692 0.92061 0.0254067 0.784539 0.0774713 0.657552C0.129536 0.530566 0.206323 0.415195 0.303369 0.318147C0.39755 0.216327 0.512051 0.135404 0.639469 0.0806145C0.766887 0.0258247 0.904386 -0.00161311 1.04307 7.32787e-05C1.18156 -0.000265537 1.31865 0.0277817 1.44587 0.0824881C1.5731 0.137195 1.68776 0.2174 1.78278 0.318147C1.8815 0.414327 1.95987 0.52937 2.01324 0.656444C2.06661 0.783517 2.09389 0.920026 2.09345 1.05785C2.09475 1.1958 2.06786 1.33256 2.01444 1.45976C1.96102 1.58695 1.88219 1.7019 1.78278 1.79756C1.68686 1.89662 1.57186 1.97521 1.44473 2.02861C1.3176 2.08201 1.18096 2.10909 1.04307 2.10823Z" transform="translate(7 34)" fill="white"/>
<path d="M8.12618 10.0946H6.67508L1.48896 2.04416C1.35959 1.84589 1.25172 1.63439 1.16719 1.41325H1.12303C1.17267 1.87204 1.19164 2.33363 1.17981 2.79495V10.0946H5.7762e-07V0H1.53312L6.58044 7.91167C6.79075 8.23975 6.92745 8.46477 6.99054 8.58675C6.93303 8.09474 6.90984 7.59933 6.92114 7.1041V0H8.10094L8.12618 10.0946Z" transform="translate(10.7887 25.653)" fill="white"/>
<path d="M5.34385 10.0946H1.34778e-06V0H5.11672V1.06625H1.17981V4.4164H4.82019V5.47634H1.17981V9.00315H5.34385V10.0946Z" transform="translate(20.549 25.653)" fill="white"/>
<path d="M6.99054 1.06625H4.08202V10.0946H2.90221V1.06625H-1.15524e-06V0H6.99685L6.99054 1.06625Z" transform="translate(26.8012 25.653)" fill="white"/>
<path d="M8.97161 10.0946H7.66562L6.57413 7.26814H2.32177L1.31861 10.0946H1.15524e-06L3.86751 -9.627e-08H5.09148L8.97161 10.0946ZM6.2082 6.2082L4.62461 1.91167C4.55313 1.69148 4.50037 1.46566 4.46688 1.23659V1.23659C4.43277 1.46612 4.37786 1.69208 4.30284 1.91167L2.73186 6.2082H6.2082Z" transform="translate(10.9719 12.6625)" fill="white"/>
<path d="M2.31048e-06 9.83879V8.45078C0.174547 8.60081 0.367472 8.72801 0.574132 8.82933C0.799458 8.94286 1.03367 9.03782 1.27445 9.11324C1.51826 9.18916 1.767 9.24818 2.01893 9.2899C2.246 9.33008 2.47603 9.35118 2.70662 9.35299C3.27831 9.39457 3.84841 9.25315 4.33438 8.9492C4.60471 8.7245 4.78843 8.41275 4.85405 8.0674C4.91966 7.72206 4.86308 7.36465 4.69401 7.05646C4.56306 6.84438 4.39408 6.6583 4.19558 6.50756C3.96013 6.32564 3.70887 6.16517 3.4448 6.02807L2.51735 5.57381C2.16404 5.39715 1.83596 5.21629 1.53312 5.03122C1.24369 4.85371 0.976774 4.64187 0.738172 4.40031C0.520147 4.19399 0.340676 3.95042 0.208201 3.68107C0.0644999 3.33279 -0.000403011 2.95704 0.0181396 2.58073C0.0366822 2.20442 0.138215 1.83688 0.31546 1.50441C0.513759 1.16832 0.785524 0.881458 1.11041 0.665295C1.454 0.438509 1.8338 0.272076 2.23344 0.17318C2.64568 0.0667227 3.0695 0.0116268 3.49527 0.00914278C4.23657 -0.0360769 4.97851 0.0868604 5.66562 0.368764V1.69999C4.98538 1.25889 4.18555 1.03855 3.3754 1.06908C3.11457 1.06934 2.85448 1.09683 2.59937 1.1511C2.35674 1.1997 2.12418 1.28931 1.91167 1.41608C1.71402 1.53465 1.54578 1.69642 1.41956 1.88927C1.28928 2.09915 1.22347 2.34265 1.23028 2.58958C1.22415 2.82093 1.27393 3.05035 1.37539 3.25835C1.47973 3.45591 1.62363 3.62986 1.79811 3.76939C2.01225 3.9407 2.24256 4.09072 2.4858 4.21734C2.75499 4.36456 3.06625 4.52439 3.41956 4.69684C3.77287 4.86929 4.11567 5.05646 4.44795 5.25835C4.75492 5.4356 5.04068 5.64727 5.29968 5.88927C5.53702 6.11927 5.73332 6.38812 5.88013 6.68422C6.02732 6.99559 6.10073 7.33671 6.09464 7.68107C6.10928 8.11976 6.00925 8.55468 5.80442 8.9429C5.61403 9.28282 5.34325 9.57093 5.01577 9.78201C4.66651 10.0055 4.27959 10.1637 3.87382 10.2489C3.42618 10.3466 2.96922 10.3953 2.51104 10.394C2.31281 10.3921 2.11483 10.3795 1.91798 10.3561C1.68244 10.3309 1.44269 10.2931 1.19874 10.2426C0.963774 10.1963 0.731977 10.1352 0.504731 10.0596C0.327671 10.0081 0.158023 9.93385 2.31048e-06 9.83879Z" transform="translate(20.9592 12.508)" fill="white"/>
<path d="M1.17981 6.31745V10.1029H1.73286e-06V0.008303H2.76972C3.6799 -0.0531518 4.58014 0.228173 5.29338 0.796947C5.59607 1.07875 5.83277 1.42395 5.98655 1.80786C6.14034 2.19178 6.20741 2.60492 6.18296 3.01777C6.19655 3.45722 6.11508 3.89443 5.94413 4.2995C5.77317 4.70456 5.51676 5.06794 5.19243 5.36477C4.45395 6.0022 3.4979 6.32992 2.52366 6.2796L1.17981 6.31745ZM1.17981 1.1124V5.2449H2.44164C3.12017 5.29717 3.79413 5.09723 4.33438 4.68338C4.54993 4.48371 4.71837 4.2386 4.82749 3.9658C4.93661 3.693 4.98368 3.39934 4.9653 3.10609C4.9653 1.77697 4.17876 1.1124 2.60568 1.1124H1.17981Z" transform="translate(28.5046 12.6294)" fill="white"/>
</svg>
