<svg width="48" height="48" fill="none" xmlns="http://www.w3.org/2000/svg"><path d="M24 48c13.255 0 24-10.745 24-24S37.255 0 24 0 0 10.745 0 24s10.745 24 24 24z" fill="#5C2D91"/><path opacity=".1" d="M7.923 6.657a23.67 23.67 0 1033.42 33.42L7.923 6.657z" fill="#fff"/><path d="M8.043 36.108a.999.999 0 01-.74-.31 1.02 1.02 0 01-.303-.74 1.036 1.036 0 01.303-.74.991.991 0 01.74-.318 1.013 1.013 0 01.74.318 1.028 1.028 0 01.31.74 1.013 1.013 0 01-.31.74 1.02 1.02 0 01-.74.31zM18.915 35.748h-1.451l-5.186-8.05a3.331 3.331 0 01-.322-.632h-.044c.05.459.068.92.057 1.382v7.3h-1.18V25.653h1.533l5.047 7.912c.21.328.347.553.41.675-.057-.492-.08-.988-.07-1.483v-7.104h1.18l.026 10.095zM25.893 35.748h-5.344V25.653h5.117v1.066h-3.937v3.35h3.64v1.06h-3.64v3.527h4.164v1.092zM33.792 26.72h-2.909v9.028h-1.18v-9.029h-2.902v-1.066h6.997l-.006 1.066zM19.944 22.757h-1.306l-1.092-2.826h-4.252l-1.003 2.826h-1.32l3.868-10.095h1.224l3.88 10.095zm-2.764-3.886l-1.583-4.297a4.114 4.114 0 01-.158-.675 3.83 3.83 0 01-.164.675l-1.571 4.297h3.476zM20.96 22.347v-1.388c.174.15.367.277.573.378.226.114.46.209.7.284.244.076.493.135.745.177.227.04.457.061.688.063a2.7 2.7 0 001.628-.404 1.514 1.514 0 00.36-1.893c-.132-.212-.3-.398-.5-.548a4.984 4.984 0 00-.75-.48l-.927-.454a13.265 13.265 0 01-.985-.543 4.214 4.214 0 01-.795-.63 2.524 2.524 0 01-.53-.72 2.555 2.555 0 01.108-2.177c.198-.336.47-.623.795-.839a3.615 3.615 0 011.123-.492 5.167 5.167 0 011.261-.164 4.927 4.927 0 012.17.36v1.331a3.937 3.937 0 00-2.29-.63c-.26 0-.52.027-.775.081a2.177 2.177 0 00-.688.265c-.198.119-.366.28-.492.473-.13.21-.196.454-.19.7-.006.232.044.461.146.67.104.197.248.37.422.51.214.172.445.322.688.448.27.148.58.307.934.48.353.172.696.36 1.028.561.307.178.593.39.852.631.237.23.434.5.58.795.148.312.22.653.215.997.014.439-.086.874-.29 1.262-.19.34-.462.628-.789.839-.35.224-.736.382-1.142.467a6.307 6.307 0 01-1.363.145 7.467 7.467 0 01-1.312-.151 5.673 5.673 0 01-.694-.183 2.137 2.137 0 01-.505-.221zM29.684 18.947v3.785h-1.18V12.638h2.77c.91-.062 1.81.22 2.524.788a2.808 2.808 0 01.89 2.221 3.054 3.054 0 01-.991 2.347 3.785 3.785 0 01-2.669.915l-1.344.038zm0-5.205v4.132h1.262a2.763 2.763 0 001.893-.561 1.981 1.981 0 00.63-1.578c0-1.329-.786-1.993-2.359-1.993h-1.426z" fill="#fff"/></svg>