<svg width="124" height="124" viewBox="0 0 124 124" fill="none" xmlns="http://www.w3.org/2000/svg">
<g clip-path="url(#clip0_1_5)">
<path fill-rule="evenodd" clip-rule="evenodd" d="M78.9569 9.16863C79.8984 10.3374 80.3785 11.9147 81.3388 15.0692L102.316 83.981C94.5604 79.9575 86.1289 77.0556 77.2366 75.49L63.5781 29.3336C63.3546 28.5783 62.6609 28.0602 61.8734 28.0602C61.0838 28.0602 60.3888 28.581 60.1671 29.3389L46.6739 75.4667C37.7405 77.0253 29.2704 79.9324 21.4812 83.9706L42.5617 15.0532H42.5618C43.5251 11.9042 44.0066 10.3297 44.9483 9.16295C45.7794 8.13296 46.8607 7.33303 48.0887 6.83939C49.4799 6.28025 51.1264 6.28025 54.4194 6.28025H69.4762C72.7737 6.28025 74.4223 6.28025 75.8147 6.84057C77.0439 7.33522 78.1257 8.13675 78.9569 9.16863Z" fill="url(#paint0_linear_1_5)"/>
<path fill-rule="evenodd" clip-rule="evenodd" d="M81.4671 87.2605C78.0089 90.2177 71.1064 92.2344 63.1556 92.2344C53.3972 92.2344 45.2181 89.1964 43.0477 85.1106C42.2718 87.4522 42.0978 90.1321 42.0978 91.8441C42.0978 91.8441 41.5866 100.25 47.4335 106.097C47.4335 103.061 49.8947 100.601 52.9307 100.601C58.1344 100.601 58.1285 105.14 58.1237 108.824C58.1236 108.934 58.1235 109.043 58.1235 109.152C58.1235 114.743 61.5403 119.535 66.3997 121.556C65.6739 120.063 65.2667 118.386 65.2667 116.615C65.2667 111.283 68.397 109.297 72.0351 106.99C74.9298 105.154 78.146 103.115 80.3625 99.0227C81.519 96.8876 82.1757 94.4428 82.1757 91.8441C82.1757 90.2461 81.9274 88.7061 81.4671 87.2605Z" fill="#FF5D01"/>
<path fill-rule="evenodd" clip-rule="evenodd" d="M81.4671 87.2605C78.0089 90.2177 71.1064 92.2344 63.1556 92.2344C53.3972 92.2344 45.2181 89.1964 43.0477 85.1106C42.2718 87.4522 42.0978 90.1321 42.0978 91.8441C42.0978 91.8441 41.5866 100.25 47.4335 106.097C47.4335 103.061 49.8947 100.601 52.9307 100.601C58.1344 100.601 58.1285 105.14 58.1237 108.824C58.1236 108.934 58.1235 109.043 58.1235 109.152C58.1235 114.743 61.5403 119.535 66.3997 121.556C65.6739 120.063 65.2667 118.386 65.2667 116.615C65.2667 111.283 68.397 109.297 72.0351 106.99C74.9298 105.154 78.146 103.115 80.3625 99.0227C81.519 96.8876 82.1757 94.4428 82.1757 91.8441C82.1757 90.2461 81.9274 88.7061 81.4671 87.2605Z" fill="url(#paint1_linear_1_5)"/>
</g>
<defs>
<linearGradient id="paint0_linear_1_5" x1="85.5403" y1="2.62659" x2="61.8988" y2="83.9811" gradientUnits="userSpaceOnUse">
<stop stop-color="#000014"/>
<stop offset="1" stop-color="#150426"/>
</linearGradient>
<linearGradient id="paint1_linear_1_5" x1="97.0378" y1="63.2061" x2="76.5628" y2="106.069" gradientUnits="userSpaceOnUse">
<stop stop-color="#FF1639"/>
<stop offset="1" stop-color="#FF1639" stop-opacity="0"/>
</linearGradient>
<clipPath id="clip0_1_5">
<rect width="124" height="124" fill="white"/>
</clipPath>
</defs>
</svg>
