<svg xmlns="http://www.w3.org/2000/svg" width="2000" height="2000" fill="none"><path fill="url(#a)" d="M694.542 136.333H1237L673.875 1804.81a86.467 86.467 0 0 1-31.505 42.6 86.575 86.575 0 0 1-50.432 16.24H169.771a86.472 86.472 0 0 1-39.423-9.52 86.35 86.35 0 0 1-30.73-26.47 86.393 86.393 0 0 1-15.258-37.57 86.362 86.362 0 0 1 3.578-40.4L612.583 195.167a86.51 86.51 0 0 1 31.509-42.616 86.481 86.481 0 0 1 50.45-16.218Z"/><path fill="#0078D4" d="M1482.81 1255.44H622.604a39.844 39.844 0 0 0-22.426 6.88 39.831 39.831 0 0 0-14.654 18.32 39.807 39.807 0 0 0 9.893 43.73l552.753 515.92a86.92 86.92 0 0 0 59.29 23.36h487.08l-211.73-608.21Z"/><path fill="url(#b)" d="M694.542 136.333a85.793 85.793 0 0 0-82.146 59.98L88.583 1748.27a86.262 86.262 0 0 0 10.714 78.86 86.346 86.346 0 0 0 30.888 26.9 86.43 86.43 0 0 0 39.815 9.62h433.063a92.684 92.684 0 0 0 43.685-20.61 92.567 92.567 0 0 0 27.356-39.81l104.459-307.85 373.127 348.02a88.302 88.302 0 0 0 55.54 20.25h485.27l-212.83-608.21-620.441.14L1238.96 136.333H694.542Z"/><path fill="url(#c)" d="M1387.4 195.083a86.393 86.393 0 0 0-31.47-42.544 86.33 86.33 0 0 0-50.37-16.206H701a86.375 86.375 0 0 1 81.833 58.75L1307.5 1749.67a86.286 86.286 0 0 1 3.59 40.4 86.325 86.325 0 0 1-15.26 37.59 86.399 86.399 0 0 1-30.73 26.48 86.387 86.387 0 0 1-39.43 9.53h604.58a86.452 86.452 0 0 0 39.42-9.54 86.399 86.399 0 0 0 30.73-26.48 86.44 86.44 0 0 0 15.25-37.58c2.03-13.56.8-27.41-3.59-40.4L1387.4 195.083Z"/><defs><linearGradient id="a" x1="892.25" x2="328.896" y1="264.333" y2="1928.63" gradientUnits="userSpaceOnUse"><stop stop-color="#114A8B"/><stop offset="1" stop-color="#0669BC"/></linearGradient><linearGradient id="b" x1="1068.23" x2="937.917" y1="1039.94" y2="1084" gradientUnits="userSpaceOnUse"><stop stop-opacity=".3"/><stop offset=".071" stop-opacity=".2"/><stop offset=".321" stop-opacity=".1"/><stop offset=".623" stop-opacity=".05"/><stop offset="1" stop-opacity="0"/></linearGradient><linearGradient id="c" x1="996.562" x2="1614.96" y1="215.792" y2="1863.31" gradientUnits="userSpaceOnUse"><stop stop-color="#3CCBF4"/><stop offset="1" stop-color="#2892DF"/></linearGradient></defs></svg>
