<?xml version="1.0" standalone="no"?>
<!DOCTYPE svg PUBLIC "-//W3C//DTD SVG 20010904//EN"
 "http://www.w3.org/TR/2001/REC-SVG-20010904/DTD/svg10.dtd">
<svg version="1.0" xmlns="http://www.w3.org/2000/svg"
 width="225.000000pt" height="307.000000pt" viewBox="0 0 225.000000 307.000000"
 preserveAspectRatio="xMidYMid meet">
<metadata>
Created by potrace 1.16, written by Peter Selinger 2001-2019
</metadata>
<g transform="translate(0.000000,307.000000) scale(0.100000,-0.100000)"
fill="#000000" stroke="none">
<path d="M1005 2885 c-95 -21 -167 -52 -241 -104 -121 -84 -206 -198 -251
-335 -22 -68 -26 -99 -27 -196 0 -78 5 -134 16 -174 l17 -59 -30 -28 c-35 -33
-59 -86 -59 -131 1 -44 31 -110 63 -135 25 -19 25 -20 11 -79 -37 -157 4 -319
113 -443 l45 -52 2 -142 c1 -164 11 -194 76 -227 37 -19 58 -20 392 -20 389 0
397 1 442 63 19 26 21 44 23 181 l1 152 41 44 c53 59 97 142 116 221 19 81 19
137 0 217 l-15 64 26 21 c33 25 63 91 64 135 0 42 -22 95 -53 126 l-25 25 19
68 c23 84 25 231 3 323 -27 115 -79 205 -174 301 -69 70 -101 94 -170 128
-138 67 -286 87 -425 56z m308 -104 c184 -64 324 -214 372 -397 27 -104 14
-281 -25 -355 -10 -18 -13 -18 -40 -4 -16 8 -43 15 -60 15 -24 0 -30 4 -30 21
0 48 -48 105 -102 119 l-38 11 0 59 0 60 -260 0 -260 0 0 -60 c0 -57 -1 -60
-27 -66 -50 -12 -93 -52 -105 -99 -10 -39 -15 -43 -47 -48 -20 -3 -44 -8 -54
-12 -23 -10 -44 42 -59 145 -41 281 154 561 435 626 83 19 224 12 300 -15z m7
-600 l0 -58 50 -5 c69 -7 90 -28 90 -90 0 -30 -4 -47 -10 -43 -5 3 -10 26 -10
50 0 53 -16 65 -84 65 l-46 0 0 60 0 60 -180 0 -180 0 0 -60 0 -60 -49 0 c-63
0 -81 -17 -81 -76 0 -24 -4 -44 -10 -44 -5 0 -10 20 -10 44 0 63 23 87 88 94
l52 5 0 58 0 59 190 0 190 0 0 -59z m-170 -181 c0 -5 -10 -10 -22 -10 -19 0
-20 2 -8 10 19 13 30 13 30 0z m60 0 c0 -5 -7 -10 -16 -10 -8 0 -12 5 -9 10 3
6 10 10 16 10 5 0 9 -4 9 -10z m30 0 c0 -5 -4 -10 -10 -10 -5 0 -10 5 -10 10
0 6 5 10 10 10 6 0 10 -4 10 -10z m-667 -177 c3 -5 1 -15 -4 -23 -8 -13 -13
-11 -29 9 -25 29 -26 69 -3 101 l18 25 6 -51 c4 -29 9 -56 12 -61z m1162 57
c7 -32 -11 -81 -33 -88 -10 -3 -12 8 -7 50 4 29 8 59 11 66 6 20 22 5 29 -28z
m-742 3 c-13 -2 -35 -2 -50 0 -16 2 -5 4 22 4 28 0 40 -2 28 -4z m124 1 c-3
-3 -12 -4 -19 -1 -8 3 -5 6 6 6 11 1 17 -2 13 -5z m100 0 c-3 -3 -12 -4 -19
-1 -8 3 -5 6 6 6 11 1 17 -2 13 -5z m-450 -118 c-22 -57 -31 -115 -31 -208 0
-59 -4 -102 -8 -95 -23 37 6 317 34 317 6 0 8 -6 5 -14z m754 -28 c19 -70 28
-169 22 -230 -3 -32 -9 -58 -12 -58 -3 0 -6 53 -7 118 -1 76 -6 133 -17 165
-8 26 -11 47 -6 47 4 0 13 -19 20 -42z m-857 -17 c-4 -9 -9 -73 -12 -143 l-4
-128 -29 0 c-36 0 -44 26 -36 117 8 78 52 184 74 176 9 -3 11 -12 7 -22z m978
-28 c27 -60 43 -158 34 -205 -6 -34 -10 -38 -36 -38 l-29 0 2 83 c1 45 -2 110
-6 145 -10 76 5 83 35 15z m-621 -215 l20 -28 -20 0 c-13 0 -26 11 -36 30 -32
61 -8 61 36 -2z m244 3 c-13 -27 -35 -42 -35 -25 0 8 44 62 48 59 2 -2 -4 -17
-13 -34z m-564 -186 c15 -36 23 -65 19 -65 -12 0 -67 65 -85 100 -15 30 -15
30 12 30 25 0 31 -7 54 -65z m87 13 c12 -27 17 -48 13 -48 -10 0 -41 66 -41
87 0 22 4 17 28 -39z m703 -2 c-11 -25 -25 -46 -31 -46 -6 0 1 23 16 51 31 62
43 58 15 -5z m132 23 c-23 -39 -74 -101 -79 -96 -2 2 3 21 12 43 9 21 20 49
25 62 6 15 17 22 34 22 l26 0 -18 -31z m-613 -46 c0 -8 -14 -13 -35 -13 -34 0
-36 1 -33 34 l2 34 33 -22 c18 -11 33 -27 33 -33z m50 -9 c0 -2 -9 -4 -21 -4
-11 0 -18 4 -14 10 5 8 35 3 35 -6z m-290 -124 c-18 -18 -20 -33 -20 -144 0
-100 3 -128 16 -140 13 -14 61 -16 368 -16 260 0 355 3 364 12 8 8 12 55 12
144 0 126 -1 134 -22 148 -18 13 -19 16 -6 16 37 0 48 -38 48 -168 0 -117 -1
-124 -25 -147 l-24 -25 -341 0 c-286 0 -346 2 -370 15 l-30 16 0 142 c0 143 5
167 37 167 8 0 6 -7 -7 -20z m346 -19 c1 -14 13 -34 28 -46 35 -28 36 -72 0
-85 -39 -15 -44 -13 -44 25 0 21 5 35 13 35 8 0 7 4 -3 10 -8 5 -11 10 -7 10
4 0 3 9 -3 20 -17 33 -30 13 -30 -46 0 -31 -4 -54 -11 -54 -5 0 -7 5 -3 12 5
7 3 8 -7 3 -7 -5 -22 -10 -31 -10 -15 -1 -18 7 -18 52 0 46 -3 53 -20 53 -18
0 -20 -7 -20 -60 0 -57 -1 -60 -25 -60 -32 0 -45 26 -45 89 0 83 -2 82 119 79
105 -3 106 -3 107 -27z m235 -56 c20 -48 14 -75 -16 -75 -20 0 -25 5 -25 24 0
14 4 36 9 50 7 16 7 26 0 28 -6 2 -7 12 -3 23 7 17 8 17 17 -6 5 -13 13 -33
18 -44z m-72 -21 c2 -42 -1 -55 -11 -52 -7 3 -13 11 -13 19 0 16 -27 20 -37 4
-4 -5 -8 2 -8 16 0 15 7 32 16 39 13 11 16 10 21 -9 4 -17 8 -19 14 -9 13 19
11 30 -3 22 -9 -5 -9 -2 1 9 7 9 14 17 16 17 1 0 3 -25 4 -56z"/>
<path d="M955 1300 c-3 -5 -1 -10 4 -10 6 0 11 5 11 10 0 6 -2 10 -4 10 -3 0
-8 -4 -11 -10z"/>
<path d="M141 586 c-20 -21 -22 -31 -16 -63 10 -50 10 -219 0 -261 -6 -29 -3
-38 21 -63 25 -26 34 -29 95 -29 37 0 80 5 95 10 16 7 31 7 38 1 15 -12 318
-12 333 0 7 7 13 6 17 0 8 -13 207 -13 223 1 8 6 18 6 31 -1 11 -6 101 -10
215 -10 l196 0 24 29 25 29 27 -29 c27 -28 30 -29 131 -29 57 0 106 5 110 10
4 7 10 7 18 0 15 -13 217 -13 233 0 8 7 18 7 32 0 31 -17 79 -13 100 8 16 16
19 40 23 197 5 170 4 180 -15 202 -16 17 -31 22 -72 22 -28 0 -56 -5 -62 -11
-8 -8 -13 -8 -17 0 -4 6 -29 11 -55 11 -35 0 -53 -5 -66 -20 -17 -19 -18 -19
-43 0 -32 26 -117 28 -144 3 -17 -15 -19 -15 -36 0 -11 10 -36 17 -61 17 -39
0 -44 -3 -69 -45 -15 -24 -30 -45 -33 -45 -3 0 -14 18 -24 40 -10 22 -25 42
-34 45 -9 3 -134 4 -278 4 -241 -2 -264 -3 -279 -20 -16 -18 -17 -18 -42 1
-17 14 -40 20 -77 20 -47 0 -56 -4 -79 -31 -14 -17 -26 -26 -26 -20 0 6 -15
20 -32 31 -25 15 -51 20 -108 20 -42 0 -81 -5 -87 -11 -8 -8 -17 -8 -31 0 -11
6 -56 11 -100 11 -70 0 -81 -3 -101 -24z m909 -183 c0 -21 -3 -24 -9 -14 -5 8
-7 20 -4 28 8 21 13 15 13 -14z"/>
</g>
</svg>
