<?xml version="1.0" encoding="utf-8"?>
<!-- Generator: Adobe Illustrator 27.1.1, SVG Export Plug-In . SVG Version: 6.00 Build 0)  -->
<svg version="1.1"
	 id="svg182" xmlns:cc="http://creativecommons.org/ns#" xmlns:dc="http://purl.org/dc/elements/1.1/" xmlns:rdf="http://www.w3.org/1999/02/22-rdf-syntax-ns#" xmlns:svg="http://www.w3.org/2000/svg"
	 xmlns="http://www.w3.org/2000/svg" xmlns:xlink="http://www.w3.org/1999/xlink" x="0px" y="0px" viewBox="0 0 200 200"
	 style="enable-background:new 0 0 200 200;" xml:space="preserve">
<style type="text/css">
	.st0{clip-path:url(#SVGID_00000017487320192816941500000010669085827537399432_);}
	.st1{opacity:0.48;clip-path:url(#SVGID_00000002378583191165474750000005699986704311104175_);}
	.st2{fill:#231F20;}
	.st3{fill:url(#path240_00000096018970010303319240000012214982298128387254_);}
	.st4{opacity:0.57;clip-path:url(#SVGID_00000080178026845783565620000016142329364159177360_);}
	.st5{clip-path:url(#SVGID_00000141453679650580788180000008406319558428115128_);}
	.st6{fill:url(#path252_00000027583484133557810690000012632991952469731254_);}
	.st7{filter:url(#Adobe_OpacityMaskFilter);}
	.st8{clip-path:url(#SVGID_00000149373774356464134010000010527652408606077119_);}
	.st9{mask:url(#mask306_00000168824315084055406490000006816710363093940146_);}
	.st10{clip-path:url(#SVGID_00000145755831479463850200000005289738331906313917_);}
	.st11{fill:#95969B;}
	.st12{opacity:0.77;clip-path:url(#SVGID_00000045619317114995577040000007896810020832654977_);}
	.st13{fill:#6C6C71;}
	.st14{fill:#C51F36;}
	.st15{clip-path:url(#SVGID_00000012455684429350534360000012174316111669492101_);}
	.st16{fill:url(#path386_00000058554820921588353530000016961625636608523445_);}
	.st17{clip-path:url(#SVGID_00000101097900363247296610000009104764466698202284_);}
	.st18{clip-path:url(#SVGID_00000163050914639317030820000006014208583732727742_);}
	.st19{fill:url(#path446_00000084492838043458588240000008823570792530524816_);}
	.st20{clip-path:url(#SVGID_00000131332046512280638360000012439295227389079179_);}
	.st21{opacity:0.57;clip-path:url(#SVGID_00000072247812164043823160000016855424314527797155_);}
	.st22{clip-path:url(#SVGID_00000137110489977986518450000007652156011293868198_);}
	.st23{fill:url(#path474_00000145053320650701331630000006143442474350178999_);}
	.st24{opacity:0.38;clip-path:url(#SVGID_00000008144607952045268370000009905220480925961648_);}
	.st25{fill:#F47D55;}
</style>
<g id="g190" transform="matrix(1.3333333,0,0,-1.3333333,0,1587.4)">
	<g id="g805" transform="matrix(1.0742972,0,0,1.0742972,-31.855093,-85.74412)">
		<g id="g192">
			<g>
				<defs>
					<rect id="SVGID_1_" x="4.7" y="967.9" width="189.4" height="267.9"/>
				</defs>
				<clipPath id="SVGID_00000154391539661197423850000002823756470004782730_">
					<use xlink:href="#SVGID_1_"  style="overflow:visible;"/>
				</clipPath>
				<g id="g194" style="clip-path:url(#SVGID_00000154391539661197423850000002823756470004782730_);">
					<g id="g200">
						<g id="g202">
						</g>
						<g id="g292">
							<g>
								<defs>
									<rect id="SVGID_00000133501757207051601520000010038913463002394500_" x="84.3" y="1088.2" width="30.9" height="33.6"/>
								</defs>
								<clipPath id="SVGID_00000059303738125909136980000001573895382608876215_">
									<use xlink:href="#SVGID_00000133501757207051601520000010038913463002394500_"  style="overflow:visible;"/>
								</clipPath>
								<g id="g290" style="opacity:0.48;clip-path:url(#SVGID_00000059303738125909136980000001573895382608876215_);">
									<g id="g238" transform="translate(367.2607,631.2412)">
										<path id="path236" class="st2" d="M-276.2,476.2l8.7-11.4l8.7,11.4l-4.3,7.5h-8.7L-276.2,476.2z M-267.5,462l-10.8,14.1
											l5.4,9.4h10.8l5.4-9.4L-267.5,462z"/>
									</g>
									<g id="g248">
										<g id="g246">
											<g id="g244">
												<g id="g242">
													
														<radialGradient id="path240_00000011738204591262746450000003190028973140805283_" cx="83.8468" cy="1101.6005" r="0.1571" gradientTransform="matrix(76.9478 0 0 -76.9477 -6352.0957 85871.375)" gradientUnits="userSpaceOnUse">
														<stop  offset="0" style="stop-color:#EC1E4B"/>
														<stop  offset="0.4097" style="stop-color:#EC1E4B"/>
														<stop  offset="0.9448" style="stop-color:#9D1C29"/>
														<stop  offset="1" style="stop-color:#9D1C29"/>
													</radialGradient>
													<path id="path240" style="fill:url(#path240_00000011738204591262746450000003190028973140805283_);" d="M91.6,1107.5
														l4,7h8.2l4-7l-8.1-10.6L91.6,1107.5z"/>
												</g>
											</g>
										</g>
									</g>
									<g id="g266">
										<g id="g250">
										</g>
										<g id="g264">
											<g>
												<defs>
													
														<rect id="SVGID_00000122708204939697018010000012468810374368472985_" x="92.4" y="1098.7" width="14.6" height="15.7"/>
												</defs>
												<clipPath id="SVGID_00000105396911904577871650000005001368111149288863_">
													<use xlink:href="#SVGID_00000122708204939697018010000012468810374368472985_"  style="overflow:visible;"/>
												</clipPath>
												<g id="g262" style="opacity:0.57;clip-path:url(#SVGID_00000105396911904577871650000005001368111149288863_);">
													<g id="g260">
														<g>
															<defs>
																<polygon id="SVGID_00000072265404199397335790000005933435859969363868_" points="94.6,1107.7 97.1,1112 
																	102.4,1112 104.8,1107.7 99.7,1101.1 																"/>
															</defs>
															<clipPath id="SVGID_00000153687101095558595500000015719986685042693268_">
																<use xlink:href="#SVGID_00000072265404199397335790000005933435859969363868_"  style="overflow:visible;"/>
															</clipPath>
															<g id="g258" style="clip-path:url(#SVGID_00000153687101095558595500000015719986685042693268_);">
																<g id="g256">
																	<g id="g254">
																		
																			<radialGradient id="path252_00000084508212781005652080000007289397589007310005_" cx="80.884" cy="1097.4613" r="0.1571" gradientTransform="matrix(48.1903 0 0 -48.1903 -3798.0991 53993.5195)" gradientUnits="userSpaceOnUse">
																			<stop  offset="0" style="stop-color:#771117"/>
																			<stop  offset="1" style="stop-color:#F18051"/>
																		</radialGradient>
																		<path id="path252" style="fill:url(#path252_00000084508212781005652080000007289397589007310005_);" d="
																			M94.6,1107.7l2.5,4.3h5.3l2.5-4.3l-5.1-6.7L94.6,1107.7z"/>
																	</g>
																</g>
															</g>
														</g>
													</g>
												</g>
											</g>
										</g>
									</g>
									<g id="g270" transform="translate(441.6631,657.7402)">
										<path id="path268" class="st2" d="M-338.9,453.9l-1.1,0.7l1.9,3l1.1-0.7L-338.9,453.9z"/>
									</g>
									<g id="g274" transform="translate(402.3794,657.8818)">
										<path id="path272" class="st2" d="M-305.8,453.8l-1.7,3l1.1,0.6l1.7-3L-305.8,453.8z"/>
									</g>
									<g id="g278" transform="translate(394.9146,633.0283)">
										<path id="path276" class="st2" d="M-299.5,474.7l4.3-5.7l4.3,5.7l-2.1,3.6h-4.6L-299.5,474.7z M-295.2,467l-5.8,7.6
											l2.9,4.9h6l2.9-4.9L-295.2,467z"/>
									</g>
									<g id="g282" transform="translate(477.6836,627.2744)">
										<path id="path280" class="st2" d="M-369.3,479.6l-3.6,0.2l0.1,1.2l3.6-0.2L-369.3,479.6z"/>
									</g>
									<g id="g286" transform="translate(367.5161,627.2744)">
										<path id="path284" class="st2" d="M-276.4,479.6l-0.1,1.2l3.6,0.2l0.1-1.2L-276.4,479.6z"/>
									</g>
									<path id="path288" class="st2" d="M100.3,1095.2h-1.2v5.8h1.2V1095.2z"/>
								</g>
							</g>
						</g>
					</g>
					<g id="g294">
						<g id="g296">
						</g>
						<defs>
							<filter id="Adobe_OpacityMaskFilter" filterUnits="userSpaceOnUse" x="72.5" y="-1142.9" width="54.4" height="77.4">
								<feColorMatrix  type="matrix" values="1 0 0 0 0  0 1 0 0 0  0 0 1 0 0  0 0 0 1 0"/>
							</filter>
						</defs>
						
							<mask maskUnits="userSpaceOnUse" x="72.5" y="-1142.9" width="54.4" height="77.4" id="mask306_00000168824315084055406490000006816710363093940146_">
							<g id="g326_00000132778669101499669910000011182068997906196362_" class="st7">
								<g>
									<defs>
										<rect id="SVGID_00000183249659748619583310000003213412181404197292_" x="57.1" y="1089.3" width="54.4" height="77.4"/>
									</defs>
									<clipPath id="SVGID_00000117653019682414346360000016864093743047137944_">
										<use xlink:href="#SVGID_00000183249659748619583310000003213412181404197292_"  style="overflow:visible;"/>
									</clipPath>
									<g id="g324_00000026121878138244043860000011225139533901276349_">
										
											<path id="path308_00000034788832371687268820000018429498010480267405_" style="clip-path:url(#SVGID_00000117653019682414346360000016864093743047137944_);" d="
											M65.3,1101h37.9v54H65.3V1101z"/>
										<g id="g322_00000005957805525071274060000004732297971710805408_">
											<g id="g310_00000147916613254133662310000001538080298265108396_">
											</g>
											<g id="g320_00000178192430490665598900000012510910857395317426_">
												<g>
													<defs>
														
															<rect id="SVGID_00000118370280242425360000000004652360554406338207_" x="57.1" y="1089.3" width="54.4" height="77.4"/>
													</defs>
													
														<clipPath id="SVGID_00000171690552032148297680000015844390083686490505_" style="clip-path:url(#SVGID_00000117653019682414346360000016864093743047137944_);">
														<use xlink:href="#SVGID_00000118370280242425360000000004652360554406338207_"  style="overflow:visible;"/>
													</clipPath>
													<g id="g318_00000060709183655130211150000007985346399002989188_">
														<g id="g316_00000139972565170212322840000009531917272892721317_">
															
																<g id="g314_00000150782967447873399710000005247919831917484196_" transform="matrix(377.79861,0,0,566.69792,225.46387,347.53938)">
																
																	<g transform="matrix(3.655813e-04 0 0 2.437209e-04 -0.4308 1.3184)" style="clip-path:url(#SVGID_00000171690552032148297680000015844390083686490505_);enable-background:new    ;">
																	
																		<image style="overflow:visible;" width="300" height="450" id="image312_00000084488177842956364100000015300340047121932950_" xlink:href="BE566E18.png"  transform="matrix(3.655813e-04 0 0 2.437209e-04 -0.4308 1.3184)">
																	</image>
																</g>
															</g>
														</g>
													</g>
												</g>
											</g>
										</g>
									</g>
								</g>
							</g>
						</mask>
						<g id="g328" class="st9">
							<g id="g330">
							</g>
							<g id="g342">
								<g>
									<defs>
										<rect id="SVGID_00000011026200707899184140000004861960480310769085_" x="60.7" y="1048.7" width="77.9" height="110.9"/>
									</defs>
									<clipPath id="SVGID_00000056404139756797346510000010706875162654536363_">
										<use xlink:href="#SVGID_00000011026200707899184140000004861960480310769085_"  style="overflow:visible;"/>
									</clipPath>
									<g id="g340" style="clip-path:url(#SVGID_00000056404139756797346510000010706875162654536363_);">
										<g id="g338" transform="translate(577.3955,759.8364)">
											<path id="path336" class="st11" d="M-453.4,367.9h-6.8c0,0.1,0,0.1,0,0.2v5.2c0,1.6-1.3,2.8-2.8,2.8h-4.9v6.9h-19.9v-6.9
												h-4.9c-1.6,0-2.8-1.3-2.8-2.8V368c0-0.1,0-0.1,0-0.2h-6.8c-1.6,0-2.8-1.3-2.8-2.8v-1.7c0-1.6,1.3-2.8,2.8-2.8h5.2
												c-2-4.3-3.2-9.3-3.2-14.6c0-6.9,2-13.2,5.2-18.1v-4h-0.6c-2,0-3.6-1.3-3.6-2.8v-12.6c0-1.6,1.6-2.8,3.6-2.8h35.5
												c2,0,3.6,1.3,3.6,2.8V321c0,1.6-1.6,2.8-3.6,2.8h-2v2c4.1,5.1,6.6,12.2,6.6,20.1c0,5.4-1.2,10.4-3.2,14.6h5.2
												c1.6,0,2.8,1.3,2.8,2.8v1.7C-450.5,366.6-451.8,367.9-453.4,367.9"/>
										</g>
									</g>
								</g>
							</g>
						</g>
					</g>
					<g id="g344">
						<g id="g346">
						</g>
						<g id="g358">
							<g>
								<defs>
									<rect id="SVGID_00000049923081341470029910000013809036275394751893_" x="60.7" y="1048.7" width="77.9" height="110.9"/>
								</defs>
								<clipPath id="SVGID_00000055704644191409971480000015898082323227183756_">
									<use xlink:href="#SVGID_00000049923081341470029910000013809036275394751893_"  style="overflow:visible;"/>
								</clipPath>
								<g id="g356" style="opacity:0.77;clip-path:url(#SVGID_00000055704644191409971480000015898082323227183756_);">
									<g id="g354" transform="translate(577.3955,759.8364)">
										<path id="path352" class="st13" d="M-453.4,367.9h-6.8c0,0.1,0,0.1,0,0.2v5.2c0,1.6-1.3,2.8-2.8,2.8h-4.9v6.9h-19.9v-6.9
											h-4.9c-1.6,0-2.8-1.3-2.8-2.8V368c0-0.1,0-0.1,0-0.2h-6.8c-1.6,0-2.8-1.3-2.8-2.8v-1.7c0-1.6,1.3-2.8,2.8-2.8h5.2
											c-2-4.3-3.2-9.3-3.2-14.6c0-6.9,2-13.2,5.2-18.1v-4h-0.6c-2,0-3.6-1.3-3.6-2.8v-12.6c0-1.6,1.6-2.8,3.6-2.8h35.5
											c2,0,3.6,1.3,3.6,2.8V321c0,1.6-1.6,2.8-3.6,2.8h-2v2c4.1,5.1,6.6,12.2,6.6,20.1c0,5.4-1.2,10.4-3.2,14.6h5.2
											c1.6,0,2.8,1.3,2.8,2.8v1.7C-450.5,366.6-451.8,367.9-453.4,367.9"/>
									</g>
								</g>
							</g>
						</g>
					</g>
					<g id="g360" transform="translate(333.8677,698.9834)">
						<path id="path362" class="st14" d="M-248.1,419.1c-0.8-2.4-1.3-4.9-1.3-7.7c0-10.5,6.6-19,14.8-19c8.2,0,14.8,8.5,14.8,19
							c0,2.7-0.5,5.3-1.3,7.7H-248.1z"/>
					</g>
				</g>
			</g>
		</g>
		<g id="g364">
			<g>
				<defs>
					<path id="SVGID_00000035514044008001097190000010003905767698002072_" d="M85.8,1118.1c-0.8-2.4-1.3-4.9-1.3-7.7l0,0
						c0-10.5,6.6-19,14.8-19l0,0c8.2,0,14.8,8.5,14.8,19l0,0c0,2.7-0.5,5.3-1.3,7.7l0,0H85.8z"/>
				</defs>
				<clipPath id="SVGID_00000166656044795361492160000003768011433310532513_">
					<use xlink:href="#SVGID_00000035514044008001097190000010003905767698002072_"  style="overflow:visible;"/>
				</clipPath>
				<g id="g366" style="clip-path:url(#SVGID_00000166656044795361492160000003768011433310532513_);">
					<g id="g372">
						<g id="g374">
							
								<radialGradient id="path386_00000123440374782297315370000015755255488471416995_" cx="85.8566" cy="1104.4067" r="0.1571" gradientTransform="matrix(128.5681 0 0 -128.5681 -10939.0918 143096.2656)" gradientUnits="userSpaceOnUse">
								<stop  offset="0" style="stop-color:#F5865C"/>
								<stop  offset="0.4097" style="stop-color:#F5865C"/>
								<stop  offset="0.9448" style="stop-color:#C51F36"/>
								<stop  offset="1" style="stop-color:#C51F36"/>
							</radialGradient>
							<path id="path386" style="fill:url(#path386_00000123440374782297315370000015755255488471416995_);" d="M85.8,1118.1
								c-0.8-2.4-1.3-4.9-1.3-7.7l0,0c0-10.5,6.6-19,14.8-19l0,0c8.2,0,14.8,8.5,14.8,19l0,0c0,2.7-0.5,5.3-1.3,7.7l0,0H85.8z"/>
						</g>
					</g>
				</g>
			</g>
		</g>
		<g id="g388">
			<g>
				<defs>
					<rect id="SVGID_00000032647455717983648270000016485693668821347976_" x="4.7" y="967.9" width="189.4" height="267.9"/>
				</defs>
				<clipPath id="SVGID_00000165940574042478829450000002914425014849703870_">
					<use xlink:href="#SVGID_00000032647455717983648270000016485693668821347976_"  style="overflow:visible;"/>
				</clipPath>
				<g id="g390" style="clip-path:url(#SVGID_00000165940574042478829450000002914425014849703870_);">
					<g id="g396" transform="translate(334.7827,386.2803)">
						<path id="path398" class="st2" d="M-248.9,682.7c0-0.3-0.3-0.5-0.7-0.5c-0.4,0-0.7,0.2-0.7,0.5v10.8c0,0.3,0.3,0.5,0.7,0.5
							c0.4,0,0.7-0.2,0.7-0.5V682.7z"/>
					</g>
					<g id="g400" transform="translate(372.3696,386.2803)">
						<path id="path402" class="st2" d="M-280.5,682.7c0-0.3-0.3-0.5-0.7-0.5c-0.4,0-0.7,0.2-0.7,0.5v10.8c0,0.3,0.3,0.5,0.7,0.5
							c0.4,0,0.7-0.2,0.7-0.5V682.7z"/>
					</g>
					<g id="g404" transform="translate(409.9556,386.2803)">
						<path id="path406" class="st2" d="M-312.2,682.7c0-0.3-0.3-0.5-0.7-0.5s-0.7,0.2-0.7,0.5v10.8c0,0.3,0.3,0.5,0.7,0.5
							s0.7-0.2,0.7-0.5V682.7z"/>
					</g>
					<g id="g408" transform="translate(447.5391,386.2803)">
						<path id="path410" class="st2" d="M-343.9,682.7c0-0.3-0.3-0.5-0.7-0.5c-0.4,0-0.7,0.2-0.7,0.5v10.8c0,0.3,0.3,0.5,0.7,0.5
							c0.4,0,0.7-0.2,0.7-0.5V682.7z"/>
					</g>
					<g id="g412" transform="translate(485.1221,386.2803)">
						<path id="path414" class="st2" d="M-375.6,682.7c0-0.3-0.3-0.5-0.7-0.5c-0.4,0-0.7,0.2-0.7,0.5v10.8c0,0.3,0.3,0.5,0.7,0.5
							c0.4,0,0.7-0.2,0.7-0.5V682.7z"/>
					</g>
					<g id="g416" transform="translate(522.71,386.2803)">
						<path id="path418" class="st2" d="M-407.3,682.7c0-0.3-0.3-0.5-0.7-0.5c-0.4,0-0.7,0.2-0.7,0.5v10.8c0,0.3,0.3,0.5,0.7,0.5
							c0.4,0,0.7-0.2,0.7-0.5V682.7z"/>
					</g>
					<g id="g420" transform="translate(368.375,629.0879)">
						<path id="path422" class="st2" d="M-277.2,478.1l8.5-11.1l8.5,11.1l-4.2,7.3h-8.6L-277.2,478.1z M-268.6,464.1l-10.6,13.8
							l5.3,9.2h10.5l5.3-9.2L-268.6,464.1z"/>
					</g>
				</g>
			</g>
		</g>
		<g id="g424">
			<g>
				<defs>
					<polygon id="SVGID_00000000930225842677515650000014549210075213163940_" points="95.7,1114 91.8,1107.2 99.7,1096.8 
						107.7,1107.2 103.7,1114 					"/>
				</defs>
				<clipPath id="SVGID_00000173878616298429084050000010655000400148903074_">
					<use xlink:href="#SVGID_00000000930225842677515650000014549210075213163940_"  style="overflow:visible;"/>
				</clipPath>
				<g id="g426" style="clip-path:url(#SVGID_00000173878616298429084050000010655000400148903074_);">
					<g id="g432">
						<g id="g434">
							
								<radialGradient id="path446_00000076586233680691846170000014657925577380798643_" cx="83.745" cy="1101.4338" r="0.1571" gradientTransform="matrix(75.403 0 0 -75.403 -6214.897 84156.7656)" gradientUnits="userSpaceOnUse">
								<stop  offset="0" style="stop-color:#EC1E4B"/>
								<stop  offset="0.4097" style="stop-color:#EC1E4B"/>
								<stop  offset="0.9448" style="stop-color:#9D1C29"/>
								<stop  offset="1" style="stop-color:#9D1C29"/>
							</radialGradient>
							<path id="path446" style="fill:url(#path446_00000076586233680691846170000014657925577380798643_);" d="M95.7,1114l-3.9-6.8
								l7.9-10.4l7.9,10.4l-3.9,6.8H95.7z"/>
						</g>
					</g>
				</g>
			</g>
		</g>
		<g>
			<defs>
				<rect id="SVGID_00000146468242856892614270000001146630572812521662_" x="4.7" y="967.9" width="189.4" height="267.9"/>
			</defs>
			<clipPath id="SVGID_00000136405498433233165570000001062334341010080916_">
				<use xlink:href="#SVGID_00000146468242856892614270000001146630572812521662_"  style="overflow:visible;"/>
			</clipPath>
			<g id="g450" style="clip-path:url(#SVGID_00000136405498433233165570000001062334341010080916_);">
				<g id="g456">
					<g id="g458">
					</g>
					<g id="g486">
						<g>
							<defs>
								<rect id="SVGID_00000044865769711957123490000014201700181788757177_" x="92.6" y="1098.5" width="14.3" height="15.3"/>
							</defs>
							<clipPath id="SVGID_00000068640827283376043300000002358915178148177796_">
								<use xlink:href="#SVGID_00000044865769711957123490000014201700181788757177_"  style="overflow:visible;"/>
							</clipPath>
							<g id="g484" style="opacity:0.57;clip-path:url(#SVGID_00000068640827283376043300000002358915178148177796_);">
								<g id="g482">
									<g>
										<defs>
											<polygon id="SVGID_00000042015361442015988190000009194354938226020525_" points="94.7,1107.4 97.1,1111.6 102.3,1111.6 
												104.7,1107.4 99.7,1100.8 											"/>
										</defs>
										<clipPath id="SVGID_00000044175173898503307770000001746800228004848004_">
											<use xlink:href="#SVGID_00000042015361442015988190000009194354938226020525_"  style="overflow:visible;"/>
										</clipPath>
										<g id="g480" style="clip-path:url(#SVGID_00000044175173898503307770000001746800228004848004_);">
											<g id="g478">
												<g id="g476">
													
														<radialGradient id="path474_00000018201230480465201880000005612867396580136606_" cx="80.722" cy="1097.1957" r="0.1571" gradientTransform="matrix(47.2256 0 0 -47.2256 -3712.416 52921.9023)" gradientUnits="userSpaceOnUse">
														<stop  offset="0" style="stop-color:#771117"/>
														<stop  offset="1" style="stop-color:#F18051"/>
													</radialGradient>
													<path id="path474" style="fill:url(#path474_00000018201230480465201880000005612867396580136606_);" d="M94.7,1107.4
														l2.4,4.2h5.2l2.4-4.2l-5-6.5L94.7,1107.4z"/>
												</g>
											</g>
										</g>
									</g>
								</g>
							</g>
						</g>
					</g>
				</g>
				<g id="g488" transform="translate(441.2803,655.0557)">
					<path id="path490" class="st2" d="M-338.6,456.2l-1,0.7l1.9,2.9l1-0.7L-338.6,456.2z"/>
				</g>
				<g id="g492" transform="translate(402.792,655.1953)">
					<path id="path494" class="st2" d="M-306.2,456.1l-1.7,2.9l1.1,0.6l1.7-2.9L-306.2,456.1z"/>
				</g>
				<g id="g496" transform="translate(395.4766,630.8398)">
					<path id="path498" class="st2" d="M-300,476.6l4.3-5.6l4.3,5.6l-2,3.5h-4.5L-300,476.6z M-295.8,469l-5.7,7.5l2.8,4.8h5.9
						l2.8-4.8L-295.8,469z"/>
				</g>
				<g id="g500" transform="translate(476.583,625.2012)">
					<path id="path502" class="st2" d="M-368.4,481.3l-3.5,0.2l0.1,1.2l3.5-0.2L-368.4,481.3z"/>
				</g>
				<g id="g504" transform="translate(368.6265,625.2012)">
					<path id="path506" class="st2" d="M-277.4,481.3l-0.1,1.2l3.5,0.2l0.1-1.2L-277.4,481.3z"/>
				</g>
				<path id="path508" class="st2" d="M100.3,1095.1h-1.2v5.7h1.2V1095.1z"/>
				<g id="g510">
					<g id="g512">
					</g>
					<g id="g524">
						<g>
							<defs>
								<rect id="SVGID_00000141445590624562438450000001438846390385726085_" x="80.9" y="1100.6" width="37.6" height="21.7"/>
							</defs>
							<clipPath id="SVGID_00000155142565336048983890000003677723358663211681_">
								<use xlink:href="#SVGID_00000141445590624562438450000001438846390385726085_"  style="overflow:visible;"/>
							</clipPath>
							<g id="g522" style="opacity:0.38;clip-path:url(#SVGID_00000155142565336048983890000003677723358663211681_);">
								<g id="g520" transform="translate(422.5986,679.0557)">
									<path id="path518" class="st25" d="M-322.9,435.9c6.6,0,12-4.8,13-11.1c0.1,0.7,0.2,1.3,0.2,2c0,7.3-5.9,13.1-13.1,13.1
										c-7.3,0-13.1-5.9-13.1-13.1c0-0.7,0.1-1.4,0.2-2C-334.9,431.1-329.4,435.9-322.9,435.9"/>
								</g>
							</g>
						</g>
					</g>
				</g>
				<g id="g526" transform="translate(267.1694,765.2061)">
					<path id="path528" d="M-191.9,363.3c-2,0-3.7-1.6-3.7-3.7V358c0-2,1.6-3.7,3.7-3.7h3.7l-0.9-2.6c-1.2-3.6-1.8-7.3-1.8-11.2
						c0-6.5,1.7-12.8,4.9-17.9l0.3-0.5v-2.7l-1.3-0.4c-1.7-0.6-2.8-1.9-2.8-3.4v-12.6c0-2,2-3.7,4.4-3.7h35.5c2.5,0,4.4,1.6,4.4,3.7
						v12.6c0,1.6-1.3,3-3.1,3.5l-2.6,0.7l1.5,2.3c3.4,5.2,5.3,11.6,5.3,18.5c0,3.9-0.6,7.6-1.8,11.2l-0.9,2.6h3.7
						c2,0,3.7,1.6,3.7,3.7v1.7c0,2-1.6,3.7-3.7,3.7h-5.9v4.6c0,2-1.6,3.7-3.7,3.7h-4v6.9h-21.6v-6.9h-4c-2,0-3.7-1.6-3.7-3.7v-4.6
						H-191.9z M-149.7,295.5h-35.5c-4.6,0-8.4,3.4-8.4,7.6v12.6c0,2.5,1.4,4.9,3.7,6.3c-3,5.5-4.7,12-4.7,18.7c0,3.4,0.4,6.8,1.3,10
						c-3.4,0.7-6,3.8-6,7.4v1.7c0,4.2,3.4,7.6,7.6,7.6h2v0.7c0,4.2,3.4,7.6,7.6,7.6h0.1v6.9h29.4v-6.9h0.1c4.2,0,7.6-3.4,7.6-7.6
						v-0.7h2c4.2,0,7.6-3.4,7.6-7.6V358c0-3.7-2.6-6.7-6-7.4c0.8-3.2,1.3-6.6,1.3-10c0-6.8-1.6-13.2-4.7-18.7
						c2.2-1.4,3.7-3.7,3.7-6.3v-12.6C-141.3,298.9-145.1,295.5-149.7,295.5"/>
				</g>
				<g id="g530" transform="translate(399.0107,820.1963)">
					<path id="path532" d="M-303,317c0-0.9-0.7-1.6-1.6-1.6c-0.9,0-1.6,0.7-1.6,1.6c0,0.9,0.7,1.6,1.6,1.6
						C-303.7,318.6-303,317.8-303,317"/>
				</g>
				<g id="g534" transform="translate(432.4766,820.1963)">
					<path id="path536" d="M-331.2,317c0-0.9-0.7-1.6-1.6-1.6c-0.9,0-1.6,0.7-1.6,1.6c0,0.9,0.7,1.6,1.6,1.6
						C-331.9,318.6-331.2,317.8-331.2,317"/>
				</g>
				<g id="g538" transform="translate(465.9434,820.1963)">
					<path id="path540" d="M-359.4,317c0-0.9-0.7-1.6-1.6-1.6c-0.9,0-1.6,0.7-1.6,1.6c0,0.9,0.7,1.6,1.6,1.6
						C-360.1,318.6-359.4,317.8-359.4,317"/>
				</g>
				<path id="path542" d="M121.1,1083.7H78v5.1h43.1V1083.7z"/>
				<g id="g544" transform="translate(584.7383,472.833)">
					<path id="path546" d="M-459.5,609.8l-3.2,4c9.5,7.6,11.1,21.6,3.5,31.2l4,3.2C-445.9,636.3-447.8,619.1-459.5,609.8"/>
				</g>
				<g id="g548" transform="translate(258.0381,472.833)">
					<path id="path550" d="M-184.2,609.8c-11.7,9.4-13.6,26.5-4.3,38.3l4-3.2c-7.6-9.5-6.1-23.5,3.5-31.2L-184.2,609.8z"/>
				</g>
				<g id="g552" transform="translate(261.4248,743.9424)">
					<path id="path554" d="M-187,381.3c-3.9,5.3-6.2,11.8-6.2,18.8c0,17.5,14.3,31.8,31.8,31.8c17.5,0,31.8-14.3,31.8-31.8
						c0-7-2.3-13.5-6.2-18.8h6.1c3.3,5.5,5.2,11.9,5.2,18.8c0,20.3-16.5,36.8-36.8,36.8c-20.3,0-36.8-16.5-36.8-36.8
						c0-6.9,1.9-13.3,5.2-18.8H-187z"/>
				</g>
				<path id="path556" d="M131.2,1094.2H67.9v5.1h63.3V1094.2z"/>
				<g id="g558" transform="translate(220.2373,698.2207)">
					<path id="path560" d="M-152.3,419.8c-1.5,0.9-2.5,2.5-2.5,4.4c0,1.9,1,3.5,2.5,4.4v5.4c-4.4-1.1-7.6-5.1-7.6-9.8
						c0-4.7,3.2-8.7,7.6-9.8V419.8z"/>
				</g>
				<g id="g562" transform="translate(622.9365,753.9365)">
					<path id="path564" d="M-491.7,372.8c1.5-0.9,2.5-2.5,2.5-4.4c0-1.9-1-3.5-2.5-4.4v-5.4c4.4,1.1,7.6,5.1,7.6,9.8
						c0,4.7-3.2,8.7-7.6,9.8V372.8z"/>
				</g>
				<g id="g566" transform="translate(265.3784,730.2153)">
					<path id="path568" d="M-190.4,392.8c0.1,0,0.2,0,0.3,0h48.7c0.1,0,0.2,0,0.3,0v1.2c-0.1,0-0.2,0-0.3,0h-48.7
						c-0.1,0-0.2,0-0.3,0V392.8z M-141.3,387.7h-48.7c-3,0-5.3,2-5.3,4.6v2.1c0,2.6,2.3,4.6,5.3,4.6h48.7c3,0,5.3-2,5.3-4.6v-2.1
						C-136,389.8-138.3,387.7-141.3,387.7"/>
				</g>
				<g id="g570" transform="translate(487.8213,703.1611)">
					<path id="path572" d="M-377.9,415.6c1.8-2.7,2.9-6.1,2.9-9.8c0-8.6-6-15.7-13.3-15.7c-7.4,0-13.3,7-13.3,15.7
						c0,3.7,1.1,7.1,2.9,9.8h-4.3c-1.5-2.9-2.4-6.2-2.4-9.8c0-10.7,7.6-19.3,17-19.3c9.4,0,17,8.7,17,19.3c0,3.6-0.9,6.9-2.4,9.8
						H-377.9z"/>
				</g>
			</g>
		</g>
	</g>
</g>
</svg>
