<svg fill="none" height="48" viewBox="0 0 48 48" width="48" xmlns="http://www.w3.org/2000/svg"><path d="m20.9529 23.9999c.3374-.5797.5471-1.2329.5471-1.8195v-20.36104c0-.58656-.2094-1.239623-.5469-1.81936l-20.9531 12z" fill="#00599c" transform="translate(23.5 12.0001)"/><path d="m22.8149 23.56 17.7761-10.1805c.5121-.2932.9775-.7997 1.3149-1.3795l-20.953-12-20.9529 12.0001c.337395.5797.802948 1.0863 1.31487 1.3794l17.77613 10.1805c1.024.5866 2.6999.5866 3.7239 0z" fill="#004482" transform="translate(2.54712 24.0001)"/><path d="m42.4531 12c-.3375-.5799-.8031-1.0863-1.315-1.3796l-17.7762-10.180474c-1.024-.586568-2.6998-.586568-3.7238 0l-17.77617 10.180474c-1.024133.5864-1.86193 2.0261-1.86193 3.1991v20.361c0 .5866.20952 1.2398.547056 1.8195l20.952944-11.9999z" fill="#659ad2" transform="translate(2)"/><g fill="#fff"><path d="m14.3333 28.4363c-7.90339 0-14.3333-6.3783-14.3333-14.2182 0-7.83987 6.42991-14.2181 14.3333-14.2181 5.0999 0 9.8562 2.72235 12.4126 7.10461l-6.2031 3.56069c-1.2795-2.19352-3.659-3.55623-6.2095-3.55623-3.9518 0-7.16663 3.18903-7.16663 7.10903 0 3.9199 3.21483 7.1091 7.16663 7.1091 2.5508 0 4.9303-1.3627 6.2099-3.5566l6.2031 3.5605c-2.5564 4.3827-7.3128 7.1052-12.413 7.1052z" transform="translate(9.16663 9.78192)"/><path d="m4.77778 1.57974h-1.59269v-1.57974h-1.5924v1.57974h-1.59269v1.57975h1.59269v1.57989h1.5924v-1.57989h1.59269z" transform="translate(33.0555 21.6304)"/><path d="m4.77778 1.57974h-1.59269v-1.57974h-1.5924v1.57974h-1.59269v1.57975h1.59269v1.57989h1.5924v-1.57989h1.59269z" transform="translate(39.0278 21.6304)"/></g></svg>