<?xml version="1.0" encoding="UTF-8" standalone="no" ?>
<!DOCTYPE svg PUBLIC "-//W3C//DTD SVG 1.1//EN" "http://www.w3.org/Graphics/SVG/1.1/DTD/svg11.dtd">
<svg xmlns="http://www.w3.org/2000/svg" xmlns:xlink="http://www.w3.org/1999/xlink" version="1.1" width="1280" height="1024" viewBox="0 0 1280 1024" xml:space="preserve">
<desc>Created with Fabric.js 5.3.0</desc>
<defs>
</defs>
<g transform="matrix(1 0 0 1 640 512)" id="background-logo"  >
<rect style="stroke: none; stroke-width: 0; stroke-dasharray: none; stroke-linecap: butt; stroke-dashoffset: 0; stroke-linejoin: miter; stroke-miterlimit: 4; fill: rgb(25,25,25); fill-rule: nonzero; opacity: 1;"  paint-order="stroke"  x="-640" y="-512" rx="0" ry="0" width="1280" height="1024" />
</g>
<g transform="matrix(1.9211538461538462 0 0 1.9211538461538462 640 411.3251859022373)" id="logo-logo"  >
<g style=""  paint-order="stroke"   >
		<g transform="matrix(1.0400151094291685 0 0 1.0400151094291685 0 1.040015149556e-7)"  >
<path style="stroke: none; stroke-width: 0; stroke-dasharray: none; stroke-linecap: butt; stroke-dashoffset: 0; stroke-linejoin: miter; stroke-miterlimit: 4; fill: rgb(251,212,164); fill-rule: nonzero; opacity: 1;"  paint-order="stroke"  transform=" translate(-187.49999975000006, -150.00000005823756)" d="M 266.0113596 186.3266394 L 257.5520568 194.5120406 C 247.2551334 204.4782103 231.5057076 205.4036683 220.1096703 196.71369430000001 L 199.48915110000002 180.9844156 L 209.2615178 173.53066950000002 L 209.264862 173.5340137 L 228.3985798 188.02045760000001 C 234.5326551 192.6644688 242.9953837 192.70794400000003 249.1795411 188.12739180000003 L 250.7865721 186.93463910000003 L 221.2055215 164.41981030000002 L 242.330532 148.30961420000003 L 230.446643 139.41931190000003 L 187.9360158 171.50936020000003 L 187.5016721 171.84011400000003 L 187.49832790000002 171.84011400000003 L 177.77278060000003 164.42315460000003 L 177.77278060000003 164.41981040000005 L 177.92310840000005 164.30618770000004 L 235.27099870000006 122.14972400000003 L 236.57068560000008 123.49280450000003 C 248.8588201000001 136.21862700000003 267.8589314000001 139.68652510000004 283.85224210000007 132.12258210000005 L 295.0411811000001 126.82709610000005 L 265.93452350000007 96.28053810000004 C 250.82327720000006 80.41757120000004 226.19358180000006 78.35278680000005 208.65009220000007 91.47624790000005 L 187.50167200000007 107.29573960000005 L 166.34998910000007 91.47624790000005 C 148.80641790000007 78.35278680000005 124.17672260000008 80.41757120000005 109.06547620000006 96.28053810000004 L 79.95555600000006 126.82709610000005 L 91.14783920000006 132.12258210000005 C 107.14106840000007 139.68652510000004 126.14126120000006 136.21862690000003 138.42939570000007 123.49280450000005 L 139.72900110000006 122.14972400000005 L 153.69765840000005 132.58025400000005 C 153.69765840000005 132.58025400000005 153.69431420000006 132.58025400000005 153.69096990000006 132.58359820000004 C 153.68762560000005 132.58694240000003 153.68093720000005 132.59028670000004 153.67424870000005 132.59363090000005 L 132.66954940000005 148.30961420000006 L 153.79455990000005 164.41981030000005 L 124.21016500000005 186.93463910000006 L 125.82054020000004 188.12739180000005 C 132.00135330000003 192.70794400000005 140.46400040000003 192.66446880000007 146.60141990000005 188.02045760000004 L 165.73856350000005 173.53066940000005 L 175.51093020000005 180.98441550000004 L 154.89041100000006 196.71369420000005 C 143.49094780000007 205.40366820000006 127.74494790000006 204.47821020000004 117.44468020000005 194.51204050000004 L 108.98864010000005 186.32663930000004 C 101.03382850000006 178.62900820000004 89.95174220000006 175.06755280000004 78.99999970000005 176.69122340000004 L 107.33487130000005 204.95929170000005 C 114.77524040000004 212.16246430000004 124.56767260000004 216.46226330000005 134.90464540000005 217.07034450000006 C 135.75326740000006 217.12042660000006 136.59854510000005 217.14383630000006 137.44382290000004 217.14383630000006 C 146.90876400000005 217.14383630000006 156.14662280000005 214.04005280000007 163.70722160000005 208.27351790000006 L 187.50167190000005 190.12863550000006 L 211.29277800000006 208.27351790000006 C 218.85345830000006 214.04005280000007 228.09123560000006 217.14383630000006 237.55625820000006 217.14383630000006 C 238.39819170000007 217.14383630000006 239.24681370000005 217.12042660000006 240.09200990000005 217.07034450000006 C 250.43240850000007 216.46226330000007 260.22141480000005 212.16246430000007 267.66520980000007 204.95929170000005 L 295.99999980000007 176.69122340000004 C 285.04825730000005 175.06755280000004 273.96625250000005 178.62900820000004 266.01135940000006 186.32663930000004 Z M 255.4070921 106.3101666 L 269.7065031 121.3144787 C 261.4742825 122.4002972 253.0183239 119.5972508 247.0279695 113.393028 L 231.71288750000002 97.53674960000001 C 240.28246880000003 96.6847834 249.0960166 99.68497690000001 255.40709210000003 106.31016650000001 Z M 127.972112 113.3930281 C 121.9817576 119.59725089999999 113.52571739999999 122.40029729999999 105.2935784 121.31447879999999 L 119.5895636 106.3101667 C 125.90406490000001 99.6849771 134.7175312 96.6847835 143.2871124 97.5367498 L 127.97211190000002 113.3930282 Z M 149.9123021 111.6056527 L 157.9140146 103.32334999999999 L 175.363947 116.3765004 L 165.838728 123.4994928 L 149.9123021 111.6056527 Z M 165.9657276 155.4158852 L 165.7953344 155.28554129999998 L 156.7947537 148.41989249999997 L 217.0860671 103.32334999999998 L 225.0876981 111.60565269999998 L 165.96572780000002 155.4158852 Z" stroke-linecap="round" />
</g>
		<g transform="matrix(1.0400151094291685 0 0 1.0400151094291685 -55.923053530942866 -42.15025690667528)"  >
<linearGradient id="SVGID_3_139179" gradientUnits="userSpaceOnUse" gradientTransform="matrix(1 0 0 1 0 0)"  x1="119.3303585" y1="99.0635981" x2="144.0766074" y2="129.9964092">
<stop offset="0%" style="stop-color:rgb(222,222,222);stop-opacity: 1"/>
<stop offset="100%" style="stop-color:rgb(183,183,183);stop-opacity: 1"/>
</linearGradient>
<path style="stroke: none; stroke-width: 0; stroke-dasharray: none; stroke-linecap: butt; stroke-dashoffset: 0; stroke-linejoin: miter; stroke-miterlimit: 4; fill: url(#SVGID_3_139179); fill-rule: nonzero; opacity: 1;"  paint-order="stroke"  transform=" translate(-133.72861410000002, -109.47149558890177)" d="M 175.363947 116.3765004 L 187.5016721 107.2957394 L 166.3499892 91.4762477 C 148.806418 78.3527866 124.17672270000001 80.41757100000001 109.0654763 96.2805379 L 79.9555561 126.8270959 L 91.1478393 132.1225819 C 107.1410685 139.6865249 126.1412613 136.2186267 138.4293958 123.4928043 L 139.7290012 122.1497238 L 153.6976585 132.5802538 L 165.83872789999998 123.49949280000001 L 149.91230199999998 111.60565270000001 L 157.91401449999998 103.32335 L 175.36394689999997 116.3765004 Z M 127.972112 113.3930281 C 121.9817576 119.59725089999999 113.52571739999999 122.40029729999999 105.2935784 121.31447879999999 L 119.5895636 106.3101667 C 125.90406490000001 99.6849771 134.7175312 96.6847835 143.2871124 97.5367498 L 127.97211190000002 113.3930282 Z" stroke-linecap="round" />
</g>
		<g transform="matrix(1.0400151094291685 0 0 1.0400151094291685 -56.41994986989562 42.41371246550406)"  >
<linearGradient id="SVGID_4_139180" gradientUnits="userSpaceOnUse" gradientTransform="matrix(1 0 0 1 0 0)"  x1="119.3181817" y1="197.5505339" x2="149.6087244" y2="166.8078936">
<stop offset="0%" style="stop-color:rgb(222,222,222);stop-opacity: 1"/>
<stop offset="100%" style="stop-color:rgb(183,183,183);stop-opacity: 1"/>
</linearGradient>
<path style="stroke: none; stroke-width: 0; stroke-dasharray: none; stroke-linecap: butt; stroke-dashoffset: 0; stroke-linejoin: miter; stroke-miterlimit: 4; fill: url(#SVGID_4_139180); fill-rule: nonzero; opacity: 1;"  paint-order="stroke"  transform=" translate(-133.25083610000001, -190.7818233)" d="M 125.8205404 188.1273918 L 124.2101652 186.9346391 L 153.7945601 164.4198103 L 155.32801780000003 165.5891533 L 165.73856390000003 173.5306695 L 146.60142030000003 188.02045769999998 C 140.46400080000004 192.66446889999997 132.00135370000004 192.7079441 125.82054060000003 188.1273919 Z M 175.5109305 180.9844155 L 154.8904113 196.71369420000002 C 143.49094810000003 205.40366820000003 127.74494820000001 204.47821020000004 117.4446805 194.5120405 L 108.98864040000001 186.3266393 C 101.03382880000001 178.62900820000002 89.95174250000001 175.06755280000002 79 176.6912234 L 107.3348716 204.95929170000002 C 114.7752407 212.1624643 124.56767289999999 216.46226330000002 134.9046457 217.07034450000003 C 135.7532677 217.12042660000003 136.5985454 217.14383630000003 137.4438232 217.14383630000003 C 146.9087643 217.14383630000003 156.1466231 214.04005280000004 163.7072219 208.27351790000003 L 187.5016722 190.12863550000003 L 175.5109306 180.98441550000004 Z" stroke-linecap="round" />
</g>
		<g transform="matrix(1.0400151094291685 0 0 1.0400151094291685 44.22564957404961 29.09607426991286)"  >
<linearGradient id="SVGID_5_139181" gradientUnits="userSpaceOnUse" gradientTransform="matrix(1 0 0 1 0 0)"  x1="233.4657635" y1="185.1084222" x2="222.6154199" y2="169.7371021">
<stop offset="0%" style="stop-color:rgb(222,222,222);stop-opacity: 1"/>
<stop offset="100%" style="stop-color:rgb(183,183,183);stop-opacity: 1"/>
</linearGradient>
<path style="stroke: none; stroke-width: 0; stroke-dasharray: none; stroke-linecap: butt; stroke-dashoffset: 0; stroke-linejoin: miter; stroke-miterlimit: 4; fill: url(#SVGID_5_139181); fill-rule: nonzero; opacity: 1;"  paint-order="stroke"  transform=" translate(-230.024045, -177.97658799635056)" d="M 250.7865721 186.934639 L 249.1795411 188.1273917 C 242.9953837 192.7079439 234.5326551 192.66446870000001 228.3985798 188.0204575 L 209.264862 173.53401359999998 L 209.2615178 173.5306694 L 221.2055216 164.4198102 L 250.7865722 186.934639 Z" stroke-linecap="round" />
</g>
		<g transform="matrix(1.0400151094291685 0 0 1.0400151094291685 28.511421572390475 10.610092383769796)"  >
<linearGradient id="SVGID_6_139182" gradientUnits="userSpaceOnUse" gradientTransform="matrix(1 0 0 1 0 0)"  x1="229.2581101" y1="146.9606421" x2="196.152832" y2="177.228325">
<stop offset="0%" style="stop-color:rgb(222,222,222);stop-opacity: 1"/>
<stop offset="100%" style="stop-color:rgb(183,183,183);stop-opacity: 1"/>
</linearGradient>
<path style="stroke: none; stroke-width: 0; stroke-dasharray: none; stroke-linecap: butt; stroke-dashoffset: 0; stroke-linejoin: miter; stroke-miterlimit: 4; fill: url(#SVGID_6_139182); fill-rule: nonzero; opacity: 1;"  paint-order="stroke"  transform=" translate(-214.91442990000002, -160.20186365)" d="M 230.446643 139.4193118 L 242.330532 148.3096141 L 199.489151 180.9844155 L 187.4983278 171.8401139 L 230.446643 139.4193118 Z" stroke-linecap="round" />
</g>
</g>
</g>
<g transform="matrix(1.9211538461538462 0 0 1.9211538461538462 640.0677206730769 638.3033604750163)" id="text-logo"  >
<g style=""  paint-order="stroke"   >
		<g transform="matrix(1 0 0 1 0 0)" id="text-logo-path-0"  >
<path style="stroke: none; stroke-width: 0; stroke-dasharray: none; stroke-linecap: butt; stroke-dashoffset: 0; stroke-linejoin: miter; stroke-miterlimit: 4; fill: rgb(255,255,255); fill-rule: nonzero; opacity: 1;"  paint-order="stroke"  transform=" translate(-114.18499999999999, 16.45)" d="M 31.96 -5.08 L 27.26 -8.18 C 25.76 -5.92 23.5 -5.17 18.05 -5.17 C 9.02 -5.17 7.19 -7.05 7.19 -16.45 C 7.19 -25.9 9.07 -27.73 18.05 -27.73 C 22.56 -27.73 24.82 -27.17 26.46 -25.71 L 30.22 -29.84 C 27.45 -32.43 23.41 -33.37 18.05 -33.37 C 6.39 -33.37 1.55 -28.76 1.55 -16.45 C 1.55 -4.37 6.25 0.47 18.05 0.47 C 24.58 0.47 29.28 -0.94 31.96 -5.08 Z M 48.83 0 L 48.83 -13.63 L 62.93 -13.63 L 62.93 -19.27 L 48.83 -19.27 L 48.83 -27.26 L 67.63 -27.26 L 67.63 -32.9 L 43.19 -32.9 L 43.19 0 Z M 93.95 -5.17 C 84.93 -5.17 83.1 -7.05 83.1 -16.45 C 83.1 -25.9 84.98 -27.73 93.95 -27.73 C 102.93 -27.73 104.76 -25.85 104.76 -16.45 C 104.76 -7 102.88 -5.17 93.95 -5.17 Z M 77.46 -16.45 C 77.46 -4.37 82.16 0.47 93.95 0.47 C 105.56 0.47 110.4 -4.14 110.4 -16.45 C 110.4 -28.62 105.7 -33.37 93.95 -33.37 C 82.3 -33.37 77.46 -28.76 77.46 -16.45 Z M 127.28 0 L 127.28 -11.28 L 135.55 -11.28 L 141.89 0 L 148.38 0 L 141.71 -11.89 C 145.79 -13.16 148 -16.54 148 -22.09 C 148 -29.09 144.53 -32.9 137.19 -32.9 L 121.64 -32.9 L 121.64 0 Z M 127.28 -16.92 L 127.28 -27.26 L 137.19 -27.26 C 141.66 -27.26 142.36 -26.51 142.36 -22.09 C 142.36 -17.63 141.61 -16.92 137.19 -16.92 Z M 176.11 -13.63 L 185.46 -13.63 C 185.23 -6.3 183.72 -5.17 176.11 -5.17 C 167.09 -5.17 165.25 -7.05 165.25 -16.45 C 165.25 -25.9 167.13 -27.73 176.11 -27.73 C 180.62 -27.73 182.88 -27.17 184.52 -25.71 L 188.28 -29.84 C 185.51 -32.43 181.47 -33.37 176.11 -33.37 C 164.45 -33.37 159.61 -28.76 159.61 -16.45 C 159.61 -4.37 164.31 0.47 176.11 0.47 C 189.03 0.47 191.57 -5.36 191.1 -19.27 L 176.11 -19.27 Z M 202.38 0 L 226.82 0 L 226.82 -5.64 L 208.02 -5.64 L 208.02 -13.63 L 222.12 -13.63 L 222.12 -19.27 L 208.02 -19.27 L 208.02 -27.26 L 226.82 -27.26 L 226.82 -32.9 L 202.38 -32.9 Z" stroke-linecap="round" />
</g>
</g>
</g>
</svg>