<?xml version="1.0" encoding="utf-8"?>
<!-- Generator: Adobe Illustrator 24.2.3, SVG Export Plug-In . SVG Version: 6.00 Build 0)  -->
<svg version="1.1" id="Layer_1" xmlns="http://www.w3.org/2000/svg" xmlns:xlink="http://www.w3.org/1999/xlink" x="0px" y="0px"
	 viewBox="0 0 128 128" style="enable-background:new 0 0 128 128;" xml:space="preserve">
<style type="text/css">
	.st0{fill:#54B848;}
</style>
<path class="st0" d="M98.3,72.1c-4.2,0-7.7,3.4-7.7,7.7v2.9c0,4.2-3.4,7.5-7.5,7.5H44.9c-4.2,0-7.5-3.4-7.5-7.5v-37
	c0-4.2,3.4-7.5,7.5-7.5H83c1,0,1.8,0,2.5,0h0.1c1.9,0.5,3,1.6,3.6,3c0.7,1.6,1.2,3.9-1.4,6.1L65.9,63.2l-6.7-8.5
	c-2.6-3.3-7.4-4-10.8-1.4c-3.3,2.6-4,7.4-1.4,10.8l11.2,14.5c2.5,3.3,7.2,4,10.6,1.5l25.4-18.6c0.3-0.2,3.6-2.8,3.9-3.1
	c7.6-6.8,9.2-15.6,6.1-23.3c-3.2-7.8-11.4-12.7-21.3-12.7H44.9C32.3,22.4,22,32.7,22,45.3v37.3c0,12.6,10.3,22.9,22.9,22.9h38.2
	c12.6,0,22.9-10.2,22.9-22.9v-2.9C106,75.5,102.6,72.1,98.3,72.1z M95.1,39c-0.2-0.1-0.3-0.1-0.5-0.2C94.8,38.9,94.9,38.9,95.1,39
	L95.1,39z"/>
</svg>
