<svg id="Layer_1" data-name="Layer 1" xmlns="http://www.w3.org/2000/svg" viewBox="0 0 890 115.21"><defs><style>.cls-1{fill:#fff;}.cls-2{fill:#4096d2;}.cls-3{fill:#f05680;}</style></defs><path class="cls-1" d="M613.67,83.41c-7.29,0-13.07,1.52-16.87,5.32l-4.41,4.41H586.9c-4.13-6.49-11.39-9.73-21.88-9.73-7.3,0-13.08,1.52-16.88,5.32l-4.4,4.41h-4.41l-2.13-8.21H522v80h20.52V115.94c0-9.43,4.87-14.29,14.6-14.29,9.12,0,13.37,4.41,13.37,14.29v48.95H591V115.64l.17.18c0-9.34,4.9-14.17,14.59-14.17,9.12,0,13.38,4.41,13.38,14.29v48.95h20.52V110.47c0-18.09-8.51-27.06-26-27.06m131.58,64.15h22V102.1H747.84V84.93H782l2,8.21h4.55L793,88.73c3.65-3.8,9.43-5.32,16.88-5.32h12.92V101.8H802.56c-9.73,0-14.74,4.71-14.74,13.38v32.38h25.53v17.33h-68.1Zm-56.74,3.5c10.49,0,16.42-5.48,16.42-15.05v-5H689.27c-8.67,0-13.08,3.65-13.08,10.34,0,5.93,3.5,9.73,12.32,9.73m-33.14-7.76c0-15.8,10.49-24.17,28.73-24.17h20.83V113.2c0-9.88-4.41-14-13.53-14-7.76,0-13.23,3-13.83,10.48H659c.61-16.56,12.16-26.29,34.05-26.29s32.38,9.42,32.38,28.88v52.6H709.64l-2-8.21h-4.41l-4.41,4.41c-3.64,3.64-9.42,5.32-17.17,5.32-17.18,0-26.3-8.21-26.3-23.11m-196.81-12h-9v33.6H429.07V52.39h20.52v60.66h9.27l21-28.12h23.41L476,122.18l28.12,42.71H480Zm-124.45-6.38c0-28.13,13.07-41.5,38-41.5,22.8,0,34.81,11.25,35.42,32.07H387.62c-.92-10.18-6.09-14.74-15.51-14.74-11.71,0-16.87,7-16.87,24.17s5.16,24.17,16.87,24.17c9.58,0,14.9-4.56,15.66-15.66H408c-.61,21.58-12.93,33-35.88,33-24.93,0-38-13.53-38-41.5m-37.21-9.43c-.31-10.94-5.63-16.87-16.27-16.87-10.18,0-15.81,5.32-17.63,16.87Zm-54.58,9.43c0-28.13,13.23-41.5,38.31-41.5,26,0,38,14,35.12,45H262.54c.76,15.81,6.39,22.49,18.24,22.49,8.67,0,14.44-3.49,15.81-10.64h18.85c-1.82,16.57-14.44,26.15-35.27,26.15-24.77,0-37.85-13.53-37.85-41.5M152.77,52.39h20.52V79l-1.82,13.07,4.26,1.07,4.41-4.41c3.8-3.8,9.12-5.32,16.26-5.32,17.18,0,25.38,9,25.38,27.06v54.42H201.26V115.94c0-9.88-4.25-14.29-13.37-14.29-9.73,0-14.6,4.86-14.6,14.29v48.95H152.77ZM55,112.44c0-38.15,12.31-54.87,40.44-54.87,25.23,0,37.39,13.68,38.45,42.26H113.07c-.76-15.81-6.24-23.11-17.63-23.11-13.38,0-18.7,9.88-18.7,35.72,0,26.61,5,35.73,18.7,35.73,11.7,0,17-6.54,17.93-23.41H134.5c-1.22,28.88-13.83,42.56-39.06,42.56C67.31,167.32,55,150.6,55,112.44" transform="translate(-55 -52.39)"/><path class="cls-2" d="M927.57,62.93l-45.7,49.44a2.67,2.67,0,0,1-3.54.1L854.85,85.25l-.12-.13a10.19,10.19,0,0,0-15.09.74A9.91,9.91,0,0,0,837.41,93a10.74,10.74,0,0,0,3.18,6.8l27,23.25a2.55,2.55,0,0,1,.73,1.79,2.59,2.59,0,0,1-.64,1.72l-27,23.24-.12.12a10.77,10.77,0,0,0-3.13,7.42,10,10,0,0,0,3.14,7.5,10.19,10.19,0,0,0,3.28,2,10.35,10.35,0,0,0,7.51-.06,10.22,10.22,0,0,0,3.44-2.31l23.47-27.21a2.65,2.65,0,0,1,3.51-.08l23.49,27.24.11.12a10.18,10.18,0,0,0,10.89,2.3,10,10,0,0,0,3.27-2,9.89,9.89,0,0,0,3.15-7.5,10.86,10.86,0,0,0-3.19-7.49l-27-23.22a2.55,2.55,0,0,1-.73-1.79,2.5,2.5,0,0,1,.67-1.74l49.39-45.64A10.77,10.77,0,0,0,945,70.76a10,10,0,0,0-2.23-7.18h0a10.25,10.25,0,0,0-7.42-3.71h-.47a10.32,10.32,0,0,0-7.28,3.07" transform="translate(-55 -52.39)"/><path class="cls-3" d="M945,70.76a10,10,0,0,0-2.23-7.18h0a10.25,10.25,0,0,0-7.42-3.71h-.47a10.32,10.32,0,0,0-7.28,3.07l-45.7,49.44a2.67,2.67,0,0,1-3.54.1L854.85,85.25l-.12-.13a10.19,10.19,0,0,0-15.09.74A9.91,9.91,0,0,0,837.41,93a10.74,10.74,0,0,0,3.18,6.8l20.62,17.76,7.83,6.74a16.92,16.92,0,0,0,22.55-.39l6-5.59,44.21-40.86A10.73,10.73,0,0,0,945,70.76" transform="translate(-55 -52.39)"/></svg>
