<?xml version="1.0" encoding="UTF-8" standalone="no"?>
<!-- Created with Inkscape (http://www.inkscape.org/) -->

<svg
   version="1.1"
   id="svg888"
   width="326.66666"
   height="332"
   viewBox="0 0 326.66666 332"
   sodipodi:docname="logo.svg"
   inkscape:version="1.1.1 (3bf5ae0d25, 2021-09-20)"
   xmlns:inkscape="http://www.inkscape.org/namespaces/inkscape"
   xmlns:sodipodi="http://sodipodi.sourceforge.net/DTD/sodipodi-0.dtd"
   xmlns="http://www.w3.org/2000/svg"
   xmlns:svg="http://www.w3.org/2000/svg">
  <defs
     id="defs892" />
  <sodipodi:namedview
     id="namedview890"
     pagecolor="#ffffff"
     bordercolor="#666666"
     borderopacity="1.0"
     inkscape:pageshadow="2"
     inkscape:pageopacity="0.0"
     inkscape:pagecheckerboard="0"
     showgrid="false"
     inkscape:zoom="0.62650602"
     inkscape:cx="-14.365385"
     inkscape:cy="108.53846"
     inkscape:window-width="1278"
     inkscape:window-height="1008"
     inkscape:window-x="1913"
     inkscape:window-y="0"
     inkscape:window-maximized="0"
     inkscape:current-layer="g894" />
  <g
     inkscape:groupmode="layer"
     inkscape:label="Image"
     id="g894">
    <g
       id="g1071"
       transform="translate(3.1923058,7.9807692)">
      <path
         style="fill:#de97a7;stroke-width:0.666667"
         d="M 21.174633,318.70543 C 7.5554998,314.35173 -0.16630266,302.27313 0.88225798,286.96369 1.307963,280.7482 3.0561977,275.79769 6.4656402,271.15309 7.8855765,269.21875 25.304936,253.83037 49.75681,232.90937 c 22.503362,-19.25386 41.213995,-35.56532 41.579195,-36.2477 1.023873,-1.91312 0.7818,-5.47089 -0.50618,-7.43939 C 90.190085,188.24453 71.516665,171.933 49.333332,152.97444 25.277137,132.41527 7.9562052,117.1246 6.4135672,115.08549 3.0206443,110.60062 1.6308778,107.25325 0.59008405,101.05915 -1.0532723,91.278987 1.8126922,82.110747 8.6597532,75.244227 19.411462,64.461955 35.987306,63.137219 47.999999,72.100167 c 2.380565,1.776193 15.943097,16.995253 38.666666,43.389423 19.249995,22.3595 35.591755,41.07141 36.315005,41.58202 1.99887,1.4112 5.85794,1.14306 8.22663,-0.57161 1.13967,-0.825 32.10508,-34.05 68.812,-73.833333 36.70693,-39.783334 67.99383,-73.4679857 69.52645,-74.854783 11.84466,-10.717692 31.20357,-10.0490691 42.44224,1.4658807 2.02272,2.0724483 4.57767,5.5577703 5.67767,7.7451613 1.88495,3.748295 1.99797,4.418095 1.96461,11.643741 -0.0422,9.148671 -1.32946,13.175748 -6.19769,19.389295 -1.70514,2.176345 -36.30127,34.553385 -76.88028,71.948968 -58.22422,53.65654 -73.87271,68.414 -74.21963,69.99353 -0.70455,3.20777 0.19453,5.59219 3.19499,8.47334 1.54257,1.48123 19.60467,17.00967 40.138,34.50765 20.53334,17.49797 38.4706,33.06086 39.86059,34.58419 1.39,1.52333 3.75595,5.22836 5.25767,8.23339 2.47221,4.94704 2.76155,6.05917 3.05977,11.76058 0.2704,5.16953 0.076,7.13098 -1.08574,10.95582 -1.57728,5.19284 -5.73539,11.38417 -9.64197,14.35668 -3.6752,2.79644 -10.24662,5.62336 -15.0386,6.46938 -7.49554,1.32332 -17.42847,-1.38625 -23.32448,-6.3626 -1.23535,-1.04266 -17.969,-20.12805 -37.18587,-42.41197 -19.21687,-22.28392 -35.59789,-40.97717 -36.40224,-41.54057 -1.66309,-1.16487 -5.31593,-1.3477 -7.16413,-0.35857 -0.68422,0.36618 -16.96452,18.89118 -36.178468,41.16667 -19.21394,22.27548 -36.170893,41.61289 -37.682111,42.97201 -7.271808,6.53993 -19.301542,8.99059 -28.966448,5.90097 z"
         id="path1085" />
      <path
         style="fill:#96a8d6;stroke-width:0.666667"
         d="M 21.174633,318.70543 C 7.5554998,314.35173 -0.16630266,302.27313 0.88225798,286.96369 1.307789,280.75074 3.0560946,275.79783 6.4608654,271.1596 7.8747092,269.23356 25.462395,253.69753 50.02247,232.67957 c 22.654722,-19.3874 41.356535,-35.7965 41.559575,-36.46469 0.203046,-0.66819 0.436806,-2.65141 0.51946,-4.40716 0.12378,-2.62909 -0.136547,-3.46623 -1.475607,-4.7451 C 89.731652,186.20857 71.143892,170.22526 49.319768,151.54415 27.495641,132.86303 8.6729178,116.35803 7.4914952,114.86636 5.139144,111.89628 2.0168196,105.64735 2.0065126,103.88889 2.0029306,103.27778 1.65,102.66111 1.2222222,102.51852 0.25813211,102.19715 0.13555608,90.093947 1.0897823,89.441347 1.4447182,89.198607 2.2569273,87.608 2.8946916,85.906667 5.4542554,79.078647 10.244351,73.831333 17.028378,70.423907 28.520751,64.651618 42.46551,67.094767 51.412048,76.448 c 1.693294,1.770267 17.255391,19.718667 34.582437,39.88533 17.327045,20.16667 32.726825,37.93937 34.221735,39.4949 3.06622,3.19053 5.81326,4.03881 9.32546,2.87968 1.80133,-0.59449 16.04925,-15.63636 66.20986,-69.89937 35.15304,-38.02803 66.57621,-71.909012 69.82927,-75.29107 6.20411,-6.4501147 10.30249,-9.4702242 14.75252,-10.8711716 1.46666,-0.4617331 2.86527,-1.146041 3.10801,-1.5206843 0.63636,-0.98214631 12.74741,-0.89267545 13.07717,0.096608 C 296.66111,1.65 297.30485,2 297.94907,2 c 2.2936,0 9.28512,4.0805734 12.62586,7.3690327 4.26608,4.1993223 6.413,7.8417103 7.78982,13.2160043 2.03732,7.95241 -0.79119,19.270905 -6.43318,25.742882 -1.2457,1.428954 -35.32346,33.128741 -75.72837,70.443971 -40.4049,37.31523 -73.75392,68.38861 -74.10893,69.05196 -0.76771,1.43447 0.15753,7.19293 1.40345,8.73483 0.45959,0.56875 18.53561,16.15471 40.16894,34.63545 21.63334,18.48073 40.4706,34.84736 41.86059,36.37027 1.39,1.52291 3.75595,5.2276 5.25767,8.23263 2.47221,4.94704 2.76155,6.05917 3.05977,11.76058 0.2704,5.16953 0.076,7.13098 -1.08574,10.95582 -1.57728,5.19284 -5.73539,11.38417 -9.64197,14.35668 -3.6752,2.79644 -10.24662,5.62336 -15.0386,6.46938 -7.49554,1.32332 -17.42847,-1.38625 -23.32448,-6.3626 -1.23535,-1.04266 -17.969,-20.12805 -37.18587,-42.41197 -19.21687,-22.28392 -35.59789,-40.97717 -36.40224,-41.54057 -1.66309,-1.16487 -5.31593,-1.3477 -7.16413,-0.35857 -0.68422,0.36618 -16.96452,18.89118 -36.178468,41.16667 -19.21394,22.27548 -36.170893,41.61289 -37.682111,42.97201 -7.271808,6.53993 -19.301542,8.99059 -28.966448,5.90097 z"
         id="path1083" />
      <path
         style="fill:#cc7088;stroke-width:0.666667"
         d="M 20.809439,317.44176 C 11.259316,314.04587 3.4968918,304.90991 2.214937,295.55703 c -0.2155774,-1.5728 -0.652129,-2.69885 -0.9701146,-2.50233 -0.31798569,0.19653 -0.57815575,-1.32809 -0.57815575,-3.38803 0,-2.32714 0.25243966,-3.58934 0.66666665,-3.33334 C 1.7071159,286.56435 2,286.04171 2,285.14371 c 0,-2.06438 2.1213054,-8.2234 3.7408445,-10.86122 2.56302,-4.1745 5.6149135,-6.92969 45.0253925,-40.64804 22.128568,-18.93251 40.758761,-35.3657 41.400428,-36.5182 1.352453,-2.42914 1.489633,-5.01134 0.393986,-7.41604 -0.42498,-0.93272 -19.165839,-17.46019 -41.64636,-36.72772 C 28.433771,133.70497 8.9967371,116.66671 7.7208845,115.1097 5.2569412,112.10279 2.0173715,105.74153 2.0065126,103.88889 2.0029306,103.27778 1.65,102.66111 1.2222222,102.51852 0.25813211,102.19715 0.13555608,90.093947 1.0897823,89.441347 1.4447182,89.198607 2.2569273,87.608 2.8946916,85.906667 5.4542554,79.078647 10.244351,73.831333 17.028378,70.423907 28.520751,64.651618 42.46551,67.094767 51.412048,76.448 c 1.693294,1.770267 17.255391,19.718667 34.582437,39.88533 17.327045,20.16667 32.726825,37.93937 34.221735,39.4949 3.06622,3.19053 5.81326,4.03881 9.32546,2.87968 1.80133,-0.59449 16.04925,-15.63636 66.20986,-69.89937 35.15304,-38.02803 66.57621,-71.909012 69.82927,-75.29107 6.20411,-6.4501147 10.30249,-9.4702242 14.75252,-10.8711716 1.46666,-0.4617331 2.86527,-1.146041 3.10801,-1.5206843 0.63636,-0.98214631 12.74741,-0.89267545 13.07717,0.096608 C 296.66111,1.65 297.30485,2 297.94907,2 c 2.2936,0 9.28512,4.0805734 12.62586,7.3690327 4.26608,4.1993223 6.413,7.8417103 7.78982,13.2160043 2.03732,7.95241 -0.79119,19.270905 -6.43318,25.742882 -1.2457,1.428954 -35.35214,33.155214 -75.79209,70.502811 -46.37375,42.82764 -73.91898,68.72632 -74.58811,70.12949 -1.37217,2.87747 -0.77742,6.12327 1.62002,8.84119 1.00573,1.14018 18.77861,16.54058 39.49527,34.22311 20.71667,17.68254 38.8282,33.23579 40.24784,34.56277 9.55343,8.92995 12.66505,23.73685 7.41119,35.26686 -4.63078,10.16261 -17.61471,17.632 -28.82909,16.58479 -4.47747,-0.41811 -10.7774,-2.67157 -14.55675,-5.2069 -1.28341,-0.86095 -18.54288,-20.35269 -38.35439,-43.31496 -19.8115,-22.96227 -36.76204,-42.08727 -37.66788,-42.5 -2.35752,-1.07415 -4.9528,-0.92761 -7.3716,0.41625 -1.15494,0.64167 -17.44674,19.01667 -36.204022,40.83334 -18.757279,21.81666 -35.507653,40.98882 -37.223052,42.60478 -1.715399,1.61597 -5.068907,3.85952 -7.45224,4.98567 -3.839228,1.81408 -5.131504,2.06979 -11.333333,2.24262 -5.523889,0.15393 -7.743094,-0.0692 -10.523894,-1.05798 z"
         id="path1081" />
      <path
         style="fill:#6b85c7;stroke-width:0.666667"
         d="M 20.809439,317.44176 C 11.259316,314.04587 3.4968918,304.90991 2.214937,295.55703 c -0.2155774,-1.5728 -0.652129,-2.69885 -0.9701146,-2.50233 -0.31798569,0.19653 -0.57815575,-1.32809 -0.57815575,-3.38803 0,-2.32714 0.25243966,-3.58934 0.66666665,-3.33334 C 1.7071159,286.56435 2,286.04171 2,285.14371 c 0,-2.06438 2.1213054,-8.2234 3.7408445,-10.86122 2.56302,-4.1745 5.6149135,-6.92969 45.0253925,-40.64804 22.128568,-18.93251 40.773521,-35.37038 41.433228,-36.5286 0.73724,-1.29434 1.115806,-3.06925 0.98238,-4.60585 l -0.21708,-2.5 h 33.763175 33.76316 l 0.36231,2.70121 c 0.19927,1.48566 1.06377,3.5698 1.92111,4.63144 0.85735,1.06163 18.65881,16.53482 39.55881,34.38488 20.9,17.85006 39.16153,33.54091 40.58117,34.86856 9.5544,8.93531 12.66504,23.73807 7.41119,35.26806 -4.63078,10.16261 -17.61471,17.632 -28.82909,16.58479 -4.47747,-0.41811 -10.7774,-2.67157 -14.55675,-5.2069 -1.28341,-0.86095 -18.54288,-20.35269 -38.35439,-43.31496 -19.8115,-22.96227 -36.76204,-42.08727 -37.66788,-42.5 -2.35752,-1.07415 -4.9528,-0.92761 -7.3716,0.41625 -1.15494,0.64167 -17.44674,19.01667 -36.204022,40.83334 -18.757279,21.81666 -35.507653,40.98882 -37.223052,42.60478 -1.715399,1.61597 -5.068907,3.85952 -7.45224,4.98567 -3.839228,1.81408 -5.131504,2.06979 -11.333333,2.24262 -5.523889,0.15393 -7.743094,-0.0692 -10.523894,-1.05798 z M 91.914958,187.54934 C 91.411731,186.93481 72.549999,170.61484 49.999999,151.28273 4.4924434,112.26912 4.4624331,112.23837 2.3331219,102.4444 1.668497,99.387393 1.4029056,98.846127 1.297258,100.33333 c -0.1065237,1.49954 -0.2525694,1.20761 -0.58364508,-1.166663 -0.2428634,-1.741667 -0.2428634,-4.591667 0,-6.333334 0.33997078,-2.43806 0.47887128,-2.706493 0.60368888,-1.166666 0.1402001,1.729593 0.2413319,1.594393 0.748,-1 1.6146118,-8.267607 8.1540402,-16.300867 16.4174792,-20.1678 8.508916,-3.981802 19.248794,-3.138034 27.506681,2.16104 2.454337,1.57494 12.783111,13.112806 39.435583,44.051923 38.443515,44.62656 37.779735,43.96094 42.884105,43.00336 1.22224,-0.2293 3.02712,-1.05001 4.01085,-1.82381 0.98373,-0.77381 32.81601,-34.95044 70.73839,-75.948087 68.35823,-73.9016437 68.99122,-74.5615863 73.77903,-76.9209589 2.65608,-1.3088843 6.17924,-2.6414925 7.82924,-2.9613515 2.59052,-0.5021827 2.72701,-0.6036898 1,-0.7436807 -1.56371,-0.1267536 -1.32211,-0.2570135 1.10752,-0.5971259 1.70914,-0.23925377 4.70914,-0.24140931 6.66667,-0.004793 2.32126,0.28058546 2.86354,0.482583 1.55914,0.5807789 -1.69925,0.1279216 -1.4946,0.2733463 1.36097,0.9670904 5.68837,1.3819575 9.78413,3.7825289 14.39236,8.4355247 6.48056,6.543511 8.55855,12.809868 7.26131,21.897017 -0.72441,5.074471 -2.31556,9.408242 -4.88063,13.293289 -0.80704,1.222334 -34.16734,32.39909 -74.134,69.281687 -39.96667,36.8826 -74.05966,68.5075 -75.7622,70.27758 l -3.09552,3.21832 H 126.4861 c -30.678909,0 -33.737115,-0.0988 -34.571142,-1.11733 z"
         id="path1079" />
      <path
         style="fill:#cf687f;stroke-width:0.666667"
         d="m 189.20446,243.5 c -0.93315,-1.24973 -5.46726,-1.50667 -9.70446,-0.54995 -1.44116,0.32541 -2.16667,0.2404 -2.16667,-0.25387 0,-0.54499 -0.36806,-0.54611 -1.38059,-0.004 -0.99364,0.53178 -1.95555,0.53843 -3.43202,0.0237 -1.29288,-0.4507 -2.33136,-0.48282 -2.80844,-0.0869 -0.467,0.38758 -1.13152,0.39139 -1.73464,0.01 -1.42481,-0.90114 -8.44282,-0.77588 -9.97015,0.17796 -1.09356,0.68294 -1.45496,0.61538 -2.20657,-0.4125 -0.77478,-1.05958 -1.09159,-1.10882 -2.29574,-0.35682 -1.09542,0.68411 -1.60619,0.69871 -2.36655,0.0677 -0.5333,-0.4426 -1.45833,-0.61719 -2.05563,-0.38799 -2.2422,0.86041 -4.25357,-0.51663 -10.02813,-6.86554 -3.26569,-3.5905 -6.564,-6.89256 -7.32958,-7.3379 -0.76558,-0.44534 -2.88714,-0.82034 -4.71459,-0.83333 l -3.32262,-0.0238 -7.18729,7.3836 c -6.86023,7.0476 -7.30144,7.37535 -9.69595,7.20246 -1.37977,-0.0996 -2.87128,0.043 -3.31446,0.31688 -0.4432,0.2739 -1.8228,0.2172 -3.0658,-0.126 -1.295109,-0.3576 -2.650909,-0.3764 -3.175622,-0.044 -1.531787,0.97027 -2.582293,0.67211 -2.582293,-0.73294 0,-1.53542 -1.01642,-1.78745 -1.554427,-0.38543 -0.254887,0.66422 -1.124187,0.86424 -2.90466,0.66835 -2.84084,-0.31256 -8.361293,-0.46185 -8.874246,-0.23999 -0.183334,0.0793 -2.058334,0.19797 -4.166667,0.26374 -3.30608,0.10313 -3.833333,-0.0473 -3.833333,-1.09355 0,-0.66722 -0.3,-1.21312 -0.666667,-1.21312 -0.366666,0 -0.666666,0.45 -0.666666,1 0,1.06718 -1.73852,1.40174 -2.111114,0.40626 -0.12464,-0.33301 -1.682266,-0.36887 -3.547164,-0.0817 -3.01838,0.46484 -12.728495,-0.66091 -14.351263,-1.66383 -0.311243,-0.19236 -1.04488,0.33027 -1.630305,1.16141 -0.798781,1.13404 -1.197798,1.29755 -1.598915,0.65524 -0.318442,-0.50993 -1.025583,-0.66747 -1.749356,-0.38974 -3.85705,1.4801 7.853612,-9.55504 33.654783,-31.71342 5.683333,-4.88092 10.873093,-9.81186 11.5328,-10.95766 0.7395,-1.2844 1.11622,-3.04195 0.98238,-4.58327 l -0.21708,-2.5 h 33.850945 33.85095 v 1.73258 c 0,3.64745 2.15908,6.12307 14.80348,16.97381 26.14078,22.43263 37.86319,33.14988 37.86319,34.61657 0,1.09056 -1.37671,1.47097 -2.36253,0.65281 -0.76318,-0.63339 -1.2001,-0.6154 -2.04294,0.0841 -0.9047,0.75083 -1.19739,0.71852 -1.87402,-0.20683 -0.54757,-0.74884 -1.42325,-0.99257 -2.76119,-0.76853 -3.73953,0.62619 -9.2985,0.7136 -10.38931,0.16336 -0.71624,-0.36129 -1.38053,-0.21115 -1.91497,0.4328 -1.06767,1.28648 -1.72002,1.24414 -2.78391,-0.18067 z M 91.914958,187.54934 C 91.411731,186.93481 72.549999,170.61484 49.999999,151.28273 4.4924434,112.26912 4.4624331,112.23837 2.3331219,102.4444 1.668497,99.387393 1.4029056,98.846127 1.297258,100.33333 c -0.1065237,1.49954 -0.2525694,1.20761 -0.58364508,-1.166663 -0.2428634,-1.741667 -0.2428634,-4.591667 0,-6.333334 0.33997078,-2.43806 0.47887128,-2.706493 0.60368888,-1.166666 0.1402001,1.729593 0.2413319,1.594393 0.748,-1 1.6146118,-8.267607 8.1540402,-16.300867 16.4174792,-20.1678 8.508916,-3.981802 19.248794,-3.138034 27.506681,2.16104 2.454337,1.57494 12.783111,13.112806 39.435583,44.051923 38.443515,44.62656 37.779735,43.96094 42.884105,43.00336 1.22224,-0.2293 3.02712,-1.05001 4.01085,-1.82381 0.98373,-0.77381 32.81601,-34.95044 70.73839,-75.948087 68.35823,-73.9016437 68.99122,-74.5615863 73.77903,-76.9209589 2.65608,-1.3088843 6.17924,-2.6414925 7.82924,-2.9613515 2.59052,-0.5021827 2.72701,-0.6036898 1,-0.7436807 -1.56371,-0.1267536 -1.32211,-0.2570135 1.10752,-0.5971259 1.70914,-0.23925377 4.70914,-0.24140931 6.66667,-0.004793 2.32126,0.28058546 2.86354,0.482583 1.55914,0.5807789 -1.69925,0.1279216 -1.4946,0.2733463 1.36097,0.9670904 5.68837,1.3819575 9.78413,3.7825289 14.39236,8.4355247 6.48056,6.543511 8.55855,12.809868 7.26131,21.897017 -0.72441,5.074471 -2.31556,9.408242 -4.88063,13.293289 -0.80704,1.222334 -34.16734,32.39909 -74.134,69.281687 -39.96667,36.8826 -74.05966,68.5075 -75.7622,70.27758 l -3.09552,3.21832 H 126.4861 c -30.678909,0 -33.737115,-0.0988 -34.571142,-1.11733 z"
         id="path1077" />
      <path
         style="fill:#7080be;stroke-width:0.666667"
         d="m 189.20446,243.5 c -0.93315,-1.24973 -5.46726,-1.50667 -9.70446,-0.54995 -1.44116,0.32541 -2.16667,0.2404 -2.16667,-0.25387 0,-0.54499 -0.36806,-0.54611 -1.38059,-0.004 -0.99364,0.53178 -1.95555,0.53843 -3.43202,0.0237 -1.29288,-0.4507 -2.33136,-0.48282 -2.80844,-0.0869 -0.467,0.38758 -1.13152,0.39139 -1.73464,0.01 -1.42481,-0.90114 -8.44282,-0.77588 -9.97015,0.17796 -1.09356,0.68294 -1.45496,0.61538 -2.20657,-0.4125 -0.77478,-1.05958 -1.09159,-1.10882 -2.29574,-0.35682 -1.09542,0.68411 -1.60619,0.69871 -2.36655,0.0677 -0.5333,-0.4426 -1.45833,-0.61719 -2.05563,-0.38799 -2.2422,0.86041 -4.25357,-0.51663 -10.02813,-6.86554 -3.26569,-3.5905 -6.564,-6.89256 -7.32958,-7.3379 -0.76558,-0.44534 -2.88714,-0.82034 -4.71459,-0.83333 l -3.32262,-0.0238 -7.18729,7.3836 c -6.86023,7.0476 -7.30144,7.37535 -9.69595,7.20246 -1.37977,-0.0996 -2.87128,0.043 -3.31446,0.31688 -0.4432,0.2739 -1.8228,0.2172 -3.0658,-0.126 -1.295109,-0.3576 -2.650909,-0.3764 -3.175622,-0.044 -1.531787,0.97027 -2.582293,0.67211 -2.582293,-0.73294 0,-1.53542 -1.01642,-1.78745 -1.554427,-0.38543 -0.254887,0.66422 -1.124187,0.86424 -2.90466,0.66835 -2.84084,-0.31256 -8.361293,-0.46185 -8.874246,-0.23999 -0.183334,0.0793 -2.058334,0.19797 -4.166667,0.26374 -3.30608,0.10313 -3.833333,-0.0473 -3.833333,-1.09355 0,-0.66722 -0.3,-1.21312 -0.666667,-1.21312 -0.366666,0 -0.666666,0.45 -0.666666,1 0,1.06718 -1.73852,1.40174 -2.111114,0.40626 -0.12464,-0.33301 -1.682266,-0.36887 -3.547164,-0.0817 -3.01838,0.46484 -12.728495,-0.66091 -14.351263,-1.66383 -0.311243,-0.19236 -1.04488,0.33027 -1.630305,1.16141 -0.798781,1.13404 -1.197798,1.29755 -1.598915,0.65524 -0.318442,-0.50993 -1.025583,-0.66747 -1.749356,-0.38974 -3.85705,1.4801 7.853612,-9.55504 33.654783,-31.71342 5.683333,-4.88092 10.873093,-9.81186 11.5328,-10.95766 0.7395,-1.2844 1.11622,-3.04195 0.98238,-4.58327 l -0.21708,-2.5 h 33.850945 33.85095 v 1.73258 c 0,3.64745 2.15908,6.12307 14.80348,16.97381 26.14078,22.43263 37.86319,33.14988 37.86319,34.61657 0,1.09056 -1.37671,1.47097 -2.36253,0.65281 -0.76318,-0.63339 -1.2001,-0.6154 -2.04294,0.0841 -0.9047,0.75083 -1.19739,0.71852 -1.87402,-0.20683 -0.54757,-0.74884 -1.42325,-0.99257 -2.76119,-0.76853 -3.73953,0.62619 -9.2985,0.7136 -10.38931,0.16336 -0.71624,-0.36129 -1.38053,-0.21115 -1.91497,0.4328 -1.06767,1.28648 -1.72002,1.24414 -2.78391,-0.18067 z"
         id="path1075" />
      <path
         style="fill:#717ebb;stroke-width:0.666667"
         d="m 164.36892,207.48061 c -0.19289,-0.19349 -13.03128,-0.9833 -15.36892,-0.94548 -0.73334,0.0119 -3.16638,0.19749 -5.40676,0.41251 -3.46643,0.33269 -4.33286,0.18687 -5.81447,-0.97857 -1.43635,-1.12982 -1.99223,-1.23508 -3.17624,-0.60141 -0.78935,0.42245 -5.0271,0.90487 -9.41721,1.07205 -7.04049,0.2681 -8.08238,0.16672 -8.83276,-0.85948 -0.76626,-1.04792 -1.21998,-1.08081 -4.56956,-0.33121 -2.70464,0.60527 -4.0856,0.63595 -5.06372,0.11247 -0.89404,-0.47847 -2.58798,-0.52482 -5.05308,-0.13826 -2.039509,0.31983 -3.826049,0.39081 -3.970089,0.15774 -0.144046,-0.23306 -2.0096,-0.4949 -4.145673,-0.58186 -6.571893,-0.26752 -6.723386,-0.45292 -3.332453,-4.0781 3.242433,-3.46642 4.644413,-7.8786 3.096213,-9.74407 C 92.603791,190.12096 96.732798,190 126.66279,190 c 33.96731,0 34.1574,0.008 33.80649,1.34947 -0.79348,3.03427 0.84139,5.82768 6.49574,11.09894 l 5.5975,5.21826 h -4.00406 c -2.20223,0 -4.08752,-0.0837 -4.18954,-0.18606 z"
         id="path1073" />
    </g>
  </g>
</svg>
