<?xml version="1.0" encoding="utf-8"?>
<!-- Generator: Adobe Illustrator 27.1.1, SVG Export Plug-In . SVG Version: 6.00 Build 0)  -->
<svg version="1.1" id="svg" xmlns="http://www.w3.org/2000/svg" xmlns:xlink="http://www.w3.org/1999/xlink" x="0px" y="0px"
	 viewBox="0 0 200 200" style="enable-background:new 0 0 200 200;" xml:space="preserve">
<style type="text/css">
	.st0{fill-rule:evenodd;clip-rule:evenodd;fill:#90D943;}
	.st1{fill-rule:evenodd;clip-rule:evenodd;fill:#94B4FB;}
	.st2{fill-rule:evenodd;clip-rule:evenodd;fill:#5B83DA;}
	.st3{fill-rule:evenodd;clip-rule:evenodd;fill:#FBFBFB;}
	.st4{fill-rule:evenodd;clip-rule:evenodd;fill:#B6E19C;}
</style>
<g id="svgg">
	<path id="path0" class="st0" d="M47.3,52.3c0,0.2-0.2,0.4-0.4,0.4c-0.5,0-0.8,1-0.8,2.8c0,1.7,1,2.2,1.3,0.6
		c0.1-0.4,0.2-0.7,0.4-0.7c1.3,0,2.8-3,1.7-3.2C48.1,51.8,47.3,51.9,47.3,52.3 M63.3,58.8c-0.3,0.3-0.9,0.8-1.3,1.1
		c-0.4,0.3-1.1,0.9-1.5,1.3c-0.4,0.4-0.9,0.7-1.1,0.7c-0.2,0-0.3,0.2-0.3,0.4c0,0.2-0.2,0.5-0.5,0.6c-0.6,0.3-1.9,1.6-2.2,2.2
		c-0.1,0.3-0.4,0.5-0.6,0.5c-0.2,0-0.4,0.2-0.5,0.5c-0.1,0.3-0.4,0.6-0.6,0.6c-0.3,0.1-0.5,0.3-0.5,0.5c0,0.2-0.5,0.8-1.2,1.5
		c-0.7,0.6-1.3,1.5-1.4,1.8c-0.1,0.4-0.3,0.7-0.5,0.8c-0.2,0.1-0.5,0.4-0.7,0.8c-0.2,0.4-0.5,0.7-0.7,0.7c-0.2,0-0.4,0.2-0.4,0.4
		c0,0.7-0.7,1.8-1.2,1.8c-0.7,0-1.2-0.3-1.1-0.5c0.2-0.3-0.5-0.3-0.8,0.1c-0.2,0.2-0.3,0.7-0.3,1.2c0,0.8-0.1,0.9-0.5,1
		C45,76.7,45,76.8,45,78.9c0,1.6,0,2.4-0.3,2.9c-0.2,0.4-0.4,0.9-0.4,1.2c0,0.3-0.3,0.8-0.6,1.2c-0.4,0.5-0.6,1.1-0.7,2
		c-0.1,0.7-0.3,1.5-0.5,1.7c-0.2,0.2-0.4,1-0.5,1.6c-0.1,0.7-0.4,1.6-0.6,2.2c-0.2,0.5-0.5,1.6-0.6,2.4c-0.1,1.1-0.3,1.4-0.6,1.5
		c-0.3,0.1-0.5,0.3-0.5,0.7c0,0.8,1.9,0.8,2.3-0.1c0.2-0.4,0.4-0.5,1.3-0.5c0.8,0,1.2-0.1,1.6-0.6c0.5-0.5,0.8-0.6,1.9-0.6
		c1.3,0,1.3,0,1.3-0.6c0-0.6,0-0.6,1.8-0.6c1.7,0,1.8,0,1.9-0.5c0.1-0.4,0.3-0.6,0.7-0.6l0.7-0.1v1.8c0,1.6,0.1,1.9,0.6,2.4
		c0.4,0.3,0.6,0.8,0.6,1.2c0,0.5,0.1,0.7,0.6,0.7c0.5,0,0.6,0.1,0.6,0.6c0,0.4,0.2,0.6,0.5,0.7c0.5,0.1,0.6,0.2,0.6,1.2
		c0.1,1,0.1,1.1,0.7,1.1c0.5,0,0.6,0.1,0.6,0.6c0,0.5,0.1,0.6,0.6,0.6c0.5,0,0.6,0.1,0.6,0.6c0,0.4,0.2,0.6,0.5,0.7
		c0.5,0.1,0.6,0.2,0.6,1.2c0.1,0.8,0.2,1.3,0.7,1.7c0.7,0.7,0.8,1.8,0.1,2.1c-0.3,0.1-0.5,0.5-0.6,0.8c-0.1,0.5-0.2,0.5-1.8,0.5
		c-1.6-0.1-1.7,0-2.2,0.5c-0.4,0.5-0.7,0.6-1.3,0.6c-0.7,0-0.8,0.1-0.8,0.6c0,0.5-0.1,0.6-0.6,0.6c-0.5,0-0.6,0.1-0.6,0.6
		c0,0.3-0.3,0.9-0.6,1.2c-0.3,0.3-0.6,0.9-0.6,1.2c0,0.5-0.1,0.6-0.6,0.6c-0.6,0-0.6,0.1-0.6,1.2c0,1.1,0,1.2-0.6,1.2
		c-0.5,0-0.6,0.1-0.6,0.8c0,0.6-0.2,1-0.6,1.3c-0.3,0.3-0.6,0.7-0.6,1c0,0.3-0.2,0.5-0.5,0.6c-0.5,0.1-0.6,0.2-0.6,1.2
		c-0.1,1-0.1,1.1-0.7,1.1c-0.5,0-0.6,0.1-0.6,0.6c0,0.5-0.1,0.6-0.6,0.6c-0.5,0-0.6,0.1-0.6,0.5c0,0.3-0.2,0.6-0.5,0.8
		c-0.8,0.4-0.9,2.2-0.1,2.4c0.9,0.3,1.4,0.8,1.5,1.8c0.1,0.5,0.4,1.1,0.6,1.3c0.2,0.2,0.5,0.7,0.6,1.1c0.1,0.4,0.3,0.7,0.4,0.7
		c0.1,0,0.4,0.5,0.7,1.1c0.3,0.6,0.6,1.2,0.8,1.4c0.2,0.2,0.4,0.4,0.4,0.6c0,0.2,0.3,0.7,0.7,1.1c0.4,0.4,0.7,1,0.7,1.3
		s0.2,0.4,0.4,0.4c0.2,0,0.5,0.3,0.7,0.7c0.2,0.4,0.5,0.9,0.8,1.2c2.4,2.6,3,3.3,3,3.6c0,0.2,0.1,0.3,0.3,0.3c0.2,0,1,0.7,1.8,1.6
		c0.8,0.9,1.9,1.8,2.4,2.2c0.5,0.4,1.3,1.1,1.9,1.6c0.6,0.5,1.1,0.9,1.1,0.9c0.3,0,1.2-2.4,1.4-3.6c0.1-0.7,0.5-1.5,0.7-1.9
		c0.3-0.3,0.5-0.9,0.5-1.3c0-0.3,0.3-1.2,0.6-1.8c0.3-0.7,0.6-1.4,0.6-1.7c0-0.3,0.3-0.9,0.6-1.3c0.3-0.5,0.6-1.1,0.6-1.3
		c0-0.3,0.2-0.8,0.5-1.1c0.3-0.3,0.6-1.1,0.7-1.6c0.1-0.6,0.4-1.2,0.6-1.4c0.4-0.5,2.1-4,2.1-4.3c0-0.1,0.2-0.4,0.3-0.5
		c0.2-0.2,0.4-0.6,0.5-1c0.1-0.4,0.4-0.9,0.6-1.1c0.2-0.2,0.6-0.8,0.7-1.3c0.2-0.5,0.4-1,0.6-1c0.2-0.1,0.4-0.5,0.5-1.1
		c0.1-0.5,0.4-1.2,0.6-1.5c0.2-0.3,0.6-1,0.8-1.5c0.2-0.5,0.5-0.9,0.6-0.9c0.1,0,0.3-0.1,0.3-0.3c0-0.2,0.3-1,0.7-1.8
		c0.4-0.8,0.7-1.6,0.7-1.7c0-0.1,0.2-0.4,0.4-0.6c0.2-0.2,0.6-0.8,0.9-1.3c0.3-0.5,0.6-1.2,0.8-1.6c0.2-0.3,0.4-0.8,0.4-1
		c0-0.2,0.3-0.7,0.6-1.2c0.3-0.5,0.6-0.9,0.6-1.1c0-0.1,0.3-0.6,0.6-1.1c0.3-0.5,0.6-1,0.6-1.2c0-0.2,0.2-0.7,0.4-1
		c0.2-0.3,0.6-1,0.7-1.5c0.2-0.5,0.5-1.1,0.8-1.3c0.3-0.2,0.5-0.6,0.5-0.8s0.3-0.8,0.6-1.2c0.3-0.5,0.6-1,0.6-1.3
		c0-0.3,0.3-0.9,0.6-1.3c0.3-0.5,0.6-0.9,0.6-1.1c0-0.2,0.2-0.6,0.5-0.9c0.6-0.7,0.6-1.3,0.1-2.1c-0.2-0.3-0.5-1-0.6-1.5
		c-0.1-0.5-0.4-1.2-0.7-1.6c-0.3-0.4-0.5-1.1-0.6-1.7c-0.1-0.6-0.3-1.2-0.5-1.5c-0.2-0.2-0.5-0.8-0.6-1.4c-0.2-0.6-0.5-1.2-0.7-1.5
		c-0.2-0.2-0.5-0.9-0.6-1.4c-0.1-0.5-0.3-1.1-0.5-1.3c-0.2-0.2-0.5-0.8-0.6-1.5c-0.2-0.7-0.4-1.3-0.6-1.3c-0.2-0.1-0.5-0.5-0.6-1
		c-0.2-0.5-0.5-1.1-0.7-1.5c-0.2-0.3-0.5-0.8-0.5-1c0-0.2-0.1-0.6-0.3-0.9c-0.2-0.3-0.6-1-0.9-1.5c-1.5-2.5-1.9-3.3-2.3-4.1
		c-0.2-0.5-0.6-1-0.7-1.2c-0.7-0.7-1.8-2.2-1.9-2.7c-0.1-0.4-2.8-3.4-3.7-4.2c-0.1-0.1-0.5-0.4-0.8-0.8c-0.3-0.3-0.8-0.6-1-0.7
		c-0.2-0.1-0.5-0.4-0.5-0.6c-0.1-0.3-0.4-0.5-0.8-0.6c-0.4-0.1-0.9-0.4-1.3-0.7C64.9,58,64.2,57.8,63.3,58.8 M92.9,110.6
		c0,0.6-0.7,1.9-1,1.9c-0.1,0-0.2,0.2-0.2,0.4c0,0.7-0.5,2.2-0.8,2.5c-0.2,0.2-0.4,0.7-0.5,1.1c-0.1,0.4-0.4,1-0.6,1.3
		c-0.2,0.3-0.6,1-0.7,1.6c-0.2,0.6-0.4,1.1-0.6,1.2c-0.2,0.1-0.4,0.6-0.5,1.3c-0.1,0.6-0.4,1.4-0.6,1.7s-0.5,0.9-0.6,1.3
		c-0.1,0.4-0.4,1-0.6,1.3c-0.2,0.3-0.5,1.1-0.6,1.7c-0.1,0.6-0.4,1.4-0.6,1.7c-0.2,0.3-0.5,0.9-0.6,1.4c-0.1,0.5-0.4,1.1-0.6,1.5
		c-0.2,0.3-0.5,1-0.6,1.5c-0.1,0.5-0.4,1.2-0.6,1.6c-0.2,0.3-0.5,1.2-0.6,1.9c-0.2,1.3-0.6,2.5-0.9,2.5c-0.1,0-0.2,0.6-0.3,1.3
		c-0.1,0.7-0.4,1.6-0.6,2.1c-0.3,0.5-0.5,1.6-0.7,3.2c-0.1,1.3-0.4,2.8-0.6,3.2c-0.3,0.6-0.4,1.7-0.3,6.1l0.1,5.3l1.2,0.3
		c0.7,0.1,1.4,0.4,1.7,0.5c0.3,0.1,1.3,0.4,2.2,0.5c0.9,0.1,1.9,0.4,2.2,0.6c0.3,0.2,1.7,0.5,3.3,0.6c1.5,0.1,3.4,0.4,4.1,0.6
		c1.9,0.5,8.5,0.5,10.3,0c0.8-0.2,2.6-0.5,4.1-0.6c1.7-0.2,3-0.4,3.3-0.6c0.3-0.2,1.3-0.4,2.2-0.5c1.5-0.1,1.6-0.1,1.6-0.8
		c0-0.6-0.1-0.7-0.6-0.7c-0.5,0-0.6-0.1-0.7-1.1c-0.1-1-0.2-1.2-0.6-1.2c-0.4-0.1-0.5-0.2-0.5-0.7c0-0.5-0.1-0.6-0.6-0.6
		c-0.6,0-0.6-0.1-0.6-1.1c0-1-0.1-1.1-0.6-1.2c-0.4-0.1-0.6-0.3-0.6-0.7c0-0.5-0.1-0.6-0.6-0.6c-0.5,0-0.6-0.1-0.6-0.5
		c0-0.3-0.3-0.7-0.6-1c-0.3-0.3-0.6-0.6-0.6-0.7c0-0.1,0.3-0.5,0.6-0.7c0.9-0.7,0.9-2.4,0-2.4c-0.8,0-2.3-1.7-2.6-2.9
		c-0.1-0.6-0.4-1.2-0.6-1.4c-0.2-0.2-0.5-0.9-0.6-1.4c-0.2-0.6-0.5-1.3-0.7-1.7c-0.3-0.3-0.5-0.8-0.5-1.1c0-0.3-0.2-0.9-0.5-1.4
		c-0.3-0.5-0.5-1.4-0.6-1.9c-0.1-0.6-0.4-1.4-0.6-1.8c-0.2-0.4-0.6-1.3-0.7-1.9c-0.2-0.7-0.5-1.4-0.6-1.7c-0.2-0.3-0.4-1.2-0.6-2.1
		c-0.1-0.9-0.4-1.9-0.7-2.4c-0.3-0.4-0.5-1.3-0.6-2c-0.1-0.7-0.3-1.3-0.5-1.5c-0.2-0.2-0.4-0.7-0.5-1.2c-0.1-0.5-0.3-1.4-0.5-2
		c-0.2-0.6-0.5-2-0.7-3c-0.2-1.1-0.5-2-0.6-2.1c-0.3-0.2-0.6-1.2-0.8-2.5C94.3,111.1,92.9,109.5,92.9,110.6 M37.6,146.1
		c0,0.3-0.3,0.9-0.6,1.2c-0.3,0.3-0.6,0.9-0.6,1.2c0,0.3-0.2,0.6-0.5,0.8c-0.4,0.2-0.6,0.5-0.6,1.2c-0.1,0.7-0.2,1-0.6,1.2
		c-0.4,0.2-0.5,0.5-0.6,1.2c-0.1,0.7-0.2,1-0.6,1.2c-0.8,0.3-0.8,1.9,0,2c0.4,0.1,0.5,0.2,0.5,0.7c0,0.5,0.1,0.6,0.7,0.6
		c0.4,0,0.9,0.3,1.2,0.6c0.3,0.3,0.8,0.6,1.1,0.6c0.3,0,0.6,0.2,0.8,0.5c0.2,0.5,0.4,0.6,1.9,0.6c1.5,0.1,1.6,0.1,1.7,0.6
		c0.1,0.5,0.2,0.5,2.3,0.6c2.1,0.1,2.3,0.1,2.5,0.7l0.2,0.6h3.8H54v-0.6c0-0.4-0.1-0.6-0.5-0.6c-0.6,0-1.2-0.3-2-1
		c-4.7-4.4-7.5-7.5-10-10.9c-0.5-0.7-1.3-1.7-1.8-2.2c-0.5-0.5-0.9-1-0.9-1.1c0-0.1-0.3-0.2-0.6-0.2
		C37.7,145.5,37.6,145.6,37.6,146.1 M120.5,173.6c-0.6,0.6-3,1.3-4.9,1.6c-1,0.1-2.2,0.4-2.5,0.6c-0.4,0.2-1.8,0.5-3.1,0.6
		c-1.3,0.1-3.1,0.4-3.9,0.6c-0.8,0.2-3,0.4-4.8,0.5c-4.2,0.2-4.5,0.3-4.5,1c0,0.4,0.1,0.6,0.5,0.6c0.3,0,0.6,0.2,0.8,0.5
		c0.2,0.4,0.5,0.6,1.3,0.6c0.9,0.1,1,0.1,1,0.7c0,0.5,0.1,0.6,1.2,0.6c1.1,0,1.2,0.1,1.3,0.6c0.1,0.5,0.3,0.6,1.3,0.6
		c0.9,0,1.3,0.1,1.7,0.6c0.5,0.6,0.7,0.6,2.9,0.6c2.3,0,2.4,0,2.6,0.6l0.3,0.6h6.2c5.5,0,6.2,0,6.7-0.4c0.6-0.5,0.7-1.8,0.1-2.2
		c-0.2-0.2-0.4-0.7-0.4-1.6c0-1.1-0.1-1.4-0.6-1.8c-0.5-0.4-0.6-0.7-0.6-1.7c0-1-0.1-1.2-0.6-1.5c-0.5-0.2-0.6-0.4-0.6-1.4
		C122,173.2,121.3,172.8,120.5,173.6 M94.5,176.9c0.1,0.2,0.3,0.3,0.5,0.3c0.3,0.1,0.4,0,0.1-0.3C94.8,176.6,94.3,176.5,94.5,176.9"
		/>
	<path id="path1" class="st1" d="M57.2,35c0,0.5,0.4,0.6,0.6,0.2c0.1-0.2,0.3-0.1,0.6,0.1c0.2,0.2,1.1,0.6,2,0.8
		c0.8,0.2,1.7,0.5,1.9,0.7s0.8,0.5,1.2,0.6c0.5,0.2,1.1,0.5,1.4,0.7c0.3,0.2,0.8,0.4,1,0.4s0.8,0.3,1.3,0.7c0.5,0.4,1.1,0.7,1.2,0.7
		c0.2,0,0.3,0.1,0.3,0.2c0,0.7,2.1,0.7,2.5,0c0.1-0.1,0.4-0.3,0.6-0.3s1-0.3,1.6-0.6c0.7-0.3,1.8-0.7,2.6-0.8c0.8-0.1,1.7-0.4,2-0.6
		c0.3-0.2,1.2-0.5,2.1-0.6c0.8-0.2,1.8-0.4,2.2-0.6c0.4-0.2,1.9-0.5,3.4-0.6c1.5-0.1,3.5-0.4,4.4-0.7c2.1-0.5,14.4-0.6,15.8-0.1
		c0.5,0.2,2.4,0.5,4.3,0.7c1.9,0.2,3.7,0.5,4.1,0.7c0.4,0.2,1.4,0.5,2.2,0.6c0.8,0.2,1.8,0.4,2,0.6c0.3,0.2,1.2,0.5,2,0.6
		c0.8,0.1,1.9,0.5,2.3,0.7c0.4,0.3,0.9,0.5,1.1,0.5c0.2,0,1,0.3,1.8,0.7c0.8,0.4,2.1,1,2.9,1.3c0.8,0.4,1.6,0.7,1.8,0.9
		c2.5,1.5,4.4,2.2,4.7,1.7c0.1-0.1-0.1-0.2-0.6-0.2c-0.5,0-0.8-0.2-1.1-0.6c-0.2-0.3-0.7-0.7-1.1-0.7c-0.4-0.1-0.8-0.3-0.9-0.4
		c-0.2-0.2-3.3-1.8-4.2-2c-0.3-0.1-0.8-0.3-1-0.5c-0.2-0.2-0.8-0.4-1.4-0.5c-0.6-0.1-1.3-0.5-1.7-0.7c-0.4-0.3-1-0.5-1.5-0.5
		c-0.5,0-1.3-0.2-1.8-0.5c-0.5-0.3-1.6-0.6-2.4-0.7c-0.8-0.1-1.7-0.4-2-0.6c-0.3-0.2-1.4-0.5-2.5-0.6c-1.1-0.1-2.2-0.3-2.6-0.5
		c-2.5-0.9-20.7-1-24.5,0c-1.1,0.3-2.4,0.5-2.9,0.5c-0.5,0-1.3,0.2-1.9,0.5c-0.6,0.3-1.6,0.6-2.4,0.7c-0.8,0.1-1.6,0.4-1.9,0.6
		c-0.3,0.2-1.2,0.5-2,0.6c-0.8,0.1-1.7,0.4-1.9,0.6c-0.2,0.2-0.7,0.4-1.1,0.5c-0.4,0.1-1,0.3-1.3,0.5c-0.6,0.3-2.3-0.2-3.3-1.1
		c-0.2-0.2-0.9-0.5-1.4-0.7c-0.5-0.2-0.9-0.4-0.9-0.5c0-0.1-0.4-0.3-0.9-0.5c-0.5-0.2-1.2-0.5-1.5-0.7c-0.3-0.2-0.7-0.4-0.9-0.4
		c-0.2,0-1-0.3-1.8-0.6C58.3,34.4,57.2,34.3,57.2,35 M92.2,47c-3,0.4-8.4,1.4-9.7,1.8c-2.4,0.8-2.5,0.9-1.7,1.8
		c0.3,0.3,0.6,0.9,0.9,1.3c0.2,0.4,0.8,1.2,1.3,1.8c0.5,0.5,1,1.1,1.1,1.4c0.2,0.4,0.6,1,2.7,4.3c0.4,0.7,0.9,1.5,1,1.8
		c0.1,0.3,0.4,0.9,0.7,1.3c0.5,0.8,1.9,3.5,3.4,6.8c0.5,1.1,1.1,2.3,1.4,2.8c0.3,0.5,0.5,1.1,0.5,1.4c0,0.3,0.2,1,0.5,1.5
		c1.1,2.2,3.2,8.1,3.2,8.9c0,0.1,0.3,0.9,0.6,1.7c1,2.8,1.9,5.4,1.9,5.9c0,0.3,0.3,1.4,0.6,2.5c1.2,3.9,1.8,5.9,2.2,7.4
		c1,4.1,2.1,7.7,2.9,9.1c0.2,0.4,0.4,1.2,0.5,1.8c0.1,0.6,0.3,1.3,0.5,1.7c0.5,0.8,1.4,3.3,2.5,6.2c0.5,1.3,1.1,2.8,1.3,3.3
		c1.5,3,2.1,4.8,1.7,5.5c-0.2,0.4,0,0.4,3.3,0.4l3.5,0l0.1,0.6c0.1,0.5,0.3,0.6,1.3,0.6c1.1,0,1.2,0,1.3,0.7
		c0.1,0.6,0.1,0.7,0.7,0.5c0.4-0.1,2.3-0.2,4.2-0.2c3.4,0,3.6-0.1,3.9-0.6c0.3-0.4,0.5-0.5,0.9-0.4c0.6,0.2,1.4-0.4,1.4-1
		c0-0.2,0.3-0.5,0.6-0.7c0.9-0.6,0.9-5.7,0-6.5c-0.3-0.3-0.7-0.9-0.8-1.3c-0.1-0.4-0.3-0.8-0.6-1c-1.1-0.6-0.8-3.3,0.4-3.4
		c0.4,0,0.7-0.2,0.7-0.4c0-0.2,0-0.5,0.1-0.8c0-0.3,0.3-0.6,0.8-0.7c0.4-0.1,0.9-0.5,1-0.9c0.3-0.7,0.6-0.8,1.5-0.3
		c0.5,0.2,1,0.2,2.2,0c1.8-0.3,2.4-0.1,2.6,0.8c0.1,0.4,0.3,0.6,0.9,0.6c0.7,0.1,0.8,0.2,0.8,0.7c0,0.3,0.1,0.6,0.3,0.6
		c0.6,0,0.9,0.5,0.5,0.9c-0.4,0.3-0.4,0.3,0,0.2c0.2-0.1,0.5,0,0.6,0.1c0.1,0.1,0.3,0.2,0.5,0.1c0.5-0.2,1.2,1,1,1.8
		c-0.3,1-0.3,1.1,0.4,1.3c0.7,0.2,1.1,1.3,0.7,2.3c-0.5,1.4,0.1,8.6,0.7,9c0.3,0.2,0.5,0.6,0.5,0.9c0,0.3,0.2,0.7,0.6,1
		c0.5,0.4,0.6,0.5,0.5,1.4c-0.1,0.8-0.1,0.9,0.1,0.6c0.1-0.2,0.4-0.4,0.6-0.4c0.3,0,1-1.2,3-5.7c0.7-1.6,1.7-2.4,1.7-1.5
		c0,0.7,0.3-0.1,0.4-1c0.1-1,0.1-1-0.8-1c-0.5,0-0.8-0.1-0.8-0.2c0-0.1-0.3-0.4-0.6-0.5c-0.6-0.3-0.8-1.1-0.3-1.6
		c0.4-0.4,0.1-0.8-0.6-0.8c-0.9,0-1.2-0.5-1-2.3c0.2-1.4,0.1-1.6-0.3-1.7c-0.6-0.2-0.8-0.6-0.8-1.2c0-0.3-0.3-0.7-0.7-1
		c-0.6-0.5-0.6-0.6-0.4-1.2c0.3-0.8,0.2-1.1-0.4-1.1c-0.8,0-1.2-0.3-1.5-0.8c-0.1-0.3-0.5-0.6-0.9-0.7c-0.4-0.1-0.8-0.3-0.8-0.4
		c-0.1-0.1-0.5-0.4-1-0.5c-0.6-0.2-0.8-0.4-0.9-0.9c-0.1-0.8-0.3-0.8-3-0.4c-2.2,0.3-3.1,0.1-3.1-0.9c0-0.5-0.1-0.6-0.9-0.6
		c-0.9,0-0.9,0-0.1-0.1l0.8-0.1v-2v-2H136c-0.9,0-1.3-0.4-1-1.2c0.3-0.9,0.1-1.3-0.5-1.5c-0.3-0.1-0.5-0.4-0.5-1.1
		c0-0.9,0.2-1.1,1.1-1.2c0.1,0,0.3-0.1,0.4-0.3c0.1-0.1,1.3-0.3,2.7-0.3l2.5-0.1l0.1,0.7c0.1,1,3.2,1.1,3.2,0.1c0-0.6,1.2-1.4,2-1.2
		c0.4,0.1,0.4-0.1,0.4-1.1c-0.1-1-0.1-1.1-0.7-1.2c-0.9-0.1-1.1-0.4-1-1.4c0.1-0.8,0-1-0.6-1.2c-0.6-0.3-0.6-0.4-0.5-1.1
		c0.1-0.8,0.1-0.8-0.4-0.8c-0.8,0-1.2-0.7-0.8-1.5c0.5-0.9,0.4-1.3-0.3-1.2c-0.8,0.2-1.3-0.3-1.1-1.1c0.2-0.8,0.1-1.1-0.6-1.3
		c-0.4-0.1-0.5-0.3-0.6-1.2c-0.1-0.9-0.2-1.1-0.6-1.3c-0.4-0.2-0.6-0.5-0.6-1.2c-0.1-0.7-0.2-1-0.6-1.2c-0.3-0.1-0.7-0.6-0.8-1
		c-0.1-0.4-0.4-0.7-0.6-0.7c-0.2,0-0.4-0.2-0.5-0.5c-0.1-0.3-0.4-0.5-0.9-0.6c-0.4-0.1-1-0.4-1.3-0.7c-0.3-0.3-0.8-0.6-1-0.8
		c-0.8-0.4-0.7-2.5,0.2-2.9c0.4-0.2,0.7-0.6,0.8-1.1c0.3-1.5,6.5-1.8,6.6-0.4c0.1,0.8,0.7,0.8,3.8,0.4c2.2-0.3,3.2,0,3.2,0.9
		c0,0.4,0.1,0.6,0.4,0.6c0.9,0,0.3-1.7-1.3-3.7c-4.7-5.8-6.5-7.8-9.8-10.5c-3.2-2.6-5.5-4.4-5.8-4.4c-0.1,0-0.9-0.5-1.7-1
		c-2-1.3-8.8-4.7-9.9-4.9c-0.5-0.1-1.3-0.3-1.8-0.6C112.8,47.7,99.4,46.1,92.2,47 M164.7,130.5c0.1,0.5-0.1,1-0.5,1.9
		c-0.3,0.6-0.6,1.4-0.6,1.6s-0.3,0.8-0.7,1.2c-0.4,0.5-0.7,1.1-0.7,1.5c0,0.4-0.1,0.6-0.2,0.5c-0.1-0.1-0.4,0-0.7,0.1
		c-0.4,0.2-0.3,0.2,0.3,0.3c1.1,0,2.5-1.7,2.7-3.2c0.1-0.6,0.3-1.2,0.5-1.3c0.4-0.2,0.9-1.8,0.8-2.4
		C165.2,129.7,164.5,129.6,164.7,130.5 M157.3,145.3c-0.3,0.6-1,1.6-1.5,2.2c-0.5,0.6-1,1.3-1,1.4c0,0.1-0.2,0.2-0.5,0.2
		c-0.4,0-0.6,0.1-0.6,0.5c-0.3,2.1,4.1-2.3,4.5-4.4C158.3,143.9,158,144,157.3,145.3"/>
	<path id="path2" class="st2" d="M107.4,13.2c-0.5,0.4-1.1,0.5-4.3,0.5c-3.6,0.1-3.7,0.1-3.8,0.6c-0.1,0.5-0.2,0.5-1.3,0.5
		c-1.1,0-1.2,0-1.2,0.6c0,0.6-0.1,0.6-1.8,0.7c-1.6,0.1-1.8,0.1-1.8,0.6c-0.1,0.4-0.2,0.5-0.7,0.5c-0.5,0-0.6,0.1-0.6,0.7l0,0.7
		l-0.2-0.6c-0.2-0.9-4.1-0.9-4.5-0.1c-0.2,0.4-0.4,0.5-0.9,0.5c-0.5,0-0.7-0.1-0.7-0.5c-0.1-0.5-0.1-0.5-5.3-0.6L75,17.3l-0.6,0.6
		c-0.5,0.5-0.8,0.6-2,0.6c-1.4,0-2.2,0.4-2.2,1c0,0.1-0.5,0.2-1.1,0.3c-1,0.1-1.2,0.2-1.2,0.6c-0.1,0.4-0.2,0.5-0.7,0.5
		c-0.5,0-0.6,0.1-0.6,0.7c0,0.4-0.2,1-0.5,1.4c-0.6,0.8-0.6,1.7,0,2.1c0.8,0.5,0.6,0.6-1.3,0.7c-1.6,0.1-1.8,0.1-1.8,0.6
		C63,27,62.8,27,61.8,27h-1.2v1.7c0,1.7,0,1.7,0.7,1.7c0.4,0,0.1,0.1-0.5,0.2c-1,0.1-1.2,0.2-1.3,0.7c-0.1,0.4-0.2,0.5-0.7,0.5
		c-0.5,0-0.6,0.1-0.6,0.6c0,0.5-0.1,0.6-0.6,0.6s-0.6,0.1-0.6,0.6c0,0.5-0.1,0.6-0.6,0.6c-0.4,0-0.6,0.2-0.7,0.7
		c-0.1,0.8,1.1,0.8,1.3,0c0.2-0.6,1.3-0.6,3.1,0.1c0.8,0.3,1.6,0.6,1.8,0.6c0.2,0,0.6,0.2,0.9,0.4c0.3,0.2,1,0.6,1.5,0.7
		c0.5,0.2,0.9,0.4,0.9,0.5c0,0.1,0.4,0.3,0.9,0.5c0.5,0.2,1.1,0.5,1.4,0.7c1,0.9,2.7,1.4,3.3,1.1c0.3-0.2,0.9-0.4,1.3-0.5
		c0.4-0.1,0.9-0.3,1.1-0.5c0.2-0.2,1.1-0.5,1.9-0.6c0.8-0.1,1.7-0.4,2-0.6c0.3-0.2,1.2-0.5,1.9-0.6c0.8-0.1,1.8-0.5,2.4-0.7
		c0.6-0.3,1.4-0.5,1.9-0.5c0.5,0,1.8-0.2,2.9-0.5c3.8-0.9,22.1-0.9,24.5,0c0.3,0.1,1.5,0.3,2.6,0.5c1.1,0.1,2.2,0.4,2.5,0.6
		c0.3,0.2,1.2,0.5,2,0.6c0.8,0.1,1.9,0.5,2.4,0.7c0.5,0.3,1.3,0.5,1.8,0.5c0.5,0,1.1,0.2,1.5,0.5c0.4,0.3,1.1,0.6,1.7,0.7
		c0.6,0.1,1.2,0.4,1.4,0.5c0.2,0.2,0.6,0.4,1,0.5c0.9,0.3,4.1,1.8,4.2,2c0.1,0.1,0.5,0.3,0.9,0.4c0.4,0.1,0.9,0.4,1.1,0.7
		c0.5,0.7,1.8,0.8,1.8,0.1c0-1.1-0.3-2-0.8-2.1c-0.3-0.1-0.4-0.3-0.4-0.9c0-1.1-0.2-1.6-0.7-1.6c-0.3,0-0.5-0.3-0.6-1
		c-0.2-0.7-0.4-1.1-0.8-1.3c-0.3-0.1-0.5-0.5-0.5-0.8c0-0.4-0.1-0.5-0.6-0.5c-0.5,0-0.6-0.1-0.6-0.6c0-0.5-0.1-0.6-0.6-0.6
		c-0.5,0-0.6-0.1-0.6-0.6c0-0.5-0.1-0.6-0.6-0.6s-0.6-0.1-0.6-0.6c0-0.5-0.1-0.6-0.6-0.6c-0.5,0-0.6-0.1-0.6-0.6
		c0-0.5-0.1-0.6-0.6-0.6c-0.5,0-0.6-0.1-0.6-0.6c0-0.5-0.1-0.6-0.6-0.6c-0.5,0-0.6-0.1-0.6-0.6c0-0.6-0.1-0.6-1.2-0.6
		c-1.1,0-1.2,0-1.2-0.6c0-0.5-0.1-0.6-0.7-0.7l-0.7-0.1l0.7,0l0.7,0v-2.3v-2.3h-5.4h-5.4v-0.7c0-0.7,0-0.7,1.2-0.7h1.2v-1.2
		c0-1.1,0.1-1.2,0.5-1.3c0.5-0.1,0.5-0.2,0.5-1c0-0.8-0.1-1-0.5-1c-0.5-0.1-0.5-0.2-0.5-1.3v-1.2h-1.9c-1.6,0-1.9-0.1-2.2-0.5
		C109.1,12.6,108.2,12.6,107.4,13.2 M106.8,18.1c0.2,0.4,0,0.4-2.1,0.4l-2.4,0l1.8-0.1c1.6-0.1,1.8-0.2,2.1-0.7
		c0.1-0.3,0.3-0.4,0.3-0.2C106.5,17.6,106.6,17.9,106.8,18.1 M54.6,35.7c0.1,0.2,0.2,0.3,0.3,0.3c0.3,0,0.2-0.4-0.1-0.5
		C54.6,35.5,54.5,35.5,54.6,35.7 M54,36.6c-0.5,0.1-0.7,0.2-0.7,0.7c0,0.5-0.1,0.6-0.6,0.6c-0.5,0-0.6,0.1-0.6,0.6
		c0,0.4-0.2,0.6-0.5,0.7c-0.8,0.1-0.9,1.2-0.1,1.2c0.5,0,0.6-0.1,0.6-0.6c0-0.5,0.1-0.6,0.6-0.6c0.5,0,0.6-0.1,0.6-0.6
		c0-0.5,0.1-0.6,0.6-0.6c0.5,0,0.6-0.2,0.7-0.7c0.1-0.4,0.1-0.7,0.1-0.7C54.6,36.5,54.3,36.6,54,36.6 M49.7,42.1
		c0,0.5,0.1,0.6,0.6,0.6c0.5,0,0.6-0.1,0.6-0.6c0-0.5-0.1-0.6-0.6-0.6C49.8,41.5,49.7,41.6,49.7,42.1 M48.5,44.6
		c0,0.6,0.1,0.7,0.6,0.7c0.9-0.1,0.9-1.4,0-1.4C48.6,43.9,48.5,44,48.5,44.6 M135.5,45.5c0,0.2,0,0.5-0.1,0.6c0,0.1,0,0.2,0.1,0.2
		c0.1,0,0.4,0.1,0.7,0.3c0.6,0.3,0.7-0.1,0.4-1C136.4,45,135.5,45,135.5,45.5 M47.3,47.8c0,1.4,0,1.5,0.6,1.5c0.6,0,0.6-0.1,0.6-1.5
		c0-1.4,0-1.5-0.6-1.5C47.3,46.4,47.3,46.4,47.3,47.8 M136.6,49.3c-0.2,0.7,0,0.9,0.7,0.9c0.5,0,0.6-0.1,0.5-0.4
		c-0.1-0.2-0.1-0.5-0.1-0.7C137.7,48.6,136.8,48.7,136.6,49.3 M137.9,52.2c0,0.2-0.1,0.6-0.1,0.9c-0.1,0.5-0.1,0.5,0.6,0.5
		c1,0,1-0.7,0.1-1.3C138.1,52,137.9,52,137.9,52.2 M46.1,53.1c0,0.6,0,0.6,0.2,0.2c0.1-0.3,0.4-0.5,0.6-0.6c0.4-0.2,0.4-0.2-0.2-0.2
		C46.1,52.4,46.1,52.5,46.1,53.1 M139,55c-0.5,0.5-0.2,1.1,0.6,1.1c0.7,0,0.7,0.1,0.6,0.6c-0.1,0.5-0.1,0.6,0.5,0.6
		c0.5,0,0.6,0.1,0.6,0.6c0,0.5,0.1,0.6,0.6,0.6c0.5,0,0.6,0.1,0.6,0.6s0.1,0.6,0.6,0.6c0.5,0,0.6,0.1,0.6,0.6c0,0.5,0.1,0.6,0.7,0.7
		c0.5,0.1,0.7,0.2,0.7,0.6c0.1,0.4,0.2,0.5,0.7,0.5c0.8,0,0.7-1-0.1-1.2c-0.3,0-0.6-0.3-0.7-0.6c-0.1-0.4-0.4-0.6-0.7-0.7
		c-0.3,0-0.6-0.3-0.6-0.6c-0.1-0.4-0.2-0.5-0.6-0.5c-0.4,0-0.6-0.2-0.7-0.5c-0.1-0.3-0.4-0.6-0.6-0.6c-0.3-0.1-0.5-0.3-0.5-0.5
		c0-0.2-0.2-0.5-0.5-0.6c-0.3-0.2-0.5-0.5-0.5-0.8C140.2,54.9,139.4,54.6,139,55 M46.1,63.1c0.1,2.1,0.1,2.3,0.6,2.3
		c0.5,0.1,0.6,0.1,0.5-2.2c-0.1-2.1-0.1-2.3-0.6-2.3C46,60.8,46,60.8,46.1,63.1 M155.8,71.1c0,0.5,0.1,0.6,0.6,0.6
		c0.6,0,0.6,0,0.6,1.7v1.7l0.7-0.1c1.1-0.1,1.1-3.3,0.1-3.3c-0.3,0-0.5-0.2-0.6-0.6c-0.1-0.4-0.3-0.6-0.7-0.6
		C155.9,70.5,155.8,70.7,155.8,71.1 M135.8,72.5c-1.7,0.2-1.8,0.3-1.9,1c-0.1,0.5-0.4,0.9-0.8,1.1c-0.8,0.4-0.9,2.5-0.2,2.9
		c0.2,0.1,0.7,0.5,1,0.8c0.3,0.3,0.9,0.6,1.3,0.7c0.5,0.1,0.8,0.4,0.9,0.6c0.1,0.3,0.3,0.5,0.5,0.5c0.2,0,0.5,0.3,0.6,0.7
		c0.1,0.4,0.5,0.8,0.8,1c0.4,0.2,0.6,0.5,0.6,1.2c0.1,0.7,0.2,1,0.6,1.2c0.4,0.2,0.5,0.5,0.6,1.3c0.1,0.9,0.2,1.1,0.6,1.2
		c0.7,0.1,0.8,0.5,0.6,1.3c-0.2,0.8,0,1.1,1,1.2c0.6,0.1,0.6,0.1,0.6-1.1c-0.1-1.4-0.2-1.8-0.7-1.8c-0.2,0-0.4-0.4-0.5-1.2
		c-0.1-0.9-0.3-1.2-0.6-1.2c-0.3,0-0.5-0.3-0.6-1.2c-0.1-1-0.3-1.2-0.6-1.2c-0.3,0-0.5-0.2-0.6-0.6c-0.1-0.4-0.3-0.6-0.7-0.6
		c-0.4,0-0.6-0.2-0.7-0.5c0-0.3-0.3-0.6-0.6-0.6c-0.3,0-0.6-0.3-0.6-0.6c0-0.3-0.3-0.6-0.6-0.6c-0.3,0-0.5-0.2-0.5-0.4
		c0-0.2-0.2-0.5-0.5-0.6c-0.7-0.4-0.7-1.6,0-1.6c0.3,0,0.5-0.2,0.5-0.5c0.1-0.5,0.2-0.5,2.7-0.6c2.6-0.1,2.6-0.1,2.6-0.7
		c0-0.3-0.1-0.6-0.3-0.7C139.5,72.3,137.4,72.3,135.8,72.5 M143.8,73.7c-2.6,0.3-2.5,0.3-1.9,0.9c0.9,0.9,5.6,0.8,5.6,0
		c0-0.6-1-1.2-1.8-1.1C145.6,73.5,144.8,73.6,143.8,73.7 M43.9,78.1c-0.5,0.5-0.3,0.9,0.3,0.9c0.5,0,0.6-0.1,0.6-0.6
		C44.8,77.7,44.4,77.6,43.9,78.1 M42.4,80.7c0,0.3-0.2,0.6-0.5,0.8c-0.9,0.4-0.9,2.3-0.1,2.3c0.6,0,0.6-0.1,0.6-1.2
		c0-1.1,0-1.2,0.6-1.2c0.5,0,0.6-0.1,0.6-0.6c0-0.5-0.1-0.6-0.6-0.6C42.6,80.2,42.4,80.3,42.4,80.7 M40,85.6c0,0.5,0.1,0.6,0.6,0.6
		c0.5,0,0.6-0.1,0.6-0.6c0-0.5-0.1-0.6-0.6-0.6C40.1,85,40,85.1,40,85.6 M39.3,87.2c-0.3,0.2-0.5,0.7-0.5,1c0,0.3-0.1,0.5-0.2,0.5
		c-0.3,0-1,0.7-1,1c0,0.1,0.3,0.2,0.6,0.2c0.5,0,0.6-0.1,0.6-0.6c0-0.5,0.1-0.6,0.6-0.6c0.5,0,0.6-0.1,0.6-1c0-0.5,0-1-0.1-1
		C39.9,86.7,39.6,86.9,39.3,87.2 M142.3,90.4c-0.3,0.7,0.2,1.4,0.9,1.4c0.5,0,0.5,0.1,0.4,0.8c-0.1,0.7-0.1,0.9,0.5,1.1
		c0.5,0.2,0.6,0.4,0.6,1.2c-0.1,1.1,0.1,1.4,1,1.5c0.7,0.1,0.7,0.1,0.7-0.7c0-1.5-0.3-2.3-0.8-2.3c-0.3,0-0.5-0.2-0.5-0.5
		c0-0.3-0.2-0.6-0.5-0.8c-0.4-0.2-0.6-0.5-0.7-1.2C143.8,89.8,142.7,89.4,142.3,90.4 M52,92.2c-0.1,0.1-0.2,0.4-0.2,0.6
		c0,0.7,1.1,0.5,1.2-0.2C53.1,92,52.4,91.8,52,92.2 M48.2,93.7c0,0.5,0.3,0.6,0.7,0.2c0.4-0.4,0.4-0.7-0.2-0.7
		C48.4,93.2,48.2,93.4,48.2,93.7 M45,95c-0.6,0.6-0.5,0.7,0.2,0.7c0.5,0,0.6-0.1,0.6-0.6C45.8,94.3,45.6,94.3,45,95 M53.3,96.2
		c0,0.6,0.1,0.7,0.6,0.7c0.5,0,0.6-0.1,0.3-0.3c-0.2-0.2-0.5-0.5-0.6-0.7C53.4,95.6,53.3,95.6,53.3,96.2 M36.1,97.5
		c0,0.9,1.7,0.8,2.2-0.1c0.2-0.4,0.1-0.5-1-0.5C36.2,96.9,36.1,96.9,36.1,97.5 M55,98.2c0,0.1,0.2,0.2,0.4,0.4
		c0.3,0.2,0.4,0.2,0.4-0.1c0-0.2-0.2-0.4-0.4-0.4C55.2,98.1,55,98.1,55,98.2 M144.7,99c-1.3,0.6-1.1,1.5,0.3,1.5
		c1,0,1.1-0.1,1.1-0.6c0-0.3,0-0.7,0.1-0.9C146.3,98.6,145.6,98.6,144.7,99 M138.2,99.2c-1.1,0.4-0.3,1.3,1.2,1.3
		c1.5,0,1.5,0,1.4-0.7C140.7,99.2,139.2,98.8,138.2,99.2 M55.8,99.8c0.1,0.4,0.3,0.6,0.6,0.6c0.5,0.1,0.5,0,0.5-0.5
		c-0.1-0.4-0.3-0.6-0.6-0.6C55.8,99.3,55.7,99.3,55.8,99.8 M135.5,99.5c0,0.1-0.1,0.2-0.2,0.2c-1.2-0.2-1.9,2-0.8,2.3
		c0.6,0.2,0.8,0.7,0.5,1.5c-0.2,0.9,0.1,1.2,1,1.2c0.7,0,0.8-0.3,0.5-2c-0.1-0.6-0.3-0.9-0.6-0.9c-0.6,0-0.8-1.8-0.3-2.3
		c0.2-0.2,0.3-0.4,0.1-0.4C135.6,99.3,135.5,99.4,135.5,99.5 M141.8,101c0.4,0.8,1.3,0.8,1.7,0c0.2-0.4,0.1-0.5-0.9-0.5
		C141.6,100.5,141.5,100.5,141.8,101 M59.3,104.4c0,0.4,0.5,0.9,0.9,0.9c0.6,0,0.2-1.1-0.4-1.2C59.6,104.1,59.3,104.2,59.3,104.4
		 M60.6,108.2l0,1.7l0.6-0.6c0.8-0.7,0.8-1.5,0-2.3l-0.6-0.5L60.6,108.2 M135.6,109.1c0.2,0.1,0.6,0.1,0.8,0c0.2-0.1,0-0.1-0.4-0.1
		C135.5,109,135.3,109.1,135.6,109.1 M136.9,109.8c0,1,0.8,1.2,3.4,0.8c2.3-0.3,2.4-0.4,1.8-1.1c-0.3-0.3-0.9-0.4-2.8-0.4h-2.4
		V109.8 M55.9,110.6c-0.2,0.2-0.2,1,0,1c0.2,0,1-0.8,1-1C56.9,110.4,56.1,110.4,55.9,110.6 M143,111.1c0.1,0.5,0.3,0.7,0.9,0.9
		c0.4,0.1,0.9,0.4,1,0.5c0.1,0.1,0.5,0.3,0.8,0.4c0.4,0.1,0.8,0.4,0.9,0.7c0.1,0.3,0.5,0.6,0.9,0.7c0.4,0.1,0.8,0.2,1,0.2
		c0.3,0.1,0.4-0.4,0.1-1.3c-0.1-0.3-0.3-0.5-0.6-0.5c-0.3,0-0.7-0.3-1-0.6s-0.8-0.6-1.2-0.6c-0.4,0-0.6-0.1-0.7-0.5
		C145,110.1,142.9,110.1,143,111.1 M134.8,113.9c-0.2,0.3-0.6,0.7-1,0.9c-0.5,0.2-0.7,0.5-0.8,0.8c-0.2,0.8,2.3,0.9,2.6,0.1
		c0.1-0.3,0.4-0.6,0.6-0.6c0.6-0.2,0.7-1.2,0-1.5C135.5,113.2,135.1,113.3,134.8,113.9 M138.8,113.5c-1.4,0.3-1.2,1.5,0.3,1.5
		c1,0,1.2,0.1,1.4,0.5c0.1,0.3,0.5,0.6,0.9,0.6c0.4,0,0.9,0.3,1.1,0.7c0.4,0.5,0.5,0.6,1,0.3c0.5-0.3,0.3-0.9-0.4-0.9
		c-0.2,0-0.3-0.2-0.3-0.6c0-0.5-0.1-0.6-0.8-0.7c-0.6-0.1-0.8-0.2-0.9-0.6C140.9,113.4,140.3,113.2,138.8,113.5 M52.1,114.7
		c0,0.6,0,0.6,0.2,0.2c0.1-0.2,0.4-0.5,0.7-0.7c0.3-0.2,0.3-0.2-0.2-0.2C52.2,114,52.1,114.1,52.1,114.7 M148.4,115.8
		c-0.1,0.4,0,0.7,0.5,1c0.3,0.3,0.6,0.7,0.6,1c0,0.6,0.2,1,0.8,1.2c0.4,0.1,0.4,0.3,0.3,1.8c-0.2,1.8-0.1,2.1,1.1,2.3l0.7,0.1l0-1.6
		c0-2.1-0.2-2.7-0.8-2.7c-0.4,0-0.5-0.2-0.5-0.8c0-1.1-0.2-1.6-0.8-1.6c-0.3,0-0.5-0.2-0.5-0.6C150,115,148.7,115,148.4,115.8
		 M132.3,116.7c-1.2,0.1-1.6,2.8-0.4,3.4c0.2,0.1,0.5,0.6,0.6,1c0.1,0.4,0.4,1,0.8,1.3c0.9,0.9,0.9,5.9,0,6.5
		c-0.3,0.2-0.6,0.5-0.6,0.7c0,0.6-0.8,1.1-1.4,1c-0.4-0.1-0.7,0-0.9,0.4c-0.4,0.5-0.6,0.5-3.9,0.6c-2,0-3.9,0.1-4.2,0.2
		c-0.6,0.2-0.7,0.1-0.7-0.5c-0.1-0.7-0.1-0.7-1.3-0.7c-1.1,0-1.2-0.1-1.3-0.6c-0.3-1.1-7.5-1-7.5,0.1v0.6h3.6c3.5,0,3.6,0,3.8,0.5
		c0.2,0.4,0.5,0.6,1.3,0.6c0.6,0,1,0.2,1,0.3c0,0.8,0.7,1,5.1,1h4.3v-0.6c0-0.5,0.1-0.6,1.1-0.7c1-0.1,1.2-0.2,1.2-0.6
		c0.1-0.4,0.2-0.5,0.6-0.5c0.4,0,0.6-0.2,0.7-0.5c0.1-0.3,0.4-0.7,0.7-0.9c0.8-0.7,0.9-6.5,0.1-6.9c-0.4-0.2-0.6-0.5-0.7-1.2
		c-0.1-0.8-0.2-1-0.7-1c-0.5-0.1-0.5-0.2-0.6-1.8l-0.1-1.7L132.3,116.7 M143.7,117.3c0.2,0.1,0.3,0.6,0.3,1.2c0,0.9,0.1,1.2,0.6,1.6
		c0.5,0.4,0.6,0.7,0.6,2c0,1.3,0.1,1.6,0.5,2.1l0.5,0.5l0.2-1.1c0.4-2.1,0.2-3.1-0.5-3.1c-0.7,0-0.8-0.3-0.5-1.1
		c0.3-0.9-0.3-2.1-0.9-1.9c-0.2,0.1-0.4,0-0.5-0.1c-0.1-0.1-0.3-0.2-0.4-0.2C143.4,117.2,143.4,117.2,143.7,117.3 M50.4,118.5
		c-0.2,0.3-0.2,0.4,0.1,0.4c0.2,0,0.4-0.2,0.4-0.4c0-0.2,0-0.4-0.1-0.4C50.7,118.1,50.6,118.3,50.4,118.5 M48.6,120.2
		c-0.2,0.2-0.2,1,0,1c0.2,0,1-0.8,1-1C49.7,120,48.8,120,48.6,120.2 M152.1,123.9c-0.4,0.4-0.2,1.2,0.4,1.5c0.3,0.2,0.6,0.4,0.6,0.5
		c0,0.1,0.4,0.2,0.8,0.2c0.7,0,0.8-0.1,0.8-0.6c0-0.5-0.1-0.6-0.6-0.6c-0.4,0-0.6-0.2-0.7-0.5C153.5,123.8,152.5,123.5,152.1,123.9
		 M46.6,124.2c-0.4,0.4-0.4,0.7,0.2,0.7c0.3,0,0.5-0.2,0.5-0.5C47.3,123.9,47,123.8,46.6,124.2 M45.3,125.4l-0.6,0.6l0.6,0.1
		c0.7,0.1,0.8,0,0.7-0.7l-0.1-0.6L45.3,125.4 M145.2,128.4c0,3.4,0,3.6,0.6,4.1c0.3,0.3,0.6,0.8,0.7,1.1c0.1,0.4,0.3,0.6,0.6,0.6
		c0.5,0.1,0.5,0.2,0.5,1.3c0,1.1,0,1.2,0.6,1.2c0.9,0,1.1-2.3,0.3-3c-0.3-0.2-0.6-0.7-0.6-1c0-0.3-0.2-0.7-0.5-0.9
		c-0.5-0.3-0.5-0.6-0.7-3.6l-0.1-3.3l-0.7-0.1l-0.7-0.1V128.4 M154.7,127.5c-0.1,0.1-0.2,1.4-0.2,3v2.9h0.7h0.7l0-2.1
		C156,127.8,155.6,126.6,154.7,127.5 M108.7,128.5c0,0.1-0.1,0.4-0.1,0.6c-0.1,0.3,0,0.4,0.4,0.4c0.4,0,0.5-0.2,0.5-0.6
		c0-0.4-0.1-0.6-0.4-0.6C108.8,128.3,108.7,128.4,108.7,128.5 M42.6,128.7c-0.4,0.4-0.1,1,0.4,1c0.5,0,0.6-0.1,0.6-0.6
		C43.6,128.6,43,128.3,42.6,128.7 M163.3,129.1c0,0.5,0.1,0.6,0.7,0.6c0.8,0,1.5,0.5,1.5,1.2c0,0.7-0.6,2.2-0.9,2.2
		c-0.1,0-0.3,0.5-0.4,1.2c-0.2,1.5-1.6,3.2-2.6,3.2h-0.6v2.8c0,2.8,0,2.8-0.6,2.8c-0.3,0-0.6,0.1-0.7,0.3c-0.1,0.2-0.1,0.2-0.1,0
		c-0.1-1.2-1.2-0.2-1.3,1.1c-0.1,1.3-0.2,1.6-1.8,3.5l-1.6,2.1l-1.2-0.1c-1.2-0.1-1.4,0.4-0.4,0.9c0.2,0.1,0.4,0.5,0.4,0.8
		c0.1,0.4,0.3,0.6,0.6,0.7c0.3,0,0.6,0.3,0.7,0.6c0.2,0.4,0.5,0.6,1.2,0.6c0.8,0.1,1,0.2,1.1,0.6c0.1,0.5,0.2,0.5,1.8,0.6
		c1.5,0.1,1.7,0.1,1.9,0.6c0.4,0.8,6.7,0.8,6.8,0c0.1-0.5,0.2-0.5,1.3-0.5c1,0,1.3-0.1,1.8-0.6c0.3-0.3,0.9-0.6,1.2-0.6
		c0.5,0,0.6-0.1,0.6-0.6c0-0.5,0.1-0.6,0.6-0.6c0.5,0,0.6-0.1,0.6-0.6c0-0.5,0.1-0.6,0.6-0.6c0.5,0,0.6-0.1,0.6-0.6
		c0-0.3,0.1-0.6,0.2-0.6c0.6,0,1-0.8,1-2.2c0-1.2,0.1-1.5,0.6-2c0.6-0.6,0.6-0.6,0.6-5.4c0-4.8,0-4.8,0.5-4.9
		c0.5-0.1,0.6-0.2,0.6-1.7l0.1-1.6l-1.2-1.2c-1.1-1.1-1.3-1.2-2.4-1.2c-1,0-1.2-0.1-1.4-0.5c-0.2-0.5-0.3-0.5-5.4-0.6l-5.1-0.1
		V129.1 M160.9,130.4c0,0.5,0.1,0.6,0.6,0.6s0.6-0.1,0.6-0.6c0-0.5-0.1-0.6-0.6-0.6S160.9,129.9,160.9,130.4 M41.3,133.1
		c0.1,1.9,0.1,2.1,0.6,2.4c0.4,0.2,0.5,0.4,0.5,0.9c0,0.6,0.1,0.7,0.6,0.7c0.5,0,0.6-0.1,0.6-0.7s-0.1-0.7-0.6-0.7
		c-0.6,0-0.6,0-0.6-2.3V131h-0.6h-0.6L41.3,133.1 M155.9,136.4c-0.2,0.8,0.2,1.6,0.8,1.6c0.5,0,0.6-0.2,0.3-1.4
		C156.9,135.6,156.2,135.5,155.9,136.4 M106.2,138c0,1.1,0,1.2,0.5,1.1c0.9-0.1,1-2.4,0.1-2.4C106.3,136.8,106.2,136.8,106.2,138
		 M41.2,138.9c0,1,1,0.9,1.2,0c0.1-0.6,0-0.6-0.5-0.6C41.3,138.2,41.2,138.3,41.2,138.9 M148.8,140.4c0,1.1,0,1.2,0.6,1.2
		c0.6,0,0.6-0.1,0.6-1.2c0-1.1,0-1.2-0.6-1.2C148.8,139.2,148.8,139.3,148.8,140.4 M106.2,140c0,0.5,0.1,0.6,0.6,0.6
		c0.5,0,0.6,0.1,0.6,0.6s0.1,0.6,0.6,0.6c0.5,0,0.6-0.1,0.6-0.6c0-0.5-0.1-0.6-0.6-0.6c-0.4,0-0.6-0.2-0.7-0.5
		C107.3,139.2,106.2,139.2,106.2,140 M40,141.2c0,0.3-0.1,0.6-0.2,0.6c-0.3,0-1,0.7-1,1.1c0,0.2,0.2,0.3,0.6,0.2
		c0.4-0.1,0.6-0.3,0.6-0.7c0-0.5,0.1-0.6,0.6-0.6c0.5,0,0.6-0.1,0.6-0.6s-0.1-0.6-0.6-0.6C40.1,140.6,40,140.7,40,141.2
		 M157.1,141.1c-0.2,0.7,0.1,1.1,0.7,1.2c0.6,0,0.8-0.4,0.5-1.2C158.1,140.5,157.3,140.5,157.1,141.1 M108.7,144.1
		c0,1.2,0.2,1.3,0.8,0.7c0.6-0.6,0.2-1.8-0.6-1.8C108.8,143,108.7,143.5,108.7,144.1 M150,145.2c0,1.1,0,1.2,0.6,1.2
		c0.6,0,0.6-0.1,0.6-1.2c0-1.1,0-1.2-0.6-1.2C150,144,150,144.1,150,145.2 M38.1,144.7l-0.6,0.6l0.6,0.1c0.7,0.1,0.8,0,0.7-0.7
		l-0.1-0.6L38.1,144.7 M36.4,147.3c0,0.6,0,0.6,0.2,0.2c0.1-0.2,0.4-0.5,0.7-0.7c0.3-0.2,0.3-0.2-0.2-0.2
		C36.5,146.7,36.4,146.8,36.4,147.3 M151.2,148.2c0,0.5,0.1,0.6,0.6,0.6c0.5,0,0.6-0.1,0.6-0.6c0-0.5-0.1-0.6-0.6-0.6
		C151.3,147.6,151.2,147.8,151.2,148.2 M108.2,150.9c-0.2,0.3-0.2,0.4,0.1,0.4c0.2,0,0.4-0.2,0.4-0.4c0-0.2,0-0.4-0.1-0.4
		C108.5,150.5,108.3,150.7,108.2,150.9 M107.5,151.7c0,0.2,0.8,1,1,1c0.1,0,0.2-0.3,0.2-0.6c0-0.5-0.1-0.6-0.6-0.6
		C107.7,151.5,107.5,151.6,107.5,151.7 M33.1,153.1c-0.7,0.7-0.5,1.3,0.2,1c0.4-0.2,0.6-0.5,0.6-0.8C34,152.6,33.7,152.6,33.1,153.1
		 M108.7,153.4c0,0.3,0.2,0.5,0.5,0.5c0.5,0,0.6-0.3,0.2-0.7C108.9,152.8,108.7,152.9,108.7,153.4 M111.1,156.9
		c0,0.5,0.1,0.6,0.6,0.6c0.7,0,0.8-0.3,0.2-0.8C111.4,156.2,111.1,156.2,111.1,156.9 M35.2,157.8c0,0.6,0.1,0.7,0.6,0.7
		c0.5,0,0.6-0.1,0.3-0.3c-0.2-0.2-0.5-0.5-0.6-0.7C35.2,157.2,35.2,157.3,35.2,157.8 M40.2,160.1c0.1,0.3,0.8,0.8,1.1,0.8
		c0.1,0,0.1-0.3,0-0.6c-0.1-0.4-0.3-0.6-0.7-0.6C40.2,159.7,40.1,159.8,40.2,160.1 M113.5,160.6c0,0.5,0.1,0.6,0.6,0.6
		c0.7,0,0.8-0.3,0.2-0.8C113.8,159.8,113.5,159.9,113.5,160.6 M44.9,161.5c0.1,0.4,0.3,0.6,0.7,0.6c0.6,0.1,0.6,0,0.5-0.5
		C45.8,160.8,44.8,160.7,44.9,161.5 M57.4,161c-0.4,1.1-0.2,1.1,1.9,1.1c2,0,3.2-0.4,3.2-1C62.5,161,57.5,160.8,57.4,161
		 M64.2,161.2c0,1.1,4,1.4,4.2,0.3l0.1-0.6h-2.1C64.7,160.9,64.2,161,64.2,161.2 M71.4,162.7c0,0.6,0.1,0.6,1.5,0.6
		c1.2,0,1.5-0.1,1.3-0.4c-0.1-0.2-0.1-0.5-0.1-0.6s-0.6-0.2-1.3-0.2C71.5,162.1,71.4,162.2,71.4,162.7 M114.7,163
		c0,0.6,0.3,0.8,0.9,0.4c0.5-0.3,0.1-1-0.5-1C114.8,162.4,114.7,162.5,114.7,163 M76.3,164c0,0.5,0.1,0.6,0.6,0.6
		c0.5,0,0.6-0.1,0.6-0.6c0-0.5-0.1-0.6-0.6-0.6C76.4,163.3,76.3,163.5,76.3,164 M115.9,164.2c0,0.5,0.1,0.6,0.6,0.6
		c0.7,0,0.8-0.3,0.2-0.8C116.2,163.4,115.9,163.5,115.9,164.2 M78.7,165.2c0,0.5,0.1,0.6,0.6,0.6c0.5,0,0.6-0.1,0.6-0.6
		c0-0.5-0.1-0.6-0.6-0.6C78.8,164.6,78.7,164.7,78.7,165.2 M117.1,166.6c0,0.5,0.1,0.6,0.6,0.6s0.6-0.1,0.6-0.6
		c0-0.5-0.1-0.6-0.6-0.6S117.1,166.2,117.1,166.6 M82.3,167.6c0,0.5,0.1,0.6,0.6,0.6c0.5,0,0.6,0.1,0.6,0.6c0,0.5,0.1,0.6,0.6,0.6
		c0.5,0,0.6-0.1,0.6-0.6c0-0.5-0.1-0.6-0.6-0.6c-0.5,0-0.6-0.1-0.6-0.6s-0.1-0.6-0.6-0.6C82.4,167,82.3,167.1,82.3,167.6
		 M118.3,168.1c0,0.4,0.1,0.6,0.5,0.6c0.3,0,0.5,0.1,0.6,0.3c0.1,0.2,0.1,0.2,0.1-0.1c0-0.4-0.6-1.4-1-1.4
		C118.4,167.5,118.3,167.7,118.3,168.1 M85,169.7c0.2,0.7,1.1,1,1,0.3c-0.1-0.4-0.3-0.6-0.6-0.6C85.1,169.4,85,169.5,85,169.7
		 M119.5,170.2c0,0.4,0.2,0.6,0.6,0.7c0.7,0.1,0.8-0.3,0.2-0.9C119.8,169.5,119.5,169.5,119.5,170.2 M88.4,172.4
		c0,0.5,0.1,0.6,0.6,0.6c0.5,0,0.6,0.1,0.6,0.6s0.1,0.6,0.6,0.6c0.5,0,0.6,0.1,0.6,0.6c0,0.5,0.1,0.6,0.6,0.6c0.5,0,0.6-0.1,0.6-0.6
		c0-0.5-0.1-0.6-0.6-0.6c-0.5,0-0.6-0.1-0.6-0.6s-0.1-0.6-0.6-0.6c-0.5,0-0.6-0.1-0.6-0.6c0-0.5-0.1-0.6-0.6-0.6
		C88.5,171.8,88.4,171.9,88.4,172.4 M120.7,172.6c0,0.5,0.1,0.6,0.6,0.6c0.8,0,0.8-1-0.1-1.2C120.8,172,120.7,172.1,120.7,172.6
		 M94.7,176.9c-0.4,0.4-0.4,0.7,0.2,0.7c0.3,0,0.6,0.3,0.8,0.7c0.4,0.9,1.2,1,1.2,0.2c0-0.5-0.1-0.6-0.6-0.6c-0.5,0-0.6-0.1-0.6-0.6
		C95.6,176.6,95.2,176.5,94.7,176.9 M123.2,178.3c0,0.3,0.8,1,1.1,1c0.1,0,0.1-0.2,0.1-0.5C124.3,178.2,123.2,177.8,123.2,178.3
		 M99.5,180.5c0,0.3,0.5,0.8,0.8,0.8c0.1,0,0.2-0.2,0.2-0.5c0-0.3-0.2-0.5-0.5-0.5C99.7,180.3,99.5,180.4,99.5,180.5 M102.5,182.1
		c0.5,0.7,0.6,0.7,0.4,0c-0.1-0.3-0.3-0.5-0.5-0.5C102.2,181.5,102.2,181.6,102.5,182.1 M124.4,181.9c0,0.1,0.2,0.4,0.4,0.5
		c0.2,0.2,0.4,0.7,0.4,1.1c0,0.5-0.1,0.9-0.4,1c-0.6,0.2-0.4,0.6,0.3,0.6c0.9,0,0.8-3.2-0.1-3.3
		C124.6,181.7,124.4,181.8,124.4,181.9 M105.3,183.2c0,0.6,0.1,0.7,0.6,0.7c0.5,0,0.6-0.1,0.3-0.3c-0.2-0.2-0.5-0.5-0.6-0.7
		C105.3,182.6,105.3,182.7,105.3,183.2"/>
	<path id="path3" class="st3" d="M57.3,35.5c-0.9,0.5-3.7,3.2-3.7,3.6c0,0.2-0.3,0.4-0.6,0.5c-0.4,0.2-0.7,0.5-0.8,1
		c-0.1,0.5-0.3,0.7-0.6,0.7c-0.3,0-0.5,0.2-0.5,0.7c0,1.3-0.3,1.8-0.9,1.7c-0.5-0.1-0.5,0-0.4,0.6c0.2,1.2-0.1,1.9-0.8,1.8
		c-0.6-0.1-0.6-0.1-0.5,1c0.4,2.4,0.2,3.1-0.8,3.3c-1.1,0.2-0.6,0.8,0.8,1c2.6,0.3,3.4,0.9,2.4,1.9c-0.2,0.2-0.4,0.5-0.4,0.6
		c0,0.1-0.1,0.3-0.2,0.3c-0.3,0-2.3,1.9-2.6,2.6c-0.2,0.3-0.3,3.7-0.4,8.7l-0.2,8.3h0.6c0.4,0,0.7-0.2,0.8-0.5
		c0.1-0.3,0.5-0.8,0.8-1.2c1.2-1.2,1.5-1.5,1.7-2.1c0.5-1.4,9.2-10.2,11-11.1c0.4-0.2,0.9-0.6,1.1-0.8c0.7-0.7,1.9-0.6,2.9,0.2
		c0.5,0.4,1.3,0.9,1.9,1.3s1.6,1.1,2.2,1.8c0.7,0.6,1.3,1.1,1.4,1.1c0.1,0,0.6,0.5,1.1,1c0.5,0.6,1.4,1.5,2,2.1s1.1,1.2,1.1,1.4
		s0.3,0.6,0.7,1.1c0.4,0.5,0.7,0.9,0.7,1c0,0.1,0.2,0.3,0.4,0.6c0.7,0.7,1.8,2.6,1.9,3.3c0.1,0.4,0.3,0.7,0.4,0.7
		c0.1,0,0.4,0.5,0.7,1.1c0.3,0.6,0.6,1.1,0.7,1.2c0.1,0.1,0.3,0.6,0.5,1.1c0.1,0.5,0.5,1.2,0.7,1.5c0.3,0.3,0.5,0.7,0.5,0.9
		c0,0.2,0.3,0.8,0.6,1.2c0.3,0.4,0.7,1.1,0.8,1.6c0.1,0.4,0.3,0.9,0.5,1.1c0.2,0.2,0.4,0.8,0.6,1.4c0.2,0.6,0.5,1.3,0.7,1.6
		c0.2,0.3,0.5,0.9,0.6,1.4c0.1,0.5,0.3,1,0.5,1.1c0.2,0.2,0.5,0.9,0.6,1.7c0.2,0.8,0.5,1.6,0.7,1.9c0.2,0.3,0.5,1,0.6,1.5
		c0.1,0.5,0.3,1.1,0.5,1.3c0.6,0.7,0.7,2.5,0.2,3.3c-0.7,1.1-2,3.8-2,4.2c0,0.2-0.3,0.8-0.6,1.2c-0.3,0.5-0.6,0.9-0.6,1.1
		c0,0.1-0.2,0.5-0.5,0.8c-0.3,0.3-0.6,0.9-0.7,1.4c-0.1,0.5-0.5,1.2-0.7,1.5c-0.3,0.4-0.5,0.8-0.5,1c0,0.2-0.3,0.9-0.7,1.5
		c-0.4,0.6-0.7,1.2-0.7,1.4c0,0.2-0.1,0.3-0.2,0.3c-0.1,0-0.4,0.5-0.6,1.2c-0.2,0.7-0.5,1.3-0.6,1.3c-0.1,0.1-0.4,0.6-0.7,1.2
		c-0.3,0.6-0.6,1.1-0.7,1.1c-0.1,0-0.3,0.2-0.3,0.4c0,0.5-1.9,4.4-2.1,4.4c-0.1,0-0.3,0.4-0.5,0.9c-0.2,0.5-0.5,1.1-0.6,1.3
		c-0.2,0.2-0.4,0.8-0.6,1.4c-0.1,0.6-0.4,1.1-0.6,1.2c-0.2,0.1-0.5,0.6-0.6,1.1c-0.2,0.5-0.4,1-0.6,1.1c-0.2,0.1-0.5,0.8-0.7,1.5
		c-0.2,0.7-0.5,1.3-0.6,1.3c-0.1,0-0.3,0.3-0.4,0.7c-0.1,0.4-0.3,1-0.6,1.3c-0.2,0.3-0.6,0.9-0.7,1.4c-0.2,0.5-0.5,1-0.6,1.2
		c-0.2,0.2-0.4,0.8-0.5,1.4c-0.1,0.6-0.4,1.2-0.6,1.4c-0.2,0.2-0.4,0.7-0.5,1c-0.1,0.3-0.4,1-0.6,1.4c-0.3,0.4-0.6,1.3-0.7,1.9
		c-0.1,0.6-0.4,1.4-0.6,1.7c-0.2,0.3-0.5,1.1-0.6,1.8c-0.1,0.7-0.4,1.4-0.6,1.5c-0.2,0.2-0.4,1.1-0.6,2c-0.5,2.5-1.7,3.5-2.9,2.3
		c-0.3-0.3-0.6-0.5-0.7-0.5s-0.4-0.2-0.7-0.5c-0.2-0.3-0.7-0.7-1-0.9c-1.4-0.9-6.7-6.5-8-8.5c-0.4-0.6-0.8-1.1-1-1.2
		c-0.4-0.3-2.7-3.8-2.9-4.4c-0.1-0.3-0.3-0.7-0.6-0.9c-0.6-0.6-1.5-2.4-2.2-4c-0.2-0.5-0.5-0.7-1.1-0.8c-1.1-0.2-1-0.4-1.1,2l-0.1,2
		l0.7,0.2c0.7,0.3,0.8,0.6,0.5,1.9c-0.1,0.5-0.3,0.8-0.6,0.8c-0.4,0-0.5,0.2-0.5,0.8c0,1.1-0.2,1.6-0.7,1.6c-0.3,0-0.5,0.2-0.5,0.9
		c-0.1,0.7-0.2,0.9-0.7,1c-0.5,0.1-0.6,0.3-0.6,1.1c0,0.8-0.1,1-0.6,1.1c-0.8,0.2-0.9,0.8-0.2,1.2c0.3,0.1,1.1,0.9,1.6,1.6
		c1.5,1.9,4.8,6,5.4,6.6c0.3,0.3,0.6,0.7,0.8,0.8c0.2,0.3,3.3,3.2,5.3,5.1c1,0.9,5.1,1.2,13.1,1.1l4.7-0.1l0.1,0.7l0.1,0.7l2.1-0.2
		c2.2-0.2,3.2,0,3.1,0.4c-0.1,0.8,0.1,0.9,0.8,0.9c1.7-0.1,2.1,0,1.9,0.5c-0.1,0.4,0,0.5,0.5,0.5c1,0,1.4,0.3,1.4,0.9
		c0,0.6,0.1,0.6,1,0.5c0.9-0.1,1-0.1,1.2,0.4c0.1,0.3,0.5,0.6,0.8,0.7c0.3,0.1,0.6,0.3,0.6,0.5c0,0.2,0.3,0.5,0.7,0.6
		c0.4,0.2,0.8,0.5,0.9,0.9c0.1,0.5,0.3,0.6,0.9,0.6c0.5,0,0.8,0.1,0.9,0.5c0.1,0.3,0.4,0.5,0.6,0.5c0.3,0,0.6,0.2,0.7,0.6
		c0.1,0.3,0.5,0.6,0.8,0.7c0.3,0.1,0.6,0.3,0.6,0.5c0,0.2,0.2,0.4,0.5,0.5c0.3,0.1,0.6,0.5,0.6,0.7c0.1,0.6,0.5,0.8,1.2,0.8
		c0.4,0,0.5,0.1,0.5,0.6c0,0.5,0.1,0.5,0.7,0.5c0.5-0.1,0.8,0,1.1,0.5c0.2,0.3,0.7,0.7,1.1,0.8c0.4,0.1,0.7,0.3,0.7,0.6
		c0,0.3,0.1,0.3,0.3,0.1c0.2-0.2,0.9-0.3,1.8-0.3c0.8,0,2.7-0.2,4.1-0.4c1.4-0.2,3.9-0.5,5.4-0.6c1.6-0.1,3.1-0.4,3.5-0.6
		c0.4-0.2,1.5-0.5,2.5-0.6c1-0.2,2.2-0.4,2.8-0.6c0.5-0.2,1.6-0.5,2.4-0.6c1.5-0.3,1.9-0.9,0.7-1.2c-0.5-0.1-0.6-0.3-0.5-1.1
		c0.1-0.9,0-1-0.7-1.2c-0.7-0.3-0.7-0.3-0.6-1.4c0.1-0.7,0.1-1.1-0.1-1c-0.4,0.2-1.3-0.3-1.3-0.8c0-0.3-0.2-0.5-0.5-0.6
		c-0.4-0.1-0.5-0.4-0.5-1c0-0.5-0.1-0.9-0.3-0.9c-0.6-0.2-1-0.4-1.5-0.7c-0.4-0.3-0.6-0.3-1.4,0.1c-0.5,0.3-1.8,0.6-2.9,0.7
		c-1.1,0.1-2.5,0.4-3.2,0.7c-1.8,0.6-14.6,0.6-16.4,0c-0.7-0.2-2.1-0.5-3.2-0.7c-1.1-0.1-2.3-0.4-2.5-0.6c-0.3-0.2-1.3-0.5-2.3-0.6
		c-2.3-0.4-4.1-1.3-4.3-2.1c-0.3-1.2,0.1-12.2,0.5-13.6c0.2-0.7,0.5-2,0.7-2.9c0.2-0.9,0.5-2,0.7-2.4c0.2-0.5,0.5-1.3,0.6-1.8
		c0.1-0.5,0.3-1.2,0.5-1.5c0.2-0.3,0.4-1.1,0.6-1.9c0.1-0.8,0.5-1.7,0.7-2.2c0.3-0.4,0.5-0.9,0.5-1.1c0-0.2,0.3-0.9,0.6-1.6
		c0.3-0.7,0.7-1.7,0.9-2.3c0.9-2.6,1.4-3.9,1.7-4.4c0.2-0.3,0.4-0.9,0.5-1.3c0.1-0.4,0.4-1,0.6-1.3c0.2-0.3,0.5-1,0.6-1.6
		c0.1-0.6,0.3-1.2,0.5-1.4c0.2-0.2,0.5-0.7,0.6-1.3c0.1-0.5,0.5-1.3,0.7-1.6c0.3-0.3,0.5-0.7,0.5-0.8c0-0.3,1-2.7,2.2-5.2
		c1.4-3,2.6-2.5,3.2,1.1c0.1,0.6,0.3,1.3,0.5,1.6c0.2,0.3,0.5,1.1,0.6,1.9c0.1,0.8,0.4,1.6,0.6,1.9c0.2,0.3,0.5,1.3,0.6,2.3
		c0.2,1,0.4,2,0.6,2.3c0.2,0.3,0.4,1.2,0.6,1.9c0.1,0.8,0.4,1.6,0.6,1.8c0.2,0.2,0.4,1.1,0.6,1.9c0.1,0.9,0.5,2,0.7,2.5
		c0.3,0.5,0.5,1.2,0.5,1.5s0.2,0.9,0.5,1.5c0.3,0.5,0.6,1.4,0.8,2c0.1,0.6,0.4,1.3,0.6,1.6c0.2,0.3,0.4,1.1,0.6,1.8
		c0.1,0.7,0.5,1.6,0.7,1.9c0.2,0.3,0.5,1,0.6,1.5s0.4,1.1,0.6,1.4c0.2,0.3,0.5,1,0.6,1.6c0.1,0.7,0.4,1.3,0.8,1.6
		c0.3,0.3,0.6,0.7,0.6,0.9c0,0.2,0.2,0.3,0.5,0.2c0.5-0.1,0.5-0.2,0.6-2.9l0.1-2.8h-0.6c-0.4,0-0.7-0.2-0.8-0.6
		c-0.1-0.3-0.4-0.7-0.6-0.8c-0.3-0.2-0.4-1-0.4-5.8l-0.1-5.5l0.5-0.1c0.3,0,0.6-0.3,0.7-0.5c0.3-1.1,3.2-0.9,3.1,0.2
		c0,0.4,0.1,0.5,0.5,0.5c1.5,0,1.2-2-0.9-6c-0.2-0.5-0.8-1.9-1.3-3.3c-1-2.9-2-5.3-2.5-6.2c-0.2-0.3-0.4-1.1-0.5-1.7
		c-0.1-0.6-0.3-1.4-0.5-1.8c-0.7-1.4-1.9-5-2.9-9.1c-0.4-1.6-1-3.5-2.2-7.4c-0.3-1.1-0.6-2.2-0.6-2.5c0-0.5-0.8-3.1-1.9-5.9
		c-0.3-0.8-0.6-1.6-0.6-1.7c0-0.8-2.1-6.7-3.2-8.9c-0.3-0.5-0.5-1.2-0.5-1.5c0-0.3-0.2-0.9-0.5-1.4c-0.3-0.5-0.9-1.8-1.4-2.8
		c-1.5-3.3-2.9-6-3.4-6.8c-0.3-0.4-0.6-1-0.7-1.3c-0.1-0.3-0.5-1.1-1-1.8c-1.9-2.9-2.5-3.8-2.7-4.2c-0.1-0.2-0.6-0.8-1.1-1.4
		c-0.5-0.5-1.1-1.3-1.3-1.8c-0.2-0.4-0.6-1-0.9-1.3c-0.8-0.8-0.7-1,1.7-1.8c8.7-3.1,27.4-2.4,35.2,1.2c0.5,0.2,1.3,0.5,1.8,0.6
		c1.1,0.2,7.9,3.6,9.9,4.9c0.8,0.6,1.6,1,1.7,1c0.2,0,2.6,1.8,5.8,4.4c3.3,2.8,5.5,5.1,9.9,10.7c0.8,1.1,1.3,1.9,1.4,2.6l0.2,0.9
		h4.2h4.2l0-1.5l0-1.5l-0.9-0.2c-0.9-0.2-1.1-0.7-0.9-2.3c0-0.2-0.3-0.3-1-0.3c-1.1,0-1.6-0.4-1.1-0.9c0.1-0.1-0.2-0.2-0.8-0.2
		c-0.9,0-1-0.1-1.1-0.5c0-0.3-0.2-0.5-0.4-0.5c-0.2,0-0.5-0.3-0.6-0.6c-0.1-0.3-0.5-0.6-0.8-0.7c-0.4-0.1-0.6-0.3-0.6-0.6
		c0-0.3-0.2-0.5-0.4-0.5c-0.4,0-0.9-0.8-0.7-1.1c0.1-0.1-0.1-0.2-0.3-0.2c-0.3,0-0.7-0.3-0.9-0.6c-0.2-0.3-0.5-0.6-0.6-0.6
		c-0.3,0-1.9-1.6-1.9-1.9c0-0.1-0.3-0.4-0.7-0.5c-0.5-0.2-0.7-0.4-0.7-0.8c0-0.3-0.1-0.6-0.2-0.6c-0.5,0.1-0.8-0.1-0.8-0.4
		c0-0.2-0.2-0.4-0.5-0.5c-0.3-0.1-0.5-0.2-0.5-0.3c0-0.1-0.3-0.3-0.7-0.5c-0.7-0.3-0.7-0.6-0.5-2c0.1-0.4-0.1-0.5-0.6-0.6
		c-0.8-0.1-0.8-0.2-0.6-1.9c0.1-0.5,0-0.6-0.6-0.7c-0.7-0.1-0.7-0.2-0.6-1.2c0.2-2.4,0.2-2.3-0.6-2.4c-0.8-0.1-1-1.2-0.5-2.6
		c0.2-0.5,0.1-0.5-0.4-0.5c-0.5,0-2.8-1-4.3-1.9c-0.2-0.1-1-0.5-1.8-0.9c-0.8-0.4-2.1-1-2.9-1.3c-0.8-0.4-1.6-0.7-1.8-0.7
		c-0.2,0-0.7-0.2-1.1-0.5c-0.4-0.3-1.5-0.6-2.3-0.7c-0.8-0.2-1.8-0.4-2-0.6c-0.3-0.2-1.2-0.5-2-0.6c-0.8-0.2-1.8-0.4-2.2-0.6
		c-0.4-0.2-2.2-0.5-4.1-0.7c-1.9-0.2-3.8-0.5-4.3-0.7c-1.4-0.5-13.7-0.4-15.8,0.1c-0.9,0.2-2.9,0.5-4.4,0.7c-1.5,0.1-3,0.4-3.4,0.6
		C82,37,81,37.3,80.2,37.4c-0.8,0.2-1.8,0.4-2.1,0.6c-0.3,0.2-1.2,0.5-2,0.6c-0.8,0.1-2,0.5-2.6,0.8c-0.7,0.3-1.4,0.6-1.6,0.6
		s-0.5,0.1-0.6,0.3c-0.4,0.7-2.5,0.6-2.5,0c0-0.1-0.1-0.2-0.3-0.2c-0.2,0-0.7-0.3-1.2-0.7c-0.5-0.4-1.1-0.7-1.3-0.7s-0.7-0.2-1-0.4
		c-0.3-0.2-0.9-0.6-1.4-0.7c-0.5-0.2-1-0.4-1.2-0.6s-1.1-0.5-1.9-0.7c-0.8-0.2-1.7-0.5-1.9-0.7C58.1,35.1,57.9,35.1,57.3,35.5
		 M42.9,82.1c-0.4,0.2-0.2,0.7,0.3,0.7c0.2,0,0.3-0.2,0.3-0.5C43.6,81.8,43.5,81.8,42.9,82.1 M41.2,84.8c0,0.1,0.3,0.4,0.6,0.6
		c0.6,0.4,0.6,0.4,0.6-0.2c0-0.4-0.1-0.6-0.6-0.6C41.5,84.6,41.2,84.7,41.2,84.8 M40.1,87.8c0.1,1.1,0,1.2-0.5,1.4
		c-0.5,0.1-0.6,0.3-0.6,1.1c0,0.8-0.1,1-0.5,1c-0.4,0.1-0.5,0.2-0.5,0.5c0,0.3-0.2,0.6-0.6,0.7c-0.3,0.1-0.6,0.4-0.6,0.6
		c0,0.2-0.3,0.5-0.6,0.6c-0.3,0.1-0.6,0.4-0.6,0.6c0,0.2-0.3,0.5-0.6,0.6c-0.6,0.2-0.8,0.8-0.4,1.4c0.4,0.7,3.9,0.6,3.9-0.1
		c0-0.4,0.2-0.7,0.6-0.8c0.9-0.3,1.1-0.7,1.4-2.6c0.2-0.9,0.5-2.1,0.7-2.7c0.8-1.7,0.6-3.4-0.3-3.5L40,86.6L40.1,87.8 M152.7,129.6
		c-2.1,4.5-2.7,5.7-3,5.7c-0.5,0-0.9,0.8-0.9,1.8c0,0.7,0.1,0.9,0.6,0.9c0.8,0,1.1,0.9,0.8,2.4c-0.3,2.1-0.3,2.4,0.4,2.4
		c0.9,0,1,0.5,0.8,2.8c-0.1,0.9-0.1,1,0.4,1c0.4,0,0.5,0.2,0.7,1c0.2,1,2,2,2.3,1.3c0-0.1,0.5-0.7,1-1.3c1.8-2.2,2.5-4,1.6-4
		c-0.5,0-0.7-1.2-0.4-2.4c0.3-1.3,0.2-1.8-0.5-1.9c-0.8-0.1-0.9-0.5-0.6-3.7c0-0.5-0.1-0.6-0.6-0.7c-0.9-0.1-1-0.4-0.9-3.5
		c0-1.6,0-3,0-3.2C154.3,127.2,153.4,127.9,152.7,129.6 M162.4,130c0.3,0.5-0.3,1.5-0.9,1.5c-0.6,0-0.6,0-0.6,2.3
		c0,2.3,0,2.3,0.6,2.3c0.7,0,2.1-1.5,2.1-2.1c0-0.2,0.3-0.9,0.6-1.6c0.7-1.4,0.8-2,0.1-2.4C163.7,129.7,162.2,129.7,162.4,130"/>
	<path id="path4" class="st4" d="M56.9,35.1c0,0.3-0.8,0.5-1.5,0.4c-0.3-0.1-0.9,0.5-0.9,0.8c0.1,1.1,0,1.6-0.6,1.6
		c-0.5,0-0.6,0.1-0.6,0.6c0,0.5-0.1,0.6-0.6,0.6c-0.5,0-0.6,0.1-0.6,0.6c0,0.5-0.1,0.6-0.6,0.6c-0.6,0-0.6,0.1-0.6,1.2
		c0,1.1,0,1.2-0.6,1.2c-0.8,0-0.7,0.8,0,0.9c0.5,0.1,0.8-0.5,0.8-1.7c0-0.5,0.1-0.7,0.5-0.7c0.3,0,0.5-0.2,0.6-0.7
		c0.1-0.5,0.4-0.8,0.8-1c0.3-0.1,0.6-0.4,0.6-0.5c0-0.3,3-3.4,3.4-3.4c0.1,0,0.3-0.2,0.3-0.5c0-0.3-0.1-0.5-0.1-0.5
		S56.9,34.9,56.9,35.1 M49.7,44.6c0,0.5-0.1,0.7-0.3,0.7c-0.4-0.2-1,0.3-0.8,0.6c0.5,0.9,1.5-0.2,1.3-1.4
		C49.8,43.9,49.7,44,49.7,44.6 M135.1,46c-0.2,1.3-0.1,1.7,0.8,1.9c0.7,0.1,0.8,0.1,0.8-0.4c0-0.5-0.6-1.1-1.2-1.2
		c-0.1,0-0.1-0.3-0.1-0.6C135.6,44.8,135.3,45.1,135.1,46 M48.5,48.3c0,0.8-0.1,0.9-0.6,0.9c-0.5,0-0.6,0.1-0.6,0.6
		c0,0.6,0.5,0.7,1.2,0.3c0.4-0.2,0.5-1.5,0.3-2.1C48.5,47.5,48.5,47.5,48.5,48.3 M136.5,50.5c0,0.2,0,0.5-0.1,0.6
		c0,0.1,0.3,0.2,0.7,0.3c0.7,0.2,0.8,0.1,0.7-0.5C137.8,50.1,136.5,49.7,136.5,50.5 M47.3,51.5c0,0.3,0.2,0.4,0.7,0.4
		c1.6,0,2.3,0.3,2.1,0.9c-0.1,0.6-1.9,2.5-2.3,2.5c-0.1,0-0.3,0.4-0.4,0.8c-0.1,0.7-0.3,0.8-0.7,0.8c-0.9,0-0.8,3.8,0,3.9
		c0.4,0.1,0.5,0.3,0.7,1.6c0.1,1.1,0.2,0.6,0.2-1.9c0-2,0.2-3.7,0.3-4c0.4-0.7,2.3-2.6,2.6-2.6c0.1,0,0.2-0.1,0.2-0.3
		c0-0.1,0.2-0.4,0.4-0.6c0.5-0.5,0.4-1.3-0.2-1.5C49.6,51.2,47.3,51.1,47.3,51.5 M137.5,53c-0.2,0.8,0,1,0.9,1.2
		c0.5,0.1,0.7,0,0.7-0.2c0-0.2-0.3-0.3-0.8-0.3c-0.7,0-0.7-0.1-0.6-0.6c0.1-0.3,0.1-0.6,0-0.6C137.7,52.4,137.6,52.7,137.5,53
		 M138.7,55.7c0,0.9,1.4,1.6,1.6,0.8c0.1-0.3-0.1-0.4-0.6-0.4c-0.5,0-0.8-0.1-0.8-0.4C138.7,55.3,138.7,55.3,138.7,55.7 M140.4,57.4
		c0.3,0.1,0.5,0.4,0.6,0.6c0.2,0.4,0.2,0.4,0.2-0.2c0-0.6-0.1-0.7-0.6-0.6C140.1,57.3,140,57.3,140.4,57.4 M63.2,57.9
		c-0.3,0.3-0.8,0.6-1.1,0.8c-1.8,0.9-10.5,9.7-11,11.1c-0.2,0.5-0.4,0.8-1.7,2.1c-0.4,0.4-0.7,0.9-0.8,1.2c-0.1,0.4-0.4,0.5-0.8,0.5
		c-0.9,0-0.7,1.1,0.2,1.2c0.7,0.1,1.4-0.8,1.4-1.8c0-0.2,0.2-0.4,0.4-0.4c0.2,0,0.5-0.3,0.7-0.7c0.2-0.4,0.5-0.8,0.7-0.8
		c0.2-0.1,0.4-0.4,0.5-0.8c0.1-0.4,0.7-1.2,1.4-1.8c0.7-0.6,1.2-1.3,1.2-1.5c0-0.2,0.2-0.4,0.5-0.5c0.3-0.1,0.6-0.4,0.6-0.6
		c0.1-0.3,0.3-0.5,0.5-0.5c0.2,0,0.4-0.2,0.6-0.5c0.1-0.3,0.6-0.8,1-1.2c0.4-0.4,1-0.9,1.2-1c0.3-0.1,0.5-0.4,0.5-0.6
		c0-0.2,0.1-0.4,0.3-0.4c0.2,0,0.7-0.3,1.1-0.7c0.4-0.4,1.1-0.9,1.5-1.3c0.4-0.3,1.1-0.8,1.4-1.1c0.9-0.9,1.5-0.7,3.6,1.1
		c0.4,0.3,0.9,0.6,1.3,0.7c0.4,0.1,0.7,0.3,0.8,0.6c0.1,0.3,0.3,0.5,0.5,0.6c0.2,0.1,0.7,0.4,1,0.7c0.3,0.3,0.7,0.6,0.8,0.8
		c0.9,0.8,3.6,3.8,3.7,4.2c0.1,0.4,1.2,1.9,1.9,2.7c0.2,0.2,0.5,0.7,0.7,1.2c0.4,0.8,0.9,1.7,2.3,4.1c0.3,0.6,0.7,1.3,0.9,1.5
		c0.2,0.3,0.3,0.7,0.3,0.9c0,0.2,0.2,0.6,0.5,1c0.2,0.3,0.6,1,0.7,1.5c0.2,0.5,0.4,0.9,0.6,1c0.2,0.1,0.5,0.7,0.6,1.3
		c0.2,0.7,0.4,1.3,0.6,1.5c0.2,0.2,0.4,0.7,0.5,1.3c0.1,0.5,0.4,1.2,0.6,1.4c0.2,0.2,0.6,0.9,0.7,1.5c0.2,0.6,0.4,1.2,0.6,1.4
		c0.2,0.2,0.4,0.9,0.5,1.5c0.1,0.6,0.4,1.4,0.6,1.7c0.2,0.4,0.6,1.1,0.7,1.6c0.1,0.5,0.4,1.2,0.6,1.5c0.5,0.7,0.5,1.3-0.1,2.1
		c-0.3,0.3-0.5,0.7-0.5,0.9c0,0.2-0.3,0.7-0.6,1.1c-0.3,0.5-0.6,1-0.6,1.3c0,0.3-0.3,0.9-0.6,1.3c-0.3,0.5-0.6,1-0.6,1.2
		s-0.2,0.6-0.5,0.8c-0.3,0.2-0.6,0.8-0.8,1.3c-0.2,0.5-0.5,1.1-0.7,1.5c-0.2,0.3-0.4,0.8-0.4,1c0,0.2-0.3,0.8-0.6,1.2
		c-0.3,0.5-0.6,0.9-0.6,1.1c0,0.1-0.3,0.6-0.6,1.1c-0.3,0.5-0.6,1-0.6,1.2c0,0.2-0.2,0.6-0.4,1c-0.2,0.3-0.6,1-0.8,1.6
		c-0.3,0.5-0.6,1.1-0.9,1.3c-0.2,0.2-0.4,0.5-0.4,0.6c0,0.1-0.3,0.9-0.7,1.7c-0.4,0.8-0.7,1.6-0.7,1.8c0,0.2-0.1,0.3-0.3,0.3
		c-0.1,0-0.4,0.4-0.6,0.9c-0.2,0.5-0.6,1.2-0.8,1.5c-0.2,0.3-0.5,1-0.6,1.5c-0.1,0.5-0.3,1-0.5,1.1c-0.2,0.1-0.5,0.5-0.6,1
		c-0.2,0.5-0.5,1.1-0.7,1.3c-0.2,0.2-0.5,0.7-0.6,1.1c-0.1,0.4-0.3,0.8-0.5,1c-0.2,0.2-0.3,0.4-0.3,0.5c0,0.4-1.7,3.8-2.1,4.3
		c-0.2,0.2-0.4,0.9-0.6,1.4c-0.1,0.6-0.4,1.3-0.7,1.6c-0.3,0.3-0.5,0.8-0.5,1.1c0,0.3-0.3,0.9-0.6,1.3c-0.3,0.5-0.6,1-0.6,1.3
		c0,0.3-0.3,1-0.6,1.7c-0.3,0.7-0.6,1.5-0.6,1.8c0,0.3-0.2,0.9-0.5,1.3c-0.3,0.3-0.6,1.2-0.7,1.9c-0.2,1.2-1.2,3.6-1.4,3.6
		c-0.1,0-0.6-0.4-1.1-0.9c-0.6-0.5-1.4-1.2-1.9-1.6c-0.5-0.4-1.5-1.4-2.4-2.2c-0.8-0.9-1.7-1.6-1.8-1.6c-0.2,0-0.3-0.2-0.3-0.3
		c0-0.3-0.6-1.1-3-3.6c-0.3-0.3-0.6-0.8-0.8-1.2c-0.2-0.4-0.5-0.7-0.7-0.7c-0.2,0-0.4-0.2-0.4-0.4s-0.3-0.8-0.7-1.3
		c-0.4-0.4-0.7-0.9-0.7-1.1c0-0.2-0.2-0.4-0.4-0.6c-0.2-0.2-0.6-0.8-0.8-1.4c-0.3-0.6-0.6-1.1-0.7-1.1c-0.1,0-0.3-0.3-0.4-0.7
		c-0.1-0.4-0.4-0.9-0.6-1.1c-0.2-0.2-0.5-0.8-0.6-1.3c-0.2-1.2-0.8-1.7-2.2-1.9l-1.1-0.1l0,2.3c0,2,0.1,2.1,0.1,0.6l0.1-1.7l0.9,0.2
		c0.9,0.2,1.5,0.7,1.5,1.4c0,0.2,0.3,0.8,0.6,1.3c0.3,0.5,0.7,1.1,0.7,1.4c0.1,0.3,0.3,0.5,0.4,0.5c0.1,0,0.4,0.4,0.6,0.9
		c0.6,1.1,2.7,4.5,3.1,4.8c0.2,0.1,0.6,0.7,1,1.2c1.3,2,6.6,7.6,8,8.5c0.3,0.2,0.8,0.6,1,0.9c0.2,0.3,0.5,0.5,0.7,0.5
		s0.4,0.2,0.7,0.5c1.2,1.2,2.4,0.2,2.9-2.3c0.2-0.9,0.5-1.8,0.6-2c0.2-0.2,0.4-0.9,0.6-1.5c0.1-0.7,0.4-1.5,0.6-1.8
		c0.2-0.3,0.5-1,0.6-1.7c0.1-0.6,0.5-1.5,0.7-1.9c0.3-0.4,0.5-1.1,0.6-1.4c0.1-0.3,0.3-0.8,0.5-1c0.2-0.2,0.5-0.9,0.6-1.4
		c0.1-0.6,0.4-1.2,0.5-1.4c0.2-0.2,0.5-0.7,0.6-1.2c0.2-0.5,0.5-1.1,0.7-1.4c0.2-0.3,0.5-0.9,0.6-1.3c0.1-0.4,0.2-0.7,0.4-0.7
		c0.1,0,0.4-0.6,0.6-1.3c0.2-0.7,0.6-1.4,0.7-1.5c0.2-0.1,0.4-0.6,0.6-1.1c0.2-0.5,0.4-1,0.6-1.1c0.2-0.1,0.4-0.6,0.6-1.2
		c0.1-0.6,0.4-1.2,0.6-1.4c0.2-0.2,0.5-0.8,0.6-1.3c0.2-0.5,0.4-0.9,0.5-0.9c0.2,0,2.1-3.9,2.1-4.4c0-0.2,0.1-0.4,0.3-0.4
		c0.1,0,0.5-0.5,0.7-1.1c0.3-0.6,0.6-1.1,0.7-1.2c0.1-0.1,0.4-0.7,0.6-1.3c0.2-0.7,0.5-1.2,0.6-1.2c0.1,0,0.2-0.1,0.2-0.3
		c0-0.2,0.3-0.8,0.7-1.4c0.4-0.6,0.7-1.2,0.7-1.5c0-0.2,0.2-0.7,0.5-1c0.3-0.4,0.6-1,0.7-1.5c0.1-0.5,0.5-1.1,0.7-1.4
		c0.3-0.3,0.5-0.6,0.5-0.8c0-0.1,0.3-0.6,0.6-1.1c0.3-0.5,0.6-1,0.6-1.2c0-0.4,1.3-3.1,2-4.2c0.5-0.8,0.4-2.6-0.2-3.3
		c-0.2-0.2-0.4-0.8-0.5-1.3c-0.1-0.5-0.4-1.2-0.6-1.5c-0.2-0.3-0.6-1.2-0.7-1.9c-0.2-0.8-0.4-1.5-0.6-1.7c-0.2-0.2-0.4-0.7-0.5-1.1
		c-0.1-0.5-0.3-1.1-0.6-1.4c-0.2-0.3-0.6-1-0.7-1.6c-0.2-0.6-0.4-1.2-0.6-1.4c-0.2-0.2-0.4-0.7-0.5-1.1c-0.1-0.4-0.4-1.1-0.8-1.6
		c-0.3-0.4-0.6-1-0.6-1.2c0-0.2-0.2-0.6-0.5-0.9c-0.3-0.3-0.6-0.9-0.7-1.5c-0.1-0.5-0.4-1-0.5-1.1c-0.1-0.1-0.5-0.6-0.7-1.2
		c-0.3-0.6-0.6-1.1-0.7-1.1c-0.1,0-0.3-0.3-0.4-0.7c-0.2-0.7-1.2-2.5-1.9-3.3c-0.2-0.2-0.4-0.5-0.4-0.6c0-0.1-0.3-0.5-0.7-1
		c-0.4-0.5-0.7-1-0.7-1.1s-0.5-0.8-1.1-1.4s-1.5-1.6-2-2.1c-0.5-0.6-1-1-1.1-1c-0.1,0-0.7-0.5-1.4-1.1c-0.7-0.6-1.7-1.4-2.2-1.8
		s-1.4-0.9-1.9-1.3C65.2,57.3,63.9,57.3,63.2,57.9 M142,59c0,0.4,0.2,0.6,0.7,0.8c0.4,0.1,0.7,0.4,0.7,0.5c0,0.3,1.6,1.9,1.9,1.9
		c0.1,0,0.4,0.3,0.6,0.6c0.2,0.3,0.6,0.6,0.9,0.6c0.3,0,0.4,0.1,0.3,0.2c-0.2,0.2,0.3,1.1,0.7,1.1c0.2,0,0.4,0.2,0.4,0.5
		c0.1,0.4,0.3,0.6,0.6,0.6c0.3,0,0.7,0.3,0.8,0.7c0.1,0.3,0.4,0.6,0.6,0.6c0.2,0,0.4,0.2,0.4,0.5c0.1,0.4,0.2,0.5,0.9,0.6
		c0.5,0,0.9,0.1,0.9,0.3c0,0.2,0,0.4,0.1,0.5c0,0.1,0.3,0.2,0.5,0.2c0.4,0,0.5-0.1,0.4-0.5c-0.1-0.4-0.2-0.5-0.5-0.5
		c-0.3,0-0.5-0.2-0.7-0.7c-0.1-0.4-0.4-0.7-0.7-0.7c-0.3,0-0.5-0.2-0.6-0.6c-0.1-0.4-0.4-0.6-0.7-0.7c-0.3,0-0.5-0.2-0.5-0.4
		s-0.2-0.5-0.5-0.6c-0.3-0.1-0.6-0.5-0.7-0.8c-0.1-0.3-0.3-0.6-0.6-0.6c-0.3,0-0.5-0.2-0.6-0.6c-0.1-0.5-0.3-0.6-1.2-0.6
		c-0.9,0-1.1-0.1-1.1-0.5c-0.1-0.4-0.3-0.6-0.7-0.6c-0.5-0.1-0.7-0.2-0.7-0.7c0-0.5-0.1-0.6-0.6-0.6c-0.5,0-0.6-0.1-0.6-0.6
		c0-0.3-0.1-0.6-0.2-0.6S142,58.7,142,59 M154.8,71.1c0,0.5,0.2,0.6,0.9,0.8l0.9,0.2l0,1.4c0,2,0.3,2,0.3,0c0-1.7,0-1.7-0.6-1.7
		c-0.5,0-0.6-0.1-0.6-0.6c0-0.4-0.1-0.6-0.5-0.6C155,70.5,154.8,70.7,154.8,71.1 M43.8,79.1c-0.1,0.1-0.2,0.6-0.2,1.2
		c0,1-0.1,1-0.6,1c-0.6,0-0.6,0.1-0.6,1.2c0,1.1,0,1.2-0.6,1.2c-0.4,0-0.6,0.1-0.6,0.3c0,0.4,0.7,0.7,1,0.5c0.1-0.1,0.2,0.1,0.2,0.5
		c0,0.6,0,0.6-0.6,0.2c-0.6-0.4-0.6-0.4-0.6,0.2c0,0.5-0.1,0.6-0.6,0.6c-0.4,0-0.6,0.1-0.5,0.2c0.1,0.1,0.4,0.2,0.7,0.2
		c0.8,0,0.8,1.9,0.1,3.5c-0.3,0.6-0.6,1.8-0.7,2.7c-0.3,1.8-0.5,2.2-1.4,2.6c-0.9,0.3-0.8,1.4,0.2,1.4c0.6,0,0.7-0.1,0.7-0.6
		c0-0.4,0.2-0.6,0.5-0.7c0.4-0.1,0.5-0.4,0.6-1.5c0.1-0.8,0.4-1.9,0.6-2.4c0.2-0.5,0.5-1.5,0.6-2.2c0.1-0.7,0.3-1.4,0.5-1.6
		c0.2-0.2,0.4-1,0.5-1.7c0.1-0.9,0.3-1.5,0.7-2c0.3-0.4,0.6-0.9,0.6-1.2c0-0.3,0.2-0.8,0.4-1.3C45.5,80.2,44.7,78.2,43.8,79.1
		 M43.6,82.4c0,0.3-0.2,0.5-0.3,0.5c-0.5,0-0.7-0.5-0.3-0.7C43.5,81.8,43.6,81.8,43.6,82.4 M40,88.1c0,0.4-0.2,0.5-0.6,0.5
		c-0.3,0-0.6,0.1-0.6,0.3c0,0.2,0.2,0.3,0.6,0.2c0.7-0.1,0.9-0.5,0.8-1.2C40.1,87.7,40.1,87.7,40,88.1 M37.6,90.5
		c0,0.5-0.1,0.6-0.6,0.6c-0.5,0-0.6,0.1-0.6,0.6c0,0.5-0.1,0.6-0.6,0.6c-0.5,0-0.6,0.1-0.6,0.6c0,0.5-0.1,0.6-0.6,0.6
		c-0.5,0-0.6,0.1-0.6,0.6c0,0.5-0.1,0.6-0.6,0.6c-0.6,0-0.6,0-0.6,1.7v1.7h1.7c1.6,0,1.7,0,1.7-0.6c0-0.3,0.2-0.6,0.4-0.7
		c0.2-0.1-0.1-0.1-0.7,0c-1.6,0.1-2.4-1.3-1-1.8c0.3-0.1,0.6-0.4,0.6-0.6c0-0.2,0.3-0.5,0.6-0.6c0.3-0.1,0.6-0.4,0.6-0.6
		c0-0.2,0.3-0.5,0.6-0.6c0.4-0.1,0.6-0.4,0.6-0.7c0-0.3,0.2-0.5,0.5-0.5c0.6,0,0.8-0.3,0.6-1C38.7,89.6,37.6,89.7,37.6,90.5 M92,111
		c-1.2,2.5-2.2,4.9-2.2,5.2c0,0.1-0.2,0.5-0.5,0.8c-0.3,0.3-0.6,1-0.7,1.6c-0.1,0.5-0.4,1.1-0.6,1.3c-0.2,0.2-0.4,0.8-0.5,1.4
		c-0.1,0.6-0.4,1.3-0.6,1.6c-0.2,0.3-0.5,0.9-0.6,1.3c-0.1,0.4-0.3,1-0.5,1.3c-0.3,0.5-0.8,1.8-1.7,4.4c-0.2,0.6-0.6,1.6-0.9,2.3
		c-0.3,0.7-0.6,1.4-0.6,1.6c0,0.2-0.2,0.7-0.5,1.1c-0.3,0.4-0.6,1.4-0.7,2.2c-0.1,0.8-0.4,1.6-0.6,1.9c-0.2,0.3-0.4,0.9-0.5,1.5
		c-0.1,0.5-0.4,1.3-0.6,1.8c-0.2,0.5-0.6,1.6-0.7,2.4c-0.2,0.9-0.5,2.2-0.7,2.9c-0.4,1.4-0.8,12.4-0.5,13.6c0.2,0.8,2,1.7,4.3,2.1
		c1,0.2,2,0.4,2.3,0.6c0.3,0.2,1.4,0.4,2.5,0.6c1.1,0.1,2.6,0.4,3.2,0.7c1.8,0.6,14.6,0.6,16.4,0c0.7-0.2,2.1-0.5,3.2-0.7
		c1.1-0.1,2.3-0.4,2.5-0.6c0.9-0.6,1.3-0.6,1.9-0.2c0.9,0.7,1.6,0.8,1.6,0.2c0-0.4-0.1-0.4-0.6-0.3c-0.5,0.1-0.6,0.1-0.6-0.4
		c0-0.7-2.7-0.6-3.7,0.1c-0.4,0.2-1.6,0.5-3.3,0.6c-1.5,0.1-3.4,0.4-4.1,0.6c-0.9,0.2-2.6,0.4-5.2,0.4s-4.2-0.1-5.2-0.4
		c-0.8-0.2-2.6-0.5-4.1-0.6c-1.5-0.1-3-0.4-3.3-0.6c-0.3-0.2-1.3-0.5-2.2-0.6c-0.9-0.1-1.9-0.4-2.2-0.5c-0.3-0.1-1.1-0.4-1.7-0.5
		l-1.2-0.3l-0.1-5.3c-0.1-4.3,0-5.4,0.3-6.1c0.2-0.4,0.5-1.9,0.6-3.2c0.2-1.6,0.4-2.7,0.7-3.2c0.3-0.4,0.5-1.4,0.6-2.1
		c0.1-0.7,0.2-1.3,0.3-1.3c0.3,0,0.7-1.1,0.9-2.5c0.1-0.7,0.4-1.6,0.6-1.9c0.2-0.3,0.5-1,0.6-1.6c0.1-0.5,0.4-1.2,0.6-1.5
		c0.2-0.3,0.5-1,0.6-1.5c0.1-0.5,0.4-1.1,0.6-1.4c0.2-0.3,0.5-1.1,0.6-1.7c0.1-0.6,0.4-1.4,0.6-1.7c0.2-0.3,0.5-0.9,0.6-1.3
		c0.1-0.4,0.4-1,0.6-1.3s0.5-1.1,0.6-1.7c0.1-0.6,0.3-1.2,0.5-1.3c0.2-0.1,0.5-0.6,0.6-1.2c0.2-0.6,0.5-1.3,0.7-1.6
		c0.2-0.3,0.5-0.9,0.6-1.3c0.1-0.4,0.3-0.9,0.5-1.1c0.3-0.3,0.8-1.8,0.8-2.5c0-0.2,0.1-0.4,0.2-0.4c0.3,0,1-1.3,1-1.9
		c0-1.1,1.4,0.5,1.6,1.8c0.2,1.3,0.5,2.3,0.8,2.5c0.1,0.1,0.4,1,0.6,2.1c0.2,1.1,0.5,2.4,0.7,3c0.2,0.6,0.4,1.5,0.5,2
		c0.1,0.5,0.3,1,0.5,1.2c0.2,0.2,0.4,0.9,0.5,1.5c0.1,0.7,0.4,1.5,0.6,2c0.3,0.4,0.6,1.5,0.7,2.4c0.1,0.9,0.4,1.8,0.6,2.1
		c0.2,0.3,0.5,1.1,0.6,1.7c0.2,0.7,0.5,1.5,0.7,1.9c0.2,0.4,0.5,1.2,0.6,1.8c0.1,0.6,0.4,1.4,0.6,1.9c0.3,0.5,0.5,1.1,0.5,1.4
		c0,0.3,0.2,0.8,0.5,1.1c0.3,0.3,0.6,1.1,0.7,1.7c0.2,0.6,0.4,1.2,0.6,1.4c0.2,0.2,0.4,0.8,0.6,1.4c0.4,1.9,3.2,4,3.2,2.5
		c0-0.4-0.1-0.4-0.6-0.4c-0.4,0.1-0.6,0-0.6-0.2c0-0.2-0.3-0.6-0.6-0.9c-0.4-0.3-0.7-1-0.8-1.6c-0.1-0.6-0.4-1.3-0.6-1.6
		c-0.2-0.3-0.5-1-0.6-1.4s-0.4-1.2-0.6-1.5c-0.2-0.3-0.6-1.2-0.7-1.9c-0.1-0.7-0.4-1.5-0.6-1.8c-0.2-0.3-0.4-1-0.6-1.6
		c-0.2-0.6-0.5-1.5-0.8-2c-0.3-0.5-0.5-1.2-0.5-1.5s-0.2-0.9-0.5-1.5c-0.3-0.5-0.6-1.7-0.7-2.5c-0.1-0.9-0.4-1.7-0.6-1.9
		c-0.2-0.2-0.4-1-0.6-1.8c-0.1-0.8-0.4-1.7-0.6-1.9c-0.2-0.3-0.5-1.3-0.6-2.3c-0.2-1-0.4-2-0.6-2.3c-0.2-0.3-0.4-1.1-0.6-1.9
		c-0.1-0.8-0.4-1.6-0.6-1.9c-0.2-0.3-0.4-1-0.5-1.6C94.6,108.4,93.4,108,92,111 M108,128.2c-0.3,0.1-0.6,0.3-0.7,0.6
		c-0.1,0.2-0.4,0.5-0.7,0.5c-0.5,0.1-0.5,0.1-0.5,4.3c0,2.3,0,4,0.1,3.7c0.1-0.4,0.2-0.5,0.7-0.5h0.6v-3.6c0-3.5,0-3.6,0.5-3.6
		c0.3,0,0.5-0.2,0.6-0.6c0.2-0.8,0.8-0.8,0.8,0c0,0.7,1.1,0.8,1.1,0.1C110.5,128.2,109.7,127.9,108,128.2 M154.4,130.4
		c0,0.9,0,1.3,0.1,0.8c0.1-0.5,0.1-1.3,0-1.7C154.5,129,154.4,129.4,154.4,130.4 M162.1,130.3c0,0.5-0.1,0.7-0.6,0.7
		c-0.3,0-0.6,0.1-0.6,0.2s0.3,0.2,0.6,0.2c0.7,0,1.3-1.1,0.8-1.5C162.2,129.7,162.1,129.9,162.1,130.3 M154.4,133.1
		c0,1.3,0.1,1.6,1,1.7c0.6,0.1,0.7,0.1,0.7-0.7c0-0.7-0.1-0.8-0.7-0.8c-0.6,0-0.7-0.1-0.8-0.7C154.5,132.3,154.4,132.4,154.4,133.1
		 M42.4,135.3c0,0.1,0.3,0.3,0.6,0.3c0.5,0,0.6,0.1,0.6,0.7c0,0.6-0.1,0.7-0.6,0.7c-0.5,0-0.6,0.1-0.7,1.3c-0.1,1.1-0.1,1.3-0.6,1.3
		c-0.4,0-0.5,0.2-0.6,1.1c-0.1,1-0.1,1.1-0.7,1.1c-0.3,0-0.6,0.1-0.6,0.3c0,0.9,1.3,0,1.4-0.9c0.1-0.7,0.2-0.9,0.5-0.9
		c0.5,0,0.7-0.5,0.7-1.6c0-0.7,0.1-0.8,0.5-0.8c0.5,0,1-2,0.6-2.4C43.4,135.2,42.4,135,42.4,135.3 M160.9,136.6
		c0,0.5,0.1,0.6,0.6,0.5c0.9-0.1,0.9-1.1,0-1.1C161,136,160.9,136.2,160.9,136.6 M155.6,138.1c0.2,1,0.1,1,0.8,1.1
		c0.3,0,0.6,0.2,0.7,0.3s0.2-0.2,0.2-0.7c0-0.8-0.1-0.9-0.5-0.9c-0.3,0-0.6-0.2-0.6-0.4C155.8,136.9,155.5,137.2,155.6,138.1
		 M148.8,138.6c0,0.5,0.1,0.6,0.6,0.6c0.5,0,0.6,0.1,0.6,1l0,1l0.2-1c0.2-1.4-0.1-2.3-0.9-2.3C148.9,138,148.8,138.1,148.8,138.6
		 M107.1,141.3c0.3,0.6,0.5,0.7,1,0.7l0.6,0l-0.7-0.1c-0.5-0.1-0.7-0.2-0.7-0.7c0-0.3-0.1-0.6-0.3-0.6
		C106.8,140.6,106.8,140.7,107.1,141.3 M156.8,142c0,1,0.2,1.5,0.6,1.5c0.2,0,0.4,0.2,0.6,0.4c0.2,0.4,0.2,0.3,0.3-0.2
		c0-0.3,0.1-0.8,0.1-1c0.1-0.4,0-0.5-0.7-0.5c-0.2,0-0.4-0.2-0.6-0.5C156.8,141.3,156.8,141.3,156.8,142 M150,143.4
		c0,0.5,0.1,0.6,0.6,0.6c0.5,0,0.6,0.1,0.6,0.7c0,0.6,0,0.6,0.2,0.1c0.4-0.9-0.1-1.9-0.8-2C150.1,142.8,150,142.9,150,143.4
		 M39,143.2c-0.5,0.5-0.2,1.5,0.5,1.3c0.8-0.2,1-1.3,0.2-1.4C39.4,143.1,39.1,143.1,39,143.2 M38.8,145.7c0,0.1,0.4,0.6,0.9,1.1
		c0.5,0.5,1.3,1.5,1.8,2.2c1.9,2.5,4.5,5.5,6.9,7.8c3.6,3.5,4,3.8,4.7,4c1.1,0.2,1.2,0.3,1.1,0.8c-0.1,0.5,0,0.5,1.5,0.4
		c1.5,0,1.7-0.1,1.7-0.5c0-0.4,0.2-0.5,1-0.6c0.6-0.1-0.2-0.2-2-0.3c-2.9-0.1-3-0.1-3.7-0.9c-2.2-2-5.1-4.8-5.4-5.1
		c-0.1-0.2-0.5-0.6-0.8-0.8c-1.1-1.1-4.4-5.3-4.4-5.4c0-0.1-0.6-0.8-1.3-1.6C39.5,145.5,38.8,145.1,38.8,145.7 M151.2,146.9
		c0,0.6,0,0.7,0.5,0.7c0.5,0,0.6,0.1,0.7,1.1c0.1,1.4,1,1.9,1.2,0.7c0.1-0.7,0-0.9-0.5-0.9c-0.3,0-0.5-0.3-0.6-1
		C152.2,146.3,151.3,145.8,151.2,146.9 M67.6,160.9c0.8,0.1,0.9,0.2,0.8,0.7c-0.1,0.6-0.1,0.6,1,0.6c1.1,0,1.1,0,1.1-0.7
		c-0.1-0.7-0.1-0.7-1.9-0.7C67.5,160.8,67.1,160.8,67.6,160.9 M73.3,162.1c0.6,0.1,0.8,0.2,0.9,0.7c0.2,0.8,1.6,0.9,1.5,0
		c0-0.8-0.4-0.9-1.9-0.9C73.1,162,72.8,162,73.3,162.1 M77.3,163.3c0.1,0.1,0.2,0.4,0.2,0.7c0,0.5,0.1,0.6,1.2,0.6
		c1.1,0,1.2,0,1.2,0.6c0,0.3,0.1,0.6,0.2,0.6c0.4,0,0.3-1.1-0.1-1.3c-0.2-0.1-0.7-0.1-1-0.1c-0.5,0-0.6-0.1-0.5-0.5
		c0.1-0.4,0-0.5-0.3-0.5c-0.2,0-0.6,0-0.8-0.1C77.3,163.2,77.2,163.2,77.3,163.3 M115.9,165.4c0,0.4,0.2,0.6,0.5,0.7
		c0.3,0.1,0.5,0.4,0.5,0.7c0.1,0.5,1.1,1.1,1.3,0.7c0.1-0.1-0.1-0.2-0.5-0.2c-0.6,0-0.6-0.1-0.6-1.2c0-1.1,0-1.2-0.6-1.2
		C116,164.8,115.9,164.9,115.9,165.4 M81.5,165.7c-1.1,0.3-0.5,1.3,0.8,1.3c1.1,0,1.2,0,1.2,0.6c0,0.5,0.1,0.6,0.6,0.6
		c0.5,0,0.6,0.1,0.6,0.6c0,0.5,0.1,0.6,0.5,0.6c0.4,0,0.5-0.1,0.4-0.4c-0.1-0.2-0.1-0.5-0.1-0.6c0-0.1-0.3-0.3-0.7-0.5
		c-0.4-0.2-0.7-0.4-0.7-0.6c0-0.2-0.3-0.4-0.6-0.5c-0.3-0.1-0.7-0.4-0.8-0.7C82.3,165.5,82.3,165.5,81.5,165.7 M118.2,168.8
		c-0.3,0.3-0.1,0.8,0.5,1.1c0.8,0.3,0.9,0.2,0.7-0.6C119.3,168.7,118.6,168.4,118.2,168.8 M86,169.9c0,0.3,0.3,0.6,0.6,0.6
		c0.4,0.1,0.5,0.2,0.5,0.7c0,0.5,0.1,0.6,1.2,0.6c1.1,0,1.2,0,1.2,0.6c0,0.5,0.1,0.6,0.6,0.6c0.5,0,0.6,0.1,0.6,0.6
		c0,0.5,0.1,0.6,0.5,0.6c0.3,0,0.4-0.1,0.3-0.2c-0.2-0.1-0.3-0.4-0.4-0.7c0-0.3-0.3-0.6-0.6-0.7c-0.3-0.1-0.5-0.4-0.5-0.5
		c0-0.2-0.3-0.4-0.6-0.5c-0.3-0.1-0.7-0.4-0.8-0.7c-0.1-0.3-0.4-0.6-0.7-0.6c-0.3,0-0.5-0.2-0.6-0.5C87,169.1,85.9,169.2,86,169.9
		 M119.5,171.3c0,0.3,0,0.6,0,0.7c0,0.1,0.3,0.3,0.6,0.3c0.6,0.2,0.6,0.1,0.5-0.6C120.6,170.8,119.5,170.4,119.5,171.3 M118.6,173.6
		c-0.8,0.2-1.7,0.4-1.9,0.6c-0.2,0.1-1.3,0.4-2.4,0.5c-1.1,0.2-2.2,0.4-2.6,0.6c-0.4,0.2-2,0.5-3.5,0.6c-1.6,0.1-4,0.4-5.4,0.6
		c-1.4,0.2-3.3,0.4-4.1,0.4c-0.9,0-1.6,0.1-1.8,0.3c-0.2,0.2-0.3,0.2-0.3-0.1c0-0.2-0.3-0.5-0.7-0.6c-0.4-0.1-0.9-0.4-1.1-0.7
		c-0.6-0.9-1.5-0.8-1.5,0.1c0,0.7,0,0.7,1.2,0.7c1.1,0,1.2,0,1.2,0.6v0.6l1.8-0.2c1-0.1,3.3-0.3,5.1-0.4c1.9-0.1,3.7-0.3,4.1-0.5
		c0.4-0.1,1.9-0.4,3.2-0.5c1.4-0.1,2.8-0.4,3.2-0.6c0.4-0.2,1.5-0.5,2.6-0.6c1.9-0.3,4.2-1.1,4.9-1.6
		C120.9,173.2,120.7,173.2,118.6,173.6 M92,174.8c0,0.4,0.1,0.6,0.5,0.6c0.4,0,0.5-0.2,0.5-0.6c0-0.4-0.1-0.6-0.5-0.6
		C92.1,174.2,92,174.4,92,174.8"/>
</g>
</svg>
