<?xml version="1.0" encoding="utf-8"?>
<!-- Generator: Adobe Illustrator 27.1.1, SVG Export Plug-In . SVG Version: 6.00 Build 0)  -->
<svg version="1.1" id="svg" xmlns="http://www.w3.org/2000/svg" xmlns:xlink="http://www.w3.org/1999/xlink" x="0px" y="0px"
	 viewBox="0 0 200 200" style="enable-background:new 0 0 200 200;" xml:space="preserve">
<style type="text/css">
	.st0{fill-rule:evenodd;clip-rule:evenodd;fill:#90D943;}
	.st1{fill-rule:evenodd;clip-rule:evenodd;fill:#94B4FB;}
	.st2{fill-rule:evenodd;clip-rule:evenodd;fill:#5B83DA;}
	.st3{fill-rule:evenodd;clip-rule:evenodd;fill:#FBFBFB;}
	.st4{fill-rule:evenodd;clip-rule:evenodd;fill:#B6E19C;}
</style>
<g id="svgg">
	<path id="path0" class="st0" d="M47,50.7c0,0.2-0.2,0.4-0.4,0.4c-0.6,0-0.9,1.1-0.9,2.9c0,1.8,1,2.3,1.4,0.6
		c0.1-0.4,0.3-0.7,0.4-0.7c1.3,0,3-3.2,1.8-3.4C47.8,50.2,47,50.3,47,50.7 M63.9,57.6c-0.3,0.3-0.9,0.8-1.4,1.2
		c-0.5,0.4-1.2,1-1.6,1.3s-0.9,0.7-1.1,0.7c-0.2,0-0.3,0.2-0.3,0.4c0,0.2-0.2,0.5-0.5,0.6c-0.6,0.3-2,1.7-2.3,2.3
		c-0.1,0.3-0.4,0.5-0.6,0.5c-0.2,0-0.4,0.2-0.5,0.5c-0.1,0.3-0.4,0.6-0.7,0.7c-0.3,0.1-0.5,0.3-0.5,0.5c0,0.2-0.6,0.9-1.3,1.6
		c-0.7,0.7-1.3,1.6-1.4,1.9c-0.1,0.4-0.3,0.8-0.5,0.8c-0.2,0.1-0.5,0.5-0.7,0.9c-0.2,0.4-0.5,0.7-0.8,0.7c-0.2,0-0.4,0.2-0.4,0.4
		c0,0.7-0.8,1.9-1.3,1.9c-0.7,0-1.3-0.3-1.1-0.5c0.2-0.3-0.5-0.3-0.9,0.1c-0.2,0.2-0.3,0.7-0.3,1.3c0,0.8-0.1,1-0.6,1
		c-0.6,0.1-0.6,0.2-0.5,2.4c0,1.7,0,2.5-0.3,3.1c-0.2,0.4-0.4,1-0.4,1.3c0,0.3-0.3,0.9-0.6,1.3c-0.4,0.5-0.6,1.2-0.7,2.1
		c-0.1,0.7-0.3,1.5-0.5,1.8c-0.2,0.2-0.5,1-0.6,1.7c-0.1,0.7-0.4,1.7-0.6,2.3c-0.3,0.6-0.5,1.7-0.6,2.5c-0.1,1.2-0.3,1.5-0.7,1.6
		c-0.3,0.1-0.5,0.4-0.5,0.8c0,0.9,2,0.8,2.4-0.1c0.2-0.5,0.5-0.6,1.4-0.6c0.9,0,1.3-0.1,1.7-0.6c0.5-0.5,0.8-0.6,2-0.6
		c1.3,0,1.4,0,1.4-0.6c0-0.6,0-0.6,1.9-0.6c1.8,0,1.9,0,2-0.6c0.1-0.4,0.3-0.6,0.8-0.7l0.7-0.1v1.9c0,1.7,0.1,2,0.6,2.5
		c0.4,0.4,0.6,0.9,0.6,1.3c0,0.6,0.1,0.7,0.6,0.7c0.5,0,0.6,0.1,0.6,0.6c0,0.4,0.2,0.6,0.6,0.7c0.5,0.1,0.6,0.3,0.7,1.3
		c0.1,1.1,0.1,1.2,0.7,1.2c0.5,0,0.6,0.1,0.6,0.6c0,0.5,0.1,0.6,0.6,0.6c0.5,0,0.6,0.1,0.6,0.6c0,0.4,0.2,0.6,0.6,0.7
		c0.5,0.1,0.6,0.3,0.7,1.3c0.1,0.9,0.2,1.4,0.7,1.8c0.8,0.7,0.8,1.9,0.1,2.2c-0.3,0.1-0.6,0.5-0.6,0.8c-0.1,0.5-0.3,0.6-1.9,0.5
		c-1.7-0.1-1.8,0-2.3,0.6c-0.4,0.5-0.8,0.7-1.4,0.7c-0.8,0-0.9,0.1-0.9,0.6c0,0.5-0.1,0.6-0.6,0.6c-0.5,0-0.6,0.1-0.6,0.6
		c0,0.3-0.3,0.9-0.6,1.3c-0.4,0.4-0.6,0.9-0.6,1.3c0,0.5-0.1,0.6-0.6,0.6c-0.6,0-0.6,0.1-0.6,1.3s0,1.3-0.6,1.3
		c-0.6,0-0.6,0.1-0.6,0.9c0,0.6-0.2,1-0.6,1.4c-0.4,0.3-0.6,0.7-0.6,1c0,0.3-0.2,0.5-0.6,0.6c-0.5,0.1-0.6,0.3-0.7,1.3
		c-0.1,1.1-0.1,1.2-0.7,1.2c-0.5,0-0.6,0.1-0.6,0.6c0,0.5-0.1,0.6-0.6,0.6c-0.5,0-0.6,0.1-0.6,0.6c0,0.4-0.2,0.7-0.6,0.8
		c-0.9,0.4-1,2.3-0.1,2.6c0.9,0.3,1.4,0.9,1.6,1.9c0.1,0.5,0.4,1.2,0.6,1.4c0.3,0.2,0.6,0.8,0.6,1.2c0.1,0.4,0.3,0.7,0.4,0.7
		c0.1,0,0.5,0.5,0.7,1.1c0.3,0.6,0.7,1.3,0.9,1.4c0.2,0.2,0.4,0.5,0.4,0.6c0,0.2,0.3,0.7,0.8,1.2c0.4,0.5,0.8,1.1,0.8,1.3
		c0,0.3,0.2,0.5,0.4,0.5c0.2,0,0.5,0.3,0.7,0.7c0.2,0.4,0.5,0.9,0.8,1.2c2.5,2.7,3.2,3.5,3.2,3.8c0,0.2,0.1,0.4,0.3,0.4
		c0.2,0,1,0.7,1.9,1.6c0.9,0.9,2,2,2.5,2.3c0.5,0.4,1.4,1.1,2,1.7c0.6,0.5,1.1,1,1.2,1c0.3,0,1.3-2.5,1.5-3.8c0.1-0.7,0.5-1.6,0.8-2
		c0.3-0.4,0.5-1,0.5-1.3c0-0.4,0.3-1.2,0.6-1.9s0.6-1.5,0.6-1.8c0-0.3,0.3-0.9,0.6-1.4c0.4-0.5,0.6-1.1,0.6-1.4
		c0-0.3,0.2-0.8,0.5-1.2c0.3-0.4,0.6-1.1,0.7-1.7c0.1-0.6,0.4-1.3,0.6-1.5c0.4-0.5,2.2-4.2,2.2-4.6c0-0.1,0.2-0.4,0.4-0.6
		c0.2-0.2,0.4-0.6,0.5-1.1c0.1-0.4,0.4-1,0.6-1.2c0.2-0.2,0.6-0.9,0.8-1.4c0.2-0.5,0.5-1,0.7-1.1c0.2-0.1,0.4-0.6,0.5-1.1
		c0.1-0.5,0.4-1.3,0.6-1.6c0.3-0.3,0.6-1,0.9-1.5c0.2-0.5,0.5-1,0.7-1c0.1,0,0.3-0.1,0.3-0.3c0-0.2,0.3-1,0.8-1.9
		c0.4-0.8,0.8-1.7,0.8-1.8c0-0.2,0.2-0.4,0.4-0.6c0.2-0.2,0.6-0.8,0.9-1.4c0.3-0.6,0.7-1.3,0.9-1.7c0.2-0.4,0.4-0.8,0.4-1
		c0-0.2,0.3-0.8,0.6-1.3c0.4-0.5,0.6-1,0.6-1.1c0-0.2,0.3-0.7,0.6-1.1c0.4-0.5,0.6-1.1,0.6-1.3c0-0.2,0.2-0.7,0.5-1
		c0.3-0.3,0.6-1,0.8-1.5c0.2-0.5,0.5-1.1,0.8-1.4c0.3-0.2,0.5-0.6,0.5-0.9c0-0.2,0.3-0.8,0.6-1.3c0.4-0.5,0.6-1.1,0.6-1.4
		s0.3-0.9,0.6-1.4c0.4-0.5,0.6-1,0.6-1.2c0-0.2,0.2-0.6,0.5-0.9c0.6-0.8,0.6-1.4,0.1-2.2c-0.2-0.3-0.5-1-0.6-1.6
		c-0.1-0.6-0.4-1.3-0.7-1.7c-0.3-0.4-0.6-1.2-0.6-1.8c-0.1-0.6-0.3-1.3-0.5-1.5c-0.2-0.2-0.5-0.9-0.6-1.5c-0.2-0.6-0.5-1.3-0.8-1.6
		c-0.3-0.3-0.5-0.9-0.6-1.5c-0.1-0.6-0.3-1.2-0.5-1.3c-0.2-0.2-0.5-0.9-0.7-1.6c-0.2-0.7-0.5-1.3-0.6-1.4c-0.2-0.1-0.5-0.6-0.6-1.1
		c-0.2-0.5-0.5-1.2-0.8-1.5c-0.3-0.3-0.5-0.8-0.5-1c0-0.2-0.1-0.7-0.3-1c-0.2-0.3-0.6-1-1-1.6c-1.5-2.6-2-3.5-2.4-4.3
		c-0.2-0.5-0.6-1.1-0.8-1.3c-0.7-0.8-1.9-2.4-2-2.8c-0.1-0.4-3-3.6-3.9-4.4c-0.1-0.1-0.5-0.5-0.9-0.8c-0.3-0.3-0.8-0.7-1.1-0.7
		c-0.2-0.1-0.5-0.4-0.6-0.6c-0.1-0.3-0.4-0.5-0.8-0.6c-0.4-0.1-1-0.4-1.4-0.7C65.6,56.8,64.9,56.6,63.9,57.6 M95.2,112.4
		c0,0.7-0.7,2-1,2c-0.1,0-0.2,0.2-0.3,0.4c0,0.8-0.5,2.3-0.9,2.7c-0.2,0.2-0.4,0.7-0.5,1.1c-0.1,0.4-0.4,1.1-0.6,1.4
		c-0.2,0.3-0.6,1.1-0.8,1.7c-0.2,0.6-0.5,1.2-0.7,1.2c-0.2,0.1-0.4,0.7-0.5,1.4c-0.1,0.7-0.4,1.5-0.6,1.8s-0.6,1-0.7,1.4
		c-0.1,0.4-0.4,1.1-0.6,1.4c-0.3,0.3-0.5,1.1-0.6,1.8c-0.1,0.7-0.4,1.5-0.6,1.8c-0.2,0.3-0.5,1-0.6,1.5c-0.1,0.5-0.4,1.2-0.6,1.5
		c-0.3,0.3-0.6,1.1-0.7,1.6c-0.1,0.6-0.4,1.3-0.6,1.7c-0.2,0.4-0.5,1.3-0.6,2c-0.2,1.4-0.6,2.6-0.9,2.6c-0.1,0-0.3,0.6-0.4,1.3
		c-0.1,0.7-0.4,1.7-0.7,2.2c-0.3,0.5-0.6,1.7-0.8,3.4c-0.1,1.4-0.4,2.9-0.7,3.4c-0.3,0.7-0.4,1.8-0.3,6.4l0.1,5.6l1.3,0.3
		c0.7,0.2,1.5,0.4,1.8,0.6c0.3,0.2,1.3,0.4,2.3,0.6s2,0.4,2.3,0.6c0.3,0.2,1.8,0.5,3.4,0.6c1.6,0.1,3.5,0.4,4.3,0.6
		c2,0.5,8.9,0.5,10.9,0c0.8-0.2,2.7-0.5,4.3-0.6c1.8-0.2,3.1-0.4,3.5-0.7c0.3-0.2,1.4-0.5,2.3-0.5c1.6-0.1,1.7-0.1,1.7-0.9
		c0-0.6-0.1-0.7-0.6-0.7c-0.6,0-0.6-0.1-0.7-1.2c-0.1-1-0.2-1.2-0.7-1.3c-0.4-0.1-0.6-0.3-0.6-0.7c0-0.5-0.1-0.6-0.6-0.6
		c-0.6,0-0.6-0.1-0.6-1.1c0-1-0.1-1.2-0.6-1.3c-0.5-0.1-0.6-0.3-0.6-0.8c0-0.5-0.1-0.6-0.6-0.6c-0.5,0-0.6-0.1-0.6-0.5
		c0-0.3-0.3-0.8-0.6-1c-0.4-0.3-0.6-0.6-0.6-0.8c0-0.1,0.3-0.5,0.6-0.8c0.9-0.7,0.9-2.5,0.1-2.5c-0.9,0-2.5-1.8-2.8-3.1
		c-0.1-0.6-0.4-1.3-0.6-1.5c-0.2-0.2-0.5-0.9-0.6-1.5c-0.2-0.6-0.5-1.4-0.8-1.8c-0.3-0.3-0.5-0.9-0.5-1.2c0-0.3-0.2-1-0.5-1.5
		c-0.3-0.5-0.6-1.4-0.7-2c-0.1-0.6-0.4-1.4-0.6-1.9c-0.3-0.4-0.6-1.3-0.8-2c-0.2-0.7-0.5-1.5-0.7-1.8c-0.2-0.3-0.5-1.3-0.6-2.2
		c-0.1-0.9-0.5-2-0.7-2.5c-0.3-0.5-0.6-1.4-0.7-2.1c-0.1-0.7-0.3-1.4-0.5-1.6c-0.2-0.2-0.4-0.8-0.5-1.3c-0.1-0.5-0.3-1.5-0.5-2.1
		c-0.2-0.6-0.6-2.1-0.8-3.2c-0.2-1.1-0.5-2.1-0.6-2.2c-0.3-0.2-0.7-1.3-0.9-2.7C96.6,112.8,95.2,111.2,95.2,112.4 M36.7,149.7
		c0,0.3-0.3,0.9-0.6,1.3c-0.4,0.4-0.6,0.9-0.6,1.2c0,0.4-0.2,0.7-0.6,0.8c-0.4,0.2-0.6,0.5-0.7,1.3c-0.1,0.8-0.2,1.1-0.6,1.3
		c-0.4,0.2-0.6,0.5-0.6,1.3c-0.1,0.8-0.2,1.1-0.6,1.3c-0.8,0.4-0.8,2,0,2.1c0.4,0.1,0.6,0.3,0.6,0.7c0,0.5,0.1,0.6,0.7,0.6
		c0.4,0,1,0.3,1.3,0.6c0.3,0.3,0.8,0.6,1.2,0.6c0.3,0,0.7,0.2,0.8,0.6c0.2,0.5,0.5,0.6,2,0.6c1.5,0.1,1.7,0.1,1.8,0.6
		c0.1,0.5,0.2,0.6,2.5,0.6c2.3,0.1,2.4,0.1,2.6,0.7l0.2,0.6H50H54v-0.6c0-0.5-0.1-0.6-0.5-0.6c-0.6,0-1.3-0.4-2.1-1.1
		c-4.9-4.7-8-7.9-10.6-11.5c-0.6-0.7-1.4-1.8-1.9-2.3c-0.5-0.5-0.9-1.1-0.9-1.2c0-0.1-0.3-0.3-0.6-0.3
		C36.9,149.1,36.7,149.2,36.7,149.7 M124.3,178.8c-0.7,0.6-3.1,1.4-5.2,1.7c-1.1,0.2-2.3,0.4-2.7,0.6c-0.4,0.2-1.9,0.5-3.3,0.6
		c-1.4,0.1-3.2,0.4-4.1,0.6c-0.8,0.2-3.1,0.4-5.1,0.5c-4.4,0.2-4.7,0.3-4.7,1.1c0,0.5,0.1,0.6,0.6,0.6c0.4,0,0.7,0.2,0.8,0.6
		c0.2,0.4,0.5,0.6,1.3,0.7c1,0.1,1.1,0.2,1.1,0.7c0,0.6,0.1,0.6,1.2,0.6c1.1,0,1.3,0.1,1.4,0.6c0.1,0.6,0.3,0.6,1.4,0.6
		c1,0,1.3,0.1,1.8,0.6c0.6,0.6,0.8,0.6,3.1,0.6c2.4,0,2.5,0,2.8,0.6l0.3,0.6h6.5c5.8,0,6.6,0,7-0.4c0.6-0.5,0.7-1.9,0.1-2.4
		c-0.3-0.2-0.4-0.8-0.4-1.7c0-1.2-0.1-1.5-0.6-1.9c-0.5-0.4-0.6-0.7-0.6-1.8c0-1.1-0.1-1.3-0.6-1.6c-0.6-0.3-0.6-0.5-0.6-1.5
		C125.8,178.4,125.2,178,124.3,178.8 M96.8,182.3c0.1,0.2,0.3,0.3,0.5,0.4c0.4,0.1,0.4,0,0.1-0.3C97.1,182,96.6,181.9,96.8,182.3"/>
	<path id="path1" class="st1" d="M57.4,32.5c0,0.5,0.4,0.7,0.6,0.2c0.1-0.2,0.3-0.1,0.6,0.1c0.2,0.2,1.2,0.6,2.1,0.8
		c0.9,0.2,1.8,0.6,2,0.8c0.2,0.2,0.8,0.5,1.3,0.6s1.2,0.5,1.5,0.8c0.3,0.3,0.8,0.5,1,0.5c0.2,0,0.9,0.3,1.4,0.8
		c0.5,0.4,1.1,0.8,1.3,0.8c0.2,0,0.3,0.1,0.3,0.2c0,0.7,2.2,0.7,2.7,0c0.1-0.1,0.4-0.3,0.6-0.3c0.2,0,1-0.3,1.7-0.6
		c0.7-0.4,1.9-0.7,2.8-0.9c0.8-0.1,1.8-0.4,2.1-0.6c0.3-0.2,1.3-0.5,2.2-0.7c0.9-0.2,1.9-0.5,2.3-0.6c0.4-0.2,2-0.5,3.6-0.6
		c1.6-0.2,3.7-0.5,4.7-0.7c2.3-0.5,15.3-0.6,16.7-0.1c0.5,0.2,2.5,0.5,4.5,0.7c2,0.2,4,0.5,4.3,0.7c0.4,0.2,1.4,0.5,2.3,0.7
		c0.9,0.2,1.9,0.4,2.2,0.6c0.3,0.2,1.3,0.5,2.2,0.6c0.9,0.2,2,0.5,2.4,0.8c0.4,0.3,1,0.5,1.1,0.5c0.2,0,1,0.3,1.9,0.7
		c0.9,0.4,2.3,1,3.1,1.4c0.8,0.4,1.7,0.8,1.9,0.9c2.7,1.6,4.6,2.3,5,1.8c0.1-0.1-0.2-0.3-0.6-0.3c-0.5,0-0.9-0.2-1.2-0.6
		c-0.2-0.3-0.8-0.7-1.2-0.8c-0.4-0.1-0.8-0.3-0.9-0.4c-0.2-0.3-3.5-1.9-4.5-2.2c-0.4-0.1-0.8-0.3-1-0.5c-0.2-0.2-0.9-0.4-1.5-0.6
		c-0.6-0.1-1.4-0.5-1.8-0.8c-0.4-0.3-1.1-0.5-1.6-0.5c-0.5,0-1.4-0.2-1.9-0.5c-0.5-0.3-1.7-0.6-2.5-0.8c-0.8-0.2-1.8-0.4-2.1-0.6
		c-0.3-0.2-1.5-0.5-2.6-0.6c-1.1-0.1-2.4-0.4-2.7-0.5c-2.6-1-21.9-1-25.9,0c-1.2,0.3-2.6,0.5-3.1,0.5c-0.5,0-1.4,0.2-2,0.5
		c-0.6,0.3-1.7,0.6-2.5,0.8c-0.8,0.1-1.7,0.4-2,0.6c-0.3,0.2-1.3,0.5-2.2,0.6c-0.9,0.1-1.8,0.4-2,0.6c-0.2,0.2-0.8,0.5-1.2,0.6
		c-0.4,0.1-1.1,0.3-1.4,0.5c-0.7,0.3-2.4-0.3-3.5-1.2c-0.3-0.2-0.9-0.5-1.4-0.7c-0.5-0.2-1-0.4-1-0.5s-0.4-0.4-1-0.5
		c-0.5-0.2-1.2-0.5-1.6-0.8c-0.3-0.3-0.8-0.5-1-0.5s-1-0.3-1.9-0.6C58.6,31.8,57.4,31.8,57.4,32.5 M94.4,45.2
		c-3.1,0.4-8.8,1.5-10.2,1.9c-2.5,0.9-2.6,1-1.8,1.9c0.3,0.3,0.7,0.9,0.9,1.4c0.2,0.5,0.9,1.3,1.4,1.8c0.5,0.6,1,1.2,1.2,1.4
		c0.2,0.4,0.7,1.1,2.9,4.5c0.5,0.7,0.9,1.5,1,1.9c0.1,0.3,0.4,1,0.7,1.4c0.6,0.9,2,3.7,3.6,7.2c0.5,1.1,1.2,2.5,1.4,3
		c0.3,0.5,0.5,1.2,0.5,1.5c0,0.3,0.2,1,0.5,1.6c1.1,2.4,3.3,8.6,3.3,9.4c0,0.1,0.3,1,0.6,1.8c1.1,2.9,2,5.7,2,6.2
		c0,0.3,0.3,1.5,0.7,2.7c1.3,4.1,1.9,6.2,2.3,7.9c1.1,4.3,2.2,8.1,3,9.6c0.2,0.4,0.4,1.2,0.5,1.8c0.1,0.6,0.3,1.4,0.5,1.8
		c0.5,0.9,1.5,3.4,2.6,6.5c0.5,1.4,1.1,3,1.4,3.4c1.6,3.1,2.2,5,1.8,5.8c-0.2,0.4,0,0.4,3.5,0.4l3.7,0l0.2,0.6
		c0.1,0.6,0.3,0.6,1.4,0.6c1.2,0,1.3,0,1.3,0.7c0.1,0.7,0.1,0.7,0.8,0.5c0.4-0.1,2.4-0.2,4.4-0.2c3.6,0,3.8-0.1,4.2-0.6
		c0.3-0.4,0.6-0.5,1-0.4c0.6,0.2,1.4-0.4,1.4-1.1c0-0.2,0.3-0.5,0.6-0.8c1-0.6,1-6,0-6.9c-0.4-0.3-0.7-0.9-0.8-1.4
		c-0.1-0.4-0.4-0.9-0.6-1c-1.2-0.6-0.8-3.5,0.5-3.6c0.4,0,0.7-0.2,0.7-0.4c0-0.2,0-0.5,0.1-0.8c0-0.3,0.3-0.6,0.8-0.8
		c0.4-0.1,0.9-0.6,1.1-0.9c0.3-0.7,0.6-0.8,1.6-0.4c0.5,0.2,1,0.2,2.3,0c1.9-0.3,2.6-0.1,2.7,0.8c0.1,0.4,0.3,0.6,0.9,0.7
		c0.7,0.1,0.8,0.2,0.8,0.7c0,0.3,0.1,0.6,0.3,0.6c0.7,0,1,0.6,0.5,0.9c-0.4,0.3-0.4,0.3,0,0.2c0.2-0.1,0.5,0,0.6,0.1
		c0.1,0.1,0.3,0.2,0.5,0.1c0.6-0.2,1.3,1,1,1.9c-0.3,1.1-0.3,1.2,0.4,1.3c0.8,0.2,1.1,1.3,0.8,2.4c-0.5,1.5,0.1,9.1,0.7,9.5
		c0.3,0.2,0.5,0.6,0.5,1c0,0.4,0.3,0.8,0.7,1c0.6,0.4,0.6,0.5,0.5,1.5c-0.1,0.8-0.1,0.9,0.1,0.6c0.2-0.2,0.4-0.4,0.7-0.4
		c0.4,0,1-1.3,3.2-6.1c0.8-1.7,1.7-2.6,1.7-1.6c0,0.7,0.3-0.1,0.4-1.1c0.1-1,0.1-1-0.8-1c-0.5,0-0.9-0.1-0.9-0.3
		c0-0.1-0.3-0.4-0.6-0.6c-0.7-0.3-0.9-1.2-0.4-1.7c0.4-0.4,0.1-0.8-0.7-0.8c-1,0-1.2-0.6-1-2.4c0.2-1.5,0.1-1.7-0.3-1.8
		c-0.6-0.2-0.8-0.6-0.9-1.2c0-0.3-0.3-0.7-0.7-1.1c-0.6-0.5-0.7-0.6-0.4-1.2c0.4-0.8,0.2-1.2-0.5-1.2c-0.8,0-1.3-0.3-1.5-0.9
		c-0.1-0.3-0.5-0.7-0.9-0.8c-0.4-0.1-0.8-0.3-0.9-0.5c-0.1-0.2-0.6-0.4-1-0.6c-0.7-0.2-0.9-0.4-0.9-1c-0.1-0.8-0.3-0.8-3.2-0.4
		c-2.4,0.4-3.3,0.1-3.3-0.9c0-0.6-0.1-0.6-1-0.7c-0.9,0-0.9,0-0.1-0.1l0.8-0.1v-2.2v-2.2h-0.7c-1,0-1.3-0.4-1.1-1.3
		c0.3-0.9,0.1-1.4-0.5-1.6c-0.4-0.1-0.5-0.4-0.5-1.1c0-0.9,0.2-1.1,1.1-1.2c0.1,0,0.3-0.1,0.4-0.3c0.1-0.1,1.4-0.3,2.8-0.3l2.7-0.1
		l0.1,0.7c0.1,1,3.4,1.1,3.4,0.1c0-0.6,1.3-1.4,2.1-1.3c0.4,0.1,0.4-0.1,0.4-1.1c-0.1-1.1-0.2-1.2-0.7-1.3c-0.9-0.1-1.1-0.4-1.1-1.5
		c0.1-0.8,0-1-0.6-1.3c-0.6-0.3-0.7-0.4-0.5-1.2c0.2-0.8,0.1-0.9-0.4-0.9c-0.8,0-1.3-0.8-0.9-1.6c0.5-1,0.4-1.4-0.3-1.3
		c-0.9,0.2-1.4-0.3-1.1-1.2c0.2-0.8,0.1-1.2-0.6-1.3c-0.4-0.1-0.5-0.3-0.6-1.3c-0.1-0.9-0.2-1.2-0.6-1.4c-0.4-0.2-0.6-0.5-0.6-1.2
		c-0.1-0.7-0.2-1-0.7-1.2c-0.3-0.1-0.7-0.6-0.9-1c-0.2-0.4-0.5-0.7-0.7-0.7c-0.2,0-0.4-0.2-0.5-0.5c-0.1-0.3-0.5-0.6-0.9-0.7
		c-0.4-0.1-1.1-0.4-1.4-0.7c-0.3-0.3-0.8-0.7-1.1-0.8c-0.8-0.5-0.7-2.7,0.2-3.1c0.5-0.2,0.7-0.6,0.8-1.2c0.3-1.6,6.8-1.9,7-0.4
		c0.1,0.8,0.7,0.9,4.1,0.4c2.3-0.3,3.4,0,3.4,0.9c0,0.4,0.1,0.6,0.4,0.6c0.9,0,0.3-1.8-1.3-3.9c-4.9-6.1-6.8-8.2-10.3-11.1
		c-3.3-2.8-5.8-4.7-6.1-4.7c-0.1,0-0.9-0.5-1.8-1.1c-2.1-1.4-9.3-5-10.4-5.2c-0.5-0.1-1.4-0.4-1.9-0.6
		C116.1,45.9,102,44.2,94.4,45.2 M170.9,133.3c0.1,0.5-0.1,1.1-0.5,2c-0.4,0.7-0.7,1.4-0.7,1.7c0,0.2-0.3,0.8-0.8,1.3
		c-0.4,0.5-0.8,1.2-0.8,1.6c0,0.4-0.1,0.6-0.3,0.5c-0.1-0.1-0.5,0-0.7,0.1c-0.4,0.2-0.3,0.3,0.3,0.3c1.1,0,2.6-1.8,2.8-3.3
		c0.1-0.7,0.3-1.3,0.5-1.3c0.5-0.2,1-1.8,0.8-2.6C171.4,132.5,170.7,132.4,170.9,133.3 M163.1,148.9c-0.3,0.6-1,1.7-1.6,2.3
		c-0.6,0.7-1,1.3-1,1.4c0,0.1-0.3,0.2-0.6,0.2c-0.4,0-0.6,0.1-0.7,0.5c-0.3,2.2,4.4-2.4,4.7-4.6
		C164.2,147.5,163.8,147.6,163.1,148.9"/>
	<path id="path2" class="st2" d="M110.4,9.5c-0.6,0.4-1.1,0.5-4.6,0.6c-3.9,0.1-3.9,0.1-4,0.6c-0.1,0.5-0.2,0.6-1.3,0.6
		c-1.2,0-1.3,0-1.3,0.6c0,0.6-0.1,0.6-1.9,0.7c-1.7,0.1-1.9,0.1-1.9,0.6c-0.1,0.4-0.3,0.6-0.7,0.6c-0.5,0-0.6,0.1-0.6,0.7l0,0.7
		l-0.2-0.6c-0.3-0.9-4.3-1-4.7-0.1c-0.2,0.4-0.5,0.6-0.9,0.6c-0.5,0-0.7-0.1-0.8-0.6c-0.1-0.6-0.1-0.6-5.6-0.6l-5.6-0.1l-0.6,0.6
		c-0.5,0.5-0.9,0.6-2.1,0.6c-1.4,0-2.3,0.4-2.3,1c0,0.1-0.5,0.3-1.2,0.3c-1,0.1-1.2,0.2-1.3,0.7c-0.1,0.4-0.3,0.6-0.7,0.6
		c-0.5,0-0.6,0.1-0.6,0.8c0,0.4-0.2,1.1-0.5,1.4c-0.7,0.8-0.7,1.8,0,2.2c0.9,0.5,0.6,0.7-1.3,0.8c-1.7,0.1-1.9,0.1-1.9,0.6
		c-0.1,0.5-0.2,0.6-1.3,0.6H61v1.8c0,1.8,0,1.8,0.7,1.8c0.4,0,0.1,0.1-0.6,0.2c-1.1,0.1-1.3,0.2-1.4,0.7c-0.1,0.4-0.3,0.6-0.7,0.6
		c-0.5,0-0.6,0.1-0.6,0.6c0,0.5-0.1,0.6-0.6,0.6s-0.6,0.1-0.6,0.6c0,0.5-0.1,0.6-0.6,0.6c-0.5,0-0.6,0.2-0.7,0.7
		c-0.1,0.9,1.2,0.9,1.4,0c0.2-0.7,1.4-0.6,3.2,0.2c0.8,0.4,1.7,0.6,1.9,0.6s0.6,0.2,1,0.5c0.3,0.3,1,0.6,1.6,0.8
		c0.5,0.2,1,0.4,1,0.5s0.4,0.4,1,0.5c0.5,0.2,1.2,0.5,1.4,0.7c1.1,0.9,2.8,1.5,3.5,1.2c0.4-0.2,1-0.4,1.4-0.5c0.4-0.1,1-0.4,1.2-0.6
		c0.2-0.2,1.1-0.5,2-0.6c0.9-0.1,1.8-0.4,2.2-0.6c0.3-0.2,1.2-0.5,2-0.6c0.8-0.1,1.9-0.5,2.5-0.8c0.6-0.3,1.5-0.5,2-0.5
		c0.5,0,1.9-0.3,3.1-0.5c4-1,23.3-1,25.9,0c0.3,0.1,1.6,0.4,2.7,0.5c1.1,0.1,2.3,0.4,2.6,0.6c0.3,0.2,1.2,0.5,2.1,0.6
		c0.8,0.2,2,0.5,2.5,0.8c0.5,0.3,1.4,0.5,1.9,0.5c0.6,0,1.2,0.2,1.6,0.5c0.4,0.3,1.2,0.6,1.8,0.8c0.6,0.1,1.2,0.4,1.5,0.6
		c0.2,0.2,0.7,0.4,1,0.5c1,0.3,4.3,1.9,4.5,2.2c0.1,0.1,0.5,0.3,0.9,0.4c0.4,0.1,1,0.4,1.2,0.8c0.5,0.8,1.9,0.9,1.9,0.1
		c0-1.1-0.4-2.1-0.8-2.3c-0.3-0.1-0.5-0.4-0.5-1c0-1.1-0.2-1.6-0.7-1.6c-0.3,0-0.5-0.3-0.7-1.1c-0.2-0.7-0.4-1.2-0.8-1.3
		c-0.4-0.2-0.6-0.5-0.6-0.8c0-0.4-0.1-0.6-0.6-0.6c-0.5,0-0.6-0.1-0.6-0.6c0-0.5-0.1-0.6-0.6-0.6c-0.5,0-0.6-0.1-0.6-0.6
		c0-0.5-0.1-0.6-0.6-0.6c-0.5,0-0.6-0.1-0.6-0.6c0-0.5-0.1-0.6-0.6-0.6c-0.5,0-0.6-0.1-0.6-0.6c0-0.5-0.1-0.6-0.6-0.6
		c-0.5,0-0.6-0.1-0.6-0.6c0-0.5-0.1-0.6-0.6-0.6c-0.5,0-0.6-0.1-0.6-0.6c0-0.6-0.1-0.6-1.3-0.6c-1.2,0-1.3,0-1.3-0.6
		c0-0.5-0.2-0.6-0.7-0.7l-0.7-0.1l0.7,0l0.7,0v-2.4V19h-5.7h-5.7v-0.8c0-0.7,0-0.8,1.3-0.8h1.3v-1.3c0-1.1,0.1-1.3,0.6-1.3
		c0.5-0.1,0.6-0.2,0.6-1.1c0-0.9-0.1-1-0.6-1.1c-0.5-0.1-0.6-0.2-0.6-1.3V10h-2c-1.7,0-2-0.1-2.3-0.5C112.2,8.9,111.3,8.9,110.4,9.5
		 M109.8,14.7c0.2,0.4,0,0.4-2.3,0.4l-2.5,0l1.9-0.1c1.7-0.1,1.9-0.2,2.2-0.7c0.1-0.3,0.3-0.4,0.4-0.3
		C109.5,14.1,109.7,14.4,109.8,14.7 M54.7,33.2c0.1,0.2,0.2,0.3,0.3,0.3c0.3,0,0.2-0.4-0.1-0.5C54.7,33,54.6,33.1,54.7,33.2
		 M54,34.2c-0.5,0.1-0.7,0.2-0.7,0.7c0,0.5-0.1,0.6-0.6,0.6c-0.5,0-0.6,0.1-0.6,0.6c0,0.4-0.2,0.6-0.6,0.7c-0.9,0.1-1,1.2-0.1,1.2
		c0.5,0,0.7-0.1,0.7-0.6c0-0.5,0.1-0.6,0.6-0.6c0.5,0,0.6-0.1,0.6-0.6c0-0.5,0.1-0.6,0.6-0.6c0.5,0,0.6-0.2,0.7-0.8
		c0.1-0.4,0.1-0.7,0.1-0.7S54.4,34.1,54,34.2 M49.5,40c0,0.5,0.1,0.6,0.6,0.6c0.5,0,0.6-0.1,0.6-0.6c0-0.5-0.1-0.6-0.6-0.6
		C49.6,39.4,49.5,39.5,49.5,40 M48.2,42.7c0,0.6,0.1,0.7,0.6,0.7c0.9-0.1,0.9-1.4,0-1.4C48.3,41.9,48.2,42,48.2,42.7 M140.1,43.6
		c0,0.2,0,0.5-0.1,0.6c0,0.1,0,0.2,0.1,0.2c0.1,0,0.4,0.1,0.7,0.3c0.6,0.3,0.8-0.1,0.4-1.1C141,43.1,140.1,43.1,140.1,43.6 M47,46
		c0,1.5,0,1.5,0.6,1.5c0.6,0,0.6-0.1,0.6-1.5c0-1.5,0-1.5-0.6-1.5C47,44.5,47,44.5,47,46 M141.3,47.6c-0.2,0.7,0,1,0.8,1
		c0.5,0,0.6-0.1,0.5-0.4c-0.1-0.2-0.2-0.6-0.2-0.8C142.4,46.8,141.5,47,141.3,47.6 M142.7,50.7c0,0.2-0.1,0.6-0.2,0.9
		c-0.1,0.5-0.1,0.6,0.6,0.6c1,0,1.1-0.8,0.2-1.4C142.8,50.4,142.7,50.4,142.7,50.7 M45.7,51.6c0,0.6,0,0.6,0.2,0.2
		c0.1-0.3,0.4-0.6,0.7-0.7c0.4-0.2,0.4-0.2-0.2-0.2C45.8,50.9,45.7,51,45.7,51.6 M143.9,53.6c-0.5,0.5-0.2,1.1,0.6,1.1
		c0.7,0,0.8,0.1,0.6,0.6c-0.1,0.6-0.1,0.6,0.5,0.6c0.5,0,0.6,0.1,0.6,0.6c0,0.5,0.1,0.6,0.6,0.6c0.5,0,0.6,0.1,0.6,0.6
		c0,0.5,0.1,0.6,0.6,0.6c0.5,0,0.6,0.1,0.6,0.6c0,0.5,0.2,0.6,0.7,0.7c0.5,0.1,0.7,0.2,0.8,0.7c0.1,0.4,0.3,0.6,0.7,0.6
		c0.8,0,0.8-1.1-0.1-1.2c-0.3,0-0.6-0.3-0.7-0.7c-0.1-0.4-0.4-0.6-0.7-0.7c-0.4-0.1-0.6-0.3-0.7-0.7c-0.1-0.4-0.3-0.6-0.7-0.6
		c-0.4,0-0.6-0.2-0.7-0.5c-0.1-0.3-0.4-0.6-0.7-0.7c-0.3-0.1-0.5-0.3-0.5-0.5c0-0.2-0.2-0.5-0.5-0.7c-0.3-0.2-0.5-0.6-0.6-0.8
		C145.1,53.5,144.2,53.2,143.9,53.6 M45.7,62.1c0.1,2.3,0.1,2.4,0.7,2.5c0.6,0.1,0.6,0.1,0.5-2.3c-0.1-2.3-0.1-2.4-0.7-2.5
		C45.7,59.8,45.7,59.8,45.7,62.1 M161.5,70.6c0,0.5,0.1,0.6,0.6,0.6c0.6,0,0.6,0,0.6,1.8v1.8l0.7-0.1c1.1-0.1,1.2-3.5,0.1-3.5
		c-0.3,0-0.6-0.2-0.7-0.6c-0.1-0.5-0.3-0.6-0.8-0.6C161.7,70,161.5,70.1,161.5,70.6 M140.4,72.1c-1.8,0.3-1.8,0.3-2,1.1
		c-0.1,0.6-0.4,1-0.8,1.2c-0.9,0.4-1,2.6-0.2,3.1c0.3,0.1,0.7,0.5,1.1,0.8c0.3,0.3,0.9,0.6,1.4,0.7c0.5,0.1,0.9,0.4,0.9,0.7
		c0.1,0.3,0.3,0.5,0.5,0.5c0.2,0,0.5,0.3,0.7,0.7c0.2,0.4,0.5,0.9,0.9,1c0.4,0.2,0.6,0.5,0.7,1.2c0.1,0.7,0.2,1,0.6,1.2
		c0.4,0.2,0.6,0.5,0.6,1.4c0.1,0.9,0.2,1.2,0.6,1.3c0.7,0.1,0.9,0.5,0.6,1.3c-0.2,0.8,0,1.1,1.1,1.3c0.7,0.1,0.7,0.1,0.6-1.2
		c-0.1-1.5-0.3-1.9-0.8-1.9c-0.2,0-0.4-0.5-0.5-1.3c-0.1-1-0.3-1.3-0.6-1.3c-0.4,0-0.5-0.3-0.6-1.3c-0.1-1-0.3-1.3-0.6-1.3
		c-0.3,0-0.5-0.2-0.6-0.6c-0.1-0.5-0.3-0.6-0.8-0.6c-0.4,0-0.6-0.2-0.7-0.6c-0.1-0.4-0.3-0.6-0.6-0.7c-0.3,0-0.6-0.3-0.6-0.6
		c-0.1-0.4-0.3-0.6-0.7-0.6c-0.3,0-0.6-0.2-0.6-0.4c0-0.2-0.2-0.5-0.5-0.7c-0.7-0.4-0.7-1.7,0-1.7c0.3,0,0.5-0.2,0.6-0.6
		c0.1-0.5,0.2-0.6,2.8-0.6c2.7-0.1,2.7-0.1,2.7-0.7c0-0.4-0.1-0.7-0.3-0.7C144.3,71.9,142.1,71.9,140.4,72.1 M148.9,73.4
		c-2.7,0.3-2.6,0.3-2,0.9c0.9,0.9,5.9,0.9,5.9,0c0-0.6-1.1-1.2-1.9-1.1C150.8,73.1,149.9,73.2,148.9,73.4 M43.4,78
		c-0.5,0.5-0.3,1,0.3,1c0.5,0,0.6-0.1,0.6-0.6C44.4,77.6,43.9,77.5,43.4,78 M41.9,80.8c0,0.4-0.2,0.7-0.6,0.8
		c-0.9,0.4-1,2.4-0.1,2.4c0.6,0,0.7-0.1,0.7-1.3c0-1.2,0-1.3,0.6-1.3c0.5,0,0.6-0.1,0.6-0.6s-0.1-0.6-0.6-0.6
		C42,80.2,41.9,80.3,41.9,80.8 M39.3,86c0,0.5,0.1,0.6,0.6,0.6c0.5,0,0.6-0.1,0.6-0.6s-0.1-0.6-0.6-0.6C39.4,85.3,39.3,85.4,39.3,86
		 M38.6,87.6c-0.3,0.3-0.6,0.7-0.6,1c0,0.3-0.1,0.5-0.2,0.5c-0.3,0-1,0.7-1,1c0,0.1,0.3,0.2,0.6,0.2c0.5,0,0.6-0.1,0.6-0.6
		s0.1-0.6,0.6-0.6c0.6,0,0.6-0.1,0.6-1c0-0.6,0-1-0.1-1C39.2,87.1,38.9,87.3,38.6,87.6 M147.3,91c-0.3,0.8,0.2,1.5,0.9,1.5
		c0.5,0,0.6,0.1,0.4,0.9c-0.1,0.8-0.1,0.9,0.5,1.2c0.6,0.3,0.7,0.5,0.6,1.2c-0.1,1.2,0.1,1.5,1.1,1.6c0.7,0.1,0.8,0.1,0.8-0.7
		c0-1.5-0.3-2.4-0.8-2.4c-0.3,0-0.5-0.2-0.5-0.6c0-0.4-0.2-0.7-0.6-0.8c-0.4-0.2-0.6-0.5-0.7-1.3C148.9,90.3,147.7,89.9,147.3,91
		 M52,92.9c-0.1,0.1-0.2,0.4-0.2,0.7c0,0.7,1.1,0.5,1.2-0.3C53.1,92.7,52.4,92.5,52,92.9 M48,94.5c0,0.6,0.3,0.7,0.7,0.2
		c0.4-0.4,0.4-0.7-0.2-0.7C48.1,94,48,94.2,48,94.5 M44.6,95.8c-0.6,0.6-0.6,0.7,0.2,0.7c0.5,0,0.6-0.1,0.6-0.6
		C45.4,95.2,45.2,95.1,44.6,95.8 M53.3,97.1c0,0.6,0.1,0.7,0.7,0.7c0.6,0,0.6-0.1,0.3-0.3c-0.2-0.2-0.5-0.5-0.7-0.7
		C53.4,96.5,53.4,96.5,53.3,97.1 M35.2,98.5c0,1,1.8,0.9,2.3-0.2c0.2-0.4,0.2-0.5-1-0.5C35.3,97.8,35.2,97.9,35.2,98.5 M55.1,99.2
		c0,0.1,0.2,0.2,0.4,0.4c0.3,0.3,0.4,0.2,0.4-0.1c0-0.2-0.2-0.4-0.4-0.4C55.3,99.1,55.1,99.1,55.1,99.2 M149.9,100.1
		c-1.4,0.6-1.2,1.6,0.3,1.6c1,0,1.2-0.1,1.2-0.6c0-0.4,0-0.8,0.1-0.9C151.5,99.6,150.8,99.6,149.9,100.1 M143,100.3
		c-1.1,0.5-0.3,1.4,1.2,1.4c1.5,0,1.5,0,1.5-0.7C145.6,100.2,144,99.8,143,100.3 M55.9,100.9c0.1,0.4,0.3,0.6,0.7,0.7
		c0.5,0.1,0.6,0,0.5-0.5c-0.1-0.4-0.3-0.6-0.7-0.7C55.9,100.3,55.9,100.4,55.9,100.9 M140.1,100.6c0,0.1-0.1,0.2-0.2,0.2
		c-1.2-0.2-2,2.1-0.9,2.4c0.6,0.2,0.8,0.7,0.5,1.6c-0.3,0.9,0.1,1.3,1.1,1.3c0.8,0,0.9-0.3,0.6-2.1c-0.1-0.7-0.3-1-0.6-1
		c-0.6,0-0.8-1.9-0.3-2.4c0.3-0.3,0.3-0.4,0.1-0.4C140.2,100.4,140.1,100.5,140.1,100.6 M146.7,102.1c0.5,0.9,1.3,0.9,1.8,0
		c0.2-0.4,0.2-0.5-0.9-0.5C146.6,101.6,146.5,101.7,146.7,102.1 M59.7,105.8c0,0.4,0.5,1,1,1c0.6,0,0.3-1.1-0.4-1.2
		C59.9,105.5,59.7,105.6,59.7,105.8 M61,109.8l0,1.8l0.6-0.6c0.8-0.7,0.8-1.6,0-2.4L61,108L61,109.8 M140.2,110.8
		c0.2,0.1,0.6,0.1,0.9,0c0.2-0.1,0-0.1-0.4-0.1C140.1,110.6,139.9,110.7,140.2,110.8 M141.6,111.5c0,1.1,0.9,1.3,3.6,0.9
		c2.4-0.3,2.6-0.5,1.9-1.1c-0.3-0.3-1-0.4-2.9-0.4h-2.5V111.5 M56.1,112.3c-0.2,0.2-0.2,1.1,0,1.1c0.2,0,1.1-0.8,1.1-1.1
		C57.2,112.1,56.3,112.1,56.1,112.3 M148.1,112.8c0.1,0.6,0.3,0.8,0.9,1c0.5,0.2,0.9,0.4,1,0.6c0.1,0.2,0.5,0.4,0.9,0.5
		c0.4,0.1,0.8,0.4,0.9,0.8c0.1,0.4,0.5,0.7,0.9,0.8c0.4,0.1,0.9,0.2,1,0.3c0.3,0.1,0.4-0.4,0.2-1.4c-0.1-0.4-0.4-0.6-0.7-0.6
		c-0.3,0-0.8-0.3-1.1-0.6s-0.9-0.6-1.2-0.6c-0.5,0-0.7-0.2-0.7-0.6C150.1,111.8,148,111.8,148.1,112.8 M139.4,115.8
		c-0.2,0.4-0.6,0.8-1,0.9c-0.5,0.2-0.8,0.5-0.9,0.9c-0.2,0.9,2.5,1,2.7,0.1c0.1-0.3,0.4-0.6,0.7-0.7c0.7-0.2,0.7-1.2,0-1.6
		C140.1,115,139.7,115.1,139.4,115.8 M143.6,115.4c-1.5,0.3-1.2,1.6,0.3,1.6c1,0,1.3,0.1,1.5,0.6c0.2,0.4,0.5,0.6,0.9,0.7
		c0.4,0,0.9,0.4,1.2,0.7c0.4,0.6,0.6,0.6,1,0.3c0.6-0.3,0.3-1-0.4-1c-0.2,0-0.4-0.3-0.4-0.6c0-0.5-0.1-0.6-0.8-0.7
		c-0.6-0.1-0.9-0.2-0.9-0.6C145.9,115.3,145.2,115.1,143.6,115.4 M52.1,116.6c0,0.6,0,0.6,0.3,0.3c0.1-0.2,0.5-0.6,0.7-0.7
		c0.4-0.2,0.3-0.3-0.3-0.3C52.2,115.9,52.1,116,52.1,116.6 M153.7,117.8c-0.1,0.4,0,0.7,0.5,1.1c0.4,0.3,0.7,0.8,0.7,1
		c0,0.6,0.3,1,0.9,1.2c0.4,0.2,0.5,0.4,0.3,1.9c-0.2,1.9-0.1,2.2,1.2,2.4l0.7,0.1l0-1.7c0-2.2-0.2-2.8-0.8-2.8
		c-0.4,0-0.5-0.2-0.5-0.9c0-1.2-0.2-1.7-0.8-1.7c-0.3,0-0.5-0.2-0.5-0.6C155.4,117,154,116.9,153.7,117.8 M136.7,118.7
		c-1.3,0.1-1.6,3-0.5,3.6c0.3,0.1,0.5,0.6,0.6,1c0.1,0.4,0.4,1.1,0.8,1.4c1,0.9,1,6.2,0,6.9c-0.4,0.2-0.6,0.6-0.6,0.8
		c0,0.6-0.8,1.2-1.4,1.1c-0.4-0.1-0.7,0-1,0.4c-0.4,0.5-0.6,0.6-4.2,0.6c-2.1,0-4.1,0.1-4.4,0.2c-0.6,0.2-0.7,0.1-0.8-0.5
		c-0.1-0.7-0.1-0.7-1.3-0.7c-1.1,0-1.3-0.1-1.4-0.6c-0.3-1.2-7.9-1-7.9,0.1v0.6h3.8c3.7,0,3.8,0,4,0.6c0.2,0.4,0.5,0.6,1.3,0.7
		c0.6,0,1.1,0.2,1.1,0.3c0,0.9,0.8,1,5.4,1h4.6v-0.6c0-0.6,0.1-0.6,1.2-0.7c1-0.1,1.2-0.2,1.3-0.7c0.1-0.4,0.3-0.6,0.7-0.6
		c0.4,0,0.7-0.2,0.8-0.6c0.1-0.3,0.4-0.8,0.7-1c0.9-0.7,1-6.9,0.1-7.2c-0.4-0.2-0.6-0.5-0.7-1.3c-0.1-0.8-0.2-1-0.7-1.1
		c-0.5-0.1-0.6-0.2-0.6-1.9l-0.1-1.8L136.7,118.7 M148.7,119.4c0.2,0.1,0.3,0.6,0.3,1.3c0,0.9,0.1,1.3,0.6,1.7
		c0.6,0.4,0.6,0.7,0.6,2.1c0,1.4,0.1,1.7,0.6,2.2l0.6,0.6l0.2-1.1c0.4-2.2,0.2-3.3-0.6-3.3c-0.7,0-0.8-0.3-0.5-1.2
		c0.3-0.9-0.3-2.3-1-2c-0.2,0.1-0.4,0-0.5-0.1c-0.1-0.1-0.3-0.2-0.5-0.2C148.5,119.3,148.5,119.3,148.7,119.4 M50.3,120.7
		C50,121,50,121,50.4,121c0.2,0,0.4-0.2,0.4-0.4c0-0.2,0-0.4-0.1-0.4C50.6,120.3,50.4,120.5,50.3,120.7 M48.4,122.5
		c-0.2,0.2-0.2,1.1,0,1.1c0.2,0,1.1-0.8,1.1-1.1C49.5,122.3,48.6,122.3,48.4,122.5 M157.6,126.3c-0.4,0.4-0.2,1.3,0.5,1.6
		c0.4,0.2,0.6,0.4,0.6,0.6c0,0.1,0.4,0.3,0.9,0.3c0.8,0,0.9-0.1,0.9-0.6c0-0.5-0.1-0.6-0.6-0.6c-0.4,0-0.6-0.2-0.7-0.6
		C159.1,126.3,158.1,125.9,157.6,126.3 M46.2,126.7c-0.4,0.4-0.4,0.7,0.2,0.7c0.3,0,0.5-0.2,0.5-0.5C47,126.3,46.7,126.3,46.2,126.7
		 M44.9,127.9l-0.6,0.6l0.6,0.1c0.7,0.1,0.9,0,0.8-0.8l-0.1-0.6L44.9,127.9 M150.3,131.1c0,3.6,0,3.7,0.6,4.3
		c0.3,0.3,0.7,0.9,0.7,1.2c0.1,0.4,0.3,0.6,0.7,0.7c0.5,0.1,0.6,0.2,0.6,1.3c0,1.2,0.1,1.3,0.6,1.3c1,0,1.2-2.5,0.3-3.1
		c-0.4-0.3-0.6-0.7-0.6-1.1c0-0.3-0.2-0.7-0.5-0.9c-0.5-0.3-0.6-0.7-0.7-3.8l-0.2-3.4l-0.7-0.1l-0.7-0.1V131.1 M160.4,130.1
		c-0.1,0.1-0.2,1.5-0.2,3.2v3h0.8h0.8l0-2.2C161.8,130.5,161.4,129.2,160.4,130.1 M111.8,131.2c0,0.1-0.1,0.4-0.2,0.6
		c-0.1,0.3,0,0.4,0.4,0.4c0.4,0,0.5-0.2,0.5-0.6c0-0.4-0.1-0.6-0.4-0.6C112,131,111.8,131.1,111.8,131.2 M42,131.4
		c-0.4,0.4-0.2,1.1,0.5,1.1c0.5,0,0.6-0.1,0.6-0.6C43.1,131.3,42.5,131,42,131.4 M169.5,131.9c0,0.5,0.1,0.6,0.7,0.6
		c0.9,0,1.5,0.6,1.5,1.3c0,0.7-0.7,2.3-1,2.3c-0.1,0-0.3,0.6-0.4,1.2c-0.2,1.5-1.7,3.4-2.8,3.4h-0.7v2.9c0,2.9,0,2.9-0.6,2.9
		c-0.3,0-0.7,0.1-0.7,0.3c-0.1,0.3-0.1,0.3-0.1,0c-0.1-1.2-1.2-0.2-1.3,1.2c-0.1,1.4-0.2,1.6-1.8,3.7l-1.7,2.2l-1.2-0.1
		c-1.2-0.1-1.4,0.4-0.4,1c0.2,0.1,0.4,0.5,0.4,0.8c0.1,0.4,0.3,0.7,0.6,0.7c0.3,0,0.6,0.3,0.8,0.6c0.2,0.4,0.5,0.6,1.3,0.6
		c0.9,0.1,1.1,0.2,1.1,0.6c0.1,0.5,0.2,0.6,1.9,0.6c1.6,0.1,1.8,0.1,2,0.6c0.4,0.9,7.1,0.9,7.2,0c0.1-0.5,0.2-0.6,1.4-0.6
		c1,0,1.4-0.1,1.9-0.6c0.4-0.4,0.9-0.6,1.3-0.6c0.5,0,0.6-0.1,0.6-0.6c0-0.5,0.1-0.6,0.6-0.6c0.5,0,0.6-0.1,0.6-0.6
		c0-0.5,0.1-0.6,0.6-0.6c0.5,0,0.6-0.1,0.6-0.6c0-0.4,0.1-0.6,0.2-0.6c0.7,0,1-0.9,1-2.3c0-1.3,0.1-1.6,0.6-2.1
		c0.6-0.6,0.6-0.6,0.6-5.7c0-5.1,0-5.1,0.6-5.2c0.5-0.1,0.6-0.2,0.6-1.8l0.1-1.7l-1.3-1.3c-1.2-1.2-1.4-1.3-2.5-1.3
		c-1,0-1.3-0.1-1.5-0.6c-0.2-0.6-0.3-0.6-5.7-0.6l-5.4-0.1V131.9 M166.9,133.2c0,0.5,0.1,0.6,0.6,0.6c0.5,0,0.6-0.1,0.6-0.6
		c0-0.5-0.1-0.6-0.6-0.6C167,132.5,166.9,132.7,166.9,133.2 M40.6,136c0.1,2,0.1,2.3,0.6,2.5c0.4,0.2,0.6,0.5,0.6,1
		c0,0.6,0.1,0.7,0.6,0.7c0.5,0,0.6-0.1,0.6-0.8c0-0.6-0.1-0.8-0.6-0.8c-0.6,0-0.6,0-0.6-2.4v-2.4h-0.6h-0.6L40.6,136 M161.7,139.6
		c-0.2,0.8,0.2,1.7,0.9,1.7c0.5,0,0.6-0.2,0.3-1.5C162.7,138.7,161.9,138.6,161.7,139.6 M109.2,141.2c0,1.2,0,1.3,0.6,1.2
		c0.9-0.1,1-2.5,0.1-2.5C109.3,139.9,109.2,140,109.2,141.2 M40.6,142.2c0,1,1.1,1,1.2,0c0.1-0.6,0-0.7-0.6-0.7
		C40.7,141.5,40.6,141.6,40.6,142.2 M154.1,143.8c0,1.2,0,1.3,0.6,1.3c0.6,0,0.6-0.1,0.6-1.3c0-1.2,0-1.3-0.6-1.3
		C154.2,142.5,154.1,142.6,154.1,143.8 M109.2,143.4c0,0.5,0.1,0.7,0.6,0.7c0.5,0,0.6,0.1,0.6,0.6c0,0.5,0.1,0.6,0.6,0.6
		s0.6-0.1,0.6-0.6c0-0.5-0.1-0.6-0.6-0.6c-0.4,0-0.6-0.2-0.7-0.6C110.3,142.6,109.2,142.5,109.2,143.4 M39.3,144.7
		c0,0.4-0.1,0.6-0.2,0.6c-0.3,0-1,0.8-1,1.1c0,0.2,0.2,0.3,0.6,0.2c0.5-0.1,0.6-0.3,0.6-0.7c0-0.5,0.1-0.6,0.6-0.6
		c0.5,0,0.6-0.1,0.6-0.6c0-0.5-0.1-0.6-0.6-0.6C39.4,144,39.3,144.1,39.3,144.7 M163,144.5c-0.2,0.7,0.1,1.2,0.8,1.2
		c0.7,0,0.8-0.4,0.5-1.3C164,143.9,163.1,143.9,163,144.5 M111.8,147.7c0,1.2,0.2,1.4,0.9,0.7c0.6-0.6,0.2-1.9-0.6-1.9
		C111.9,146.6,111.8,147.1,111.8,147.7 M155.4,148.9c0,1.2,0,1.3,0.6,1.3c0.6,0,0.6-0.1,0.6-1.3s0-1.3-0.6-1.3
		C155.5,147.6,155.4,147.7,155.4,148.9 M37.3,148.4l-0.6,0.6l0.6,0.1c0.7,0.1,0.9,0,0.8-0.8l-0.1-0.6L37.3,148.4 M35.5,151.1
		c0,0.6,0,0.6,0.3,0.3c0.1-0.2,0.5-0.6,0.7-0.7c0.4-0.2,0.3-0.3-0.3-0.3C35.6,150.4,35.5,150.5,35.5,151.1 M156.7,152.1
		c0,0.5,0.1,0.6,0.6,0.6c0.5,0,0.6-0.1,0.6-0.6c0-0.5-0.1-0.6-0.6-0.6C156.8,151.4,156.7,151.5,156.7,152.1 M111.3,154.9
		c-0.3,0.3-0.2,0.4,0.1,0.4c0.2,0,0.4-0.2,0.4-0.4c0-0.2,0-0.4-0.1-0.4C111.6,154.5,111.4,154.7,111.3,154.9 M110.5,155.7
		c0,0.2,0.8,1.1,1.1,1.1c0.1,0,0.2-0.3,0.2-0.6c0-0.5-0.1-0.6-0.6-0.6C110.8,155.5,110.5,155.6,110.5,155.7 M32,157.2
		c-0.7,0.7-0.5,1.4,0.2,1c0.4-0.2,0.6-0.5,0.6-0.9C32.9,156.7,32.6,156.6,32,157.2 M111.8,157.5c0,0.3,0.2,0.5,0.5,0.5
		c0.6,0,0.7-0.3,0.2-0.7C112,156.9,111.8,157,111.8,157.5 M114.3,161.2c0,0.5,0.1,0.6,0.6,0.6c0.7,0,0.8-0.3,0.2-0.9
		C114.6,160.4,114.3,160.5,114.3,161.2 M34.2,162.2c0,0.6,0.1,0.7,0.7,0.7c0.6,0,0.6-0.1,0.3-0.3c-0.2-0.2-0.5-0.5-0.7-0.7
		C34.3,161.6,34.2,161.6,34.2,162.2 M39.5,164.6c0.1,0.3,0.9,0.9,1.2,0.9c0.1,0,0.1-0.3,0-0.6c-0.1-0.5-0.3-0.6-0.7-0.6
		C39.5,164.2,39.4,164.3,39.5,164.6 M116.9,165.1c0,0.5,0.1,0.6,0.6,0.6c0.7,0,0.8-0.3,0.2-0.9C117.2,164.3,116.9,164.3,116.9,165.1
		 M44.4,166c0.1,0.4,0.3,0.6,0.8,0.7c0.6,0.1,0.7,0,0.5-0.5C45.4,165.3,44.3,165.2,44.4,166 M57.7,165.5c-0.4,1.1-0.2,1.2,2,1.2
		c2.1,0,3.3-0.4,3.3-1C63,165.5,57.7,165.3,57.7,165.5 M64.8,165.8c0,1.2,4.2,1.5,4.4,0.3l0.1-0.6h-2.3
		C65.4,165.5,64.8,165.5,64.8,165.8 M72.5,167.4c0,0.6,0.1,0.6,1.6,0.6c1.3,0,1.5-0.1,1.4-0.4c-0.1-0.2-0.2-0.5-0.2-0.6
		c0-0.1-0.6-0.2-1.4-0.2C72.6,166.7,72.5,166.8,72.5,167.4 M118.2,167.6c0,0.7,0.4,0.8,1,0.4c0.5-0.3,0.2-1-0.5-1
		C118.3,167,118.2,167.2,118.2,167.6 M77.6,168.6c0,0.5,0.1,0.6,0.6,0.6s0.6-0.1,0.6-0.6c0-0.5-0.1-0.6-0.6-0.6
		S77.6,168.1,77.6,168.6 M119.4,168.9c0,0.5,0.1,0.6,0.6,0.6c0.7,0,0.8-0.3,0.2-0.9C119.7,168.1,119.4,168.2,119.4,168.9
		 M80.1,169.9c0,0.5,0.1,0.6,0.6,0.6s0.6-0.1,0.6-0.6c0-0.5-0.1-0.6-0.6-0.6S80.1,169.4,80.1,169.9 M120.7,171.5
		c0,0.5,0.1,0.6,0.6,0.6s0.6-0.1,0.6-0.6c0-0.5-0.1-0.6-0.6-0.6S120.7,171,120.7,171.5 M84,172.5c0,0.5,0.1,0.6,0.6,0.6
		s0.6,0.1,0.6,0.6c0,0.5,0.1,0.6,0.6,0.6s0.6-0.1,0.6-0.6c0-0.5-0.1-0.6-0.6-0.6s-0.6-0.1-0.6-0.6c0-0.5-0.1-0.6-0.6-0.6
		S84,172,84,172.5 M122,173c0,0.5,0.1,0.6,0.5,0.6c0.3,0,0.5,0.1,0.6,0.3c0.1,0.2,0.1,0.2,0.1-0.1c0-0.5-0.7-1.5-1-1.5
		C122.1,172.3,122,172.6,122,173 M86.8,174.7c0.2,0.7,1.2,1,1,0.3c-0.1-0.4-0.3-0.6-0.6-0.6C87,174.4,86.8,174.5,86.8,174.7
		 M123.3,175.2c0,0.4,0.2,0.6,0.6,0.7c0.7,0.1,0.9-0.3,0.2-0.9C123.6,174.5,123.3,174.5,123.3,175.2 M90.3,177.6
		c0,0.5,0.1,0.6,0.6,0.6s0.6,0.1,0.6,0.6c0,0.5,0.1,0.6,0.6,0.6s0.6,0.1,0.6,0.6c0,0.5,0.1,0.6,0.6,0.6s0.6-0.1,0.6-0.6
		c0-0.5-0.1-0.6-0.6-0.6s-0.6-0.1-0.6-0.6c0-0.5-0.1-0.6-0.6-0.6s-0.6-0.1-0.6-0.6c0-0.5-0.1-0.6-0.6-0.6S90.3,177.1,90.3,177.6
		 M124.5,177.8c0,0.5,0.1,0.7,0.7,0.7c0.9,0,0.8-1.1-0.1-1.2C124.6,177.2,124.5,177.3,124.5,177.8 M97,182.3
		c-0.4,0.4-0.4,0.7,0.2,0.7c0.3,0,0.6,0.3,0.8,0.7c0.5,1,1.2,1.1,1.2,0.2c0-0.5-0.1-0.7-0.6-0.7c-0.5,0-0.6-0.1-0.6-0.6
		C98,182,97.5,181.8,97,182.3 M127.1,183.8c0,0.3,0.8,1.1,1.1,1.1c0.1,0,0.2-0.3,0.1-0.6C128.2,183.7,127.1,183.2,127.1,183.8
		 M102.1,186.1c0,0.3,0.6,0.8,0.8,0.8c0.1,0,0.2-0.2,0.2-0.5c0-0.3-0.2-0.5-0.5-0.5C102.3,185.9,102.1,186,102.1,186.1 M105.3,187.8
		c0.5,0.7,0.6,0.7,0.4,0c-0.1-0.3-0.3-0.6-0.5-0.6C104.9,187.1,105,187.3,105.3,187.8 M128.4,187.6c0,0.1,0.2,0.4,0.4,0.6
		c0.2,0.2,0.4,0.7,0.4,1.2c0,0.5-0.1,0.9-0.4,1c-0.6,0.2-0.4,0.6,0.3,0.6c1,0,0.9-3.4-0.1-3.5C128.6,187.4,128.4,187.5,128.4,187.6
		 M108.2,189c0,0.6,0.1,0.7,0.7,0.7c0.6,0,0.6-0.1,0.3-0.3c-0.2-0.2-0.5-0.5-0.7-0.7C108.3,188.4,108.2,188.4,108.2,189"/>
	<path id="path3" class="st3" d="M57.5,33c-0.9,0.5-3.9,3.4-3.9,3.8c0,0.2-0.3,0.4-0.6,0.5c-0.4,0.2-0.7,0.5-0.8,1
		c-0.1,0.5-0.3,0.8-0.6,0.8c-0.4,0-0.5,0.2-0.5,0.7c0,1.4-0.3,1.9-0.9,1.8c-0.5-0.1-0.6,0-0.4,0.6c0.2,1.2-0.1,2-0.8,1.9
		c-0.7-0.1-0.7-0.1-0.5,1.1c0.4,2.6,0.2,3.3-0.8,3.5c-1.2,0.2-0.6,0.9,0.8,1c2.7,0.3,3.5,1,2.5,2c-0.2,0.2-0.4,0.5-0.4,0.7
		c0,0.2-0.1,0.3-0.3,0.3c-0.3,0-2.4,2-2.8,2.7c-0.2,0.3-0.3,3.9-0.5,9.2l-0.2,8.7h0.7c0.5,0,0.7-0.2,0.8-0.6
		c0.1-0.3,0.5-0.9,0.8-1.3c1.3-1.3,1.5-1.6,1.7-2.2c0.6-1.5,9.7-10.7,11.6-11.7c0.4-0.2,0.9-0.6,1.2-0.9c0.7-0.7,2-0.6,3.1,0.2
		c0.5,0.4,1.4,1,2,1.3s1.6,1.2,2.3,1.9c0.7,0.7,1.4,1.2,1.5,1.2c0.1,0,0.6,0.5,1.1,1.1c0.5,0.6,1.5,1.6,2.1,2.2s1.1,1.3,1.1,1.5
		c0,0.2,0.3,0.7,0.8,1.2c0.4,0.5,0.8,0.9,0.8,1c0,0.1,0.2,0.4,0.4,0.6c0.7,0.8,1.9,2.7,2,3.4c0.1,0.4,0.3,0.7,0.4,0.7
		c0.1,0,0.5,0.5,0.8,1.1c0.3,0.6,0.7,1.2,0.8,1.3c0.1,0.1,0.4,0.6,0.5,1.2c0.2,0.6,0.5,1.3,0.8,1.6c0.3,0.3,0.5,0.7,0.5,0.9
		c0,0.2,0.3,0.8,0.6,1.3c0.3,0.5,0.7,1.2,0.8,1.6c0.1,0.4,0.3,1,0.5,1.2c0.2,0.2,0.5,0.9,0.6,1.5c0.2,0.6,0.5,1.4,0.8,1.7
		c0.3,0.3,0.5,1,0.6,1.5c0.1,0.5,0.3,1,0.5,1.2c0.2,0.2,0.5,1,0.7,1.7c0.2,0.8,0.5,1.7,0.8,2c0.2,0.3,0.5,1,0.6,1.5
		c0.1,0.5,0.4,1.2,0.6,1.4c0.6,0.7,0.7,2.6,0.2,3.5c-0.8,1.2-2.1,4-2.1,4.4c0,0.2-0.3,0.8-0.6,1.3c-0.4,0.5-0.6,1-0.6,1.1
		c0,0.2-0.2,0.5-0.5,0.8c-0.3,0.3-0.6,0.9-0.7,1.4c-0.1,0.5-0.5,1.2-0.8,1.6c-0.3,0.4-0.5,0.9-0.5,1.1c0,0.2-0.3,0.9-0.8,1.5
		c-0.4,0.6-0.8,1.3-0.8,1.5c0,0.2-0.1,0.3-0.2,0.3c-0.1,0-0.4,0.6-0.7,1.3c-0.2,0.7-0.5,1.3-0.7,1.4c-0.1,0.1-0.5,0.7-0.7,1.3
		c-0.3,0.6-0.6,1.1-0.8,1.1c-0.1,0-0.3,0.2-0.3,0.4c0,0.5-2,4.7-2.3,4.7c-0.1,0-0.3,0.4-0.5,1c-0.2,0.5-0.5,1.1-0.7,1.3
		c-0.2,0.2-0.5,0.9-0.6,1.5c-0.2,0.6-0.4,1.2-0.6,1.3c-0.2,0.1-0.5,0.6-0.6,1.2c-0.2,0.5-0.5,1-0.6,1.1c-0.2,0.1-0.5,0.8-0.8,1.5
		c-0.2,0.7-0.5,1.3-0.7,1.3c-0.1,0-0.3,0.3-0.4,0.8c-0.1,0.4-0.4,1-0.6,1.3c-0.2,0.3-0.6,1-0.8,1.5c-0.2,0.5-0.5,1.1-0.7,1.3
		c-0.2,0.2-0.4,0.9-0.6,1.5c-0.1,0.6-0.4,1.3-0.6,1.5c-0.2,0.2-0.5,0.7-0.6,1.1c-0.1,0.4-0.4,1-0.7,1.5c-0.3,0.5-0.6,1.4-0.8,2
		c-0.2,0.7-0.4,1.5-0.6,1.8c-0.2,0.3-0.5,1.1-0.6,1.9c-0.2,0.7-0.4,1.4-0.6,1.6c-0.2,0.2-0.5,1.1-0.7,2.1c-0.5,2.6-1.8,3.7-3.1,2.4
		c-0.3-0.3-0.6-0.5-0.7-0.5c-0.1,0-0.4-0.3-0.7-0.6c-0.3-0.3-0.8-0.8-1.1-1c-1.5-1-7.1-6.9-8.5-9c-0.4-0.6-0.9-1.2-1-1.3
		c-0.4-0.4-2.9-4.1-3.1-4.6c-0.1-0.3-0.4-0.7-0.6-1c-0.6-0.7-1.6-2.5-2.3-4.2c-0.2-0.5-0.5-0.7-1.2-0.8c-1.2-0.2-1-0.4-1.2,2.1
		l-0.1,2.1l0.7,0.3c0.8,0.3,0.9,0.6,0.6,2c-0.1,0.6-0.3,0.8-0.6,0.8c-0.4,0-0.5,0.2-0.5,0.9c0,1.2-0.2,1.7-0.8,1.7
		c-0.4,0-0.5,0.2-0.5,0.9c-0.1,0.8-0.2,1-0.7,1.1c-0.5,0.1-0.6,0.3-0.6,1.1c0,0.8-0.1,1-0.6,1.1c-0.8,0.2-0.9,0.9-0.2,1.2
		c0.3,0.2,1.1,0.9,1.7,1.7c1.6,2.1,5.1,6.3,5.7,6.9c0.3,0.3,0.7,0.7,0.8,0.9c0.3,0.3,3.5,3.3,5.6,5.4c1,0.9,5.4,1.3,13.9,1.2l5-0.1
		l0.1,0.7l0.1,0.7l2.3-0.2c2.3-0.2,3.4,0,3.3,0.5c-0.1,0.8,0.1,1,0.9,0.9c1.8-0.1,2.2,0,2.1,0.5c-0.1,0.4,0,0.5,0.5,0.5
		c1,0,1.5,0.3,1.5,1c0,0.6,0.1,0.6,1,0.5c0.9-0.1,1.1-0.1,1.3,0.4c0.1,0.3,0.5,0.7,0.9,0.7c0.4,0.1,0.7,0.3,0.7,0.5
		c0,0.2,0.3,0.5,0.7,0.7c0.4,0.2,0.8,0.6,0.9,0.9c0.1,0.5,0.3,0.6,0.9,0.6c0.5,0,0.8,0.2,0.9,0.5c0.1,0.3,0.4,0.5,0.7,0.5
		c0.3,0,0.6,0.3,0.7,0.6c0.1,0.3,0.5,0.7,0.9,0.8c0.4,0.1,0.7,0.3,0.7,0.5c0,0.2,0.3,0.4,0.6,0.6c0.3,0.1,0.6,0.5,0.7,0.8
		c0.1,0.6,0.5,0.9,1.2,0.9c0.4,0,0.6,0.2,0.6,0.6c0,0.5,0.1,0.6,0.7,0.5c0.6-0.1,0.8,0,1.1,0.5c0.2,0.4,0.8,0.7,1.2,0.8
		c0.5,0.1,0.8,0.3,0.8,0.6c0,0.3,0.1,0.3,0.3,0.1c0.2-0.2,1-0.3,1.9-0.3c0.9,0,2.8-0.2,4.4-0.4c1.5-0.2,4.1-0.5,5.7-0.6
		c1.6-0.1,3.3-0.4,3.7-0.6c0.4-0.2,1.6-0.5,2.6-0.7c1.1-0.2,2.4-0.5,2.9-0.7c0.6-0.2,1.7-0.5,2.5-0.7c1.6-0.3,2-1,0.7-1.3
		c-0.6-0.1-0.6-0.3-0.6-1.2c0.1-1,0-1.1-0.7-1.3c-0.8-0.3-0.8-0.3-0.6-1.5c0.1-0.7,0.1-1.1-0.1-1.1c-0.4,0.3-1.4-0.3-1.4-0.8
		c0-0.3-0.2-0.6-0.5-0.7c-0.4-0.1-0.5-0.4-0.5-1c0-0.5-0.1-0.9-0.3-1c-0.7-0.2-1.1-0.4-1.6-0.8c-0.5-0.3-0.6-0.3-1.5,0.1
		c-0.5,0.3-1.9,0.6-3.1,0.8c-1.1,0.1-2.7,0.5-3.4,0.7c-1.9,0.7-15.5,0.7-17.4,0c-0.7-0.2-2.2-0.6-3.4-0.7c-1.2-0.1-2.4-0.4-2.7-0.6
		c-0.3-0.2-1.4-0.5-2.4-0.7c-2.4-0.4-4.3-1.3-4.5-2.2c-0.3-1.3,0.1-12.9,0.5-14.4c0.2-0.8,0.5-2.2,0.7-3.1s0.5-2.1,0.8-2.6
		c0.2-0.5,0.5-1.4,0.6-1.9c0.1-0.6,0.3-1.2,0.5-1.5c0.2-0.3,0.5-1.2,0.6-2c0.1-0.8,0.5-1.8,0.8-2.3c0.3-0.4,0.5-1,0.5-1.2
		c0-0.2,0.3-1,0.6-1.7c0.3-0.7,0.8-1.8,1-2.4c0.9-2.7,1.4-4.1,1.8-4.6c0.2-0.3,0.5-0.9,0.5-1.3c0.1-0.4,0.4-1,0.6-1.3
		c0.3-0.3,0.5-1.1,0.6-1.7c0.1-0.6,0.3-1.3,0.5-1.4c0.2-0.2,0.5-0.8,0.7-1.4c0.2-0.6,0.5-1.3,0.8-1.7c0.3-0.3,0.5-0.7,0.5-0.9
		c0-0.3,1.1-2.8,2.3-5.5c1.5-3.1,2.8-2.7,3.4,1.2c0.1,0.6,0.3,1.4,0.5,1.7c0.2,0.3,0.5,1.2,0.6,2c0.2,0.8,0.4,1.7,0.6,2
		c0.2,0.3,0.5,1.4,0.7,2.4c0.2,1.1,0.5,2.2,0.7,2.4c0.2,0.3,0.5,1.2,0.6,2c0.2,0.8,0.4,1.7,0.6,1.9c0.2,0.2,0.5,1.1,0.6,2
		c0.1,0.9,0.5,2.1,0.8,2.7c0.3,0.6,0.5,1.2,0.5,1.5s0.2,1,0.5,1.5c0.3,0.6,0.6,1.5,0.8,2.2c0.2,0.6,0.4,1.4,0.6,1.7
		c0.2,0.3,0.4,1.1,0.6,1.9c0.2,0.8,0.5,1.6,0.8,2s0.6,1,0.7,1.6s0.4,1.2,0.6,1.5c0.3,0.3,0.5,1.1,0.6,1.7c0.1,0.7,0.4,1.3,0.8,1.7
		c0.3,0.3,0.6,0.7,0.6,0.9c0,0.2,0.2,0.3,0.6,0.2c0.6-0.1,0.6-0.2,0.6-3.1l0.1-3h-0.7c-0.5,0-0.7-0.2-0.9-0.6
		c-0.1-0.3-0.4-0.7-0.6-0.8c-0.3-0.2-0.4-1.1-0.5-6.1l-0.1-5.9l0.6-0.1c0.3,0,0.6-0.3,0.7-0.6c0.4-1.1,3.4-0.9,3.3,0.2
		c0,0.4,0.1,0.5,0.6,0.5c1.6,0,1.3-2.1-0.9-6.4c-0.3-0.5-0.9-2-1.4-3.4c-1.1-3.1-2.1-5.6-2.6-6.5c-0.2-0.4-0.4-1.2-0.5-1.8
		c-0.1-0.6-0.3-1.5-0.5-1.8c-0.8-1.5-2-5.3-3-9.6c-0.4-1.6-1-3.7-2.3-7.9c-0.4-1.2-0.7-2.4-0.7-2.7c0-0.5-0.9-3.3-2-6.2
		c-0.3-0.9-0.6-1.7-0.6-1.8c0-0.8-2.2-7-3.3-9.4c-0.3-0.6-0.5-1.3-0.5-1.6c0-0.3-0.2-1-0.5-1.5c-0.3-0.5-0.9-1.9-1.4-3
		c-1.6-3.4-3-6.3-3.6-7.2c-0.3-0.4-0.6-1.1-0.7-1.4c-0.1-0.3-0.6-1.2-1-1.9c-2-3.1-2.6-4-2.8-4.4c-0.1-0.2-0.6-0.9-1.2-1.4
		c-0.5-0.6-1.1-1.4-1.4-1.8c-0.2-0.5-0.7-1.1-0.9-1.4c-0.8-0.9-0.7-1,1.8-1.9c9.1-3.2,29-2.6,37.2,1.2c0.6,0.3,1.4,0.5,1.9,0.6
		c1.2,0.2,8.3,3.8,10.4,5.2c0.9,0.6,1.7,1.1,1.8,1.1c0.3,0,2.7,1.9,6.1,4.7c3.5,2.9,5.8,5.4,10.5,11.3c0.9,1.1,1.4,2,1.5,2.7l0.2,1
		h4.4h4.4l0-1.6l0-1.6l-1-0.2c-1-0.2-1.2-0.8-1-2.4c0-0.2-0.3-0.3-1.1-0.3c-1.1,0-1.7-0.4-1.2-0.9c0.1-0.1-0.2-0.2-0.8-0.2
		c-0.9,0-1.1-0.1-1.2-0.6c0-0.3-0.2-0.6-0.5-0.6s-0.5-0.3-0.6-0.6c-0.1-0.4-0.5-0.7-0.8-0.7c-0.4-0.1-0.6-0.3-0.7-0.7
		c0-0.3-0.2-0.6-0.4-0.6c-0.4,0-1-0.9-0.7-1.1c0.1-0.1-0.1-0.2-0.4-0.2c-0.3,0-0.7-0.3-0.9-0.6c-0.2-0.4-0.5-0.6-0.7-0.6
		c-0.3,0-2-1.7-2-2c0-0.2-0.3-0.4-0.8-0.5c-0.6-0.2-0.8-0.4-0.8-0.9c0-0.3-0.1-0.6-0.2-0.6c-0.5,0.1-0.8-0.1-0.8-0.4
		c0-0.2-0.2-0.5-0.5-0.5c-0.3-0.1-0.5-0.2-0.5-0.3c0-0.1-0.3-0.4-0.7-0.6c-0.7-0.3-0.8-0.7-0.5-2.1c0.1-0.4-0.1-0.5-0.7-0.6
		c-0.8-0.1-0.8-0.2-0.6-2c0.1-0.5,0-0.7-0.7-0.8c-0.7-0.1-0.8-0.2-0.7-1.3c0.2-2.5,0.2-2.4-0.6-2.5c-0.8-0.1-1.1-1.3-0.5-2.7
		c0.2-0.5,0.1-0.6-0.4-0.6c-0.5,0-2.9-1.1-4.5-2c-0.2-0.1-1.1-0.5-1.9-0.9c-0.8-0.4-2.2-1-3.1-1.4c-0.9-0.4-1.7-0.7-1.9-0.7
		c-0.2,0-0.7-0.2-1.1-0.5c-0.4-0.3-1.5-0.6-2.4-0.8c-0.9-0.2-1.9-0.4-2.2-0.6c-0.3-0.2-1.3-0.5-2.2-0.6c-0.9-0.2-1.9-0.5-2.3-0.7
		c-0.4-0.2-2.4-0.5-4.3-0.7c-2-0.2-4-0.5-4.5-0.7c-1.5-0.5-14.5-0.4-16.7,0.1c-1,0.2-3.1,0.5-4.7,0.7c-1.6,0.2-3.2,0.4-3.6,0.6
		c-0.4,0.2-1.4,0.5-2.3,0.6c-0.9,0.2-1.9,0.5-2.2,0.7c-0.3,0.2-1.2,0.5-2.1,0.6c-0.8,0.1-2.1,0.5-2.8,0.9c-0.7,0.4-1.5,0.6-1.7,0.6
		c-0.2,0-0.5,0.1-0.6,0.3c-0.4,0.7-2.7,0.7-2.7,0c0-0.1-0.2-0.2-0.3-0.2c-0.2,0-0.8-0.3-1.3-0.8c-0.5-0.4-1.2-0.8-1.4-0.8
		c-0.2,0-0.7-0.2-1-0.5c-0.3-0.3-1-0.6-1.5-0.8s-1.1-0.5-1.3-0.6c-0.2-0.2-1.1-0.5-2-0.8c-0.9-0.2-1.8-0.6-2-0.7
		C58.4,32.6,58.2,32.6,57.5,33 M42.4,82.2C42,82.5,42.2,83,42.8,83c0.2,0,0.4-0.2,0.4-0.5C43.1,82,42.9,81.9,42.4,82.2 M40.6,85.1
		c0,0.1,0.3,0.4,0.6,0.6c0.6,0.4,0.6,0.4,0.6-0.2c0-0.4-0.2-0.6-0.6-0.6C40.9,84.9,40.6,84.9,40.6,85.1 M39.4,88.2
		c0.1,1.2,0,1.3-0.6,1.4c-0.5,0.1-0.6,0.3-0.6,1.2c0,0.8-0.1,1-0.6,1.1C37.2,92,37,92.2,37,92.5c0,0.3-0.3,0.6-0.6,0.7
		c-0.4,0.1-0.6,0.4-0.6,0.6c0,0.2-0.3,0.5-0.6,0.6c-0.4,0.1-0.6,0.4-0.6,0.6s-0.3,0.5-0.6,0.6c-0.7,0.2-0.8,0.9-0.4,1.5
		c0.5,0.7,4.1,0.6,4.1-0.1c0-0.4,0.2-0.7,0.6-0.8c0.9-0.3,1.1-0.8,1.5-2.7c0.2-1,0.5-2.3,0.8-2.9c0.8-1.8,0.7-3.6-0.3-3.7l-0.8-0.1
		L39.4,88.2 M158.3,132.3c-2.2,4.8-2.9,6.1-3.2,6.1c-0.5,0-0.9,0.8-0.9,1.9c0,0.8,0.1,0.9,0.6,0.9c0.8,0,1.1,1,0.9,2.6
		c-0.4,2.2-0.3,2.6,0.4,2.6c0.9,0,1.1,0.6,0.8,3c-0.1,0.9-0.1,1,0.4,1c0.4,0,0.6,0.2,0.8,1c0.2,1,2.2,2.1,2.4,1.4
		c0-0.1,0.5-0.8,1.1-1.4c1.9-2.3,2.7-4.2,1.7-4.2c-0.5,0-0.7-1.2-0.4-2.5c0.4-1.4,0.2-1.9-0.5-2c-0.9-0.1-1-0.5-0.7-3.9
		c0-0.5-0.1-0.7-0.6-0.7c-0.9-0.1-1-0.4-1-3.7c0-1.7,0-3.2,0-3.4C160,129.8,159.1,130.6,158.3,132.3 M168.6,132.8
		c0.3,0.5-0.3,1.6-1,1.6c-0.6,0-0.6,0-0.6,2.4c0,2.4,0,2.4,0.6,2.4c0.7,0,2.2-1.5,2.2-2.2c0-0.2,0.3-1,0.6-1.6
		c0.8-1.4,0.8-2.1,0.1-2.5C169.9,132.5,168.4,132.4,168.6,132.8"/>
	<path id="path4" class="st4" d="M57.2,32.6c0,0.3-0.8,0.5-1.6,0.4c-0.3-0.1-0.9,0.5-0.9,0.8c0.1,1.2,0,1.7-0.7,1.7
		c-0.5,0-0.6,0.1-0.6,0.6c0,0.5-0.1,0.6-0.6,0.6c-0.5,0-0.6,0.1-0.6,0.6c0,0.5-0.1,0.6-0.6,0.6c-0.6,0-0.6,0.1-0.6,1.3
		c0,1.2,0,1.3-0.7,1.3c-0.8,0-0.8,0.9,0.1,1c0.6,0.1,0.8-0.5,0.9-1.8c0-0.5,0.1-0.7,0.5-0.7c0.3,0,0.5-0.2,0.6-0.8
		c0.1-0.5,0.4-0.9,0.8-1c0.4-0.1,0.6-0.4,0.6-0.5c0-0.4,3.2-3.6,3.5-3.6c0.2,0,0.3-0.2,0.3-0.5c0-0.3-0.1-0.5-0.1-0.5
		C57.2,32.2,57.2,32.4,57.2,32.6 M49.5,42.6c0,0.5-0.1,0.8-0.4,0.7c-0.4-0.2-1.1,0.3-0.9,0.6c0.6,0.9,1.6-0.2,1.4-1.5
		C49.6,41.9,49.6,42,49.5,42.6 M139.7,44.1c-0.3,1.4-0.1,1.8,0.8,2c0.7,0.2,0.8,0.1,0.8-0.4c0-0.5-0.7-1.1-1.3-1.2
		c-0.1,0-0.1-0.3-0.1-0.6C140.2,42.9,139.9,43.1,139.7,44.1 M48.2,46.6c0,0.8-0.1,1-0.7,1c-0.5,0-0.6,0.1-0.6,0.6
		c0,0.6,0.5,0.7,1.3,0.3c0.4-0.2,0.6-1.5,0.3-2.2C48.3,45.7,48.3,45.7,48.2,46.6 M141.1,48.9c0,0.3,0,0.5-0.1,0.6
		c0,0.1,0.3,0.3,0.8,0.4c0.8,0.2,0.8,0.1,0.8-0.5C142.5,48.4,141.1,48,141.1,48.9 M47,50c0,0.3,0.2,0.4,0.7,0.4c1.7,0,2.4,0.3,2.2,1
		c-0.2,0.6-2,2.6-2.4,2.6c-0.1,0-0.3,0.4-0.4,0.9c-0.1,0.7-0.3,0.9-0.8,0.9c-0.9,0-0.9,4,0,4.1c0.5,0.1,0.6,0.3,0.7,1.7
		c0.1,1.2,0.2,0.7,0.2-2c0-2.2,0.2-3.9,0.3-4.2c0.4-0.7,2.4-2.7,2.8-2.7c0.1,0,0.3-0.1,0.3-0.3c0-0.1,0.2-0.4,0.4-0.7
		c0.6-0.6,0.5-1.3-0.2-1.6C49.4,49.6,47,49.5,47,50 M142.3,51.5c-0.2,0.8,0,1.1,0.9,1.2c0.5,0.1,0.8,0,0.8-0.2
		c0-0.2-0.3-0.3-0.8-0.3c-0.7,0-0.8-0.1-0.6-0.6c0.1-0.4,0.1-0.6,0-0.6C142.5,50.9,142.3,51.1,142.3,51.5 M143.5,54.3
		c-0.1,1,1.5,1.7,1.7,0.8c0.1-0.3-0.1-0.4-0.7-0.4c-0.5,0-0.8-0.1-0.9-0.4C143.5,53.9,143.5,53.9,143.5,54.3 M145.3,56.2
		c0.3,0.1,0.6,0.4,0.7,0.7c0.2,0.4,0.2,0.4,0.2-0.2c0-0.6-0.1-0.7-0.7-0.7C144.9,56,144.9,56,145.3,56.2 M63.8,56.7
		c-0.3,0.3-0.8,0.7-1.2,0.9c-1.9,1-11.1,10.2-11.6,11.7c-0.2,0.5-0.5,0.9-1.7,2.2c-0.4,0.4-0.8,0.9-0.8,1.3
		c-0.1,0.4-0.4,0.6-0.8,0.6c-0.9,0-0.8,1.1,0.2,1.2c0.7,0.1,1.5-0.9,1.5-1.9c0-0.2,0.2-0.4,0.4-0.4c0.2,0,0.5-0.3,0.8-0.7
		c0.2-0.4,0.5-0.8,0.7-0.9c0.2-0.1,0.4-0.5,0.5-0.8c0.1-0.4,0.7-1.3,1.4-1.9c0.7-0.7,1.3-1.4,1.3-1.6c0-0.2,0.2-0.4,0.5-0.5
		c0.3-0.1,0.6-0.4,0.7-0.7c0.1-0.3,0.3-0.5,0.5-0.5c0.2,0,0.5-0.2,0.6-0.5c0.1-0.3,0.6-0.8,1.1-1.3c0.4-0.4,1-0.9,1.3-1.1
		c0.3-0.1,0.5-0.4,0.5-0.6c0-0.2,0.2-0.4,0.3-0.4c0.2,0,0.7-0.3,1.1-0.7s1.1-1,1.6-1.3c0.5-0.4,1.1-0.9,1.5-1.2
		c1-0.9,1.6-0.8,3.8,1.2c0.4,0.3,1,0.7,1.4,0.7c0.4,0.1,0.7,0.4,0.8,0.6c0.1,0.3,0.3,0.6,0.6,0.6c0.2,0.1,0.7,0.4,1.1,0.7
		c0.3,0.3,0.7,0.7,0.9,0.8c0.9,0.8,3.8,4,3.9,4.4c0.1,0.4,1.3,2,2,2.8c0.2,0.2,0.6,0.8,0.8,1.3c0.4,0.8,0.9,1.7,2.4,4.3
		c0.4,0.6,0.8,1.3,1,1.6c0.2,0.3,0.3,0.7,0.3,1c0,0.2,0.2,0.7,0.5,1c0.3,0.3,0.6,1,0.8,1.5c0.2,0.5,0.5,1,0.6,1.1
		c0.2,0.1,0.5,0.7,0.6,1.4c0.2,0.7,0.5,1.4,0.7,1.6c0.2,0.2,0.4,0.8,0.5,1.3c0.1,0.6,0.4,1.2,0.6,1.5c0.3,0.3,0.6,1,0.8,1.6
		c0.2,0.6,0.4,1.3,0.6,1.5c0.2,0.2,0.4,0.9,0.5,1.5c0.1,0.6,0.4,1.5,0.6,1.8c0.3,0.4,0.6,1.1,0.7,1.7c0.1,0.6,0.4,1.3,0.6,1.6
		c0.6,0.8,0.5,1.4-0.1,2.2c-0.3,0.4-0.5,0.8-0.5,0.9c0,0.2-0.3,0.7-0.6,1.2c-0.4,0.5-0.6,1.1-0.6,1.4s-0.3,0.9-0.6,1.4
		c-0.4,0.5-0.6,1.1-0.6,1.3c0,0.2-0.2,0.6-0.5,0.9c-0.3,0.2-0.6,0.9-0.8,1.4c-0.2,0.5-0.5,1.2-0.8,1.5c-0.3,0.3-0.5,0.8-0.5,1
		c0,0.2-0.3,0.8-0.6,1.3c-0.4,0.5-0.6,1-0.6,1.1c0,0.2-0.3,0.7-0.6,1.1c-0.4,0.5-0.6,1-0.6,1.3c0,0.2-0.2,0.7-0.4,1
		c-0.2,0.4-0.6,1.1-0.9,1.7c-0.3,0.6-0.7,1.2-0.9,1.4c-0.2,0.2-0.4,0.5-0.4,0.6c0,0.2-0.3,1-0.8,1.8c-0.4,0.8-0.8,1.7-0.8,1.9
		c0,0.2-0.1,0.3-0.3,0.3c-0.1,0-0.4,0.4-0.7,1c-0.2,0.5-0.6,1.2-0.9,1.5c-0.3,0.3-0.5,1-0.6,1.6c-0.1,0.5-0.3,1.1-0.5,1.1
		c-0.2,0.1-0.5,0.6-0.7,1.1c-0.2,0.5-0.5,1.2-0.8,1.4c-0.3,0.2-0.5,0.8-0.6,1.2c-0.1,0.4-0.3,0.9-0.5,1.1c-0.2,0.2-0.4,0.4-0.4,0.6
		c0,0.4-1.8,4-2.2,4.6c-0.2,0.2-0.5,0.9-0.6,1.5c-0.1,0.6-0.5,1.4-0.7,1.7c-0.3,0.4-0.5,0.9-0.5,1.2c0,0.3-0.3,0.9-0.6,1.4
		c-0.4,0.5-0.6,1.1-0.6,1.4c0,0.3-0.3,1.1-0.6,1.8s-0.6,1.6-0.6,1.9c0,0.4-0.2,1-0.5,1.3c-0.3,0.4-0.6,1.3-0.8,2
		c-0.2,1.3-1.2,3.8-1.5,3.8c-0.1,0-0.6-0.4-1.2-1c-0.6-0.5-1.5-1.3-2-1.7c-0.5-0.4-1.6-1.4-2.5-2.3c-0.9-0.9-1.7-1.6-1.9-1.6
		c-0.2,0-0.3-0.2-0.3-0.4c0-0.3-0.7-1.1-3.2-3.8c-0.3-0.3-0.7-0.9-0.8-1.2c-0.2-0.4-0.5-0.7-0.7-0.7c-0.2,0-0.4-0.2-0.4-0.5
		c0-0.3-0.3-0.9-0.8-1.3c-0.4-0.5-0.8-1-0.8-1.2c0-0.2-0.2-0.4-0.4-0.6c-0.2-0.2-0.6-0.8-0.9-1.4c-0.3-0.6-0.6-1.1-0.7-1.1
		c-0.1,0-0.3-0.3-0.4-0.7c-0.1-0.4-0.4-0.9-0.6-1.2c-0.3-0.2-0.6-0.9-0.6-1.4c-0.2-1.3-0.9-1.8-2.3-2l-1.2-0.1l0,2.4
		c0,2.1,0.1,2.2,0.1,0.6l0.1-1.7l0.9,0.2c1,0.2,1.6,0.7,1.6,1.4c0,0.2,0.3,0.8,0.6,1.3c0.3,0.5,0.7,1.1,0.8,1.4
		c0.1,0.3,0.3,0.5,0.4,0.5c0.1,0,0.4,0.4,0.7,1c0.6,1.2,2.9,4.7,3.3,5c0.2,0.1,0.6,0.7,1,1.3c1.4,2.1,7,8,8.5,9
		c0.4,0.2,0.8,0.7,1.1,1c0.3,0.3,0.6,0.6,0.7,0.6c0.1,0,0.5,0.2,0.7,0.5c1.2,1.2,2.6,0.2,3.1-2.4c0.2-1,0.5-1.9,0.7-2.1
		c0.2-0.2,0.4-0.9,0.6-1.6c0.2-0.7,0.4-1.5,0.6-1.9c0.2-0.3,0.5-1.1,0.6-1.8c0.2-0.7,0.5-1.6,0.8-2c0.3-0.5,0.6-1.1,0.7-1.5
		c0.1-0.4,0.4-0.8,0.6-1.1c0.2-0.2,0.5-0.9,0.6-1.5c0.1-0.6,0.4-1.3,0.6-1.5c0.2-0.2,0.5-0.8,0.7-1.3c0.2-0.5,0.5-1.2,0.8-1.5
		c0.2-0.3,0.5-0.9,0.6-1.3c0.1-0.4,0.3-0.8,0.4-0.8c0.1,0,0.4-0.6,0.7-1.3c0.2-0.7,0.6-1.4,0.8-1.5c0.2-0.1,0.5-0.6,0.6-1.1
		c0.2-0.5,0.5-1,0.6-1.2c0.2-0.1,0.5-0.7,0.6-1.3c0.2-0.6,0.4-1.2,0.6-1.5c0.2-0.2,0.5-0.8,0.7-1.3c0.2-0.5,0.4-1,0.5-1
		c0.3,0,2.3-4.1,2.3-4.7c0-0.2,0.1-0.4,0.3-0.4c0.1,0,0.5-0.5,0.8-1.1c0.3-0.6,0.6-1.2,0.7-1.3c0.1-0.1,0.4-0.7,0.7-1.4
		c0.2-0.7,0.5-1.3,0.7-1.3c0.1,0,0.2-0.2,0.2-0.3c0-0.2,0.3-0.8,0.8-1.5c0.4-0.6,0.8-1.3,0.8-1.5c0-0.2,0.2-0.7,0.5-1.1
		c0.3-0.4,0.6-1.1,0.8-1.6c0.1-0.5,0.5-1.2,0.7-1.4c0.3-0.3,0.5-0.7,0.5-0.8c0-0.2,0.3-0.7,0.6-1.1c0.4-0.5,0.6-1.1,0.6-1.3
		c0-0.4,1.4-3.2,2.1-4.4c0.6-0.8,0.5-2.7-0.2-3.5c-0.2-0.2-0.5-0.9-0.6-1.4c-0.1-0.5-0.4-1.2-0.6-1.5c-0.2-0.3-0.6-1.2-0.8-2
		c-0.2-0.8-0.5-1.6-0.7-1.7C89,89,88.8,88.4,88.7,88c-0.1-0.5-0.4-1.1-0.6-1.5c-0.3-0.3-0.6-1.1-0.8-1.7c-0.2-0.6-0.5-1.3-0.6-1.5
		c-0.2-0.2-0.4-0.7-0.5-1.2c-0.1-0.4-0.5-1.2-0.8-1.6c-0.3-0.5-0.6-1-0.6-1.3c0-0.2-0.2-0.7-0.5-0.9c-0.3-0.3-0.6-1-0.8-1.6
		c-0.2-0.6-0.4-1.1-0.5-1.2c-0.1-0.1-0.5-0.7-0.8-1.3c-0.3-0.6-0.6-1.1-0.8-1.1c-0.1,0-0.3-0.3-0.4-0.7c-0.2-0.7-1.3-2.7-2-3.4
		c-0.2-0.2-0.4-0.5-0.4-0.6c0-0.1-0.3-0.5-0.8-1c-0.4-0.5-0.8-1-0.8-1.2c0-0.2-0.5-0.8-1.1-1.5s-1.6-1.7-2.1-2.2
		c-0.5-0.6-1-1.1-1.1-1.1c-0.1,0-0.8-0.5-1.5-1.2c-0.7-0.7-1.8-1.5-2.3-1.9s-1.5-1-2-1.3C65.8,56.1,64.5,56,63.8,56.7 M147,57.9
		c0,0.5,0.2,0.7,0.8,0.9c0.4,0.1,0.8,0.4,0.8,0.5c0,0.3,1.7,2,2,2c0.1,0,0.4,0.3,0.7,0.6c0.2,0.4,0.7,0.6,0.9,0.6
		c0.3,0,0.5,0.1,0.4,0.2c-0.2,0.2,0.3,1.1,0.7,1.1c0.2,0,0.4,0.3,0.4,0.6c0.1,0.4,0.3,0.6,0.7,0.7c0.3,0,0.7,0.3,0.8,0.7
		c0.1,0.3,0.4,0.6,0.6,0.6s0.4,0.3,0.5,0.6c0.1,0.5,0.2,0.6,1,0.6c0.5,0,0.9,0.1,0.9,0.3c0,0.2,0,0.4,0.1,0.6c0,0.1,0.3,0.3,0.6,0.3
		c0.4,0,0.5-0.1,0.4-0.6c-0.1-0.4-0.2-0.6-0.6-0.5c-0.3,0-0.6-0.2-0.7-0.7c-0.2-0.4-0.4-0.7-0.7-0.7c-0.3,0-0.5-0.3-0.6-0.6
		c-0.1-0.4-0.4-0.7-0.7-0.7c-0.3,0-0.6-0.3-0.6-0.5c0-0.2-0.3-0.5-0.6-0.6c-0.3-0.1-0.6-0.5-0.7-0.8c-0.1-0.3-0.3-0.6-0.6-0.6
		c-0.3,0-0.5-0.2-0.6-0.6c-0.1-0.6-0.3-0.6-1.3-0.6c-1,0-1.1-0.1-1.2-0.6c-0.1-0.4-0.3-0.6-0.8-0.7c-0.6-0.1-0.7-0.2-0.7-0.7
		c0-0.5-0.1-0.6-0.6-0.6c-0.5,0-0.6-0.1-0.6-0.6c0-0.4-0.1-0.6-0.3-0.6C147.1,57.2,147,57.5,147,57.9 M160.5,70.6
		c0,0.5,0.2,0.7,1,0.8l1,0.2l0,1.5c0,2.1,0.4,2.1,0.4,0c0-1.8,0-1.8-0.6-1.8c-0.5,0-0.6-0.1-0.6-0.6c0-0.5-0.1-0.6-0.5-0.6
		C160.7,70,160.5,70.2,160.5,70.6 M43.3,79.1c-0.1,0.1-0.2,0.7-0.2,1.3c0,1-0.1,1.1-0.6,1.1c-0.6,0-0.6,0.1-0.6,1.3s0,1.3-0.6,1.3
		c-0.4,0-0.6,0.1-0.6,0.4c0,0.4,0.7,0.7,1,0.5c0.1-0.1,0.2,0.2,0.2,0.5c0,0.6,0,0.6-0.6,0.2c-0.6-0.4-0.6-0.4-0.6,0.2
		c0,0.5-0.1,0.7-0.7,0.7c-0.4,0-0.6,0.1-0.5,0.3c0.1,0.1,0.4,0.3,0.8,0.3c0.8,0,0.9,2,0.1,3.7c-0.3,0.6-0.6,1.9-0.8,2.9
		c-0.3,1.9-0.6,2.4-1.5,2.7c-0.9,0.4-0.8,1.5,0.2,1.5c0.6,0,0.8-0.1,0.8-0.6c0-0.4,0.2-0.7,0.5-0.7c0.4-0.1,0.5-0.5,0.7-1.6
		c0.1-0.8,0.4-2,0.6-2.5c0.3-0.6,0.5-1.6,0.6-2.3c0.1-0.7,0.4-1.5,0.6-1.7c0.2-0.2,0.4-1,0.5-1.8c0.1-0.9,0.3-1.6,0.7-2.1
		c0.3-0.4,0.6-1,0.6-1.2c0-0.3,0.2-0.9,0.4-1.4C45.1,80.3,44.3,78.1,43.3,79.1 M43.1,82.5c0,0.3-0.2,0.5-0.4,0.5
		c-0.5,0-0.8-0.5-0.4-0.8C42.9,81.9,43.1,82,43.1,82.5 M39.3,88.6c0,0.4-0.2,0.6-0.7,0.6c-0.4,0-0.6,0.1-0.6,0.3
		c0,0.2,0.2,0.3,0.7,0.2c0.7-0.1,1-0.5,0.8-1.3C39.4,88.1,39.4,88.1,39.3,88.6 M36.7,91.1c0,0.5-0.1,0.6-0.6,0.6
		c-0.5,0-0.6,0.1-0.6,0.6S35.3,93,34.8,93c-0.5,0-0.6,0.1-0.6,0.6s-0.1,0.6-0.6,0.6c-0.5,0-0.6,0.1-0.6,0.6s-0.1,0.6-0.6,0.6
		c-0.6,0-0.6,0.1-0.6,1.8v1.8h1.8c1.7,0,1.8,0,1.8-0.6c0-0.4,0.2-0.7,0.4-0.8c0.2-0.1-0.1-0.1-0.8,0c-1.7,0.2-2.5-1.4-1.1-1.9
		c0.4-0.1,0.6-0.4,0.6-0.6s0.3-0.5,0.6-0.6c0.4-0.1,0.6-0.4,0.6-0.6c0-0.2,0.3-0.5,0.6-0.6c0.4-0.1,0.6-0.4,0.6-0.8
		c0-0.3,0.2-0.5,0.5-0.5c0.6,0,0.9-0.4,0.7-1C37.9,90.1,36.7,90.2,36.7,91.1 M94.2,112.7c-1.3,2.7-2.3,5.2-2.3,5.5
		c0,0.1-0.2,0.5-0.5,0.9c-0.3,0.3-0.6,1.1-0.8,1.7c-0.2,0.6-0.4,1.2-0.7,1.4c-0.2,0.2-0.4,0.8-0.5,1.4c-0.1,0.6-0.4,1.4-0.6,1.7
		c-0.3,0.3-0.5,0.9-0.6,1.3c-0.1,0.4-0.3,1-0.5,1.3c-0.3,0.6-0.9,1.9-1.8,4.6c-0.2,0.6-0.7,1.7-1,2.4c-0.3,0.7-0.6,1.5-0.6,1.7
		c0,0.2-0.2,0.7-0.5,1.2c-0.3,0.4-0.6,1.5-0.8,2.3c-0.1,0.8-0.4,1.7-0.6,2c-0.2,0.3-0.4,1-0.5,1.5c-0.1,0.6-0.4,1.4-0.6,1.9
		c-0.2,0.5-0.6,1.7-0.8,2.6s-0.5,2.3-0.7,3.1c-0.4,1.5-0.8,13.1-0.5,14.4c0.2,0.9,2.1,1.8,4.5,2.2c1,0.2,2.1,0.5,2.4,0.7
		c0.3,0.2,1.5,0.5,2.7,0.6c1.2,0.1,2.7,0.5,3.4,0.7c1.9,0.7,15.4,0.7,17.4,0c0.7-0.2,2.2-0.6,3.4-0.7c1.2-0.1,2.4-0.4,2.7-0.6
		c1-0.6,1.4-0.7,2-0.2c0.9,0.7,1.7,0.8,1.7,0.3c0-0.4-0.1-0.5-0.6-0.3c-0.5,0.1-0.6,0.1-0.6-0.4c0-0.7-2.8-0.6-3.9,0.1
		c-0.4,0.3-1.7,0.5-3.5,0.7c-1.6,0.1-3.5,0.4-4.3,0.6c-1,0.2-2.8,0.4-5.5,0.4c-2.7,0-4.5-0.1-5.5-0.4c-0.8-0.2-2.7-0.5-4.3-0.6
		c-1.6-0.2-3.1-0.4-3.4-0.6c-0.3-0.2-1.3-0.5-2.3-0.6s-2-0.4-2.3-0.6c-0.3-0.2-1.1-0.4-1.8-0.6l-1.3-0.3l-0.1-5.6
		c-0.1-4.6,0-5.7,0.3-6.4c0.2-0.5,0.5-2,0.7-3.4c0.2-1.7,0.4-2.9,0.8-3.4c0.3-0.5,0.6-1.4,0.7-2.2c0.1-0.7,0.3-1.3,0.4-1.3
		c0.3,0,0.7-1.2,0.9-2.6c0.1-0.7,0.4-1.6,0.6-2c0.2-0.4,0.5-1.1,0.6-1.7c0.1-0.6,0.4-1.3,0.7-1.6c0.3-0.3,0.5-1,0.6-1.5
		c0.1-0.5,0.4-1.2,0.6-1.5c0.2-0.3,0.5-1.1,0.6-1.8c0.1-0.7,0.4-1.5,0.6-1.8c0.3-0.3,0.5-1,0.6-1.4c0.1-0.4,0.4-1.1,0.7-1.4
		s0.5-1.2,0.6-1.8c0.1-0.7,0.3-1.3,0.5-1.4c0.2-0.1,0.5-0.6,0.7-1.2c0.2-0.6,0.5-1.4,0.8-1.7c0.2-0.3,0.5-0.9,0.6-1.4
		c0.1-0.4,0.3-1,0.5-1.1c0.4-0.4,0.9-1.9,0.9-2.7c0-0.2,0.1-0.4,0.3-0.4c0.3,0,1-1.4,1-2c0-1.2,1.5,0.5,1.7,1.9
		c0.2,1.4,0.5,2.5,0.9,2.7c0.1,0.1,0.4,1.1,0.6,2.2c0.2,1.1,0.6,2.6,0.8,3.2c0.2,0.6,0.5,1.6,0.5,2.1c0.1,0.5,0.3,1.1,0.5,1.3
		c0.2,0.2,0.4,0.9,0.5,1.6c0.1,0.7,0.4,1.6,0.7,2.1c0.3,0.5,0.6,1.6,0.7,2.5c0.1,0.9,0.4,1.9,0.6,2.2c0.2,0.3,0.5,1.1,0.7,1.8
		c0.2,0.7,0.5,1.6,0.8,2c0.3,0.4,0.5,1.3,0.6,1.9c0.1,0.6,0.4,1.5,0.7,2c0.3,0.5,0.5,1.2,0.5,1.5c0,0.3,0.2,0.8,0.5,1.2
		c0.3,0.3,0.6,1.1,0.8,1.8c0.2,0.6,0.5,1.3,0.6,1.5c0.2,0.2,0.5,0.9,0.6,1.5c0.4,2,3.4,4.2,3.4,2.6c0-0.4-0.1-0.5-0.6-0.4
		c-0.4,0.1-0.6,0-0.6-0.2c0-0.2-0.3-0.6-0.6-0.9c-0.4-0.4-0.7-1-0.8-1.7c-0.1-0.6-0.4-1.4-0.6-1.7c-0.3-0.3-0.5-1-0.6-1.5
		s-0.4-1.2-0.7-1.6s-0.6-1.2-0.8-2c-0.2-0.8-0.4-1.6-0.6-1.9c-0.2-0.3-0.4-1-0.6-1.7c-0.2-0.6-0.5-1.6-0.8-2.2
		c-0.3-0.6-0.5-1.2-0.5-1.5s-0.2-1-0.5-1.5c-0.3-0.6-0.6-1.8-0.8-2.7c-0.1-0.9-0.4-1.8-0.6-2c-0.2-0.2-0.5-1.1-0.6-1.9
		c-0.2-0.8-0.4-1.8-0.6-2c-0.2-0.3-0.5-1.4-0.7-2.4c-0.2-1.1-0.5-2.2-0.7-2.4c-0.2-0.3-0.5-1.2-0.6-2c-0.2-0.8-0.4-1.7-0.6-2
		c-0.2-0.3-0.4-1.1-0.5-1.7C97,110,95.7,109.5,94.2,112.7 M111.1,130.9c-0.3,0.1-0.6,0.3-0.7,0.6c-0.1,0.3-0.4,0.5-0.7,0.6
		c-0.6,0.1-0.6,0.1-0.6,4.5c0,2.5,0,4.2,0.1,3.9c0.1-0.4,0.3-0.6,0.7-0.6h0.6v-3.8c0-3.6,0-3.8,0.5-3.8c0.3,0,0.6-0.2,0.7-0.6
		c0.2-0.8,0.9-0.8,0.9,0c0,0.7,1.1,0.8,1.2,0.1C113.7,130.8,112.9,130.6,111.1,130.9 M160.1,133.2c0,1,0,1.4,0.1,0.8
		c0.1-0.5,0.1-1.3,0-1.8C160.1,131.8,160.1,132.2,160.1,133.2 M168.2,133.1c0,0.6-0.1,0.7-0.6,0.7c-0.4,0-0.6,0.1-0.6,0.3
		c0,0.1,0.3,0.3,0.6,0.3c0.7,0,1.4-1.1,0.9-1.6C168.3,132.5,168.2,132.6,168.2,133.1 M160.1,136.1c0,1.4,0.1,1.7,1,1.8
		c0.7,0.1,0.7,0.1,0.7-0.7c0-0.8-0.1-0.9-0.7-0.9c-0.6,0-0.8-0.1-0.9-0.7C160.1,135.2,160.1,135.4,160.1,136.1 M41.9,138.4
		c0,0.1,0.3,0.3,0.6,0.3c0.5,0,0.6,0.1,0.6,0.8c0,0.6-0.1,0.8-0.6,0.8c-0.6,0-0.6,0.1-0.7,1.3c-0.1,1.1-0.2,1.3-0.6,1.3
		c-0.4,0-0.5,0.2-0.6,1.2c-0.1,1.1-0.1,1.2-0.7,1.2c-0.4,0-0.6,0.1-0.6,0.4c0,0.9,1.4,0,1.5-1c0.1-0.7,0.2-0.9,0.5-0.9
		c0.6,0,0.8-0.5,0.8-1.7c0-0.7,0.1-0.9,0.5-0.9c0.5,0,1.1-2.1,0.6-2.5C42.8,138.3,41.9,138.1,41.9,138.4 M166.9,139.8
		c0,0.5,0.1,0.6,0.6,0.6c0.9-0.1,0.9-1.2,0-1.2C167,139.2,166.9,139.3,166.9,139.8 M161.4,141.4c0.2,1.1,0.1,1,0.8,1.2
		c0.3,0,0.6,0.2,0.7,0.3c0.1,0.1,0.2-0.2,0.2-0.7c0-0.8-0.1-1-0.5-1c-0.3,0-0.6-0.2-0.7-0.4C161.6,140.1,161.2,140.4,161.4,141.4
		 M154.1,141.8c0,0.5,0.1,0.6,0.6,0.6c0.6,0,0.6,0.1,0.7,1.1l0,1.1l0.2-1c0.2-1.4-0.1-2.4-0.9-2.4
		C154.3,141.2,154.1,141.3,154.1,141.8 M110.2,144.8c0.3,0.6,0.5,0.8,1.1,0.7l0.7,0l-0.7-0.1c-0.5-0.1-0.7-0.2-0.7-0.7
		c0-0.4-0.1-0.6-0.4-0.6C109.8,144,109.8,144.1,110.2,144.8 M162.6,145.5c0,1,0.2,1.6,0.6,1.6c0.2,0,0.5,0.2,0.6,0.4
		c0.2,0.4,0.3,0.4,0.3-0.2c0-0.4,0.1-0.8,0.1-1.1c0.1-0.4,0-0.5-0.7-0.5c-0.2,0-0.5-0.3-0.6-0.5
		C162.6,144.7,162.6,144.7,162.6,145.5 M155.4,146.9c0,0.5,0.1,0.7,0.6,0.7c0.5,0,0.6,0.1,0.7,0.7c0,0.7,0,0.7,0.2,0.1
		c0.4-0.9-0.1-2-0.8-2.1C155.5,146.3,155.4,146.4,155.4,146.9 M38.2,146.7c-0.6,0.6-0.2,1.6,0.5,1.4c0.9-0.2,1-1.4,0.2-1.5
		C38.6,146.6,38.3,146.6,38.2,146.7 M38,149.4c0,0.1,0.4,0.7,0.9,1.2c0.5,0.5,1.4,1.6,1.9,2.3c2,2.6,4.8,5.8,7.3,8.2
		c3.8,3.7,4.2,4.1,4.9,4.2c1.2,0.3,1.3,0.3,1.1,0.8c-0.1,0.5,0,0.5,1.6,0.5c1.6,0,1.7-0.1,1.7-0.6c0-0.4,0.2-0.5,1-0.6
		c0.6-0.1-0.2-0.2-2.1-0.3c-3-0.1-3.1-0.1-4-0.9c-2.3-2.1-5.4-5.1-5.7-5.4c-0.2-0.2-0.5-0.6-0.8-0.9c-1.1-1.2-4.7-5.6-4.7-5.7
		c0-0.1-0.6-0.9-1.3-1.7C38.7,149.2,38,148.8,38,149.4 M156.7,150.7c0,0.6,0,0.7,0.6,0.7c0.6,0,0.6,0.1,0.7,1.2c0.1,1.4,1,2,1.3,0.7
		c0.1-0.7,0-0.9-0.6-0.9c-0.3,0-0.5-0.3-0.7-1.1C157.8,150,156.8,149.5,156.7,150.7 M68.4,165.4c0.8,0.1,0.9,0.2,0.8,0.7
		c-0.1,0.6-0.1,0.6,1.1,0.6c1.2,0,1.2,0,1.1-0.7c-0.1-0.7-0.1-0.7-2-0.7C68.4,165.3,67.9,165.3,68.4,165.4 M74.4,166.7
		c0.6,0.1,0.8,0.3,1,0.7c0.2,0.9,1.7,0.9,1.6,0c0-0.8-0.4-1-2-0.9C74.2,166.5,73.9,166.6,74.4,166.7 M78.7,167.9
		c0.1,0.1,0.2,0.4,0.2,0.7c0,0.6,0.1,0.6,1.3,0.6c1.2,0,1.3,0,1.3,0.6c0,0.4,0.1,0.6,0.3,0.6c0.4,0,0.3-1.2-0.1-1.4
		c-0.2-0.1-0.7-0.2-1.1-0.2c-0.5,0-0.6-0.1-0.5-0.5c0.1-0.4,0-0.5-0.3-0.5c-0.3,0-0.6,0-0.8-0.1C78.6,167.9,78.6,167.9,78.7,167.9
		 M119.4,170.2c0,0.4,0.2,0.7,0.5,0.8c0.3,0.1,0.5,0.4,0.6,0.7c0.1,0.6,1.1,1.1,1.4,0.7c0.1-0.1-0.1-0.2-0.5-0.2
		c-0.6,0-0.7-0.1-0.7-1.3c0-1.2,0-1.3-0.6-1.3C119.6,169.5,119.4,169.7,119.4,170.2 M83.1,170.5c-1.2,0.3-0.5,1.4,0.8,1.4
		c1.2,0,1.3,0,1.3,0.6c0,0.5,0.1,0.6,0.6,0.6s0.6,0.1,0.6,0.6c0,0.5,0.1,0.6,0.5,0.6c0.4,0,0.5-0.1,0.4-0.4
		c-0.1-0.2-0.2-0.5-0.2-0.6c0-0.1-0.3-0.3-0.8-0.5c-0.4-0.2-0.8-0.5-0.8-0.7c0-0.2-0.3-0.4-0.7-0.5c-0.4-0.1-0.8-0.4-0.9-0.8
		C84,170.3,83.9,170.3,83.1,170.5 M121.9,173.8c-0.4,0.4-0.1,0.9,0.5,1.1c0.8,0.3,1,0.2,0.8-0.6C123,173.7,122.3,173.4,121.9,173.8
		 M87.8,175c0.1,0.4,0.3,0.6,0.7,0.7c0.4,0.1,0.6,0.3,0.6,0.7c0,0.6,0.1,0.6,1.3,0.6c1.2,0,1.3,0,1.3,0.6c0,0.5,0.1,0.6,0.6,0.6
		s0.6,0.1,0.6,0.6c0,0.5,0.1,0.6,0.6,0.6c0.3,0,0.5-0.1,0.3-0.2c-0.2-0.1-0.3-0.4-0.4-0.7c-0.1-0.3-0.4-0.6-0.7-0.8
		c-0.3-0.1-0.6-0.4-0.6-0.6c0-0.2-0.3-0.4-0.7-0.5c-0.4-0.1-0.8-0.4-0.9-0.8c-0.1-0.4-0.4-0.6-0.7-0.6c-0.3,0-0.6-0.2-0.7-0.5
		C88.9,174.1,87.7,174.2,87.8,175 M123.3,176.4c0,0.3,0,0.6,0,0.7c0,0.1,0.3,0.3,0.7,0.4c0.6,0.2,0.6,0.1,0.6-0.6
		C124.4,175.9,123.3,175.5,123.3,176.4 M122.3,178.9c-0.9,0.2-1.8,0.5-2,0.6c-0.2,0.1-1.4,0.4-2.5,0.5c-1.1,0.2-2.4,0.5-2.8,0.7
		c-0.4,0.2-2.1,0.5-3.7,0.6c-1.6,0.1-4.2,0.4-5.7,0.6c-1.5,0.2-3.5,0.4-4.4,0.4c-0.9,0-1.7,0.1-1.9,0.3c-0.2,0.2-0.3,0.2-0.3-0.1
		c0-0.3-0.3-0.5-0.8-0.6c-0.4-0.1-1-0.4-1.2-0.8c-0.6-0.9-1.6-0.8-1.6,0.1c0,0.7,0,0.8,1.3,0.8c1.2,0,1.3,0,1.3,0.7v0.7l1.9-0.2
		c1-0.1,3.5-0.3,5.4-0.4c2-0.1,3.9-0.3,4.3-0.5c0.4-0.1,2-0.4,3.4-0.5c1.5-0.2,3-0.4,3.4-0.6c0.4-0.2,1.6-0.5,2.7-0.6
		c2-0.3,4.5-1.1,5.2-1.7C124.8,178.4,124.5,178.4,122.3,178.9 M94.2,180.1c0,0.5,0.1,0.6,0.5,0.6c0.4,0,0.5-0.2,0.5-0.6
		s-0.1-0.6-0.5-0.6C94.3,179.5,94.2,179.7,94.2,180.1"/>
</g>
</svg>
