<svg width="32" height="32" fill="none" xmlns="http://www.w3.org/2000/svg"><path d="M16 2a14 14 0 1014 14A14.016 14.016 0 0016 2z" fill="#fff"/><path d="M15.488 16.252c-.126.273-.265.579-.408.9a22.963 22.963 0 00-1.28 3.453c-.083.38-.123.767-.119 1.155 0 .174.009.356.024.542a6.658 6.658 0 004.413.067 3.965 3.965 0 01-.44-.466c-.9-1.146-1.4-2.827-2.194-5.652M12.169 10.556a6.676 6.676 0 00-.077 10.881c.411-1.71 1.44-3.276 2.983-6.415-.092-.252-.2-.527-.313-.817a10.207 10.207 0 00-1.6-2.882 4.44 4.44 0 00-1-.767" fill="#91DC47"/><path d="M21.84 23.7a10.878 10.878 0 01-2.257-.471 8.036 8.036 0 01-8.867-13.247 5.9 5.9 0 00-1.4-.171c-2.358.022-4.848 1.327-5.884 4.852-.072.45-.096.906-.074 1.361a12.65 12.65 0 0023 7.274 14.734 14.734 0 01-3.448.459 8.875 8.875 0 01-1.07-.057z" fill="#63B132"/><path d="M19.463 21.244c.162.07.33.127.5.172a6.689 6.689 0 00-2.931-12.005 6.681 6.681 0 00-3.122.264c1.358 1.548 2.011 3.761 2.643 6.181 0 0 .2.673.547 1.562.36.973.816 1.907 1.363 2.788.242.423.585.78 1 1.036" fill="#90B4FE"/><path d="M16.013 3.372A12.632 12.632 0 005.731 8.656a6.425 6.425 0 013.48-1.009 6.8 6.8 0 013.182.772c.134.077.261.16.386.246a8.038 8.038 0 018.882 13.077c.38.043.761.065 1.143.064a6.24 6.24 0 004.051-1.263 5.348 5.348 0 001.7-2.906A12.632 12.632 0 0016.013 3.372z" fill="#5881D8"/></svg>