<?xml version="1.0" encoding="utf-8"?>
<!-- Generator: Adobe Illustrator 25.2.1, SVG Export Plug-In . SVG Version: 6.00 Build 0)  -->
<svg version="1.1" id="Layer_1" xmlns="http://www.w3.org/2000/svg" xmlns:xlink="http://www.w3.org/1999/xlink" x="0px" y="0px"
	 viewBox="0 0 147.4 147.4" style="enable-background:new 0 0 147.4 147.4;" xml:space="preserve">
<style type="text/css">
	.st0{fill:#32A4DD;}
	.st1{fill:#8EC043;}
	.st2{fill:#005794;}
</style>
<g>
	<g>
		<path class="st0" d="M117.91,44.88c2.57,5.98,4.01,12.56,4.01,19.48c0,27.24-22.08,49.32-49.32,49.32S23.28,91.6,23.28,64.36
			c0-10.83,3.5-20.84,9.42-28.97c-9.74,9.86-15.75,23.41-15.75,38.36c0,30.16,24.45,54.61,54.61,54.61s54.61-24.45,54.61-54.61
			C126.17,63.15,123.14,53.25,117.91,44.88z"/>
	</g>
	<path class="st1" d="M113.45,51.23c-2.6-8.18-7.56-15.32-14.09-20.59c3.71,3.71,6.69,8.16,8.71,13.1c0.95,1.74,1.77,3.55,2.47,5.43
		c-1.62-1-3.33-1.84-5.11-2.49c2.92,2.94,5.19,6.62,6.47,10.86c0.76,2.54,1.12,5.11,1.11,7.64h0c-0.26,5.67-1.68,11.03-4.02,15.86
		c-0.44-1.91-1.07-3.77-1.9-5.56c-0.01,4.15-1.01,8.35-3.11,12.25c-0.94,1.75-2.05,3.34-3.3,4.78c-4.27,4.15-9.44,7.37-15.2,9.34
		c1.1-1.73,2.02-3.57,2.73-5.5c-2.94,2.92-6.62,5.19-10.86,6.47c-2.54,0.76-5.11,1.12-7.64,1.11l0,0.05
		c-7.51-0.46-14.47-2.94-20.34-6.92c2.13-0.19,4.23-0.62,6.27-1.29c-4.11-0.5-8.17-1.99-11.8-4.54c-2.04-1.43-3.8-3.12-5.3-4.97
		c-2.31-3.37-4.12-7.1-5.33-11.1c0.64,0.17,1.31,0.28,2.01,0.31c0.84,0.03,1.66-0.07,2.44-0.27c-2.87-0.93-5.08-3.28-5.82-6.2
		c-0.11-0.79-0.2-1.58-0.27-2.38c0-0.02,0-0.04,0-0.06l0,0c-0.09-1.09-0.14-2.2-0.14-3.32c0-0.63,0.02-1.25,0.05-1.87
		c-0.05-0.86-0.09-1.72-0.09-2.58c0-5.73,1.22-11.17,3.4-16.09c-3.68,6.36-5.79,13.74-5.79,21.61c0,0.73,0.02,1.45,0.06,2.18
		c0.12,2.4,0.43,4.75,0.93,7.04c1.12,5.15,3.16,9.97,5.94,14.26c2.23,3.45,4.94,6.56,8.04,9.24c7,6.06,15.95,9.91,25.79,10.47
		c0.83,0.05,1.66,0.08,2.5,0.08c3.28,0,6.46-0.38,9.53-1.07c7.53-1.69,14.32-5.35,19.8-10.41c3.18-2.94,5.92-6.35,8.1-10.12
		c3.56-6.14,5.65-13.24,5.8-20.82c0.01-0.28,0.02-0.56,0.02-0.84C115.49,59.75,114.77,55.36,113.45,51.23z"/>
	<g>
		<path class="st2" d="M46.36,66.58c-0.7-0.39-1.44-0.72-2.19-1.02l-0.64-0.25c-1.03-0.41-2.09-0.73-3.16-0.99
			c2.42-1.14,5.13-1.78,7.98-1.78c3.22,0,6.26,0.82,8.91,2.25c1.5,3.77,2.96,7.51,8.19,8.75c1.04,0.25,2.23,0.39,3.6,0.41
			c-0.61,1.11-1.52,1.95-2.49,2.73c-1.68,1.35-3.65,2.39-5.85,3.01c-3.9,1.09-7.86,0.68-11.27-0.88c-1.19-0.55-1.38-2.08-0.54-2.94
			c0.49-0.5,0.98-1.01,1.29-1.65C51.59,71.29,50.13,68.68,46.36,66.58z M25.69,53.54c1.44,5.13,6.32,9.32,11.25,10.13
			c3.29-2.13,7.21-3.38,11.41-3.38c2.67,0,5.22,0.5,7.57,1.42c0-0.01-0.01-0.01-0.01-0.02c4.71,1.96,9.54,4.53,12.45,7.62
			c3.93,4.16,2.95,9.67,2.95,9.67c10.03-10.02,5.41-21.34,5.41-21.34c-15.29,0.65-17.51-12.89-17.51-12.89s-7.06-7.84-28.75-14.63
			C8.79,23.31,5.4,9.72,5.4,9.72C4.61,29.72,26.96,37.95,26.96,37.95C15.33,38.08,5.4,29.06,5.4,29.06
			c2.24,10.95,9.75,16.95,18.73,21.29c0.37,0.18,0.74,0.35,1.11,0.52C25.3,51.76,25.44,52.65,25.69,53.54z M18.23,102.31
			c-0.69-1.2-1.34-2.5-1.94-3.85l0,0c-1.65-3.57-2.95-7.32-3.86-11.14l-0.45,0.06c0.23,6.37,1.35,12.62,3.32,18.59l0.02,0.07
			l0.06,0.04c2.35,1.56,4.86,2.92,7.45,4.05l0.8,0.34l-0.53-0.69C21.32,107.45,19.68,104.93,18.23,102.31z M12.08,80.77
			c-0.28-2.39-0.42-4.73-0.42-6.97c0-7.59,1.42-15.03,4.23-22.09l-0.41-0.19c-3.94,7.04-6.68,14.59-8.13,22.42l-0.01,0.08l0.04,0.07
			c1.25,2.39,2.7,4.69,4.3,6.85l0.5,0.68L12.08,80.77z M26.74,115.5l-1.51-1.53l1.16,1.81c2.91,4.55,6.35,8.7,10.23,12.34l0.06,0.05
			l0.08,0.01c1.34,0.12,2.69,0.18,4.04,0.18c1.11,0,2.23-0.04,3.34-0.12l0.87-0.06l-0.79-0.37
			C37.68,124.76,31.81,120.62,26.74,115.5z M123.32,28.47c-9.07-9.07-20.38-15.08-32.69-17.51c-1.26-0.25-2.54-0.45-3.82-0.62
			c-2.87-0.39-5.78-0.6-8.73-0.6c-1.59,0-3.18,0.07-4.75,0.19c-0.3,0.02-0.6,0.03-0.89,0.06c-1.09,0.09-2.17,0.22-3.24,0.37
			c-7.45,1.03-14.59,3.35-21.16,6.85c-0.16,0.09-0.33,0.17-0.49,0.26c0.17-0.07,0.34-0.14,0.51-0.22
			c6.78-2.91,14.08-4.58,21.56-4.91c1.68-0.07,3.38,0.21,4.91,0.92c1.88,0.88,3.38,2.25,4.01,3.74c0.18-0.66,0.24-1.35,0.14-2.04
			c-0.13-0.91-0.51-1.74-1.07-2.46c2.85,0.24,5.66,0.68,8.41,1.3c3.76,0.85,6.99,3.42,8.45,6.99c0.36,0.89,0.61,1.8,0.72,2.7
			c0.39-0.93,0.65-1.93,0.73-2.99c0.11-1.3-0.05-2.55-0.42-3.72c3.21,1.31,6.31,2.89,9.26,4.74l0,0.01
			c0.02,0.01,0.04,0.02,0.05,0.03c0.11,0.07,0.22,0.14,0.33,0.21c3.81,2.42,6.42,6.44,6.85,10.94c0.13,1.32,0.07,2.63-0.18,3.85
			c0.81-0.93,1.5-2,2.01-3.19c0.57-1.32,0.86-2.69,0.94-4.05c0.34,0.32,0.69,0.64,1.02,0.97c11.55,11.55,17.94,26.88,18,43.21
			c0.06,15.81-6.02,31.16-16.92,42.61c-11.72,12.3-27.6,19.1-44.53,19.1c0,0,0,0-0.01,0c-8.61,0-17.04-1.8-24.77-5.2
			c9.26,5.04,19.69,7.72,30.53,7.72c17.09,0,33.15-6.65,45.24-18.74C148.26,94,148.26,53.41,123.32,28.47z"/>
	</g>
</g>
</svg>
