<?xml version="1.0" encoding="utf-8"?>
<!-- Generator: Adobe Illustrator 23.0.3, SVG Export Plug-In . SVG Version: 6.00 Build 0)  -->
<svg version="1.1" id="Layer_1" xmlns="http://www.w3.org/2000/svg" xmlns:xlink="http://www.w3.org/1999/xlink" x="0px" y="0px"
	 viewBox="0 0 35 35" style="enable-background:new 0 0 35 35;" xml:space="preserve">
<title>codacy-white</title>
<g>
	<path d="M5.7,14.3c0.8-3.1,2.9-5.8,5.7-7.4L8.7,2.3C4.7,4.7,1.8,8.5,0.6,13L5.7,14.3z"/>
	<path d="M14.3,5.7c1-0.3,2.1-0.4,3.2-0.4V0c-1.5,0-3,0.2-4.5,0.6L14.3,5.7z"/>
	<path d="M20.7,5.7c3.1,0.8,5.8,2.9,7.4,5.7l4.6-2.6c-2.3-4-6.1-6.9-10.6-8.1L20.7,5.7z"/>
	<path d="M0,17.5c0,1.5,0.2,3,0.6,4.5l5.1-1.4c-0.3-1-0.4-2.1-0.4-3.2L0,17.5L0,17.5z"/>
	<path d="M2.3,26.3c0.8,1.3,1.7,2.5,2.8,3.6l3.7-3.7c-0.8-0.8-1.4-1.6-1.9-2.5L2.3,26.3z"/>
	<path d="M8.7,32.7c2.7,1.5,5.7,2.3,8.7,2.3v-5.2c-2.1,0-4.3-0.6-6.1-1.6L8.7,32.7z"/>
	<path d="M28.1,23.6c-1.6,2.8-4.3,4.8-7.4,5.7l1.4,5.1c4.5-1.2,8.3-4.1,10.6-8.1L28.1,23.6z"/>
	<path d="M34.4,22.2c0.8-3,0.8-6.1,0-9.1l-5.1,1.4c0.6,2.1,0.6,4.3,0,6.4L34.4,22.2z"/>
</g>
</svg>
