<?xml version="1.0" encoding="utf-8"?>
<!-- Generator: Adobe Illustrator 24.3.0, SVG Export Plug-In . SVG Version: 6.00 Build 0)  -->
<svg version="1.1" xmlns="http://www.w3.org/2000/svg" xml:space="preserve"
	height="144" width="144" viewBox="0 0 144 144">
<style type="text/css">
	.st0{fill:#EC2130;}
</style>
<path class="st0" d="M76.04,89.08H64.81l1.66-5.43l10.09-0.13c13.12-0.17,20.29-11.79,20.16-21.01l-0.22-2.65
	c-0.12-9.23-7.59-20.65-20.71-20.48L65,39.53C51.88,39.7,44.72,51.31,44.84,60.54l0.22,2.65c0.24,7.17,4,13.76,10.05,17.61
	l-6.34,16.39h27.26c3,0,5.41,2.8,5.41,5.71v4.23c0,2.91-2.41,5.71-5.41,5.71H55.88c-2.24,0.13-3.95,2.04-3.83,4.28
	c0.12,2.1,1.82,3.77,3.93,3.83h20.05c13.02,0,20.44-6.72,20.44-15.94C96.47,95.2,89.1,89.08,76.04,89.08z M65.12,47.64l10.8-0.14
	c3.01-0.04,5.44,2.73,5.48,5.64l0.4,16.48c0.04,2.8-2.33,5.74-5.33,5.81l-10.8,0.14c-3.01,0.04-5.45-2.83-5.48-5.64l-0.41-16.48
	C59.73,50.52,62.1,47.68,65.12,47.64L65.12,47.64z"/>
<path class="st0" d="M70.62,4.9C68.24,5,66.38,7,66.47,9.39v22.02c0,2.29,1.86,4.15,4.15,4.15c2.29,0,4.15-1.86,4.15-4.15V9.39
	C74.86,7,73,5,70.62,4.9"/>
<path class="st0" d="M109.43,32.14l-0.47-1.59l-4.68-2.36c-7.59-3.72-15.71-6.22-24.08-7.4v7.75c7.21,1.15,14.21,3.38,20.76,6.59
	l1.52,0.77c4.21,14.19,6.37,28.9,6.41,43.7c-0.04,14.78-2.2,29.48-6.39,43.65c-21.42,10.84-42.31,10.84-63.73,0
	c-8.54-28.47-8.54-58.81,0-87.28c7-3.62,14.53-6.11,22.31-7.38v-7.77c-9.6,1.37-18.87,4.42-27.4,9.03l-1.42,0.75l-0.46,1.54
	c-9.55,30.93-9.55,64.03,0,94.96l0.47,1.54l1.42,0.76c24.5,12.94,49.34,12.94,73.85,0l1.42-0.76l0.47-1.54
	C118.97,96.17,118.98,63.08,109.43,32.14z"/>
</svg>
