<?xml version="1.0" encoding="utf-8"?>
<!-- Generator: Adobe Illustrator 24.2.1, SVG Export Plug-In . SVG Version: 6.00 Build 0)  -->
<svg version="1.1" id="Layer_1" xmlns="http://www.w3.org/2000/svg" xmlns:xlink="http://www.w3.org/1999/xlink" x="0px" y="0px"
	 viewBox="0 0 32 32" enable-background="new 0 0 32 32" xml:space="preserve">
<g>
	<defs>
		<rect id="SVGID_1_" x="1" y="8.78" width="30.126" height="15.07"/>
	</defs>
	<clipPath id="SVGID_2_">
		<use xlink:href="#SVGID_1_"  overflow="visible"/>
	</clipPath>
	<path clip-path="url(#SVGID_2_)" d="M17.178,14.913c-0.11-0.564-0.387-1.083-0.794-1.489c-0.448-0.382-1.025-0.577-1.613-0.546
		c-0.452-0.015-0.899,0.097-1.291,0.323c-0.366,0.197-0.681,0.478-0.918,0.819c-0.246,0.347-0.43,0.733-0.546,1.142
		c-0.264,0.857-0.264,1.774,0,2.631c0.121,0.407,0.305,0.792,0.546,1.142c0.237,0.341,0.552,0.622,0.918,0.819
		c0.396,0.214,0.84,0.325,1.291,0.323c0.307,0.007,0.612-0.052,0.893-0.174c0.275-0.121,0.527-0.289,0.745-0.496
		c0.223-0.225,0.408-0.485,0.546-0.77c0.143-0.306,0.235-0.633,0.273-0.968h1.042c-0.097,0.904-0.489,1.75-1.117,2.408
		c-0.596,0.596-1.39,0.869-2.358,0.869c-0.589,0.008-1.173-0.111-1.713-0.348c-0.488-0.214-0.915-0.547-1.241-0.968
		c-0.352-0.413-0.614-0.895-0.769-1.415c-0.364-1.13-0.364-2.345,0-3.475c0.155-0.52,0.417-1.002,0.769-1.415
		c0.345-0.402,0.767-0.731,1.241-0.968c0.536-0.248,1.122-0.367,1.713-0.348c0.827-0.017,1.637,0.236,2.308,0.72
		c0.621,0.472,0.993,1.216,1.117,2.184H17.178z"/>
	<path clip-path="url(#SVGID_2_)" d="M25.013,14.739c0.005-0.286-0.063-0.568-0.199-0.819c-0.115-0.222-0.276-0.416-0.472-0.571
		c-0.207-0.16-0.443-0.277-0.695-0.348c-0.275-0.071-0.559-0.104-0.844-0.099c-0.234,0-0.467,0.025-0.695,0.074
		c-0.228,0.046-0.446,0.129-0.645,0.248c-0.186,0.116-0.346,0.268-0.472,0.447c-0.127,0.209-0.188,0.451-0.174,0.695
		c-0.011,0.205,0.05,0.407,0.174,0.571c0.115,0.157,0.258,0.291,0.422,0.397c0.183,0.106,0.374,0.197,0.571,0.273
		c0.199,0.074,0.397,0.124,0.571,0.174l1.365,0.323c0.299,0.045,0.591,0.128,0.869,0.248c0.273,0.119,0.531,0.269,0.77,0.447
		c0.227,0.192,0.413,0.429,0.546,0.695c0.155,0.298,0.232,0.632,0.223,0.968c0.015,0.413-0.098,0.82-0.323,1.167
		c-0.199,0.323-0.471,0.595-0.794,0.794c-0.335,0.206-0.705,0.349-1.092,0.422c-0.392,0.078-0.791,0.12-1.191,0.124
		c-0.993,0-1.787-0.223-2.408-0.695c-0.62-0.472-0.968-1.216-1.067-2.259h1.042c0.009,0.617,0.291,1.199,0.769,1.588
		c0.506,0.359,1.117,0.543,1.737,0.521c0.258,0,0.516-0.025,0.769-0.074c0.262-0.049,0.513-0.142,0.745-0.273
		c0.223-0.124,0.417-0.293,0.571-0.496c0.155-0.217,0.233-0.479,0.223-0.745c0.021-0.427-0.199-0.83-0.571-1.042
		c-0.193-0.109-0.392-0.209-0.596-0.298c-0.22-0.078-0.443-0.144-0.67-0.199L22.158,16.7c-0.347-0.099-0.645-0.199-0.943-0.298
		c-0.271-0.095-0.523-0.238-0.745-0.422c-0.212-0.165-0.382-0.378-0.496-0.62c-0.129-0.288-0.188-0.603-0.174-0.918
		c-0.011-0.386,0.092-0.766,0.298-1.092c0.196-0.295,0.449-0.549,0.745-0.745c0.315-0.187,0.659-0.321,1.018-0.397
		c0.365-0.09,0.741-0.132,1.117-0.124c0.404-0.007,0.806,0.052,1.191,0.174c0.354,0.094,0.685,0.264,0.968,0.496
		c0.276,0.235,0.504,0.522,0.67,0.844c0.172,0.374,0.265,0.78,0.273,1.191h-1.067V14.739z"/>
</g>
<polygon fill="#3666F0" points="9.91,8.782 4.897,20.944 5.765,20.944 10.754,8.782 "/>
<g>
	<defs>
		<rect id="SVGID_3_" x="1" y="8.78" width="30.126" height="15.07"/>
	</defs>
	<clipPath id="SVGID_4_">
		<use xlink:href="#SVGID_3_"  overflow="visible"/>
	</clipPath>
	<path clip-path="url(#SVGID_4_)" fill="#3666F0" d="M2.365,16.054c0.154-0.132,0.28-0.292,0.372-0.472
		c0.149-0.249,0.266-0.516,0.348-0.794c0.108-0.371,0.158-0.756,0.149-1.142v-2.308c0.004-0.208,0.021-0.415,0.05-0.621
		c0.02-0.189,0.07-0.373,0.149-0.546c0.062-0.143,0.155-0.27,0.273-0.372c0.117-0.1,0.268-0.153,0.422-0.149H4.45V8.782H3.631
		C3.203,8.758,2.795,8.966,2.564,9.328c-0.269,0.449-0.398,0.967-0.372,1.489v2.432c0,0.323-0.025,0.645-0.05,0.968
		c-0.014,0.288-0.073,0.573-0.174,0.844c-0.082,0.222-0.209,0.425-0.372,0.596C1.436,15.81,1.221,15.891,1,15.881v0.869
		c0.221-0.011,0.436,0.07,0.596,0.223c0.171,0.165,0.299,0.369,0.372,0.596c0.089,0.274,0.147,0.557,0.174,0.844
		c0.025,0.323,0.05,0.645,0.05,0.968v2.408c-0.026,0.522,0.104,1.04,0.372,1.489c0.235,0.357,0.64,0.565,1.067,0.546H4.45v-0.025
		v-0.05v-0.819H4.127c-0.155,0.008-0.307-0.045-0.422-0.149c-0.11-0.109-0.203-0.234-0.273-0.372
		C3.35,22.237,3.3,22.052,3.283,21.862c-0.029-0.214-0.045-0.429-0.05-0.645v-2.283c0.008-0.386-0.043-0.771-0.149-1.142
		c-0.082-0.278-0.199-0.545-0.348-0.794c-0.099-0.176-0.224-0.335-0.372-0.472c-0.081-0.086-0.172-0.162-0.273-0.223v-0.025
		C2.142,16.228,2.241,16.154,2.365,16.054"/>
	<path clip-path="url(#SVGID_4_)" fill="#3666F0" d="M28.495,8.782c0.427-0.019,0.832,0.189,1.067,0.546
		c0.269,0.449,0.398,0.967,0.372,1.489v2.432c0,0.323,0.025,0.645,0.05,0.968c0.026,0.287,0.085,0.57,0.174,0.844
		c0.073,0.226,0.201,0.431,0.372,0.596c0.159,0.153,0.375,0.234,0.596,0.223v0.869c-0.221-0.011-0.436,0.07-0.596,0.223
		c-0.163,0.171-0.29,0.374-0.372,0.596c-0.101,0.271-0.159,0.555-0.174,0.844c-0.025,0.323-0.05,0.645-0.05,0.968v2.432
		c0.026,0.522-0.104,1.04-0.372,1.489c-0.231,0.362-0.639,0.57-1.067,0.546h-0.819v-0.869h0.323
		c0.154,0.004,0.304-0.049,0.422-0.149c0.118-0.102,0.211-0.229,0.273-0.372c0.082-0.172,0.132-0.357,0.149-0.546
		c0.03-0.214,0.046-0.429,0.05-0.645v-2.283c-0.01-0.386,0.041-0.771,0.149-1.142c0.082-0.278,0.199-0.545,0.347-0.794
		c0.092-0.18,0.219-0.34,0.372-0.471c0.124-0.099,0.223-0.174,0.273-0.223v-0.025c-0.101-0.062-0.193-0.137-0.273-0.223
		c-0.148-0.137-0.273-0.296-0.372-0.472c-0.144-0.251-0.261-0.518-0.347-0.794c-0.106-0.371-0.157-0.756-0.149-1.142v-2.308
		c-0.003-0.208-0.02-0.415-0.05-0.62c-0.023-0.188-0.073-0.372-0.149-0.546c-0.071-0.138-0.163-0.264-0.273-0.372
		c-0.117-0.1-0.268-0.153-0.422-0.149h-0.323V8.832h0.819V8.782z"/>
</g>
<rect x="27.676" y="8.782" fill="#3666F0" width="0.819" height="0.099"/>
</svg>
