<svg width="32" height="32" viewBox="0 0 32 32" fill="none" xmlns="http://www.w3.org/2000/svg">
<path d="M16.739 2.037C16.3961 2.03836 16.0674 2.17365 15.823 2.414L15.81 2.424L7.21997 7.389L15.786 15.955V15.961L26.086 26.261L28.049 22.725L20.968 5.728L17.668 2.428C17.5467 2.30536 17.4024 2.20794 17.2433 2.14135C17.0842 2.07476 16.9134 2.04031 16.741 2.04L16.739 2.037Z" fill="#66C3FA"/>
<path d="M7.25002 7.35001L2.28802 15.931L2.27802 15.944C2.03731 16.1895 1.90172 16.5192 1.90002 16.863C1.90021 17.035 1.93452 17.2052 2.00095 17.3638C2.06738 17.5224 2.16461 17.6662 2.28702 17.787L6.40002 21.9L22.484 28.227L26.12 26.207L26.02 26.107H25.995L15.912 16.007H15.9L7.25002 7.35001Z" fill="#215896"/>
<path d="M7.19202 7.362L15.956 16.135H15.969L26.056 26.235L29.895 25.503L29.9 14.14L25.846 10.167C24.8352 9.26496 23.5686 8.70014 22.222 8.551V8.507L7.19202 7.362Z" fill="#235997"/>
<path d="M7.25598 7.411L16.024 16.179V16.192L26.116 26.284L25.382 30.123H14.022L10.051 26.067C9.14953 25.0556 8.58542 23.7886 8.43698 22.442H8.39298L7.25598 7.411Z" fill="#58B6F0"/>
</svg>