<svg xmlns="http://www.w3.org/2000/svg" width="128" height="128">
    <path d="M118.64,63.09l5.15,50.2-63.08,7.59-1.37-9.78-3.81.55c.33,5.45-.94,10.63-3.35,13.11-2.82,2.89-6.92,3.64-11.24,3-2.9-.39-5.06-2.49-6.66-5.06,6,4.22,13.39,2.27,15.92-1.26a12.65,12.65,0,0,0,2.38-9.42l-35.42,5.14L4.21,12.18,109.27,0l6.16,63.7Z" fill="#632ca6"/>
    <path d="M63.55,74.32a55.2,55.2,0,0,1-10-8.32c-.31-.23-.26-1.25-.26-1.25A55.81,55.81,0,0,0,68.94,73.1a12.74,12.74,0,0,0,9.81-.83,25,25,0,0,0,7.53-6.64l.34.59a14.93,14.93,0,0,1-1.29,3.06,8,8,0,0,0,2.24.81l6-.93a18.12,18.12,0,0,0,2-14.31c-.93-3-5.79-9.1-6.14-9.43-1.22-1.17.21-5.7-2.21-10.65C84.65,29.54,78,24.09,75.09,21.72c.85.62,6.1,2.74,8.55,5.69.23-.3.32-1.89.53-2.29-2.1-2.76-2.26-7.66-2.26-9A14.87,14.87,0,0,0,80.69,11a8.16,8.16,0,0,1,2.65,4.53,18.51,18.51,0,0,0,3.82,8.34c3.43,4.26,6.52,6.45,8.08,4.88,1.88-1.9-1.89-10.37-6.71-15.1-5.62-5.52-7.09-4.81-10.39-3.63-2.63.94-4,8.4-10.91,8.26-1.16-.14-4.15-.21-5.64-.2C62.36,17,63,16.21,63,16.21a35.61,35.61,0,0,0-4.25,2.09l-.15-.22A12,12,0,0,1,60,15.8a40.56,40.56,0,0,0-3.51,2.43,5.25,5.25,0,0,1,1.45-2.71s-2.32.41-5.28,3.67A36,36,0,0,0,45.8,21.9c-4.35-.95-6.41-2.49-8.37-5.31-1.49-2.15-4.15-2.48-6.85-1.37-4,1.64-9,3.87-9,3.87s1.63-.06,3.33,0a44.68,44.68,0,0,0-4.56,2.09s1.09,0,2.44,0A22.93,22.93,0,0,1,20.5,22.9a33,33,0,0,0-3.85,3.33,22.56,22.56,0,0,1,2.74-1c-.9,2.07-2.7,3.6-2.37,6.14.32,2.33,3.17,7.11,6.85,10,.32.26,5.34,4.91,9.13,3s5.29-3.6,5.91-6.21c.73-3,.32-5.26-1.25-11.75-.52-2.14-1.86-6.56-2.51-8.67l.15-.11A106.06,106.06,0,0,1,41,31.8C43,39,42.36,42.68,41.44,44c-2.75,4-9.8,4.58-13,2.34-.49,7.78,1.24,11.2,1.83,12.92-.29,2,1,5.67,1,5.67A7,7,0,0,1,32,62.4a16.53,16.53,0,0,0,1.14,4.31A8.19,8.19,0,0,1,33.52,64a19.56,19.56,0,0,0,1.71,2.14A11.6,11.6,0,0,0,37,69.8,9.87,9.87,0,0,1,37,67.5c2.94,2.82,3.45,7,3.74,10.12C41.52,86.33,27,93.25,24.13,98.71c-2.14,3.23-3.42,8.33.2,11.35,8.76,7.27,5.4,9.27,9.78,12.47,6,4.38,13.54,2.42,16.1-1.15,3.56-5,2.65-9.65,1.32-14-1-3.43-3.84-9.12-7.32-11.33a15.26,15.26,0,0,0-10-2.37l.27-.31c4.22-.84,8.62-.38,11.81,1.68,3.62,2.32,6.93,6.31,8.66,12.43,2-.28,2.24-.41,4-.66l-4-31.5ZM83.85,35c3.73,1.73,3.24,5,3.34,7a5.25,5.25,0,0,1,0,1.19,5,5,0,0,0-2.62-.43,9.49,9.49,0,0,0-1.1.12,7.78,7.78,0,0,1-3-3.71l-.17-.39-.07-.17,0-.08c-.42-1.31-.14-1.57,0-2s.85-.76-.15-1.1a1.8,1.8,0,0,0-.31-.07C80.47,34.54,82.44,34.34,83.85,35Zm-4.6,21.63c.72-.57,4-1.62,7.09-2,1.6-.19,3.88-.29,4.37,0,1,.53,1,2.18.31,3.72-1,2.22-2.33,4.67-3.88,4.87-2.52.34-4.91-1-7.63-3.06A2.23,2.23,0,0,1,79.25,56.62ZM55.34,39.75c4-2.73,9.16-1.65,8.3-.83-1.65,1.56.54,1.1.78,4a5,5,0,0,1-1.12,4A25.49,25.49,0,0,0,58.7,48a26,26,0,0,0-2.85,1.13,7.32,7.32,0,0,1-.73-.55A5.53,5.53,0,0,1,55.34,39.75Zm60.11,27.82-32.51,5.9a16,16,0,0,1-3.75,3.33,11.75,11.75,0,0,1-9.29.85,20,20,0,0,1-3.71-1.19l-7.95,1.1,4.83,40.2,55.7-10ZM65.88,113.92l-.46-4.37,9.09-13.88,10.33,3,8.88-14.84,10.65,7,8.1-17,2.87,30.91Z" fill="#fff"/>
</svg>
