<svg id="Layer_1" data-name="Layer 1" xmlns="http://www.w3.org/2000/svg" viewBox="0 0 85 100"><defs><style>.cls-1{fill:#05ccc2;}.cls-1,.cls-2{fill-rule:evenodd;}.cls-2{fill:#00141e;}</style></defs><path class="cls-1" d="M59.2,45.29,49,55.47a12.15,12.15,0,0,0-1.67,2.06,12.63,12.63,0,0,0-1.22,2.37,14.44,14.44,0,0,0-.71,2.56,15.69,15.69,0,0,0-.24,2.77V88.38h5.45V65.23a10,10,0,0,1,.14-1.76,8.39,8.39,0,0,1,.44-1.6,6.59,6.59,0,0,1,.7-1.34,7.22,7.22,0,0,1,1-1.19L63.07,49.16Z"/><path class="cls-1" d="M73.4,31.89a8,8,0,0,0-1.72-2.57l-16-16a7.95,7.95,0,0,0-11.24,0l-1.82,1.83L19.16,38.66,23,42.53,46.52,19.05l1.83-1.83a2.44,2.44,0,0,1,.79-.53,2.64,2.64,0,0,1,1-.19,2.6,2.6,0,0,1,.95.19,2.48,2.48,0,0,1,.8.53l16,16a2.59,2.59,0,0,1,.53.8,2.64,2.64,0,0,1,.19.95,2.5,2.5,0,0,1-.72,1.75L66,38.51l-.15.15L62,42.53l3.88,3.87,5.84-5.84A8,8,0,0,0,73.4,38a8.19,8.19,0,0,0,.6-3v-.1A8.19,8.19,0,0,0,73.4,31.89Z"/><path class="cls-1" d="M16.66,51.07a2.54,2.54,0,0,1-.19-.94v-.21h0a2.23,2.23,0,0,1,.15-.63h0l-4-4a7.81,7.81,0,0,0-1,1.78,8.16,8.16,0,0,0-.6,2.84h0v.21a7.89,7.89,0,0,0,2.31,5.61L30.54,73V65.21L17.2,51.87A2.46,2.46,0,0,1,16.66,51.07Z"/><path class="cls-2" d="M69.71,42.53l.15.15,1.82,1.83A7.9,7.9,0,0,1,74,49.92h0v.21a8,8,0,0,1-.6,3,7.67,7.67,0,0,1-1.71,2.56L54.48,73V65.21L67.81,51.87a2.46,2.46,0,0,0,.54-.8,2.36,2.36,0,0,0,.19-.94v-.21h0a2.29,2.29,0,0,0-.18-.74,2.33,2.33,0,0,0-.53-.8L66,46.55l-4.17-4.17L45.21,25.78l3.87-3.87,16.61,16.6.15.15h0ZM11,34.89V35a8.19,8.19,0,0,0,.6,3,8,8,0,0,0,1.72,2.57L32.1,59.34a7.22,7.22,0,0,1,1,1.19,6.59,6.59,0,0,1,.7,1.34,9.19,9.19,0,0,1,.44,1.6,10,10,0,0,1,.14,1.76V88.38H39.8V65.23a15.69,15.69,0,0,0-.24-2.77,14.44,14.44,0,0,0-.71-2.56,12.63,12.63,0,0,0-1.22-2.37A12.15,12.15,0,0,0,36,55.47L23.19,42.68,23,42.53l-3.87-3.87L19,38.51l-1.83-1.82a2.5,2.5,0,0,1-.72-1.75,2.64,2.64,0,0,1,.19-.95,2.59,2.59,0,0,1,.53-.8l16-16a2.48,2.48,0,0,1,.8-.53,2.6,2.6,0,0,1,.95-.19,2.64,2.64,0,0,1,1,.19,2.44,2.44,0,0,1,.79.53l1.83,1.83.15.15,4-4-.15.15-.15-.15-1.82-1.83a7.95,7.95,0,0,0-11.24,0l-16,16a8,8,0,0,0-1.72,2.57A8.19,8.19,0,0,0,11,34.89Z"/><path class="cls-2" d="M69.71,42.53l.15.15,1.82,1.83A7.9,7.9,0,0,1,74,49.92h0v.21a8,8,0,0,1-.6,3,7.67,7.67,0,0,1-1.71,2.56L54.48,73V65.21L67.81,51.87a2.46,2.46,0,0,0,.54-.8,2.36,2.36,0,0,0,.19-.94v-.21h0a2.29,2.29,0,0,0-.18-.74,2.33,2.33,0,0,0-.53-.8L66,46.55l-4.17-4.17L45.21,25.78l3.87-3.87,16.61,16.6.15.15h0Z"/></svg>