<svg id="Layer_1" data-name="Layer 1" xmlns="http://www.w3.org/2000/svg" viewBox="0 0 130.82474 165.72391">
  <path d="M130.80005,64.2v3.5a24.02765,24.02765,0,0,1-24,24.1h-.2A22.62736,22.62736,0,0,1,88,83c-4.8999-6.2-10.8999-10.9-22.3-10.9-12.1001,0-27.3,7.8-27.3,29.8,0,21.1,13.7,30.6,27.30005,30.6,13.1001,0,18.3999-7.1,21.8999-11.1,6.1001-7,12.39991-9.1,19.89991-9,9.10009,0,23.10009,8,23.2,24.1.2,18.7.10009,27.7.10009,27.7H92.69971l.10009-22.4s-8.10009,24.8-41.8999,23.9C25.3999,165,0,144.3,0,102.3,0,61.5,23.80005,39.7,51,38.9c24.5-.8,36.5,11.7,41.80005,23.9L92.7,0h38.1001Z" fill="#0d1840"/>
</svg>
