<svg fill="none" height="48" viewBox="0 0 48 48" width="48" xmlns="http://www.w3.org/2000/svg"><g fill="#2ba977"><path d="m17.0926 0h7.9336v36.0221c-4.0638.7615-7.0555 1.0611-10.2923 1.0611-9.68985-.01-14.7339-4.2985-14.7339-12.5347 0-7.9357 5.35036-13.0859 13.6414-13.0859 1.2865 0 2.2667.1002 3.4512.4008zm.278 18.3549c-.9291-.3006-1.6949-.4008-2.6752-.4008-4.0127 0-6.33055 2.4248-6.33055 6.6742 0 4.1372 2.21575 6.4217 6.27955 6.4217.8781 0 1.5928-.0491 2.7262-.1994z" transform="translate(4)"/><path d="m15.6937 0v18.0356c0 6.2113-.4697 9.1982-1.8481 11.7732-1.2865 2.4759-2.9815 4.037-6.48374 5.7614l-7.36186-3.4368c3.50224-1.6122 5.19721-3.037 6.27953-5.2113 1.13338-2.2233 1.49075-4.7984 1.49075-11.5718v-15.3503z" transform="translate(26.3063 12.4298)"/><path d="m0 0h7.93365v7.98576h-7.93365z" transform="translate(33.277)"/></g></svg>