<svg fill="none" height="48" width="48" xmlns="http://www.w3.org/2000/svg"><g fill="#2ba977"><path d="M21.093 0h7.933v36.022c-4.064.762-7.055 1.061-10.292 1.061C9.044 37.073 4 32.785 4 24.55c0-7.936 5.35-13.086 13.641-13.086 1.287 0 2.267.1 3.452.4zm.278 18.355c-.93-.3-1.695-.4-2.676-.4-4.012 0-6.33 2.424-6.33 6.673 0 4.137 2.216 6.422 6.28 6.422.878 0 1.592-.05 2.726-.2z"/><path d="M42 12.43v18.035c0 6.212-.47 9.199-1.848 11.774-1.287 2.476-2.982 4.037-6.484 5.761l-7.362-3.437c3.503-1.612 5.198-3.037 6.28-5.211 1.133-2.223 1.49-4.798 1.49-11.572V12.43zM33.277 0h7.934v7.986h-7.934z"/></g></svg>