<svg fill="none" height="48" width="48" xmlns="http://www.w3.org/2000/svg"><g fill="#066da5"><path clip-rule="evenodd" d="M47.797 36.544a1.446 1.446 0 00-.511-.302 3.064 3.064 0 00-.675-.152 5.966 5.966 0 00-.685-.043 4.04 4.04 0 00-2.545.88v-.141a.705.705 0 00-.222-.522.734.734 0 00-.532-.217.743.743 0 00-.54.217.706.706 0 00-.222.522v6.476c0 .203.074.377.221.521a.743.743 0 00.54.217.734.734 0 00.533-.217.704.704 0 00.222-.521v-3.238c0-.346.066-.67.199-.973a2.51 2.51 0 011.353-1.324c.309-.13.64-.196.993-.196.358 0 .689.06.993.178.121.052.228.078.32.078a.765.765 0 00.297-.057.714.714 0 00.24-.16.821.821 0 00.162-.238.688.688 0 00.062-.29.653.653 0 00-.203-.498zM34.7 39.285c.077-.26.196-.498.355-.714.16-.215.348-.4.566-.554.218-.153.457-.273.718-.358a2.582 2.582 0 011.606 0 2.581 2.581 0 011.276.913c.162.215.284.453.366.713zm5.315-2.073c-.803-.777-1.76-1.165-2.871-1.165-1.122 0-2.08.388-2.872 1.165-.793.776-1.19 1.713-1.19 2.812 0 1.098.397 2.035 1.19 2.812.793.776 1.75 1.164 2.872 1.164 1.02 0 1.904-.322 2.654-.966a.729.729 0 00.217-.532.71.71 0 00-.214-.53.74.74 0 00-.54-.209.805.805 0 00-.5.185 2.42 2.42 0 01-.74.426 2.6 2.6 0 01-.877.142 2.621 2.621 0 01-1.52-.487 2.51 2.51 0 01-.561-.553 2.391 2.391 0 01-.363-.714h5.743c.212 0 .392-.07.54-.21a.697.697 0 00.221-.528c0-.55-.1-1.06-.297-1.53a3.873 3.873 0 00-.892-1.282zm-7.618-.426c0-.1-.02-.194-.062-.284s-.095-.17-.163-.238a.727.727 0 00-.537-.217.752.752 0 00-.406.114l-4.336 2.762v-5.539a.713.713 0 00-.221-.529.735.735 0 00-.533-.216.742.742 0 00-.54.216.713.713 0 00-.222.53v9.87c0 .203.074.378.222.525.147.147.327.22.54.22a.728.728 0 00.533-.22.715.715 0 00.221-.526v-2.563l.885-.568 3.35 3.685a.709.709 0 00.507.192.772.772 0 00.297-.057.712.712 0 00.24-.16c.068-.068.122-.148.163-.237s.062-.185.062-.284a.744.744 0 00-.21-.519l-3.119-3.436 3.039-1.932c.193-.128.29-.324.29-.59zm-12.455 1.473c.232-.225.502-.402.812-.532.31-.13.64-.196.994-.196.319 0 .613.053.884.156.27.105.53.259.776.462.145.114.31.17.493.17a.733.733 0 00.754-.745.716.716 0 00-.261-.561c-.745-.644-1.626-.966-2.646-.966-1.122 0-2.08.388-2.872 1.165-.793.776-1.19 1.713-1.19 2.812 0 1.098.397 2.035 1.19 2.812.792.776 1.75 1.164 2.872 1.164 1.014 0 1.897-.322 2.646-.966a.741.741 0 00.24-.546.71.71 0 00-.214-.53.741.741 0 00-.54-.21.826.826 0 00-.48.157 2.63 2.63 0 01-.768.458 2.496 2.496 0 01-.884.153c-.354 0-.685-.065-.994-.195-.31-.13-.58-.308-.812-.533a2.466 2.466 0 01-.548-.792 2.392 2.392 0 01-.199-.972c0-.346.066-.67.2-.973.132-.303.315-.567.547-.792zm-4.685 2.727a2.562 2.562 0 01-2.346 1.53 2.561 2.561 0 01-1.805-.735 2.527 2.527 0 01-.541-.792 2.376 2.376 0 01-.2-.965c0-.341.067-.663.2-.966a2.54 2.54 0 01.54-.792c.227-.224.496-.403.805-.536a2.52 2.52 0 011-.199c.354 0 .685.067.994.199a2.565 2.565 0 011.353 1.332c.132.3.199.62.199.962 0 .34-.067.661-.2.962zm.525-3.774c-.802-.777-1.76-1.165-2.871-1.165-1.122 0-2.08.388-2.872 1.165-.793.776-1.189 1.713-1.189 2.812 0 1.098.396 2.035 1.19 2.812.792.776 1.75 1.164 2.87 1.164 1.112 0 2.07-.388 2.872-1.164.793-.767 1.19-1.705 1.19-2.812a4.02 4.02 0 00-.301-1.527 3.896 3.896 0 00-.889-1.285zm-9.377 3.774a2.559 2.559 0 01-2.345 1.53 2.554 2.554 0 01-1.805-.735 2.528 2.528 0 01-.541-.792 2.374 2.374 0 01-.2-.965c0-.341.067-.663.2-.966a2.54 2.54 0 01.54-.792c.227-.224.495-.403.805-.536.31-.132.643-.199 1-.199.354 0 .685.067.994.199a2.562 2.562 0 011.352 1.332c.133.3.2.62.2.962 0 .34-.067.661-.2.962zm.954-8.347a.741.741 0 00-.54.21.709.709 0 00-.214.528v3.543c-.735-.582-1.583-.873-2.545-.873-1.122 0-2.08.388-2.872 1.165C.396 37.988 0 38.925 0 40.024c0 1.098.396 2.035 1.189 2.812.793.776 1.75 1.164 2.872 1.164 1.111 0 2.069-.388 2.871-1.164.793-.767 1.19-1.705 1.19-2.812v-6.647a.697.697 0 00-.222-.529.757.757 0 00-.54-.21zm21.044-16.402h3.713v-3.305h-3.713zm-4.388 0h3.713v-3.305h-3.713zm-4.387 0h3.712v-3.305H19.63zm-4.388 0h3.713v-3.305H15.24zm-4.388 0h3.713v-3.305h-3.713zm4.388-3.966h3.713V8.966H15.24zm4.388 0h3.712V8.966H19.63zm4.387 0h3.713V8.966h-3.713zm0-3.966h3.713V5h-3.713zM44.024 14.8l-.75-.49c-.81-.531-2.673-.726-4.107-.46-.185-1.323-.938-2.47-2.307-3.506l-.787-.514-.525.771c-.672.993-1.008 2.369-.898 3.688.05.464.205 1.294.693 2.023-.487.257-1.45.61-2.72.586H8.206l-.048.276c-.23 1.325-.225 5.462 2.518 8.642 2.085 2.416 5.21 3.642 9.29 3.642 8.844 0 15.387-3.987 18.451-11.233 1.205.023 3.8.007 5.132-2.487a12.4 12.4 0 00.347-.679z" fill-rule="evenodd"/><path d="M44.658 43.656h.035c.04 0 .073-.013.073-.045 0-.029-.021-.048-.068-.048a.168.168 0 00-.04.004zm-.002.175h-.073v-.309a.652.652 0 01.121-.01.2.2 0 01.11.023c.017.013.03.038.03.068 0 .034-.026.06-.065.072v.003c.03.012.048.034.058.076.01.047.015.065.023.077h-.079c-.01-.012-.015-.04-.025-.076-.006-.033-.025-.049-.065-.049h-.035zm-.194-.162c0 .137.104.246.246.246.139 0 .24-.109.24-.244 0-.138-.101-.249-.242-.249s-.244.111-.244.247zm.567 0c0 .175-.14.312-.323.312a.317.317 0 01-.325-.312c0-.171.144-.309.325-.309.183 0 .323.138.323.309"/></g></svg>