<svg fill="none" height="48" viewBox="0 0 48 48" width="48" xmlns="http://www.w3.org/2000/svg"><g fill="#066da5"><path clip-rule="evenodd" d="m358.476 55.9194c-1.015.9573-2.294 1.71-3.833 2.2629-1.542.5486-3.227.9331-5.057 1.1461-1.833.2126-3.546.317-5.142.317-3.624 0-7.034-.5683-10.223-1.702-3.19-1.1385-6.144-2.7691-8.866-4.9013v1.0654c0 1.525-.552 2.8311-1.658 3.9148-1.103 1.0833-2.44 1.6231-3.996 1.6231-1.598 0-2.947-.5398-4.054-1.6231-1.104-1.0837-1.658-2.3898-1.658-3.9148v-48.5697c0-1.52713.554-2.83064 1.658-3.91393 1.107-1.082862 2.456-1.62387 4.054-1.62387 1.556 0 2.893.541008 3.996 1.62387 1.106 1.08329 1.658 2.3868 1.658 3.91393v24.2855c0 2.5904.502 5.024 1.496 7.2974.997 2.2702 2.357 4.2484 4.079 5.9363 1.724 1.6858 3.744 3.0164 6.065 3.9933 2.318.9776 4.803 1.4651 7.449 1.4651 2.684 0 5.167-.4429 7.453-1.3315.904-.3912 1.704-.5847 2.391-.5847.796 0 1.54.1392 2.231.4273.686.2813 1.286.681 1.795 1.1958.506.5138.914 1.1091 1.222 1.7859.309.6713.464 1.4003.464 2.1831 0 1.5255-.509 2.7691-1.524 3.7281zm-98.217-20.5575c.577 1.9511 1.468 3.7336 2.662 5.352 1.197 1.6145 2.61 3.0004 4.242 4.155 1.634 1.1502 3.428 2.0499 5.386 2.6897 1.957.6377 3.969.9568 6.037.9568 2.066 0 4.067-.3191 6.006-.9568 1.94-.6398 3.719-1.5395 5.33-2.6897 1.615-1.1546 3.029-2.5405 4.241-4.155 1.218-1.6184 2.133-3.4009 2.75-5.352zm39.864 15.5509c-6.022 5.8226-13.201 8.7326-21.537 8.7326-8.415 0-15.594-2.91-21.537-8.7326-5.949-5.8255-8.921-12.8526-8.921-21.0895 0-8.2373 2.972-15.2674 8.921-21.08996 5.943-5.82335 13.122-8.73334 21.537-8.73334 7.647 0 14.282 2.41354 19.905 7.24314 1.087 1.09814 1.632 2.42881 1.632 3.99326 0 1.5988-.537 2.921-1.608 3.969-1.068 1.046-2.418 1.5709-4.05 1.5709-1.413-.0368-2.665-.5007-3.751-1.385-1.707-1.421-3.557-2.4864-5.549-3.1959-1.998-.7104-4.187-1.0655-6.579-1.0655-2.106 0-4.126.3203-6.067.9603-1.938.6386-3.717 1.5339-5.329 2.6885-1.613 1.1537-3.018 2.536-4.213 4.1536-1.197 1.6154-2.106 3.3992-2.718 5.352h43.071c1.591 0 2.944.5249 4.05 1.572 1.106 1.046 1.66 2.3703 1.66 3.967 0 4.1167-.745 7.9416-2.229 11.4761-1.489 3.5325-3.719 6.737-6.688 9.6134zm-57.141 3.1947c0 .7464-.152 1.4546-.461 2.1293s-.716 1.2687-1.225 1.7855c-.508.5117-1.106.9114-1.795 1.1983-.688.2834-1.432.4248-2.23.4248-1.125 0-2.14-.2856-3.045-.8495l-32.52-20.7192v41.5405c0 1.561-.555 2.8828-1.661 3.9682-1.104 1.0808-2.439 1.624-3.997 1.624-1.598 0-2.947-.5432-4.05-1.624-1.106-1.0854-1.661-2.4072-1.661-3.9682v-74.02509c0-1.52628.555-2.84294 1.661-3.94108 1.103-1.100263 2.452-1.65103 4.05-1.65103 1.558 0 2.893.550767 3.997 1.65103 1.106 1.09814 1.661 2.4148 1.661 3.94108v19.22549l6.634 4.2585 25.126-27.63808c1.013-.960236 2.283-1.43802 3.805-1.43802.798 0 1.542.142147 2.23.426017.689.283445 1.287.681883 1.795 1.197853.509.51301.916 1.11045 1.225 1.78384s.461 1.3871.461 2.13009c0 1.45456-.527 2.75128-1.577 3.88889l-23.385 25.77451 22.788 14.4866c1.447.9603 2.174 2.4288 2.174 4.4197zm-93.41-11.0505c1.738 1.6858 3.769 3.0164 6.09 3.9933 2.321.9776 4.804 1.4651 7.453 1.4651 2.392 0 4.601-.392 6.635-1.1699 2.027-.7833 3.969-1.9386 5.817-3.4628 1.088-.8529 2.32-1.2798 3.698-1.2798 1.632 0 2.982.5334 4.051 1.5993 1.07 1.0663 1.607 2.397 1.607 3.9941 0 1.6672-.654 3.0708-1.96 4.2081-5.585 4.8261-12.198 7.241-19.848 7.241-8.415 0-15.595-2.91-21.537-8.7326-5.947-5.8255-8.921-12.8526-8.921-21.0895 0-8.2373 2.974-15.2674 8.921-21.08996 5.942-5.82335 13.122-8.73334 21.537-8.73334 7.611 0 14.229 2.41354 19.848 7.24314 1.197 1.17324 1.794 2.53658 1.794 4.09976 0 1.5996-.536 2.9206-1.602 3.9678-1.07 1.0473-2.422 1.573-4.052 1.573-1.378-.0369-2.575-.4269-3.59-1.172-1.812-1.5284-3.736-2.6724-5.763-3.437-2.034-.7637-4.243-1.1448-6.635-1.1448-2.649 0-5.132.4888-7.453 1.4643-2.321.9776-4.352 2.3083-6.09 3.9942-1.742 1.6857-3.112 3.6661-4.107 5.9396-.997 2.2701-1.495 4.7023-1.495 7.2953 0 2.5904.498 5.024 1.495 7.2974.995 2.2702 2.365 4.2484 4.107 5.9363zm-35.138-20.451c-.998-2.2547-2.36-4.2329-4.081-5.9362-1.721-1.7053-3.744-3.0555-6.063-4.0476-2.321-.9959-4.8046-1.4923-7.4521-1.4923-2.6832 0-5.1843.4964-7.503 1.4923-2.3213.9921-4.3335 2.3325-6.0379 4.0205-1.7059 1.6857-3.0553 3.6639-4.0523 5.9375-.997 2.2701-1.4958 4.6871-1.4958 7.2431 0 2.5548.4988 4.9697 1.4958 7.2431.997 2.2702 2.3464 4.2504 4.0523 5.9396 1.7044 1.6817 3.7166 3.0229 6.0379 4.0205 2.3187.9903 4.8198 1.4889 7.503 1.4889 2.6475 0 5.1311-.4986 7.4521-1.4889 2.319-.9976 4.342-2.3452 6.063-4.0489 1.721-1.7053 3.083-3.6835 4.081-5.9396.995-2.2548 1.493-4.6599 1.493-7.2147 0-2.556-.498-4.9633-1.493-7.2173zm3.941 28.3068c-6.02 5.8226-13.199 8.7326-21.5371 8.7326-8.4116 0-15.5908-2.91-21.5342-8.7326-5.949-5.8255-8.9207-12.8526-8.9207-21.0895 0-8.2373 2.9717-15.2674 8.9207-21.08996 5.9434-5.82335 13.1226-8.73334 21.5342-8.73334 8.3381 0 15.5171 2.90999 21.5371 8.73334 5.946 5.75286 8.921 12.78216 8.921 21.08996-.039 4.1167-.79 7.9339-2.259 11.449-1.467 3.5151-3.688 6.7272-6.662 9.6405zm-70.327-28.3068c-.9971-2.2547-2.3568-4.2329-4.0779-5.9362-1.7217-1.7053-3.7439-3.0555-6.0626-4.0476-2.3213-.9959-4.8046-1.4923-7.4526-1.4923-2.6832 0-5.1842.4964-7.5051 1.4923-2.3217.9921-4.3341 2.3325-6.0353 4.0205-1.7059 1.6857-3.0552 3.6639-4.0524 5.9375-.9979 2.2701-1.4962 4.6871-1.4962 7.2431 0 2.5548.4983 4.9697 1.4962 7.2431.9972 2.2702 2.3465 4.2504 4.0524 5.9396 1.7012 1.6817 3.7136 3.0229 6.0353 4.0205 2.3209.9903 4.8219 1.4889 7.5051 1.4889 2.648 0 5.1313-.4986 7.4526-1.4889 2.3187-.9976 4.3409-2.3452 6.0626-4.0489 1.7211-1.7053 3.0808-3.6835 4.0779-5.9396.998-2.2548 1.4962-4.6599 1.4962-7.2147 0-2.556-.4982-4.9633-1.4962-7.2173zm7.1536 62.6034c-1.6327 0-2.9846-.5258-4.0528-1.5718-1.0708-1.0484-1.6046-2.3702-1.6046-3.9661v-26.5751c-5.5109 4.368-11.8746 6.549-19.0893 6.549-8.412 0-15.5908-2.91-21.53723-8.7326-5.94597-5.8255-8.91767-12.8526-8.91767-21.0895 0-8.2373 2.9717-15.2674 8.91767-21.08996 5.94643-5.82335 13.12523-8.73334 21.53723-8.73334 8.3387 0 15.5175 2.90999 21.5367 8.73334 5.9465 5.75286 8.9186 12.78216 8.9186 21.08996v49.8482c0 1.5959-.5521 2.9177-1.6583 3.9661-1.1059 1.046-2.4552 1.5718-4.0503 1.5718zm157.8294 123.0106h27.844v24.788h-27.844zm-32.908 0h27.845v24.788h-27.845zm-32.908 0h27.845v24.788h-27.845zm-32.908 0h27.846v24.788h-27.846zm-32.9083 0h27.8463v24.788h-27.8463zm32.9083 29.747h27.846v24.787h-27.846zm32.908 0h27.845v24.787h-27.845zm32.908 0h27.845v24.787h-27.845zm0 29.745h27.845v24.788h-27.845zm150.057-48.711-5.622 3.673c-6.083 3.984-20.053 5.443-30.807 3.458-1.385 9.917-7.03 18.517-17.297 26.291l-5.903 3.855-3.939-5.787c-5.043-7.446-7.561-17.762-6.736-27.656.372-3.479 1.54-9.705 5.197-15.177-3.655-1.924-10.88-4.573-20.401-4.395h-183.1292l-.3592-2.065c-1.7216-9.943-1.6834-40.967 18.8866-64.814 15.6363-18.125 39.0788-27.316 69.6758-27.316 66.33 0 115.403 29.899 138.383 84.247 9.036-.176 28.493-.051 38.489 18.649.259.429.859 1.551 2.606 5.093z" fill-rule="evenodd" transform="matrix(.133333 0 0 -.133333 0 44)"/><path d="m2.07662 2.4428h.25956c.30283 0 .54798.09803.54798.33777 0 .213-.15861.3543-.5047.3543-.14421 0-.24516-.014-.30284-.02927zm-.01443-1.31326h-.54799v2.31594c.21631.04242.51914.07043.90851.07043.44704 0 .64892-.07043.82197-.16931.12979-.09886.23074-.28259.23074-.50832 0-.25417-.20188-.45191-.4903-.53677v-.02928c.22963-.08359.36051-.25289.43262-.5635.0721-.35303.11537-.49433.17305-.57919h-.59126c-.0721.08486-.11536.29532-.18746.56477-.04326.25417-.18746.36746-.4903.36746h-.25958zm-1.456493 1.2144c0-1.03067.778713-1.849608 1.845853-1.849608 1.0383 0 1.8026.818938 1.8026 1.834338 0 1.03109-.76429 1.8653-1.81701 1.8653s-1.831443-.83421-1.831443-1.85003zm4.254123 0c0-1.31327-1.0527-2.34394-2.42268-2.34394-1.35556 0-2.43714 1.03067-2.43714 2.34394 0 1.28399 1.08158 2.31594 2.43714 2.31594 1.36998 0 2.42268-1.03195 2.42268-2.31594" transform="matrix(.133333 0 0 -.133333 44.3812 43.9814)"/></g></svg>