<svg fill="none" height="48" width="48" xmlns="http://www.w3.org/2000/svg"><path d="M24 48c13.255 0 24-10.745 24-24S37.255 0 24 0 0 10.745 0 24s10.745 24 24 24z" fill="#5c2d91"/><g fill="#fff"><path d="M8.049 6A24.047 24.047 0 1042 39.951z" opacity=".1"/><path d="M6.133 30.513a.999.999 0 01-.74-.31 1.02 1.02 0 01-.303-.74 1.036 1.036 0 01.303-.74.991.991 0 01.74-.318 1.013 1.013 0 01.74.318 1.028 1.028 0 01.31.74 1.013 1.013 0 01-.31.74 1.02 1.02 0 01-.74.31zM20.83 30.328h-1.937l-6.931-10.755a4.483 4.483 0 01-.43-.844h-.059c.066.614.091 1.232.074 1.85v9.749H9.972V16.843h2.049l6.746 10.563c.281.439.463.74.547.903h.037c-.078-.658-.11-1.32-.096-1.983v-9.483h1.576zM31.497 30.328H24.33V16.843h6.835v1.428h-5.222v4.482h4.867v1.42h-4.867v4.676h5.563zM42.082 18.27h-3.92v12.058h-1.576V18.27H32.71v-1.428h9.372z"/></g></svg>