<svg fill="none" height="48" viewBox="0 0 48 48" width="48" xmlns="http://www.w3.org/2000/svg"><path d="m24 48c13.2548 0 24-10.7452 24-24s-10.7452-24-24-24-24 10.7452-24 24 10.7452 24 24 24z" fill="#5c2d91"/><g fill="#fff"><path d="m8.04875 0c-2.44454 2.17836-4.41847 4.83301-5.80078 7.80122-1.382306 2.96818-2.143876 6.18748-2.23802619 9.46038-.09415011 3.273.48110319 6.5307 1.69049619 9.5734 1.2094 3.0428 3.02746 5.8065 5.34274 8.1218s5.07902 4.1334 8.12182 5.3428c3.0427 1.2094 6.3004 1.7846 9.5734 1.6905 3.2729-.0942 6.4922-.8558 9.4604-2.2381s5.6228-3.3562 7.8012-5.8008z" opacity=".1" transform="translate(0 6)"/><path d="m1.04307 2.10823c-.138073.00218-.275101-.02431-.402421-.07778-.12732-.05348-.242166-.13278-.33728-.23289-.097723-.09655-.174954-.21183-.2270666-.33893-.0521124-.12711-.07803428-.26342-.07621264-.40078-.00098668-.13724.02531694-.273311.07738154-.400298.0520647-.126986.1288517-.242357.2258977-.339405.094181-.10182.208682-.182743.3361-.2375325.127418-.0547898.264917-.08222761.403601-.08054122.13849-.00033882.27558.02770842.4028.08241482.12723.0547069.24189.1349119.33691.2356589.09872.09618.17709.211223.23046.338297.05337.127073.08065.263582.08021.401406.0013.13795-.02559.27471-.07901.40191-.05342.12719-.13225.24214-.23166.3378-.09592.09906-.21092.17765-.33805.23105s-.26377.08048-.40166.07962z" transform="translate(5.0896 28.4046)"/><path d="m10.8589 13.4848h-1.93806l-6.93103-10.75529c-.17236-.26517-.31617-.54783-.42903-.84326h-.05918c.06589.61408.0906 1.23188.07397 1.84926v9.74929h-1.57557v-13.4848h2.04898l6.74611 10.563c.28109.4389.46355.7397.54738.9024h.03699c-.07803-.6577-.11016-1.3201-.09616-1.98238v-9.48302h1.5756z" transform="translate(9.9718 16.8431)"/><path d="m7.16774 13.4848h-7.16774v-13.4848h6.83488v1.42763h-5.22232v4.48261h4.86725v1.42024h-4.86725v4.67492h5.56258z" transform="translate(24.3295 16.8431)"/><path d="m9.37206 1.42763h-3.92044v12.05717h-1.57557v-12.05717h-3.87605v-1.42763h9.37206z" transform="translate(32.7103 16.8431)"/></g></svg>