<svg fill="none" height="48" viewBox="0 0 48 48" width="48" xmlns="http://www.w3.org/2000/svg"><path d="m24 48c13.2548 0 24-10.7452 24-24s-10.7452-24-24-24-24 10.7452-24 24 10.7452 24 24 24z" fill="#5c2d91"/><g fill="#fff"><path d="m7.92278 0c-2.40629 2.14427-4.34932 4.75736-5.70999 7.67912-1.360675 2.92178-2.110325 6.09058-2.20300182 9.31238-.09267658 3.2217.47357382 6.4284 1.66404182 9.4235 1.19047 2.9952 2.98007 5.7157 5.25912 7.9947 2.27904 2.2791 4.99955 4.0687 7.99465 5.2591 2.9952 1.1905 6.2019 1.7567 9.4236 1.6641 3.2217-.0927 6.3906-.8424 9.3123-2.203 2.9218-1.3607 5.5349-3.3037 7.6792-5.71z" opacity=".1" transform="translate(0 6.65735)"/><path d="m1.04307 2.10823c-.138073.00218-.275101-.02431-.402421-.07778-.12732-.05348-.242166-.13278-.33728-.23289-.097723-.09655-.174954-.21183-.2270666-.33893-.0521124-.12711-.07803428-.26342-.07621264-.40078-.00098668-.13724.02531694-.273311.07738154-.400298.0520647-.126986.1288517-.242357.2258977-.339405.094181-.10182.208682-.182743.3361-.2375325.127418-.0547898.264917-.08222761.403601-.08054122.13849-.00033882.27558.02770842.4028.08241482.12723.0547069.24189.1349119.33691.2356589.09872.09618.17709.211223.23046.338297.05337.127073.08065.263582.08021.401406.0013.13795-.02559.27471-.07901.40191-.05342.12719-.13225.24214-.23166.3378-.09592.09906-.21092.17765-.33805.23105s-.26377.08048-.40166.07962z" transform="translate(5.0896 25.4458)"/><path d="m10.8589 13.4848h-1.93806l-6.93103-10.75529c-.17265-.265-.31648-.54769-.42903-.84326h-.05918c.06587.61408.09058 1.23188.07397 1.84926v9.74929h-1.57557v-13.4848h2.04898l6.74611 10.563c.28109.4389.46355.7397.54738.9024h.03699c-.07805-.6577-.11018-1.3201-.09616-1.98238v-9.48302h1.5756z" transform="translate(9.97174 13.8842)"/><path d="m7.16774 13.4848h-7.16774v-13.4848h6.83488v1.42763h-5.22232v4.48261h4.86725v1.42024h-4.86725v4.67492h5.56258z" transform="translate(24.3295 13.8842)"/><path d="m9.37206 1.42763h-3.92044v12.05717h-1.57557v-12.05717h-3.87605v-1.42763h9.37206z" transform="translate(32.7103 13.8842)"/></g><path d="m4.6413 6.03812c-.53403.25863-1.12311.38305-1.71612.36245-.39405.01776-.78734-.04896-1.15349-.19568-.36616-.14671-.6967-.37003-.969462-.65497-.543514-.60841-.8298878-1.40389-.7988813-2.21912-.0198967-.4414.0490768-.88231.2028273-1.29654.153751-.41424.389145-.79337.692215-1.1149.295351-.302569.650431-.540368 1.042661-.698279.39223-.1579101.81302-.2324752 1.23563-.21895328.50576-.01728362 1.00958.07088368 1.47941.25889528v.739707c-.45235-.250429-.96243-.377949-1.47941-.369854-.32593-.00918-.64999.052164-.95001.179833s-.56892.318651-.7883.559871c-.461317.52556-.70007 1.20998-.665731 1.90844-.034541.66164.188102 1.31102.621351 1.81228.20782.22346.46152.39932.74369.51551.28218.11619.58615.16996.89106.15762.56796.01486 1.12885-.12856 1.61995-.41424z" fill="#f2f2f2" transform="translate(15.3387 30.5033)"/><path d="m2.16399 4.68515c-.29445.00953-.58751-.04432-.85935-.1579-.27183-.11358-.516082-.28425-.716219-.50044-.404485-.4514-.6144854-1.04418-.58436608-1.64954-.01847192-.31715.02629368-.63481.13169408-.9345.1054-.29969.269332-.57544.482261-.811206.217307-.212082.47583-.377311.75956-.48546.28373-.1081495.58664-.1569172.88998-.14328855.28673-.01526855.57337.03169765.84023.13767555.26686.105979.50762.268457.70575.476278.39315.473801.59148 1.079351.55478 1.693921.03104.62373-.18412 1.23469-.59916 1.70133-.20391.22039-.45269.39451-.72958.51062-.27689.11612-.57546.17153-.87558.16251zm.05178-4.046191c-.20347-.008565-.40626.028894-.59324.10958-.18699.080687-.35336.202523-.48673.356431-.284624.3665-.426558.82385-.399437 1.28709-.025834.44947.116557.89247.399437 1.24271.13475.15173.30156.2716.48834.35092.18679.07932.38888.11611.59163.10769.1985.01172.39705-.02219.58041-.09912.18336-.07694.34666-.19485.47737-.3447.26893-.36747.39987-.81791.36985-1.27229.02925-.45659-.10153-.9091-.36985-1.27969-.12889-.152978-.29148-.274003-.47501-.353575s-.38301-.115528-.58277-.105046z" fill="#f2f2f2" transform="translate(20.8414 32.2187)"/><path d="m2.32267.792655c-.15977-.104667-.34946-.15404-.53998-.140546-.14901.005423-.29441.047387-.4234.122199s-.23761.18018-.31631.306832c-.220158.34856-.326169.7571-.303275 1.16873v2.2635h-.739705v-4.4382296h.739705v.9246316c.081318-.286098.243061-.542836.466015-.739705.19291-.1674216.43989-.25938067.69532-.25889593.14299-.00642603.28594.01363503.42163.05917493z" fill="#f2f2f2" transform="translate(26.3414 32.2869)"/><path d="m3.89548 2.51762h-3.128954c-.020995.41351.113587.8199.377244 1.13914.13712.13675.30155.24302.48255.31185.18101.06883.3745.09868.56783.08759.50144-.005.98641-.17969 1.37586-.4956v.66574c-.45735.30144-.99893.44915-1.54599.42163-.27603.01393-.55173-.03321-.80744-.13806-.255724-.10484-.485165-.26481-.671968-.4685-.385086-.48034-.5775792-1.08683-.53998427-1.70132-.02658623-.61601.18235627-1.21903.58436727-1.686531.182954-.211342.410594-.379378.666455-.491955.25586-.112578.53354-.16688406.81296-.15898617.25229-.01413543.50451.02910807.73769.12647917.23318.097371.44125.246338.60857.435698.34059.449125.50859 1.005615.47341 1.568175zm-.73971-.59917c.015-.34276-.08959-.68007-.29588-.954213-.10122-.114364-.22698-.204371-.36788-.263292-.1409-.058922-.29329-.085237-.44579-.076975-.15919-.001952-.31704.02927-.46349.091673-.14646.062403-.27832.154622-.38718.270784-.243459.257553-.396627.587253-.436423.939423z" fill="#f2f2f2" transform="translate(29.1033 32.2485)"/></svg>