<svg width="32" height="32" fill="none" xmlns="http://www.w3.org/2000/svg"><path d="M17.8 8.591c2.079 4.584 7.64 6.5 7.141 12.474-.582 7.017-5.551 8.784-8.316 8.909a8.815 8.815 0 01-9.4-7.485C5.618 15.046 12.655 3.632 16.709 2c-.134 2.25.24 4.503 1.091 6.591zm-.166 18.857a.423.423 0 00-.057-.327c-.593-1.1-5.81-1.645-6.907-1.752.488.5 1.037.938 1.635 1.3.861.527 1.817.88 2.814 1.041.803.121 2.348.223 2.516-.263l-.001.001z" fill="#7C648F"/><path opacity=".25" d="M18.248 10.618c4.47 4.823 6.445 4.979 6.237 10.478-.249 6.476-4.543 8.191-7.058 8.42-4.2.551-7.495-1.528-8.358-5.686-1.757-6.767 3.909-17.807 7.568-19.47a15.324 15.324 0 001.621 6.24l-.01.018z" fill="#26003D"/><path opacity=".75" d="M17.385 9.921C20.369 14 24.319 13.7 25 19.641c.094 6.923-3.6 9.283-6.237 9.948-4.5 1.279-8.514-.645-10.094-5-3.035-7 2.651-18.514 6.31-20.915a15.083 15.083 0 002.37 6.237l.036.01z" fill="url(#paint0_linear)"/><defs><linearGradient id="paint0_linear" x1="17.249" y1="29.597" x2="14.973" y2="3.994" gradientUnits="userSpaceOnUse"><stop stop-color="#fff" stop-opacity="0"/><stop offset=".01" stop-color="#F7F6F8" stop-opacity=".04"/><stop offset=".09" stop-color="#AA9CB3" stop-opacity=".39"/><stop offset=".2" stop-color="#6F567E" stop-opacity=".66"/><stop offset=".32" stop-color="#452459" stop-opacity=".86"/><stop offset=".5" stop-color="#2D0843" stop-opacity=".97"/><stop offset="1" stop-color="#26003D"/></linearGradient></defs></svg>