<svg id="svg" version="1.1" xmlns="http://www.w3.org/2000/svg" xmlns:xlink="http://www.w3.org/1999/xlink" width="400" height="400" viewBox="0, 0, 400,400"><g id="svgg"><path id="path0" d="M195.834 111.823 C 195.485 112.172,195.200 112.624,195.200 112.829 C 195.200 113.033,194.821 113.200,194.358 113.200 C 193.894 113.200,193.170 113.639,192.748 114.175 C 192.280 114.770,191.477 115.199,190.690 115.275 C 189.704 115.371,189.370 115.612,189.272 116.300 C 189.168 117.037,188.892 117.200,187.749 117.200 C 186.748 117.200,186.433 117.342,186.635 117.700 C 186.852 118.084,186.800 118.092,186.411 117.733 C 186.019 117.370,185.714 117.488,185.053 118.256 C 184.505 118.893,183.700 119.286,182.800 119.356 C 181.646 119.446,181.408 119.617,181.448 120.332 C 181.488 121.057,181.278 121.200,180.172 121.200 C 179.443 121.200,178.719 121.408,178.562 121.662 C 178.369 121.973,178.459 122.016,178.838 121.793 C 179.147 121.611,179.057 121.853,178.638 122.331 C 177.796 123.292,177.398 123.474,177.835 122.700 C 178.061 122.300,178.010 122.300,177.579 122.700 C 177.282 122.975,176.669 123.200,176.215 123.200 C 175.743 123.200,175.221 123.585,174.995 124.100 C 174.743 124.674,174.180 125.048,173.439 125.132 C 172.800 125.205,172.010 125.533,171.683 125.860 C 170.637 126.906,169.247 127.676,168.850 127.431 C 168.358 127.127,167.118 128.343,167.420 128.832 C 167.545 129.035,167.322 129.218,166.924 129.240 C 164.013 129.399,162.868 129.940,163.450 130.881 C 163.558 131.056,163.367 131.222,163.024 131.250 C 162.681 131.278,162.223 131.322,162.008 131.350 C 161.792 131.378,161.339 131.794,161.002 132.276 C 160.596 132.856,159.882 133.194,158.894 133.276 C 157.695 133.376,157.375 133.578,157.272 134.300 C 157.186 134.907,156.860 135.210,156.272 135.231 C 154.159 135.305,152.923 136.028,153.450 136.881 C 153.558 137.056,153.097 137.200,152.424 137.200 C 151.751 137.200,151.178 137.380,151.150 137.600 C 151.123 137.820,151.078 138.225,151.050 138.500 C 151.023 138.775,150.775 139.023,150.500 139.050 C 150.225 139.078,149.865 139.142,149.700 139.194 C 149.535 139.246,148.994 139.256,148.498 139.215 C 147.955 139.171,147.107 139.631,146.367 140.371 C 145.672 141.067,144.718 141.600,144.169 141.600 C 143.467 141.600,143.200 141.820,143.200 142.400 C 143.200 142.954,142.923 143.209,142.300 143.231 C 140.161 143.303,138.919 144.022,139.450 144.881 C 139.558 145.056,139.067 145.200,138.357 145.200 C 137.647 145.200,137.184 145.317,137.327 145.460 C 137.470 145.604,137.275 145.977,136.894 146.290 C 136.512 146.603,136.453 146.728,136.762 146.568 C 137.080 146.403,137.222 146.440,137.090 146.655 C 136.961 146.863,136.169 147.079,135.328 147.136 C 134.258 147.207,133.560 147.538,133.000 148.238 C 132.560 148.788,131.795 149.267,131.300 149.304 C 130.805 149.340,130.400 149.523,130.400 149.709 C 130.400 149.895,130.240 149.949,130.045 149.828 C 129.850 149.708,129.597 149.967,129.483 150.404 C 129.343 150.941,128.937 151.200,128.237 151.200 C 127.667 151.200,127.200 151.380,127.200 151.600 C 127.200 151.820,126.930 152.000,126.600 152.000 C 126.270 152.000,126.000 152.270,126.000 152.600 C 126.000 152.930,125.640 153.227,125.200 153.260 C 124.760 153.293,124.175 153.338,123.900 153.360 C 123.625 153.382,123.265 153.732,123.099 154.138 C 122.933 154.543,122.439 154.969,122.001 155.084 C 121.210 155.291,121.204 155.684,121.208 202.066 C 121.211 227.791,121.345 248.761,121.507 248.667 C 122.187 248.267,123.584 249.176,123.325 249.850 C 123.148 250.311,123.215 250.438,123.532 250.242 C 123.789 250.083,124.000 250.143,124.000 250.376 C 124.000 250.609,124.720 250.800,125.600 250.800 C 127.143 250.800,127.464 251.131,127.247 252.500 C 127.221 252.665,127.808 252.800,128.551 252.800 C 129.337 252.800,130.132 253.083,130.451 253.477 C 130.764 253.862,130.797 254.032,130.528 253.870 C 130.268 253.714,129.955 253.749,129.832 253.948 C 129.570 254.372,130.911 254.787,132.567 254.795 C 133.208 254.798,133.622 254.911,133.486 255.048 C 133.225 255.309,134.311 256.565,134.871 256.650 C 135.052 256.678,135.650 256.723,136.200 256.750 C 136.955 256.788,137.200 257.020,137.201 257.700 C 137.201 258.391,137.457 258.623,138.301 258.698 C 140.335 258.880,141.001 259.104,140.894 259.570 C 140.772 260.106,143.211 261.240,143.758 260.902 C 143.959 260.778,143.990 260.892,143.827 261.156 C 143.372 261.893,144.213 262.616,145.656 262.726 C 147.162 262.840,147.223 262.881,147.370 263.863 C 147.430 264.269,147.822 264.618,148.240 264.641 C 148.658 264.663,149.483 264.708,150.073 264.741 C 150.762 264.779,151.237 265.086,151.400 265.599 C 151.635 266.342,152.344 266.686,154.190 266.957 C 154.599 267.017,154.980 267.383,155.037 267.770 C 155.175 268.713,155.247 268.760,156.711 268.872 C 157.408 268.925,158.072 269.210,158.185 269.505 C 158.312 269.836,158.201 269.946,157.895 269.791 C 157.623 269.653,157.749 269.824,158.176 270.170 C 158.604 270.517,159.561 270.800,160.303 270.800 C 161.498 270.800,161.623 270.898,161.384 271.650 C 161.203 272.222,161.259 272.411,161.557 272.226 C 161.801 272.076,162.000 272.143,162.000 272.376 C 162.000 272.609,162.512 272.800,163.138 272.800 C 164.316 272.800,165.830 274.036,165.301 274.566 C 165.135 274.731,165.180 274.830,165.400 274.786 C 167.488 274.365,169.200 274.843,169.200 275.847 C 169.200 276.676,169.357 276.852,169.956 276.696 C 170.944 276.437,171.792 276.984,171.797 277.883 C 171.799 278.433,172.175 278.628,173.413 278.719 C 174.583 278.805,175.133 279.066,175.413 279.668 C 175.626 280.125,176.518 280.740,177.395 281.034 C 178.272 281.329,179.192 281.847,179.439 282.185 C 179.686 282.523,180.453 282.800,181.144 282.800 C 182.015 282.800,182.400 282.991,182.400 283.424 C 182.400 283.767,182.561 283.948,182.758 283.826 C 182.955 283.704,183.219 283.874,183.346 284.202 C 183.472 284.531,184.031 284.800,184.587 284.800 C 185.184 284.800,185.559 285.005,185.500 285.300 C 185.445 285.575,185.619 285.757,185.886 285.705 C 186.153 285.652,186.283 285.840,186.174 286.122 C 186.040 286.473,186.445 286.666,187.454 286.734 C 189.161 286.849,189.707 287.102,189.383 287.628 C 189.256 287.832,189.354 288.000,189.600 288.000 C 189.846 288.000,189.953 288.153,189.837 288.340 C 189.722 288.526,190.206 288.695,190.912 288.716 C 191.778 288.740,192.460 289.082,193.003 289.762 C 193.513 290.403,194.279 290.809,195.094 290.871 C 195.801 290.924,196.465 291.191,196.569 291.464 C 196.685 291.767,196.534 291.873,196.180 291.737 C 195.861 291.614,195.600 291.694,195.600 291.914 C 195.600 292.533,196.337 292.680,199.880 292.768 C 203.247 292.852,204.800 292.416,204.800 291.386 C 204.800 290.958,205.286 290.800,206.600 290.800 C 207.590 290.800,208.423 290.620,208.450 290.400 C 208.478 290.180,208.523 289.835,208.550 289.633 C 208.636 289.004,208.985 288.840,210.442 288.741 C 211.808 288.649,212.931 287.939,212.708 287.308 C 212.649 287.139,213.095 286.943,213.700 286.873 C 214.305 286.804,214.800 286.566,214.800 286.345 C 214.800 285.582,215.873 284.874,217.234 284.737 C 218.102 284.650,218.749 284.308,219.009 283.800 C 219.270 283.291,219.911 282.953,220.775 282.870 C 221.627 282.788,222.417 282.378,222.895 281.770 C 223.315 281.236,223.931 280.800,224.265 280.800 C 224.599 280.800,225.175 280.426,225.546 279.968 C 225.916 279.510,226.809 279.015,227.530 278.868 C 228.251 278.720,228.867 278.420,228.898 278.200 C 228.965 277.730,229.711 276.860,230.000 276.914 C 230.570 277.023,232.782 276.294,232.630 276.048 C 232.114 275.214,233.375 274.692,236.543 274.429 C 236.731 274.413,236.779 274.123,236.650 273.785 C 236.391 273.111,236.717 272.935,238.761 272.644 C 240.102 272.453,240.935 271.743,240.550 271.119 C 240.442 270.944,240.783 270.800,241.310 270.800 C 241.836 270.800,242.399 270.667,242.562 270.505 C 242.724 270.343,243.143 270.208,243.494 270.205 C 243.844 270.202,244.221 269.930,244.331 269.600 C 244.497 269.098,244.427 269.085,243.901 269.519 C 243.512 269.840,243.179 269.889,243.029 269.647 C 242.718 269.143,243.076 268.981,244.800 268.843 C 245.723 268.769,246.478 268.388,247.016 267.723 C 247.566 267.044,248.284 266.689,249.216 266.635 C 250.383 266.567,250.585 266.417,250.505 265.677 C 250.433 265.019,250.633 264.787,251.305 264.749 C 253.496 264.624,254.109 264.471,254.418 263.972 C 254.599 263.678,254.658 263.295,254.550 263.119 C 254.442 262.944,254.773 262.800,255.287 262.800 C 256.321 262.800,258.116 261.712,257.834 261.256 C 257.681 261.008,258.761 260.796,260.694 260.693 C 261.025 260.675,261.059 260.513,260.799 260.198 C 260.334 259.638,261.585 258.899,263.400 258.660 C 264.060 258.573,264.561 258.316,264.513 258.089 C 264.379 257.456,265.259 256.897,266.761 256.663 C 268.105 256.453,268.933 255.739,268.550 255.119 C 268.378 254.841,269.992 254.600,270.930 254.763 C 271.111 254.794,271.162 254.662,271.043 254.469 C 270.607 253.765,271.840 252.824,273.398 252.672 C 274.643 252.550,274.996 252.348,274.998 251.758 C 274.999 251.211,275.335 250.964,276.200 250.873 C 277.508 250.734,280.568 247.847,280.794 246.538 C 281.337 243.398,281.113 156.400,280.562 156.400 C 280.227 156.400,280.056 156.233,280.182 156.029 C 280.308 155.825,280.036 155.538,279.577 155.393 C 279.058 155.228,278.827 154.907,278.966 154.543 C 279.090 154.222,279.032 154.057,278.837 154.177 C 278.643 154.297,278.385 154.138,278.264 153.823 C 278.142 153.503,277.380 153.196,276.538 153.125 C 275.345 153.026,274.987 152.808,274.816 152.076 C 274.697 151.568,274.465 151.163,274.300 151.176 C 273.188 151.264,272.868 151.103,272.674 150.360 C 272.553 149.898,272.274 149.631,272.055 149.766 C 271.835 149.902,271.542 149.830,271.404 149.607 C 271.266 149.383,270.613 149.200,269.953 149.200 C 269.255 149.200,268.856 149.033,269.000 148.800 C 269.136 148.580,269.057 148.400,268.824 148.400 C 268.591 148.400,268.445 148.183,268.500 147.918 C 268.602 147.425,268.352 147.337,266.591 147.250 C 265.933 147.217,265.425 146.853,265.127 146.200 C 264.755 145.382,264.387 145.200,263.112 145.200 C 262.174 145.200,261.651 145.041,261.800 144.800 C 261.936 144.580,261.632 144.387,261.124 144.372 C 260.288 144.346,260.273 144.315,260.971 144.042 C 261.852 143.697,261.051 143.200,259.614 143.200 C 259.218 143.200,258.798 142.835,258.681 142.389 C 258.564 141.942,258.318 141.604,258.134 141.636 C 257.951 141.668,257.665 141.651,257.500 141.597 C 256.849 141.386,256.367 141.298,255.600 141.250 C 255.086 141.218,254.800 140.917,254.800 140.408 C 254.800 139.649,254.366 139.432,252.200 139.113 C 251.760 139.048,251.222 138.591,251.005 138.098 C 250.648 137.285,250.155 137.129,248.192 137.208 C 247.800 137.224,246.884 136.200,247.048 135.929 C 247.269 135.562,245.703 135.089,245.232 135.380 C 245.026 135.508,244.799 135.204,244.729 134.706 C 244.658 134.208,244.330 133.795,244.000 133.789 C 243.670 133.784,243.163 133.631,242.873 133.449 C 242.584 133.268,242.245 133.222,242.121 133.346 C 241.805 133.662,240.336 132.827,240.562 132.461 C 240.935 131.858,240.135 131.223,238.884 131.128 C 238.060 131.065,237.519 130.774,237.373 130.315 C 237.248 129.922,237.023 129.586,236.873 129.569 C 236.723 129.553,236.240 129.460,235.800 129.363 C 235.360 129.267,234.717 129.155,234.370 129.114 C 233.644 129.029,232.732 128.161,232.892 127.708 C 232.951 127.539,232.505 127.343,231.900 127.273 C 231.295 127.204,230.778 126.979,230.750 126.773 C 230.722 126.568,230.678 126.190,230.650 125.933 C 230.623 125.677,230.350 125.383,230.044 125.281 C 229.666 125.155,229.589 125.272,229.803 125.648 C 230.057 126.094,230.014 126.104,229.579 125.700 C 229.282 125.425,228.556 125.200,227.963 125.200 C 227.149 125.200,226.826 124.957,226.636 124.200 C 226.415 123.319,226.171 123.200,224.592 123.200 C 222.947 123.200,222.800 123.118,222.800 122.200 C 222.800 121.219,222.523 121.114,220.192 121.208 C 219.792 121.225,218.877 120.196,218.938 119.800 C 218.972 119.580,218.505 119.343,217.900 119.273 C 216.911 119.160,216.611 118.800,216.753 117.900 C 216.779 117.735,216.755 117.589,216.700 117.575 C 216.645 117.561,215.792 117.458,214.804 117.345 C 212.729 117.109,212.776 117.136,212.698 116.104 C 212.665 115.671,212.360 115.316,212.019 115.314 C 209.212 115.296,208.854 115.185,208.728 114.300 C 208.648 113.737,208.279 113.354,207.741 113.278 C 207.268 113.210,206.785 112.787,206.668 112.337 C 206.550 111.888,206.274 111.631,206.055 111.766 C 205.835 111.902,205.552 111.846,205.426 111.643 C 204.997 110.949,196.550 111.108,195.834 111.823 M149.439 137.538 C 149.300 137.761,149.382 138.065,149.620 138.212 C 150.235 138.593,150.632 138.072,150.118 137.558 C 149.831 137.271,149.607 137.264,149.439 137.538 " stroke="none" fill="#8484f4" fill-rule="evenodd"></path><path id="path1" d="M108.114 32.244 C 107.530 32.874,106.747 33.217,105.814 33.250 C 103.568 33.329,103.482 33.361,103.368 34.137 C 103.229 35.083,103.066 35.230,102.073 35.304 C 101.623 35.338,101.264 35.464,101.275 35.583 C 101.383 36.771,101.098 37.200,100.200 37.200 C 99.408 37.200,99.200 37.402,99.200 38.172 C 99.200 38.876,98.951 39.180,98.300 39.272 C 97.532 39.381,97.382 39.679,97.278 41.300 C 97.168 43.015,97.061 43.200,96.178 43.200 C 95.397 43.200,95.200 43.405,95.200 44.218 C 95.200 44.778,94.754 45.682,94.209 46.227 C 93.564 46.872,93.180 47.757,93.109 48.758 C 93.028 49.899,92.853 50.241,92.431 50.079 C 92.033 49.927,91.936 50.057,92.110 50.510 C 92.286 50.967,92.188 51.093,91.780 50.937 C 91.350 50.772,91.200 51.036,91.200 51.957 C 91.200 53.016,91.052 53.200,90.200 53.200 C 89.267 53.200,89.200 53.333,89.200 55.200 C 89.200 57.067,89.133 57.200,88.200 57.200 C 87.360 57.200,87.200 57.388,87.200 58.376 C 87.200 59.023,86.992 59.681,86.738 59.838 C 86.452 60.015,86.385 59.948,86.562 59.662 C 86.938 59.054,86.293 59.067,85.680 59.680 C 85.049 60.311,85.063 60.925,85.700 60.565 C 86.100 60.339,86.100 60.390,85.700 60.821 C 85.425 61.118,85.200 61.774,85.200 62.280 C 85.200 62.786,85.020 63.223,84.800 63.250 C 84.580 63.278,84.175 63.323,83.900 63.350 C 83.373 63.403,83.330 63.565,83.250 65.800 C 83.207 67.013,83.067 67.200,82.200 67.200 C 81.269 67.200,81.200 67.335,81.200 69.172 C 81.200 70.913,81.094 71.159,80.300 71.272 C 79.688 71.359,79.357 71.720,79.266 72.400 C 79.193 72.950,78.941 73.580,78.707 73.800 C 78.417 74.073,78.372 74.042,78.565 73.700 C 78.925 73.063,78.311 73.049,77.680 73.680 C 77.049 74.311,77.063 74.925,77.700 74.565 C 78.100 74.339,78.100 74.390,77.700 74.821 C 77.425 75.118,77.200 75.774,77.200 76.280 C 77.200 76.786,77.033 77.200,76.829 77.200 C 76.022 77.200,75.200 78.527,75.200 79.829 C 75.200 81.025,75.072 81.200,74.200 81.200 C 73.395 81.200,73.200 81.399,73.200 82.218 C 73.200 82.778,72.750 83.686,72.200 84.236 C 71.650 84.786,71.200 85.635,71.200 86.123 C 71.200 86.659,70.844 87.166,70.300 87.405 C 69.605 87.710,69.372 88.187,69.277 89.500 C 69.168 91.002,69.040 91.200,68.177 91.200 C 67.271 91.200,67.200 91.346,67.200 93.200 C 67.200 95.067,67.133 95.200,66.200 95.200 C 65.360 95.200,65.200 95.388,65.200 96.376 C 65.200 97.023,64.992 97.681,64.738 97.838 C 64.452 98.015,64.385 97.948,64.562 97.662 C 64.938 97.054,64.293 97.067,63.680 97.680 C 63.049 98.311,63.063 98.925,63.700 98.565 C 64.100 98.339,64.100 98.390,63.700 98.821 C 63.425 99.118,63.200 99.761,63.200 100.252 C 63.200 100.873,62.926 101.183,62.300 101.272 C 61.532 101.381,61.382 101.679,61.278 103.300 C 61.168 105.015,61.061 105.200,60.178 105.200 C 59.640 105.200,59.221 105.335,59.247 105.500 C 59.383 106.359,59.162 107.627,58.900 107.487 C 58.370 107.204,57.404 108.570,57.261 109.804 C 57.097 111.213,57.086 111.229,56.146 111.367 C 55.597 111.447,55.384 111.903,55.275 113.237 C 55.196 114.207,54.963 115.061,54.758 115.136 C 53.843 115.469,53.200 116.562,53.200 117.785 C 53.200 118.868,53.015 119.160,52.200 119.364 C 51.545 119.529,51.200 119.895,51.200 120.426 C 51.200 120.872,50.750 121.686,50.200 122.236 C 49.650 122.786,49.200 123.635,49.200 124.123 C 49.200 124.659,48.844 125.166,48.300 125.405 C 47.605 125.710,47.372 126.187,47.277 127.500 C 47.168 129.002,47.040 129.200,46.177 129.200 C 45.271 129.200,45.200 129.346,45.200 131.200 C 45.200 133.067,45.133 133.200,44.200 133.200 C 43.400 133.200,43.200 133.400,43.200 134.200 C 43.200 134.750,43.020 135.222,42.800 135.250 C 42.580 135.278,42.175 135.322,41.900 135.350 C 41.374 135.403,41.330 135.566,41.250 137.772 C 41.210 138.872,41.021 139.170,40.300 139.272 C 39.532 139.381,39.382 139.679,39.278 141.300 C 39.168 143.015,39.061 143.200,38.178 143.200 C 37.273 143.200,37.200 143.347,37.200 145.172 C 37.200 146.913,37.094 147.159,36.300 147.272 C 35.722 147.354,35.354 147.722,35.272 148.300 C 35.202 148.795,34.977 149.222,34.772 149.250 C 34.567 149.278,34.181 149.322,33.913 149.350 C 33.634 149.379,33.363 150.172,33.278 151.200 C 33.197 152.190,32.963 153.061,32.758 153.136 C 31.834 153.472,31.200 154.568,31.200 155.829 C 31.200 157.025,31.072 157.200,30.200 157.200 C 29.395 157.200,29.200 157.399,29.200 158.218 C 29.200 158.778,28.750 159.686,28.200 160.236 C 27.650 160.786,27.200 161.635,27.200 162.123 C 27.200 162.659,26.844 163.166,26.300 163.405 C 25.605 163.710,25.372 164.187,25.277 165.500 C 25.168 167.002,25.040 167.200,24.177 167.200 C 23.271 167.200,23.200 167.346,23.200 169.200 C 23.200 171.067,23.133 171.200,22.200 171.200 C 21.351 171.200,21.200 171.385,21.200 172.424 C 21.200 173.097,21.065 173.575,20.900 173.487 C 20.370 173.204,19.404 174.570,19.261 175.804 C 19.097 177.214,19.087 177.229,18.137 177.368 C 17.362 177.482,17.330 177.569,17.250 179.800 C 17.207 181.013,17.067 181.200,16.200 181.200 C 15.351 181.200,15.200 181.385,15.200 182.424 C 15.200 183.097,15.065 183.575,14.900 183.487 C 14.612 183.333,13.200 184.589,13.200 185.000 C 13.200 185.110,13.200 185.658,13.200 186.218 C 13.200 186.778,12.750 187.686,12.200 188.236 C 11.650 188.786,11.200 189.666,11.200 190.190 C 11.200 190.875,10.946 191.180,10.300 191.272 C 9.471 191.390,9.391 191.636,9.280 194.400 C 9.215 196.049,8.963 197.579,8.722 197.800 C 8.418 198.076,8.370 198.046,8.565 197.700 C 8.925 197.063,8.311 197.049,7.680 197.680 C 7.049 198.311,7.063 198.925,7.700 198.565 C 8.100 198.339,8.100 198.390,7.700 198.821 C 6.647 199.955,7.052 204.800,8.200 204.800 C 9.179 204.800,9.200 204.865,9.200 207.829 C 9.200 210.795,9.654 212.000,10.771 212.000 C 11.007 212.000,11.200 212.630,11.200 213.400 C 11.200 214.627,11.324 214.800,12.200 214.800 C 13.133 214.800,13.200 214.933,13.200 216.800 C 13.200 218.667,13.267 218.800,14.200 218.800 C 15.139 218.800,15.504 219.672,15.247 221.300 C 15.221 221.465,15.470 221.600,15.800 221.600 C 16.130 221.600,16.400 221.870,16.400 222.200 C 16.400 222.530,16.580 222.800,16.800 222.800 C 17.020 222.800,17.200 223.250,17.200 223.800 C 17.200 224.594,17.401 224.800,18.178 224.800 C 19.061 224.800,19.168 224.985,19.278 226.700 C 19.382 228.321,19.532 228.619,20.300 228.728 C 21.094 228.841,21.200 229.087,21.200 230.828 C 21.200 231.913,21.335 232.779,21.500 232.753 C 22.694 232.564,23.200 232.884,23.200 233.829 C 23.200 234.883,24.008 236.000,24.771 236.000 C 25.007 236.000,25.200 236.630,25.200 237.400 C 25.200 238.627,25.324 238.800,26.200 238.800 C 27.133 238.800,27.200 238.933,27.200 240.800 C 27.200 242.667,27.267 242.800,28.200 242.800 C 29.067 242.800,29.207 242.987,29.250 244.200 C 29.331 246.481,29.372 246.600,30.073 246.605 C 30.996 246.612,31.160 246.847,31.273 248.321 C 31.328 249.047,31.593 249.600,31.885 249.600 C 32.168 249.600,32.400 249.870,32.400 250.200 C 32.400 250.530,32.567 250.800,32.772 250.800 C 32.977 250.800,33.202 251.205,33.272 251.700 C 33.353 252.271,33.721 252.646,34.279 252.725 C 35.021 252.831,35.177 253.144,35.279 254.725 C 35.352 255.858,35.598 256.620,35.900 256.650 C 36.175 256.678,36.580 256.723,36.800 256.750 C 37.020 256.778,37.200 257.263,37.200 257.829 C 37.200 258.869,38.005 260.000,38.746 260.000 C 38.968 260.000,39.206 260.585,39.275 261.300 C 39.371 262.296,39.610 262.630,40.300 262.728 C 41.094 262.841,41.200 263.087,41.200 264.828 C 41.200 266.665,41.269 266.800,42.200 266.800 C 43.023 266.800,43.201 266.995,43.205 267.900 C 43.213 269.360,43.623 270.833,43.965 270.622 C 44.544 270.264,45.179 271.086,45.272 272.316 C 45.328 273.046,45.592 273.600,45.885 273.600 C 46.168 273.600,46.400 273.870,46.400 274.200 C 46.400 274.530,46.580 274.800,46.800 274.800 C 47.020 274.800,47.200 275.250,47.200 275.800 C 47.200 276.594,47.401 276.800,48.178 276.800 C 49.058 276.800,49.168 276.987,49.278 278.664 C 49.373 280.115,49.563 280.551,50.137 280.634 C 51.117 280.775,51.160 280.838,51.273 282.321 C 51.328 283.047,51.593 283.600,51.885 283.600 C 52.168 283.600,52.400 283.870,52.400 284.200 C 52.400 284.530,52.580 284.800,52.800 284.800 C 53.020 284.800,53.200 285.250,53.200 285.800 C 53.200 286.600,53.400 286.800,54.200 286.800 C 55.133 286.800,55.200 286.933,55.200 288.800 C 55.200 290.667,55.267 290.800,56.200 290.800 C 57.023 290.800,57.201 290.995,57.205 291.900 C 57.213 293.360,57.623 294.833,57.965 294.622 C 58.544 294.264,59.179 295.086,59.272 296.316 C 59.328 297.046,59.592 297.600,59.885 297.600 C 60.168 297.600,60.400 297.870,60.400 298.200 C 60.400 298.530,60.580 298.800,60.800 298.800 C 61.020 298.800,61.200 299.250,61.200 299.800 C 61.200 300.600,61.400 300.800,62.200 300.800 C 63.133 300.800,63.200 300.933,63.200 302.800 C 63.200 304.667,63.267 304.800,64.200 304.800 C 65.139 304.800,65.504 305.672,65.247 307.300 C 65.221 307.465,65.470 307.600,65.800 307.600 C 66.130 307.600,66.400 307.870,66.400 308.200 C 66.400 308.530,66.580 308.800,66.800 308.800 C 67.020 308.800,67.200 309.250,67.200 309.800 C 67.200 310.594,67.401 310.800,68.178 310.800 C 69.061 310.800,69.168 310.985,69.278 312.700 C 69.382 314.321,69.532 314.619,70.300 314.728 C 71.088 314.840,71.200 315.090,71.200 316.743 C 71.200 318.377,71.313 318.638,72.045 318.693 C 73.134 318.775,73.157 318.807,73.273 320.321 C 73.328 321.047,73.593 321.600,73.885 321.600 C 74.168 321.600,74.400 321.870,74.400 322.200 C 74.400 322.530,74.580 322.800,74.800 322.800 C 75.020 322.800,75.200 323.250,75.200 323.800 C 75.200 324.600,75.400 324.800,76.200 324.800 C 77.133 324.800,77.200 324.933,77.200 326.800 C 77.200 328.667,77.267 328.800,78.200 328.800 C 79.067 328.800,79.207 328.987,79.250 330.200 C 79.331 332.481,79.372 332.600,80.073 332.605 C 80.996 332.612,81.160 332.847,81.273 334.321 C 81.328 335.047,81.593 335.600,81.885 335.600 C 82.168 335.600,82.400 335.870,82.400 336.200 C 82.400 336.530,82.567 336.800,82.772 336.800 C 82.977 336.800,83.202 337.205,83.272 337.700 C 83.353 338.271,83.721 338.646,84.278 338.725 C 84.999 338.827,85.178 339.151,85.278 340.525 C 85.372 341.812,85.608 342.291,86.300 342.595 C 87.088 342.941,87.455 343.987,87.247 345.300 C 87.221 345.465,87.470 345.600,87.800 345.600 C 88.130 345.600,88.400 345.870,88.400 346.200 C 88.400 346.530,88.567 346.800,88.772 346.800 C 88.977 346.800,89.202 347.205,89.272 347.700 C 89.354 348.278,89.722 348.646,90.300 348.728 C 91.094 348.841,91.200 349.087,91.200 350.828 C 91.200 352.665,91.269 352.800,92.200 352.800 C 93.023 352.800,93.201 352.995,93.205 353.900 C 93.213 355.360,93.623 356.833,93.965 356.622 C 94.544 356.264,95.179 357.086,95.272 358.316 C 95.328 359.046,95.592 359.600,95.885 359.600 C 96.168 359.600,96.400 359.870,96.400 360.200 C 96.400 360.530,96.580 360.800,96.800 360.800 C 97.020 360.800,97.200 361.250,97.200 361.800 C 97.200 362.600,97.400 362.800,98.200 362.800 C 99.000 362.800,99.200 363.000,99.200 363.800 C 99.200 364.600,99.400 364.800,100.200 364.800 C 101.000 364.800,101.200 365.000,101.200 365.800 C 101.200 366.733,101.333 366.800,103.200 366.800 C 105.065 366.800,105.200 366.867,105.200 367.797 L 105.200 368.793 200.785 368.798 C 293.795 368.803,296.381 368.783,296.771 368.054 C 296.991 367.642,297.058 367.192,296.919 367.053 C 296.780 366.914,297.327 366.778,298.133 366.750 C 300.438 366.671,300.597 366.630,300.650 366.100 C 300.678 365.825,300.723 365.420,300.750 365.200 C 300.778 364.980,301.154 364.800,301.586 364.800 C 302.226 364.800,303.219 363.689,303.368 362.808 C 303.385 362.702,303.670 362.612,304.000 362.608 C 304.609 362.600,304.672 362.393,304.754 360.128 C 304.790 359.130,304.994 358.828,305.700 358.728 C 306.468 358.619,306.618 358.321,306.722 356.700 C 306.832 354.985,306.939 354.800,307.822 354.800 C 308.670 354.800,308.800 354.617,308.800 353.423 C 308.800 352.278,308.930 352.071,309.572 352.195 C 310.153 352.307,310.307 352.153,310.195 351.572 C 310.113 351.147,310.216 350.800,310.423 350.800 C 310.630 350.800,310.800 350.350,310.800 349.800 C 310.800 349.250,310.980 348.778,311.200 348.750 C 311.420 348.723,311.825 348.678,312.100 348.650 C 312.627 348.597,312.670 348.435,312.750 346.200 C 312.793 344.987,312.933 344.800,313.800 344.800 C 314.733 344.800,314.800 344.667,314.800 342.800 C 314.800 340.933,314.867 340.800,315.800 340.800 C 316.649 340.800,316.800 340.615,316.800 339.576 C 316.800 338.903,316.935 338.425,317.100 338.513 C 317.388 338.667,318.800 337.411,318.800 337.000 C 318.800 336.890,318.800 336.363,318.800 335.828 C 318.800 335.124,319.049 334.820,319.700 334.728 C 320.468 334.619,320.618 334.321,320.722 332.700 C 320.832 330.985,320.939 330.800,321.822 330.800 C 322.670 330.800,322.800 330.617,322.800 329.423 C 322.800 328.278,322.930 328.071,323.572 328.195 C 324.153 328.307,324.307 328.153,324.195 327.572 C 324.113 327.147,324.216 326.800,324.423 326.800 C 324.630 326.800,324.800 326.350,324.800 325.800 C 324.800 325.250,324.980 324.778,325.200 324.750 C 325.420 324.723,325.825 324.678,326.100 324.650 C 326.627 324.597,326.670 324.435,326.750 322.200 C 326.793 320.987,326.933 320.800,327.800 320.800 C 328.733 320.800,328.800 320.667,328.800 318.800 C 328.800 316.933,328.867 316.800,329.800 316.800 C 330.649 316.800,330.800 316.615,330.800 315.576 C 330.800 314.903,330.935 314.425,331.100 314.513 C 331.629 314.795,332.595 313.431,332.741 312.196 C 332.889 310.942,333.490 310.295,334.250 310.573 C 334.498 310.663,334.695 310.526,334.687 310.268 C 334.607 307.433,334.810 306.800,335.800 306.800 C 336.733 306.800,336.800 306.667,336.800 304.800 C 336.800 302.933,336.867 302.800,337.800 302.800 C 338.600 302.800,338.800 302.600,338.800 301.800 C 338.800 301.250,338.980 300.778,339.200 300.750 C 339.420 300.723,339.825 300.678,340.100 300.650 C 340.626 300.597,340.670 300.434,340.750 298.228 C 340.790 297.128,340.979 296.830,341.700 296.728 C 342.468 296.619,342.618 296.321,342.722 294.700 C 342.832 292.985,342.939 292.800,343.822 292.800 C 344.670 292.800,344.800 292.617,344.800 291.423 C 344.800 290.278,344.930 290.071,345.572 290.195 C 346.153 290.307,346.307 290.153,346.195 289.572 C 346.113 289.147,346.216 288.800,346.423 288.800 C 346.630 288.800,346.800 288.358,346.800 287.818 C 346.800 287.278,347.250 286.386,347.800 285.836 C 348.350 285.286,348.800 284.378,348.800 283.818 C 348.800 282.999,348.995 282.800,349.800 282.800 C 350.733 282.800,350.800 282.667,350.800 280.800 C 350.800 278.933,350.867 278.800,351.800 278.800 C 352.649 278.800,352.800 278.615,352.800 277.576 C 352.800 276.903,352.935 276.425,353.100 276.513 C 353.388 276.667,354.800 275.411,354.800 275.000 C 354.800 274.890,354.800 274.363,354.800 273.828 C 354.800 273.124,355.049 272.820,355.700 272.728 C 356.468 272.619,356.618 272.321,356.722 270.700 C 356.832 268.985,356.939 268.800,357.822 268.800 C 358.599 268.800,358.800 268.594,358.800 267.800 C 358.800 267.250,358.991 266.800,359.224 266.800 C 359.457 266.800,359.549 266.640,359.428 266.445 C 359.307 266.250,359.522 265.845,359.904 265.545 C 360.534 265.052,360.548 265.067,360.051 265.700 C 359.749 266.085,359.685 266.400,359.908 266.400 C 360.465 266.400,360.800 265.403,360.800 263.744 C 360.800 262.979,360.935 262.425,361.100 262.513 C 361.388 262.667,362.800 261.411,362.800 261.000 C 362.800 260.890,362.800 260.350,362.800 259.800 C 362.800 259.000,363.000 258.800,363.800 258.800 C 364.733 258.800,364.800 258.667,364.800 256.800 C 364.800 254.933,364.867 254.800,365.800 254.800 C 366.649 254.800,366.800 254.615,366.800 253.576 C 366.800 252.903,366.935 252.425,367.100 252.513 C 367.629 252.795,368.595 251.431,368.741 250.196 C 368.889 248.942,369.490 248.295,370.250 248.573 C 370.498 248.663,370.695 248.526,370.687 248.268 C 370.607 245.433,370.810 244.800,371.800 244.800 C 372.600 244.800,372.800 244.600,372.800 243.800 C 372.800 243.250,372.991 242.800,373.224 242.800 C 373.457 242.800,373.549 242.640,373.428 242.445 C 373.307 242.250,373.522 241.845,373.904 241.545 C 374.534 241.052,374.548 241.067,374.051 241.700 C 373.749 242.085,373.685 242.400,373.908 242.400 C 374.438 242.400,374.800 241.421,374.800 239.985 C 374.800 239.293,375.197 238.439,375.800 237.836 C 376.350 237.286,376.800 236.391,376.800 235.846 C 376.800 235.124,377.043 234.821,377.700 234.728 C 378.468 234.619,378.618 234.321,378.722 232.700 C 378.831 231.000,378.944 230.800,379.795 230.800 C 380.536 230.800,380.775 230.556,380.873 229.700 C 380.964 228.909,381.225 228.600,381.800 228.600 C 382.608 228.600,382.670 228.437,382.754 226.118 C 382.782 225.330,383.185 224.452,383.800 223.836 C 384.350 223.286,384.800 222.378,384.800 221.818 C 384.800 220.999,384.995 220.800,385.800 220.800 C 386.733 220.800,386.800 220.667,386.800 218.800 C 386.800 216.933,386.867 216.800,387.800 216.800 C 388.600 216.800,388.800 216.600,388.800 215.800 C 388.800 215.250,388.980 214.778,389.200 214.750 C 389.420 214.722,389.819 214.678,390.087 214.650 C 390.365 214.621,390.639 213.826,390.725 212.800 C 390.873 211.036,391.389 210.259,392.214 210.559 C 392.469 210.651,392.672 209.609,392.742 207.855 C 392.805 206.285,393.024 204.940,393.230 204.866 C 393.436 204.792,393.516 204.587,393.407 204.411 C 393.298 204.235,393.522 203.845,393.904 203.545 C 394.534 203.052,394.548 203.067,394.051 203.700 C 393.749 204.085,393.685 204.400,393.908 204.400 C 394.463 204.400,394.800 203.404,394.800 201.767 C 394.800 200.819,394.616 200.400,394.200 200.400 C 393.870 200.400,393.600 200.119,393.600 199.776 C 393.600 199.433,393.420 199.264,393.200 199.400 C 392.946 199.557,392.800 198.471,392.800 196.424 C 392.800 193.271,392.778 193.200,391.822 193.200 C 390.939 193.200,390.832 193.015,390.722 191.300 C 390.618 189.679,390.468 189.381,389.700 189.272 C 389.049 189.180,388.800 188.876,388.800 188.172 C 388.800 186.244,388.189 185.042,387.369 185.356 C 386.956 185.515,386.800 185.250,386.800 184.387 C 386.800 183.734,386.620 183.200,386.400 183.200 C 386.180 183.200,386.000 183.007,386.000 182.771 C 386.000 182.536,385.730 182.073,385.400 181.743 C 385.070 181.413,384.800 180.706,384.800 180.171 C 384.800 179.402,384.592 179.200,383.800 179.200 C 382.928 179.200,382.800 179.024,382.800 177.833 C 382.800 175.948,382.447 175.200,381.557 175.200 C 381.016 175.200,380.800 174.914,380.800 174.200 C 380.800 172.263,380.197 171.039,379.394 171.347 C 379.032 171.486,378.807 171.195,378.724 170.478 C 378.636 169.713,378.339 169.363,377.700 169.272 C 376.906 169.159,376.800 168.913,376.800 167.172 C 376.800 165.335,376.731 165.200,375.800 165.200 C 374.933 165.200,374.793 165.013,374.750 163.800 C 374.667 161.486,374.634 161.405,373.700 161.272 C 372.942 161.165,372.410 159.777,372.868 159.100 C 373.138 158.700,371.831 157.179,371.369 157.356 C 370.956 157.515,370.800 157.250,370.800 156.387 C 370.800 155.388,370.642 155.200,369.800 155.200 C 368.867 155.200,368.800 155.067,368.800 153.200 C 368.800 151.333,368.733 151.200,367.800 151.200 C 366.859 151.200,366.416 149.633,366.753 147.500 C 366.779 147.335,366.350 147.200,365.800 147.200 C 364.948 147.200,364.793 147.008,364.754 145.900 C 364.674 143.644,364.612 143.403,364.100 143.351 C 363.825 143.323,363.433 143.278,363.228 143.250 C 363.023 143.223,362.798 142.795,362.728 142.300 C 362.647 141.729,362.279 141.354,361.721 141.275 C 360.979 141.169,360.823 140.856,360.721 139.275 C 360.618 137.679,360.466 137.381,359.700 137.272 C 358.812 137.146,358.682 136.712,358.693 133.900 C 358.695 133.429,358.385 133.200,357.748 133.200 C 356.931 133.200,356.800 133.006,356.800 131.800 C 356.800 130.822,356.619 130.400,356.200 130.400 C 355.870 130.400,355.600 130.119,355.600 129.776 C 355.600 129.433,355.432 129.256,355.227 129.383 C 355.022 129.510,354.797 129.116,354.727 128.507 C 354.636 127.712,354.346 127.364,353.700 127.272 C 352.979 127.170,352.790 126.872,352.750 125.772 C 352.667 123.488,352.632 123.404,351.700 123.272 C 350.876 123.155,350.493 121.825,350.739 119.940 C 350.758 119.797,350.329 119.569,349.787 119.432 C 349.069 119.252,348.800 118.914,348.800 118.192 C 348.800 117.401,348.598 117.200,347.800 117.200 C 346.867 117.200,346.800 117.067,346.800 115.200 C 346.800 113.333,346.733 113.200,345.800 113.200 C 344.859 113.200,344.416 111.633,344.753 109.500 C 344.779 109.335,344.350 109.200,343.800 109.200 C 342.948 109.200,342.793 109.008,342.754 107.900 C 342.674 105.644,342.612 105.403,342.100 105.351 C 341.825 105.323,341.420 105.278,341.200 105.250 C 340.980 105.222,340.800 104.570,340.800 103.800 C 340.800 102.822,340.619 102.400,340.200 102.400 C 339.870 102.400,339.600 102.119,339.600 101.776 C 339.600 101.433,339.432 101.256,339.227 101.383 C 339.022 101.510,338.797 101.116,338.727 100.507 C 338.637 99.722,338.345 99.364,337.722 99.275 C 337.001 99.173,336.822 98.849,336.722 97.475 C 336.628 96.188,336.392 95.709,335.700 95.405 C 335.031 95.112,334.800 94.675,334.800 93.705 C 334.800 92.812,334.611 92.400,334.200 92.400 C 333.870 92.400,333.600 92.119,333.600 91.776 C 333.600 91.433,333.420 91.264,333.200 91.400 C 332.967 91.544,332.800 91.137,332.800 90.424 C 332.800 89.385,332.649 89.200,331.800 89.200 C 330.867 89.200,330.800 89.067,330.800 87.200 C 330.800 85.333,330.733 85.200,329.800 85.200 C 328.859 85.200,328.416 83.633,328.753 81.500 C 328.779 81.335,328.350 81.200,327.800 81.200 C 326.924 81.200,326.800 81.027,326.800 79.800 C 326.800 78.822,326.619 78.400,326.200 78.400 C 325.870 78.400,325.600 78.119,325.600 77.776 C 325.600 77.433,325.420 77.264,325.200 77.400 C 324.967 77.544,324.800 77.137,324.800 76.424 C 324.800 75.385,324.649 75.200,323.800 75.200 C 322.867 75.200,322.800 75.067,322.800 73.200 C 322.800 71.333,322.733 71.200,321.800 71.200 C 320.938 71.200,320.347 69.870,320.868 69.100 C 321.138 68.700,319.831 67.179,319.369 67.356 C 318.936 67.523,318.800 67.196,318.800 65.987 C 318.800 64.843,318.633 64.400,318.200 64.400 C 317.870 64.400,317.600 64.119,317.600 63.776 C 317.600 63.433,317.420 63.264,317.200 63.400 C 316.860 63.610,316.596 62.491,316.753 61.500 C 316.779 61.335,316.350 61.200,315.800 61.200 C 314.867 61.200,314.800 61.067,314.800 59.200 C 314.800 57.333,314.733 57.200,313.800 57.200 C 313.000 57.200,312.800 57.000,312.800 56.200 C 312.800 55.650,312.620 55.200,312.400 55.200 C 312.180 55.200,312.000 55.007,312.000 54.771 C 312.000 54.536,311.730 54.073,311.400 53.743 C 311.070 53.413,310.800 52.706,310.800 52.171 C 310.800 51.402,310.592 51.200,309.800 51.200 C 308.928 51.200,308.800 51.024,308.800 49.833 C 308.800 47.960,308.448 47.200,307.580 47.200 C 307.002 47.200,306.820 46.838,306.723 45.500 C 306.628 44.187,306.395 43.710,305.700 43.405 C 305.031 43.112,304.800 42.675,304.800 41.705 C 304.800 40.924,304.598 40.400,304.298 40.400 C 303.803 40.400,302.536 38.085,302.711 37.500 C 302.760 37.335,302.461 37.200,302.046 37.200 C 301.631 37.200,300.997 36.750,300.637 36.200 C 300.146 35.451,299.633 35.200,298.591 35.200 C 297.374 35.200,297.200 35.075,297.200 34.200 C 297.200 33.256,297.078 33.200,295.028 33.200 C 293.080 33.200,292.842 33.107,292.728 32.300 L 292.600 31.400 200.800 31.344 L 109.000 31.288 108.114 32.244 M201.743 71.400 C 202.073 71.730,202.536 72.000,202.771 72.000 C 203.007 72.000,203.200 72.180,203.200 72.400 C 203.200 72.620,203.734 72.800,204.387 72.800 C 205.250 72.800,205.515 72.956,205.356 73.369 C 205.040 74.195,206.243 74.800,208.200 74.800 C 208.914 74.800,209.200 75.016,209.200 75.557 C 209.200 76.447,209.948 76.800,211.833 76.800 C 213.024 76.800,213.200 76.928,213.200 77.800 C 213.200 78.592,213.402 78.800,214.171 78.800 C 214.706 78.800,215.413 79.070,215.743 79.400 C 216.073 79.730,216.536 80.000,216.771 80.000 C 217.007 80.000,217.200 80.180,217.200 80.400 C 217.200 80.620,217.647 80.800,218.192 80.800 C 218.914 80.800,219.252 81.069,219.432 81.787 C 219.569 82.329,219.797 82.758,219.940 82.739 C 221.722 82.506,223.200 82.877,223.200 83.557 C 223.200 84.447,223.948 84.800,225.833 84.800 C 227.024 84.800,227.200 84.928,227.200 85.800 C 227.200 86.592,227.402 86.800,228.171 86.800 C 228.706 86.800,229.413 87.070,229.743 87.400 C 230.073 87.730,230.536 88.000,230.771 88.000 C 231.007 88.000,231.200 88.180,231.200 88.400 C 231.200 88.620,231.650 88.800,232.200 88.800 C 233.000 88.800,233.200 89.000,233.200 89.800 C 233.200 90.350,233.335 90.779,233.500 90.753 C 235.633 90.416,237.200 90.859,237.200 91.800 C 237.200 92.733,237.333 92.800,239.200 92.800 C 241.067 92.800,241.200 92.867,241.200 93.800 C 241.200 94.649,241.385 94.800,242.424 94.800 C 243.137 94.800,243.544 94.967,243.400 95.200 C 243.264 95.420,243.433 95.600,243.776 95.600 C 244.119 95.600,244.400 95.870,244.400 96.200 C 244.400 96.617,244.819 96.800,245.772 96.800 C 246.891 96.800,247.168 96.966,247.272 97.700 C 247.404 98.632,247.488 98.667,249.772 98.750 C 250.872 98.790,251.170 98.979,251.272 99.700 C 251.381 100.468,251.679 100.618,253.300 100.722 C 255.015 100.832,255.200 100.939,255.200 101.822 C 255.200 102.591,255.408 102.800,256.171 102.800 C 256.706 102.800,257.413 103.070,257.743 103.400 C 258.073 103.730,258.536 104.000,258.771 104.000 C 259.007 104.000,259.200 104.180,259.200 104.400 C 259.200 104.620,259.607 104.800,260.105 104.800 C 260.660 104.800,261.163 105.148,261.405 105.700 C 261.710 106.395,262.187 106.628,263.500 106.723 C 265.002 106.832,265.200 106.960,265.200 107.823 C 265.200 108.729,265.346 108.800,267.200 108.800 C 269.067 108.800,269.200 108.867,269.200 109.800 C 269.200 110.642,269.388 110.800,270.387 110.800 C 271.250 110.800,271.515 110.956,271.356 111.369 C 271.079 112.093,272.372 112.800,273.974 112.800 C 275.015 112.800,275.200 112.951,275.200 113.800 C 275.200 114.350,275.335 114.779,275.500 114.753 C 277.453 114.444,279.155 114.872,279.272 115.700 C 279.381 116.468,279.679 116.618,281.300 116.722 C 283.015 116.832,283.200 116.939,283.200 117.822 C 283.200 118.640,283.395 118.800,284.387 118.800 C 285.250 118.800,285.515 118.956,285.356 119.369 C 285.079 120.093,286.372 120.800,287.974 120.800 C 289.015 120.800,289.200 120.951,289.200 121.800 C 289.200 122.733,289.333 122.800,291.200 122.800 C 293.067 122.800,293.200 122.867,293.200 123.800 C 293.200 124.649,293.385 124.800,294.424 124.800 C 295.137 124.800,295.544 124.967,295.400 125.200 C 295.264 125.420,295.433 125.600,295.776 125.600 C 296.119 125.600,296.400 125.870,296.400 126.200 C 296.400 126.530,296.535 126.779,296.700 126.753 C 297.784 126.582,299.233 126.890,299.743 127.400 C 300.073 127.730,300.536 128.000,300.771 128.000 C 301.007 128.000,301.200 128.180,301.200 128.400 C 301.200 128.620,301.650 128.800,302.200 128.800 C 303.000 128.800,303.200 129.000,303.200 129.800 C 303.200 130.733,303.333 130.800,305.200 130.800 C 307.067 130.800,307.200 130.867,307.200 131.800 C 307.200 132.592,307.402 132.800,308.171 132.800 C 308.706 132.800,309.413 133.070,309.743 133.400 C 310.073 133.730,310.536 134.000,310.771 134.000 C 311.007 134.000,311.200 134.180,311.200 134.400 C 311.200 134.620,311.637 134.800,312.172 134.800 C 312.876 134.800,313.180 135.049,313.272 135.700 C 313.354 136.278,313.722 136.646,314.300 136.728 L 315.200 136.856 315.200 202.000 L 315.200 267.144 314.300 267.272 C 313.722 267.354,313.354 267.722,313.272 268.300 C 313.170 269.021,312.872 269.210,311.772 269.250 C 309.572 269.330,309.482 269.363,309.368 270.137 C 309.229 271.087,309.214 271.097,307.804 271.261 C 306.570 271.404,305.204 272.370,305.487 272.900 C 305.575 273.065,305.097 273.200,304.424 273.200 C 303.385 273.200,303.200 273.351,303.200 274.200 C 303.200 275.133,303.067 275.200,301.200 275.200 C 299.333 275.200,299.200 275.267,299.200 276.200 C 299.200 277.007,299.002 277.200,298.171 277.200 C 297.111 277.200,295.805 278.160,296.136 278.697 C 296.239 278.864,295.624 279.049,294.770 279.109 C 293.755 279.180,292.876 279.561,292.227 280.209 C 291.682 280.754,290.778 281.200,290.218 281.200 C 289.405 281.200,289.200 281.397,289.200 282.177 C 289.200 283.040,289.002 283.168,287.500 283.277 C 286.187 283.372,285.710 283.605,285.405 284.300 C 285.120 284.949,284.647 285.214,283.705 285.250 C 281.577 285.332,281.481 285.368,281.368 286.137 C 281.229 287.087,281.214 287.097,279.804 287.261 C 278.570 287.404,277.204 288.370,277.487 288.900 C 277.627 289.162,276.359 289.383,275.500 289.247 C 275.335 289.221,275.221 289.335,275.247 289.500 C 275.462 290.860,275.133 291.160,273.300 291.278 C 271.679 291.382,271.381 291.532,271.272 292.300 C 271.183 292.926,270.873 293.200,270.252 293.200 C 269.761 293.200,269.118 293.425,268.821 293.700 C 268.390 294.100,268.339 294.100,268.565 293.700 C 268.925 293.063,268.311 293.049,267.680 293.680 C 267.049 294.311,267.063 294.925,267.700 294.565 C 268.042 294.372,268.073 294.417,267.800 294.707 C 267.580 294.941,266.950 295.193,266.400 295.266 C 265.728 295.356,265.359 295.688,265.275 296.279 C 265.169 297.021,264.856 297.177,263.275 297.279 C 261.693 297.381,261.380 297.538,261.275 298.279 C 261.169 299.021,260.856 299.177,259.275 299.279 C 257.679 299.382,257.381 299.534,257.272 300.300 C 257.183 300.926,256.873 301.200,256.252 301.200 C 255.761 301.200,255.118 301.425,254.821 301.700 C 254.390 302.100,254.339 302.100,254.565 301.700 C 254.925 301.063,254.311 301.049,253.680 301.680 C 253.067 302.293,253.054 302.938,253.662 302.562 C 253.948 302.385,254.015 302.452,253.838 302.738 C 253.681 302.992,253.023 303.200,252.376 303.200 C 251.388 303.200,251.200 303.360,251.200 304.200 C 251.200 305.141,249.633 305.584,247.500 305.247 C 247.335 305.221,247.221 305.335,247.247 305.500 C 247.448 306.773,247.125 307.200,245.957 307.200 C 245.036 307.200,244.772 307.350,244.937 307.780 C 245.093 308.188,244.967 308.286,244.510 308.110 C 244.057 307.936,243.927 308.033,244.080 308.431 C 244.243 308.857,243.883 309.029,242.649 309.115 C 239.998 309.300,239.403 309.448,239.350 309.938 C 239.322 310.192,239.278 310.580,239.250 310.800 C 239.222 311.020,238.750 311.200,238.200 311.200 C 237.400 311.200,237.200 311.400,237.200 312.200 C 237.200 313.133,237.067 313.200,235.200 313.200 C 233.333 313.200,233.200 313.267,233.200 314.200 C 233.200 315.067,233.013 315.207,231.800 315.250 C 229.569 315.330,229.482 315.362,229.368 316.137 C 229.229 317.087,229.214 317.097,227.804 317.261 C 226.570 317.404,225.204 318.370,225.487 318.900 C 225.575 319.065,225.097 319.200,224.424 319.200 C 223.385 319.200,223.200 319.351,223.200 320.200 C 223.200 321.072,223.025 321.200,221.829 321.200 C 220.568 321.200,219.472 321.834,219.136 322.758 C 219.061 322.963,218.207 323.196,217.237 323.275 C 215.903 323.384,215.447 323.597,215.367 324.146 C 215.229 325.086,215.213 325.097,213.804 325.261 C 212.570 325.404,211.204 326.370,211.487 326.900 C 211.575 327.065,211.097 327.200,210.424 327.200 C 209.385 327.200,209.200 327.351,209.200 328.200 C 209.200 329.072,209.025 329.200,207.829 329.200 C 206.527 329.200,205.200 330.022,205.200 330.829 C 205.200 331.033,204.641 331.200,203.957 331.200 C 203.036 331.200,202.772 331.350,202.937 331.780 C 203.093 332.188,202.967 332.286,202.510 332.110 C 202.052 331.934,201.927 332.033,202.085 332.445 C 202.233 332.829,202.052 333.029,201.555 333.029 C 201.140 333.029,200.800 332.887,200.800 332.714 C 200.800 332.541,200.530 332.400,200.200 332.400 C 199.870 332.400,199.600 332.168,199.600 331.885 C 199.600 331.595,199.052 331.328,198.345 331.275 C 196.699 331.149,196.418 330.943,196.602 329.992 C 196.737 329.290,196.532 329.200,194.805 329.200 C 193.088 329.200,192.840 329.093,192.728 328.300 C 192.619 327.532,192.321 327.382,190.700 327.278 C 189.000 327.169,188.800 327.056,188.800 326.205 C 188.800 325.464,188.556 325.225,187.700 325.127 C 186.916 325.036,186.600 324.774,186.600 324.214 C 186.600 323.571,186.271 323.400,184.800 323.276 C 183.118 323.134,182.230 322.599,182.622 321.965 C 182.833 321.623,181.360 321.213,179.900 321.205 C 178.995 321.201,178.800 321.023,178.800 320.200 C 178.800 319.269,178.665 319.200,176.828 319.200 C 175.099 319.200,174.840 319.091,174.728 318.316 C 174.647 317.759,174.232 317.346,173.601 317.199 C 172.965 317.049,172.602 316.686,172.601 316.196 C 172.600 315.575,172.256 315.399,170.800 315.277 C 168.745 315.106,168.776 315.122,168.634 314.137 C 168.551 313.563,168.115 313.373,166.664 313.278 C 164.869 313.161,164.539 312.853,164.753 311.500 C 164.779 311.335,164.350 311.200,163.800 311.200 C 163.250 311.200,162.800 311.020,162.800 310.800 C 162.800 310.580,162.530 310.400,162.200 310.400 C 161.870 310.400,161.600 310.130,161.600 309.800 C 161.600 309.470,161.465 309.221,161.300 309.247 C 160.135 309.431,158.000 309.124,158.000 308.771 C 158.000 308.008,156.883 307.200,155.829 307.200 C 154.998 307.200,154.800 307.007,154.800 306.200 C 154.800 305.267,154.667 305.200,152.800 305.200 C 150.933 305.200,150.800 305.133,150.800 304.200 C 150.800 303.400,150.600 303.200,149.800 303.200 C 149.250 303.200,148.800 303.020,148.800 302.800 C 148.800 302.580,148.530 302.400,148.200 302.400 C 147.870 302.400,147.600 302.168,147.600 301.885 C 147.600 301.593,147.047 301.328,146.321 301.273 C 144.847 301.160,144.612 300.996,144.605 300.073 C 144.600 299.372,144.481 299.331,142.200 299.250 C 140.987 299.207,140.800 299.067,140.800 298.200 C 140.800 297.267,140.667 297.200,138.800 297.200 C 136.933 297.200,136.800 297.133,136.800 296.200 C 136.800 295.400,136.600 295.200,135.800 295.200 C 135.250 295.200,134.800 295.020,134.800 294.800 C 134.800 294.580,134.530 294.400,134.200 294.400 C 133.870 294.400,133.600 294.119,133.600 293.776 C 133.600 293.433,133.450 293.246,133.266 293.359 C 132.465 293.854,130.600 292.935,130.648 292.069 C 130.691 291.289,130.495 291.200,128.748 291.200 C 126.937 291.200,126.800 291.130,126.800 290.200 C 126.800 289.269,126.665 289.200,124.828 289.200 C 123.087 289.200,122.841 289.094,122.728 288.300 C 122.619 287.534,122.321 287.382,120.725 287.279 C 119.156 287.178,118.830 287.017,118.725 286.296 C 118.647 285.759,118.221 285.343,117.600 285.196 C 116.886 285.027,116.614 284.708,116.648 284.080 C 116.691 283.290,116.501 283.200,114.791 283.200 C 113.093 283.200,112.859 283.092,112.636 282.200 C 112.415 281.322,112.169 281.200,110.620 281.200 C 109.095 281.200,108.838 281.078,108.728 280.300 C 108.646 279.722,108.278 279.354,107.700 279.272 C 107.205 279.202,106.800 278.977,106.800 278.772 C 106.800 278.567,106.530 278.400,106.200 278.400 C 105.870 278.400,105.600 278.168,105.600 277.885 C 105.600 277.592,105.046 277.328,104.316 277.272 C 103.086 277.179,102.264 276.544,102.622 275.965 C 102.831 275.626,101.364 275.213,99.928 275.205 C 99.123 275.201,98.824 274.976,98.728 274.300 C 98.619 273.534,98.321 273.382,96.725 273.279 C 95.156 273.178,94.830 273.017,94.725 272.296 C 94.647 271.759,94.222 271.344,93.601 271.199 C 92.958 271.048,92.602 270.687,92.601 270.183 C 92.600 269.371,92.501 269.332,90.200 269.250 C 88.987 269.207,88.800 269.067,88.800 268.200 C 88.800 267.400,88.600 267.200,87.800 267.200 L 86.800 267.200 86.800 201.623 C 86.800 137.067,86.812 136.048,87.572 136.195 C 88.153 136.307,88.307 136.153,88.195 135.572 C 88.071 134.930,88.278 134.800,89.423 134.800 C 90.617 134.800,90.800 134.670,90.800 133.822 C 90.800 132.939,90.985 132.832,92.700 132.722 C 94.321 132.618,94.619 132.468,94.728 131.700 C 94.821 131.043,95.124 130.800,95.846 130.800 C 96.391 130.800,97.286 130.350,97.836 129.800 C 98.386 129.250,99.278 128.800,99.818 128.800 C 100.599 128.800,100.800 128.595,100.800 127.800 C 100.800 126.867,100.933 126.800,102.800 126.800 C 104.655 126.800,104.800 126.729,104.800 125.822 C 104.800 124.939,104.985 124.832,106.700 124.722 C 108.321 124.618,108.619 124.468,108.728 123.700 C 108.820 123.049,109.124 122.800,109.828 122.800 C 110.363 122.800,110.890 122.800,111.000 122.800 C 111.411 122.800,112.667 121.388,112.513 121.100 C 112.425 120.935,112.979 120.800,113.744 120.800 C 115.403 120.800,116.400 120.465,116.400 119.908 C 116.400 119.685,116.085 119.749,115.700 120.051 C 115.067 120.548,115.052 120.534,115.545 119.904 C 115.845 119.522,116.250 119.307,116.445 119.428 C 116.640 119.549,116.800 119.457,116.800 119.224 C 116.800 118.991,117.250 118.800,117.800 118.800 C 118.594 118.800,118.800 118.599,118.800 117.822 C 118.800 116.939,118.985 116.832,120.700 116.722 C 122.321 116.618,122.619 116.468,122.728 115.700 C 122.820 115.049,123.124 114.800,123.828 114.800 C 124.363 114.800,124.800 114.630,124.800 114.423 C 124.800 114.216,125.147 114.113,125.572 114.195 C 126.153 114.307,126.307 114.153,126.195 113.572 C 126.068 112.917,126.280 112.800,127.590 112.800 C 129.392 112.800,130.400 112.480,130.400 111.908 C 130.400 111.685,130.085 111.749,129.700 112.051 C 129.067 112.548,129.052 112.534,129.545 111.904 C 129.845 111.522,130.250 111.307,130.445 111.428 C 130.640 111.549,130.800 111.469,130.800 111.251 C 130.800 111.034,131.205 110.798,131.700 110.728 C 132.278 110.646,132.646 110.278,132.728 109.700 C 132.851 108.833,133.683 108.598,136.296 108.692 C 136.568 108.702,136.703 108.566,136.594 108.391 C 136.188 107.733,136.920 106.800,137.843 106.800 C 138.369 106.800,138.800 106.630,138.800 106.423 C 138.800 106.216,139.147 106.113,139.572 106.195 C 140.153 106.307,140.307 106.153,140.195 105.572 C 140.071 104.930,140.278 104.800,141.423 104.800 C 142.617 104.800,142.800 104.670,142.800 103.822 C 142.800 102.939,142.985 102.832,144.700 102.722 C 146.321 102.618,146.619 102.468,146.728 101.700 C 146.821 101.043,147.124 100.800,147.846 100.800 C 148.391 100.800,149.286 100.350,149.836 99.800 C 150.386 99.250,151.278 98.800,151.818 98.800 C 152.358 98.800,152.800 98.630,152.800 98.423 C 152.800 98.216,153.147 98.113,153.572 98.195 C 154.153 98.307,154.307 98.153,154.195 97.572 C 154.071 96.930,154.278 96.800,155.423 96.800 C 156.625 96.800,156.800 96.673,156.800 95.800 C 156.800 94.867,156.933 94.800,158.800 94.800 C 160.667 94.800,160.800 94.733,160.800 93.800 C 160.800 93.000,161.000 92.800,161.800 92.800 C 162.350 92.800,162.890 92.800,163.000 92.800 C 163.411 92.800,164.667 91.388,164.513 91.100 C 164.425 90.935,164.903 90.800,165.576 90.800 C 166.249 90.800,166.800 90.630,166.800 90.423 C 166.800 90.216,167.147 90.113,167.572 90.195 C 168.153 90.307,168.307 90.153,168.195 89.572 C 168.071 88.930,168.278 88.800,169.423 88.800 C 170.617 88.800,170.800 88.670,170.800 87.822 C 170.800 86.939,170.985 86.832,172.700 86.722 C 174.321 86.618,174.619 86.468,174.728 85.700 C 174.830 84.979,175.128 84.790,176.228 84.750 C 178.434 84.670,178.597 84.626,178.650 84.100 C 178.678 83.825,178.722 83.420,178.750 83.200 C 178.778 82.980,179.250 82.800,179.800 82.800 C 180.600 82.800,180.800 82.600,180.800 81.800 C 180.800 80.867,180.933 80.800,182.800 80.800 C 184.667 80.800,184.800 80.733,184.800 79.800 C 184.800 78.867,184.933 78.800,186.800 78.800 C 188.667 78.800,188.800 78.733,188.800 77.800 C 188.800 76.933,188.987 76.793,190.200 76.750 C 192.435 76.670,192.597 76.627,192.650 76.100 C 192.678 75.825,192.722 75.420,192.750 75.200 C 192.778 74.980,193.250 74.800,193.800 74.800 C 194.600 74.800,194.800 74.600,194.800 73.800 C 194.800 72.867,194.933 72.800,196.800 72.800 C 198.667 72.800,198.800 72.733,198.800 71.800 C 198.800 70.618,200.702 70.359,201.743 71.400 M187.680 115.680 C 187.006 116.354,187.083 116.746,187.867 116.631 C 188.233 116.578,188.578 116.233,188.631 115.867 C 188.746 115.083,188.354 115.006,187.680 115.680 " stroke="none" fill="#4c34c4" fill-rule="evenodd"></path><path id="path2" d="M192.114 114.280 C 191.627 114.786,191.374 115.200,191.552 115.200 C 191.942 115.200,193.398 113.645,193.164 113.477 C 193.074 113.413,192.601 113.774,192.114 114.280 M208.800 114.800 C 208.800 115.020,209.205 115.197,209.700 115.194 C 210.428 115.189,210.485 115.114,210.000 114.800 C 209.224 114.299,208.800 114.299,208.800 114.800 M222.800 122.800 C 222.800 123.020,223.205 123.197,223.700 123.194 C 224.428 123.189,224.485 123.114,224.000 122.800 C 223.224 122.299,222.800 122.299,222.800 122.800 M274.800 152.213 C 274.800 152.549,275.078 152.932,275.417 153.062 C 276.321 153.409,276.369 153.098,275.533 152.300 C 274.913 151.708,274.800 151.694,274.800 152.213 M126.557 251.433 C 126.691 251.781,126.800 252.141,126.800 252.233 C 126.800 252.325,126.963 252.400,127.163 252.400 C 127.362 252.400,127.431 252.040,127.316 251.600 C 127.201 251.160,126.928 250.800,126.711 250.800 C 126.493 250.800,126.424 251.085,126.557 251.433 M168.406 275.100 C 168.424 275.977,169.188 276.559,169.194 275.700 C 169.197 275.205,169.020 274.800,168.800 274.800 C 168.580 274.800,168.403 274.935,168.406 275.100 M204.800 291.380 C 204.800 291.699,204.485 292.144,204.100 292.368 C 203.715 292.592,203.599 292.781,203.842 292.788 C 204.084 292.795,204.769 292.350,205.362 291.800 C 206.360 290.876,206.379 290.800,205.621 290.800 C 205.169 290.800,204.800 291.061,204.800 291.380 " stroke="none" fill="#8874dc" fill-rule="evenodd"></path><path id="path3" d="" stroke="none" fill="#6c48dc" fill-rule="evenodd"></path><path id="path4" d="M107.592 31.810 C 107.314 32.145,107.197 32.531,107.333 32.667 C 107.624 32.957,108.800 32.063,108.800 31.551 C 108.800 31.000,108.148 31.140,107.592 31.810 M292.699 32.186 C 292.829 32.862,293.156 33.200,293.680 33.200 C 294.632 33.200,294.459 32.470,293.331 31.721 C 292.561 31.209,292.519 31.241,292.699 32.186 M297.200 34.351 C 297.200 34.839,297.455 35.200,297.800 35.200 C 298.130 35.200,298.400 35.042,298.400 34.849 C 298.400 34.656,298.130 34.274,297.800 34.000 C 297.299 33.584,297.200 33.642,297.200 34.351 M96.080 42.080 C 95.375 42.785,95.493 43.200,96.400 43.200 C 96.933 43.200,97.200 42.933,97.200 42.400 C 97.200 41.493,96.785 41.375,96.080 42.080 M93.592 45.810 C 93.314 46.145,93.197 46.531,93.333 46.667 C 93.624 46.957,94.800 46.063,94.800 45.551 C 94.800 45.000,94.148 45.140,93.592 45.810 M91.569 49.367 C 91.247 49.718,91.417 50.798,91.819 50.952 C 92.186 51.093,92.279 50.951,92.110 50.510 C 91.926 50.030,92.030 49.926,92.510 50.110 C 92.939 50.275,93.092 50.185,92.962 49.846 C 92.814 49.460,91.803 49.112,91.569 49.367 M308.800 50.400 C 308.800 50.933,309.067 51.200,309.600 51.200 C 310.507 51.200,310.625 50.785,309.920 50.080 C 309.215 49.375,308.800 49.493,308.800 50.400 M311.200 53.600 C 311.200 53.820,311.380 54.000,311.600 54.000 C 311.820 54.000,312.000 54.270,312.000 54.600 C 312.000 54.930,312.164 55.200,312.365 55.200 C 312.779 55.200,312.729 54.442,312.265 53.700 C 311.891 53.102,311.200 53.037,311.200 53.600 M80.111 70.100 C 79.212 71.262,79.231 71.483,80.212 71.296 C 80.846 71.174,81.200 70.837,81.200 70.353 C 81.200 69.490,80.677 69.368,80.111 70.100 M201.200 71.576 C 201.200 72.001,201.950 72.540,202.700 72.653 C 202.975 72.695,203.200 72.565,203.200 72.365 C 203.200 72.164,202.930 72.000,202.600 72.000 C 202.270 72.000,202.000 71.820,202.000 71.600 C 202.000 71.380,201.820 71.200,201.600 71.200 C 201.380 71.200,201.200 71.369,201.200 71.576 M194.800 73.600 C 194.800 74.507,195.215 74.625,195.920 73.920 C 196.625 73.215,196.507 72.800,195.600 72.800 C 195.067 72.800,194.800 73.067,194.800 73.600 M215.200 79.576 C 215.200 80.001,215.950 80.540,216.700 80.653 C 216.975 80.695,217.200 80.565,217.200 80.365 C 217.200 80.164,216.930 80.000,216.600 80.000 C 216.270 80.000,216.000 79.820,216.000 79.600 C 216.000 79.380,215.820 79.200,215.600 79.200 C 215.380 79.200,215.200 79.369,215.200 79.576 M74.080 80.080 C 73.375 80.785,73.493 81.200,74.400 81.200 C 74.933 81.200,75.200 80.933,75.200 80.400 C 75.200 79.493,74.785 79.375,74.080 80.080 M180.800 81.600 C 180.800 82.507,181.215 82.625,181.920 81.920 C 182.625 81.215,182.507 80.800,181.600 80.800 C 181.067 80.800,180.800 81.067,180.800 81.600 M71.592 83.810 C 71.314 84.145,71.197 84.531,71.333 84.667 C 71.624 84.957,72.800 84.063,72.800 83.551 C 72.800 83.000,72.148 83.140,71.592 83.810 M170.800 87.600 C 170.800 88.507,171.215 88.625,171.920 87.920 C 172.625 87.215,172.507 86.800,171.600 86.800 C 171.067 86.800,170.800 87.067,170.800 87.600 M229.200 87.576 C 229.200 88.001,229.950 88.540,230.700 88.653 C 230.975 88.695,231.200 88.565,231.200 88.365 C 231.200 88.164,230.930 88.000,230.600 88.000 C 230.270 88.000,230.000 87.820,230.000 87.600 C 230.000 87.380,229.820 87.200,229.600 87.200 C 229.380 87.200,229.200 87.369,229.200 87.576 M330.800 88.400 C 330.800 88.933,331.067 89.200,331.600 89.200 C 332.507 89.200,332.625 88.785,331.920 88.080 C 331.215 87.375,330.800 87.493,330.800 88.400 M168.172 89.155 C 168.444 89.595,167.425 90.492,167.063 90.130 C 166.918 89.985,166.800 90.077,166.800 90.333 C 166.800 90.974,167.538 90.919,168.229 90.229 C 168.901 89.557,168.979 88.800,168.376 88.800 C 168.143 88.800,168.051 88.960,168.172 89.155 M239.600 93.120 C 239.600 93.534,240.466 94.400,240.880 94.400 C 241.056 94.400,241.200 94.040,241.200 93.600 C 241.200 93.067,240.933 92.800,240.400 92.800 C 239.960 92.800,239.600 92.944,239.600 93.120 M154.172 97.155 C 154.444 97.595,153.425 98.492,153.063 98.130 C 152.918 97.985,152.800 98.077,152.800 98.333 C 152.800 98.974,153.538 98.919,154.229 98.229 C 154.901 97.557,154.979 96.800,154.376 96.800 C 154.143 96.800,154.051 96.960,154.172 97.155 M149.700 99.798 C 149.032 100.558,149.070 100.748,149.867 100.631 C 150.233 100.578,150.578 100.233,150.631 99.867 C 150.750 99.059,150.375 99.031,149.700 99.798 M253.600 101.120 C 253.600 101.534,254.466 102.400,254.880 102.400 C 255.056 102.400,255.200 102.040,255.200 101.600 C 255.200 101.067,254.933 100.800,254.400 100.800 C 253.960 100.800,253.600 100.944,253.600 101.120 M257.200 103.576 C 257.200 104.001,257.950 104.540,258.700 104.653 C 258.975 104.695,259.200 104.565,259.200 104.365 C 259.200 104.164,258.930 104.000,258.600 104.000 C 258.270 104.000,258.000 103.820,258.000 103.600 C 258.000 103.380,257.820 103.200,257.600 103.200 C 257.380 103.200,257.200 103.369,257.200 103.576 M60.080 104.080 C 59.375 104.785,59.493 105.200,60.400 105.200 C 60.933 105.200,61.200 104.933,61.200 104.400 C 61.200 103.493,60.785 103.375,60.080 104.080 M140.172 105.155 C 140.444 105.595,139.425 106.492,139.063 106.130 C 138.918 105.985,138.800 106.077,138.800 106.333 C 138.800 106.974,139.538 106.919,140.229 106.229 C 140.901 105.557,140.979 104.800,140.376 104.800 C 140.143 104.800,140.051 104.960,140.172 105.155 M200.080 110.080 C 199.275 110.885,199.534 111.200,201.000 111.200 C 201.770 111.200,202.400 111.056,202.400 110.880 C 202.400 110.413,201.511 109.600,201.000 109.600 C 200.758 109.600,200.344 109.816,200.080 110.080 M126.172 113.155 C 126.444 113.595,125.425 114.492,125.063 114.130 C 124.918 113.985,124.800 114.077,124.800 114.333 C 124.800 114.974,125.538 114.919,126.229 114.229 C 126.901 113.557,126.979 112.800,126.376 112.800 C 126.143 112.800,126.051 112.960,126.172 113.155 M209.600 113.767 C 209.600 114.115,209.885 114.400,210.233 114.400 C 210.940 114.400,210.817 113.539,210.075 113.292 C 209.814 113.205,209.600 113.418,209.600 113.767 M277.689 115.266 C 278.067 116.400,279.506 116.890,279.301 115.814 C 279.171 115.138,278.844 114.800,278.320 114.800 C 277.887 114.800,277.603 115.010,277.689 115.266 M212.800 116.400 C 212.800 116.933,213.067 117.200,213.600 117.200 C 214.507 117.200,214.625 116.785,213.920 116.080 C 213.215 115.375,212.800 115.493,212.800 116.400 M346.800 116.400 C 346.800 116.933,347.067 117.200,347.600 117.200 C 348.507 117.200,348.625 116.785,347.920 116.080 C 347.215 115.375,346.800 115.493,346.800 116.400 M281.600 117.120 C 281.600 117.534,282.466 118.400,282.880 118.400 C 283.056 118.400,283.200 118.040,283.200 117.600 C 283.200 117.067,282.933 116.800,282.400 116.800 C 281.960 116.800,281.600 116.944,281.600 117.120 M183.829 117.829 C 183.483 118.174,183.200 118.624,183.200 118.829 C 183.200 119.357,184.151 119.289,184.720 118.720 C 185.289 118.151,185.357 117.200,184.829 117.200 C 184.624 117.200,184.174 117.483,183.829 117.829 M216.300 117.465 C 216.575 117.576,216.800 118.012,216.800 118.433 C 216.800 118.933,217.078 119.200,217.600 119.200 C 218.040 119.200,218.400 119.030,218.400 118.823 C 218.400 118.364,216.782 117.188,216.211 117.232 C 215.985 117.249,216.025 117.354,216.300 117.465 M51.832 118.476 C 51.097 119.524,51.162 119.640,52.317 119.337 C 52.833 119.203,53.200 118.794,53.200 118.353 C 53.200 117.346,52.585 117.401,51.832 118.476 M220.006 119.500 C 220.024 120.377,220.788 120.959,220.794 120.100 C 220.797 119.605,220.620 119.200,220.400 119.200 C 220.180 119.200,220.003 119.335,220.006 119.500 M49.592 121.810 C 49.314 122.145,49.197 122.531,49.333 122.667 C 49.624 122.957,50.800 122.063,50.800 121.551 C 50.800 121.000,50.148 121.140,49.592 121.810 M177.206 122.100 C 177.211 122.763,177.304 122.856,177.559 122.453 C 177.750 122.152,178.152 121.750,178.453 121.559 C 178.856 121.304,178.763 121.211,178.100 121.206 C 177.430 121.202,177.202 121.430,177.206 122.100 M223.600 121.767 C 223.600 122.115,223.885 122.400,224.233 122.400 C 224.940 122.400,224.817 121.539,224.075 121.292 C 223.814 121.205,223.600 121.418,223.600 121.767 M291.600 123.120 C 291.600 123.534,292.466 124.400,292.880 124.400 C 293.056 124.400,293.200 124.040,293.200 123.600 C 293.200 123.067,292.933 122.800,292.400 122.800 C 291.960 122.800,291.600 122.944,291.600 123.120 M173.680 123.680 C 173.416 123.944,173.200 124.394,173.200 124.680 C 173.200 125.332,174.084 125.356,174.720 124.720 C 175.356 124.084,175.332 123.200,174.680 123.200 C 174.394 123.200,173.944 123.416,173.680 123.680 M226.699 124.186 C 226.829 124.862,227.156 125.200,227.680 125.200 C 228.632 125.200,228.459 124.470,227.331 123.721 C 226.561 123.209,226.519 123.241,226.699 124.186 M169.829 125.829 C 169.483 126.174,169.200 126.624,169.200 126.829 C 169.200 127.357,170.151 127.289,170.720 126.720 C 171.289 126.151,171.357 125.200,170.829 125.200 C 170.624 125.200,170.174 125.483,169.829 125.829 M352.800 126.320 C 352.800 126.844,353.138 127.171,353.814 127.301 C 354.759 127.481,354.791 127.439,354.279 126.669 C 353.530 125.541,352.800 125.368,352.800 126.320 M100.800 127.600 C 100.800 128.507,101.215 128.625,101.920 127.920 C 102.625 127.215,102.507 126.800,101.600 126.800 C 101.067 126.800,100.800 127.067,100.800 127.600 M234.006 127.500 C 234.024 128.377,234.788 128.959,234.794 128.100 C 234.797 127.605,234.620 127.200,234.400 127.200 C 234.180 127.200,234.003 127.335,234.006 127.500 M299.200 127.576 C 299.200 128.001,299.950 128.540,300.700 128.653 C 300.975 128.695,301.200 128.565,301.200 128.365 C 301.200 128.164,300.930 128.000,300.600 128.000 C 300.270 128.000,300.000 127.820,300.000 127.600 C 300.000 127.380,299.820 127.200,299.600 127.200 C 299.380 127.200,299.200 127.369,299.200 127.576 M97.700 129.798 C 97.032 130.558,97.070 130.748,97.867 130.631 C 98.233 130.578,98.578 130.233,98.631 129.867 C 98.750 129.059,98.375 129.031,97.700 129.798 M236.939 129.796 C 237.303 130.160,237.600 130.594,237.600 130.762 C 237.600 130.930,237.879 131.067,238.219 131.067 C 239.423 131.067,238.705 129.412,237.439 129.268 C 236.359 129.144,236.324 129.181,236.939 129.796 M159.680 131.680 C 159.416 131.944,159.200 132.394,159.200 132.680 C 159.200 133.332,160.084 133.356,160.720 132.720 C 161.356 132.084,161.332 131.200,160.680 131.200 C 160.394 131.200,159.944 131.416,159.680 131.680 M44.080 132.080 C 43.375 132.785,43.493 133.200,44.400 133.200 C 44.933 133.200,45.200 132.933,45.200 132.400 C 45.200 131.493,44.785 131.375,44.080 132.080 M240.800 132.400 C 240.800 132.933,241.067 133.200,241.600 133.200 C 242.507 133.200,242.625 132.785,241.920 132.080 C 241.215 131.375,240.800 131.493,240.800 132.400 M90.800 133.600 C 90.800 134.507,91.215 134.625,91.920 133.920 C 92.625 133.215,92.507 132.800,91.600 132.800 C 91.067 132.800,90.800 133.067,90.800 133.600 M309.200 133.576 C 309.200 134.001,309.950 134.540,310.700 134.653 C 310.975 134.695,311.200 134.565,311.200 134.365 C 311.200 134.164,310.930 134.000,310.600 134.000 C 310.270 134.000,310.000 133.820,310.000 133.600 C 310.000 133.380,309.820 133.200,309.600 133.200 C 309.380 133.200,309.200 133.369,309.200 133.576 M88.172 135.155 C 88.444 135.595,87.425 136.492,87.063 136.130 C 86.918 135.985,86.800 136.077,86.800 136.333 C 86.800 136.974,87.538 136.919,88.229 136.229 C 88.901 135.557,88.979 134.800,88.376 134.800 C 88.143 134.800,88.051 134.960,88.172 135.155 M248.006 135.500 C 248.024 136.377,248.788 136.959,248.794 136.100 C 248.797 135.605,248.620 135.200,248.400 135.200 C 248.180 135.200,248.003 135.335,248.006 135.500 M149.284 138.293 C 149.218 139.087,149.317 139.165,149.956 138.823 C 151.145 138.187,151.344 137.197,150.266 137.286 C 149.633 137.339,149.338 137.641,149.284 138.293 M250.800 137.720 C 250.800 138.389,251.611 139.200,252.280 139.200 C 252.983 139.200,252.935 138.592,252.171 137.829 C 251.408 137.065,250.800 137.017,250.800 137.720 M145.467 139.467 C 144.917 140.017,145.188 141.179,145.811 140.940 C 146.854 140.540,147.369 139.200,146.481 139.200 C 146.070 139.200,145.613 139.320,145.467 139.467 M255.086 140.392 C 254.929 140.994,255.069 141.200,255.637 141.200 C 256.533 141.200,256.627 140.686,255.849 140.041 C 255.416 139.681,255.252 139.756,255.086 140.392 M360.800 140.320 C 360.800 140.844,361.138 141.171,361.814 141.301 C 362.759 141.481,362.791 141.439,362.279 140.669 C 361.530 139.541,360.800 139.368,360.800 140.320 M142.489 141.823 C 141.402 142.584,141.341 143.200,142.353 143.200 C 142.839 143.200,143.175 142.845,143.298 142.200 C 143.403 141.650,143.464 141.200,143.434 141.200 C 143.403 141.200,142.978 141.480,142.489 141.823 M261.692 143.675 C 261.939 144.417,262.800 144.540,262.800 143.833 C 262.800 143.485,262.515 143.200,262.167 143.200 C 261.818 143.200,261.605 143.414,261.692 143.675 M135.350 145.787 C 134.891 146.981,135.445 147.217,136.378 146.224 L 137.339 145.200 136.457 145.200 C 135.972 145.200,135.474 145.464,135.350 145.787 M264.800 145.426 C 264.800 146.068,265.702 147.200,266.214 147.200 C 266.978 147.200,266.960 146.617,266.171 145.829 C 265.550 145.208,264.800 144.987,264.800 145.426 M36.111 146.100 C 35.212 147.262,35.231 147.483,36.212 147.296 C 36.846 147.174,37.200 146.837,37.200 146.353 C 37.200 145.490,36.677 145.368,36.111 146.100 M131.829 147.829 C 131.013 148.644,131.025 149.293,131.852 149.129 C 132.816 148.938,133.920 147.200,133.077 147.200 C 132.736 147.200,132.174 147.483,131.829 147.829 M128.489 149.823 C 127.409 150.579,127.340 151.200,128.336 151.200 C 128.740 151.200,129.277 150.750,129.527 150.200 C 130.052 149.049,129.751 148.939,128.489 149.823 M125.569 151.367 C 124.977 152.012,125.397 152.746,126.030 152.173 C 126.454 151.789,126.800 151.444,126.800 151.405 C 126.800 151.336,125.631 151.299,125.569 151.367 M275.600 151.767 C 275.600 152.115,275.885 152.400,276.233 152.400 C 276.940 152.400,276.817 151.539,276.075 151.292 C 275.814 151.205,275.600 151.418,275.600 151.767 M121.680 153.680 C 121.416 153.944,121.200 154.394,121.200 154.680 C 121.200 155.332,122.084 155.356,122.720 154.720 C 123.356 154.084,123.332 153.200,122.680 153.200 C 122.394 153.200,121.944 153.416,121.680 153.680 M368.800 154.400 C 368.800 154.933,369.067 155.200,369.600 155.200 C 370.507 155.200,370.625 154.785,369.920 154.080 C 369.215 153.375,368.800 153.493,368.800 154.400 M27.592 159.810 C 27.314 160.145,27.197 160.531,27.333 160.667 C 27.624 160.957,28.800 160.063,28.800 159.551 C 28.800 159.000,28.148 159.140,27.592 159.810 M376.800 168.320 C 376.800 168.844,377.138 169.171,377.814 169.301 C 378.759 169.481,378.791 169.439,378.279 168.669 C 377.530 167.541,376.800 167.368,376.800 168.320 M22.080 170.080 C 21.375 170.785,21.493 171.200,22.400 171.200 C 22.933 171.200,23.200 170.933,23.200 170.400 C 23.200 169.493,22.785 169.375,22.080 170.080 M385.200 181.600 C 385.200 181.820,385.380 182.000,385.600 182.000 C 385.820 182.000,386.000 182.270,386.000 182.600 C 386.000 182.930,386.164 183.200,386.365 183.200 C 386.779 183.200,386.729 182.442,386.265 181.700 C 385.891 181.102,385.200 181.037,385.200 181.600 M11.592 187.810 C 11.314 188.145,11.197 188.531,11.333 188.667 C 11.624 188.957,12.800 188.063,12.800 187.551 C 12.800 187.000,12.148 187.140,11.592 187.810 M7.600 205.120 C 7.600 205.534,8.466 206.400,8.880 206.400 C 9.056 206.400,9.200 206.040,9.200 205.600 C 9.200 205.067,8.933 204.800,8.400 204.800 C 7.960 204.800,7.600 204.944,7.600 205.120 M9.200 211.576 C 9.200 212.001,9.950 212.540,10.700 212.653 C 10.975 212.695,11.200 212.565,11.200 212.365 C 11.200 212.164,10.930 212.000,10.600 212.000 C 10.270 212.000,10.000 211.820,10.000 211.600 C 10.000 211.380,9.820 211.200,9.600 211.200 C 9.380 211.200,9.200 211.369,9.200 211.576 M383.700 223.798 C 383.032 224.558,383.070 224.748,383.867 224.631 C 384.233 224.578,384.578 224.233,384.631 223.867 C 384.750 223.059,384.375 223.031,383.700 223.798 M17.600 225.120 C 17.600 225.534,18.466 226.400,18.880 226.400 C 19.056 226.400,19.200 226.040,19.200 225.600 C 19.200 225.067,18.933 224.800,18.400 224.800 C 17.960 224.800,17.600 224.944,17.600 225.120 M378.800 231.600 C 378.800 232.507,379.215 232.625,379.920 231.920 C 380.625 231.215,380.507 230.800,379.600 230.800 C 379.067 230.800,378.800 231.067,378.800 231.600 M23.200 235.576 C 23.200 236.001,23.950 236.540,24.700 236.653 C 24.975 236.695,25.200 236.565,25.200 236.365 C 25.200 236.164,24.930 236.000,24.600 236.000 C 24.270 236.000,24.000 235.820,24.000 235.600 C 24.000 235.380,23.820 235.200,23.600 235.200 C 23.380 235.200,23.200 235.369,23.200 235.576 M375.700 237.798 C 375.032 238.558,375.070 238.748,375.867 238.631 C 376.233 238.578,376.578 238.233,376.631 237.867 C 376.750 237.059,376.375 237.031,375.700 237.798 M370.800 245.600 C 370.800 246.507,371.215 246.625,371.920 245.920 C 372.625 245.215,372.507 244.800,371.600 244.800 C 371.067 244.800,370.800 245.067,370.800 245.600 M121.600 249.120 C 121.600 249.534,122.466 250.400,122.880 250.400 C 123.056 250.400,123.200 250.040,123.200 249.600 C 123.200 249.067,122.933 248.800,122.400 248.800 C 121.960 248.800,121.600 248.944,121.600 249.120 M275.149 250.900 C 274.644 251.889,274.992 252.750,275.654 252.151 C 276.555 251.336,276.613 250.800,275.800 250.800 C 275.470 250.800,275.177 250.845,275.149 250.900 M125.292 252.075 C 125.539 252.817,126.400 252.940,126.400 252.233 C 126.400 251.885,126.115 251.600,125.767 251.600 C 125.418 251.600,125.205 251.814,125.292 252.075 M271.080 253.733 C 270.524 254.582,270.529 254.668,271.134 254.679 C 271.994 254.695,272.800 254.052,272.800 253.351 C 272.800 252.477,271.751 252.710,271.080 253.733 M268.800 255.105 C 268.800 255.346,268.517 255.826,268.171 256.171 C 267.643 256.700,267.635 256.800,268.125 256.800 C 268.680 256.800,269.370 255.236,268.984 254.851 C 268.883 254.750,268.800 254.864,268.800 255.105 M364.800 255.600 C 364.800 256.507,365.215 256.625,365.920 255.920 C 366.625 255.215,366.507 254.800,365.600 254.800 C 365.067 254.800,364.800 255.067,364.800 255.600 M135.600 257.120 C 135.600 257.534,136.466 258.400,136.880 258.400 C 137.056 258.400,137.200 258.040,137.200 257.600 C 137.200 257.067,136.933 256.800,136.400 256.800 C 135.960 256.800,135.600 256.944,135.600 257.120 M139.200 259.537 C 139.200 260.026,139.478 260.532,139.817 260.662 C 140.830 261.051,140.938 260.514,140.040 259.551 L 139.200 258.649 139.200 259.537 M261.186 259.417 C 260.420 260.340,261.293 261.050,262.146 260.197 C 262.506 259.837,262.800 259.376,262.800 259.171 C 262.800 258.581,261.747 258.741,261.186 259.417 M37.200 259.576 C 37.200 260.001,37.950 260.540,38.700 260.653 C 38.975 260.695,39.200 260.565,39.200 260.365 C 39.200 260.164,38.930 260.000,38.600 260.000 C 38.270 260.000,38.000 259.820,38.000 259.600 C 38.000 259.380,37.820 259.200,37.600 259.200 C 37.380 259.200,37.200 259.369,37.200 259.576 M257.801 261.134 C 257.911 261.245,257.687 261.683,257.302 262.108 C 256.627 262.854,256.637 262.877,257.601 262.741 C 258.733 262.581,259.297 260.933,258.219 260.933 C 257.879 260.933,257.690 261.024,257.801 261.134 M143.200 261.933 C 143.200 262.466,143.450 262.800,143.849 262.800 C 144.404 262.800,144.421 262.699,143.962 262.100 C 143.667 261.715,143.375 261.325,143.313 261.233 C 143.251 261.142,143.200 261.457,143.200 261.933 M39.721 263.331 C 40.470 264.459,41.200 264.632,41.200 263.680 C 41.200 263.156,40.862 262.829,40.186 262.699 C 39.241 262.519,39.209 262.561,39.721 263.331 M145.689 263.266 C 146.067 264.400,147.506 264.890,147.301 263.814 C 147.171 263.138,146.844 262.800,146.320 262.800 C 145.887 262.800,145.603 263.010,145.689 263.266 M254.800 263.105 C 254.800 263.346,254.517 263.826,254.171 264.171 C 253.643 264.700,253.635 264.800,254.125 264.800 C 254.680 264.800,255.370 263.236,254.984 262.851 C 254.883 262.750,254.800 262.864,254.800 263.105 M149.600 265.120 C 149.600 265.534,150.466 266.400,150.880 266.400 C 151.056 266.400,151.200 266.040,151.200 265.600 C 151.200 265.067,150.933 264.800,150.400 264.800 C 149.960 264.800,149.600 264.944,149.600 265.120 M153.200 267.537 C 153.200 268.026,153.478 268.532,153.817 268.662 C 154.830 269.051,154.938 268.514,154.040 267.551 L 153.200 266.649 153.200 267.537 M247.280 267.280 C 246.711 267.849,246.643 268.800,247.171 268.800 C 247.376 268.800,247.826 268.517,248.171 268.171 C 248.517 267.826,248.800 267.376,248.800 267.171 C 248.800 266.643,247.849 266.711,247.280 267.280 M244.400 269.413 C 244.400 269.750,243.995 270.189,243.500 270.388 C 242.635 270.735,242.643 270.750,243.700 270.775 C 244.613 270.796,244.800 270.630,244.800 269.800 C 244.800 269.250,244.710 268.800,244.600 268.800 C 244.490 268.800,244.400 269.076,244.400 269.413 M356.800 269.600 C 356.800 270.507,357.215 270.625,357.920 269.920 C 358.625 269.215,358.507 268.800,357.600 268.800 C 357.067 268.800,356.800 269.067,356.800 269.600 M159.689 271.266 C 160.067 272.400,161.506 272.890,161.301 271.814 C 161.171 271.138,160.844 270.800,160.320 270.800 C 159.887 270.800,159.603 271.010,159.689 271.266 M94.699 272.186 C 94.829 272.862,95.156 273.200,95.680 273.200 C 96.632 273.200,96.459 272.470,95.331 271.721 C 94.561 271.209,94.519 271.241,94.699 272.186 M163.264 273.421 C 163.428 274.256,164.640 275.093,165.067 274.667 C 165.493 274.240,164.656 273.028,163.821 272.864 C 163.342 272.770,163.170 272.942,163.264 273.421 M236.699 273.814 C 236.519 274.759,236.561 274.791,237.331 274.279 C 238.459 273.530,238.632 272.800,237.680 272.800 C 237.156 272.800,236.829 273.138,236.699 273.814 M302.080 274.080 C 301.375 274.785,301.493 275.200,302.400 275.200 C 302.933 275.200,303.200 274.933,303.200 274.400 C 303.200 273.493,302.785 273.375,302.080 274.080 M232.800 275.600 C 232.800 276.507,233.215 276.625,233.920 275.920 C 234.625 275.215,234.507 274.800,233.600 274.800 C 233.067 274.800,232.800 275.067,232.800 275.600 M167.292 276.075 C 167.539 276.817,168.400 276.940,168.400 276.233 C 168.400 275.885,168.115 275.600,167.767 275.600 C 167.418 275.600,167.205 275.814,167.292 276.075 M229.900 278.033 C 229.230 278.767,229.235 278.800,230.000 278.800 C 230.533 278.800,230.800 278.533,230.800 278.000 C 230.800 277.052,230.796 277.052,229.900 278.033 M295.569 277.367 C 295.247 277.718,295.417 278.798,295.819 278.952 C 296.167 279.085,296.280 278.953,296.137 278.580 C 296.014 278.261,296.114 278.000,296.357 278.000 C 296.601 278.000,296.800 277.850,296.800 277.667 C 296.800 277.416,295.757 277.162,295.569 277.367 M108.699 280.186 C 108.829 280.862,109.156 281.200,109.680 281.200 C 110.632 281.200,110.459 280.470,109.331 279.721 C 108.561 279.209,108.519 279.241,108.699 280.186 M291.592 279.810 C 291.314 280.145,291.197 280.531,291.333 280.667 C 291.624 280.957,292.800 280.063,292.800 279.551 C 292.800 279.000,292.148 279.140,291.592 279.810 M177.272 281.696 C 177.369 282.381,177.691 282.621,178.600 282.687 C 179.260 282.735,179.574 282.675,179.298 282.553 C 179.021 282.431,178.880 282.193,178.985 282.024 C 179.089 281.855,178.718 281.509,178.159 281.254 C 177.224 280.828,177.153 280.863,177.272 281.696 M223.311 281.300 C 222.461 282.399,222.364 282.800,222.948 282.800 C 223.607 282.800,224.800 281.751,224.800 281.171 C 224.800 280.628,223.761 280.718,223.311 281.300 M219.280 283.280 C 218.644 283.916,218.668 284.800,219.320 284.800 C 219.606 284.800,220.056 284.584,220.320 284.320 C 220.584 284.056,220.800 283.606,220.800 283.320 C 220.800 282.668,219.916 282.644,219.280 283.280 M181.200 284.167 C 181.200 284.515,181.485 284.800,181.833 284.800 C 182.182 284.800,182.395 284.586,182.308 284.325 C 182.061 283.583,181.200 283.460,181.200 284.167 M118.699 286.186 C 118.829 286.862,119.156 287.200,119.680 287.200 C 120.632 287.200,120.459 286.470,119.331 285.721 C 118.561 285.209,118.519 285.241,118.699 286.186 M347.700 285.798 C 347.032 286.558,347.070 286.748,347.867 286.631 C 348.233 286.578,348.578 286.233,348.631 285.867 C 348.750 285.059,348.375 285.031,347.700 285.798 M53.600 287.120 C 53.600 287.534,54.466 288.400,54.880 288.400 C 55.056 288.400,55.200 288.040,55.200 287.600 C 55.200 287.067,54.933 286.800,54.400 286.800 C 53.960 286.800,53.600 286.944,53.600 287.120 M187.689 287.266 C 188.067 288.400,189.506 288.890,189.301 287.814 C 189.171 287.138,188.844 286.800,188.320 286.800 C 187.887 286.800,187.603 287.010,187.689 287.266 M122.699 288.186 C 122.829 288.862,123.156 289.200,123.680 289.200 C 124.632 289.200,124.459 288.470,123.331 287.721 C 122.561 287.209,122.519 287.241,122.699 288.186 M191.200 289.351 C 191.200 290.105,192.224 290.895,192.992 290.733 C 193.565 290.612,193.564 290.518,192.988 289.700 C 192.287 288.703,191.200 288.491,191.200 289.351 M208.699 289.814 C 208.519 290.759,208.561 290.791,209.331 290.279 C 210.459 289.530,210.632 288.800,209.680 288.800 C 209.156 288.800,208.829 289.138,208.699 289.814 M346.172 289.155 C 346.444 289.595,345.425 290.492,345.063 290.130 C 344.918 289.985,344.800 290.077,344.800 290.333 C 344.800 290.974,345.538 290.919,346.229 290.229 C 346.901 289.557,346.979 288.800,346.376 288.800 C 346.143 288.800,346.051 288.960,346.172 289.155 M342.800 293.600 C 342.800 294.507,343.215 294.625,343.920 293.920 C 344.625 293.215,344.507 292.800,343.600 292.800 C 343.067 292.800,342.800 293.067,342.800 293.600 M264.489 295.823 C 263.402 296.584,263.341 297.200,264.353 297.200 C 264.839 297.200,265.175 296.845,265.298 296.200 C 265.403 295.650,265.464 295.200,265.434 295.200 C 265.403 295.200,264.978 295.480,264.489 295.823 M260.489 297.823 C 259.402 298.584,259.341 299.200,260.353 299.200 C 260.839 299.200,261.175 298.845,261.298 298.200 C 261.403 297.650,261.464 297.200,261.434 297.200 C 261.403 297.200,260.978 297.480,260.489 297.823 M336.800 303.600 C 336.800 304.507,337.215 304.625,337.920 303.920 C 338.625 303.215,338.507 302.800,337.600 302.800 C 337.067 302.800,336.800 303.067,336.800 303.600 M157.200 307.600 C 157.200 307.820,157.380 308.000,157.600 308.000 C 157.820 308.000,158.000 308.270,158.000 308.600 C 158.000 308.930,158.164 309.200,158.365 309.200 C 158.779 309.200,158.729 308.442,158.265 307.700 C 157.891 307.102,157.200 307.037,157.200 307.600 M243.569 307.367 C 243.247 307.718,243.417 308.798,243.819 308.952 C 244.186 309.093,244.279 308.951,244.110 308.510 C 243.926 308.030,244.030 307.926,244.510 308.110 C 244.939 308.275,245.092 308.185,244.962 307.846 C 244.814 307.460,243.803 307.112,243.569 307.367 M67.600 311.120 C 67.600 311.534,68.466 312.400,68.880 312.400 C 69.056 312.400,69.200 312.040,69.200 311.600 C 69.200 311.067,68.933 310.800,68.400 310.800 C 67.960 310.800,67.600 310.944,67.600 311.120 M164.684 312.400 C 164.800 312.843,165.230 313.200,165.647 313.200 C 166.510 313.200,166.614 312.774,165.920 312.080 C 165.161 311.321,164.450 311.505,164.684 312.400 M236.080 312.080 C 235.375 312.785,235.493 313.200,236.400 313.200 C 236.933 313.200,237.200 312.933,237.200 312.400 C 237.200 311.493,236.785 311.375,236.080 312.080 M328.800 317.600 C 328.800 318.507,329.215 318.625,329.920 317.920 C 330.625 317.215,330.507 316.800,329.600 316.800 C 329.067 316.800,328.800 317.067,328.800 317.600 M222.080 320.080 C 221.375 320.785,221.493 321.200,222.400 321.200 C 222.933 321.200,223.200 320.933,223.200 320.400 C 223.200 319.493,222.785 319.375,222.080 320.080 M188.800 326.400 C 188.800 326.933,189.067 327.200,189.600 327.200 C 190.507 327.200,190.625 326.785,189.920 326.080 C 189.215 325.375,188.800 325.493,188.800 326.400 M324.172 327.155 C 324.444 327.595,323.425 328.492,323.063 328.130 C 322.918 327.985,322.800 328.077,322.800 328.333 C 322.800 328.974,323.538 328.919,324.229 328.229 C 324.901 327.557,324.979 326.800,324.376 326.800 C 324.143 326.800,324.051 326.960,324.172 327.155 M208.080 328.080 C 207.375 328.785,207.493 329.200,208.400 329.200 C 208.933 329.200,209.200 328.933,209.200 328.400 C 209.200 327.493,208.785 327.375,208.080 328.080 M320.800 331.600 C 320.800 332.507,321.215 332.625,321.920 331.920 C 322.625 331.215,322.507 330.800,321.600 330.800 C 321.067 330.800,320.800 331.067,320.800 331.600 M201.569 331.367 C 201.247 331.718,201.417 332.798,201.819 332.952 C 202.186 333.093,202.279 332.951,202.110 332.510 C 201.926 332.030,202.030 331.926,202.510 332.110 C 202.939 332.275,203.092 332.185,202.962 331.846 C 202.814 331.460,201.803 331.112,201.569 331.367 M89.721 349.331 C 90.470 350.459,91.200 350.632,91.200 349.680 C 91.200 349.156,90.862 348.829,90.186 348.699 C 89.241 348.519,89.209 348.561,89.721 349.331 M310.172 351.155 C 310.444 351.595,309.425 352.492,309.063 352.130 C 308.918 351.985,308.800 352.077,308.800 352.333 C 308.800 352.974,309.538 352.919,310.229 352.229 C 310.901 351.557,310.979 350.800,310.376 350.800 C 310.143 350.800,310.051 350.960,310.172 351.155 M306.800 355.600 C 306.800 356.507,307.215 356.625,307.920 355.920 C 308.625 355.215,308.507 354.800,307.600 354.800 C 307.067 354.800,306.800 355.067,306.800 355.600 M103.600 367.120 C 103.600 367.534,104.466 368.400,104.880 368.400 C 105.056 368.400,105.200 368.040,105.200 367.600 C 105.200 367.067,104.933 366.800,104.400 366.800 C 103.960 366.800,103.600 366.944,103.600 367.120 " stroke="none" fill="#4c48e0" fill-rule="evenodd"></path></g></svg>