<?xml version="1.0" encoding="utf-8"?>
<!-- Generator: Adobe Illustrator 27.1.1, SVG Export Plug-In . SVG Version: 6.00 Build 0)  -->
<svg version="1.1" id="svg" xmlns="http://www.w3.org/2000/svg" xmlns:xlink="http://www.w3.org/1999/xlink" x="0px" y="0px"
	 viewBox="0 0 200 200" style="enable-background:new 0 0 200 200;" xml:space="preserve">
<style type="text/css">
	.st0{fill-rule:evenodd;clip-rule:evenodd;fill:#8484F4;}
	.st1{fill-rule:evenodd;clip-rule:evenodd;fill:#4C34C4;}
	.st2{fill-rule:evenodd;clip-rule:evenodd;fill:#8874DC;}
	.st3{fill-rule:evenodd;clip-rule:evenodd;fill:#4C48E0;}
</style>
<g id="svgg">
	<path id="path0" class="st0" d="M97.8,56.8c-0.2,0.2-0.3,0.4-0.3,0.5c0,0.1-0.2,0.2-0.4,0.2c-0.2,0-0.6,0.2-0.8,0.5
		c-0.2,0.3-0.6,0.5-1,0.6c-0.5,0-0.7,0.2-0.7,0.5c-0.1,0.4-0.2,0.5-0.8,0.5c-0.5,0-0.7,0.1-0.6,0.3c0.1,0.2,0.1,0.2-0.1,0
		c-0.2-0.2-0.4-0.1-0.7,0.3c-0.3,0.3-0.7,0.5-1.1,0.6c-0.6,0-0.7,0.1-0.7,0.5c0,0.4-0.1,0.4-0.6,0.4c-0.4,0-0.7,0.1-0.8,0.2
		c-0.1,0.2-0.1,0.2,0.1,0.1c0.2-0.1,0.1,0-0.1,0.3c-0.4,0.5-0.6,0.6-0.4,0.2c0.1-0.2,0.1-0.2-0.1,0c-0.2,0.1-0.5,0.3-0.7,0.3
		c-0.2,0-0.5,0.2-0.6,0.5c-0.1,0.3-0.4,0.5-0.8,0.5c-0.3,0-0.7,0.2-0.9,0.4c-0.5,0.5-1.2,0.9-1.4,0.8c-0.2-0.2-0.9,0.5-0.7,0.7
		c0.1,0.1,0,0.2-0.3,0.2c-1.5,0.1-2,0.4-1.8,0.8c0.1,0.1,0,0.2-0.2,0.2s-0.4,0-0.5,0.1c-0.1,0-0.3,0.2-0.5,0.5
		c-0.2,0.3-0.6,0.5-1.1,0.5c-0.6,0.1-0.8,0.2-0.8,0.5c0,0.3-0.2,0.5-0.5,0.5c-1.1,0-1.7,0.4-1.4,0.8c0.1,0.1-0.2,0.2-0.5,0.2
		c-0.3,0-0.6,0.1-0.6,0.2c0,0.1,0,0.3-0.1,0.5c0,0.1-0.1,0.3-0.3,0.3c-0.1,0-0.3,0-0.4,0.1c-0.1,0-0.4,0-0.6,0
		c-0.3,0-0.7,0.2-1.1,0.6c-0.4,0.4-0.8,0.6-1.1,0.6c-0.4,0-0.5,0.1-0.5,0.4c0,0.3-0.1,0.4-0.5,0.4c-1.1,0-1.7,0.4-1.4,0.8
		c0.1,0.1-0.2,0.2-0.6,0.2c-0.4,0-0.6,0.1-0.5,0.1c0.1,0.1,0,0.3-0.2,0.4c-0.2,0.2-0.2,0.2-0.1,0.1c0.2-0.1,0.2-0.1,0.2,0
		c-0.1,0.1-0.5,0.2-0.9,0.2c-0.5,0-0.9,0.2-1.2,0.6c-0.2,0.3-0.6,0.5-0.9,0.5c-0.3,0-0.5,0.1-0.5,0.2c0,0.1-0.1,0.1-0.2,0.1
		c-0.1-0.1-0.2,0.1-0.3,0.3c-0.1,0.3-0.3,0.4-0.6,0.4c-0.3,0-0.5,0.1-0.5,0.2s-0.1,0.2-0.3,0.2c-0.2,0-0.3,0.1-0.3,0.3
		c0,0.2-0.2,0.3-0.4,0.3c-0.2,0-0.5,0-0.7,0.1s-0.3,0.2-0.4,0.4c-0.1,0.2-0.3,0.4-0.6,0.5c-0.4,0.1-0.4,0.3-0.4,23.7
		c0,13,0.1,23.6,0.2,23.5c0.3-0.2,1,0.3,0.9,0.6c-0.1,0.2-0.1,0.3,0.1,0.2c0.1-0.1,0.2-0.1,0.2,0.1c0,0.1,0.4,0.2,0.8,0.2
		c0.8,0,0.9,0.2,0.8,0.9c0,0.1,0.3,0.2,0.7,0.2c0.4,0,0.8,0.1,1,0.3c0.2,0.2,0.2,0.3,0,0.2c-0.1-0.1-0.3-0.1-0.4,0
		c-0.1,0.2,0.5,0.4,1.4,0.4c0.3,0,0.5,0.1,0.5,0.1c-0.1,0.1,0.4,0.8,0.7,0.8c0.1,0,0.4,0,0.7,0.1c0.4,0,0.5,0.1,0.5,0.5
		c0,0.3,0.1,0.5,0.6,0.5c1,0.1,1.4,0.2,1.3,0.4c-0.1,0.3,1.2,0.8,1.4,0.7c0.1-0.1,0.1,0,0,0.1c-0.2,0.4,0.2,0.7,0.9,0.8
		c0.8,0.1,0.8,0.1,0.9,0.6c0,0.2,0.2,0.4,0.4,0.4c0.2,0,0.6,0,0.9,0.1c0.3,0,0.6,0.2,0.7,0.4c0.1,0.4,0.5,0.5,1.4,0.7
		c0.2,0,0.4,0.2,0.4,0.4c0.1,0.5,0.1,0.5,0.8,0.6c0.4,0,0.7,0.2,0.7,0.3c0.1,0.2,0,0.2-0.1,0.1c-0.1-0.1-0.1,0,0.1,0.2
		c0.2,0.2,0.7,0.3,1.1,0.3c0.6,0,0.7,0,0.5,0.4c-0.1,0.3-0.1,0.4,0.1,0.3c0.1-0.1,0.2,0,0.2,0.1c0,0.1,0.3,0.2,0.6,0.2
		c0.6,0,1.4,0.6,1.1,0.9c-0.1,0.1-0.1,0.1,0.1,0.1c1.1-0.2,1.9,0,1.9,0.5c0,0.4,0.1,0.5,0.4,0.4c0.5-0.1,0.9,0.1,0.9,0.6
		c0,0.3,0.2,0.4,0.8,0.4c0.6,0,0.9,0.2,1,0.5c0.1,0.2,0.6,0.5,1,0.7c0.4,0.1,0.9,0.4,1,0.6s0.5,0.3,0.9,0.3c0.4,0,0.6,0.1,0.6,0.3
		c0,0.2,0.1,0.3,0.2,0.2c0.1-0.1,0.2,0,0.3,0.2c0.1,0.2,0.3,0.3,0.6,0.3c0.3,0,0.5,0.1,0.5,0.3c0,0.1,0.1,0.2,0.2,0.2
		c0.1,0,0.2,0.1,0.1,0.2c-0.1,0.2,0.1,0.3,0.6,0.3c0.9,0.1,1.1,0.2,1,0.5c-0.1,0.1,0,0.2,0.1,0.2s0.2,0.1,0.1,0.2
		c-0.1,0.1,0.2,0.2,0.5,0.2c0.4,0,0.8,0.2,1.1,0.5c0.3,0.3,0.6,0.5,1.1,0.6c0.4,0,0.7,0.2,0.7,0.3c0.1,0.2,0,0.2-0.2,0.1
		c-0.2-0.1-0.3,0-0.3,0.1c0,0.3,0.4,0.4,2.2,0.4c1.7,0,2.5-0.2,2.5-0.7c0-0.2,0.2-0.3,0.9-0.3c0.5,0,0.9-0.1,0.9-0.2
		c0-0.1,0-0.3,0.1-0.4c0-0.3,0.2-0.4,1-0.5c0.7,0,1.3-0.4,1.1-0.7c0-0.1,0.2-0.2,0.5-0.2c0.3,0,0.6-0.2,0.6-0.3
		c0-0.4,0.5-0.7,1.2-0.8c0.4,0,0.8-0.2,0.9-0.5c0.1-0.3,0.5-0.4,0.9-0.5c0.4,0,0.8-0.2,1.1-0.6c0.2-0.3,0.5-0.5,0.7-0.5
		c0.2,0,0.5-0.2,0.6-0.4c0.2-0.2,0.6-0.5,1-0.6c0.4-0.1,0.7-0.2,0.7-0.3c0-0.2,0.4-0.7,0.6-0.6c0.3,0.1,1.4-0.3,1.3-0.4
		c-0.3-0.4,0.4-0.7,2-0.8c0.1,0,0.1-0.2,0.1-0.3c-0.1-0.3,0-0.4,1.1-0.6c0.7-0.1,1.1-0.5,0.9-0.8c-0.1-0.1,0.1-0.2,0.4-0.2
		c0.3,0,0.6-0.1,0.6-0.1c0.1-0.1,0.3-0.2,0.5-0.2c0.2,0,0.4-0.1,0.4-0.3c0.1-0.3,0-0.3-0.2,0c-0.2,0.2-0.4,0.2-0.4,0.1
		c-0.2-0.3,0-0.3,0.9-0.4c0.5,0,0.8-0.2,1.1-0.6c0.3-0.3,0.6-0.5,1.1-0.5c0.6,0,0.7-0.1,0.7-0.5c0-0.3,0.1-0.4,0.4-0.5
		c1.1-0.1,1.4-0.1,1.6-0.4c0.1-0.1,0.1-0.3,0.1-0.4c-0.1-0.1,0.1-0.2,0.4-0.2c0.5,0,1.4-0.5,1.3-0.8c-0.1-0.1,0.5-0.2,1.4-0.3
		c0.2,0,0.2-0.1,0.1-0.3c-0.2-0.3,0.4-0.7,1.3-0.8c0.3,0,0.6-0.2,0.6-0.3c-0.1-0.3,0.4-0.6,1.1-0.7c0.7-0.1,1.1-0.5,0.9-0.8
		c-0.1-0.1,0.7-0.3,1.2-0.2c0.1,0,0.1-0.1,0.1-0.1c-0.2-0.4,0.4-0.8,1.2-0.9c0.6-0.1,0.8-0.2,0.8-0.5c0-0.3,0.2-0.4,0.6-0.4
		c0.7-0.1,2.2-1.5,2.3-2.2c0.3-1.6,0.2-45.5-0.1-45.5c-0.2,0-0.3-0.1-0.2-0.2c0.1-0.1-0.1-0.2-0.3-0.3c-0.3-0.1-0.4-0.2-0.3-0.4
		c0.1-0.2,0-0.2-0.1-0.2c-0.1,0.1-0.2,0-0.3-0.2c-0.1-0.2-0.4-0.3-0.9-0.4c-0.6-0.1-0.8-0.2-0.9-0.5c-0.1-0.3-0.2-0.5-0.3-0.5
		c-0.6,0-0.7,0-0.8-0.4c-0.1-0.2-0.2-0.4-0.3-0.3c-0.1,0.1-0.3,0-0.3-0.1c-0.1-0.1-0.4-0.2-0.7-0.2c-0.4,0-0.6-0.1-0.5-0.2
		c0.1-0.1,0-0.2-0.1-0.2s-0.2-0.1-0.2-0.2c0.1-0.2-0.1-0.3-1-0.3c-0.3,0-0.6-0.2-0.7-0.5c-0.2-0.4-0.4-0.5-1-0.5
		c-0.5,0-0.7-0.1-0.7-0.2c0.1-0.1-0.1-0.2-0.3-0.2c-0.4,0-0.4,0-0.1-0.2c0.4-0.2,0-0.4-0.7-0.4c-0.2,0-0.4-0.2-0.5-0.4
		c-0.1-0.2-0.2-0.4-0.3-0.4c-0.1,0-0.2,0-0.3,0c-0.3-0.1-0.6-0.2-1-0.2c-0.3,0-0.4-0.2-0.4-0.4c0-0.4-0.2-0.5-1.3-0.7
		c-0.2,0-0.5-0.3-0.6-0.5c-0.2-0.4-0.4-0.5-1.4-0.4c-0.2,0-0.7-0.5-0.6-0.6c0.1-0.2-0.7-0.4-0.9-0.3c-0.1,0.1-0.2-0.1-0.3-0.3
		c0-0.3-0.2-0.5-0.4-0.5c-0.2,0-0.4-0.1-0.6-0.2c-0.1-0.1-0.3-0.1-0.4-0.1c-0.2,0.2-0.9-0.3-0.8-0.4c0.2-0.3-0.2-0.6-0.8-0.7
		c-0.4,0-0.7-0.2-0.8-0.4c-0.1-0.2-0.2-0.4-0.3-0.4c-0.1,0-0.3-0.1-0.5-0.1c-0.2,0-0.5-0.1-0.7-0.1c-0.4,0-0.8-0.5-0.7-0.7
		c0-0.1-0.2-0.2-0.5-0.2c-0.3,0-0.6-0.1-0.6-0.3c0-0.1,0-0.3-0.1-0.4c0-0.1-0.2-0.3-0.3-0.3c-0.2-0.1-0.2,0-0.1,0.2
		c0.1,0.2,0.1,0.2-0.1,0c-0.2-0.1-0.5-0.3-0.8-0.3c-0.4,0-0.6-0.1-0.7-0.5c-0.1-0.4-0.2-0.5-1-0.5c-0.8,0-0.9,0-0.9-0.5
		c0-0.5-0.1-0.5-1.3-0.5c-0.2,0-0.7-0.5-0.6-0.7c0-0.1-0.2-0.2-0.5-0.3c-0.5-0.1-0.7-0.2-0.6-0.7c0-0.1,0-0.2,0-0.2s-0.5-0.1-1-0.1
		c-1-0.1-1-0.1-1.1-0.6c0-0.2-0.2-0.4-0.3-0.4c-1.4,0-1.6-0.1-1.7-0.5c0-0.3-0.2-0.5-0.5-0.5c-0.2,0-0.5-0.2-0.5-0.5
		c-0.1-0.2-0.2-0.4-0.3-0.3c-0.1,0.1-0.3,0-0.3-0.1C102.5,56.4,98.2,56.4,97.8,56.8 M74.4,69.8c-0.1,0.1,0,0.3,0.1,0.3
		c0.3,0.2,0.5-0.1,0.3-0.3C74.6,69.7,74.5,69.7,74.4,69.8"/>
	<path id="path1" class="st1" d="M53.5,16.6c-0.3,0.3-0.7,0.5-1.2,0.5c-1.1,0-1.2,0.1-1.2,0.4C51,18,51,18.1,50.5,18.2
		c-0.2,0-0.4,0.1-0.4,0.1c0.1,0.6-0.1,0.8-0.5,0.8c-0.4,0-0.5,0.1-0.5,0.5c0,0.4-0.1,0.5-0.5,0.6c-0.4,0.1-0.5,0.2-0.5,1
		c-0.1,0.9-0.1,1-0.6,1c-0.4,0-0.5,0.1-0.5,0.5c0,0.3-0.2,0.7-0.5,1c-0.3,0.3-0.5,0.8-0.6,1.3c0,0.6-0.1,0.7-0.3,0.7
		c-0.2-0.1-0.3,0-0.2,0.2c0.1,0.2,0,0.3-0.2,0.2C45,26,45,26.1,45,26.6c0,0.5-0.1,0.6-0.5,0.6c-0.5,0-0.5,0.1-0.5,1c0,0.9,0,1-0.5,1
		c-0.4,0-0.5,0.1-0.5,0.6c0,0.3-0.1,0.7-0.2,0.7c-0.1,0.1-0.2,0.1-0.1-0.1c0.2-0.3-0.1-0.3-0.4,0c-0.3,0.3-0.3,0.6,0,0.4
		c0.2-0.1,0.2-0.1,0,0.1c-0.1,0.2-0.3,0.5-0.3,0.7s-0.1,0.5-0.2,0.5c-0.1,0-0.3,0-0.5,0.1c-0.3,0-0.3,0.1-0.3,1.2
		c0,0.6-0.1,0.7-0.5,0.7c-0.5,0-0.5,0.1-0.5,1c0,0.9-0.1,1-0.5,1.1c-0.3,0-0.5,0.2-0.5,0.6c0,0.3-0.2,0.6-0.3,0.7
		c-0.1,0.1-0.2,0.1-0.1-0.1c0.2-0.3-0.1-0.3-0.4,0c-0.3,0.3-0.3,0.6,0,0.4c0.2-0.1,0.2-0.1,0,0.1c-0.1,0.2-0.3,0.5-0.3,0.7
		s-0.1,0.5-0.2,0.5c-0.4,0-0.8,0.7-0.8,1.3c0,0.6-0.1,0.7-0.5,0.7c-0.4,0-0.5,0.1-0.5,0.5c0,0.3-0.2,0.7-0.5,1
		c-0.3,0.3-0.5,0.7-0.5,1c0,0.3-0.2,0.5-0.5,0.6c-0.4,0.2-0.5,0.4-0.5,1.1c-0.1,0.8-0.1,0.9-0.6,0.9c-0.5,0-0.5,0.1-0.5,1
		c0,0.9,0,1-0.5,1c-0.4,0-0.5,0.1-0.5,0.6c0,0.3-0.1,0.7-0.2,0.7c-0.1,0.1-0.2,0.1-0.1-0.1c0.2-0.3-0.1-0.3-0.4,0
		c-0.3,0.3-0.3,0.6,0,0.4c0.2-0.1,0.2-0.1,0,0.1c-0.1,0.2-0.3,0.5-0.3,0.7c0,0.3-0.1,0.5-0.5,0.5c-0.4,0.1-0.5,0.2-0.5,1
		c-0.1,0.9-0.1,1-0.6,1c-0.3,0-0.5,0.1-0.5,0.2c0.1,0.4,0,1.1-0.2,1c-0.3-0.1-0.8,0.5-0.8,1.2c-0.1,0.7-0.1,0.7-0.6,0.8
		c-0.3,0-0.4,0.3-0.4,0.9c0,0.5-0.2,0.9-0.3,1c-0.5,0.2-0.8,0.7-0.8,1.3c0,0.5-0.1,0.7-0.5,0.8c-0.3,0.1-0.5,0.3-0.5,0.5
		c0,0.2-0.2,0.6-0.5,0.9c-0.3,0.3-0.5,0.7-0.5,1c0,0.3-0.2,0.5-0.5,0.6c-0.4,0.2-0.5,0.4-0.5,1.1c-0.1,0.8-0.1,0.9-0.6,0.9
		c-0.5,0-0.5,0.1-0.5,1c0,0.9,0,1-0.5,1c-0.4,0-0.5,0.1-0.5,0.5c0,0.3-0.1,0.5-0.2,0.5c-0.1,0-0.3,0-0.5,0.1c-0.3,0-0.3,0.1-0.3,1.2
		c0,0.6-0.1,0.7-0.5,0.8c-0.4,0.1-0.5,0.2-0.5,1c-0.1,0.9-0.1,1-0.6,1c-0.5,0-0.5,0.1-0.5,1c0,0.9-0.1,1-0.5,1.1
		c-0.3,0-0.5,0.2-0.5,0.5c0,0.3-0.1,0.5-0.3,0.5c-0.1,0-0.3,0-0.4,0.1c-0.1,0-0.3,0.4-0.3,0.9c0,0.5-0.2,0.9-0.3,1
		c-0.5,0.2-0.8,0.7-0.8,1.4c0,0.6-0.1,0.7-0.5,0.7c-0.4,0-0.5,0.1-0.5,0.5c0,0.3-0.2,0.7-0.5,1c-0.3,0.3-0.5,0.7-0.5,1
		c0,0.3-0.2,0.5-0.5,0.6c-0.4,0.2-0.5,0.4-0.5,1.1c-0.1,0.8-0.1,0.9-0.6,0.9c-0.5,0-0.5,0.1-0.5,1c0,0.9,0,1-0.5,1
		c-0.4,0-0.5,0.1-0.5,0.6c0,0.3-0.1,0.6-0.2,0.5c-0.3-0.1-0.8,0.5-0.8,1.2c-0.1,0.7-0.1,0.7-0.6,0.8C7.7,90,7.7,90,7.6,91.1
		c0,0.6-0.1,0.7-0.5,0.7c-0.4,0-0.5,0.1-0.5,0.6c0,0.3-0.1,0.6-0.2,0.5c-0.1-0.1-0.9,0.6-0.9,0.8c0,0.1,0,0.3,0,0.6s-0.2,0.7-0.5,1
		c-0.3,0.3-0.5,0.7-0.5,1c0,0.3-0.1,0.5-0.5,0.5c-0.4,0.1-0.5,0.2-0.5,1.6c0,0.8-0.2,1.6-0.3,1.7c-0.2,0.1-0.2,0.1-0.1-0.1
		c0.2-0.3-0.1-0.3-0.4,0c-0.3,0.3-0.3,0.6,0,0.4c0.2-0.1,0.2-0.1,0,0.1c-0.5,0.6-0.3,3,0.3,3c0.5,0,0.5,0,0.5,1.5
		c0,1.5,0.2,2.1,0.8,2.1c0.1,0,0.2,0.3,0.2,0.7c0,0.6,0.1,0.7,0.5,0.7c0.5,0,0.5,0.1,0.5,1s0,1,0.5,1c0.5,0,0.7,0.4,0.5,1.3
		c0,0.1,0.1,0.2,0.3,0.2c0.2,0,0.3,0.1,0.3,0.3c0,0.2,0.1,0.3,0.2,0.3c0.1,0,0.2,0.2,0.2,0.5c0,0.4,0.1,0.5,0.5,0.5
		c0.4,0,0.5,0.1,0.6,1c0.1,0.8,0.1,1,0.5,1c0.4,0.1,0.5,0.2,0.5,1.1c0,0.5,0.1,1,0.2,1c0.6-0.1,0.9,0.1,0.9,0.5
		c0,0.5,0.4,1.1,0.8,1.1c0.1,0,0.2,0.3,0.2,0.7c0,0.6,0.1,0.7,0.5,0.7c0.5,0,0.5,0.1,0.5,1s0,1,0.5,1c0.4,0,0.5,0.1,0.5,0.7
		c0,1.2,0.1,1.2,0.4,1.2c0.5,0,0.5,0.1,0.6,0.9c0,0.4,0.2,0.6,0.3,0.6c0.1,0,0.3,0.1,0.3,0.3s0.1,0.3,0.2,0.3c0.1,0,0.2,0.2,0.3,0.5
		c0,0.3,0.2,0.5,0.5,0.5c0.4,0.1,0.5,0.2,0.5,1c0,0.6,0.2,1,0.3,1c0.1,0,0.3,0,0.5,0.1c0.1,0,0.2,0.3,0.2,0.5c0,0.5,0.4,1.1,0.8,1.1
		c0.1,0,0.2,0.3,0.3,0.7c0,0.5,0.2,0.7,0.5,0.7c0.4,0.1,0.5,0.2,0.5,1.1c0,0.9,0,1,0.5,1c0.4,0,0.5,0.1,0.5,0.6
		c0,0.7,0.2,1.5,0.4,1.4c0.3-0.2,0.6,0.2,0.7,0.9c0,0.4,0.2,0.6,0.3,0.6c0.1,0,0.3,0.1,0.3,0.3c0,0.2,0.1,0.3,0.2,0.3
		c0.1,0,0.2,0.2,0.2,0.5c0,0.4,0.1,0.5,0.5,0.5c0.4,0,0.5,0.1,0.6,0.9c0,0.7,0.1,1,0.4,1c0.5,0.1,0.5,0.1,0.6,0.9
		c0,0.4,0.2,0.6,0.3,0.6c0.1,0,0.3,0.1,0.3,0.3s0.1,0.3,0.2,0.3c0.1,0,0.2,0.2,0.2,0.5c0,0.4,0.1,0.5,0.5,0.5c0.5,0,0.5,0.1,0.5,1
		c0,0.9,0,1,0.5,1c0.4,0,0.5,0.1,0.5,0.6c0,0.7,0.2,1.5,0.4,1.4c0.3-0.2,0.6,0.2,0.7,0.9c0,0.4,0.2,0.6,0.3,0.6
		c0.1,0,0.3,0.1,0.3,0.3s0.1,0.3,0.2,0.3s0.2,0.2,0.2,0.5c0,0.4,0.1,0.5,0.5,0.5c0.5,0,0.5,0.1,0.5,1c0,0.9,0,1,0.5,1
		c0.5,0,0.7,0.4,0.5,1.3c0,0.1,0.1,0.2,0.3,0.2c0.2,0,0.3,0.1,0.3,0.3c0,0.2,0.1,0.3,0.2,0.3s0.2,0.2,0.2,0.5c0,0.4,0.1,0.5,0.5,0.5
		c0.4,0,0.5,0.1,0.6,1c0.1,0.8,0.1,1,0.5,1c0.4,0.1,0.5,0.2,0.5,1c0,0.8,0.1,1,0.4,1c0.6,0,0.6,0.1,0.6,0.8c0,0.4,0.2,0.6,0.3,0.6
		c0.1,0,0.3,0.1,0.3,0.3c0,0.2,0.1,0.3,0.2,0.3s0.2,0.2,0.2,0.5c0,0.4,0.1,0.5,0.5,0.5c0.5,0,0.5,0.1,0.5,1c0,0.9,0,1,0.5,1
		c0.4,0,0.5,0.1,0.5,0.7c0,1.2,0.1,1.2,0.4,1.2c0.5,0,0.5,0.1,0.6,0.9c0,0.4,0.2,0.6,0.3,0.6c0.1,0,0.3,0.1,0.3,0.3s0.1,0.3,0.2,0.3
		s0.2,0.2,0.3,0.5c0,0.3,0.2,0.5,0.5,0.5c0.4,0.1,0.5,0.2,0.5,0.9c0,0.7,0.2,0.9,0.5,1c0.4,0.2,0.6,0.7,0.5,1.4
		c0,0.1,0.1,0.2,0.3,0.2s0.3,0.1,0.3,0.3s0.1,0.3,0.2,0.3c0.1,0,0.2,0.2,0.3,0.5c0,0.3,0.2,0.5,0.5,0.5c0.4,0.1,0.5,0.2,0.5,1.1
		c0,0.9,0,1,0.5,1c0.4,0,0.5,0.1,0.5,0.6c0,0.7,0.2,1.5,0.4,1.4c0.3-0.2,0.6,0.2,0.7,0.9c0,0.4,0.2,0.6,0.3,0.6
		c0.1,0,0.3,0.1,0.3,0.3c0,0.2,0.1,0.3,0.2,0.3c0.1,0,0.2,0.2,0.2,0.5c0,0.4,0.1,0.5,0.5,0.5c0.4,0,0.5,0.1,0.5,0.5
		c0,0.4,0.1,0.5,0.5,0.5s0.5,0.1,0.5,0.5c0,0.5,0.1,0.5,1,0.5c0.9,0,1,0,1,0.5v0.5l48.3,0c47,0,48.3,0,48.5-0.4
		c0.1-0.2,0.1-0.4,0.1-0.5c-0.1-0.1,0.2-0.1,0.6-0.2c1.2,0,1.2-0.1,1.3-0.3c0-0.1,0-0.3,0.1-0.5c0-0.1,0.2-0.2,0.4-0.2
		c0.3,0,0.8-0.6,0.9-1c0-0.1,0.2-0.1,0.3-0.1c0.3,0,0.3-0.1,0.4-1.3c0-0.5,0.1-0.7,0.5-0.7c0.4-0.1,0.5-0.2,0.5-1
		c0.1-0.9,0.1-1,0.6-1c0.4,0,0.5-0.1,0.5-0.7c0-0.6,0.1-0.7,0.4-0.6c0.3,0.1,0.4,0,0.3-0.3c0-0.2,0-0.4,0.1-0.4
		c0.1,0,0.2-0.2,0.2-0.5s0.1-0.5,0.2-0.5c0.1,0,0.3,0,0.5-0.1c0.3,0,0.3-0.1,0.3-1.2c0-0.6,0.1-0.7,0.5-0.7c0.5,0,0.5-0.1,0.5-1
		c0-0.9,0-1,0.5-1c0.4,0,0.5-0.1,0.5-0.6c0-0.3,0.1-0.6,0.2-0.5c0.1,0.1,0.9-0.6,0.9-0.8c0-0.1,0-0.3,0-0.6c0-0.4,0.1-0.5,0.5-0.6
		c0.4-0.1,0.5-0.2,0.5-1c0.1-0.9,0.1-1,0.6-1c0.4,0,0.5-0.1,0.5-0.7c0-0.6,0.1-0.7,0.4-0.6c0.3,0.1,0.4,0,0.3-0.3
		c0-0.2,0-0.4,0.1-0.4c0.1,0,0.2-0.2,0.2-0.5c0-0.3,0.1-0.5,0.2-0.5c0.1,0,0.3,0,0.5-0.1c0.3,0,0.3-0.1,0.3-1.2
		c0-0.6,0.1-0.7,0.5-0.7c0.5,0,0.5-0.1,0.5-1c0-0.9,0-1,0.5-1c0.4,0,0.5-0.1,0.5-0.6c0-0.3,0.1-0.6,0.2-0.5c0.3,0.1,0.8-0.5,0.8-1.2
		c0.1-0.6,0.4-1,0.8-0.8c0.1,0,0.2,0,0.2-0.2c0-1.4,0.1-1.8,0.6-1.8c0.5,0,0.5-0.1,0.5-1c0-0.9,0-1,0.5-1c0.4,0,0.5-0.1,0.5-0.5
		c0-0.3,0.1-0.5,0.2-0.5c0.1,0,0.3,0,0.5-0.1c0.3,0,0.3-0.1,0.3-1.2c0-0.6,0.1-0.7,0.5-0.8c0.4-0.1,0.5-0.2,0.5-1
		c0.1-0.9,0.1-1,0.6-1c0.4,0,0.5-0.1,0.5-0.7c0-0.6,0.1-0.7,0.4-0.6c0.3,0.1,0.4,0,0.3-0.3c0-0.2,0-0.4,0.1-0.4
		c0.1,0,0.2-0.2,0.2-0.5c0-0.3,0.2-0.7,0.5-1c0.3-0.3,0.5-0.7,0.5-1c0-0.4,0.1-0.5,0.5-0.5c0.5,0,0.5-0.1,0.5-1c0-0.9,0-1,0.5-1
		c0.4,0,0.5-0.1,0.5-0.6c0-0.3,0.1-0.6,0.2-0.5c0.1,0.1,0.9-0.6,0.9-0.8c0-0.1,0-0.3,0-0.6c0-0.4,0.1-0.5,0.5-0.6
		c0.4-0.1,0.5-0.2,0.5-1c0.1-0.9,0.1-1,0.6-1c0.4,0,0.5-0.1,0.5-0.5c0-0.3,0.1-0.5,0.2-0.5c0.1,0,0.2-0.1,0.1-0.2
		c-0.1-0.1,0-0.3,0.2-0.5c0.3-0.2,0.3-0.2,0.1,0.1c-0.2,0.2-0.2,0.4-0.1,0.4c0.3,0,0.5-0.5,0.5-1.3c0-0.4,0.1-0.7,0.2-0.6
		c0.1,0.1,0.9-0.6,0.9-0.8c0-0.1,0-0.3,0-0.6c0-0.4,0.1-0.5,0.5-0.5c0.5,0,0.5-0.1,0.5-1s0-1,0.5-1c0.4,0,0.5-0.1,0.5-0.6
		c0-0.3,0.1-0.6,0.2-0.5c0.3,0.1,0.8-0.5,0.8-1.2c0.1-0.6,0.4-1,0.8-0.8c0.1,0,0.2,0,0.2-0.2c0-1.4,0.1-1.8,0.6-1.8
		c0.4,0,0.5-0.1,0.5-0.5c0-0.3,0.1-0.5,0.2-0.5s0.2-0.1,0.1-0.2c-0.1-0.1,0-0.3,0.2-0.5c0.3-0.2,0.3-0.2,0.1,0.1
		c-0.2,0.2-0.2,0.4-0.1,0.4c0.3,0,0.5-0.5,0.5-1.2c0-0.3,0.2-0.8,0.5-1.1c0.3-0.3,0.5-0.7,0.5-1c0-0.4,0.1-0.5,0.5-0.6
		c0.4-0.1,0.5-0.2,0.5-1c0.1-0.9,0.1-1,0.5-1c0.4,0,0.5-0.1,0.5-0.6c0-0.4,0.2-0.6,0.5-0.6c0.4,0,0.4-0.1,0.5-1.3
		c0-0.4,0.2-0.8,0.5-1.2c0.3-0.3,0.5-0.7,0.5-1c0-0.4,0.1-0.5,0.5-0.5c0.5,0,0.5-0.1,0.5-1s0-1,0.5-1c0.4,0,0.5-0.1,0.5-0.5
		c0-0.3,0.1-0.5,0.2-0.5s0.3,0,0.4-0.1c0.1,0,0.3-0.4,0.3-0.9c0.1-0.9,0.3-1.3,0.8-1.1c0.1,0,0.2-0.5,0.3-1.4c0-0.8,0.1-1.5,0.2-1.5
		c0.1,0,0.1-0.1,0.1-0.2c-0.1-0.1,0.1-0.3,0.3-0.4c0.3-0.2,0.3-0.2,0.1,0.1c-0.2,0.2-0.2,0.4-0.1,0.4c0.3,0,0.5-0.5,0.5-1.3
		c0-0.5-0.1-0.7-0.3-0.7c-0.2,0-0.3-0.1-0.3-0.3s-0.1-0.3-0.2-0.2c-0.1,0.1-0.2-0.5-0.2-1.5c0-1.6,0-1.6-0.5-1.6
		c-0.4,0-0.5-0.1-0.6-1c-0.1-0.8-0.1-1-0.5-1c-0.3,0-0.5-0.2-0.5-0.6c0-1-0.3-1.6-0.7-1.4c-0.2,0.1-0.3-0.1-0.3-0.5
		c0-0.3-0.1-0.6-0.2-0.6s-0.2-0.1-0.2-0.2c0-0.1-0.1-0.4-0.3-0.5c-0.2-0.2-0.3-0.5-0.3-0.8c0-0.4-0.1-0.5-0.5-0.5
		c-0.4,0-0.5-0.1-0.5-0.7c0-1-0.2-1.3-0.6-1.3c-0.3,0-0.4-0.1-0.4-0.5c0-1-0.3-1.6-0.7-1.4c-0.2,0.1-0.3-0.1-0.3-0.4
		c0-0.4-0.2-0.6-0.5-0.6c-0.4-0.1-0.5-0.2-0.5-1.1c0-0.9,0-1-0.5-1c-0.4,0-0.5-0.1-0.5-0.7c0-1.2-0.1-1.2-0.5-1.3
		c-0.4-0.1-0.7-0.8-0.4-1.1c0.1-0.2-0.5-1-0.8-0.9c-0.2,0.1-0.3-0.1-0.3-0.5c0-0.5-0.1-0.6-0.5-0.6c-0.5,0-0.5-0.1-0.5-1s0-1-0.5-1
		c-0.5,0-0.7-0.8-0.5-1.9c0-0.1-0.2-0.2-0.5-0.2c-0.4,0-0.5-0.1-0.5-0.7c0-1.1-0.1-1.3-0.3-1.3c-0.1,0-0.3,0-0.4-0.1
		c-0.1,0-0.2-0.2-0.3-0.5c0-0.3-0.2-0.5-0.5-0.5c-0.4-0.1-0.5-0.2-0.5-1c-0.1-0.8-0.1-1-0.5-1c-0.4-0.1-0.5-0.3-0.5-1.7
		c0-0.2-0.2-0.4-0.5-0.4c-0.4,0-0.5-0.1-0.5-0.7c0-0.5-0.1-0.7-0.3-0.7c-0.2,0-0.3-0.1-0.3-0.3c0-0.2-0.1-0.3-0.2-0.2
		c-0.1,0.1-0.2-0.1-0.3-0.4c0-0.4-0.2-0.6-0.5-0.6c-0.4-0.1-0.5-0.2-0.5-0.8c0-1.2-0.1-1.2-0.5-1.3c-0.4-0.1-0.6-0.7-0.5-1.7
		c0-0.1-0.2-0.2-0.5-0.3c-0.4-0.1-0.5-0.3-0.5-0.6c0-0.4-0.1-0.5-0.5-0.5c-0.5,0-0.5-0.1-0.5-1c0-0.9,0-1-0.5-1
		c-0.5,0-0.7-0.8-0.5-1.9c0-0.1-0.2-0.2-0.5-0.2c-0.4,0-0.5-0.1-0.5-0.7c0-1.1-0.1-1.3-0.3-1.3c-0.1,0-0.3,0-0.5-0.1
		s-0.2-0.3-0.2-0.7c0-0.5-0.1-0.7-0.3-0.7c-0.2,0-0.3-0.1-0.3-0.3c0-0.2-0.1-0.3-0.2-0.2c-0.1,0.1-0.2-0.1-0.3-0.4
		c0-0.4-0.2-0.6-0.5-0.6c-0.4-0.1-0.5-0.2-0.5-0.9c0-0.7-0.2-0.9-0.5-1c-0.3-0.1-0.5-0.4-0.5-0.9c0-0.5-0.1-0.7-0.3-0.7
		c-0.2,0-0.3-0.1-0.3-0.3s-0.1-0.3-0.2-0.2c-0.1,0.1-0.2-0.1-0.2-0.5c0-0.5-0.1-0.6-0.5-0.6c-0.5,0-0.5-0.1-0.5-1c0-0.9,0-1-0.5-1
		c-0.5,0-0.7-0.8-0.5-1.9c0-0.1-0.2-0.2-0.5-0.2c-0.4,0-0.5-0.1-0.5-0.7c0-0.5-0.1-0.7-0.3-0.7c-0.2,0-0.3-0.1-0.3-0.3
		c0-0.2-0.1-0.3-0.2-0.2c-0.1,0.1-0.2-0.1-0.2-0.5c0-0.5-0.1-0.6-0.5-0.6c-0.5,0-0.5-0.1-0.5-1c0-0.9,0-1-0.5-1
		c-0.4,0-0.7-0.7-0.5-1.1c0.1-0.2-0.5-1-0.8-0.9c-0.2,0.1-0.3-0.1-0.3-0.7c0-0.6-0.1-0.8-0.3-0.8c-0.2,0-0.3-0.1-0.3-0.3
		c0-0.2-0.1-0.3-0.2-0.2c-0.2,0.1-0.3-0.5-0.2-1c0-0.1-0.2-0.2-0.5-0.2c-0.5,0-0.5-0.1-0.5-1c0-0.9,0-1-0.5-1
		c-0.4,0-0.5-0.1-0.5-0.5c0-0.3-0.1-0.5-0.2-0.5s-0.2-0.1-0.2-0.2c0-0.1-0.1-0.4-0.3-0.5c-0.2-0.2-0.3-0.5-0.3-0.8
		c0-0.4-0.1-0.5-0.5-0.5c-0.4,0-0.5-0.1-0.5-0.7c0-0.9-0.2-1.3-0.6-1.3c-0.3,0-0.4-0.2-0.4-0.9c0-0.7-0.2-0.9-0.5-1.1
		c-0.3-0.1-0.5-0.4-0.5-0.9c0-0.4-0.1-0.7-0.3-0.7c-0.3,0-0.9-1.2-0.8-1.5c0-0.1-0.1-0.2-0.3-0.2c-0.2,0-0.5-0.2-0.7-0.5
		c-0.2-0.4-0.5-0.5-1-0.5c-0.6,0-0.7-0.1-0.7-0.5c0-0.5-0.1-0.5-1.1-0.5c-1,0-1.1,0-1.2-0.5l-0.1-0.5l-46.4,0l-46.4,0L53.5,16.6
		 M100.8,36.4c0.2,0.2,0.4,0.3,0.5,0.3c0.1,0,0.2,0.1,0.2,0.2s0.3,0.2,0.6,0.2c0.4,0,0.6,0.1,0.5,0.3c-0.2,0.4,0.4,0.7,1.4,0.7
		c0.4,0,0.5,0.1,0.5,0.4c0,0.4,0.4,0.6,1.3,0.6c0.6,0,0.7,0.1,0.7,0.5c0,0.4,0.1,0.5,0.5,0.5c0.3,0,0.6,0.1,0.8,0.3
		c0.2,0.2,0.4,0.3,0.5,0.3c0.1,0,0.2,0.1,0.2,0.2s0.2,0.2,0.5,0.2c0.4,0,0.5,0.1,0.6,0.5c0.1,0.3,0.2,0.5,0.3,0.5
		c0.9-0.1,1.6,0.1,1.6,0.4c0,0.4,0.4,0.6,1.3,0.6c0.6,0,0.7,0.1,0.7,0.5c0,0.4,0.1,0.5,0.5,0.5c0.3,0,0.6,0.1,0.8,0.3
		c0.2,0.2,0.4,0.3,0.5,0.3c0.1,0,0.2,0.1,0.2,0.2c0,0.1,0.2,0.2,0.5,0.2c0.4,0,0.5,0.1,0.5,0.5c0,0.3,0.1,0.5,0.2,0.5
		c1.1-0.2,1.9,0.1,1.9,0.5c0,0.5,0.1,0.5,1,0.5s1,0,1,0.5c0,0.4,0.1,0.5,0.6,0.5c0.4,0,0.6,0.1,0.5,0.2c-0.1,0.1,0,0.2,0.2,0.2
		c0.2,0,0.3,0.1,0.3,0.3c0,0.2,0.2,0.3,0.7,0.3c0.6,0,0.7,0.1,0.8,0.5c0.1,0.5,0.1,0.5,1.3,0.5c0.6,0,0.7,0.1,0.8,0.5
		c0.1,0.4,0.2,0.5,1,0.5c0.9,0.1,1,0.1,1,0.6c0,0.4,0.1,0.5,0.5,0.5c0.3,0,0.6,0.1,0.8,0.3c0.2,0.2,0.4,0.3,0.5,0.3
		c0.1,0,0.2,0.1,0.2,0.2c0,0.1,0.2,0.2,0.5,0.2c0.3,0,0.5,0.2,0.7,0.5c0.2,0.4,0.4,0.5,1.1,0.5c0.8,0.1,0.9,0.1,0.9,0.6
		c0,0.5,0.1,0.5,1,0.5c0.9,0,1,0,1,0.5c0,0.4,0.1,0.5,0.6,0.5c0.4,0,0.6,0.1,0.5,0.3c-0.1,0.4,0.5,0.7,1.3,0.7
		c0.5,0,0.6,0.1,0.6,0.5c0,0.3,0.1,0.5,0.2,0.5c1-0.2,1.8,0.1,1.9,0.5c0.1,0.4,0.2,0.5,1,0.5c0.9,0.1,1,0.1,1,0.6
		c0,0.4,0.1,0.5,0.6,0.5c0.4,0,0.6,0.1,0.5,0.3c-0.1,0.4,0.5,0.7,1.3,0.7c0.5,0,0.6,0.1,0.6,0.5c0,0.5,0.1,0.5,1,0.5
		c0.9,0,1,0,1,0.5c0,0.4,0.1,0.5,0.6,0.5c0.4,0,0.6,0.1,0.5,0.2c-0.1,0.1,0,0.2,0.2,0.2s0.3,0.1,0.3,0.3c0,0.2,0.1,0.3,0.2,0.3
		c0.5-0.1,1.3,0.1,1.5,0.3c0.2,0.2,0.4,0.3,0.5,0.3c0.1,0,0.2,0.1,0.2,0.2s0.2,0.2,0.5,0.2c0.4,0,0.5,0.1,0.5,0.5
		c0,0.5,0.1,0.5,1,0.5c0.9,0,1,0,1,0.5c0,0.4,0.1,0.5,0.5,0.5c0.3,0,0.6,0.1,0.8,0.3c0.2,0.2,0.4,0.3,0.5,0.3c0.1,0,0.2,0.1,0.2,0.2
		s0.2,0.2,0.5,0.2c0.4,0,0.5,0.1,0.6,0.5c0,0.3,0.2,0.5,0.5,0.5l0.5,0.1v32.9v32.9l-0.5,0.1c-0.3,0-0.5,0.2-0.5,0.5
		c-0.1,0.4-0.2,0.5-0.8,0.5c-1.1,0-1.2,0.1-1.2,0.4c-0.1,0.5-0.1,0.5-0.8,0.6c-0.6,0.1-1.3,0.6-1.2,0.8c0,0.1-0.2,0.2-0.5,0.2
		c-0.5,0-0.6,0.1-0.6,0.5c0,0.5-0.1,0.5-1,0.5c-0.9,0-1,0-1,0.5c0,0.4-0.1,0.5-0.5,0.5c-0.5,0-1.2,0.5-1,0.8
		c0.1,0.1-0.3,0.2-0.7,0.2c-0.5,0-1,0.2-1.3,0.6c-0.3,0.3-0.7,0.5-1,0.5c-0.4,0-0.5,0.1-0.5,0.5c0,0.4-0.1,0.5-0.9,0.6
		c-0.7,0-0.9,0.2-1.1,0.5c-0.1,0.3-0.4,0.5-0.9,0.5c-1.1,0-1.1,0.1-1.2,0.4c-0.1,0.5-0.1,0.5-0.8,0.6c-0.6,0.1-1.3,0.6-1.2,0.8
		c0.1,0.1-0.6,0.2-1,0.2c-0.1,0-0.1,0-0.1,0.1c0.1,0.7-0.1,0.8-1,0.9c-0.8,0.1-1,0.1-1,0.5c0,0.3-0.2,0.5-0.5,0.5
		c-0.2,0-0.6,0.1-0.7,0.3c-0.2,0.2-0.2,0.2-0.1,0c0.2-0.3-0.1-0.3-0.4,0c-0.3,0.3-0.3,0.6,0,0.4c0.2-0.1,0.2-0.1,0.1,0.1
		c-0.1,0.1-0.4,0.2-0.7,0.3c-0.3,0-0.5,0.2-0.6,0.5c-0.1,0.4-0.2,0.5-1,0.5c-0.8,0.1-1,0.1-1,0.5c-0.1,0.4-0.2,0.5-1,0.5
		c-0.8,0.1-1,0.1-1,0.5c0,0.3-0.2,0.5-0.5,0.5c-0.2,0-0.6,0.1-0.7,0.3c-0.2,0.2-0.2,0.2-0.1,0c0.2-0.3-0.1-0.3-0.4,0
		c-0.3,0.3-0.3,0.6,0,0.4c0.1-0.1,0.2-0.1,0.1,0.1c-0.1,0.1-0.4,0.2-0.7,0.2c-0.5,0-0.6,0.1-0.6,0.5c0,0.5-0.8,0.7-1.9,0.5
		c-0.1,0-0.1,0-0.1,0.1c0.1,0.6-0.1,0.9-0.7,0.9c-0.5,0-0.6,0.1-0.5,0.3c0.1,0.2,0,0.3-0.2,0.2c-0.2-0.1-0.3,0-0.2,0.2
		c0.1,0.2-0.1,0.3-0.7,0.3c-1.3,0.1-1.6,0.2-1.7,0.4c0,0.1,0,0.3-0.1,0.4s-0.3,0.2-0.5,0.2c-0.4,0-0.5,0.1-0.5,0.5
		c0,0.5-0.1,0.5-1,0.5s-1,0-1,0.5c0,0.4-0.1,0.5-0.7,0.5c-1.1,0-1.2,0.1-1.2,0.4c-0.1,0.5-0.1,0.5-0.8,0.6c-0.6,0.1-1.3,0.6-1.2,0.8
		c0,0.1-0.2,0.2-0.5,0.2c-0.5,0-0.6,0.1-0.6,0.5c0,0.4-0.1,0.5-0.7,0.5c-0.6,0-1.2,0.3-1.4,0.8c0,0.1-0.5,0.2-1,0.3
		c-0.7,0.1-0.9,0.2-0.9,0.4c-0.1,0.5-0.1,0.5-0.8,0.6c-0.6,0.1-1.3,0.6-1.2,0.8c0,0.1-0.2,0.2-0.5,0.2c-0.5,0-0.6,0.1-0.6,0.5
		c0,0.4-0.1,0.5-0.7,0.5c-0.7,0-1.3,0.4-1.3,0.8c0,0.1-0.3,0.2-0.6,0.2c-0.5,0-0.6,0.1-0.5,0.3c0.1,0.2,0,0.3-0.2,0.2
		c-0.2-0.1-0.3,0-0.2,0.2c0.1,0.2,0,0.3-0.3,0.3c-0.2,0-0.4-0.1-0.4-0.2s-0.1-0.2-0.3-0.2s-0.3-0.1-0.3-0.3c0-0.1-0.3-0.3-0.6-0.3
		c-0.8-0.1-1-0.2-0.9-0.6c0.1-0.4,0-0.4-0.9-0.4c-0.9,0-1-0.1-1-0.5c-0.1-0.4-0.2-0.5-1-0.5c-0.9-0.1-1-0.1-1-0.5
		c0-0.4-0.1-0.5-0.6-0.5c-0.4,0-0.6-0.2-0.6-0.5c0-0.3-0.2-0.4-0.9-0.5c-0.8-0.1-1.3-0.3-1.1-0.7c0.1-0.2-0.6-0.4-1.4-0.4
		c-0.5,0-0.6-0.1-0.6-0.5c0-0.5-0.1-0.5-1-0.5c-0.9,0-1-0.1-1.1-0.4c0-0.3-0.3-0.5-0.6-0.6c-0.3-0.1-0.5-0.3-0.5-0.5
		c0-0.3-0.2-0.4-0.9-0.5c-1-0.1-1-0.1-1.1-0.6c0-0.3-0.3-0.4-1-0.4c-0.9-0.1-1.1-0.2-1-0.9c0-0.1-0.2-0.2-0.5-0.2
		c-0.3,0-0.5-0.1-0.5-0.2s-0.1-0.2-0.3-0.2c-0.2,0-0.3-0.1-0.3-0.3c0-0.2-0.1-0.3-0.2-0.3c-0.6,0.1-1.7-0.1-1.7-0.2
		c0-0.4-0.6-0.8-1.1-0.8c-0.4,0-0.5-0.1-0.5-0.5c0-0.5-0.1-0.5-1-0.5c-0.9,0-1,0-1-0.5c0-0.4-0.1-0.5-0.5-0.5
		c-0.3,0-0.5-0.1-0.5-0.2s-0.1-0.2-0.3-0.2s-0.3-0.1-0.3-0.3c0-0.1-0.3-0.3-0.6-0.3c-0.7-0.1-0.9-0.1-0.9-0.6c0-0.4-0.1-0.4-1.2-0.4
		c-0.6,0-0.7-0.1-0.7-0.5c0-0.5-0.1-0.5-1-0.5s-1,0-1-0.5c0-0.4-0.1-0.5-0.5-0.5c-0.3,0-0.5-0.1-0.5-0.2s-0.1-0.2-0.3-0.2
		s-0.3-0.1-0.3-0.3s-0.1-0.3-0.2-0.2c-0.4,0.3-1.3-0.2-1.3-0.7c0-0.4-0.1-0.4-1-0.4c-0.9,0-1,0-1-0.5c0-0.5-0.1-0.5-1-0.5
		c-0.9,0-1-0.1-1.1-0.5c-0.1-0.4-0.2-0.5-1-0.5c-0.8-0.1-1-0.1-1-0.5c0-0.3-0.3-0.5-0.6-0.6c-0.4-0.1-0.5-0.2-0.5-0.6
		c0-0.4-0.1-0.4-0.9-0.4c-0.9,0-1-0.1-1.1-0.5c-0.1-0.4-0.2-0.5-1-0.5c-0.8,0-0.9-0.1-1-0.5c0-0.3-0.2-0.5-0.5-0.5
		c-0.3,0-0.5-0.1-0.5-0.3c0-0.1-0.1-0.2-0.3-0.2c-0.2,0-0.3-0.1-0.3-0.3c0-0.1-0.3-0.3-0.6-0.3c-0.6,0-1-0.4-0.9-0.7
		c0.1-0.2-0.6-0.4-1.4-0.4c-0.4,0-0.6-0.1-0.6-0.5c-0.1-0.4-0.2-0.5-1-0.5c-0.8-0.1-1-0.1-1-0.5c0-0.3-0.3-0.5-0.6-0.6
		c-0.3-0.1-0.5-0.3-0.5-0.5c0-0.4-0.1-0.4-1.2-0.5c-0.6,0-0.7-0.1-0.7-0.5c0-0.4-0.1-0.5-0.5-0.5h-0.5v-33.1c0-32.6,0-33.1,0.4-33.1
		c0.3,0.1,0.4,0,0.3-0.3c-0.1-0.3,0-0.4,0.6-0.4c0.6,0,0.7-0.1,0.7-0.5c0-0.4,0.1-0.5,1-0.6c0.8-0.1,1-0.1,1-0.5
		c0-0.3,0.2-0.5,0.6-0.5c0.3,0,0.7-0.2,1-0.5c0.3-0.3,0.7-0.5,1-0.5c0.4,0,0.5-0.1,0.5-0.5c0-0.5,0.1-0.5,1-0.5c0.9,0,1,0,1-0.5
		c0-0.4,0.1-0.5,1-0.6c0.8-0.1,1-0.1,1-0.5c0-0.3,0.2-0.5,0.6-0.5c0.3,0,0.5,0,0.6,0c0.2,0,0.8-0.7,0.8-0.9c0-0.1,0.2-0.2,0.6-0.2
		c0.8,0,1.3-0.2,1.3-0.5c0-0.1-0.2-0.1-0.4,0.1c-0.3,0.3-0.3,0.2-0.1-0.1c0.2-0.2,0.4-0.3,0.5-0.2c0.1,0.1,0.2,0,0.2-0.1
		c0-0.1,0.2-0.2,0.5-0.2c0.4,0,0.5-0.1,0.5-0.5c0-0.4,0.1-0.5,1-0.6c0.8-0.1,1-0.1,1-0.5c0-0.3,0.2-0.5,0.6-0.5
		c0.3,0,0.5-0.1,0.5-0.2c0-0.1,0.2-0.2,0.4-0.1c0.3,0.1,0.4,0,0.3-0.3c-0.1-0.3,0-0.4,0.7-0.4c0.9,0,1.4-0.2,1.4-0.5
		c0-0.1-0.2-0.1-0.4,0.1c-0.3,0.3-0.3,0.2-0.1-0.1c0.2-0.2,0.4-0.3,0.5-0.2c0.1,0.1,0.2,0,0.2-0.1c0-0.1,0.2-0.2,0.5-0.3
		c0.3,0,0.5-0.2,0.5-0.5c0.1-0.4,0.5-0.6,1.8-0.5c0.1,0,0.2-0.1,0.2-0.2c-0.2-0.3,0.2-0.8,0.6-0.8c0.3,0,0.5-0.1,0.5-0.2
		c0-0.1,0.2-0.2,0.4-0.1c0.3,0.1,0.4,0,0.3-0.3c-0.1-0.3,0-0.4,0.6-0.4c0.6,0,0.7-0.1,0.7-0.5c0-0.4,0.1-0.5,1-0.6
		c0.8-0.1,1-0.1,1-0.5c0-0.3,0.2-0.5,0.6-0.5c0.3,0,0.7-0.2,1-0.5c0.3-0.3,0.7-0.5,1-0.5c0.3,0,0.5-0.1,0.5-0.2
		c0-0.1,0.2-0.2,0.4-0.1c0.3,0.1,0.4,0,0.3-0.3c-0.1-0.3,0-0.4,0.6-0.4c0.6,0,0.7-0.1,0.7-0.5c0-0.5,0.1-0.5,1-0.5s1,0,1-0.5
		c0-0.4,0.1-0.5,0.5-0.5c0.3,0,0.6,0,0.6,0c0.2,0,0.8-0.7,0.8-0.9c0-0.1,0.2-0.2,0.5-0.2c0.3,0,0.6-0.1,0.6-0.2
		c0-0.1,0.2-0.2,0.4-0.1c0.3,0.1,0.4,0,0.3-0.3c-0.1-0.3,0-0.4,0.6-0.4c0.6,0,0.7-0.1,0.7-0.5c0-0.4,0.1-0.5,1-0.6
		c0.8-0.1,1-0.1,1-0.5c0.1-0.4,0.2-0.5,0.8-0.5c1.1,0,1.2-0.1,1.2-0.3c0-0.1,0-0.3,0.1-0.5c0-0.1,0.3-0.2,0.5-0.2
		c0.4,0,0.5-0.1,0.5-0.5c0-0.5,0.1-0.5,1-0.5s1,0,1-0.5c0-0.5,0.1-0.5,1-0.5s1,0,1-0.5c0-0.4,0.1-0.5,0.7-0.5c1.1,0,1.2-0.1,1.2-0.3
		c0-0.1,0-0.3,0.1-0.5c0-0.1,0.3-0.2,0.5-0.2c0.4,0,0.5-0.1,0.5-0.5c0-0.5,0.1-0.5,1-0.5s1,0,1-0.5C99.3,36,100.3,35.9,100.8,36.4
		 M93.7,58.8c-0.3,0.3-0.3,0.5,0.1,0.5c0.2,0,0.4-0.2,0.4-0.4C94.3,58.5,94.1,58.4,93.7,58.8"/>
	<path id="path3" class="st2" d="M96,58c-0.2,0.3-0.4,0.5-0.3,0.5c0.2,0,0.9-0.8,0.8-0.9C96.4,57.6,96.2,57.8,96,58 M104.4,58.3
		c0,0.1,0.2,0.2,0.5,0.2c0.4,0,0.4,0,0.2-0.2C104.6,58.1,104.4,58.1,104.4,58.3 M111.5,62.4c0,0.1,0.2,0.2,0.5,0.2
		c0.4,0,0.4,0,0.2-0.2C111.7,62.1,111.5,62.1,111.5,62.4 M137.7,77.2c0,0.2,0.1,0.4,0.3,0.4c0.5,0.2,0.5,0,0.1-0.4
		C137.8,77,137.7,77,137.7,77.2 M62.8,127.3c0.1,0.2,0.1,0.4,0.1,0.4c0,0,0.1,0.1,0.2,0.1c0.1,0,0.1-0.2,0.1-0.4
		c-0.1-0.2-0.2-0.4-0.3-0.4C62.8,127,62.8,127.2,62.8,127.3 M84,139.3c0,0.4,0.4,0.7,0.4,0.3c0-0.3-0.1-0.5-0.2-0.5
		C84.1,139.1,84,139.2,84,139.3 M102.4,147.5c0,0.2-0.2,0.4-0.4,0.5c-0.2,0.1-0.3,0.2-0.1,0.2c0.1,0,0.5-0.2,0.8-0.5
		c0.5-0.5,0.5-0.5,0.1-0.5C102.5,147.2,102.4,147.4,102.4,147.5 M-1.1,0.3"/>
	<path id="path4" class="st3" d="M53.3,16.4c-0.1,0.2-0.2,0.4-0.1,0.4c0.1,0.1,0.7-0.3,0.7-0.6C53.9,16,53.5,16,53.3,16.4
		 M146.8,16.6c0.1,0.3,0.2,0.5,0.5,0.5c0.5,0,0.4-0.4-0.2-0.7C146.7,16.1,146.7,16.1,146.8,16.6 M149,17.7c0,0.2,0.1,0.4,0.3,0.4
		c0.2,0,0.3-0.1,0.3-0.2s-0.1-0.3-0.3-0.4C149.1,17.3,149,17.3,149,17.7 M47.4,21.6c-0.4,0.4-0.3,0.6,0.2,0.6c0.3,0,0.4-0.1,0.4-0.4
		C48,21.3,47.8,21.2,47.4,21.6 M46.2,23.5C46,23.6,46,23.8,46,23.9c0.1,0.1,0.7-0.3,0.7-0.6C46.8,23,46.5,23.1,46.2,23.5 M45.2,25.3
		c-0.2,0.2-0.1,0.7,0.1,0.8c0.2,0.1,0.2,0,0.1-0.2c-0.1-0.2,0-0.3,0.2-0.2c0.2,0.1,0.3,0,0.2-0.1C45.8,25.3,45.3,25.1,45.2,25.3
		 M154.9,25.8c0,0.3,0.1,0.4,0.4,0.4c0.5,0,0.5-0.2,0.2-0.6C155.1,25.3,154.9,25.3,154.9,25.8 M156.1,27.4c0,0.1,0.1,0.2,0.2,0.2
		s0.2,0.1,0.2,0.3c0,0.2,0.1,0.3,0.2,0.3c0.2,0,0.2-0.4-0.1-0.8C156.5,27.1,156.1,27.1,156.1,27.4 M39.4,35.7
		c-0.5,0.6-0.4,0.7,0.1,0.6c0.3-0.1,0.5-0.2,0.5-0.5C39.9,35.4,39.7,35.4,39.4,35.7 M100.5,36.5c0,0.2,0.4,0.5,0.8,0.5
		c0.1,0,0.3,0,0.3-0.1c0-0.1-0.1-0.2-0.3-0.2c-0.2,0-0.3-0.1-0.3-0.2s-0.1-0.2-0.2-0.2S100.5,36.4,100.5,36.5 M97.3,37.5
		c0,0.5,0.2,0.5,0.6,0.2c0.4-0.4,0.3-0.6-0.2-0.6C97.4,37.1,97.3,37.2,97.3,37.5 M107.6,40.5c0,0.2,0.4,0.5,0.8,0.5
		c0.1,0,0.3,0,0.3-0.1c0-0.1-0.1-0.2-0.3-0.2s-0.3-0.1-0.3-0.2s-0.1-0.2-0.2-0.2S107.6,40.4,107.6,40.5 M36.3,40.8
		c-0.4,0.4-0.3,0.6,0.2,0.6c0.3,0,0.4-0.1,0.4-0.4C36.9,40.5,36.7,40.4,36.3,40.8 M90.2,41.5c0,0.5,0.2,0.5,0.6,0.2
		c0.4-0.4,0.3-0.6-0.2-0.6C90.4,41.1,90.2,41.3,90.2,41.5 M35.1,42.7c-0.1,0.2-0.2,0.4-0.1,0.4c0.1,0.1,0.7-0.3,0.7-0.6
		C35.7,42.2,35.3,42.3,35.1,42.7 M85.2,44.6c0,0.5,0.2,0.5,0.6,0.2c0.4-0.4,0.3-0.6-0.2-0.6C85.3,44.2,85.2,44.3,85.2,44.6
		 M114.7,44.6c0,0.2,0.4,0.5,0.8,0.5c0.1,0,0.3,0,0.3-0.1c0-0.1-0.1-0.2-0.3-0.2c-0.2,0-0.3-0.1-0.3-0.2s-0.1-0.2-0.2-0.2
		C114.8,44.4,114.7,44.5,114.7,44.6 M166,45c0,0.3,0.1,0.4,0.4,0.4c0.5,0,0.5-0.2,0.2-0.6C166.2,44.5,166,44.5,166,45 M83.9,45.4
		c0.1,0.2-0.4,0.7-0.6,0.5c-0.1-0.1-0.1,0-0.1,0.1c0,0.3,0.4,0.3,0.7-0.1c0.3-0.3,0.4-0.7,0.1-0.7C83.8,45.2,83.8,45.3,83.9,45.4
		 M119.9,47.4c0,0.2,0.4,0.6,0.6,0.6c0.1,0,0.2-0.2,0.2-0.4c0-0.3-0.1-0.4-0.4-0.4C120.1,47.2,119.9,47.3,119.9,47.4 M76.8,49.4
		c0.1,0.2-0.4,0.7-0.6,0.5c-0.1-0.1-0.1,0-0.1,0.1c0,0.3,0.4,0.3,0.7-0.1c0.3-0.3,0.4-0.7,0.1-0.7C76.8,49.2,76.7,49.3,76.8,49.4
		 M74.5,50.7c-0.3,0.4-0.3,0.5,0.1,0.4c0.2,0,0.4-0.2,0.4-0.4C75.1,50.4,74.9,50.3,74.5,50.7 M127,51.4c0,0.2,0.4,0.6,0.6,0.6
		c0.1,0,0.2-0.2,0.2-0.4c0-0.3-0.1-0.4-0.4-0.4C127.2,51.2,127,51.3,127,51.4 M128.8,52.6c0,0.2,0.4,0.5,0.8,0.5
		c0.1,0,0.3,0,0.3-0.1c0-0.1-0.1-0.2-0.3-0.2c-0.2,0-0.3-0.1-0.3-0.2c0-0.1-0.1-0.2-0.2-0.2S128.8,52.5,128.8,52.6 M29.3,52.9
		c-0.4,0.4-0.3,0.6,0.2,0.6c0.3,0,0.4-0.1,0.4-0.4C29.8,52.6,29.6,52.5,29.3,52.9 M69.7,53.4c0.1,0.2-0.4,0.7-0.6,0.5
		c-0.1-0.1-0.1,0-0.1,0.1c0,0.3,0.4,0.3,0.7-0.1c0.3-0.3,0.4-0.7,0.1-0.7C69.7,53.3,69.7,53.3,69.7,53.4 M100,55.9
		c-0.4,0.4-0.3,0.6,0.5,0.6c0.4,0,0.7-0.1,0.7-0.2c0-0.2-0.4-0.6-0.7-0.6C100.3,55.7,100.1,55.8,100,55.9 M62.6,57.5
		c0.1,0.2-0.4,0.7-0.6,0.5c-0.1-0.1-0.1,0-0.1,0.1c0,0.3,0.4,0.3,0.7-0.1c0.3-0.3,0.4-0.7,0.1-0.7C62.6,57.3,62.6,57.4,62.6,57.5
		 M104.8,57.8c0,0.2,0.1,0.3,0.3,0.3c0.4,0,0.3-0.4-0.1-0.6C104.9,57.5,104.8,57.6,104.8,57.8 M139.2,58.5c0.2,0.6,0.9,0.8,0.8,0.3
		c-0.1-0.3-0.2-0.5-0.5-0.5C139.3,58.3,139.1,58.4,139.2,58.5 M106.4,59.1c0,0.3,0.1,0.4,0.4,0.4c0.5,0,0.5-0.2,0.2-0.6
		C106.6,58.6,106.4,58.7,106.4,59.1 M174.1,59.1c0,0.3,0.1,0.4,0.4,0.4c0.5,0,0.5-0.2,0.2-0.6C174.3,58.6,174.1,58.7,174.1,59.1
		 M141.2,59.5c0,0.2,0.4,0.6,0.6,0.6c0.1,0,0.2-0.2,0.2-0.4c0-0.3-0.1-0.4-0.4-0.4C141.3,59.3,141.2,59.4,141.2,59.5 M91.8,59.8
		c-0.2,0.2-0.3,0.4-0.3,0.5c0,0.3,0.5,0.2,0.8-0.1c0.3-0.3,0.3-0.8,0.1-0.8C92.2,59.5,91.9,59.7,91.8,59.8 M108.2,59.7
		c0.1,0.1,0.3,0.3,0.3,0.5c0,0.3,0.1,0.4,0.4,0.4c0.2,0,0.4-0.1,0.4-0.2c0-0.2-0.8-0.8-1.1-0.8C108,59.5,108,59.6,108.2,59.7
		 M25.1,60.2c-0.4,0.5-0.3,0.6,0.2,0.4c0.3-0.1,0.4-0.3,0.4-0.5C25.8,59.6,25.5,59.6,25.1,60.2 M110,60.7c0,0.4,0.4,0.7,0.4,0.3
		c0-0.3-0.1-0.5-0.2-0.5S110,60.6,110,60.7 M24,61.9c-0.1,0.2-0.2,0.4-0.1,0.4c0.1,0.1,0.7-0.3,0.7-0.6C24.6,61.4,24.2,61.5,24,61.9
		 M88.4,62c0,0.3,0,0.4,0.2,0.2c0.1-0.2,0.3-0.4,0.5-0.5c0.2-0.1,0.2-0.2-0.2-0.2C88.5,61.5,88.4,61.7,88.4,62 M111.9,61.8
		c0,0.2,0.1,0.3,0.3,0.3c0.4,0,0.3-0.4-0.1-0.6C112,61.5,111.9,61.7,111.9,61.8 M146.2,62.5c0,0.2,0.4,0.6,0.6,0.6
		c0.1,0,0.2-0.2,0.2-0.4c0-0.3-0.1-0.4-0.4-0.4C146.4,62.4,146.2,62.4,146.2,62.5 M86.6,62.8c-0.1,0.1-0.2,0.4-0.2,0.5
		c0,0.3,0.4,0.3,0.8,0c0.3-0.3,0.3-0.8,0-0.8C87,62.6,86.8,62.7,86.6,62.8 M113.4,63.1c0.1,0.3,0.2,0.5,0.5,0.5
		c0.5,0,0.4-0.4-0.2-0.7C113.4,62.6,113.3,62.6,113.4,63.1 M84.7,63.9c-0.2,0.2-0.3,0.4-0.3,0.5c0,0.3,0.5,0.2,0.8-0.1
		c0.3-0.3,0.3-0.8,0.1-0.8C85.1,63.6,84.9,63.7,84.7,63.9 M177.1,64.1c0,0.3,0.2,0.4,0.5,0.5c0.5,0.1,0.5,0.1,0.2-0.3
		C177.5,63.7,177.1,63.7,177.1,64.1 M49.8,64.8c0,0.5,0.2,0.5,0.6,0.2c0.4-0.4,0.3-0.6-0.2-0.6C50,64.4,49.8,64.5,49.8,64.8
		 M117.1,64.7c0,0.4,0.4,0.7,0.4,0.3c0-0.3-0.1-0.5-0.2-0.5S117.1,64.6,117.1,64.7 M150.1,64.8c0,0.2,0.4,0.5,0.8,0.5
		c0.1,0,0.3,0,0.3-0.1c0-0.1-0.1-0.2-0.3-0.2c-0.2,0-0.3-0.1-0.3-0.2s-0.1-0.2-0.2-0.2S150.1,64.7,150.1,64.8 M48.3,65.9
		c-0.3,0.4-0.3,0.5,0.1,0.4c0.2,0,0.4-0.2,0.4-0.4C48.8,65.5,48.6,65.5,48.3,65.9 M118.6,65.9c0.2,0.2,0.3,0.4,0.3,0.5
		c0,0.1,0.1,0.2,0.3,0.2c0.6,0,0.2-0.8-0.4-0.9C118.3,65.6,118.3,65.6,118.6,65.9 M79.6,66.8c-0.1,0.1-0.2,0.4-0.2,0.5
		c0,0.3,0.4,0.3,0.8,0c0.3-0.3,0.3-0.8,0-0.8C79.9,66.6,79.7,66.7,79.6,66.8 M21.2,67c-0.4,0.4-0.3,0.6,0.2,0.6
		c0.3,0,0.4-0.1,0.4-0.4C21.7,66.7,21.5,66.7,21.2,67 M120.6,67.2c0,0.3,0.1,0.4,0.4,0.4c0.5,0,0.5-0.2,0.2-0.6
		C120.8,66.7,120.6,66.7,120.6,67.2 M44.8,67.8c0,0.5,0.2,0.5,0.6,0.2s0.3-0.6-0.2-0.6C44.9,67.4,44.8,67.5,44.8,67.8 M155.1,67.8
		c0,0.2,0.4,0.5,0.8,0.5c0.1,0,0.3,0,0.3-0.1c0-0.1-0.1-0.2-0.3-0.2c-0.2,0-0.3-0.1-0.3-0.2s-0.1-0.2-0.2-0.2S155.1,67.7,155.1,67.8
		 M43.4,68.6c0.1,0.2-0.4,0.7-0.6,0.5c-0.1-0.1-0.1,0-0.1,0.1c0,0.3,0.4,0.3,0.7-0.1c0.3-0.3,0.4-0.7,0.1-0.7
		C43.4,68.4,43.4,68.5,43.4,68.6 M124.2,68.8c0,0.4,0.4,0.7,0.4,0.3c0-0.3-0.1-0.5-0.2-0.5S124.2,68.7,124.2,68.8 M74.3,70.2
		c0,0.4,0,0.4,0.3,0.3c0.6-0.3,0.7-0.8,0.2-0.8C74.5,69.7,74.3,69.9,74.3,70.2 M125.6,69.9c0,0.3,0.4,0.7,0.7,0.7
		c0.4,0,0.3-0.3-0.1-0.7C125.9,69.6,125.6,69.5,125.6,69.9 M72.4,70.8c-0.3,0.3-0.1,0.9,0.2,0.7c0.5-0.2,0.8-0.9,0.3-0.9
		C72.7,70.6,72.5,70.7,72.4,70.8 M127.8,71.2c-0.1,0.3,0,0.4,0.3,0.4c0.5,0,0.5-0.3,0.1-0.6C127.9,70.9,127.9,70.9,127.8,71.2
		 M181.2,71.2c0,0.3,0.2,0.4,0.5,0.5c0.5,0.1,0.5,0.1,0.2-0.3C181.5,70.8,181.2,70.7,181.2,71.2 M70.9,72c-0.5,0.4-0.6,0.7-0.1,0.7
		c0.2,0,0.4-0.2,0.5-0.5c0.1-0.3,0.1-0.5,0.1-0.5C71.3,71.6,71.1,71.8,70.9,72 M131.1,72.9c0.1,0.4,0.6,0.4,0.6,0.1
		c0-0.2-0.1-0.3-0.3-0.3C131.2,72.7,131.1,72.8,131.1,72.9 M67.3,74c-0.2,0.6,0,0.7,0.5,0.2l0.5-0.5h-0.4
		C67.6,73.7,67.3,73.8,67.3,74 M132.7,73.8c0,0.3,0.5,0.9,0.7,0.9c0.4,0,0.4-0.3,0-0.7C133.1,73.7,132.7,73.6,132.7,73.8 M17.1,74.1
		c-0.5,0.6-0.4,0.7,0.1,0.6c0.3-0.1,0.5-0.2,0.5-0.5C17.7,73.8,17.4,73.8,17.1,74.1 M65.5,75c-0.4,0.4-0.4,0.7,0,0.7
		c0.5-0.1,1-1,0.6-1C66,74.7,65.7,74.8,65.5,75 M63.8,76c-0.5,0.4-0.6,0.7-0.1,0.7c0.2,0,0.5-0.2,0.6-0.5
		C64.6,75.6,64.4,75.6,63.8,76 M62.3,76.8c-0.3,0.3-0.1,0.7,0.2,0.4c0.2-0.2,0.4-0.4,0.4-0.4C63,76.8,62.4,76.8,62.3,76.8 M138.1,77
		c0,0.2,0.1,0.3,0.3,0.3c0.4,0,0.3-0.4-0.1-0.6C138.2,76.7,138.1,76.8,138.1,77 M60.4,78c-0.1,0.1-0.2,0.4-0.2,0.5
		c0,0.3,0.4,0.3,0.8,0c0.3-0.3,0.3-0.8,0-0.8C60.7,77.7,60.5,77.8,60.4,78 M185.2,78.3c0,0.3,0.1,0.4,0.4,0.4c0.5,0,0.5-0.2,0.2-0.6
		C185.4,77.8,185.2,77.9,185.2,78.3 M12.8,81.1c-0.1,0.2-0.2,0.4-0.1,0.4c0.1,0.1,0.7-0.3,0.7-0.6C13.4,80.6,13.1,80.7,12.8,81.1
		 M189.3,85.3c0,0.3,0.2,0.4,0.5,0.5c0.5,0.1,0.5,0.1,0.2-0.3C189.6,85,189.3,84.9,189.3,85.3 M10.1,86.2c-0.4,0.4-0.3,0.6,0.2,0.6
		c0.3,0,0.4-0.1,0.4-0.4C10.6,85.9,10.4,85.9,10.1,86.2 M193.5,92.1c0,0.1,0.1,0.2,0.2,0.2s0.2,0.1,0.2,0.3c0,0.2,0.1,0.3,0.2,0.3
		c0.2,0,0.2-0.4-0.1-0.8C193.8,91.8,193.5,91.8,193.5,92.1 M4.8,95.2c-0.1,0.2-0.2,0.4-0.1,0.4c0.1,0.1,0.7-0.3,0.7-0.6
		C5.4,94.8,5,94.9,4.8,95.2 M2.7,103.9c0,0.2,0.4,0.6,0.6,0.6c0.1,0,0.2-0.2,0.2-0.4c0-0.3-0.1-0.4-0.4-0.4
		C2.9,103.8,2.7,103.9,2.7,103.9 M3.5,107.2c0,0.2,0.4,0.5,0.8,0.5c0.1,0,0.3,0,0.3-0.1c0-0.1-0.1-0.2-0.3-0.2S4,107.3,4,107.2
		S3.9,107,3.7,107C3.6,107,3.5,107.1,3.5,107.2 M192.7,113.4c-0.3,0.4-0.3,0.5,0.1,0.4c0.2,0,0.4-0.2,0.4-0.4
		C193.3,113,193.1,113,192.7,113.4 M7.8,114c0,0.2,0.4,0.6,0.6,0.6c0.1,0,0.2-0.2,0.2-0.4c0-0.3-0.1-0.4-0.4-0.4
		C8,113.9,7.8,114,7.8,114 M190.3,117.3c0,0.5,0.2,0.5,0.6,0.2c0.4-0.4,0.3-0.6-0.2-0.6C190.4,116.9,190.3,117,190.3,117.3
		 M10.6,119.3c0,0.2,0.4,0.5,0.8,0.5c0.1,0,0.3,0,0.3-0.1c0-0.1-0.1-0.2-0.3-0.2c-0.2,0-0.3-0.1-0.3-0.2s-0.1-0.2-0.2-0.2
		C10.7,119.1,10.6,119.2,10.6,119.3 M188.7,120.4c-0.3,0.4-0.3,0.5,0.1,0.4c0.2,0,0.4-0.2,0.4-0.4
		C189.2,120.1,189,120.1,188.7,120.4 M186.2,124.4c0,0.5,0.2,0.5,0.6,0.2c0.4-0.4,0.3-0.6-0.2-0.6
		C186.4,124,186.2,124.1,186.2,124.4 M60.3,126.2c0,0.2,0.4,0.6,0.6,0.6c0.1,0,0.2-0.2,0.2-0.4c0-0.3-0.1-0.4-0.4-0.4
		C60.5,126,60.3,126.1,60.3,126.2 M137.9,127.1c-0.3,0.5-0.1,0.9,0.3,0.6c0.5-0.4,0.5-0.7,0.1-0.7C138.1,127,137.9,127,137.9,127.1
		 M62.2,127.7c0.1,0.4,0.6,0.4,0.6,0.1c0-0.2-0.1-0.3-0.3-0.3C62.3,127.4,62.2,127.5,62.2,127.7 M135.8,128.5
		c-0.3,0.4-0.3,0.5,0,0.5c0.4,0,0.8-0.3,0.8-0.7C136.7,127.9,136.2,128,135.8,128.5 M134.7,129.2c0,0.1-0.1,0.4-0.3,0.5
		c-0.3,0.3-0.3,0.3,0,0.3c0.3,0,0.6-0.8,0.4-1C134.7,129,134.7,129.1,134.7,129.2 M183.2,129.4c0,0.5,0.2,0.5,0.6,0.2
		c0.4-0.4,0.3-0.6-0.2-0.6C183.3,129,183.2,129.2,183.2,129.4 M67.4,130.2c0,0.2,0.4,0.6,0.6,0.6c0.1,0,0.2-0.2,0.2-0.4
		c0-0.3-0.1-0.4-0.4-0.4C67.6,130,67.4,130.1,67.4,130.2 M69.2,131.4c0,0.2,0.1,0.5,0.3,0.6c0.5,0.2,0.6-0.1,0.1-0.6l-0.4-0.5V131.4
		 M130.8,131.4c-0.4,0.5,0.1,0.8,0.5,0.4c0.2-0.2,0.3-0.4,0.3-0.5C131.7,130.9,131.1,131,130.8,131.4 M17.7,131.5
		c0,0.2,0.4,0.5,0.8,0.5c0.1,0,0.3,0,0.3-0.1c0-0.1-0.1-0.2-0.3-0.2c-0.2,0-0.3-0.1-0.3-0.2c0-0.1-0.1-0.2-0.2-0.2
		S17.7,131.3,17.7,131.5 M129.1,132.2c0.1,0.1-0.1,0.3-0.3,0.5c-0.3,0.4-0.3,0.4,0.2,0.3c0.6-0.1,0.9-0.9,0.3-0.9
		C129.2,132.1,129.1,132.2,129.1,132.2 M71.2,132.6c0,0.3,0.1,0.4,0.3,0.4c0.3,0,0.3-0.1,0.1-0.4c-0.1-0.2-0.3-0.4-0.3-0.4
		C71.3,132.2,71.2,132.4,71.2,132.6 M19,133.3c0.4,0.6,0.7,0.7,0.7,0.2c0-0.3-0.2-0.4-0.5-0.5C18.7,132.9,18.7,133,19,133.3
		 M72.5,133.3c0.2,0.6,0.9,0.8,0.8,0.3c-0.1-0.3-0.2-0.5-0.5-0.5C72.6,133.1,72.5,133.2,72.5,133.3 M127.6,133.2
		c0,0.1-0.1,0.4-0.3,0.5c-0.3,0.3-0.3,0.3,0,0.3c0.3,0,0.6-0.8,0.4-1C127.7,133.1,127.6,133.1,127.6,133.2 M74.5,134.3
		c0,0.2,0.4,0.6,0.6,0.6c0.1,0,0.2-0.2,0.2-0.4c0-0.3-0.1-0.4-0.4-0.4C74.7,134.1,74.5,134.2,74.5,134.3 M76.3,135.5
		c0,0.2,0.1,0.5,0.3,0.6c0.5,0.2,0.6-0.1,0.1-0.6l-0.4-0.5V135.5 M123.8,135.3c-0.3,0.3-0.3,0.8-0.1,0.8c0.1,0,0.3-0.1,0.5-0.3
		c0.2-0.2,0.3-0.4,0.3-0.5C124.6,135,124.1,135.1,123.8,135.3 M122.4,136.4c0,0.2-0.2,0.4-0.5,0.5c-0.4,0.2-0.4,0.2,0.1,0.2
		c0.5,0,0.6-0.1,0.6-0.5c0-0.3,0-0.5-0.1-0.5S122.4,136.3,122.4,136.4 M179.2,136.5c0,0.5,0.2,0.5,0.6,0.2c0.4-0.4,0.3-0.6-0.2-0.6
		C179.3,136.1,179.2,136.2,179.2,136.5 M79.6,137.4c0.2,0.6,0.9,0.8,0.8,0.3c-0.1-0.3-0.2-0.5-0.5-0.5
		C79.7,137.1,79.5,137.2,79.6,137.4 M46.7,137.8c0.1,0.3,0.2,0.5,0.5,0.5c0.5,0,0.4-0.4-0.2-0.7C46.7,137.3,46.6,137.3,46.7,137.8
		 M81.4,138.4c0.1,0.4,0.7,0.8,0.9,0.6c0.2-0.2-0.2-0.8-0.6-0.9C81.4,138.1,81.3,138.2,81.4,138.4 M118.5,138.6
		c-0.1,0.5-0.1,0.5,0.3,0.2c0.6-0.4,0.7-0.7,0.2-0.7C118.7,138.1,118.5,138.3,118.5,138.6 M151.5,138.8c-0.4,0.4-0.3,0.6,0.2,0.6
		c0.3,0,0.4-0.1,0.4-0.4C152.1,138.5,151.9,138.4,151.5,138.8 M116.5,139.5c0,0.5,0.2,0.5,0.6,0.2c0.4-0.4,0.3-0.6-0.2-0.6
		C116.6,139.1,116.5,139.3,116.5,139.5 M83.4,139.8c0.1,0.4,0.6,0.4,0.6,0.1c0-0.2-0.1-0.3-0.3-0.3
		C83.5,139.5,83.4,139.7,83.4,139.8 M115,140.8c-0.3,0.4-0.3,0.4,0.1,0.4c0.3,0,0.4-0.1,0.4-0.4C115.5,140.3,115.5,140.3,115,140.8
		 M148.2,140.4c-0.2,0.2-0.1,0.7,0.1,0.8c0.2,0.1,0.2,0,0.2-0.2c-0.1-0.2,0-0.3,0.1-0.3c0.1,0,0.2-0.1,0.2-0.2
		C148.8,140.5,148.3,140.3,148.2,140.4 M53.8,141.9c0.1,0.3,0.2,0.5,0.5,0.5c0.5,0,0.4-0.4-0.2-0.7
		C53.7,141.4,53.7,141.4,53.8,141.9 M146.2,141.7c-0.1,0.2-0.2,0.4-0.1,0.4c0.1,0.1,0.7-0.3,0.7-0.6
		C146.8,141.3,146.5,141.3,146.2,141.7 M88.5,142.6c0,0.3,0.2,0.5,0.7,0.5c0.3,0,0.5,0,0.4-0.1c-0.1-0.1-0.2-0.2-0.2-0.3
		c0.1-0.1-0.1-0.3-0.4-0.4C88.4,142.2,88.4,142.2,88.5,142.6 M111.7,142.4c-0.4,0.6-0.5,0.8-0.2,0.8c0.3,0,0.9-0.5,0.9-0.8
		C112.5,142.1,111.9,142.1,111.7,142.4 M109.7,143.4c-0.3,0.3-0.3,0.8,0,0.8c0.1,0,0.4-0.1,0.5-0.2c0.1-0.1,0.2-0.4,0.2-0.5
		C110.4,143.1,110,143.1,109.7,143.4 M90.4,143.9c0,0.2,0.1,0.3,0.3,0.3c0.2,0,0.3-0.1,0.2-0.2C90.9,143.6,90.4,143.5,90.4,143.9
		 M58.9,144.9c0.1,0.3,0.2,0.5,0.5,0.5c0.5,0,0.4-0.4-0.2-0.7C58.8,144.4,58.8,144.4,58.9,144.9 M174.6,144.7
		c-0.3,0.4-0.3,0.5,0.1,0.4c0.2,0,0.4-0.2,0.4-0.4C175.1,144.3,174.9,144.3,174.6,144.7 M26,145.4c0,0.2,0.4,0.6,0.6,0.6
		c0.1,0,0.2-0.2,0.2-0.4c0-0.3-0.1-0.4-0.4-0.4C26.2,145.2,26,145.3,26,145.4 M93.7,145.4c0.2,0.6,0.9,0.8,0.8,0.3
		c-0.1-0.3-0.2-0.5-0.5-0.5C93.8,145.2,93.7,145.3,93.7,145.4 M60.9,145.9c0.1,0.3,0.2,0.5,0.5,0.5c0.5,0,0.4-0.4-0.2-0.7
		C60.8,145.4,60.8,145.4,60.9,145.9 M95.5,146.5c0,0.4,0.5,0.8,0.9,0.7c0.3-0.1,0.3-0.1,0-0.5C96,146.2,95.5,146.1,95.5,146.5
		 M104.3,146.7c-0.1,0.5-0.1,0.5,0.3,0.2c0.6-0.4,0.7-0.7,0.2-0.7C104.6,146.2,104.4,146.4,104.3,146.7 M173.8,146.4
		c0.1,0.2-0.4,0.7-0.6,0.5c-0.1-0.1-0.1,0-0.1,0.1c0,0.3,0.4,0.3,0.7-0.1c0.3-0.3,0.4-0.7,0.1-0.7
		C173.8,146.2,173.7,146.3,173.8,146.4 M172.1,148.6c0,0.5,0.2,0.5,0.6,0.2c0.4-0.4,0.3-0.6-0.2-0.6
		C172.2,148.2,172.1,148.4,172.1,148.6 M132.5,149.8c-0.5,0.4-0.6,0.7-0.1,0.7c0.2,0,0.4-0.2,0.5-0.5c0.1-0.3,0.1-0.5,0.1-0.5
		C133,149.4,132.8,149.6,132.5,149.8 M130.5,150.8c-0.5,0.4-0.6,0.7-0.1,0.7c0.2,0,0.4-0.2,0.5-0.5c0.1-0.3,0.1-0.5,0.1-0.5
		C131,150.5,130.7,150.6,130.5,150.8 M169,153.7c0,0.5,0.2,0.5,0.6,0.2c0.4-0.4,0.3-0.6-0.2-0.6C169.2,153.3,169,153.4,169,153.7
		 M78.3,155.7c0,0.1,0.1,0.2,0.2,0.2s0.2,0.1,0.2,0.3s0.1,0.3,0.2,0.3c0.2,0,0.2-0.4-0.1-0.8C78.7,155.5,78.3,155.4,78.3,155.7
		 M121.9,155.6c-0.2,0.2-0.1,0.7,0.1,0.8c0.2,0.1,0.2,0,0.1-0.2c-0.1-0.2,0-0.3,0.2-0.2c0.2,0.1,0.3,0,0.2-0.1
		C122.6,155.6,122.1,155.5,121.9,155.6 M33,157.5c0,0.2,0.4,0.6,0.6,0.6c0.1,0,0.2-0.2,0.2-0.4c0-0.3-0.1-0.4-0.4-0.4
		C33.2,157.3,33,157.4,33,157.5 M82.1,158.1c0.1,0.2,0.3,0.4,0.5,0.4c0.4,0,0.5-0.2,0.1-0.6C82.3,157.6,82,157.7,82.1,158.1
		 M118.2,158c-0.4,0.4-0.3,0.6,0.2,0.6c0.3,0,0.4-0.1,0.4-0.4C118.7,157.7,118.5,157.6,118.2,158 M165,160.8c0,0.5,0.2,0.5,0.6,0.2
		c0.4-0.4,0.3-0.6-0.2-0.6C165.1,160.4,165,160.5,165,160.8 M111.1,162c-0.4,0.4-0.3,0.6,0.2,0.6c0.3,0,0.4-0.1,0.4-0.4
		C111.7,161.7,111.4,161.7,111.1,162 M94.3,165.2c0,0.3,0.1,0.4,0.4,0.4c0.5,0,0.5-0.2,0.2-0.6C94.5,164.7,94.3,164.8,94.3,165.2
		 M162.7,165.6c0.1,0.2-0.4,0.7-0.6,0.5c-0.1-0.1-0.1,0-0.1,0.1c0,0.3,0.4,0.3,0.7-0.1c0.3-0.3,0.4-0.7,0.1-0.7
		C162.7,165.4,162.6,165.5,162.7,165.6 M104,166.1c-0.4,0.4-0.3,0.6,0.2,0.6c0.3,0,0.4-0.1,0.4-0.4
		C104.6,165.8,104.4,165.7,104,166.1 M161,167.8c0,0.5,0.2,0.5,0.6,0.2c0.4-0.4,0.3-0.6-0.2-0.6C161.1,167.4,161,167.6,161,167.8
		 M100.7,167.7c-0.2,0.2-0.1,0.7,0.1,0.8c0.2,0.1,0.2,0,0.1-0.2c-0.1-0.2,0-0.3,0.2-0.2c0.2,0.1,0.3,0,0.2-0.1
		C101.4,167.8,100.8,167.6,100.7,167.7 M44.2,176.8c0.4,0.6,0.7,0.7,0.7,0.2c0-0.3-0.2-0.4-0.5-0.5C44,176.4,44,176.4,44.2,176.8
		 M155.6,177.7c0.1,0.2-0.4,0.7-0.6,0.5c-0.1-0.1-0.1,0-0.1,0.1c0,0.3,0.4,0.3,0.7-0.1c0.3-0.3,0.4-0.7,0.1-0.7
		C155.6,177.5,155.5,177.6,155.6,177.7 M153.9,180c0,0.5,0.2,0.5,0.6,0.2c0.4-0.4,0.3-0.6-0.2-0.6C154,179.6,153.9,179.7,153.9,180
		 M51.2,185.8c0,0.2,0.4,0.6,0.6,0.6c0.1,0,0.2-0.2,0.2-0.4c0-0.3-0.1-0.4-0.4-0.4C51.4,185.6,51.2,185.7,51.2,185.8"/>
</g>
</svg>
