<?xml version="1.0" standalone="no"?>
<!DOCTYPE svg PUBLIC "-//W3C//DTD SVG 20010904//EN"
 "http://www.w3.org/TR/2001/REC-SVG-20010904/DTD/svg10.dtd">
<svg version="1.0" xmlns="http://www.w3.org/2000/svg"
 width="200.000000pt" height="200.000000pt" viewBox="0 0 200.000000 200.000000"
 preserveAspectRatio="xMidYMid meet">
<metadata>
Created by potrace 1.15, written by Peter Selinger 2001-2017
</metadata>
<g transform="translate(0.000000,200.000000) scale(0.100000,-0.100000)"
fill="#000000" stroke="none">
<path d="M1415 1767 c-170 -57 -267 -197 -251 -366 3 -39 16 -86 31 -117 34
-70 119 -147 193 -174 104 -40 251 -15 340 57 l23 19 -82 290 c-45 159 -84
291 -86 294 -9 11 -132 8 -168 -3z"/>
<path d="M165 1763 c54 -15 55 -24 16 -268 -33 -203 -41 -232 -73 -245 -16 -6
21 -9 112 -9 90 0 128 3 113 9 -31 13 -30 41 9 298 l32 212 33 0 c51 0 73 -29
73 -96 0 -31 -5 -75 -12 -97 -13 -45 -57 -94 -91 -100 -12 -3 7 -3 43 -1 75 5
163 44 193 85 27 37 33 108 13 146 -28 55 -75 66 -291 69 -104 2 -181 0 -170
-3z"/>
<path d="M691 1626 c-25 -9 -30 -14 -19 -18 13 -6 13 -22 -7 -146 -13 -77 -21
-151 -18 -165 7 -37 36 -59 85 -64 34 -4 50 0 78 19 35 24 72 81 84 128 4 14
-4 3 -17 -25 -28 -58 -60 -90 -82 -82 -20 8 -19 37 7 199 18 113 20 139 9 152
-16 19 -71 20 -120 2z"/>
<path d="M930 1588 c0 -29 -7 -78 -15 -108 -8 -30 -12 -63 -9 -72 5 -18 -26
-191 -53 -290 -8 -31 -26 -67 -39 -79 l-23 -22 -70 69 c-90 88 -138 114 -208
114 -30 0 -66 -6 -81 -14 -85 -44 -123 -157 -71 -212 33 -35 100 -34 128 2 26
34 27 68 1 94 -23 23 -60 27 -60 6 0 -20 -38 -30 -55 -16 -21 17 -19 47 4 60
44 23 99 7 172 -51 128 -101 251 -89 374 35 68 69 84 106 111 270 40 235 33
266 -59 266 l-47 0 0 -52z m-13 -170 c-3 -8 -6 -5 -6 6 -1 11 2 17 5 13 3 -3
4 -12 1 -19z"/>
<path d="M403 859 c-18 -5 -35 -14 -38 -19 -3 -6 1 -7 9 -4 9 3 16 2 16 -4 0
-8 -47 -23 -66 -21 -10 1 -64 -54 -64 -65 0 -6 4 -6 11 1 6 6 18 9 27 5 11 -4
14 -1 9 12 -4 9 -3 15 1 12 5 -3 16 4 26 15 11 13 25 19 37 16 10 -3 19 -1 19
3 0 5 17 7 38 4 l37 -4 -32 10 c-18 6 -35 15 -39 21 -4 8 0 8 14 0 26 -14 54
-15 33 -2 -11 7 -10 11 5 20 24 13 3 13 -43 0z"/>
<path d="M566 854 c-9 -8 -14 -20 -11 -25 9 -13 15 -11 13 3 -2 7 7 14 20 16
12 2 20 8 17 13 -9 13 -21 11 -39 -7z"/>
<path d="M1420 733 c-261 -449 -310 -535 -310 -545 0 -4 176 -7 390 -8 215 0
390 2 390 5 0 3 -31 60 -70 126 -38 66 -70 126 -70 132 0 7 9 13 20 14 11 1
20 -2 20 -7 0 -5 11 -17 25 -26 50 -33 121 28 92 79 -28 49 -67 58 -106 23
-11 -10 -32 -18 -46 -18 -26 0 -31 -7 -17 -24 4 -5 -5 4 -20 21 -15 16 -69
103 -120 192 -51 90 -95 163 -98 163 -3 0 -39 -57 -80 -127z"/>
<path d="M595 840 l-20 -9 20 -1 c73 -7 106 -6 90 3 -25 13 -67 17 -90 7z"/>
<path d="M588 813 c6 -2 18 -2 25 0 6 3 1 5 -13 5 -14 0 -19 -2 -12 -5z"/>
<path d="M636 812 c-3 -4 4 -9 15 -9 23 -2 25 3 4 10 -8 4 -16 3 -19 -1z"/>
<path d="M700 810 c-9 -6 -10 -10 -3 -10 6 0 15 5 18 10 8 12 4 12 -15 0z"/>
<path d="M722 793 c-10 -4 -9 -10 5 -26 10 -11 13 -17 6 -14 -8 5 -11 0 -10
-14 l1 -21 14 21 c18 27 36 28 22 1 -8 -15 -8 -18 4 -14 7 3 23 -7 35 -22 22
-28 28 -50 11 -39 -14 9 -12 -7 4 -28 9 -12 16 -14 21 -8 3 6 1 11 -4 11 -6 0
-11 5 -11 11 0 5 5 7 10 4 6 -4 1 14 -12 39 -12 25 -25 43 -29 41 -4 -3 -9 5
-12 16 -3 11 -15 23 -26 26 -11 3 -18 9 -15 14 6 10 5 10 -14 2z"/>
<path d="M380 760 c0 -5 6 -10 14 -10 8 0 18 5 21 10 3 6 -3 10 -14 10 -12 0
-21 -4 -21 -10z"/>
<path d="M615 735 l-30 -13 53 -1 c28 -1 52 4 52 9 0 6 -4 10 -9 10 -5 0 -15
2 -23 5 -7 2 -26 -2 -43 -10z"/>
<path d="M268 723 c7 -3 16 -2 19 1 4 3 -2 6 -13 5 -11 0 -14 -3 -6 -6z"/>
<path d="M230 699 c0 -5 -4 -8 -9 -5 -11 7 -23 -22 -15 -36 4 -6 2 -13 -4 -17
-12 -7 -16 -29 -14 -75 1 -16 5 -26 9 -23 6 7 11 53 14 117 1 22 2 23 13 8 12
-16 13 -14 14 12 0 17 -1 30 -4 30 -2 0 -4 -5 -4 -11z"/>
<path d="M290 700 c0 -5 4 -10 9 -10 6 0 13 5 16 10 3 6 -1 10 -9 10 -9 0 -16
-4 -16 -10z"/>
<path d="M801 614 c0 -11 3 -14 6 -6 3 7 2 16 -1 19 -3 4 -6 -2 -5 -13z"/>
<path d="M841 604 c0 -11 3 -14 6 -6 3 7 2 16 -1 19 -3 4 -6 -2 -5 -13z"/>
<path d="M821 588 c0 -9 -4 -25 -7 -35 -5 -17 -5 -17 6 0 6 10 9 25 7 35 -4
15 -5 15 -6 0z"/>
<path d="M254 556 c-9 -24 0 -89 14 -94 8 -3 12 12 12 52 0 53 -14 74 -26 42z"/>
<path d="M845 558 c4 -9 1 -26 -5 -38 -11 -20 -6 -60 8 -60 10 0 9 97 -1 106
-4 5 -5 1 -2 -8z"/>
<path d="M700 553 c20 -9 10 -25 -14 -21 -19 4 -22 1 -18 -14 5 -20 -14 -25
-21 -5 -2 6 -4 -4 -4 -24 1 -20 -5 -42 -11 -50 -22 -25 -76 -114 -74 -121 1
-4 -5 -5 -14 -1 -13 5 -15 2 -9 -17 6 -19 4 -22 -9 -17 -14 6 -16 3 -11 -14 4
-13 1 -27 -10 -39 -28 -31 -12 -54 33 -46 20 3 103 6 185 6 l147 0 -27 53
c-16 28 -32 55 -37 58 -10 7 2 91 12 85 4 -2 8 18 8 45 1 27 -3 49 -8 49 -5 0
-8 -6 -5 -12 2 -7 0 -24 -6 -38 -5 -14 -9 -36 -9 -50 1 -24 0 -24 -16 6 -9 17
-25 46 -35 63 -18 31 -12 42 11 19 23 -23 12 1 -12 27 -17 18 -26 22 -30 13
-3 -7 -4 0 -3 16 1 17 -3 30 -11 32 -7 1 -8 0 -2 -3z"/>
<path d="M177 501 c6 -54 33 -125 51 -129 17 -3 15 15 -3 26 -9 5 -18 29 -22
60 -3 29 -9 52 -14 52 -4 0 -10 8 -12 18 -2 9 -2 -3 0 -27z"/>
<path d="M210 466 c0 -8 5 -18 10 -21 6 -3 10 1 10 9 0 8 -4 18 -10 21 -5 3
-10 -1 -10 -9z"/>
<path d="M618 473 c7 -3 16 -2 19 1 4 3 -2 6 -13 5 -11 0 -14 -3 -6 -6z"/>
<path d="M580 450 c-7 -14 -5 -59 3 -51 5 5 7 19 4 32 -2 13 -5 22 -7 19z"/>
<path d="M835 440 c-3 -5 -1 -10 4 -10 6 0 11 5 11 10 0 6 -2 10 -4 10 -3 0
-8 -4 -11 -10z"/>
<path d="M310 410 c0 -5 -7 -10 -15 -10 -8 0 -15 -4 -15 -10 0 -5 9 -10 20
-10 13 0 20 7 20 20 0 11 -2 20 -5 20 -3 0 -5 -4 -5 -10z"/>
<path d="M240 348 c0 -9 5 -20 10 -23 6 -4 8 -11 4 -16 -3 -5 0 -8 8 -7 7 2
12 -4 10 -12 -3 -12 -1 -13 9 -2 18 17 32 15 26 -3 -4 -8 -2 -17 2 -19 7 -5 8
10 2 48 0 5 -8 3 -16 -4 -8 -7 -15 -9 -15 -4 0 5 -9 20 -20 34 -15 20 -20 21
-20 8z"/>
<path d="M490 309 c0 -5 5 -7 10 -4 6 3 10 8 10 11 0 2 -4 4 -10 4 -5 0 -10
-5 -10 -11z"/>
<path d="M335 239 c3 -4 19 -12 35 -18 17 -5 28 -6 25 -1 -3 4 1 11 7 14 7 3
1 4 -14 1 -16 -3 -28 -2 -28 3 0 5 -7 9 -15 9 -8 0 -12 -4 -10 -8z"/>
<path d="M428 223 c7 -3 16 -2 19 1 4 3 -2 6 -13 5 -11 0 -14 -3 -6 -6z"/>
<path d="M440 211 c-32 -6 -33 -7 -12 -13 26 -7 52 -1 52 13 0 5 -1 8 -2 8 -2
-1 -19 -5 -38 -8z"/>
</g>
</svg>
