<?xml version="1.0" standalone="yes"?>
<svg xmlns="http://www.w3.org/2000/svg" width="200" height="200">
<path style="fill:#fefffe; stroke:none;" d="M0 0L0 200L200 200L200 0L0 0z"/>
<path style="fill:#b3b1b4; stroke:none;" d="M142.667 22.3333L143.333 22.6667L142.667 22.3333z"/>
<path style="fill:#73727c; stroke:none;" d="M144.667 22.3333L145.333 22.6667L144.667 22.3333z"/>
<path style="fill:#2a2754; stroke:none;" d="M171 85L171 83L168 82L168 81L173 81L172 78C175.222 74.9206 171.33 68.8237 170.427 65C167.404 52.1877 161.3 39.0565 160 26C152.298 24.501 148.334 21.3846 140 23.5147C119.06 28.8669 109.637 56.0261 120.479 74C131.484 92.2443 153.526 95.1601 171 85z"/>
<path style="fill:#2c2b3e; stroke:none;" d="M151 22L151 23L159 26C158.175 22.1307 154.562 22.1796 151 22z"/>
<path style="fill:#7f7d85; stroke:none;" d="M155 22L155 23L158 23L155 22z"/>
<path style="fill:#2c2b3e; stroke:none;" d="M14 23L14 24L37 24L14 23z"/>
<path style="fill:#616162; stroke:none;" d="M37 23L37 24L42 24L37 23z"/>
<path style="fill:#2c2b3e; stroke:none;" d="M42 23L42 24L46 24L42 23z"/>
<path style="fill:#616162; stroke:none;" d="M46.6667 23.3333L47.3333 23.6667L46.6667 23.3333z"/>
<path style="fill:#939395; stroke:none;" d="M48.6667 23.3333L49.3333 23.6667L48.6667 23.3333z"/>
<path style="fill:#d5d3dc; stroke:none;" d="M159 23L175 80C196.47 62.5069 182.166 29.6075 159 23z"/>
<path style="fill:#020101; stroke:none;" d="M20 24C22.2236 35.9771 18.5672 49.1407 16.4244 61C15.3562 66.912 14.8312 72.1235 9 75L9 76L34 76L34 75C28.8667 70.4663 30.7364 65.1001 31.7531 59C33.6646 47.5308 36.5013 35.6142 37 24L20 24z"/>
<path style="fill:#b3b1b4; stroke:none;" d="M37.3333 24.6667L37.6667 25.3333L37.3333 24.6667z"/>
<path style="fill:#020101; stroke:none;" d="M45 24C50.1279 33.8014 49.2392 48.8272 37 53C52.8455 59.1848 76.9991 33.0475 55.9992 25.2639C52.4777 23.9586 48.6953 24.0102 45 24z"/>
<path style="fill:#939395; stroke:none;" d="M53.6667 24.3333L54.3333 24.6667L53.6667 24.3333M45 25L46 26L45 25M57 25L58 26L57 25M20 26L21 27L20 26M46 26L47 27L46 26z"/>
<path style="fill:#7f7d85; stroke:none;" d="M60 27L61 28L60 27z"/>
<path style="fill:#73727c; stroke:none;" d="M61 28L62 29L61 28z"/>
<path style="fill:#7f7d85; stroke:none;" d="M130 28L131 29L130 28z"/>
<path style="fill:#939395; stroke:none;" d="M36 29L36 32L37 32L36 29z"/>
<path style="fill:#616162; stroke:none;" d="M160.333 29.6667L160.667 30.3333L160.333 29.6667z"/>
<path style="fill:#2c2b3e; stroke:none;" d="M48 30L48 35L49 35L48 30z"/>
<path style="fill:#616162; stroke:none;" d="M20.3333 34.6667L20.6667 35.3333L20.3333 34.6667z"/>
<path style="fill:#73727c; stroke:none;" d="M35.3333 35.6667L35.6667 36.3333L35.3333 35.6667z"/>
<path style="fill:#b3b1b4; stroke:none;" d="M70.6667 36.3333L71.3333 36.6667L70.6667 36.3333z"/>
<path style="fill:#454545; stroke:none;" d="M72.6667 36.3333L73.3333 36.6667L72.6667 36.3333z"/>
<path style="fill:#020101; stroke:none;" d="M66 38L66 39L69 40C66.9476 48.331 62.2622 63.6682 65.6034 71.9414C68.8562 79.9955 82.0795 75.9198 85 70C70.5087 76.9084 84.367 43.9469 80.9329 38.3179C78.2222 33.8747 69.941 37.4693 66 38z"/>
<path style="fill:#b3b1b4; stroke:none;" d="M80 36L81 37L80 36z"/>
<path style="fill:#020101; stroke:none;" d="M93 36C96.0733 54.6249 87.8733 78.1393 83 96C99.7743 90.4364 101.941 72.9839 104 58C105.703 45.6053 108.852 36.0105 93 36z"/>
<path style="fill:#616162; stroke:none;" d="M162.333 36.6667L162.667 37.3333L162.333 36.6667z"/>
<path style="fill:#454545; stroke:none;" d="M68.6667 37.3333L69.3333 37.6667L68.6667 37.3333z"/>
<path style="fill:#939395; stroke:none;" d="M81 37L82 38L81 37M104 37L105 38L104 37z"/>
<path style="fill:#b3b1b4; stroke:none;" d="M47 38L47 41L48 41L47 38z"/>
<path style="fill:#7f7d85; stroke:none;" d="M93 38L93 43L94 43L93 38z"/>
<path style="fill:#939395; stroke:none;" d="M63.3333 39.6667L63.6667 40.3333L63.3333 39.6667z"/>
<path style="fill:#7f7d85; stroke:none;" d="M19.3333 40.6667L19.6667 41.3333L19.3333 40.6667z"/>
<path style="fill:#73727c; stroke:none;" d="M68.3333 40.6667L68.6667 41.3333L68.3333 40.6667z"/>
<path style="fill:#616162; stroke:none;" d="M34.3333 41.6667L34.6667 42.3333L34.3333 41.6667M81 42L81 45L82 45L81 42z"/>
<path style="fill:#b3b1b4; stroke:none;" d="M106 42L106 46L107 46L106 42z"/>
<path style="fill:#73727c; stroke:none;" d="M61 44L62 45L61 44z"/>
<path style="fill:#939395; stroke:none;" d="M67 45L67 48L68 48L67 45M18.3333 46.6667L18.6667 47.3333L18.3333 46.6667z"/>
<path style="fill:#7f7d85; stroke:none;" d="M45 46L46 47L45 46z"/>
<path style="fill:#939395; stroke:none;" d="M92 46L92 49L93 49L92 46M165.333 46.6667L165.667 47.3333L165.333 46.6667z"/>
<path style="fill:#454545; stroke:none;" d="M18.3333 48.6667L18.6667 49.3333L18.3333 48.6667z"/>
<path style="fill:#7f7d85; stroke:none;" d="M33 48L33 51L34 51L33 48z"/>
<path style="fill:#616162; stroke:none;" d="M44 48L45 49L44 48z"/>
<path style="fill:#7f7d85; stroke:none;" d="M57 48L58 49L57 48z"/>
<path style="fill:#454545; stroke:none;" d="M80 48L80 51L81 51L80 48M105 48L105 51L106 51L105 48z"/>
<path style="fill:#b3b1b4; stroke:none;" d="M116.333 48.6667L116.667 49.3333L116.333 48.6667z"/>
<path style="fill:#939395; stroke:none;" d="M43 49L44 50L43 49M42 50L43 51L42 50M54 50L55 51L54 50z"/>
<path style="fill:#7f7d85; stroke:none;" d="M41 51L42 52L41 51z"/>
<path style="fill:#616162; stroke:none;" d="M51 51L52 52L51 51z"/>
<path style="fill:#b3b1b4; stroke:none;" d="M66 51L66 54L67 54L66 51z"/>
<path style="fill:#d5d3dc; stroke:none;" d="M80.3333 51.6667L80.6667 52.3333L80.3333 51.6667z"/>
<path style="fill:#73727c; stroke:none;" d="M91.3333 51.6667L91.6667 52.3333L91.3333 51.6667z"/>
<path style="fill:#939395; stroke:none;" d="M17.3333 52.6667L17.6667 53.3333L17.3333 52.6667z"/>
<path style="fill:#b3b1b4; stroke:none;" d="M48.6667 52.3333L49.3333 52.6667L48.6667 52.3333z"/>
<path style="fill:#7f7d85; stroke:none;" d="M34 53L34 54L37 54L34 53M42 53L42 54L45 54L42 53z"/>
<path style="fill:#454545; stroke:none;" d="M91 53L91 55L93 55L93 53L91 53M17.3333 54.6667L17.6667 55.3333L17.3333 54.6667z"/>
<path style="fill:#73727c; stroke:none;" d="M32.3333 54.6667L32.6667 55.3333L32.3333 54.6667z"/>
<path style="fill:#2c2b3e; stroke:none;" d="M79.3333 54.6667L79.6667 55.3333L79.3333 54.6667z"/>
<path style="fill:#454545; stroke:none;" d="M104.333 54.6667L104.667 55.3333L104.333 54.6667z"/>
<path style="fill:#939395; stroke:none;" d="M91 55L91 59L92 59L91 55z"/>
<path style="fill:#d5d3dc; stroke:none;" d="M32.3333 56.6667L32.6667 57.3333L32.3333 56.6667z"/>
<path style="fill:#939395; stroke:none;" d="M79.3333 56.6667L79.6667 57.3333L79.3333 56.6667M104 56L104 59L105 59L104 56z"/>
<path style="fill:#b3b1b4; stroke:none;" d="M65.3333 57.6667L65.6667 58.3333L65.3333 57.6667z"/>
<path style="fill:#454545; stroke:none;" d="M90.3333 57.6667L90.6667 58.3333L90.3333 57.6667z"/>
<path style="fill:#b3b1b4; stroke:none;" d="M16 58L16 61L17 61L16 58z"/>
<path style="fill:#616162; stroke:none;" d="M65.3333 59.6667L65.6667 60.3333L65.3333 59.6667z"/>
<path style="fill:#b3b1b4; stroke:none;" d="M89.6667 59.3333L90.3333 59.6667L89.6667 59.3333z"/>
<path style="fill:#73727c; stroke:none;" d="M31.3333 60.6667L31.6667 61.3333L31.3333 60.6667z"/>
<path style="fill:#454545; stroke:none;" d="M89.3333 60.6667L89.6667 61.3333L89.3333 60.6667z"/>
<path style="fill:#d5d3dc; stroke:none;" d="M90.3333 60.6667L90.6667 61.3333L90.3333 60.6667z"/>
<path style="fill:#616162; stroke:none;" d="M78 61L78 64L79 64L78 61M103 61L103 64L104 64L103 61z"/>
<path style="fill:#7f7d85; stroke:none;" d="M116 61L116 64L117 64L116 61z"/>
<path style="fill:#b3b1b4; stroke:none;" d="M31.3333 62.6667L31.6667 63.3333L31.3333 62.6667M88 62L88 63L91 64L88 62z"/>
<path style="fill:#454545; stroke:none;" d="M88 63L87 67L88 67L88 63z"/>
<path style="fill:#b3b1b4; stroke:none;" d="M15 64L15 67L16 67L15 64z"/>
<path style="fill:#73727c; stroke:none;" d="M64 64L64 70L65 70L64 64M170.333 64.6667L170.667 65.3333L170.333 64.6667z"/>
<path style="fill:#616162; stroke:none;" d="M30 66L30 72L31 72L30 66z"/>
<path style="fill:#454545; stroke:none;" d="M86 67L85 71L86 71L86 67z"/>
<path style="fill:#939395; stroke:none;" d="M89.3333 67.6667L89.6667 68.3333L89.3333 67.6667z"/>
<path style="fill:#454545; stroke:none;" d="M77 68L77 71L78 71L77 68z"/>
<path style="fill:#73727c; stroke:none;" d="M102.333 68.6667L102.667 69.3333L102.333 68.6667z"/>
<path style="fill:#616162; stroke:none;" d="M171.333 68.6667L171.667 69.3333L171.333 68.6667z"/>
<path style="fill:#7f7d85; stroke:none;" d="M14 70L15 71L14 70z"/>
<path style="fill:#939395; stroke:none;" d="M13 72L14 73L13 72z"/>
<path style="fill:#b3b1b4; stroke:none;" d="M79 72L79 73L82 73L79 72z"/>
<path style="fill:#939395; stroke:none;" d="M88.3333 72.6667L88.6667 73.3333L88.3333 72.6667z"/>
<path style="fill:#7f7d85; stroke:none;" d="M31 73L32 74L31 73z"/>
<path style="fill:#939395; stroke:none;" d="M11 74L12 75L11 74z"/>
<path style="fill:#b3b1b4; stroke:none;" d="M6 75C10.6945 80.3723 30.9365 77 38 77L38 75L6 75z"/>
<path style="fill:#939395; stroke:none;" d="M80 75L81 76L80 75M121 75L122 76L121 75z"/>
<path style="fill:#2c2b3e; stroke:none;" d="M70 76L70 77L76 77L70 76z"/>
<path style="fill:#7f7d85; stroke:none;" d="M76 76L76 77L79 77L76 76z"/>
<path style="fill:#b3b1b4; stroke:none;" d="M87.3333 77.6667L87.6667 78.3333L87.3333 77.6667z"/>
<path style="fill:#2c2b3e; stroke:none;" d="M172 78L173 81L168 81L168 82C171.561 83.1496 176.004 81.5076 172 78z"/>
<path style="fill:#616162; stroke:none;" d="M174 78L174 82L175 82L174 78z"/>
<path style="fill:#939395; stroke:none;" d="M48 79L48 80L53 80L48 79M124 79L125 80L124 79z"/>
<path style="fill:#020101; stroke:none;" d="M36 89C47.1246 84.2874 52.6474 93.1164 62 97.5972C67.8483 100.399 73.8029 100.15 80 99C70.0928 89.4814 46.6386 66.3907 36 89z"/>
<path style="fill:#b3b1b4; stroke:none;" d="M56.6667 80.3333L57.3333 80.6667L56.6667 80.3333z"/>
<path style="fill:#616162; stroke:none;" d="M99 80L100 81L99 80z"/>
<path style="fill:#939395; stroke:none;" d="M125 80L126 81L125 80M42 81L43 82L42 81z"/>
<path style="fill:#73727c; stroke:none;" d="M59 81L60 82L59 81z"/>
<path style="fill:#939395; stroke:none;" d="M126 81L127 82L126 81z"/>
<path style="fill:#616162; stroke:none;" d="M61 82L62 83L61 82z"/>
<path style="fill:#939395; stroke:none;" d="M86.3333 82.6667L86.6667 83.3333L86.3333 82.6667M98 82L99 83L98 82M127 82L128 83L127 82M39 83L40 84L39 83z"/>
<path style="fill:#7f7d85; stroke:none;" d="M63 83L64 84L63 83z"/>
<path style="fill:#939395; stroke:none;" d="M172 83L173 84L172 83z"/>
<path style="fill:#b3b1b4; stroke:none;" d="M38 84L39 85L38 84z"/>
<path style="fill:#939395; stroke:none;" d="M96 85L97 86L96 85z"/>
<path style="fill:#7f7d85; stroke:none;" d="M131 85L132 86L131 85z"/>
<path style="fill:#939395; stroke:none;" d="M67 86L68 87L67 86z"/>
<path style="fill:#73727c; stroke:none;" d="M95 86L96 87L95 86z"/>
<path style="fill:#616162; stroke:none;" d="M38 87L39 88L38 87z"/>
<path style="fill:#454545; stroke:none;" d="M45.6667 87.3333L46.3333 87.6667L45.6667 87.3333z"/>
<path style="fill:#7f7d85; stroke:none;" d="M68 87L69 88L68 87z"/>
<path style="fill:#939395; stroke:none;" d="M166 87L167 88L166 87z"/>
<path style="fill:#73727c; stroke:none;" d="M48 88L49 89L48 88z"/>
<path style="fill:#7f7d85; stroke:none;" d="M69 88L70 89L69 88M85 88L86 89L85 88z"/>
<path style="fill:#2c2b3e; stroke:none;" d="M35 89L34 92L35 89z"/>
<path style="fill:#7f7d85; stroke:none;" d="M70 89L71 90L70 89z"/>
<path style="fill:#b3b1b4; stroke:none;" d="M43.6667 90.3333L44.3333 90.6667L43.6667 90.3333z"/>
<path style="fill:#939395; stroke:none;" d="M71 90L72 91L71 90z"/>
<path style="fill:#73727c; stroke:none;" d="M142.667 90.3333L143.333 90.6667L142.667 90.3333z"/>
<path style="fill:#b3b1b4; stroke:none;" d="M157.667 90.3333L158.333 90.6667L157.667 90.3333z"/>
<path style="fill:#020101; stroke:none;" d="M43 91C40.4943 95.2321 37.857 93.809 34 92C34.0065 94.2806 33.8029 96.7668 34.4336 98.9861C39.2187 115.823 61.1084 93.0408 43 91z"/>
<path style="fill:#939395; stroke:none;" d="M47 91L48 92L47 91z"/>
<path style="fill:#73727c; stroke:none;" d="M84 91L85 92L84 91z"/>
<path style="fill:#b3b1b4; stroke:none;" d="M147 91L147 92L153 92L147 91z"/>
<path style="fill:#73727c; stroke:none;" d="M54 92L55 93L54 92z"/>
<path style="fill:#616162; stroke:none;" d="M89 92L90 93L89 92z"/>
<path style="fill:#73727c; stroke:none;" d="M36 93L37 94L36 93z"/>
<path style="fill:#7f7d85; stroke:none;" d="M42 93L43 94L42 93z"/>
<path style="fill:#939395; stroke:none;" d="M83 93L84 94L83 93M88 93L89 94L88 93z"/>
<path style="fill:#7f7d85; stroke:none;" d="M33 94L33 99L34 99L33 94z"/>
<path style="fill:#b3b1b4; stroke:none;" d="M37 94L37 95L41 95L37 94z"/>
<path style="fill:#2c2b3e; stroke:none;" d="M50 95L50 100L51 100L50 95z"/>
<path style="fill:#7f7d85; stroke:none;" d="M58 95L59 96L58 95z"/>
<path style="fill:#73727c; stroke:none;" d="M82 95L83 96L82 95M85 95L86 96L85 95z"/>
<path style="fill:#616162; stroke:none;" d="M76 96L77 97L76 96z"/>
<path style="fill:#2c2b3e; stroke:none;" d="M80 97L80 98L84 97L80 97z"/>
<path style="fill:#939395; stroke:none;" d="M61 97L62 98L61 97M78.6667 97.3333L79.3333 97.6667L78.6667 97.3333z"/>
<path style="fill:#b3b1b4; stroke:none;" d="M62.6667 98.3333L63.3333 98.6667L62.6667 98.3333z"/>
<path style="fill:#454545; stroke:none;" d="M66.6667 99.3333L67.3333 99.6667L66.6667 99.3333z"/>
<path style="fill:#b3b1b4; stroke:none;" d="M77.6667 99.3333L78.3333 99.6667L77.6667 99.3333z"/>
<path style="fill:#616162; stroke:none;" d="M34 100L35 101L34 100z"/>
<path style="fill:#b3b1b4; stroke:none;" d="M69 100L69 101L74 101L69 100z"/>
<path style="fill:#939395; stroke:none;" d="M36 103L37 104L36 103z"/>
<path style="fill:#73727c; stroke:none;" d="M38 104L39 105L38 104z"/>
<path style="fill:#7f7d85; stroke:none;" d="M46 104L47 105L46 104z"/>
<path style="fill:#b3b1b4; stroke:none;" d="M40 105L40 106L44 106L40 105z"/>
<path style="fill:#1fadb7; stroke:none;" d="M56 182L56 181L49 181L68 148L70 148L78 166C88.2842 164.231 87.1387 143.629 85.0725 136C80.5904 119.451 62.4898 109.63 46 112.325C20.469 116.498 8.10182 147.14 23.6096 168C31.7595 178.963 43.02 182 56 182z"/>
<path style="fill:#6ec7ca; stroke:none;" d="M40.6667 113.333L41.3333 113.667L40.6667 113.333z"/>
<path style="fill:#b3b1b4; stroke:none;" d="M149.667 113.333L150.333 113.667L149.667 113.333z"/>
<path style="fill:#ec1a1a; stroke:none;" d="M149 114L129.05 151.285L120 163L111 181L187 181C186.07 174.234 180.23 158.318 172.907 156.318C166.565 154.586 153.189 159.449 148.623 153.683C141.916 145.215 165.52 147 169 147L151 114L149 114z"/>
<path style="fill:#6ec7ca; stroke:none;" d="M30 118L30 120L32 118L30 118z"/>
<path style="fill:#97d8d5; stroke:none;" d="M85.3333 136.667L85.6667 137.333L85.3333 136.667z"/>
<path style="fill:#d9363d; stroke:none;" d="M134 139L121 164C125.844 160.645 136.176 144.808 134 139z"/>
<path style="fill:#6ec7ca; stroke:none;" d="M86 141L86 152L87 152L86 141z"/>
<path style="fill:#97d8d5; stroke:none;" d="M183 144L183 145L186 145L183 144z"/>
<path style="fill:#1fadb7; stroke:none;" d="M171 149L174 156C178.519 156.139 182.979 160.419 187.521 158.141C193.416 155.185 192.597 146.499 185.985 145.294C180.753 144.341 176.337 148.83 171 149z"/>
<path style="fill:#d9363d; stroke:none;" d="M147 154L148 154C149.449 144.915 162.972 148 170 148C162.889 145.016 147.314 144.442 147 154z"/>
<path style="fill:#03a492; stroke:none;" d="M68 148L49 181C62.6668 181 69.8027 176.723 80 168L80 167L80 166L70 148L68 148z"/>
<path style="fill:#5f0908; stroke:none;" d="M149 148L149 149L169 149L149 148z"/>
<path style="fill:#020101; stroke:none;" d="M149 149L149 155L174 155L171 148L149 149z"/>
<path style="fill:#41ceb0; stroke:none;" d="M171 148L171 149L178 149L171 148z"/>
<path style="fill:#8b2125; stroke:none;" d="M148 149L148 155L149 155L148 149z"/>
<path style="fill:#6ec7ca; stroke:none;" d="M191 153L191 156L192 156L191 153z"/>
<path style="fill:#8b2125; stroke:none;" d="M149 155L149 156L174 156L149 155z"/>
<path style="fill:#97d8d5; stroke:none;" d="M188 157L188 159L190 157L188 157M84.3333 158.667L84.6667 159.333L84.3333 158.667z"/>
<path style="fill:#6ec7ca; stroke:none;" d="M80.3333 166.667L80.6667 167.333L80.3333 166.667z"/>
<path style="fill:#1fadb7; stroke:none;" d="M78 168C73.6736 174.082 67.9072 177.446 61 180L61 181L87 181L85 175C83.0513 177.05 81.975 178.525 80 176L81 168L78 168z"/>
<path style="fill:#03a492; stroke:none;" d="M81 170C81.5486 173.291 83.4381 176.86 80 176L81 179C84.7089 176.314 83.9166 173.113 81 170z"/>
<path style="fill:#d9363d; stroke:none;" d="M186 176L187 181L111 181L111 182L189 182L186 176z"/>
<path style="fill:#41ceb0; stroke:none;" d="M87 180L56 181L56 182L80 182L87 180z"/>
<path style="fill:#b3b1b4; stroke:none;" d="M110.333 180.667L110.667 181.333L110.333 180.667z"/>
</svg>
