<svg width="190" height="210" xmlns="http://www.w3.org/2000/svg">
  <g>
    <title>background</title>
    <rect fill="none" id="canvas_background" height="83" width="90" y="-1" x="-1"/>
  </g>
  <g>
  <title> Layer 1 </title>
  <path fill-rule="evenodd" clip-rule="evenodd" d="M73.6258 204.652C77.3052 204.652 80.2858 201.67 80.2858 197.992C80.2858 196.223 79.5833 194.529 78.3327 193.28C77.0802 192.029 75.3836 191.329 73.6146 191.333H35.3643C29.522 191.323 23.9194 188.998 19.7865 184.866C15.6536 180.733 13.329 175.132 13.3197 169.288V35.3649C13.3292 29.5226 15.6537 23.9219 19.7827 19.7909C23.9115 15.658 29.5125 13.3314 35.3529 13.3203H101.377C104.687 13.3129 107.865 14.6266 110.202 16.9718L149.417 56.1773C151.764 58.513 153.078 61.6908 153.071 65.0023V93.8882C153.071 97.5657 156.051 100.548 159.731 100.548C163.408 100.548 166.391 97.5657 166.391 93.8882V65.0023C166.411 58.1562 163.687 51.5876 158.831 46.7634V46.7652L119.625 7.55971C114.798 2.70019 108.225 -0.0221632 101.378 0.000135918H35.3532C25.9802 0.0115531 16.992 3.74068 10.3653 10.3712C3.73697 17.0012 0.00929118 25.9898 0 35.3647V169.288C0.00903857 178.663 3.73674 187.651 10.3653 194.281C16.9916 200.91 25.9802 204.641 35.3532 204.652H73.6258ZM94.1838 76.5259H42.0931C38.4156 76.5259 35.4331 73.5434 35.4331 69.8659C35.4331 66.1865 38.4156 63.2059 42.0931 63.2059H94.1838C97.8613 63.2059 100.844 66.1865 100.844 69.8659C100.844 73.5434 97.8613 76.5259 94.1838 76.5259ZM42.0931 146.132H74.1838C77.8613 146.132 80.8438 149.113 80.8438 152.792C80.8438 156.47 77.8613 159.452 74.1838 159.452H42.0931C38.4156 159.452 35.4331 156.47 35.4331 152.792C35.4331 149.113 38.4156 146.132 42.0931 146.132ZM122.013 117.982H42.0931C38.4156 117.982 35.4331 115.001 35.4331 111.322C35.4331 107.644 38.4156 104.662 42.0931 104.662H122.013C125.692 104.662 128.673 107.644 128.673 111.322C128.673 115.001 125.692 117.982 122.013 117.982ZM132.401 144.77C124.181 144.057 114.809 141.436 104.962 131.022L102.75 128.683L102.654 131.857C102.455 138.347 103.795 143.556 105.971 147.891C101.353 147.246 96.9826 145.948 93.0549 144.003L91 142.986L91.1233 145.224C91.5091 152.217 99.5116 164.912 111.667 169.701C120.665 172.503 126.807 174.774 127.844 176.861C128 177.175 128.264 177.758 127.954 178.552C127.89 178.712 127.863 178.805 127.866 178.841C125.86 184.017 120.651 191.915 108.297 204.888C111.401 204.27 112.484 203.704 112.484 203.704C124.693 200.251 151.637 186.045 156.997 164.17C157.1 163.749 157.216 163.355 157.331 162.96L157.331 162.96L157.331 162.96C157.351 162.892 157.37 162.825 157.39 162.757C157.409 162.691 157.429 162.624 157.448 162.557L157.453 162.542L157.215 162.531L157.319 162.533L157.451 162.539C161.408 148.751 170.099 145.049 175.057 144.096C176.696 143.781 177.766 143.807 177.766 143.807L179.972 143.867L180 143.873L179.012 141.944C178.77 141.472 172.923 130.385 160.472 131.326C159.512 131.399 158.556 131.525 157.634 131.702C152.178 132.751 148.181 135.457 143.951 138.322C140.564 140.615 137.06 142.971 132.486 144.743C132.458 144.752 132.429 144.761 132.401 144.77ZM149.128 145.886C150.956 146.479 154.173 148.111 156.073 152.087C153.814 147.363 149.696 145.948 148.261 145.653L148.266 145.651C148.351 145.669 148.449 145.692 148.553 145.718C148.751 145.767 148.943 145.823 149.128 145.886ZM139.019 144.154C141.672 144.315 144.744 144.834 148.245 145.653C138.298 149.366 129.709 157.36 128.979 173.744L128.988 173.783C129.705 157.374 138.299 149.369 148.252 145.653C144.748 144.833 141.674 144.314 139.019 144.154ZM128.987 173.817C128.984 173.94 128.979 174.065 128.971 174.192C128.976 174.067 128.981 173.942 128.987 173.817ZM105.972 147.892L105.973 147.893C107.037 148.042 108.112 148.163 109.2 148.242C110.652 148.346 112.124 148.387 113.61 148.365C112.127 148.387 110.659 148.345 109.211 148.241C108.118 148.163 107.04 148.041 105.972 147.892Z" fill="url(#paint0_linear_6_4)"/>
  <defs>
    <linearGradient id="paint0_linear_6_4" x1="106.098" y1="202.135" x2="165.016" y2="107.594" gradientUnits="userSpaceOnUse">
      <stop stop-color="#FF55EC"/>
      <stop offset="1" stop-color="#0049E9"/>
    </linearGradient>
  </defs>
  </g>
</svg>
