<svg height="64" width="64" xmlns="http://www.w3.org/2000/svg" xmlns:xlink="http://www.w3.org/1999/xlink"><clipPath id="a"><path d="m959.4 500-279.6 279.7 279.6 279.7h-319.5l-279.7-279.7 279.7-279.7zm-319.5-479.3-519.3 519.3 159.8 159.8 679-679.1h-319.5z"/></clipPath><clipPath id="b"><path d="m959.4 500-279.6 279.7 279.6 279.7h-319.5l-279.7-279.7 279.7-279.7zm-319.5-479.3-519.3 519.3 159.8 159.8 679-679.1h-319.5z"/></clipPath><clipPath id="c"><path d="m959.4 500-279.6 279.7 279.6 279.7h-319.5l-279.7-279.7 279.7-279.7zm-319.5-479.3-519.3 519.3 159.8 159.8 679-679.1h-319.5z"/></clipPath><clipPath id="d"><path d="m959.4 500-279.6 279.7 279.6 279.7h-319.5l-279.7-279.7 279.7-279.7zm-319.5-479.3-519.3 519.3 159.8 159.8 679-679.1h-319.5z"/></clipPath><linearGradient id="e" gradientUnits="userSpaceOnUse" x1="566.635" x2="685.65" y1="970.339" y2="851.324"><stop offset="0" stop-color="#1a237e" stop-opacity=".4"/><stop offset="1" stop-color="#1a237e" stop-opacity="0"/></linearGradient><clipPath id="f"><path d="m959.4 500-279.6 279.7 279.6 279.7h-319.5l-279.7-279.7 279.7-279.7zm-319.5-479.3-519.3 519.3 159.8 159.8 679-679.1h-319.5z"/></clipPath><radialGradient id="g" cx="7824.659" cy="-2855.979" gradientTransform="matrix(.25 0 0 -.25 -1812 -622.5)" gradientUnits="userSpaceOnUse" r="5082.889"><stop offset="0" stop-color="#fff" stop-opacity=".1"/><stop offset="1" stop-color="#fff" stop-opacity="0"/></radialGradient><g transform="matrix(.061615 0 0 .061615 -1.430818 -1.2754)"><g clip-path="url(#a)"><path d="m360.3 779.7 159.7 159.8 439.4-439.5h-319.5z" fill="#39cefd"/></g><path clip-path="url(#b)" d="m639.9 20.7h319.5l-679 679.1-159.8-159.8z" fill="#39cefd"/><path clip-path="url(#c)" d="m520 939.5 119.9 119.8h319.5l-279.6-279.6z" fill="#03569b"/><path clip-path="url(#d)" d="m757 857.4-77.2-77.7-159.8 159.8z" fill="url(#e)"/><g clip-path="url(#f)"><path d="m360.282 779.645 159.804-159.805 159.814 159.805-159.814 159.805z" fill="#16b9fd"/></g><path d="m959.4 500-279.6 279.7 279.6 279.7h-319.5l-279.7-279.7 279.7-279.7zm-319.5-479.3-519.3 519.3 159.8 159.8 679-679.1h-319.5z" fill="url(#g)"/></g></svg>
