<svg width="238" height="93" viewBox="0 0 238 93" fill="none" xmlns="http://www.w3.org/2000/svg">
<g clip-path="url(#clip0_27_36971)">
<path d="M57.3999 65.4001H59.7399V72.9101H59.9399C60.4599 72.1201 61.3699 70.2901 64.3499 70.2901C68.1999 70.2901 70.8699 73.3501 70.8699 78.1601C70.8699 82.9701 68.2099 86.0701 64.3899 86.0701C61.4499 86.0701 60.4599 84.2401 59.9399 83.4101H59.6599V85.7501H57.3999V65.4101V65.4001ZM64.0699 83.9601C67.0099 83.9601 68.5199 81.3801 68.5199 78.1201C68.5199 74.8601 67.0499 72.4001 64.0699 72.4001C61.0899 72.4001 59.6999 74.7001 59.6999 78.1201C59.6999 81.5401 61.2499 83.9601 64.0699 83.9601Z" fill="black"/>
<path d="M72.9497 91.1902L73.5497 89.1202C75.2597 89.5602 76.3097 89.3402 77.1697 87.0102L77.6097 85.8202L71.9697 70.4802H74.5097L78.7197 82.6402H78.8797L83.0897 70.4802H85.6297L79.1497 87.9602C78.2697 90.3302 76.7797 91.4602 74.6597 91.4602C73.8697 91.4602 73.1897 91.3002 72.9497 91.1802V91.1902Z" fill="black"/>
<path d="M113.43 77.7301C113.43 82.1801 110.87 86.9901 104 86.9901C99.0498 86.9901 94.5298 84.2301 94.5298 77.7301C94.5298 72.3401 97.9298 68.2001 104.67 68.5701C111.85 68.9701 113.43 74.5301 113.43 77.7301ZM100.63 74.3501C99.9898 75.3401 99.7498 76.5201 99.7498 77.7001C99.7498 80.4301 101.1 82.9001 103.99 82.9001C106.88 82.9001 108.17 80.6301 108.17 77.9301C108.17 76.0201 107.7 74.5401 106.72 73.6201C105.64 72.6301 104.43 72.6001 103.69 72.6701C102.21 72.7701 101.33 73.2601 100.62 74.3501H100.63Z" fill="black"/>
<path d="M159.42 70.5601C159.93 70.0201 160.26 69.6201 161.17 69.1801C161.98 68.8401 163.12 68.5701 164.37 68.5701C165.41 68.5701 166.59 68.7401 167.5 69.2401C169.35 70.2201 169.82 71.8001 169.82 74.5301V86.5601H164.67V76.6601C164.67 75.0801 164.64 74.5001 164.43 74.0301C164.03 73.0901 163.12 72.6801 162.11 72.6801C159.38 72.6801 159.38 74.8701 159.38 77.0601V86.5601H154.19V69.0101H159.41V70.5601H159.42Z" fill="black"/>
<path d="M151.74 82.0101C151.26 83.0101 149.73 86.9901 142.98 86.9901C137.76 86.9901 134.09 83.8001 134.09 78.0401C134.09 73.8001 136.18 68.5701 143.12 68.5701C144.16 68.5701 147.2 68.4401 149.45 70.8701C151.74 73.3301 151.88 76.7601 151.94 78.7501H139.38C139.35 80.9401 140.59 83.1301 143.39 83.1301C146.19 83.1301 147.2 81.2801 147.84 80.0301L151.75 82.0201L151.74 82.0101ZM146.59 75.5101C146.49 74.7701 146.35 73.7901 145.61 73.0201C144.97 72.3801 143.99 72.0401 143.08 72.0401C141.83 72.0401 140.96 72.6501 140.45 73.1901C139.74 73.9601 139.57 74.7701 139.41 75.5101H146.59Z" fill="black"/>
<path d="M223.87 72.6501H227.31V69.0101H223.91V65.3101H218.76V69.0101H217.94L215.58 72.6501H218.76V81.0001C218.76 82.6801 218.79 83.9301 219.5 84.9701C220.61 86.5901 222.57 86.6901 224.35 86.6901C225.29 86.6901 225.97 86.5901 227.08 86.4201V82.3801L225.23 82.4501C223.85 82.4501 223.85 81.5401 223.88 80.4601V72.6501H223.87Z" fill="black"/>
<path d="M172.41 65.3101H177.56V69.0101H182.92L180.56 72.6501H177.53V80.4601C177.5 81.5401 177.5 82.4501 178.88 82.4501L180.73 82.3801V86.4201C179.62 86.5901 178.94 86.6901 178 86.6901C176.21 86.6901 174.26 86.5901 173.15 84.9701C172.44 83.9301 172.41 82.6801 172.41 81.0001V65.3101Z" fill="black"/>
<path d="M232.08 72.65H231.44V69.54H230.27V69H233.23V69.54H232.08V72.65ZM237.07 72.65H236.44L236.46 70.4L236.49 69.65L236.31 70.26L235.56 72.64H234.99L234.25 70.26L234.06 69.66L234.1 70.4L234.12 72.65H233.51V69.01H234.38L235.29 71.89L236.18 69.01H237.05V72.65H237.07Z" fill="black"/>
<path d="M199.16 82.0301L198.17 83.5501C197.25 84.9101 195.51 86.9901 190.53 86.9901C185.55 86.9901 181.8 83.8001 181.8 78.0401C181.8 73.8001 183.89 68.5701 190.83 68.5701C191.87 68.5701 194.91 68.4401 197.16 70.8701C199.45 73.3301 199.59 76.7601 199.65 78.7501H187.09C187.06 80.9401 188.14 83.1301 190.93 83.1301C193.72 83.1301 194.57 81.2801 195.21 80.0301L199.15 82.0301H199.16ZM194.3 75.5101C194.2 74.7701 194.06 73.7901 193.32 73.0201C192.68 72.3801 191.7 72.0401 190.79 72.0401C189.54 72.0401 188.67 72.6501 188.16 73.1901C187.45 73.9601 187.28 74.7701 187.12 75.5101H194.3Z" fill="black"/>
<path d="M216.82 86.56L210.37 77.32L215.75 69.01H209.85L207.31 72.93L204.58 69.01H198.68L204.48 77.32L198.5 86.56H204.4L207.54 81.71L210.92 86.56H216.82Z" fill="black"/>
<path d="M120.57 70.5601C121.07 69.8101 122.66 68.5701 125.18 68.5701C129.49 68.5701 132.52 71.8401 132.52 77.7001C132.52 81.3001 131.21 87.0001 124.96 87.0001C122.71 87.0001 120.97 85.7501 120.53 85.0101V92.3701H115.34V69.0101H120.56V70.5601H120.57ZM124.07 72.6201C123.13 72.6201 122.15 73.0001 121.41 73.9401C120.67 74.8501 120.33 76.2601 120.33 77.8001C120.33 79.8701 120.94 81.1201 121.58 81.8401C122.18 82.5101 123.06 82.9001 123.9 82.9001C126.43 82.9001 127.54 80.2401 127.54 77.6701C127.54 75.5101 126.9 73.2201 124.78 72.7201C124.54 72.6601 124.31 72.6301 124.07 72.6301V72.6201Z" fill="black"/>
<path d="M56.6802 1.93994H87.1502V9.81994H65.8502V19.1799H86.7002V27.0499H65.8502V44.9899H56.6802V1.93994Z" fill="black"/>
<path d="M89.0801 29.37C89.0801 20.53 95.2801 13.04 105.54 13.04C115.8 13.04 122.06 20.53 122.06 29.37C122.06 38.21 115.86 45.76 105.54 45.76C95.2201 45.76 89.0801 38.27 89.0801 29.37ZM113.54 29.37C113.54 24.53 110.64 20.33 105.54 20.33C100.44 20.33 97.6001 24.53 97.6001 29.37C97.6001 34.21 100.44 38.47 105.54 38.47C110.64 38.47 113.54 34.27 113.54 29.37Z" fill="black"/>
<path d="M124.9 13.8101H133.1V18.0701C135.29 15.2901 139.17 13.1001 143.04 13.1001V21.1001C142.46 20.9701 141.68 20.8401 140.78 20.8401C138.07 20.8401 134.45 22.3901 133.1 24.3901V44.9801H124.9V13.8101Z" fill="black"/>
<path d="M149.74 37.24V20.97H144.58V13.81H149.74V5.29004H158V13.81H164.33V20.97H158V35.04C158 36.98 159.03 38.46 160.84 38.46C162.07 38.46 163.23 38.01 163.68 37.56L165.42 43.76C164.19 44.86 162 45.76 158.58 45.76C152.84 45.76 149.74 42.79 149.74 37.24Z" fill="black"/>
<path d="M166.26 4.91C166.26 2.2 168.52 0 171.17 0C173.82 0 176.08 2.19 176.08 4.91C176.08 7.63 173.89 9.82 171.17 9.82C168.45 9.82 166.26 7.63 166.26 4.91ZM167.1 13.82H175.3V44.99H167.1V13.81V13.82Z" fill="black"/>
<path d="M182.98 20.98H177.82V13.82H182.98V12.14C182.98 5.36005 187.37 1.30005 193.5 1.30005C195.82 1.30005 197.95 1.82005 199.44 2.59005L197.76 8.40005C197.05 7.95005 196.08 7.75005 195.11 7.75005C192.79 7.75005 191.24 9.30005 191.24 12.27V13.82H197.57V20.98H191.24V44.9901H182.98V20.98Z" fill="black"/>
<path d="M204.99 50.34C207.12 50.34 208.54 49.7601 209.31 48.0801L210.47 45.43L197.82 13.8H206.6L214.73 35.4901L222.86 13.8H231.7L217.05 50.07C214.73 55.94 210.6 57.49 205.24 57.62C204.27 57.62 202.21 57.43 201.17 57.17L202.4 49.8101C203.11 50.1301 204.21 50.3301 204.98 50.3301L204.99 50.34Z" fill="black"/>
<path d="M0 3.1001C0 9.5601 0 16.0201 0 22.4801C0.32 22.4801 0.65 22.4701 0.97 22.4701C8.57 22.4701 16.17 22.4701 23.78 22.4701C24.9 22.4701 26 22.3701 27.1 22.1601C30.81 21.4601 34.03 19.8101 36.77 17.2301C40.49 13.7101 42.46 9.3701 42.88 4.2901C42.91 3.9301 42.87 3.5701 42.86 3.1601H41.81C28.22 3.1601 14.63 3.1601 1.04 3.1601C0.69 3.1601 0.35 3.1301 0 3.1101L0 3.1001Z" fill="#1A6AFF"/>
<path d="M0 25.6001C0 32.0601 0 38.5301 0 44.9901C0.32 44.9901 0.65 44.9801 0.97 44.9801C8.57 44.9801 16.17 44.9801 23.78 44.9801C24.9 44.9801 26 44.8801 27.1 44.6701C30.81 43.9701 34.03 42.3201 36.77 39.7401C40.49 36.2201 42.46 31.8801 42.88 26.8001C42.91 26.4401 42.87 26.0801 42.86 25.6701H41.81C28.22 25.6701 14.63 25.6701 1.04 25.6701C0.69 25.6701 0.35 25.6401 0 25.6201L0 25.6001Z" fill="#1A6AFF"/>
</g>
<defs>
<clipPath id="clip0_27_36971">
<rect width="237.07" height="92.37" fill="white"/>
</clipPath>
</defs>
</svg>
