<svg width="48" height="48" fill="none" xmlns="http://www.w3.org/2000/svg"><path d="M3.622 20.45c-.093 0-.116-.047-.07-.117l.491-.633c.047-.07.164-.118.257-.118h8.343c.094 0 .117.07.07.141l-.397.61c-.047.07-.163.14-.233.14l-8.46-.023zM.093 22.608c-.093 0-.116-.047-.07-.117l.491-.633c.047-.07.164-.118.257-.118h10.657c.094 0 .14.07.117.141l-.187.563c-.023.094-.117.14-.21.14l-11.055.024zM5.75 24.766c-.094 0-.118-.07-.071-.14l.327-.587c.047-.07.14-.14.234-.14h4.674c.093 0 .14.07.14.164l-.047.563c0 .094-.093.164-.163.164l-5.095-.024zM30.008 20.028c-1.473.375-2.478.657-3.927 1.032-.35.094-.373.117-.677-.234-.35-.4-.608-.657-1.099-.892-1.472-.727-2.898-.516-4.23.352-1.589 1.032-2.407 2.557-2.384 4.457.024 1.876 1.31 3.425 3.155 3.683 1.59.21 2.922-.352 3.973-1.548.21-.259.398-.54.631-.868h-4.51c-.49 0-.608-.305-.444-.704.304-.727.865-1.947 1.192-2.557.07-.14.233-.375.584-.375h8.507c-.047.633-.047 1.266-.14 1.9-.257 1.689-.888 3.237-1.917 4.597-1.682 2.229-3.88 3.613-6.66 3.988-2.29.305-4.417-.14-6.287-1.548-1.73-1.314-2.71-3.05-2.968-5.208-.304-2.556.444-4.855 1.987-6.873 1.659-2.181 3.856-3.565 6.543-4.058 2.197-.399 4.3-.14 6.193 1.15 1.239.82 2.127 1.947 2.711 3.307.14.211.047.329-.233.399z" fill="#44C0B0"/><path d="M37.743 33c-2.126-.047-4.066-.657-5.702-2.064-1.379-1.197-2.244-2.721-2.524-4.528-.42-2.65.304-4.996 1.893-7.084 1.706-2.252 3.763-3.425 6.544-3.917 2.383-.422 4.627-.188 6.66 1.196 1.846 1.267 2.992 2.98 3.295 5.231.398 3.167-.514 5.747-2.687 7.952-1.543 1.572-3.436 2.557-5.61 3.003-.63.117-1.261.14-1.869.211zm5.563-9.477c-.024-.305-.024-.54-.07-.774-.421-2.322-2.548-3.636-4.768-3.12-2.174.493-3.576 1.877-4.09 4.082-.42 1.83.467 3.683 2.15 4.433 1.285.563 2.57.493 3.81-.14 1.846-.962 2.85-2.464 2.968-4.48z" fill="#44C0B0"/></svg>