<svg width="48" height="48" viewBox="0 0 48 48" fill="none" xmlns="http://www.w3.org/2000/svg">
<path d="M0.0934816 0.867929C-1.32334e-07 0.867929 -0.0233704 0.821014 0.0233705 0.750641L0.514149 0.117288C0.56089 0.0469151 0.677742 0 0.771223 0H9.11447C9.20795 0 9.23132 0.0703723 9.18458 0.140745L8.78728 0.750641C8.74054 0.821014 8.62369 0.891386 8.55358 0.891386L0.0934816 0.867929Z" transform="translate(3.52893 19.5823)" fill="#44C0B0"/>
<path d="M0.0934819 0.867931C1.95018e-07 0.867931 -0.0233705 0.821016 0.0233704 0.750643L0.514149 0.117288C0.56089 0.0469151 0.677743 0 0.771224 0H11.4281C11.5216 0 11.5684 0.0703723 11.545 0.140745L11.358 0.703727C11.3347 0.797557 11.2412 0.844472 11.1477 0.844472L0.0934819 0.867931Z" transform="translate(0 21.7404)" fill="#44C0B0"/>
<path d="M0.0934816 0.867929C-1.32334e-07 0.867929 -0.0233704 0.797557 0.0233705 0.727184L0.350557 0.140745C0.397298 0.0703723 0.490779 0 0.584261 0H5.25835C5.35183 0 5.39857 0.0703719 5.39857 0.164202L5.35183 0.727184C5.35183 0.821014 5.25835 0.891386 5.18823 0.891386L0.0934816 0.867929Z" transform="translate(5.65564 23.8985)" fill="#44C0B0"/>
<path d="M17.2673 5.02797C15.7949 5.40329 14.79 5.68478 13.341 6.0601C12.9905 6.15393 12.9671 6.17739 12.6633 5.82553C12.3127 5.42675 12.0557 5.16872 11.5649 4.93414C10.0925 4.20696 8.66694 4.41807 7.33483 5.286C5.74564 6.31814 4.92767 7.84288 4.95104 9.74294C4.97441 11.6195 6.25979 13.1677 8.10605 13.4258C9.69524 13.6369 11.0274 13.0739 12.079 11.8776C12.2894 11.6195 12.4763 11.3381 12.71 11.0096C11.8687 11.0096 10.817 11.0096 8.19953 11.0096C7.70875 11.0096 7.5919 10.7047 7.75549 10.3059C8.05931 9.57874 8.6202 8.35894 8.94739 7.74905C9.0175 7.6083 9.18109 7.37373 9.53165 7.37373C10.7235 7.37373 15.1172 7.37373 18.0385 7.37373C17.9917 8.00708 17.9917 8.64043 17.8983 9.27379C17.6412 10.9627 17.0102 12.5109 15.9819 13.8715C14.2992 16.0999 12.1024 17.4839 9.32131 17.8593C7.03101 18.1642 4.9043 17.7185 3.03467 16.3111C1.30525 14.9974 0.323697 13.2616 0.0666227 11.1035C-0.237193 8.5466 0.510661 6.24776 2.05311 4.23041C3.71241 2.04886 5.90923 0.664864 8.59683 0.172255C10.7936 -0.226523 12.897 0.03151 14.79 1.32168C16.0286 2.14269 16.9167 3.26865 17.501 4.62919C17.6412 4.84031 17.5477 4.9576 17.2673 5.02797Z" transform="translate(12.7404 15)" fill="#44C0B0"/>
<path d="M8.34409 17.7828C6.21738 17.7359 4.27763 17.126 2.6417 15.7185C1.26285 14.5222 0.398142 12.9974 0.117697 11.1912C-0.30297 8.54051 0.421514 6.19475 2.0107 4.10703C3.71674 1.85511 5.77334 0.682226 8.55442 0.189618C10.9382 -0.232618 13.1818 0.00195678 15.215 1.38595C17.0613 2.65266 18.2064 4.36506 18.5102 6.61699C18.9075 9.78376 17.9961 12.3641 15.8226 14.5691C14.2802 16.1408 12.3872 17.126 10.2137 17.5717C9.58272 17.689 8.95172 17.7124 8.34409 17.7828ZM13.9063 8.30593C13.8829 8.00098 13.8829 7.76641 13.8361 7.53183C13.4155 5.20953 11.2888 3.89591 9.06857 4.41198C6.89512 4.90459 5.4929 6.28858 4.97875 8.49359C4.55808 10.3233 5.44616 12.1764 7.12883 12.9271C8.4142 13.4901 9.69957 13.4197 10.9382 12.7863C12.7845 11.8246 13.7894 10.3233 13.9063 8.30593Z" transform="translate(29.3992 15.2172)" fill="#44C0B0"/>
</svg>
