<?xml version="1.0" encoding="UTF-8" standalone="no"?><svg xmlns:dc="http://purl.org/dc/elements/1.1/" xmlns:cc="http://creativecommons.org/ns#" xmlns:rdf="http://www.w3.org/1999/02/22-rdf-syntax-ns#" xmlns:svg="http://www.w3.org/2000/svg" xmlns="http://www.w3.org/2000/svg" id="svg5347" version="1.1" viewBox="0 0 216.78116 136.34911" height="136.34911mm" width="216.78116mm"><defs id="defs5341"><clipPath clipPathUnits="userSpaceOnUse" id="clipPath5908"><path d="M 0,0 H 778.44 V 563.391 H 0 Z" id="path5906" /></clipPath><clipPath clipPathUnits="userSpaceOnUse" id="clipPath5938"><path d="m 273.316,242.517 h 231.381 v 231.38 H 273.316 Z" id="path5936" /></clipPath></defs><metadata id="metadata5344"><rdf:RDF><cc:Work rdf:about=""><dc:format>image/svg+xml</dc:format><dc:type rdf:resource="http://purl.org/dc/dcmitype/StillImage" /><dc:title></dc:title></cc:Work></rdf:RDF></metadata><g transform="translate(4.0691567,-83.682598)" id="layer1"><g id="g5900" transform="matrix(0.35277777,0,0,-0.35277777,-32.91135,242.36853)"><g id="g5902"><g id="g5904" clip-path="url(#clipPath5908)"><g id="g5910" transform="translate(376.9634,115.709)"><path d="m 0,0 24.292,10.087 c -0.687,1.714 -1.956,3.104 -3.809,4.169 -1.853,1.063 -3.946,1.595 -6.279,1.595 -3.499,0 -6.777,-1.441 -9.83,-4.322 C 1.32,8.646 -0.138,4.802 0,0 m 15.131,-27.998 c -7.686,0 -14.102,2.608 -19.248,7.823 -5.147,5.214 -7.72,11.665 -7.72,19.352 0,7.958 2.487,14.477 7.462,19.556 4.975,5.077 11.03,7.617 18.167,7.617 3.294,0 6.347,-0.601 9.162,-1.801 2.813,-1.201 5.146,-2.746 6.999,-4.632 1.853,-1.888 3.328,-3.723 4.426,-5.507 1.097,-1.785 1.989,-3.569 2.676,-5.352 L 38.291,5.97 1.955,-9.058 c 2.813,-5.491 7.206,-8.234 13.176,-8.234 5.489,0 9.949,2.503 13.381,7.514 l 9.263,-6.177 c -2.058,-3.087 -4.975,-5.867 -8.748,-8.337 -3.776,-2.47 -8.407,-3.706 -13.896,-3.706 m -32.732,1.648 h -11.94 v 79.875 h 11.94 z m -45.187,9.058 c 4.117,0 7.566,1.559 10.345,4.683 2.779,3.121 4.168,7.015 4.168,11.683 0,4.734 -1.389,8.679 -4.168,11.837 -2.779,3.155 -6.228,4.734 -10.345,4.734 -4.186,0 -7.755,-1.579 -10.704,-4.734 -2.952,-3.158 -4.426,-7.103 -4.426,-11.837 0,-4.668 1.474,-8.562 4.426,-11.683 2.949,-3.124 6.518,-4.683 10.704,-4.683 m -0.824,-35.1 c -6.038,0 -11.116,1.613 -15.233,4.837 -4.117,3.227 -7.069,6.966 -8.853,11.221 l 10.397,4.322 c 1.097,-2.607 2.813,-4.872 5.146,-6.793 2.332,-1.92 5.181,-2.883 8.543,-2.883 4.53,0 8.081,1.374 10.654,4.118 2.573,2.745 3.86,6.691 3.86,11.837 v 3.911 h -0.412 c -3.363,-4.117 -8.131,-6.176 -14.308,-6.176 -6.931,0 -13.004,2.642 -18.218,7.926 -5.216,5.283 -7.823,11.666 -7.823,19.146 0,7.547 2.607,13.98 7.823,19.3 5.214,5.316 11.287,7.976 18.218,7.976 3.089,0 5.884,-0.583 8.39,-1.749 2.503,-1.169 4.477,-2.609 5.918,-4.324 h 0.412 v 4.426 h 11.322 v -48.789 c 0,-9.469 -2.419,-16.554 -7.256,-21.256 -4.838,-4.699 -11.031,-7.05 -18.58,-7.05 m -69.272,39.783 c 3.019,-3.124 6.621,-4.683 10.808,-4.683 4.184,0 7.788,1.559 10.808,4.683 3.019,3.121 4.528,7.051 4.528,11.786 0,4.802 -1.492,8.749 -4.477,11.836 -2.985,3.089 -6.605,4.632 -10.859,4.632 -4.256,0 -7.875,-1.543 -10.86,-4.632 -2.984,-3.087 -4.477,-7.034 -4.477,-11.836 0,-4.735 1.509,-8.665 4.529,-11.786 m 30.159,-7.617 c -5.285,-5.182 -11.734,-7.772 -19.351,-7.772 -7.617,0 -14.068,2.59 -19.351,7.772 -5.285,5.18 -7.926,11.648 -7.926,19.403 0,7.753 2.641,14.22 7.926,19.402 5.283,5.181 11.734,7.771 19.351,7.771 7.617,0 14.066,-2.59 19.351,-7.771 5.283,-5.182 7.926,-11.649 7.926,-19.402 0,-7.755 -2.643,-14.223 -7.926,-19.403 m -89.653,7.617 c 3.019,-3.124 6.621,-4.683 10.808,-4.683 4.184,0 7.787,1.559 10.807,4.683 3.019,3.121 4.53,7.051 4.53,11.786 0,4.802 -1.493,8.749 -4.478,11.836 -2.985,3.089 -6.605,4.632 -10.859,4.632 -4.256,0 -7.875,-1.543 -10.86,-4.632 -2.985,-3.087 -4.476,-7.034 -4.476,-11.836 0,-4.735 1.508,-8.665 4.528,-11.786 m 30.159,-7.617 c -5.285,-5.182 -11.735,-7.772 -19.351,-7.772 -7.617,0 -14.068,2.59 -19.352,7.772 -5.284,5.18 -7.925,11.648 -7.925,19.403 0,7.753 2.641,14.22 7.925,19.402 5.284,5.181 11.735,7.771 19.352,7.771 7.616,0 14.066,-2.59 19.351,-7.771 5.283,-5.182 7.926,-11.649 7.926,-19.402 0,-7.755 -2.643,-14.223 -7.926,-19.403 m -90.168,-7.772 c -11.666,0 -21.718,4.134 -30.159,12.404 -8.44,8.268 -12.66,18.201 -12.66,29.798 0,11.597 4.22,21.529 12.66,29.799 8.441,8.268 18.493,12.403 30.159,12.403 11.185,0 20.826,-3.877 28.924,-11.631 l -8.132,-8.131 c -5.833,5.488 -12.763,8.234 -20.792,8.234 -8.44,0 -15.594,-2.985 -21.461,-8.955 -5.867,-5.97 -8.8,-13.211 -8.8,-21.719 0,-8.509 2.933,-15.748 8.8,-21.718 5.867,-5.97 13.021,-8.955 21.461,-8.955 8.577,0 15.679,2.813 21.307,8.44 3.362,3.362 5.455,8.199 6.279,14.514 h -27.586 v 11.527 h 38.805 c 0.412,-2.057 0.618,-4.46 0.618,-7.205 0,-11.322 -3.329,-20.312 -9.984,-26.968 -7.55,-7.891 -17.362,-11.837 -29.439,-11.837" style="fill:#5f6368;fill-opacity:1;fill-rule:nonzero;stroke:none" id="path5912" /></g><g id="g5914" transform="translate(477.9388,87.7114)"><path d="m 0,0 c -10.843,0 -19.935,3.67 -27.277,11.013 -7.343,7.343 -11.014,16.503 -11.014,27.484 0,10.978 3.671,20.139 11.014,27.482 7.342,7.342 16.434,11.013 27.277,11.013 11.116,0 20.138,-4.014 27.071,-12.043 L 20.483,58.568 C 15.473,64.812 8.646,67.934 0,67.934 c -8.029,0 -14.806,-2.711 -20.329,-8.131 -5.525,-5.421 -8.286,-12.524 -8.286,-21.306 0,-8.785 2.761,-15.887 8.286,-21.307 5.523,-5.422 12.3,-8.132 20.329,-8.132 8.852,0 16.399,3.567 22.645,10.705 l 6.587,-6.587 C 25.869,9.126 21.649,5.919 16.572,3.552 11.492,1.184 5.97,0 0,0" style="fill:#5f6368;fill-opacity:1;fill-rule:nonzero;stroke:none" id="path5916" /></g><path d="m 525.079,89.359 h -9.47 v 73.698 h 9.47 z" style="fill:#5f6368;fill-opacity:1;fill-rule:nonzero;stroke:none" id="path5918" /><g id="g5920" transform="translate(547.5704,101.3496)"><path d="m 0,0 c 3.259,-3.329 7.119,-4.992 11.58,-4.992 4.459,0 8.319,1.663 11.58,4.992 3.258,3.328 4.889,7.736 4.889,13.227 0,5.489 -1.631,9.897 -4.889,13.227 -3.261,3.327 -7.121,4.992 -11.58,4.992 C 7.119,31.446 3.259,29.781 0,26.454 -3.26,23.124 -4.889,18.716 -4.889,13.227 -4.889,7.736 -3.26,3.328 0,0 m -7.051,32.424 c 4.872,5.111 11.081,7.668 18.631,7.668 7.547,0 13.757,-2.557 18.63,-7.668 4.872,-5.113 7.309,-11.513 7.309,-19.197 0,-7.686 -2.437,-14.085 -7.309,-19.197 -4.873,-5.113 -11.083,-7.668 -18.63,-7.668 -7.55,0 -13.759,2.555 -18.631,7.668 -4.872,5.112 -7.307,11.511 -7.307,19.197 0,7.684 2.435,14.084 7.307,19.197" style="fill:#5f6368;fill-opacity:1;fill-rule:nonzero;stroke:none" id="path5922" /></g><g id="g5924" transform="translate(637.4815,89.3586)"><path d="M 0,0 H -9.058 V 6.999 H -9.47 c -1.441,-2.403 -3.638,-4.444 -6.587,-6.124 -2.951,-1.681 -6.073,-2.522 -9.367,-2.522 -6.314,0 -11.1,1.921 -14.359,5.764 -3.26,3.842 -4.889,8.989 -4.889,15.44 v 30.879 h 9.47 V 21.101 c 0,-9.402 4.151,-14.102 12.454,-14.102 3.912,0 7.102,1.578 9.573,4.735 2.47,3.156 3.705,6.794 3.705,10.911 V 50.436 H 0 Z" style="fill:#5f6368;fill-opacity:1;fill-rule:nonzero;stroke:none" id="path5926" /></g><g id="g5928" transform="translate(671.1402,96.3577)"><path d="m 0,0 c 4.46,0 8.251,1.647 11.374,4.941 3.122,3.293 4.683,7.719 4.683,13.278 0,5.558 -1.561,9.984 -4.683,13.279 -3.123,3.293 -6.914,4.94 -11.374,4.94 -4.392,0 -8.167,-1.665 -11.323,-4.992 -3.156,-3.33 -4.734,-7.738 -4.734,-13.227 0,-5.491 1.578,-9.899 4.734,-13.227 C -8.167,1.663 -4.392,0 0,0 m -1.544,-8.646 c -6.52,0 -12.146,2.573 -16.881,7.72 -4.735,5.146 -7.102,11.528 -7.102,19.145 0,7.617 2.367,13.999 7.102,19.145 4.735,5.147 10.361,7.72 16.881,7.72 3.842,0 7.29,-0.824 10.345,-2.47 3.052,-1.648 5.334,-3.706 6.845,-6.176 h 0.411 l -0.411,6.999 v 23.262 h 9.469 V -6.999 H 16.057 V 0 H 15.646 C 14.135,-2.47 11.853,-4.529 8.801,-6.176 5.746,-7.823 2.298,-8.646 -1.544,-8.646" style="fill:#5f6368;fill-opacity:1;fill-rule:nonzero;stroke:none" id="path5930" /></g></g></g><g id="g5932"><g id="g5934" clip-path="url(#clipPath5938)"><g id="g5940" transform="translate(419.2654,400.5364)"><path d="m 0,0 7.102,-0.134 19.298,19.298 0.935,8.171 c -15.333,13.639 -35.507,21.947 -57.594,21.947 -39.991,0 -73.732,-27.203 -83.736,-64.072 2.112,1.46 6.605,0.373 6.605,0.373 l 38.567,6.336 c 0,0 1.995,3.279 2.981,3.077 8.821,9.655 21.506,15.723 35.583,15.723 C -18.806,10.719 -8.279,6.697 0,0" style="fill:#ea4335;fill-opacity:1;fill-rule:nonzero;stroke:none" id="path5942" /></g><g id="g5944" transform="translate(472.7564,385.6973)"><path d="M 0,0 C -4.476,16.534 -13.723,31.121 -26.174,42.189 L -53.51,14.854 c 10.946,-8.844 17.964,-22.366 17.964,-37.501 v -4.82 c 13.29,0 24.102,-10.812 24.102,-24.102 0,-13.291 -10.812,-24.102 -24.107,-24.102 H -83.75 l -4.824,-4.846 v -28.923 l 4.824,-4.795 h 48.204 c 34.554,0 62.666,28.112 62.666,62.666 C 27.12,-30.208 16.368,-11.318 0,0" style="fill:#4285f4;fill-opacity:1;fill-rule:nonzero;stroke:none" id="path5946" /></g><g id="g5948" transform="translate(340.8001,271.4624)"><path d="M 0,0 H 48.167 V 38.563 H 0.006 c -3.542,0 -6.897,0.788 -9.93,2.166 l -6.947,-2.124 -19.307,-19.306 -1.691,-6.515 C -27.342,4.771 -14.22,0.001 0,0" style="fill:#34a853;fill-opacity:1;fill-rule:nonzero;stroke:none" id="path5950" /></g><g id="g5952" transform="translate(340.8023,396.7935)"><path d="m 0,0 c -34.554,0 -62.666,-28.112 -62.666,-62.666 0,-20.345 9.752,-38.449 24.821,-49.905 l 27.951,27.952 c -8.364,3.785 -14.208,12.191 -14.208,21.953 0,13.291 10.812,24.103 24.102,24.103 9.762,0 18.169,-5.844 21.954,-14.209 l 27.951,27.951 C 38.45,-9.752 20.345,0 0,0" style="fill:#fbbc05;fill-opacity:1;fill-rule:nonzero;stroke:none" id="path5954" /></g></g></g></g></g></svg> 