<svg fill="none" height="48" viewBox="0 0 48 48" width="48" xmlns="http://www.w3.org/2000/svg"><path d="m38.1004 39c-1.6282 0-3.9077 0-5.536 0-.3256 0-2.9308-4.5671-5.5359-5.5458-2.9308-1.9573-5.8616-1.3049-7.4898 1.9574 0 .3262-1.3026 3.2622-1.3026 3.2622s-3.5821 0-4.2334 0c-.6513-1.3049-.3256-3.2622-.9769-4.2409-1.3026-1.9573-3.25647-1.9573-4.55904-.3262-1.62823 1.6311-2.27951 4.5671-2.27951 4.5671s-4.23338 0-6.18725 0c0-1.9574.325644-4.5671.325644-6.5245.325645-3.5884.976936-6.8506 2.605156-10.1128 1.30258-2.6098 3.58209-4.5671 6.51289-5.5458.32564.6524.65131 1.3049.97691 1.9573.6513.9787.977 1.9573 1.6282 2.6098 1.3026 1.9573 3.2565 2.2835 5.2104 1.3049 1.6282-.6525 2.9308-1.9573 3.582-3.5885-.3256.3263-.3256.6525-.6512.6525-1.3026.6524-2.6052 1.6311-3.9078 1.9573-1.3026.6525-2.6051 0-3.2564-.9786-.977-1.9574-2.2795-3.9147-3.25647-6.1983-.65128-1.3049 0-2.6097 1.62827-3.2622 2.2795-.6524 4.559-1.6311 6.8385-1.95732 4.8847-.65244 9.7693.65245 13.6771 3.58842 2.2795 1.6311 4.559 2.2836 7.1641 1.6311 2.6052-.6524 4.2334-2.2835 4.8847-4.89329.3257-1.63111 0-2.936-1.3026-4.24089-1.3026-.97867-2.6051-1.30489-3.9077-.97867-.3257 0-.6513.32623-.9769.32623-.6513.32622-1.3026.32622-1.6283-.65245-.9769-1.63111-.6513-2.28355.977-3.262217 3.2564-1.304888 7.1641 0 9.118 2.935997 1.9539 3.26222 2.2795 6.52444.977 10.11289-1.3026 3.9147-3.2565 7.5031-5.8617 11.0915-1.9538 2.2836-3.582 4.8934-3.9077 7.8294 0 2.2835.6513 4.5671.6513 6.5244z" fill="#404040" transform="translate(0 3)"/><path d="m2.85473 4.24089c-.32564 0-.65129-.00001-.97693-.32623-1.628224-.32622-2.279513-2.28355-1.628224-3.91466l1.302574.326223c-.651286 1.304887 0 2.283557.97694 2.935997.65129.32622.65128.32622 1.30257 0s.97694-.97867 1.30258-1.63111l1.30258.32622c-.32564.65245-1.30258 1.63111-1.95387 1.95733s-.97693.32623-1.62822.32623z" fill="#fff" transform="translate(29.0583 20.1431)"/></svg>