<svg fill="none" height="48" width="48" xmlns="http://www.w3.org/2000/svg"><path d="M38.1 42h-5.536c-.325 0-2.93-4.567-5.536-5.546-2.93-1.957-5.861-1.305-7.49 1.958 0 .326-1.302 3.262-1.302 3.262h-4.233c-.652-1.305-.326-3.262-.977-4.241-1.303-1.957-3.257-1.957-4.56-.326-1.627 1.63-2.279 4.567-2.279 4.567H0c0-1.958.326-4.567.326-6.525.325-3.588.977-6.85 2.605-10.113 1.302-2.61 3.582-4.567 6.513-5.545l.977 1.957c.65.979.977 1.957 1.628 2.61 1.302 1.957 3.256 2.283 5.21 1.305a6.456 6.456 0 003.582-3.589c-.325.326-.325.653-.651.653-1.303.652-2.605 1.63-3.908 1.957-1.302.652-2.605 0-3.256-.979-.977-1.957-2.28-3.914-3.257-6.198-.65-1.305 0-2.61 1.629-3.262 2.28-.653 4.559-1.631 6.838-1.957 4.885-.653 9.77.652 13.677 3.588 2.28 1.631 4.56 2.284 7.164 1.631 2.606-.652 4.234-2.283 4.885-4.893.326-1.631 0-2.936-1.303-4.241-1.302-.979-2.605-1.305-3.907-.979-.326 0-.652.326-.977.326-.651.327-1.303.327-1.628-.652-.977-1.631-.652-2.284.977-3.262 3.256-1.305 7.164 0 9.117 2.936 1.954 3.262 2.28 6.524.978 10.113-1.303 3.914-3.257 7.503-5.862 11.091-1.954 2.284-3.582 4.894-3.908 7.83 0 2.283.651 4.567.651 6.524z" fill="#404040"/><path d="M31.913 24.384c-.326 0-.651 0-.977-.326-1.628-.326-2.28-2.284-1.628-3.915l1.302.326c-.65 1.305 0 2.284.977 2.936.652.327.652.327 1.303 0s.977-.978 1.303-1.63l1.302.325c-.326.653-1.302 1.632-1.954 1.958s-.977.326-1.628.326z" fill="#fff"/></svg>