<svg fill="none" height="48" viewBox="0 0 48 48" width="48" xmlns="http://www.w3.org/2000/svg"><path d="m1.15441 5.88083s.80817 3.17052.92345 4.22757c.11555 1.0567-2.07786 3.4053-2.07786 4.5796 0 1.1744.461104 3.288 3.00116 4.345 2.54006 1.0569 2.88603 3.7576 2.88603 5.402 0 1.6439-.92345 4.8141-.92345 4.8141s-.57693 7.8677 2.53965 9.2768c3.11661 1.4089 2.42423 1.4089 3.11661 1.4089.6924 0 5.772 2.1143 8.7733 1.2921 3.0016-.8219 3.8091-1.7613 3.8091-1.7613s3.0017.2347 3.9251-2.4665c.9239-2.7006 1.5008-8.337 1.1543-10.9205-.3464-2.5838-.8079-5.9885 1.2697-7.163 2.0785-1.1744 4.2715-2.583 3.9252-3.7576-.3464-1.1744-2.1929-2.8185-2.1929-2.8185s-.4619-2.93539-.1158-3.64008c.3461-.70454 2.4242-2.46638 1.2697-3.75779-1.1538-1.29154-3.2323-1.29154-3.2323-1.29154l-2.6549.23452s-4.5021-4.10972-10.3896-3.8749188c-5.8872.2348008-9.58151 3.8749188-9.58151 3.8749188s-1.9623-.70455-3.69405 0c-1.73176.70482-2.077033-.00014-1.73093 1.99622z" fill="#fba919" transform="translate(8.10559 5.78546)"/><path d="m3.98691 7.52315s-2.28612 3.55555-3.9629872 6.07895c-.2594398.3904 1.6768672.4174 1.6768672.4174l2.28612-6.49649zm1.08838-7.371888s-.68918 1.748838-1.06664 2.675868c-.40966 1.0079-1.97207 1.50927-1.97207 1.50927s.80981-.86406.80981-3.05297c0-.918216 1.16556-1.28343 1.16556-1.28343l1.06334.151124z" fill="#e78724" transform="translate(15.8214 21.6269)"/><path d="m9.90259 18.354s-1.41193 1.7097-4.03328.7522c-2.62205-.9572-2.89084-4.3767-2.89084-5.3341s4.97474.9574 5.64728 1.3678c.67239.4104 1.94895 2.0513 1.2767 3.2141zm-9.90259-18.2676959s2.42011-.4791171 4.03328.8204039c1.614 1.299242 2.08405 2.325202 2.08405 2.325202l-2.71944 2.19269s-1.31398-.61961-1.71731-2.39783c-.40333-1.77808-.1344-2.598479-1.68058-2.9404659z" fill="#e78724" transform="translate(10.298 4.41284)"/><path d="m11.6054 10.6539c-1.0419-1.5045-2.75907-2.16077-4.13014-2.26949-2.33771-.18597-3.44755.65473-3.44755.65473s3.8286.16483 4.93211 1.63916c2.05438 2.744 5.05138 2.9669 5.53058 2.3642-.5542.0281-1.1637-.2512-1.8163-.8787-.4076-.3927-.738-1.0323-1.0687-1.5099zm-6.46317 5.3198s-4.247877-1.4854-3.44053-2.9895c.80652-1.5047.16452-2.3245.16452-2.3245s-2.37196 1.8011-1.7676556 3.7159c.3715516 1.1751.9947056 2.026 4.4166656 3.6573 1.64137 3.1013.33895 8.6833.41694 8.7095.13.0439 2.30456-1.0933 2.15613-6.3157-.04539-1.6036-.1714-3.7929-1.94607-4.4528zm5.56657-15.97356015c-1.78117.92045315-4.22136 2.20234015-4.22136 2.20234015l.96045.48878c-.09176.15098-.13591.24109-.13591.24109l.98576.45589s2.40636 1.77318 3.88056 2.91332c-.4915-1.54005-1.9345-3.95901-1.9345-3.95901s-.40882-1.11145.465-2.34255zm5.9173 37.52116015c-5.4749 0-7.32926-2.8272-7.32926-2.8272l.85566 2.1194c.3232.9168 3.7733 3.77 6.4653 3.77" fill="#e78724" transform="translate(7.88928 7.17487)"/><path d="m8.86066 26.1017s.50375 3.1313 2.52064 3.1313c1.7139 0 2.2189-2.6451 2.2189-3.1918zm-3.35634-4.7226c.17924-.5018.80665-2.5305 1.00818-4.3767.24156-2.2113.15352-5.4454.15352-5.4454s-.53814 2.1199-1.00874 2.4625c-.47032.3417-1.34452 2.6666-1.34452 2.6666s-.46825 3.4613-.6911 4.6247c.61682.1255 1.13598-.2441 1.88266.0683zm-4.870481-13.7198s1.142581-.41069 1.479051-2.94061c.33606-2.53034-.4036-4.71869-.4036-4.71869s.06713 3.48759-.33606 4.1717c-.403605.68356-.739391.88883-1.210262 1.77808-.47087.88939.201527 1.43582.470871 1.70952z" fill="#e78724" transform="translate(8.92535 13.857)"/><path d="m.488363.150284-.233303-.150284c-.687804.023648.233303.150284.233303.150284z" fill="#fdc168" transform="translate(10.4351 4.94733)"/><path d="m10.9355 3.48349s-1.07514-.18219-1.61328-1.00274c-.53814-.82068-2.06162-2.462187-4.49054-2.48037781-2.42877-.01847059-4.83168.65668681-4.83168.65668681l2.09753 1.348221c.22188-.00742.6098-.00434 1.25125.01749 2.6325.08899 3.03775 2.73757 3.03775 2.73757l9.27737-1.29952" fill="#fba919" transform="translate(8.59241 2.94232)"/><path d="m6.37594 4.01218s-1.2551 1.27658-3.1826.86603c-1.92737-.41013-3.09292-1.27644-3.1824718-2.78109-.0895521-1.504519.4037408-2.09712.4037408-2.09712s2.151041.684254 3.182471 1.59617c1.03088.91164 1.79269 2.37054 2.77873 2.41601z" fill="#fff" transform="translate(14.0488 17.0428)"/><path d="m4.1731 2.1314s-1.08852.5057-2.30511.09375c-1.59254-.5404-1.6986-2.22515-1.6986-2.22515s-.977094 2.91654 1.76215 3.47794c2.19699.45015 3.49639-.84489 3.49639-.84489l-1.25483-.50179z" fill="#c9c9c9" transform="translate(14.7327 18.4676)"/><path d="m12.0733 5.80706c-.1171-2.5011 1.8986-4.49313 2.5971-4.57806.0386.42384-.039 2.0771.6592 2.58547.2033-1.35032.8907-2.839165 3.6052-3.81447-.5813 1.56846-.0777 2.88226.1624 3.49123 1.8534-1.71133 3.1024-1.42868 3.1024-1.42868s-1.288 2.2607-.7841 3.74409c-3.7211-.29679-9.324.40215-9.3422.00056zm-7.88856 3.80998c-.88796-.74932-.22615-1.44462-.29631-2.29595-.0381-.45295-.07332-.8803-.2201-1.11608-.81711-1.31225-2.744472-1.71049-2.76373-1.71469l-.9046-.18023.598802-.71251c.077584-.09236 2.536618-2.47913 6.342238-1.22928 2.66208.8733 4.63276 3.83475 4.70606 3.95439l-1.3347.6385c-.0157-.02519-1.57371-2.80894-3.8575-3.55798-1.84606-.60589-3.54769-.02938-4.27635.34843.77474.31456 1.7876.88757 2.39796 1.86777.28791.46303.33661 1.04583.38352 1.6103.0619.74723.11968 1.45261.66029 1.90948zm-2.37128 10.93756s1.11851-1.411 1.44989-4.1565c.13014-1.0815-.1011-3.2144-.471-4.0349.06726 2.0173-.4369 4.0349-.4369 4.0349s-.33991 3.7461-.54199 4.1565z" fill="#463014" transform="translate(7.60596)"/><path d="m4.73003 3.88251c-.00069-.00294-.35904-1.59589-1.3525-2.40006-1.40147-1.133987-3.112588-.530753-3.129095-.525436l-.248435-.780804c.0828116-.027286 2.03865-.654168 3.84111.634718 1.81333 1.296162 2.03095 2.471152 2.04979 2.600862l-1.16101.47072zm-2.38517 11.35059s-.58683-.8545-.48132-1.7943c.05254-.4641.26411-.9406.64144-1.1096.70156-.3135 1.01245.4953 1.01245.4953s-.98727.2479-1.17257 2.4086z" fill="#463014" transform="translate(10.5877 4.30951)"/><path d="m6.07845 4.40651c.02448.04645.03714.07262.03714.07262s-1.83052 1.39733-3.7063-.02071c-1.00419-.75981-.90928-2.63892-.60169-3.43582.80005.18443 1.4785.51676 2.04553.90492-.71669-.65067-1.34397-1.129644-1.34232-1.140699l-.81464-.23452-1.58332-.552301c-.020221.122858-.597701 2.87638 1.06926 4.75255.7387.83202 4.20248 2.69503 5.84716-.49059l-.95082.14441z" fill="#463014" transform="translate(13.2976 16.4387)"/><path d="m7.34863 4.99471c1.03047 1.59547 3.63067.6837 3.58597-1.00301 0 0-1.73742.97531-3.27246-.82054-.89621-1.04835-3.76779-3.939145-7.66214-2.978532 2.68931.601695 6.2498 3.100832 7.3485 4.802082z" fill="#463014" transform="translate(11.856 16.0552)"/><path d="m4.49232 16.9181c.24789.1457 1.12222 1.0668 1.12277 2.4443 0 .6908-.06754 4.1611-.40374 6.2811.50554.3342.85769.4053 1.36117.7459.25201-2.4554.43276-6.0141.34858-7.4507-.0963-1.6376-.95839-2.7366-1.75776-3.2052-.25036-.1465-.51186-.2905-.77529-.4353-1.36914-.7526-2.78505-1.5311-2.78505-2.8603 0-1.04.39755-1.3652.81821-1.71l.04539-.0373c.27925-.2295.59509-.4898.78231-.91698.51076-1.16812.59426-4.14399 0-4.89933-.29631-.37641-1.09003-1.64221-.86182-2.49284.08694-.32463.28792-.56531.61517-.73574.34624-.18051.81409-.27189 1.38992-.27189 1.13102 0 2.38558.35025 3.0328.55874 2.31281.74568 5.10362 2.89555 5.90352 3.53671.023.01791.0365.0284.039.03008l.5118.36214-.3201-.54489c-.0198-.034-2.0473-3.42532-5.6727-4.668729-.70528-.241937-2.09093-.647871-3.45278-.647871-.81064 0-1.49872.144127-2.04333.427763-.664.345485-1.11355.896667-1.30036 1.593507-.457801 1.70812 1.03322 3.60989 1.08398 3.67076.17388.31568.24761 2.6087-.15407 3.52636-.05502.12677-.20661.25117-.39824.40859-.06011.04939-.12724.10075-.19836.1556-.566611.43502-1.42334 1.09232-1.42334 2.60732 0 2.0729 2.06534 3.1968 3.72515 4.1005.27237.149.53222.29.76717.4277z" fill="#463014" transform="translate(7 8.63474)"/><path d="m4.18474 7.61003c-.88796-.74932-.22615-1.44463-.29631-2.29596-.0381-.45295-.07332-.88029-.2201-1.11607-.81711-1.31225-2.744472-1.71049-2.76373-1.71469l-.9046-.18023.598802-.71252c.077584-.09235 2.536618-2.47912 6.342238-1.229274 2.66208.873294 4.63276 3.834754 4.70606 3.954394l-1.3347.6385c-.0157-.02519-1.57371-2.80894-3.8575-3.55798-1.84606-.605892-3.54769-.02938-4.27635.34842.77474.31457 1.7876.88757 2.39796 1.86778.28791.46302.33661 1.04583.38352 1.6103.0619.74722.11968 1.45261.66029 1.90947z" fill="#463014" transform="translate(7.60596 2.00702)"/><path d="m4.408 7.90025-.05737-.04841c-.65836-.5558-.54157-1.1032-.4285-1.63297.05145-.24446.10565-.49717.08364-.75646-.0359-.43588-.07043-.84713-.19946-1.05465-.77791-1.24956-2.65809-1.64976-2.67666-1.65368l-1.12965-.22542.748881-.89065c.013756-.01679 1.592679-1.63801 4.266719-1.63801.72908 0 1.47589.123417 2.21886.367594 2.77844.911216 4.76044 3.981816 4.77914 4.012186l.0802.13041-1.5789.75534-.0633-.10215c-.17-.29469-1.66711-2.80614-3.78499-3.50102-.52012-.17072-1.06816-.25705-1.62831-.25705-1.01465 0-1.8374.28125-2.27525.47016.73168.33513 1.61909.89918 2.18033 1.79991.30539.49059.35491 1.09018.40333 1.66963.05943.72035.11555 1.39789.61242 1.8174l.1875.15812-1.73849.57972z" fill="#463014" transform="translate(7.35382 1.8703)"/><path d="m4.73003 3.88251c-.00069-.00294-.35904-1.59589-1.3525-2.40006-1.40147-1.133987-3.112588-.530753-3.129095-.525436l-.248435-.780804c.0828116-.027286 2.03865-.654168 3.84111.634718 1.81333 1.296162 2.03095 2.471152 2.04979 2.600862l-1.16101.47072z" fill="#463014" transform="translate(10.5877 4.30951)"/><path d="m4.80293 4.20571-.03494-.15672c-.00357-.0154-.35504-1.55378-1.30517-2.32227-.54158-.43853-1.19458-.6613-1.93988-.6613-.581749 0-1.014103.14133-1.061286.15798l-.128344.04338-.33331-1.041494.127794-.041979c.057225-.018611.576379-.183307 1.310676-.183307.96871 0 1.88459.289233 2.6497.835796 1.85886 1.328624 2.08583 2.557344 2.10509 2.692934l.01637.10719zm-3.27986-3.413292c.7962 0 1.52555.249072 2.10743.719792.84366.68356 1.24053 1.89016 1.36048 2.32283l.9145-.37082c-.08281-.32841-.44734-1.31407-1.97207-2.4044-.72948-.521513-1.5686-.785699-2.4948-.785699-.508287 0-.903086.082278-1.098147.132373l.164935.518577c.19121-.052334.559322-.132653 1.017672-.132653zm8.28089 37.373882c-.39728 0-.80267-.1466-1.08357-.394-.21515-.1886-.94257-.8683-1.26336-1.7008-.11968-.3114-.09285-.5604.08089-.7397.11968-.1229.36825-.2696.87268-.2696l.3589-.0006c.42768-.0006 1.14767-.0006 1.7631-.0006h.5902c.3837 0 .6589.0846.8169.2491.2032.2123.1381.4823.0812.6245-.0988.2491-.508 1.0594-1.2008 1.8128-.248.2701-.609.4189-1.01614.4189zm.41644-21.1951-1.43426-.0938s.3666.6574.60417 1.5076c.26824.9617-.24527 2.3673-.24527 2.3673s1.91236-2.2025 1.07536-3.7811zm-1.7904 25.0474c-5.10474-.3991-6.90074-5.3057-6.90074-6.3276l1.3331.0006-.66648-.0006h.66648c.00675.4418 1.36323 4.6389 5.66971 4.9759z" fill="#463014" transform="translate(10.4184 4.17255)"/><path d="m9.38824 7.50355c-.07979-.4689-.08804-.91373.00921-1.35073-.38792-.29665-1.08397-.40677-1.60629-.57903-.42713-.27496-2.61283.28182-4.19836-1.67019-1.98679-2.44428-1.56874-3.9036-1.56874-3.9036-.50939.575668-1.00309.356259-1.779487 3.04066-.777631 2.68496.364949 4.55665 2.494387 6.43575 1.00598.88759 2.42809 1.25339 3.65142 1.39329-.4098-.4184.69991-.4604 1.46474-.7514-.06094-.62831.04127-1.23812.50169-1.72913.27759-.29609.63484-.47296 1.00557-.61401.02063-.0487.0381-.09375.05777-.14049-.01305-.04306-.0237-.08684-.03191-.13112z" fill="#fff" transform="translate(8.02563 29.8967)"/><path d="m7.50568 8.46602c-.04429-.13196-.07772-.26629-.11046-.4016-.03535-.14762-.21143-.56629.0055-.0883-.05571-.12243-.09216-.24851-.11899-.37556-3.44865-.00448-6.448846-2.41308-5.86917-7.476693-.45147-.609671-1.083699 1.229423-1.083699 1.229423s-1.726521 5.09929 2.732369 7.07565c1.48566.65906 2.79867 1.13161 3.10846.94088.6453.13335 1.22773-.32422 1.44618-.6252-.04086-.09236-.07827-.18499-.11019-.2786z" fill="#c9c9c9" transform="translate(8.36493 31.5326)"/><path d="m9.39201 6.92075c.00536-.42735.0912-.84139.29438-1.25376.01417-.02841.03054-.0557.04581-.0834-1.32705-.01162-2.85535-.14077-4.15682-.67068-1.43049-.58211-3.21988-2.5733-3.52733-4.91291 0 0-2.69399 2.11461-1.902465 6.64089.743103 4.25011 4.239485 5.63561 8.226955 5.87001.00221-.0274-.44844-.9742-.30607-1.5539-2.26425.1674-4.79619-.7225-6.01842-2.76821-1.119057-1.87253-.80514-5.06935-.34528-5.53784 1.12181 3.60066 5.15839 4.33263 7.68924 4.2698z" fill="#463014" transform="translate(7.95972 29.7453)"/><path d="m2.18309 5.8356c-.71752 2.14189-2.18309 3.87548-2.18309 3.87548s2.01609-.09334 2.12738-.45617c.0824-.26755 1.82048-4.40637 2.48765-9.25491-.62756 1.04877-2.37045 5.65215-2.43194 5.8356z" fill="#463014" transform="translate(15.5864 28.2528)"/><path d="m1.08866 7.52315s2.28557 3.55555 3.96299 6.07895c.25943.3904-1.67742.4174-1.67742.4174l-2.28557-6.49649zm-1.08866-7.371888s.689179 1.748838 1.0661 2.675868c.40993 1.0079 1.97207 1.50927 1.97207 1.50927s-.80969-.86406-.80969-3.05297c0-.918216-1.16541-1.28343-1.16541-1.28343l-1.06307.151124z" fill="#e78724" transform="translate(28.1035 21.6269)"/><path d="m.189812 18.354s1.411788 1.7097 4.033968.7522c2.62218-.9574 2.8907-4.3767 2.8907-5.3341s-4.97474.9574-5.64728 1.3678c-.672395.4104-1.94951 2.0513-1.277388 3.2141zm9.902688-18.2676959s-2.42007-.4791171-4.03393.8204039c-1.61318 1.299242-2.08405 2.325202-2.08405 2.325202l2.71958 2.19269s1.31453-.61989 1.71786-2.39797c.40319-1.77794.13439-2.598479 1.68054-2.9403259z" fill="#e78724" transform="translate(28.6097 4.41284)"/><path d="m5.02042 10.6538c1.04188-1.50454 2.7585-2.16081 4.13012-2.26953 2.33786-.18597 3.44716.65473 3.44716.65473s-3.82861.16483-4.9324 1.6391c-2.05447 2.744-5.05041 2.9669-5.52967 2.3643.5541.0281 1.16404-.2512 1.81608-.8788.40745-.3926.73815-1.0322 1.06871-1.5098zm6.46318 5.3198s4.2474-1.4855 3.4406-2.9896c-.8065-1.5046-.165-2.3245-.165-2.3245s2.3725 1.8012 1.7676 3.7158c-.3715 1.1752-.9947 2.0261-4.4166 3.6574-1.6414 3.1012-.339 8.6833-.4166 8.7094-.1301.044-2.30439-1.0932-2.15596-6.3157.04512-1.6036.17126-3.7929 1.94596-4.4528zm-5.56642-15.9736c1.78058.920453 4.22122 2.20234 4.22122 2.20234l-.96021.48878c.09162.15098.13591.24109.13591.24109l-.98576.45589s-2.40649 1.77318-3.88086 2.91332c.49109-1.53991 1.9341-3.95887 1.9341-3.95887s.40966-1.11145-.4644-2.34255zm-5.91718 37.5211c5.47396 0 7.32841-2.8271 7.32841-2.8271l-.85507 2.1194c-.32327.9168-3.77371 3.7699-6.4649492 3.7699" fill="#e78724" transform="translate(24.4852 7.17499)"/><path d="m4.73938 26.1017s-.50429 3.1313-2.52066 3.1313c-1.713458 0-2.21872-2.6451-2.21872-3.1918zm3.35635-4.7226c-.17924-.5018-.80666-2.5305-1.00873-4.3767-.24156-2.2113-.15297-5.4454-.15297-5.4454s.53786 2.1199 1.00804 2.4625c.47101.3417 1.34466 2.6666 1.34466 2.6666s.46812 3.4613.69097 4.6247c-.61655.1255-1.13516-.2441-1.88197.0683zm4.87087-13.7198s-1.1431-.41069-1.479-2.94061c-.3361-2.53034.4034-4.71869.4034-4.71869s-.0675 3.48759.3361 4.1717c.4036.68384.7395.88883 1.2102 1.77808.4702.88911-.202 1.43582-.4707 1.70952z" fill="#e78724" transform="translate(26.4749 13.857)"/><path d="m0 .150284.233716-.150284c.687942.023648-.233716.150284-.233716.150284z" fill="#fdc168" transform="translate(38.0766 4.94733)"/><path d="m4.72769 3.48363s1.07586-.18219 1.61345-1.00274c.53786-.82068 2.06204-2.4621871 4.49106-2.48051781 2.4288-.01847059 4.8317.65668681 4.8317.65668681l-2.0977 1.348221c-.2218-.00742-.6098-.00434-1.2518.01749-2.63205.08899-3.0373 2.73757-3.0373 2.73757l-9.2771-1.29952" fill="#fba919" transform="translate(24.7441 2.9422)"/><path d="m0 4.01218s1.2551 1.27658 3.18219.86603c1.9275-.41013 3.09292-1.27644 3.18261-2.78109.08941-1.504519-.40333-2.09712-.40333-2.09712s-2.15172.684254-3.18247 1.59617c-1.03088.91192-1.792689 2.37054-2.779 2.41601z" fill="#fff" transform="translate(28.5756 17.0428)"/><path d="m1.25483 2.1314s1.08893.5057 2.3051.09375c1.59296-.5404 1.69902-2.22515 1.69902-2.22515s.97654 2.91654-1.76271 3.47794c-2.19657.45015-3.49624-.84489-3.49624-.84489l1.25483-.50179z" fill="#c9c9c9" transform="translate(28.8393 18.4676)"/><g fill="#463014"><path d="m7.46185 7.61003c.88795-.74932.2267-1.44463.29685-2.29596.03742-.45295.07263-.88029.21955-1.11607.81711-1.31225 2.74445-1.71049 2.76425-1.71469l.9049-.18023-.5991-.71252c-.0776-.09235-2.53659-2.47912-6.3429-1.229274-2.66152.873294-4.6320801 3.834754-4.7054 3.954394l1.33434.6385c.0161-.02519 1.57425-2.80894 3.85803-3.55798 1.84606-.605892 3.54742-.02938 4.2758.34842-.77433.31457-1.7876.88757-2.39796 1.86778-.28791.46302-.3362 1.04583-.38297 1.6103-.0619.74722-.12023 1.45261-.66098 1.90947zm2.37086 10.93757s-1.11796-1.4111-1.44934-4.1565c-.13014-1.0815.10069-3.2144.47045-4.035-.06726 2.0174.43745 4.035.43745 4.035s.33991 3.7461.54144 4.1565z" transform="translate(29.7476 2.00702)"/><path d="m1.16129 3.88251c.00055-.00294.35889-1.59589 1.3525-2.40006 1.40133-1.133987 3.11258-.530753 3.12854-.525436l.24912-.780804c-.08308-.027286-2.03865-.654168-3.84166.634718-1.813323 1.296162-2.0303939 2.471152-2.04979 2.600862zm2.38503 11.35059s.58683-.8545.48077-1.7943c-.052-.4641-.26343-.9406-.64103-1.1096-.70142-.3135-1.01245.4953-1.01245.4953s.98741.2479 1.17271 2.4086z" transform="translate(32.5214 4.30951)"/><path d="m.95137 4.40623c-.024485.04645-.037142.07262-.037142.07262s1.829692 1.39733 3.705612-.02071c1.00474-.75982.90983-2.63892.60169-3.43582-.79964.18443-1.47795.51676-2.04539.90492.71683-.65067 1.34424-1.129645 1.34204-1.1407l.81519-.23452 1.58305-.55202c.02036.122858.5977 2.87638-1.06981 4.75269-.7387.83188-4.20248 2.69489-5.84661-.49073l.95137.14412z" transform="translate(28.673 16.439)"/><path d="m3.58568 4.99471c-1.03047 1.59547-3.6299518.6837-3.58510702-1.00301 0 0 1.73683702.97531 3.27187702-.82054.89608-1.04835 3.76835-3.939145 7.66245-2.978532-2.68921.601695-6.24983 3.100832-7.34922 4.802082z" transform="translate(26.2095 16.0552)"/><path d="m9.38756 16.9181c-.24816.1457-1.12291 1.0668-1.12291 2.4443-.00055.6908.06713 4.1611.40374 6.2811-.50567.3342-.85783.4053-1.3613.7459-.25201-2.4554-.43332-6.0141-.34844-7.4507.09615-1.6376.95784-2.7366 1.75706-3.2052.25036-.1465.512-.2905.77598-.4353 1.36911-.7526 2.78501-1.5311 2.78501-2.8603 0-1.04-.3978-1.3652-.8184-1.71l-.0449-.0373c-.2792-.2295-.5958-.4898-.7824-.91698-.5109-1.16812-.5947-4.14399-.0006-4.89933.2963-.37641 1.0906-1.64221.8624-2.49284-.0875-.32463-.2886-.56531-.6157-.73574-.3464-.18051-.8134-.27189-1.38995-.27189-1.13033 0-2.38558.35025-3.03225.55874-2.31281.74568-5.1035 2.89555-5.904107 3.53671-.022835.01791-.036041.0284-.038517.03008l-.512276.36214.320103-.54489c.020359-.034 2.047457-3.42532 5.672737-4.668729.70541-.241937 2.09092-.647871 3.45277-.647871.81079 0 1.49799.144127 2.04329.427763.6642.345485 1.1135.896667 1.3005 1.593507.4578 1.70812-1.0333 3.60989-1.0842 3.67076-.1738.31568-.2473 2.6087.1536 3.52636.0553.12677.2068.25117.399.40859.0599.04939.1265.10075.1982.1556.5667.43502 1.4231 1.09232 1.4231 2.60732 0 2.0729-2.0654 3.1968-3.7246 4.1005-.27255.149-.53281.29-.76708.4277z" transform="translate(28.121 8.63474)"/><path d="m21.2304 4.23621c-.3285-.56601-1.1687-1.65886-3.1048-2.61919-2.161-1.071297-4.6618-1.61506084-7.4344-1.6163202v-.0006998h-.0107v.00028024c-2.77296.00139929-5.27436.54530276-7.43462 1.61645976-1.9363.96047-2.775972 2.05318-3.104743 2.61919l-.141137.18989 1.65816.37543.05255-.06759.02778-.06185c.02559-.11152.24789-.71336 2.09643-1.63031 1.97633-.98049 4.28144-1.47765 6.85048-1.47849 2.5697.00084 4.8738.498 6.8499 1.47849 1.8488.91695 2.0718 1.51879 2.0971 1.63017l.0276.06199.052.06759 1.6586-.37543-.1403-.18961z" transform="translate(13.8142 5.13693)"/><path d="m7.46185 7.61003c.88795-.74932.2267-1.44463.29685-2.29596.03742-.45295.07263-.88029.21955-1.11607.81711-1.31225 2.74445-1.71049 2.76425-1.71469l.9049-.18023-.5991-.71252c-.0776-.09235-2.53659-2.47912-6.3429-1.229274-2.66152.873294-4.6320801 3.834754-4.7054 3.954394l1.33434.6385c.0161-.02519 1.57425-2.80894 3.85803-3.55798 1.84606-.605892 3.54742-.02938 4.2758.34842-.77433.31457-1.7876.88757-2.39796 1.86778-.28791.46302-.3362 1.04583-.38297 1.6103-.0619.74722-.12023 1.45261-.66098 1.90947z" transform="translate(29.7476 2.00702)"/><path d="m5.9473 7.32053.18681-.15826c.49728-.41951.55299-1.09705.61311-1.8174.04814-.57959.0978-1.17932.40305-1.66963.56097-.90045 1.44893-1.46464 2.18034-1.80019-.43786-.18863-1.26075-.46988-2.27553-.46988-.56043 0-1.10737.08619-1.62776.25705-2.11843.69488-3.61537 3.20633-3.78485 3.50102l-.06355.10215-1.57892-.75534.0803354-.13041c.0185707-.03037 2.0001346-3.10083 4.7785846-4.012186.74297-.244177 1.48978-.367454 2.21941-.367454 2.67404 0 4.25307 1.62164 4.26657 1.63801l.749.89065-1.13.22528c-.0187.00392-1.89878.40398-2.67724 1.65382-.12903.20766-.16287.61849-.19946 1.05465-.02133.25943.03219.51214.08432.75646.11294.52977.22973 1.07773-.42905 1.63297l-.05723.04841z" transform="translate(29.5533 1.871)"/><path d="m1.16129 3.88251c.00055-.00294.35889-1.59589 1.3525-2.40006 1.40133-1.133987 3.11258-.530753 3.12854-.525436l.24912-.780804c-.08308-.027286-2.03865-.654168-3.84166.634718-1.813323 1.296162-2.0303939 2.471152-2.04979 2.600862z" transform="translate(32.5214 4.30951)"/><path d="m5.86873 3.63578.01568-.10719c.01968-.13559.24679-1.36403 2.10523-2.692934.76457-.546563 1.68072-.835656 2.64946-.835656.7347 0 1.2538.164277 1.3113.183167l.1275.041979-.333 1.041494-.1286-.04338c-.0481-.01651-.4802-.15798-1.0617-.15798-.74516 0-1.39775.22249-1.93933.6613-.95027.76877-1.30187 2.30715-1.30518 2.32227l-.03494.15644zm5.70357-2.710849.1655-.518577c-.1952-.050375-.5904-.132373-1.0987-.132373-.9261 0-1.76549.264466-2.49456.785699-1.52528 1.09061-1.88981 2.07599-1.97249 2.4044l.91519.37082c.11968-.43294.51613-1.63955 1.3602-2.32283.58244-.47086 1.31096-.719792 2.10706-.719792.4578 0 .8266.08032 1.0179.132653zm-10.31433 36.822369c-.692619-.7533-1.102414-1.5639-1.2014573-1.8128-.05667507-.1419-.1210524-.4123.0819873-.6247.158332-.1644.432766-.2489.816423-.2489h.590547c.61545 0 1.33503 0 1.76298.0006l.35903.0005c.50403 0 .75246.1467.872.2697.17388.1789.20098.4279.08116.7396-.32051.8327-1.04821 1.5124-1.26322 1.7009-.28172.2474-.68615.394-1.08343.394-.40718 0-.768-.1489-1.01602-.4189zm.59949-20.7763 1.43338-.0937s-.36605.6573-.60361 1.5076c-.26825.9617.24527 2.3673.24527 2.3673s-1.91251-2.2025-1.07504-3.7812z" transform="translate(26.5043 4.1727)"/></g><path d="m3.0002.679215c-.91409 0-2.105917-.025467-3.0002-.679215 0 0 1.17092 2.08788 2.99869 2.08788l.00151-.26419.00151.26419c1.82791 0 2.99855-2.08774015 2.99855-2.08774015-.89414.65346815-2.08679.67907515-3.00006.67907515z" fill="#e78724" transform="translate(21.5001 15.2559)"/><path d="m5.03362 0c-.91684.564474-1.73574.760095-2.51681.777446-.78134-.017351-1.59983-.212972-2.51681-.777446 0 0 1.3353 1.65746 2.51007 1.67019v.00098c.00206 0 .00413-.00056.0066-.00056.00207 0 .00413.00056.00661.00056v-.00098c1.17449-.01273 2.51034-1.67019 2.51034-1.67019zm3.13488 30.2661-.10221-1.352c4.30541-.3368 5.66201-4.534 5.66901-4.9759h1.3332c.0006 1.0219-1.7959 5.9288-6.9 6.3279z" fill="#463014" transform="translate(21.9835 15.925)"/><path d="m.031502 7.50355c.080198-.4689.088039-.91373-.0092168-1.35073.3884718-.29665 1.0839748-.40677 1.6062948-.57903.42713-.27496 2.61338.28182 4.19904-1.67019 1.98666-2.44428 1.56806-3.9036 1.56806-3.9036.5098.575668 1.00309.356259 1.78004 3.04066.77763 2.68496-.3655 4.55665-2.49494 6.43575-1.00585.88759-2.42809 1.25339-3.65142 1.39329.4098-.4184-.69991-.4604-1.46433-.7514.06108-.62831-.04154-1.23812-.50196-1.72913-.277048-.29609-.634845-.47296-1.0051583-.61401-.0209092-.0487-.0387908-.09375-.0579117-.14049.0122429-.04268.0237974-.08578.0316384-.13112z" fill="#fff" transform="translate(31.5547 29.8967)"/><path d="m.110047 8.46602c.044845-.13196.077585-.26629.110462-.4016.035904-.14762.211981-.56629-.005365-.0883.05585-.12243.092166-.24851.119128-.37556 3.448648-.00448 6.448848-2.41308 5.868618-7.476693.45147-.609671 1.08412 1.229423 1.08412 1.229423s1.72652 5.09929-2.73237 7.07565c-1.48566.65906-2.7984 1.13161-3.10833.94088-.645845.13335-1.228414-.32422-1.44631-.6252.040718-.09236.0789582-.18499.110047-.2786z" fill="#c9c9c9" transform="translate(33.019 31.5326)"/><path d="m.339637 6.92075c-.004815-.42735-.091202-.84139-.2936918-1.25376-.0144438-.02841-.0308135-.0557-.0459452-.0834 1.32691-.01162 2.85535-.14077 4.15681-.67068 1.43036-.58211 3.21975-2.5733 3.52733-4.91291 0 0 2.69396 2.11461 1.90247 6.64089-.74365 4.25011-4.23962 5.63561-8.22696 5.87001-.0022-.0274.44859-.9742.30607-1.5539 2.26357.1674 4.79565-.7225 6.01856-2.76821 1.11837-1.87253.80473-5.06935.34473-5.53784-1.1214 3.60066-5.15839 4.33263-7.689373 4.2698z" fill="#463014" transform="translate(31.3083 29.7453)"/><path d="m18.1327 1.15162c-.4764-.523897-1.3522-1.14825928-3.3718-1.14825928l-5.37928-.00336072h-.01321c-1.55031.00111943-5.38.00336072-5.38.00336072-2.01912 0-2.89497.62450228-3.371618 1.14825928-.6942689.76247-.803217 1.82299-.322854 3.14868 1.276292 3.52859 3.069942 7.1136 9.074192 7.1186v.0006c.0022 0 .00413-.0006.00661-.0006.00206 0 .00412.0006.0066.0006v-.0006c6.00366-.0053 7.79736-3.59001 9.07406-7.1186.4804-1.32569.3711-2.38621-.3227-3.14868zm-.9347 2.90128c-.6081 1.77192-2.2424 6.0608-7.8234 6.0682-5.58167-.0074-7.21534-4.29614-7.82349-6.0682-.33648-.98314-.31089-1.71063.07868-2.16246.26618-.30896.8775-.67768 2.27072-.67768l1.45553-.00056c1.0738-.00097 2.42203-.00209 4.0187-.00279 1.59616.0007 2.94506.00182 4.01856.00279l1.455.00056c1.3936 0 2.0048.36858 2.2711.67768.3892.45225.415 1.17932.0784 2.16246z" fill="#463014" transform="translate(15.1255 36.5805)"/><path d="m2.43152 5.8356c.71752 2.14189 2.18309 3.87548 2.18309 3.87548s-2.01609-.09334-2.12751-.45617c-.08185-.26755-1.81993-4.40637-2.4871-9.25491.627002 1.04877 2.3699 5.65215 2.43152 5.8356z" fill="#463014" transform="translate(28.799 28.2528)"/></svg>