<svg fill="none" height="48" width="48" xmlns="http://www.w3.org/2000/svg"><path d="M9.26 11.666s.808 3.17.923 4.228c.116 1.057-2.077 3.405-2.077 4.58 0 1.174.46 3.287 3 4.344 2.54 1.057 2.887 3.758 2.887 5.402 0 1.644-.924 4.815-.924 4.815s-.577 7.867 2.54 9.276c3.117 1.41 2.424 1.41 3.117 1.41.692 0 5.772 2.114 8.773 1.291 3.001-.822 3.809-1.76 3.809-1.76s3.002.234 3.925-2.467c.924-2.701 1.5-8.337 1.154-10.92-.346-2.585-.808-5.99 1.27-7.164 2.079-1.174 4.272-2.583 3.925-3.758-.346-1.174-2.193-2.818-2.193-2.818s-.462-2.935-.115-3.64c.346-.705 2.424-2.467 1.27-3.758-1.155-1.291-3.233-1.291-3.233-1.291l-2.655.234s-4.502-4.11-10.39-3.875c-5.887.235-9.581 3.875-9.581 3.875s-1.962-.704-3.694 0c-1.732.705-2.077 0-1.731 1.996z" fill="#fba919"/><path d="M19.808 29.15s-2.286 3.556-3.963 6.079c-.26.39 1.677.417 1.677.417l2.286-6.496zm1.089-7.372s-.69 1.749-1.067 2.676c-.41 1.008-1.972 1.51-1.972 1.51s.81-.865.81-3.054c0-.918 1.165-1.283 1.165-1.283l1.064.151z" fill="#e78724"/><path d="M20.2 22.767s-1.411 1.71-4.033.752c-2.622-.957-2.89-4.377-2.89-5.334s4.974.957 5.647 1.368c.672.41 1.949 2.051 1.276 3.214zM10.299 4.499s2.42-.479 4.033.82c1.614 1.3 2.084 2.326 2.084 2.326l-2.72 2.192s-1.313-.62-1.716-2.397c-.404-1.778-.135-2.599-1.681-2.94z" fill="#e78724"/><path d="M19.495 17.829c-1.042-1.505-2.76-2.161-4.13-2.27-2.338-.186-3.448.655-3.448.655s3.829.165 4.932 1.64c2.054 2.743 5.051 2.966 5.53 2.363-.554.028-1.163-.25-1.816-.878-.407-.393-.738-1.033-1.068-1.51zm-6.463 5.32s-4.248-1.486-3.441-2.99c.806-1.505.164-2.324.164-2.324s-2.371 1.8-1.767 3.715c.371 1.176.995 2.026 4.417 3.658 1.64 3.101.338 8.683.416 8.71.13.043 2.305-1.094 2.157-6.316-.046-1.604-.172-3.793-1.946-4.453zm5.566-15.974c-1.781.92-4.221 2.202-4.221 2.202l.96.49c-.092.15-.136.24-.136.24l.986.456s2.406 1.773 3.88 2.913c-.49-1.54-1.934-3.959-1.934-3.959s-.409-1.111.465-2.342zm5.917 37.521c-5.475 0-7.329-2.827-7.329-2.827l.856 2.12c.323.916 3.773 3.77 6.465 3.77" fill="#e78724"/><path d="M17.786 39.959s.504 3.131 2.52 3.131c1.715 0 2.22-2.645 2.22-3.192zm-3.356-4.723c.179-.502.806-2.53 1.008-4.377.241-2.21.153-5.445.153-5.445s-.538 2.12-1.008 2.462c-.47.342-1.345 2.667-1.345 2.667s-.468 3.461-.691 4.625c.617.125 1.136-.244 1.883.068zm-4.87-13.72s1.142-.41 1.478-2.94c.336-2.53-.403-4.719-.403-4.719s.067 3.488-.336 4.172c-.404.683-.74.889-1.21 1.778-.472.89.2 1.436.47 1.71z" fill="#e78724"/><path d="M10.923 5.098l-.233-.15c-.688.023.233.15.233.15z" fill="#fdc168"/><path d="M19.528 6.426s-1.075-.182-1.613-1.003c-.539-.82-2.062-2.462-4.49-2.48-2.43-.019-4.833.656-4.833.656l2.098 1.349c.222-.008.61-.005 1.251.017 2.633.09 3.038 2.738 3.038 2.738l9.277-1.3" fill="#fba919"/><path d="M20.425 21.055s-1.255 1.277-3.183.866c-1.927-.41-3.093-1.276-3.182-2.781-.09-1.505.403-2.097.403-2.097s2.151.684 3.183 1.596c1.03.912 1.793 2.37 2.779 2.416z" fill="#fff"/><path d="M18.906 20.599s-1.089.506-2.305.094c-1.593-.54-1.699-2.225-1.699-2.225s-.977 2.916 1.762 3.478c2.197.45 3.497-.845 3.497-.845l-1.255-.502z" fill="#c9c9c9"/><path d="M19.68 5.807c-.118-2.501 1.898-4.493 2.596-4.578.039.424-.039 2.077.66 2.585.203-1.35.89-2.839 3.605-3.814-.582 1.568-.078 2.882.162 3.491 1.854-1.711 3.103-1.428 3.103-1.428s-1.288 2.26-.785 3.744c-3.72-.297-9.324.402-9.342 0zm-7.89 3.81c-.887-.75-.225-1.445-.296-2.296-.038-.453-.073-.88-.22-1.116-.817-1.312-2.744-1.71-2.763-1.715l-.905-.18.599-.712c.077-.093 2.536-2.48 6.342-1.23 2.662.874 4.633 3.835 4.706 3.955l-1.335.638c-.015-.025-1.573-2.809-3.857-3.558-1.846-.606-3.548-.03-4.276.349.774.314 1.787.887 2.397 1.867.288.463.337 1.046.384 1.61.062.748.12 1.453.66 1.91zM9.42 20.555s1.118-1.411 1.45-4.157c.13-1.081-.102-3.214-.472-4.035.068 2.017-.437 4.035-.437 4.035s-.34 3.746-.542 4.157z" fill="#463014"/><path d="M15.318 8.192c-.001-.003-.36-1.596-1.353-2.4-1.401-1.134-3.112-.53-3.129-.525l-.248-.781c.083-.028 2.038-.654 3.84.634 1.814 1.297 2.032 2.472 2.05 2.601l-1.16.471zm-2.385 11.35s-.587-.854-.482-1.794c.053-.464.264-.94.642-1.11.701-.313 1.012.496 1.012.496s-.987.248-1.172 2.409z" fill="#463014"/><path d="M19.376 20.845c.025.047.037.073.037.073s-1.83 1.397-3.706-.02c-1.004-.76-.91-2.64-.602-3.437.8.185 1.479.517 2.046.905-.717-.65-1.344-1.13-1.343-1.14l-.814-.235-1.584-.552c-.02.123-.597 2.876 1.07 4.752.738.832 4.202 2.695 5.847-.49l-.951.144z" fill="#463014"/><path d="M19.205 21.05c1.03 1.595 3.63.684 3.586-1.003 0 0-1.738.975-3.273-.82-.896-1.049-3.768-3.94-7.662-2.98 2.69.603 6.25 3.102 7.349 4.803z" fill="#463014"/><path d="M11.492 25.553c.248.146 1.123 1.067 1.123 2.444 0 .69-.067 4.161-.404 6.281.506.334.858.406 1.362.746.252-2.455.432-6.014.348-7.45-.096-1.638-.958-2.737-1.758-3.206-.25-.146-.512-.29-.775-.435-1.37-.753-2.785-1.531-2.785-2.86 0-1.04.398-1.366.818-1.71l.046-.038c.279-.23.595-.49.782-.917.51-1.168.594-4.144 0-4.899-.296-.376-1.09-1.642-.862-2.493.087-.324.288-.565.615-.736.346-.18.814-.271 1.39-.271 1.131 0 2.386.35 3.033.558 2.313.746 5.104 2.896 5.903 3.537l.04.03.511.362-.32-.545c-.02-.034-2.047-3.425-5.673-4.668-.705-.242-2.09-.648-3.452-.648-.81 0-1.499.144-2.044.428-.664.345-1.113.896-1.3 1.593-.458 1.708 1.033 3.61 1.084 3.67.174.316.248 2.61-.154 3.527-.055.127-.207.251-.398.409-.06.05-.128.1-.199.155C7.857 18.852 7 19.51 7 21.025c0 2.073 2.065 3.196 3.725 4.1.273.15.532.29.767.428z" fill="#463014"/><path d="M11.79 9.617c-.887-.75-.225-1.445-.296-2.296-.038-.453-.073-.88-.22-1.116-.817-1.312-2.744-1.71-2.763-1.715l-.905-.18.599-.712c.077-.093 2.536-2.48 6.342-1.23 2.662.874 4.633 3.835 4.706 3.955l-1.335.638c-.015-.025-1.573-2.809-3.857-3.558-1.846-.606-3.548-.03-4.276.349.774.314 1.787.887 2.397 1.867.288.463.337 1.046.384 1.61.062.748.12 1.453.66 1.91z" fill="#463014"/><path d="M11.762 9.77l-.058-.048c-.658-.556-.541-1.103-.428-1.633.051-.244.106-.497.084-.756-.036-.436-.07-.847-.2-1.055-.778-1.25-2.658-1.65-2.677-1.654L7.353 4.4l.75-.89c.013-.017 1.592-1.639 4.266-1.639.73 0 1.476.124 2.22.368 2.778.911 4.76 3.982 4.778 4.012l.08.13-1.578.756-.064-.102c-.17-.295-1.667-2.806-3.785-3.501a5.212 5.212 0 00-1.628-.257 5.85 5.85 0 00-2.275.47c.732.335 1.619.899 2.18 1.8.306.49.355 1.09.404 1.67.059.72.115 1.397.612 1.817l.187.158-1.738.58z" fill="#463014"/><path d="M15.318 8.192c-.001-.003-.36-1.596-1.353-2.4-1.401-1.134-3.112-.53-3.129-.525l-.248-.781c.083-.028 2.038-.654 3.84.634 1.814 1.297 2.032 2.472 2.05 2.601l-1.16.471z" fill="#463014"/><path d="M15.221 8.378l-.035-.156c-.003-.016-.355-1.554-1.305-2.323-.541-.438-1.194-.661-1.94-.661a3.51 3.51 0 00-1.06.158l-.13.043-.333-1.041.128-.042a4.485 4.485 0 011.31-.183c.97 0 1.885.289 2.65.835 1.86 1.329 2.086 2.558 2.106 2.693l.016.107zm-3.28-3.413c.797 0 1.526.249 2.108.72.844.683 1.24 1.89 1.36 2.323l.915-.371c-.083-.329-.447-1.314-1.972-2.405a4.202 4.202 0 00-2.495-.785c-.508 0-.903.082-1.098.132l.165.519c.191-.053.56-.133 1.017-.133zm8.281 37.374c-.397 0-.802-.147-1.083-.394-.215-.189-.943-.868-1.264-1.7-.12-.312-.092-.561.081-.74.12-.124.369-.27.873-.27h.359l1.763-.001h.59c.384 0 .66.084.817.249.203.212.138.482.081.624-.099.25-.508 1.06-1.2 1.813-.249.27-.61.419-1.017.419zm.417-21.195l-1.434-.094s.366.657.604 1.508c.268.961-.246 2.367-.246 2.367s1.913-2.203 1.076-3.781zm-1.79 25.047c-5.105-.399-6.901-5.306-6.901-6.327h1.333-.667.667c.007.441 1.363 4.638 5.67 4.975z" fill="#463014"/><path d="M17.414 37.4c-.08-.469-.088-.913.01-1.35-.389-.297-1.085-.407-1.607-.58-.427-.274-2.613.282-4.199-1.67-1.986-2.444-1.568-3.903-1.568-3.903-.51.575-1.003.356-1.78 3.04-.777 2.685.365 4.557 2.495 6.436 1.006.888 2.428 1.253 3.651 1.393-.41-.418.7-.46 1.465-.751-.061-.628.041-1.238.501-1.73.278-.295.635-.472 1.006-.613l.058-.14a1.217 1.217 0 01-.032-.132z" fill="#fff"/><path d="M15.87 39.999a4.811 4.811 0 01-.11-.402c-.035-.148-.211-.566.006-.088a1.794 1.794 0 01-.12-.376c-3.448-.004-6.448-2.413-5.869-7.477-.451-.61-1.083 1.23-1.083 1.23s-1.727 5.1 2.732 7.076c1.486.659 2.799 1.131 3.109.94.645.134 1.227-.324 1.446-.625a3.412 3.412 0 01-.11-.278z" fill="#c9c9c9"/><path d="M17.352 36.666c.005-.427.09-.841.294-1.254.014-.028.03-.055.046-.083-1.327-.012-2.855-.14-4.157-.67-1.43-.583-3.22-2.574-3.527-4.914 0 0-2.694 2.115-1.903 6.641.743 4.25 4.24 5.636 8.227 5.87.002-.027-.448-.974-.306-1.554-2.264.168-4.796-.722-6.018-2.768-1.12-1.872-.805-5.07-.346-5.538 1.122 3.6 5.159 4.333 7.69 4.27z" fill="#463014"/><path d="M17.77 34.088c-.718 2.142-2.184 3.876-2.184 3.876s2.016-.093 2.128-.456c.082-.268 1.82-4.407 2.487-9.255-.627 1.049-2.37 5.652-2.432 5.835z" fill="#463014"/><path d="M29.192 29.15s2.286 3.556 3.963 6.079c.26.39-1.677.417-1.677.417l-2.286-6.496zm-1.088-7.372s.689 1.749 1.066 2.676c.41 1.008 1.972 1.51 1.972 1.51s-.81-.865-.81-3.054c0-.918-1.165-1.283-1.165-1.283l-1.064.151z" fill="#e78724"/><path d="M28.8 22.767s1.411 1.71 4.033.752c2.623-.957 2.891-4.377 2.891-5.334s-4.975.957-5.647 1.368c-.672.41-1.95 2.051-1.277 3.214zm9.902-18.268s-2.42-.479-4.034.82c-1.613 1.3-2.084 2.326-2.084 2.326l2.72 2.192s1.314-.62 1.718-2.398c.403-1.777.134-2.598 1.68-2.94z" fill="#e78724"/><path d="M29.506 17.829c1.042-1.505 2.758-2.161 4.13-2.27 2.338-.186 3.447.655 3.447.655s-3.829.165-4.933 1.64c-2.054 2.743-5.05 2.966-5.53 2.363.555.028 1.165-.25 1.817-.878.407-.393.738-1.033 1.069-1.51zm6.463 5.32s4.247-1.486 3.44-2.99c-.806-1.505-.165-2.325-.165-2.325s2.373 1.802 1.768 3.716c-.371 1.175-.995 2.026-4.417 3.658-1.641 3.1-.339 8.683-.416 8.71-.13.043-2.305-1.094-2.156-6.317.045-1.603.171-3.793 1.946-4.452zM30.402 7.175c1.781.92 4.222 2.202 4.222 2.202l-.96.49c.091.15.135.24.135.24l-.985.456s-2.407 1.773-3.881 2.913c.49-1.54 1.934-3.958 1.934-3.958s.41-1.112-.465-2.343zm-5.917 37.521c5.474 0 7.329-2.827 7.329-2.827l-.855 2.12c-.324.916-3.774 3.77-6.465 3.77" fill="#e78724"/><path d="M31.214 39.959s-.504 3.131-2.52 3.131c-1.714 0-2.22-2.645-2.22-3.192zm3.357-4.723c-.18-.502-.807-2.53-1.01-4.377-.24-2.21-.152-5.445-.152-5.445s.538 2.12 1.008 2.462c.471.342 1.345 2.667 1.345 2.667s.468 3.461.69 4.625c-.616.125-1.135-.244-1.881.068zm4.87-13.72s-1.143-.41-1.478-2.94c-.337-2.53.403-4.719.403-4.719s-.068 3.488.336 4.172c.404.684.74.889 1.21 1.778s-.202 1.436-.47 1.71z" fill="#e78724"/><path d="M38.077 5.098l.233-.15c.688.023-.233.15-.233.15z" fill="#fdc168"/><path d="M29.472 6.426s1.076-.182 1.613-1.003c.538-.82 2.062-2.462 4.491-2.48 2.43-.019 4.832.656 4.832.656L38.31 4.947c-.222-.007-.61-.004-1.252.018-2.632.089-3.037 2.738-3.037 2.738l-9.277-1.3" fill="#fba919"/><path d="M28.576 21.055s1.255 1.277 3.182.866c1.927-.41 3.093-1.276 3.182-2.781.09-1.505-.403-2.097-.403-2.097s-2.152.684-3.182 1.596c-1.031.912-1.793 2.37-2.78 2.416z" fill="#fff"/><path d="M30.094 20.599s1.09.506 2.305.094c1.593-.54 1.7-2.225 1.7-2.225s.976 2.916-1.763 3.478c-2.197.45-3.497-.845-3.497-.845l1.255-.502z" fill="#c9c9c9"/><g fill="#463014"><path d="M37.21 9.617c.887-.75.226-1.445.296-2.296.038-.453.073-.88.22-1.116.817-1.312 2.744-1.71 2.764-1.715l.905-.18-.6-.712c-.077-.093-2.536-2.48-6.342-1.23-2.662.874-4.632 3.835-4.705 3.955l1.334.638c.016-.025 1.574-2.809 3.858-3.558 1.846-.606 3.547-.03 4.276.349-.775.314-1.788.887-2.398 1.867-.288.463-.336 1.046-.383 1.61-.062.748-.12 1.453-.661 1.91zm2.37 10.938s-1.118-1.411-1.449-4.157c-.13-1.081.1-3.214.47-4.035-.067 2.018.438 4.035.438 4.035s.34 3.746.541 4.157z"/><path d="M33.683 8.192c0-.003.359-1.596 1.352-2.4 1.402-1.134 3.113-.53 3.129-.525l.249-.781c-.083-.028-2.039-.654-3.842.634-1.813 1.297-2.03 2.472-2.05 2.601zm2.385 11.35s.587-.854.48-1.794c-.052-.464-.263-.94-.64-1.11-.702-.313-1.013.496-1.013.496s.987.248 1.173 2.409z"/><path d="M29.624 20.845l-.037.073s1.83 1.397 3.706-.02c1.005-.76.91-2.64.602-3.437-.8.185-1.478.517-2.046.905.717-.65 1.344-1.13 1.342-1.14l.815-.235 1.583-.552c.02.123.598 2.876-1.07 4.753-.738.832-4.202 2.695-5.846-.491l.951.144z"/><path d="M29.795 21.05c-1.03 1.595-3.63.684-3.585-1.003 0 0 1.737.975 3.272-.82.896-1.049 3.768-3.94 7.662-2.98-2.689.603-6.25 3.102-7.349 4.803z"/><path d="M37.509 25.553c-.249.146-1.123 1.067-1.123 2.444 0 .69.067 4.161.403 6.281-.505.334-.857.406-1.36.746-.253-2.455-.434-6.014-.35-7.45.097-1.638.958-2.737 1.758-3.206.25-.146.512-.29.776-.435 1.369-.753 2.785-1.531 2.785-2.86 0-1.04-.398-1.366-.819-1.71l-.045-.038c-.279-.23-.595-.49-.782-.917-.51-1.168-.595-4.144 0-4.899.296-.376 1.09-1.642.862-2.493-.088-.324-.289-.565-.616-.736-.346-.18-.813-.271-1.39-.271-1.13 0-2.385.35-3.032.558-2.313.746-5.104 2.896-5.904 3.537l-.039.03-.512.362.32-.545c.02-.034 2.048-3.425 5.673-4.668.705-.242 2.09-.648 3.453-.648.81 0 1.498.144 2.043.428.664.345 1.113.896 1.3 1.593.458 1.708-1.033 3.61-1.084 3.67-.174.316-.247 2.61.154 3.527.055.127.207.251.399.409.06.05.126.1.198.155.567.435 1.423 1.093 1.423 2.608 0 2.073-2.065 3.196-3.724 4.1-.273.15-.533.29-.768.428z"/><path d="M35.045 9.373c-.329-.566-1.17-1.659-3.105-2.619-2.161-1.071-4.662-1.615-7.435-1.616v-.001h-.01c-2.773.002-5.275.546-7.435 1.617-1.936.96-2.776 2.053-3.105 2.619l-.14.19 1.657.375.053-.067.028-.062c.025-.112.248-.714 2.096-1.63 1.976-.981 4.282-1.478 6.85-1.48 2.57.002 4.874.499 6.85 1.48 1.85.916 2.072 1.518 2.098 1.63l.027.062.052.067 1.659-.375-.14-.19z"/><path d="M37.21 9.617c.887-.75.226-1.445.296-2.296.038-.453.073-.88.22-1.116.817-1.312 2.744-1.71 2.764-1.715l.905-.18-.6-.712c-.077-.093-2.536-2.48-6.342-1.23-2.662.874-4.632 3.835-4.705 3.955l1.334.638c.016-.025 1.574-2.809 3.858-3.558 1.846-.606 3.547-.03 4.276.349-.775.314-1.788.887-2.398 1.867-.288.463-.336 1.046-.383 1.61-.062.748-.12 1.453-.661 1.91z"/><path d="M35.5 9.192l.187-.159c.498-.42.553-1.097.614-1.817.048-.58.097-1.18.403-1.67.56-.9 1.448-1.464 2.18-1.8a5.858 5.858 0 00-2.276-.47c-.56 0-1.107.086-1.627.257-2.119.695-3.616 3.207-3.785 3.501l-.064.102-1.579-.755.08-.13c.02-.03 2-3.101 4.78-4.013a7.11 7.11 0 012.219-.367c2.674 0 4.253 1.622 4.266 1.638l.75.89-1.13.226c-.02.004-1.9.404-2.678 1.654-.13.207-.163.618-.2 1.054-.02.26.033.513.085.757.113.53.23 1.078-.43 1.633l-.056.048z"/><path d="M33.683 8.192c0-.003.359-1.596 1.352-2.4 1.402-1.134 3.113-.53 3.129-.525l.249-.781c-.083-.028-2.039-.654-3.842.634-1.813 1.297-2.03 2.472-2.05 2.601z"/><path d="M32.373 7.808l.016-.107c.02-.135.247-1.364 2.105-2.693a4.524 4.524 0 012.65-.835c.734 0 1.253.164 1.31.183l.128.042-.333 1.041-.128-.043a3.528 3.528 0 00-1.062-.158c-.745 0-1.398.222-1.94.661-.95.769-1.301 2.307-1.305 2.323l-.035.156zm5.704-2.71l.165-.519a4.486 4.486 0 00-1.099-.132c-.926 0-1.765.264-2.494.785-1.525 1.091-1.89 2.076-1.973 2.405l.916.37c.12-.432.516-1.639 1.36-2.322.582-.471 1.31-.72 2.107-.72.458 0 .826.08 1.018.133zM27.762 41.92c-.692-.753-1.102-1.564-1.201-1.813-.057-.142-.121-.412.082-.625.158-.164.433-.248.816-.248h2.713c.504 0 .752.147.872.27.174.18.2.428.08.74-.32.833-1.047 1.512-1.262 1.7a1.68 1.68 0 01-1.084.395c-.407 0-.768-.149-1.016-.419zm.6-20.776l1.433-.094s-.366.657-.603 1.508c-.269.961.245 2.367.245 2.367s-1.913-2.203-1.075-3.781z"/></g><path d="M24.5 15.935c-.914 0-2.106-.025-3-.68 0 0 1.171 2.089 2.999 2.089l.001-.264.002.264c1.828 0 2.998-2.088 2.998-2.088-.894.654-2.086.68-3 .68z" fill="#e78724"/><path d="M27.017 15.925c-.917.564-1.736.76-2.517.777-.781-.017-1.6-.213-2.517-.777 0 0 1.336 1.657 2.51 1.67v.001h.014c1.174-.014 2.51-1.671 2.51-1.671zm3.135 30.266l-.102-1.352c4.305-.337 5.662-4.534 5.669-4.976h1.333c0 1.022-1.796 5.929-6.9 6.328z" fill="#463014"/><path d="M31.586 37.4c.08-.469.088-.913-.009-1.35.388-.297 1.084-.407 1.606-.58.427-.274 2.614.282 4.2-1.67 1.986-2.444 1.567-3.903 1.567-3.903.51.575 1.003.356 1.78 3.04.778 2.685-.365 4.557-2.495 6.436-1.005.888-2.428 1.253-3.65 1.393.409-.418-.7-.46-1.465-.751.06-.628-.042-1.238-.502-1.73-.277-.295-.635-.472-1.005-.613l-.058-.14c.012-.043.023-.086.031-.132z" fill="#fff"/><path d="M33.129 39.999c.045-.132.078-.267.11-.402.036-.148.212-.566-.005-.088.056-.123.092-.249.12-.376 3.448-.004 6.448-2.413 5.868-7.477.451-.61 1.084 1.23 1.084 1.23s1.727 5.1-2.732 7.076c-1.486.659-2.799 1.131-3.109.94-.646.134-1.228-.324-1.446-.625.04-.092.079-.185.11-.278z" fill="#c9c9c9"/><path d="M31.648 36.666a2.858 2.858 0 00-.294-1.254c-.014-.028-.03-.055-.046-.083 1.327-.012 2.856-.14 4.157-.67 1.43-.583 3.22-2.574 3.527-4.914 0 0 2.694 2.115 1.903 6.641-.744 4.25-4.24 5.636-8.227 5.87-.002-.027.449-.974.306-1.554 2.264.168 4.796-.722 6.019-2.768 1.118-1.872.804-5.07.344-5.538-1.121 3.6-5.158 4.333-7.69 4.27z" fill="#463014"/><path d="M33.258 37.732c-.476-.524-1.352-1.148-3.372-1.148l-5.379-.003h-.013l-5.38.003c-2.02 0-2.895.624-3.372 1.148-.694.763-.803 1.823-.323 3.149 1.277 3.528 3.07 7.113 9.075 7.118V48H24.507c6.003-.006 7.797-3.59 9.074-7.12.48-1.325.371-2.385-.323-3.148zm-.935 2.901c-.608 1.772-2.242 6.061-7.823 6.069-5.582-.008-7.215-4.297-7.823-6.069-.337-.983-.311-1.71.078-2.162.266-.309.878-.678 2.271-.678h1.456l4.018-.003c1.596 0 2.945.002 4.019.003h1.455c1.393 0 2.005.369 2.27.678.39.452.416 1.18.08 2.162z" fill="#463014"/><path d="M31.23 34.088c.718 2.142 2.184 3.876 2.184 3.876s-2.016-.093-2.128-.456c-.082-.268-1.82-4.407-2.487-9.255.627 1.049 2.37 5.652 2.432 5.835z" fill="#463014"/></svg>