<svg fill="none" height="48" viewBox="0 0 48 48" width="48" xmlns="http://www.w3.org/2000/svg"><path d="m0 0h48v48h-48z" fill="#cf4547"/><g fill="#fff"><path d="m8.43624 9.89446c-.02256.03291-.06205.13544-.12034.30934s-.1288.3911-.21154.6525c-.08274.2613-.17299.5547-.26889.8781-.09684.3234-.1965.6544-.29804.991-.10248.3375-.20026.6675-.29428.9918-.09401.3235-.17863.6168-.2529.8782-.07428.2613-.13633.4804-.18616.6581-.04983.1767-.07992.2811-.0912.314-.02726.1044-.07145.221-.13256.3488-.06112.1279-.13257.2482-.2153.3629-.08274.1147-.17394.2097-.2736.2849s-.20214.1128-.3065.1128c-.17675 0-.30556-.0592-.38547-.1767-.07992-.1175-.12034-.3338-.12034-.6478v-.1373c0-.046.00282-.0949.00846-.1466.00564-.1044.04701-.3009.1241-.5895.0771-.2877.17018-.613.27736-.9769.10718-.3638.22376-.739.34786-1.1291.12411-.3893.23599-.7381.33565-1.0455-.29334.3272-.61018.6525-.95335.9768-.34222.3244-.69385.6149-1.05206.8735-.35915.2585-.72112.47-1.08591.6327-.36479.1636-.71548.2454-1.05206.2454-.38641 0-.71924-.0856-.99847-.2548-.279237-.1702-.509581-.393-.691976-.6675-.182395-.2746-.317782-.5858-.406159-.9327-.0883767-.3469-.132565-.6938-.132565-1.0408v-.1278c0-.0395.0028202-.0781.00846129-.1176.03290631-.628.12316371-1.273.26889171-1.93392.146669-.66094.338465-1.31907.576331-1.9725.237866-.65436.512396-1.29368.824536-1.9189s.65155-1.21566 1.01916-1.77131c.36761-.55564.75779-1.06804 1.17241-1.53625s.83958-.87061 1.27582-1.20719c.43624-.336589.87719-.599839 1.3219-.789756.4447-.1899164.88565-.284874 1.32189-.284874.503 0 .98907.137266 1.45822.411799.46915.274532.90818.720181 1.31718 1.335061.094.13726.1533.27641.1777.41744.0245.14102.0376.27359.0376.39769 0 .29428-.0705.5265-.2115.69668-.1411.17017-.3084.25479-.5011.25479-.1768 0-.34133-.09308-.4927-.28018-.15231-.18615-.32154-.45317-.50957-.80009-.17676-.31402-.37138-.54155-.58386-.68257-.21248-.14103-.44376-.2106-.69197-.2106-.38642 0-.80009.16077-1.23916.48137-.43906.3206-.87437.74462-1.30497 1.27112s-.84428 1.12822-1.23916 1.80609c-.39487.67693-.74462 1.37078-1.0483 2.08062s-.54531 1.41027-.72488 2.10037c-.17958.69009-.26889 1.31061-.26889 1.86061 0 .1833.01222.3714.03761.5641.02538.1927.07145.3686.14102.5256.06864.157.16265.2867.28206.3873.11846.1016.26889.1523.45128.1523.20402 0 .43625-.0686.69574-.2059.25949-.1372.52932-.3168.80761-.5396.27924-.2228.55941-.4748.84147-.7559.28205-.2811.54436-.566.78693-.8537.24256-.2877.45881-.56412.6459-.82925.18804-.26514.32906-.49548.42214-.69198l.77095-2.30626c.09402-.24821.21718-.42496.36855-.53026.15231-.10436.30838-.15701.46821-.15701.0771 0 .15419.01316.23223.03948.07709.02633.14666.06676.20684.12317.06111.05547.10906.12786.14478.21624.03573.08838.05359.1918.05359.30932 0 .31402-.02726.6083-.08273.88377s-.12599.54342-.21154.80479c-.08556.26137-.18052.52557-.28582.78976-.10342.26325-.2059.53966-.30462.82829zm10.44916 1.92364c-.2435.3272-.5265.6459-.849.9571-.3234.3112-.6562.5876-.9984.8292-.3423.2416-.6798.4363-1.0107.5839-.3319.1476-.63.2209-.8951.2209s-.4804-.0884-.6468-.2651c-.1655-.1768-.2482-.4776-.2482-.9035 0-.3009.0442-.6516.1325-1.0502-.1438.2557-.3234.5143-.5387.7756-.2153.2614-.4616.5002-.738.7165-.2765.2162-.5858.3911-.928.5246-.3422.1344-.7155.2012-1.1188.2012-.1824 0-.3582-.0226-.5265-.0687-.1683-.046-.3159-.1241-.4428-.235-.12696-.1109-.22944-.2595-.30654-.4466-.07709-.1861-.11564-.4203-.11564-.7014 0-.0065.01128-.1062.0329-.2989.02163-.1928.09214-.4974.21155-.913.11843-.4155.30273-.9533.55093-1.6142.2492-.661.5998-1.46203 1.0521-2.40503.1156-.24821.2501-.42684.4014-.53497.1523-.10812.3159-.16171.4927-.16171.0771 0 .157.01129.2407.03385.0827.0235.1598.05923.2322.10812.0715.04889.1297.11094.1739.18616.0442.07521.0668.16171.0668.26043 0 .06581-.0085.12786-.0254.18615-.0273.11188-.0865.25667-.1786.43719-.0912.18051-.1975.38641-.3188.61864-.1212.23222-.25.48231-.3854.7512-.1354.26795-.2614.54627-.377.83397-.1157.2877-.2153.581-.2981.8781-.0827.298-.1297.5876-.141.8687 0 .1175.0273.2257.0827.3244.0555.0978.1467.1476.2736.1476.3592 0 .7014-.1175 1.0276-.3535.3263-.2351.6271-.5284.9036-.8781.2764-.3498.5265-.7259.7502-1.1292.2238-.40239.4109-.77001.5594-1.10377.1053-.22282.1975-.46163.2774-.71642s.1673-.49077.2614-.70701c.094-.21624.2011-.39582.3234-.53967.1213-.14385.2736-.21624.456-.21624.1983 0 .3563.07521.4719.22564.1157.15043.174.33095.174.53967 0 .11752-.0367.28017-.1119.48607s-.1683.44189-.2821.70702c-.1128.26513-.236.54812-.3685.84898-.1326.30083-.2558.60733-.3686.91763-.1137.3112-.2068.6149-.282.9129-.0743.298-.1119.5745-.1119.8292 0 .236.1213.3536.3648.3536.1711 0 .3836-.0593.6384-.1768s.5208-.283.8001-.4955c.2792-.2125.5575-.4625.8367-.7512.2793-.2877.5265-.5989.7418-.9326z" transform="translate(8.17206 14.4252)"/><path d="m1.83993 10.1483c-.06111.1504-.12034.3253-.17863.5256-.05829.1993-.0865.3779-.0865.5349 0 .0978.01692.1768.04983.236.03291.0593.09684.0884.19086.0884.11564 0 .26043-.0404.4353-.1232.17394-.0818.36197-.1899.56317-.3243.20214-.1335.4118-.2877.62992-.4617.21812-.1729.43531-.3535.65061-.5396.2153-.18711.4212-.37327.6177-.55942.19649-.1871.37137-.35821.5265-.51522.04419-.04607.09684-.07898.15701-.09778.06017-.01975.11282-.02915.15701-.02915.11 0 .20214.04607.27359.13727.07146.0912.10718.21248.10718.36291 0 .13726-.03855.29145-.11564.46163-.0771.17016-.21248.33756-.40616.50016-.35351.3864-.70984.7522-1.06898 1.0991-.35915.3469-.71642.6525-1.07275.9176s-.70984.4757-1.06052.6337c-.35069.157-.69198.235-1.02386.235-.226587 0-.415562-.0357-.567872-.1081-.152309-.0724-.273593-.1702-.36479-.2943-.091198-.1241-.1560698-.2717-.1946172-.4419-.0385475-.1701-.0582908-.3497-.0582908-.5396 0-.3206.0404259-.6497.120341-.9863.079916-.3366.174875-.6459.285817-.92699.193677-.51052.389233-1.01727.588552-1.52121.19838-.50394.38077-.96557.54719-1.38395l2.51028-6.331175c.09966-.254789.23316-.435304.4024-.539664.16829-.1043602.33846-.157011.50958-.157011.17111 0 .32718.0554714.4682.166413.14103.110941.21154.291456.21154.539664 0 .117523-.0235.242566-.07051.373253-.04701.13068-.10624.27171-.17769.42214-.13821.30744-.30274.68351-.49266 1.12822-.19085.4447-.39487.92889-.613 1.45258-.21812.52368-.44188 1.06804-.67128 1.63403-.22941.56599-.45317 1.11694-.67129 1.65378s-.42215 1.04548-.613 1.52591c-.19274.48138-.35727.89882-.49454 1.25231z" transform="translate(25.4752 15.6042)"/><path d="m11.6338 2.52345c.0771-.05265.1495-.09496.2153-.12787.0658-.0329.1297-.04889.1909-.04889.1212 0 .2124.05453.2735.16171.0612.10812.0912.24069.0912.3977 0 .17017-.0366.34317-.1118.51992-.0743.17675-.1862.32342-.3357.44189-.5914.52368-1.1188 1.00129-1.5823 1.43283-.46445.43154-.90164.80292-1.31344 1.11412-.41179.3112-.81325.55094-1.20531.72111-.39205.17018-.81232.25479-1.25984.25479-.42026 0-.74462-.09213-.97403-.27453-.2294-.18333-.34411-.4353-.34411-.75591v-.07333c0-.02256.00283-.05077.00847-.08368.02162-.19649.10812-.42214.25667-.67693.14948-.25478.32906-.51992.53872-.79539s.43342-.55283.67129-.83394.45693-.54812.65907-.80009c.20119-.25197.36855-.48232.50111-.69198.13257-.20966.19932-.37889.19932-.51052 0-.07897-.02821-.14102-.08274-.18615-.05547-.04607-.14666-.06863-.27359-.06863-.22094 0-.44846.05735-.68351.17205-.23504.1147-.46727.26795-.69573.46069-.22941.19273-.45317.41368-.67129.66282-.21812.24915-.42214.50676-.613.77565-.19086.2689-.36479.53779-.5218.8095s-.29146.5218-.40146.7512c-.0329.0724-.07991.17394-.14102.30462-.06112.13069-.12693.2783-.19838.44189-.0724.16359-.14761.33188-.22847.50488-.07991.17393-.15325.33752-.21906.49077-.06675.15419-.12598.29052-.17863.41274-.05265.12128-.09026.20402-.11189.25009-.0282.05923-.07333.17017-.13726.33376s-.13633.35445-.22.57445c-.08274.21907-.17018.44941-.26043.69198-.0912.24256-.17676.47103-.25667.68727-.07992.21626-.15043.40526-.21154.56876-.06112.1636-.09966.2746-.11659.3338-.05547.1702-.12034.33-.19461.4814-.07428.1504-.15983.283-.25667.3977s-.20684.2059-.33189.2745c-.124101.0686-.264188.1025-.418378.1025-.199318 0-.36291-.048-.493595-.142-.129745-.0949-.194617-.2764-.194617-.5443 0-.1307.0169237-.2652.04983-.4024.0329064-.1373.075214-.2736.124103-.4071.04983-.1345.1006-.2652.15325-.3921.052651-.1279.100599-.25008.144787-.36854.298038-.65437.60266-1.31061.91198-1.9678.30932-.65813.60641-1.30873.89035-1.9537.28487-.64402.54812-1.2777.79163-1.89916.24257-.62146.4447-1.21754.60454-1.78634.04418-.11753.1053-.28488.18239-.50112.0771-.21624.16547-.42872.26513-.63838.09966-.209664.21154-.39112.33565-.54437.1241-.154189.25855-.230344.40145-.230344.22095 0 .38078.050772.48044.152311.09966.10154.14948.250088.14948.446586 0 .039488-.00564.101537-.01692.186157-.01128.08461-.02538.17487-.04137.26983-.01692.09496-.03478.18522-.05359.26983-.01974.08462-.0376.14667-.05359.18616.20402-.22282.42497-.44283.66283-.66283.23787-.219061.48325-.417441.73804-.594195.25385-.176754.51334-.320602.77847-.432483.26513-.1109418.53026-.166412.7954-.166412.18239 0 .36291.0263264.54248.0789766.17957.0526504.33941.1288044.48043.2303444.14103.101539.25573.229404.34411.382653.08838.15419.13256.331886.13256.534966 0 .26889-.06769.5547-.20308.85932-.13538.30462-.30555.61018-.50957.91762-.20496.30744-.42591.60736-.66283.89787-.23787.29146-.45975.55659-.66753.7954-.20684.2388-.38077.44188-.5218.60829-.14103.16735-.21436.28018-.22.33847 0 .07897.02538.14196.07427.19179s.13257.07334.24915.07334c.09402 0 .23223-.05265.41462-.15701.1824-.10436.43813-.28582.76625-.54437s.74556-.60547 1.25138-1.04078c.50578-.43436 1.12918-.98249 1.86908-1.64343z" transform="translate(27.4232 21.4521)"/></g></svg>