<svg fill="none" height="48" width="48" xmlns="http://www.w3.org/2000/svg"><path d="M0 0h48v48H0z" fill="#cf4547"/><g fill="#fff"><path d="M16.608 24.32c-.022.033-.062.135-.12.309a45.41 45.41 0 00-.48 1.53l-.299.992a155.588 155.588 0 00-.733 2.528c-.05.176-.08.28-.091.314a2.349 2.349 0 01-.348.712c-.083.114-.174.21-.274.284s-.202.113-.306.113c-.177 0-.306-.06-.385-.177-.08-.117-.12-.333-.12-.647v-.138c0-.046.002-.095.008-.146.005-.105.047-.301.124-.59.077-.288.17-.613.277-.977a55.2 55.2 0 01.348-1.129c.124-.39.236-.738.336-1.045-.294.327-.61.652-.954.976-.342.325-.694.615-1.052.874-.359.258-.72.47-1.086.633a2.568 2.568 0 01-1.052.245c-.386 0-.719-.086-.998-.255-.28-.17-.51-.393-.692-.667a3.018 3.018 0 01-.406-.933 4.201 4.201 0 01-.133-1.04v-.129c0-.039.003-.078.009-.117.032-.628.123-1.273.268-1.934.147-.661.339-1.32.577-1.973.238-.654.512-1.293.824-1.918s.652-1.216 1.02-1.772c.367-.555.757-1.068 1.172-1.536s.84-.87 1.276-1.207c.436-.337.877-.6 1.322-.79.444-.19.885-.285 1.321-.285.503 0 .99.137 1.459.412.469.275.908.72 1.317 1.335.094.137.153.276.178.417.024.142.037.274.037.398 0 .294-.07.527-.211.697-.141.17-.309.255-.501.255-.177 0-.342-.093-.493-.28a5.264 5.264 0 01-.51-.8c-.176-.315-.371-.542-.584-.683a1.227 1.227 0 00-.692-.21c-.386 0-.8.16-1.239.48-.439.321-.874.745-1.305 1.272s-.844 1.128-1.239 1.806c-.395.677-.744 1.37-1.048 2.08s-.545 1.41-.725 2.1c-.18.69-.269 1.311-.269 1.861 0 .184.012.372.038.564.025.193.071.37.14.526.07.157.163.287.283.387a.669.669 0 00.451.153c.204 0 .436-.069.696-.206.26-.137.53-.317.807-.54.28-.223.56-.475.842-.756a13.416 13.416 0 001.433-1.683c.188-.265.329-.495.422-.692l.77-2.306c.095-.248.218-.425.37-.53a.82.82 0 01.468-.157c.077 0 .154.013.232.04a.566.566 0 01.351.339.823.823 0 01.054.309c0 .314-.027.608-.083.884s-.126.543-.211.805c-.086.261-.18.525-.286.79-.104.263-.206.539-.305.828zm10.45 1.923a8.575 8.575 0 01-1.847 1.786c-.343.242-.68.437-1.012.584-.332.148-.63.221-.895.221s-.48-.088-.647-.265c-.165-.177-.248-.477-.248-.903 0-.301.044-.652.133-1.05a5.356 5.356 0 01-.539.775c-.215.262-.462.5-.738.717a3.65 3.65 0 01-.928.524 3.035 3.035 0 01-1.119.201c-.182 0-.358-.022-.526-.068a1.106 1.106 0 01-.443-.235c-.127-.111-.23-.26-.307-.447a1.844 1.844 0 01-.115-.701l.033-.3c.021-.192.092-.497.211-.912.119-.416.303-.953.551-1.614.25-.661.6-1.462 1.052-2.405.116-.249.25-.427.402-.535a.833.833 0 01.733-.128c.083.023.16.06.232.108.072.049.13.11.174.186a.504.504 0 01.067.26.665.665 0 01-.025.187 2.149 2.149 0 01-.179.437c-.091.18-.198.386-.319.619-.121.232-.25.482-.385.75a10.67 10.67 0 00-.377.835 8.394 8.394 0 00-.298.878 3.82 3.82 0 00-.141.869c0 .117.027.225.082.324.056.098.147.148.274.148.36 0 .701-.118 1.028-.354.326-.235.627-.528.903-.878.277-.35.527-.726.75-1.13.224-.402.411-.77.56-1.103.105-.223.197-.462.277-.716s.167-.491.262-.707a2.15 2.15 0 01.323-.54.573.573 0 01.456-.216c.198 0 .356.075.472.225a.86.86 0 01.174.54c0 .117-.037.28-.112.486s-.168.442-.282.707c-.113.265-.236.548-.369.849-.132.3-.255.607-.368.918a9.255 9.255 0 00-.282.913 3.445 3.445 0 00-.112.829c0 .236.121.353.365.353.17 0 .383-.059.638-.176s.52-.283.8-.496c.28-.212.558-.462.837-.751.28-.288.526-.6.742-.933z"/><path d="M27.315 25.753c-.061.15-.12.325-.179.525-.058.2-.086.378-.086.535 0 .098.017.177.05.236.033.06.097.088.19.088.116 0 .261-.04.436-.123.174-.082.362-.19.563-.324a8.75 8.75 0 00.63-.462 19.913 19.913 0 001.795-1.614.367.367 0 01.157-.098c.06-.02.113-.029.157-.029.11 0 .202.046.273.137a.573.573 0 01.108.363c0 .137-.039.292-.116.462-.077.17-.212.337-.406.5-.354.386-.71.752-1.07 1.1-.358.346-.716.652-1.072.917s-.71.475-1.06.633c-.351.157-.692.235-1.024.235-.227 0-.416-.035-.568-.108a.946.946 0 01-.365-.294 1.175 1.175 0 01-.195-.442 2.434 2.434 0 01-.058-.54c0-.32.04-.65.12-.986.08-.336.175-.646.286-.927.194-.51.39-1.017.589-1.521.198-.504.38-.966.547-1.384l2.51-6.331c.1-.255.234-.435.403-.54a.96.96 0 01.51-.157.74.74 0 01.468.167c.14.11.211.291.211.54 0 .117-.023.242-.07.373-.047.13-.107.271-.178.422-.138.307-.303.683-.493 1.128a184.251 184.251 0 00-1.284 3.087l-.671 1.653a219.384 219.384 0 00-1.108 2.779z"/><path d="M39.057 23.976c.077-.053.15-.095.215-.128a.426.426 0 01.191-.05c.121 0 .213.055.274.163.06.108.09.24.09.397 0 .17-.036.343-.11.52a1.097 1.097 0 01-.337.442 86.28 86.28 0 00-1.582 1.433c-.464.431-.902.803-1.313 1.114-.412.311-.814.55-1.206.721a3.13 3.13 0 01-1.26.255c-.42 0-.744-.092-.974-.275-.229-.183-.344-.435-.344-.756v-.073c0-.022.003-.05.009-.084.021-.196.108-.422.257-.677.149-.254.329-.52.538-.795s.434-.553.672-.834.456-.548.659-.8a7.88 7.88 0 00.5-.692c.133-.21.2-.379.2-.51a.23.23 0 00-.083-.187c-.055-.046-.146-.068-.273-.068-.221 0-.449.057-.684.172a3.387 3.387 0 00-.696.46c-.229.193-.453.414-.67.663a10.32 10.32 0 00-1.135 1.585 11.211 11.211 0 00-.543 1.056c-.061.131-.127.279-.199.442-.072.164-.147.332-.228.505-.08.174-.153.338-.219.49l-.179.414a9.91 9.91 0 01-.112.25c-.028.059-.073.17-.137.333s-.136.355-.22.575l-.26.692a131.019 131.019 0 00-.468 1.256c-.062.164-.1.275-.117.334-.056.17-.12.33-.195.481-.074.15-.16.283-.256.398s-.207.206-.332.274a.852.852 0 01-.419.103.822.822 0 01-.493-.142c-.13-.095-.195-.277-.195-.544 0-.131.017-.266.05-.403s.075-.273.124-.407c.05-.135.1-.265.153-.392.053-.128.101-.25.145-.369.298-.654.603-1.31.912-1.967.31-.659.607-1.31.89-1.954.285-.644.549-1.278.792-1.9.243-.62.445-1.217.605-1.786.044-.117.105-.285.182-.5.077-.217.166-.43.265-.64.1-.209.212-.39.336-.544.124-.154.258-.23.401-.23.221 0 .381.05.48.152.1.102.15.25.15.447 0 .04-.005.102-.017.186a6.515 6.515 0 01-.095.54c-.02.084-.037.147-.053.186a11.3 11.3 0 01.663-.663c.237-.219.483-.417.738-.594.253-.177.513-.32.778-.432.265-.111.53-.167.795-.167.183 0 .363.026.543.08.18.052.34.128.48.23.141.101.256.229.344.382.089.154.133.332.133.535 0 .269-.068.555-.203.86a6.27 6.27 0 01-.51.917c-.205.307-.425.607-.662.898-.238.291-.46.556-.668.795l-.522.609c-.14.167-.214.28-.22.338 0 .079.026.142.075.192s.132.073.249.073c.094 0 .232-.053.414-.157.183-.104.438-.286.767-.544s.745-.606 1.25-1.041c.507-.434 1.13-.983 1.87-1.643z"/></g></svg>