<svg fill="none" height="48" width="48" xmlns="http://www.w3.org/2000/svg"><path d="M10.094 44.145L7 9.433h34L37.902 44.14 23.98 48z" fill="#e44d26"/><path d="M24 45.049l11.25-3.12 2.648-29.658H24z" fill="#f16529"/><path d="M24 25.145h-5.632l-.39-4.36H24V16.53H13.327l.102 1.142 1.046 11.731H24zM24 36.202l-.019.005-4.74-1.28-.303-3.396h-4.273l.596 6.685 8.72 2.42.019-.005z" fill="#ebebeb"/><g fill="#000"><path d="M10.163 0h2.163v2.138h1.98V0h2.162v6.473h-2.163V4.305h-1.978v2.168h-2.164V0zM19.313 2.147h-1.904V0h5.972v2.147h-1.905v4.326h-2.163V2.147zM24.329 0h2.255l1.388 2.274L29.358 0h2.256v6.473H29.46V3.265l-1.488 2.301h-.037l-1.49-2.301v3.208H24.33zM32.69 0h2.165v4.333h3.042v2.14H32.69z"/></g><path d="M23.985 25.145v4.258h5.242l-.494 5.52-4.748 1.282v4.43l8.726-2.42.064-.719 1-11.207.104-1.144h-1.147zM23.985 16.529v4.256h10.282l.085-.956.194-2.158.102-1.142z" fill="#fff"/></svg>