<svg fill="none" height="48" viewBox="0 0 48 48" width="48" xmlns="http://www.w3.org/2000/svg"><path d="m3.09421 34.7116-3.09421-34.7116h34l-3.0975 34.7062-13.9233 3.8607z" fill="#e44d26" transform="translate(7 9.43312)"/><path d="m0 32.7777 11.2507-3.1197 2.647-29.658h-13.8977z" fill="#f16529" transform="translate(24 12.2713)"/><path d="m10.6731 8.61675h-5.63235l-.38899-4.35947h6.02134v-4.25728h-.0147-10.6584l.101886 1.14216 1.046154 11.73174h9.52506z" fill="#ebebeb" transform="translate(13.3268 16.5286)"/><path d="m9.33492 4.67063-.01865.00496-4.74043-1.28025-.30304-3.39534h-2.30348-1.96932l.596327 6.68447 8.719003 2.4209.01959-.00543z" fill="#ebebeb" transform="translate(14.665 31.5312)"/><g fill="#000"><path d="m0 0h2.16307v2.1375h1.97869v-2.1375h2.16316v6.47287h-2.16306v-2.1675h-1.9787v2.1675h-2.16306632v-6.47287z" transform="translate(10.1634)"/><path d="m1.90427 2.1465h-1.90427v-2.1465h5.97264v2.1465h-1.90511v4.32637h-2.16316v-4.32637z" transform="translate(17.4085)"/><path d="m0 0h2.25549l1.38743 2.27437 1.38602-2.27437h2.25633v6.47287h-2.15416v-3.20831l-1.48819 2.30147h-.03721l-1.48923-2.30147v3.20831h-2.11648z" transform="translate(24.329)"/><path d="m0 0h2.16372v4.33331h3.04191v2.13956h-5.20563z" transform="translate(32.6909)"/></g><path d="m0 0v4.25719h5.24134l-.49407 5.52131-4.74727 1.2816v4.4291l8.72594-2.4189.06402-.7192 1.00022-11.20791.10386-1.14319h-1.14701z" fill="#fff" transform="translate(23.9853 25.1454)"/><path d="m0 0v2.64413 1.60275.0104h10.2677.0136l.0854-.9569.194-2.15822.1018-1.14216z" fill="#fff" transform="translate(23.9853 16.5286)"/></svg>