<svg
   xmlns="http://www.w3.org/2000/svg"
   xmlns:inkscape="http://www.inkscape.org/namespaces/inkscape"
   width="35.625mm"
   height="36.227001mm"
   viewBox="0 0 35.625 36.227001"
   id="svg8">
  <g
     inkscape:label="Layer 1"
     inkscape:groupmode="layer"
     id="layer1"
     transform="translate(0,-260.773)">
    <g
       id="g11533"
       transform="translate(-21.07066,138.86342)">
      <path
         inkscape:connector-curvature="0"
         style="fill:#232527;fill-opacity:1;fill-rule:nonzero;stroke:none;stroke-width:0.61020035"
         d="m 32.008108,152.13338 v 3.38561 c 0,0.96167 -0.477188,1.47481 -1.344286,1.47481 -0.871973,0 -1.352022,-0.52794 -1.352022,-1.51585 v -3.34086 h -1.199629 v 3.3819 c 0,1.66402 0.924299,2.61759 2.53584,2.61759 1.626794,0 2.559726,-0.97184 2.559726,-2.66637 v -3.33683 z m 4.413667,0 -2.60548,5.91102 h 1.22453 l 0.50293,-1.14479 0.036,-0.0858 h 2.70674 l 0.53085,1.23058 h 1.25783 l -2.58126,-5.87603 -0.0232,-0.035 z m 7.13285,0 -1.3426,4.06717 -1.30694,-4.06414 h -1.27667 l 2.06083,5.91169 h 0.99341 l 1.3453,-3.88349 1.34428,3.88349 h 1.00183 l 2.05578,-5.91169 h -1.24403 l -1.30964,4.06414 -1.34294,-4.06717 z m 11.73962,0 v 5.90598 h 1.18382 v -5.90598 z m -33.954971,3.5e-4 v 5.91405 h 1.199967 v -2.40195 h 2.709428 v 2.40195 h 1.200302 v -5.91405 h -1.200302 v 2.3858 h -2.709428 v -2.3858 z m 28.058081,0.004 v 5.90598 h 4.46615 v -1.07684 h -3.28233 v -1.46439 h 2.18261 v -1.07717 h -2.18261 v -1.21073 h 3.16795 v -1.07685 z m -12.46727,1.49231 0.85549,1.98009 h -0.003 l 0.0582,0.13659 h -1.81492 l 0.0575,-0.13659 h -10e-4 z"
         id="path4250" />
      <path
         inkscape:connector-curvature="0"
         id="path4252"
         d="m 36.28191,121.90942 c -0.475959,0.0421 -1.762165,0.33486 -1.762165,0.33486 h -5.29e-4 c -2.899064,0.74933 -3.584279,3.38016 -3.584279,3.38016 -0.141571,0.44239 -0.20588,0.89577 -0.224793,1.32291 v 0.58136 c 0.03847,0.89821 0.238229,1.5689 0.238229,1.5689 0.968385,4.29398 5.729766,11.3496 6.753076,12.83177 0.0726,0.072 0.130742,0.046 0.130742,0.046 0.11045,-0.0305 0.101803,-0.13643 0.101803,-0.13643 l 0.0021,5.3e-4 C 39.512243,126.08533 36.28193,121.90943 36.28193,121.90943 Z m 5.207952,0 c 0,0 -3.244443,4.17811 -1.667081,19.94142 h 0.0021 c 0.0122,0.10007 0.0832,0.12092 0.0832,0.12092 0.10556,0.0409 0.159681,-0.0605 0.159681,-0.0605 l 5.29e-4,0.001 c 1.049552,-1.52001 5.7838,-8.53723 6.747909,-12.81473 0,0 0.522727,-2.07032 0.0181,-3.47317 0,0 -0.716688,-2.67157 -3.619418,-3.37757 0,0 -0.836509,-0.21236 -1.724959,-0.33745 z m -14.964979,4.72942 c 0,0 -2.762271,2.62176 -2.899563,5.40123 h 0.0011 v 0.42116 c 0.0021,0.0317 0.0037,0.0638 0.0057,0.0961 0.118988,2.24127 1.805056,3.56774 1.805056,3.56774 2.716617,2.64766 9.294564,5.99046 10.823112,6.74894 0.02141,0.008 0.100383,0.0338 0.146762,-0.0248 0,0 0.02413,-0.0183 0.03514,-0.0512 v -0.0698 c -0.0011,-0.004 -0.0032,-0.008 -0.0052,-0.0124 h 5.29e-4 c -4.185971,-9.14448 -9.912575,-16.07706 -9.912575,-16.07706 z m 24.715287,0 c 0,0 -5.709329,6.91081 -9.893453,16.03675 l 0.0016,-5.3e-4 c 0,0 -0.04941,0.10581 0.03049,0.17415 0,0 0.02384,0.018 0.05684,0.0253 h 0.05788 c 0.0104,-0.003 0.02156,-0.007 0.03256,-0.0145 v 0.001 c 1.570048,-0.77923 8.097091,-4.10006 10.800889,-6.73551 0,0 1.712259,-1.37501 1.801958,-3.58272 0.19771,-3.06627 -2.888713,-5.90404 -2.888713,-5.90404 z m 5.138706,9.07852 c 0,0 -9.307946,4.9951 -14.120585,8.24136 l 5.29e-4,5.3e-4 0.0011,0.001 c 0,0 -0.08734,0.0572 -0.05685,0.15969 0,0 0.04567,0.0827 0.112138,0.0827 v 5.3e-4 c 1.723819,0.003 8.246798,0.0103 8.41034,-0.0202 0,0 0.843452,-0.0337 1.885672,-0.43409 0,0 2.320216,-0.73765 3.525367,-3.37188 0,0 0.550682,-1.10148 0.558622,-2.64894 v -0.0656 c -0.004,-0.59677 -0.08807,-1.25741 -0.316259,-1.9451 z m -34.995281,0.0233 c -0.846883,2.62174 0.293233,4.73428 0.295074,4.73769 1.188143,2.51046 3.45612,3.27112 3.45612,3.27112 1.047102,0.43019 2.094444,0.45992 2.094444,0.45992 0.163537,0.0299 6.51274,0.003 8.213969,-0.005 0.072,-5.3e-4 0.111622,-0.0729 0.111622,-0.0729 0.005,-0.008 0.0094,-0.016 0.01138,-0.0233 v -0.0656 c -0.0141,-0.0439 -0.05168,-0.0749 -0.05168,-0.0749 l 0.0011,-5.3e-4 C 30.705391,140.72197 21.38367,135.74079 21.38367,135.74079 Z m 13.865304,9.26971 -10.94972,0.38396 c 1.18745,2.11679 3.187258,3.7619 5.270479,3.25665 1.437632,-0.35941 4.694505,-2.63112 5.769673,-3.39876 l -0.0036,-0.003 c 0.0836,-0.0751 0.05374,-0.13539 0.05374,-0.13539 -0.0275,-0.0983 -0.140559,-0.0982 -0.140559,-0.0982 z m 7.252269,0.008 -0.0011,0.004 c 0,0 -0.09613,0.0122 -0.122992,0.0842 0,0 -0.02336,0.0984 0.04134,0.14727 l -0.0011,0.001 c 1.04833,0.75176 4.22628,2.97355 5.75727,3.40496 0,0 0.231934,0.0789 0.620636,0.093 h 0.233576 c 1.02575,-0.036 2.812672,-0.56293 4.436423,-3.35277 z"
         style="fill:#cf0a2c;fill-opacity:1;stroke:none;stroke-width:0.61020029" />
    </g>
  </g>
</svg>
