<?xml version="1.0" encoding="UTF-8"?>
<!DOCTYPE svg PUBLIC "-//W3C//DTD SVG 1.1//EN" "http://www.w3.org/Graphics/SVG/1.1/DTD/svg11.dtd">
<svg xmlns="http://www.w3.org/2000/svg" version="1.1" width="512px" height="512px" style="shape-rendering:geometricPrecision; text-rendering:geometricPrecision; image-rendering:optimizeQuality; fill-rule:evenodd; clip-rule:evenodd" xmlns:xlink="http://www.w3.org/1999/xlink">
<g><path style="opacity:0.983" fill="#000000" d="M 330.5,-0.5 C 370.833,-0.5 411.167,-0.5 451.5,-0.5C 474.541,47.21 484.041,97.5434 480,150.5C 470.167,200.333 440.333,230.167 390.5,240C 337.379,244.303 299.713,222.469 277.5,174.5C 295.966,167.176 314.799,160.509 334,154.5C 338.122,159.848 342.622,165.014 347.5,170C 364.174,181.482 381.508,182.482 399.5,173C 417.932,159.368 423.766,141.535 417,119.5C 404.861,95.3504 385.695,86.8504 359.5,94C 345.591,100.241 336.258,110.574 331.5,125C 311.296,132.013 290.963,138.513 270.5,144.5C 268.473,117.09 275.639,92.4235 292,70.5C 299.667,61.5 308,53.1667 317,45.5C 327.385,31.9719 331.885,16.6386 330.5,-0.5 Z"/></g>
<g><path style="opacity:0.974" fill="#000000" d="M 94.5,73.5 C 112.031,84.0304 129.031,95.3638 145.5,107.5C 116.949,150.293 99.2822,197.293 92.5,248.5C 67.6672,256.817 47.1672,271.15 31,291.5C 30.6277,212.461 51.7943,139.795 94.5,73.5 Z"/></g>
<g><path style="opacity:0.967" fill="#000000" d="M 214.5,150.5 C 215.497,150.47 216.164,150.97 216.5,152C 223.196,171.074 229.196,190.074 234.5,209C 212.223,216.954 194.223,230.454 180.5,249.5C 159.581,242.015 138.248,239.349 116.5,241.5C 129.417,210.42 150.084,185.92 178.5,168C 190.265,161.479 202.265,155.646 214.5,150.5 Z"/></g>
<g><path style="opacity:0.974" fill="#000000" d="M 479.5,219.5 C 480.646,298.732 459.313,371.399 415.5,437.5C 398.45,426.648 381.783,415.315 365.5,403.5C 394.391,360.841 412.057,313.841 418.5,262.5C 443.333,254.275 463.667,239.942 479.5,219.5 Z"/></g>
<g><path style="opacity:0.967" fill="#000000" d="M 329.5,261.5 C 350.76,268.938 372.427,271.605 394.5,269.5C 375.081,314.804 341.915,345.137 295,360.5C 288.692,341.242 282.192,322.076 275.5,303C 292.388,296.643 307.221,287.143 320,274.5C 323.665,270.492 326.832,266.159 329.5,261.5 Z"/></g>
<g><path style="opacity:0.983" fill="#000000" d="M 179.5,511.5 C 139.5,511.5 99.5,511.5 59.5,511.5C 36.4587,463.79 26.9587,413.457 31,360.5C 40.8294,310.671 70.6628,280.837 120.5,271C 173.621,266.697 211.287,288.531 233.5,336.5C 215.034,343.824 196.201,350.491 177,356.5C 172.878,351.152 168.378,345.986 163.5,341C 146.826,329.518 129.492,328.518 111.5,338C 93.0675,351.632 87.2342,369.465 94,391.5C 106.139,415.65 125.305,424.15 151.5,417C 165.409,410.759 174.742,400.426 179.5,386C 199.704,378.987 220.037,372.487 240.5,366.5C 242.526,393.914 235.359,418.58 219,440.5C 211,449.833 202.333,458.5 193,466.5C 182.467,479.62 177.967,494.62 179.5,511.5 Z"/></g>
</svg>
