<?xml version="1.0" ?><!DOCTYPE svg  PUBLIC '-//W3C//DTD SVG 1.1//EN'  'http://www.w3.org/Graphics/SVG/1.1/DTD/svg11.dtd'><svg enable-background="new 0 0 512 177.846" height="177.846px" id="Layer_1" version="1.1" viewBox="0 0 512 177.846" width="512px" xml:space="preserve" xmlns="http://www.w3.org/2000/svg" xmlns:xlink="http://www.w3.org/1999/xlink"><g><rect fill="#4E8EF7" height="69.596" width="3.678" x="227.792" y="66.041"/><path d="M283.729,64.333c-20.879,0-36.632,15.759-36.632,36.506c0,20.879,15.753,36.505,36.632,36.505   c20.881,0,36.639-15.626,36.639-36.505C320.366,80.092,304.609,64.333,283.729,64.333z M283.729,133.93   c-18.776,0-32.957-14.182-32.957-33.091c0-18.91,14.18-33.09,32.957-33.09c18.778,0,32.964,14.18,32.964,33.09   C316.691,119.748,302.508,133.93,283.729,133.93z" fill="#4E8EF7"/><path d="M389.83,71.293c-7.879-6.435-17.332-6.96-22.191-6.96c-11.029,0-23.244,5.123-27.573,15.102h-0.267V66.041   h-3.677v69.596h3.677V95.586c0-17.464,10.771-27.837,28.234-27.837c10.505,0,16.147,3.414,19.694,6.564   c5.253,4.728,8.536,12.475,8.536,24.553v36.771h3.679V98.866C399.942,86.394,396.659,77.07,389.83,71.293z" fill="#4E8EF7"/><rect fill="#4E8EF7" height="69.596" width="3.677" x="420.295" y="66.041"/><path d="M476.233,133.93c-17.729,0-32.961-13.396-32.961-33.091c0-9.454,3.938-18.646,9.587-23.77   c7.221-6.433,13.654-9.32,23.505-9.32c13.654,0,25.736,7.614,30.463,20.876h4.072c-5.516-16.413-20.485-24.292-34.666-24.292   c-21.144,0-36.64,16.02-36.64,36.638c0,21.667,16.414,36.373,36.64,36.373c16.546,0,29.676-9.454,34.533-23.636h-4.068   C503.284,124.082,491.99,133.93,476.233,133.93z" fill="#4E8EF7"/><circle cx="229.632" cy="44.468" fill="#4E8EF7" r="3.969"/><circle cx="422.132" cy="44.468" fill="#4E8EF7" r="3.969"/><circle cx="90.024" cy="88.922" fill="#4E8EF7" r="36.306"/><path d="M164.115,27.317c0-6.896-5.592-12.484-12.486-12.484c-3.129,0-5.979,1.158-8.171,3.06   C128.571,6.665,110.062,0,90.023,0C40.991,0,1.101,39.891,1.101,88.923c0,49.031,39.891,88.923,88.923,88.923   s88.922-39.892,88.922-88.923c0-20.039-6.665-38.548-17.892-53.436C162.956,33.297,164.115,30.445,164.115,27.317z M90.023,174.854   c-47.382,0-85.932-38.55-85.932-85.932S42.641,2.99,90.023,2.99c19.266,0,37.069,6.374,51.417,17.123   c-1.442,2.036-2.297,4.518-2.297,7.203c0,6.895,5.59,12.483,12.484,12.483c2.686,0,5.165-0.855,7.202-2.297   c10.749,14.348,17.123,32.151,17.123,51.419C175.954,136.304,137.406,174.854,90.023,174.854z" fill="#4E8EF7"/></g></svg>