<?xml version="1.0" encoding="UTF-8"?>
<svg xmlns="http://www.w3.org/2000/svg" xmlns:xlink="http://www.w3.org/1999/xlink" width="39pt" height="47pt" viewBox="0 0 39 47" version="1.1">
<g id="surface1">
<path style=" stroke:none;fill-rule:nonzero;fill:rgb(60%,60%,60%);fill-opacity:1;" d="M 21.519531 4.089844 C 24.660156 0.0195312 29.03125 0 29.03125 0 C 29.03125 0 29.679688 3.828125 26.558594 7.511719 C 23.222656 11.449219 19.433594 10.804688 19.433594 10.804688 C 19.433594 10.804688 18.722656 7.710938 21.519531 4.089844 Z M 19.835938 13.484375 C 21.453125 13.484375 24.453125 11.300781 28.359375 11.300781 C 35.082031 11.300781 37.730469 16.003906 37.730469 16.003906 C 37.730469 16.003906 32.554688 18.601562 32.554688 24.90625 C 32.554688 32.019531 39 34.472656 39 34.472656 C 39 34.472656 34.496094 46.929688 28.410156 46.929688 C 25.613281 46.929688 23.441406 45.078125 20.496094 45.078125 C 17.496094 45.078125 14.515625 47 12.578125 47 C 7.019531 47 0 35.179688 0 25.683594 C 0 16.335938 5.941406 11.433594 11.515625 11.433594 C 15.140625 11.433594 17.949219 13.484375 19.835938 13.484375 Z M 19.835938 13.484375 "/>
</g>
</svg>
