<svg width="64" height="64" viewBox="2 7.5 20 11" fill="none" xmlns="http://www.w3.org/2000/svg"><rect width="25" height="25" fill="white"/><path opacity="0.1" d="M13.138 3.407C13.1286 3.44475 13.1286 3.48425 13.138 3.522C13.138 3.522 13.26 4.336 13.119 4.699L7.344 20.041C6.932 21.17 7.484 22.424 8.591 22.854C9.697 23.284 10.925 22.73 11.366 21.61L17.141 6.269C17.253 5.972 17.901 5.389 17.901 5.389C17.9283 5.36237 17.9531 5.33324 17.975 5.302V5.292C17.975 5.283 17.985 5.283 17.985 5.273C18.135 4.881 17.169 4.135 15.838 3.608C14.507 3.082 13.298 2.977 13.148 3.378C13.148 3.378 13.138 3.388 13.138 3.408V3.407Z" fill="black"/><path d="M12.97 3.273C12.9606 3.31076 12.9606 3.35024 12.97 3.388C12.97 3.388 13.092 4.202 12.951 4.565L7.176 19.906C6.764 21.036 7.317 22.29 8.423 22.72C9.53 23.15 10.758 22.596 11.198 21.476L16.973 6.135C17.086 5.838 17.733 5.255 17.733 5.255C17.7603 5.22837 17.7851 5.19924 17.807 5.168V5.158C17.807 5.149 17.817 5.149 17.817 5.139C17.967 4.747 17.001 4.001 15.67 3.474C14.339 2.948 13.13 2.843 12.98 3.244C12.98 3.254 12.98 3.264 12.97 3.274V3.273Z" fill="url(#paint0_linear_2_14)"/><path d="M14.789 10.212L10.617 21.275C10.307 22.07 9.417 22.481 8.62 22.165C7.823 21.85 7.401 20.921 7.692 20.127L10.354 13.054C10.354 13.054 10.683 12.509 11.339 12.117C11.995 11.724 12.529 11.81 13.251 11.485C13.982 11.159 14.79 10.212 14.79 10.212H14.789Z" fill="url(#paint1_linear_2_14)"/><path d="M16.81 4.82C16.894 4.598 16.296 4.156 15.475 3.833C14.655 3.509 13.921 3.426 13.838 3.648C13.755 3.869 14.353 4.311 15.174 4.634C15.995 4.958 16.728 5.041 16.811 4.819L16.81 4.82Z" fill="#333333"/><path opacity="0.3" d="M12.93 3.387C12.93 3.387 13.051 4.198 12.912 4.561L7.175 19.859C6.765 20.985 7.315 22.235 8.413 22.665C8.6 22.741 8.795 22.789 8.991 22.798C8.623 22.512 8.355 22.112 8.226 21.658C8.097 21.204 8.114 20.722 8.274 20.278L13.899 5.286C13.899 5.286 13.126 4.551 12.93 3.386V3.387Z" fill="white"/><g opacity="0.5"><path opacity="0.5" d="M11.086 13.427C11.1083 13.4267 11.1304 13.4221 11.1509 13.4133C11.1714 13.4045 11.19 13.3918 11.2056 13.3758C11.2212 13.3598 11.2335 13.3409 11.2418 13.3202C11.2501 13.2995 11.2543 13.2773 11.254 13.255C11.2543 13.2327 11.2501 13.2105 11.2418 13.1898C11.2335 13.1691 11.2212 13.1502 11.2056 13.1342C11.19 13.1182 11.1714 13.1055 11.1509 13.0967C11.1304 13.0879 11.1083 13.0833 11.086 13.083C11.0411 13.0838 10.9983 13.1023 10.967 13.1346C10.9357 13.1668 10.9185 13.2101 10.919 13.255C10.9185 13.2999 10.9357 13.3432 10.967 13.3754C10.9983 13.4077 11.0411 13.4262 11.086 13.427V13.427ZM12.176 14.744C12.315 14.744 12.428 14.628 12.428 14.486C12.428 14.344 12.315 14.228 12.176 14.228C12.037 14.228 11.925 14.344 11.925 14.486C11.925 14.628 12.037 14.744 12.176 14.744ZM10.509 16.442C10.771 16.442 10.984 16.224 10.984 15.956C10.984 15.688 10.771 15.469 10.509 15.469C10.246 15.469 10.034 15.687 10.034 15.956C10.034 16.225 10.246 16.442 10.509 16.442ZM9.745 17.11C9.884 17.11 9.997 16.995 9.997 16.853C9.997 16.711 9.884 16.595 9.745 16.595C9.606 16.595 9.494 16.71 9.494 16.853C9.494 16.996 9.606 17.11 9.745 17.11ZM10.742 18.933C10.7869 18.9322 10.8297 18.9137 10.861 18.8814C10.8923 18.8492 10.9095 18.8059 10.909 18.761C10.9093 18.7163 10.8919 18.6732 10.8606 18.6412C10.8294 18.6092 10.7867 18.5908 10.742 18.59C10.6971 18.5905 10.6542 18.6088 10.6227 18.6408C10.5913 18.6729 10.5737 18.7161 10.574 18.761C10.5737 18.7833 10.5779 18.8055 10.5862 18.8262C10.5945 18.8469 10.6068 18.8658 10.6224 18.8818C10.638 18.8978 10.6566 18.9105 10.6771 18.9193C10.6976 18.9281 10.7197 18.9327 10.742 18.933V18.933Z" fill="white"/></g><defs><linearGradient id="paint0_linear_2_14" x1="10.142" y1="7.695" x2="15.1323" y2="8.27316" gradientUnits="userSpaceOnUse"><stop stop-color="#919191"/><stop offset="1" stop-color="white"/></linearGradient><linearGradient id="paint1_linear_2_14" x1="9.842" y1="12.869" x2="12.8695" y2="13.2913" gradientUnits="userSpaceOnUse"><stop stop-color="#990000"/><stop offset="1" stop-color="#E80000"/></linearGradient></defs></svg>
