<svg fill="none" height="48" width="48" xmlns="http://www.w3.org/2000/svg"><linearGradient id="a" gradientTransform="matrix(4.83727 1.899 -1.03163 8.90434 3.102 4.695)" gradientUnits="userSpaceOnUse" x2="1"><stop offset="0" stop-color="#919191"/><stop offset="1" stop-color="#fff"/></linearGradient><linearGradient id="b" gradientTransform="matrix(2.92614 1.14872 -.68472 4.90904 2.242 2.657)" gradientUnits="userSpaceOnUse" x2="1"><stop offset="0" stop-color="#900"/><stop offset="1" stop-color="#e80000"/></linearGradient><linearGradient id="c" gradientTransform="scale(40.8653 15.6686) rotate(-90 .5 .5)" gradientUnits="userSpaceOnUse" x2="1"><stop offset="0" stop-color="#1a1a1a"/><stop offset=".403" stop-color="#4a4a4c"/><stop offset="1" stop-color="#333"/></linearGradient><path d="M43.138 14.407a.237.237 0 000 .115s.122.814-.019 1.177l-5.775 15.342c-.412 1.129.14 2.383 1.247 2.813 1.106.43 2.334-.124 2.775-1.244l5.775-15.341c.112-.297.76-.88.76-.88a.612.612 0 00.074-.087v-.01c0-.009.01-.009.01-.019.15-.392-.816-1.138-2.147-1.665-1.331-.526-2.54-.631-2.69-.23 0 0-.01.01-.01.03z" fill="#000" opacity=".1"/><path d="M5.93.273a.238.238 0 000 .115s.122.814-.019 1.177L.136 16.906c-.412 1.13.141 2.384 1.247 2.814 1.107.43 2.335-.124 2.775-1.244L9.933 3.135c.113-.297.76-.88.76-.88a.613.613 0 00.074-.087v-.01c0-.009.01-.009.01-.019.15-.392-.816-1.138-2.147-1.665-1.331-.526-2.54-.631-2.69-.23 0 .01 0 .02-.01.03z" fill="url(#a)" transform="translate(37.04 14)"/><path d="M7.189 0L3.017 11.063c-.31.795-1.2 1.206-1.997.89-.797-.315-1.219-1.244-.928-2.038l2.662-7.073s.329-.545.985-.937c.656-.393 1.19-.307 1.912-.632C6.382.947 7.19 0 7.19 0z" fill="url(#b)" transform="translate(37.6 21.212)"/><path d="M46.81 15.82c.084-.222-.514-.664-1.335-.987-.82-.324-1.554-.407-1.637-.185-.083.221.515.663 1.336.986.821.324 1.554.407 1.637.185z" fill="#333"/><path d="M42.93 14.387s.121.811-.018 1.174l-5.737 15.298c-.41 1.126.14 2.376 1.238 2.806.187.076.382.124.578.133-.368-.286-.636-.686-.765-1.14s-.112-.936.048-1.38l5.625-14.992s-.773-.735-.969-1.9z" fill="#fff" opacity=".3"/><g fill="#fff" opacity=".5"><path d="M41.086 24.427a.17.17 0 00.168-.172.17.17 0 00-.168-.172.17.17 0 00-.167.172.17.17 0 00.167.172zM42.176 25.744c.139 0 .252-.116.252-.258s-.113-.258-.252-.258-.251.116-.251.258.112.258.251.258zM40.509 27.442c.262 0 .475-.218.475-.486s-.213-.487-.475-.487c-.263 0-.475.218-.475.487s.212.486.475.486zM39.745 28.11c.139 0 .252-.115.252-.257s-.113-.258-.252-.258-.251.115-.251.258.112.257.251.257zM40.742 29.933a.17.17 0 00.167-.172.17.17 0 00-.167-.171.17.17 0 00-.168.171.17.17 0 00.168.172z" opacity=".5"/></g><path d="M11.31 23.31c.254.21.713.086 1.023-.258.328-.362.375-.83.122-1.04-.254-.21-.713-.086-1.022.277-.328.362-.385.82-.122 1.021zm-.758.678c-.066 0-.188.124-.085.171.14.048.206.172.206.344-.121.716-.993 1.527-1.33 1.804-.085.085.037.276.121.21.187-.153.581-.468.9-.888-.525 1.193-1.556 2.739-1.95 3.283-1.537 2.166-3.872 4.16-5.475 4.16a2.623 2.623 0 01-2.606-2.185c-.019-.143-.206-.171-.169.02.29 1.784 1.64 2.48 3.272 2.48 1.79 0 3.89-1.316 5.053-2.671 1.875-2.186 3.084-4.705 2.766-6.127-.132-.525-.497-.611-.703-.601zm11.521 4.762c.497-.124.9-.401.9-.84 0-.048-.084-.048-.084 0 0 .258-.291.477-.62.525-.768.124-2.287-.792-3-1.737.77.296 2.335-.134 3.076-.678.684-.506.956-1.059 1.003-1.508.084-.744-.713-1.183-1.828-.744-.713.296-1.566.935-2.456 2.138.937-1.575 2.784-4.152 4.593-5.793 2.203-1.995 3.478-1.613 1.5.506-.815.868-2.353 1.994-3.412 2.481-.328.143-.169.334.066.23 1.124-.507 2.624-1.547 3.534-2.415 2.68-2.625.44-4.6-2.522-1.823-2.016 1.89-3.328 3.865-4.472 6.432-.393.487-.684.888-1.04 1.193-.047.038-.075.076-.103.115-.985.858-2.532 2.023-3.497 2.032-.685.02-.975-.506-.853-1.183.187-1.06 1.265-2.31 2.184-2.74 1.19-.553 1.894.526.328 1.385-.6.315-1.312.486-1.603.486-.337 0-.31.144-.019.153.478.02 1.247-.19 1.753-.43 1.603-.782 1.707-2.242-.037-2.29-1.894-.067-4.163 1.575-4.144 3.646.019.935.75 1.44 1.753 1.44 1.678-.018 3.169-1.316 4.397-2.461.178-.153.347-.315.516-.487-.432 1.107-.647 2.138-.544 2.901.066.554.375.811.619 1.021.047.038.15 0 .084-.105-.356-.43-.253-1.718.234-2.968.413.84 2.016 1.9 3.694 1.518zm-2.016-3.617c1.96-1.785 2.728-.191 1.482.782-.647.506-1.932.888-2.335.64l-.084-.048c-.047-.086-.103-.172-.14-.258.327-.41.702-.773 1.077-1.116zM30.951 23.1c.787.086.46-.887-.338-.64-.356.106-.703.802-.956 1.404-.787 1.192-2.1 2.824-3.019 3.683-.815.716-1.565.907-.646-.43.375-.534.853-1.106 1.125-1.679.646-1.44-.732-2.08-1.847-1.212-.647.506-1.519 1.546-2.203 2.119-.188.152-.141.381.047.229.543-.449 1.5-1.48 2.325-2.08.684-.535.956-.191.562.257-.544.64-1.5 1.756-1.744 2.462-.337 1.06.066 1.527.75 1.527.938 0 2.335-1.489 3.272-2.672.31-.4.647-.868.938-1.317-.816 1.613-1.67 3.245-2.729 4.724-1.5 2.08-3.374 3.646-5.156 3.646a2.642 2.642 0 01-2.624-2.186c-.02-.143-.188-.172-.17.02.291 1.784 1.641 2.48 3.272 2.48 1.791 0 3.516-1.059 4.725-2.357 2.438-2.624 2.728-5.573 3.478-7.224.357-.754.675-.782.938-.754zm9.918-2.52c.357-.62.338-1.106-.497-1.106-.628.019-1.771.467-2.306.887-.122.124-.065.19.085.124.103-.038.225-.105.337-.153.6-.334.356.363.225.62-.712 1.27-1.978 3.055-2.644 3.942a13.43 13.43 0 01-1.021 1.24c-.638.621-1.903 1.719-2.87 2.081-3.102 1.183.854-4.199 1.182-4.638.731-.935 2.372-2.567 2.869-3.388.356-.62.337-1.107-.497-1.107-.628.02-1.772.468-2.306.888-.122.124-.066.19.084.124.103-.038.225-.105.338-.153.6-.334.356.363.225.62-.713 1.27-1.978 3.054-2.644 3.942-.544.744-1.21 1.489-1.725 1.908-.206.172-.084.335.122.191.187-.124.46-.4.769-.725-.563 1.145-1.022 2.758.459 2.949 1.266.172 2.766-1.136 3.74-2.11l.347-.352.085-.086c-.563 1.145-1.022 2.758.459 2.949 1.622.229 3.637-1.995 4.416-2.816.15-.152.103-.42-.15-.152-.46.487-2.016 1.928-3.141 2.357-3.103 1.183.853-4.2 1.181-4.638.74-.954 2.381-2.586 2.878-3.397z" fill="#000" opacity=".1"/><path d="M11.142 5.564c.253.21.713.086 1.022-.258.328-.362.375-.83.122-1.04-.253-.21-.713-.086-1.022.277-.328.363-.375.811-.122 1.021zm-.75.678c-.066 0-.187.124-.084.171.14.048.206.172.206.344-.122.716-.994 1.527-1.331 1.804-.085.086.037.276.122.21.187-.153.58-.468.9-.888-.525 1.193-1.557 2.739-1.95 3.283-1.538 2.166-3.872 4.16-5.475 4.16a2.623 2.623 0 01-2.606-2.184c-.02-.144-.207-.172-.17.019.292 1.784 1.642 2.48 3.273 2.48 1.79 0 3.89-1.316 5.053-2.671 1.874-2.186 3.084-4.705 2.765-6.127-.14-.535-.497-.62-.703-.601zm11.512 4.762c.497-.124.9-.401.9-.84 0-.048-.084-.048-.084 0 0 .258-.29.477-.619.525-.769.124-2.287-.792-3-1.737.769.296 2.334-.134 3.075-.678.684-.505.956-1.059 1.003-1.508.084-.744-.712-1.183-1.828-.744-.712.296-1.566.935-2.456 2.138.937-1.575 2.784-4.152 4.594-5.793 2.203-1.995 3.477-1.613 1.5.506-.816.868-2.354 1.994-3.413 2.481-.328.143-.169.334.066.23 1.125-.507 2.625-1.547 3.534-2.415 2.681-2.625.44-4.6-2.522-1.823-2.015 1.88-3.328 3.865-4.472 6.432-.393.487-.684.888-1.04 1.193-.047.038-.075.076-.103.115-.985.858-2.531 2.023-3.497 2.032-.684.02-.975-.506-.853-1.183.187-1.06 1.265-2.31 2.184-2.74 1.19-.553 1.894.526.328 1.385-.6.315-1.312.486-1.603.486-.337 0-.31.144-.019.153.478.02 1.247-.19 1.754-.43 1.603-.782 1.706-2.242-.038-2.29-1.894-.067-4.162 1.575-4.144 3.646.02.935.75 1.44 1.754 1.44 1.678-.018 3.168-1.316 4.396-2.461.178-.153.347-.315.516-.487-.431 1.107-.647 2.138-.544 2.901.066.554.375.811.619 1.021.047.038.15 0 .084-.105-.356-.43-.253-1.717.235-2.968.421.84 2.024 1.9 3.693 1.518zM19.89 7.377c1.959-1.784 2.728-.19 1.48.783-.646.506-1.93.887-2.333.64l-.085-.049c-.047-.085-.103-.171-.14-.257.328-.401.703-.773 1.078-1.117zm10.893-2.023c.787.086.46-.887-.337-.64-.357.106-.704.802-.957 1.404-.787 1.193-2.1 2.824-3.018 3.683-.816.716-1.566.907-.647-.43.375-.534.853-1.106 1.125-1.679.647-1.44-.731-2.08-1.847-1.212-.647.506-1.519 1.546-2.203 2.119-.187.153-.14.382.047.229.544-.449 1.5-1.48 2.325-2.08.684-.535.956-.191.562.257-.543.64-1.5 1.756-1.743 2.462-.338 1.06.065 1.527.75 1.527.937 0 2.334-1.488 3.271-2.672.31-.4.647-.868.938-1.317-.816 1.613-1.669 3.245-2.728 4.724-1.5 2.08-3.375 3.646-5.156 3.646a2.643 2.643 0 01-2.625-2.186c-.02-.143-.188-.172-.169.02.29 1.784 1.64 2.48 3.272 2.48 1.79 0 3.515-1.059 4.725-2.357 2.437-2.624 2.728-5.573 3.478-7.224.356-.754.684-.792.937-.754zM40.7 2.825c.357-.62.338-1.107-.496-1.107-.629.02-1.772.468-2.307.888-.121.124-.065.19.085.124.103-.038.225-.105.337-.153.6-.334.357.363.225.62-.712 1.27-1.978 3.054-2.643 3.942-.316.434-.658.848-1.022 1.24-.638.62-1.903 1.718-2.869 2.08-3.103 1.184.853-4.198 1.181-4.637.732-.936 2.372-2.567 2.869-3.388.356-.62.337-1.107-.497-1.107-.628.019-1.772.467-2.306.887-.122.124-.066.191.084.124.103-.038.225-.105.338-.152.6-.334.356.362.225.62-.713 1.27-1.978 3.054-2.644 3.941-.544.745-1.21 1.49-1.725 1.91-.206.17-.084.333.122.19.188-.124.46-.4.769-.725-.563 1.145-1.022 2.758.46 2.949 1.265.171 2.765-1.136 3.74-2.11l.347-.353.084-.086c-.563 1.146-1.022 2.758.46 2.95 1.621.228 3.637-1.995 4.415-2.816.15-.153.103-.42-.15-.153-.46.487-2.016 1.928-3.14 2.358-3.104 1.183.852-4.2 1.18-4.639.75-.954 2.382-2.586 2.878-3.397z" fill="url(#c)" transform="translate(0 17.584)"/></svg>