<svg fill="none" height="48" viewBox="0 0 48 48" width="48" xmlns="http://www.w3.org/2000/svg" xmlns:xlink="http://www.w3.org/1999/xlink"><linearGradient id="a" gradientTransform="matrix(4.83726765 1.89899451 -1.03162604 8.90433584 3.10183 4.69473)" gradientUnits="userSpaceOnUse" x2="1"><stop offset="0" stop-color="#919191"/><stop offset="1" stop-color="#fff"/></linearGradient><linearGradient id="b" gradientTransform="matrix(2.92614491 1.14872065 -.68472104 4.90904019 2.24211 2.65665)" gradientUnits="userSpaceOnUse" x2="1"><stop offset="0" stop-color="#900"/><stop offset="1" stop-color="#e80000"/></linearGradient><linearGradient id="c" gradientTransform="matrix(0 -15.6686 40.8653 0 .027417 15.6617)" gradientUnits="userSpaceOnUse" x2="1"><stop offset="0" stop-color="#1a1a1a"/><stop offset=".4026" stop-color="#4a4a4c"/><stop offset="1" stop-color="#333"/></linearGradient><path d="m5.93008.273317c-.0094.03826-.0094.07652 0 .11478 0 0 .12182.813533-.01879 1.177153l-5.774827 15.34125c-.412447 1.1293.140615 2.383 1.246827 2.8137 1.10622.4306 2.33435-.1244 2.77498-1.2441l5.77483-15.34132c.1124-.29669.7593-.88047.7593-.88047.0282-.02876.0563-.05743.075-.08611v-.00958c0-.00959.0094-.00959.0094-.01918.15-.39229-.81562-1.1388-2.1468-1.665137-1.33127-.5264377-2.54052-.631725-2.69053-.229753 0 0-.00939.009589-.00939.028767z" fill="#000" opacity=".1" transform="translate(37.2078 14.134)"/><path d="m5.92993.273228c-.00939.038356-.00939.076616 0 .114876 0 0 .12192.813436-.01879 1.177146l-5.774727 15.34125c-.412353 1.1293.140708 2.383 1.246927 2.8137 1.10621.4306 2.33425-.1244 2.77488-1.2441l5.77482-15.34132c.11256-.29668.75936-.88046.75936-.88046.0282-.02877.0563-.05744.075-.08611v-.00959c0-.00959.0094-.00959.0094-.01918.15-.39238-.81558-1.13879-2.14685-1.665226-1.33127-.5263422-2.54062-.63163-2.69063-.229658 0 .009589 0 .019178-.00939.028767z" fill="url(#a)" transform="translate(37.0392 14)"/><path d="m7.18866 0-4.17181 11.0633c-.30932.7944-1.19996 1.2059-1.99677.8901-.796903-.3159-1.218743-1.2442-.9280289-2.03854l2.6623589-7.07248s.32809-.54552.98438-.93781c.6562-.39248 1.19057-.30637 1.91242-.63172.73115-.325358 1.53745-1.27285 1.53745-1.27285z" fill="url(#b)" transform="translate(37.5992 21.2118)"/><path d="m2.98042 1.2958c.08312-.22141-.51502-.663179-1.33588-.986712-.820949-.3235341-1.5537909-.4063833-1.63682516-.185069-.08312814.221411.51502016.663082 1.33587516.986711.82095.32353 1.55379.40638 1.63683.18507z" fill="#333" transform="translate(43.8305 14.5237)"/><path d="m5.8913 0s.12108.811232-.01868 1.17389l-5.737069 15.29801c-.409723 1.1261.139767 2.3763 1.238749 2.8058.18626.0763.38183.124.57739.1336-.36762-.2866-.63562-.6859-.76469-1.1393s-.11241-.9371.04753-1.3802l5.62538-14.9926s-.77304-.7349-.96861-1.8992z" fill="#fff" opacity=".3" transform="translate(37.0391 14.3869)"/><g fill="#fff" opacity=".5"><path d="m.167665.343479c.092599 0 .167665-.07689.167665-.17174 0-.0948486-.075066-.171739-.167665-.171739-.0925987 0-.167665.0768904-.167665.171739 0 .09485.0750663.17174.167665.17174z" opacity=".5" transform="translate(40.9186 24.0831)"/><path d="m.251451.515314c.138872 0 .251451-.115357.251451-.257657s-.112579-.257657-.251451-.257657c-.138873 0-.251451.115357-.251451.257657s.112578.257657.251451.257657z" opacity=".5" transform="translate(41.9246 25.2283)"/><path d="m.475005.973478c.262337 0 .475004-.21792.475004-.486739s-.212667-.486739-.475004-.486739c-.262338 0-.475005.21792-.475005.486739s.212667.486739.475005.486739z" opacity=".5" transform="translate(40.0338 26.4688)"/><path d="m.251451.515314c.138872 0 .251451-.115357.251451-.257657s-.112579-.257657-.251451-.257657c-.138873 0-.251451.115357-.251451.257657s.112578.257657.251451.257657z" opacity=".5" transform="translate(39.4937 27.5951)"/><path d="m.167665.343479c.092599 0 .167666-.076891.167666-.17174 0-.0948489-.075067-.171739-.167666-.171739-.0925987 0-.167665.0768901-.167665.171739 0 .094849.0750663.17174.167665.17174z" opacity=".5" transform="translate(40.574 29.5896)"/></g><path d="m11.1515 5.56398c.2531.21.7125.08592 1.0218-.25765.3282-.36266.3751-.83022.1219-1.04022-.2531-.21-.7124-.08592-1.0218.27674-.3281.36265-.3844.82082-.1219 1.02123zm-.7593.67756c-.0657 0-.1876.12409-.0844.17184.1406.04766.2062.17174.2062.34357-.1218.71573-.99375 1.52696-1.33115 1.8037-.08444.08582.03748.27674.12183.21.18748-.15275.58124-.46766.89992-.88756-.52495 1.19287-1.55612 2.73891-1.94987 3.28291-1.53745 2.1663-3.8718 4.1609-5.47481 4.1609-1.2844 0-2.371738-.8876-2.606188-2.1854-.018786-.1432-.2062705-.1718-.1687924.019.2906194 1.7846 1.6405804 2.4813 3.2717704 2.4813 1.79059 0 3.89059-1.317 5.05297-2.6721 1.87492-2.1855 3.08432-4.70497 2.76562-6.12692-.1313-.52481-.4969-.61083-.7031-.60124zm11.5215 4.76216c.4969-.124.8999-.4008.8999-.8398 0-.0477-.0843-.0477-.0843 0 0 .2577-.2907.4772-.6188.5249-.7687.124-2.2874-.79211-2.9999-1.73692.7687.29582 2.3344-.13357 3.0749-.67756.6844-.50582.9562-1.0593 1.0032-1.50787.0843-.7444-.7126-1.18329-1.8282-.7444-.7124.29592-1.5655.93531-2.4561 2.13778.9375-1.57471 2.7843-4.15138 4.5936-5.79283 2.203-1.994516 3.478-1.612872 1.5.50582-.8156.86839-2.3531 1.99452-3.4125 2.48126-.328.14316-.1687.33399.0657.22899 1.1249-.50573 2.6249-1.54604 3.5342-2.41452 2.6812-2.624326.4406-4.59986-2.5218-1.82268-2.0155 1.88951-3.3279 3.86505-4.4717 6.43222-.3937.48664-.6843.88746-1.0406 1.19287-.0469.03817-.0749.07633-.1031.11459-.9844.85889-2.5312 2.02315-3.4968 2.03265-.6843.0192-.9749-.5058-.853-1.18325.1875-1.0594 1.2655-2.30961 2.1842-2.73901 1.1906-.55357 1.8937.5249.3281 1.3837-.5999.315-1.3124.48674-1.603.48674-.3375 0-.3094.14316-.0188.15275.4781.01908 1.2469-.19082 1.7531-.42949 1.603-.78247 1.7062-2.24269-.0375-2.29034-1.8937-.06684-4.1624 1.57461-4.1436 3.6456.0188.9352.75 1.441 1.753 1.441 1.6781-.0192 3.1687-1.3171 4.3968-2.46218.1781-.15276.3468-.315.5156-.48674-.4312 1.10705-.6469 2.13772-.5438 2.90112.0657.5536.375.8113.6188 1.0213.0469.038.15 0 .0844-.1051-.3563-.4294-.2531-1.7178.2344-2.96793.4124.83983 2.0155 1.89913 3.6936 1.51733zm-2.0156-3.61694c1.9594-1.78452 2.728-.19082 1.4812.78256-.6469.50582-1.9312.88756-2.3343.6394l-.0844-.04766c-.0469-.08592-.1031-.17183-.1406-.25766.3281-.41041.7031-.77306 1.0781-1.11664zm10.8934-2.03268c.7875.08582.4593-.88756-.3375-.6394-.3562.10491-.7031.80165-.9562 1.40288-.7874 1.19287-2.0999 2.82483-3.0187 3.68372-.8156.71572-1.5655.90662-.6469-.42949.3751-.5344.8532-1.10706 1.125-1.67962.6469-1.44104-.7312-2.08043-1.8468-1.21205-.6468.50582-1.5187 1.54604-2.203 2.11869-.1875.15266-.1407.38165.0469.22899.5437-.44848 1.4999-1.4792 2.3249-2.08044.6844-.53439.9562-.19082.5624.25766-.5436.6394-1.4999 1.75604-1.7436 2.46218-.3375 1.0594.0656 1.527.75 1.527.9374 0 2.3342-1.48874 3.2717-2.67212.3093-.40083.6468-.86848.9375-1.31706-.8156 1.61288-1.6687 3.24478-2.7281 4.72408-1.4999 2.0804-3.3749 3.6455-5.1561 3.6455-1.2843 0-2.3905-.8875-2.6248-2.1854-.0188-.1432-.1875-.1719-.1688.0191.2906 1.7845 1.6405 2.4812 3.2717 2.4812 1.7906 0 3.5156-1.0593 4.7249-2.3572 2.4375-2.6245 2.728-5.57329 3.4781-7.22433.3561-.75389.6749-.78247.9374-.75389zm9.9184-2.51961c.3563-.62032.3375-1.10696-.4969-1.10696-.6281.01908-1.7718.46756-2.3061.88746-.1219.12409-.0656.19083.0844.12409.1031-.03817.225-.105.3375-.15266.5999-.33408.3562.36266.225.62031-.7125 1.2693-1.9781 3.05382-2.6437 3.94138-.316.43408-.6572.84837-1.0219 1.24063-.6375.62041-1.903 1.71788-2.8686 2.08048-3.1031 1.1833.8531-4.19908 1.1812-4.63807.7312-.93521 2.3717-2.56717 2.8686-3.3879.3563-.62041.3376-1.10705-.4969-1.10705-.628.01918-1.7717.46766-2.3061.88756-.1219.12408-.0656.19082.0844.12408.1031-.03816.225-.105.3375-.15275.6-.33399.3563.36266.2249.62041-.7124 1.2692-1.9779 3.05382-2.6436 3.94138-.5437.74439-1.2093 1.48869-1.725 1.9086-.2061.17183-.0843.33408.122.19092.1875-.12409.4593-.40083.7687-.72532-.5626 1.14522-1.0219 2.75814.4593 2.94894 1.2656.1717 2.7656-1.13565 3.7405-2.10913l.3469-.35307.0843-.08592c-.5624 1.14522-1.0217 2.75812.4593 2.94892 1.6219.2291 3.6375-1.99452 4.4157-2.81534.1499-.15266.103-.41991-.1501-.15266-.4593.48674-2.0156 1.9278-3.1405 2.3572-3.103 1.1834.8531-4.19906 1.1812-4.63805.7407-.9543 2.3811-2.58625 2.878-3.39739z" fill="#000" opacity=".1" transform="translate(.159302 17.746)"/><path d="m11.142 5.56398c.2532.21.7125.08592 1.0219-.25765.3281-.36266.375-.83022.1218-1.04022-.253-.21-.7124-.08592-1.0217.27674-.3281.36266-.3751.81123-.122 1.02123zm-.7499.67766c-.0656 0-.1875.12399-.0843.17174.1406.04775.2061.17174.2061.34358-.1218.71572-.99374 1.52695-1.33114 1.80369-.08435.08592.03757.27674.12183.21.18758-.15275.58124-.46766.90001-.88756-.52504 1.19287-1.55621 2.73891-1.94996 3.28291-1.53745 2.1663-3.8718 4.1609-5.47481 4.1609-1.28431 0-2.37174-.8876-2.60619-2.1854-.018786-.1432-.2061764-.1718-.16869823.019.29062023 1.7846 1.64058823 2.4813 3.27177823 2.4813 1.79059 0 3.89049-1.317 5.05297-2.6721 1.87481-2.1855 3.08431-4.70487 2.76551-6.12683-.1406-.53449-.4969-.62041-.7031-.60123zm11.5121 4.76206c.4969-.124.9-.4008.9-.8398 0-.0477-.0844-.0477-.0844 0 0 .2577-.2905.4772-.6187.5249-.7688.124-2.2874-.79201-2.9999-1.73692.7687.29592 2.3343-.13357 3.0749-.67756.6844-.50582.9562-1.0593 1.0031-1.50787.0843-.7444-.7125-1.18329-1.8281-.7444-.7124.29592-1.5656.93532-2.4562 2.13778.9375-1.57471 2.7843-4.15138 4.5937-5.79283 2.203-1.994515 3.4779-1.612872 1.4999.50582-.8156.86839-2.353 1.99452-3.4124 2.48126-.3281.14316-.1687.33399.0656.22899 1.125-.50573 2.6249-1.54595 3.5343-2.41452 2.6812-2.624326.4406-4.59986-2.5218-1.82268-2.0155 1.88002-3.3279 3.86505-4.4717 6.43222-.3938.48674-.6844.88756-1.0407 1.19288-.0468.03816-.0749.07642-.103.11458-.9844.85889-2.5312 2.02315-3.4968 2.03265-.6843.0192-.975-.5058-.8531-1.18325.1875-1.0594 1.2656-2.30961 2.1843-2.73901 1.1906-.55348 1.8937.5249.3281 1.3837-.6.315-1.3125.48683-1.6031.48683-.3375 0-.3093.14307-.0188.15266.4781.01908 1.247-.19082 1.7532-.42949 1.6031-.78247 1.7062-2.24268-.0376-2.29034-1.8937-.06684-4.1623 1.57461-4.1436 3.6456.0188.9352.75 1.441 1.7532 1.441 1.678-.0192 3.1686-1.317 4.3966-2.46218.1781-.15276.3469-.315.5157-.48674-.4313 1.10705-.6469 2.13772-.5438 2.90112.0657.5536.375.8113.6188 1.0213.0468.038.15 0 .0843-.105-.3562-.4295-.2531-1.7179.2344-2.96802.4218.83982 2.0249 1.89912 3.6936 1.51732zm-2.0156-3.62653c1.9594-1.78452 2.7281-.19082 1.4813.78266-.6469.50582-1.9312.88756-2.3343.6394l-.0844-.04776c-.047-.08582-.1031-.17174-.1406-.25765.3281-.40083.7031-.77298 1.078-1.11655zm10.8935-2.02299c.7874.08591.4593-.88756-.3375-.6394-.3563.1049-.7032.80164-.9562 1.40287-.7875 1.19288-2.1 2.82484-3.0186 3.68372-.8157.71573-1.5657.90663-.6469-.42949.3749-.53439.853-1.10695 1.125-1.67961.6468-1.44104-.7313-2.08044-1.8469-1.21205-.6469.50582-1.5187 1.54603-2.203 2.11869-.1875.15266-.1406.38164.0468.22899.5438-.44848 1.5-1.47921 2.3249-2.08044.6844-.53439.9562-.19082.5625.25766-.5437.63949-1.4999 1.75604-1.7437 2.46227-.3375 1.05931.0657 1.52681.75 1.52681.9374 0 2.3343-1.48865 3.2717-2.67203.3094-.40082.6469-.86848.9375-1.31705-.8155 1.61287-1.6686 3.24478-2.728 4.72408-1.5 2.0804-3.3749 3.6455-5.1561 3.6455-1.2843 0-2.3905-.8876-2.6249-2.1854-.0188-.1432-.1875-.1719-.1687.0191.2906 1.7845 1.6406 2.4812 3.2717 2.4812 1.7906 0 3.5156-1.0593 4.7249-2.3572 2.4374-2.6245 2.728-5.5733 3.478-7.22433.3562-.75389.6843-.79206.9374-.75389zm9.9184-2.52911c.3562-.62031.3375-1.10705-.4968-1.10705-.6282.01917-1.7719.46765-2.3062.88756-.1219.12408-.0657.19082.0843.12408.1032-.03816.225-.105.3375-.15275.6-.33399.3563.36265.225.62041-.7125 1.2692-1.978 3.05381-2.6437 3.94137-.3159.43408-.6571.84837-1.0218 1.24063-.6375.62032-1.903 1.71778-2.8686 2.08048-3.1031 1.1833.8531-4.19908 1.1812-4.63816.7312-.93522 2.3717-2.56708 2.8686-3.3878.3563-.62041.3375-1.10706-.4969-1.10706-.6281.01909-1.7718.46757-2.3061.88747-.1219.12408-.0656.19092.0844.12408.103-.03816.225-.1049.3375-.15266.5999-.33398.3562.36266.225.62032-.7125 1.2693-1.9781 3.05391-2.6437 3.94138-.5438.74439-1.2094 1.48879-1.7249 1.90869-.2063.17174-.0844.33399.1218.19082.1875-.12398.4593-.40082.7687-.72522-.5624 1.14522-1.0219 2.75804.4593 2.94894 1.2656.1717 2.7656-1.13575 3.7406-2.10913l.3469-.35316.0843-.08582c-.5624 1.14521-1.0218 2.75801.4594 2.94891 1.6218.229 3.6374-1.99452 4.4155-2.81534.1499-.15266.1031-.4199-.15-.15266-.4593.48665-2.0155 1.9277-3.1405 2.3572-3.103 1.1834.853-4.19906 1.1811-4.63814.7501-.9543 2.3812-2.58616 2.878-3.39739z" fill="url(#c)" transform="translate(0 17.5838)"/></svg>