<svg width="48" height="48" viewBox="0 0 48 48" fill="none" xmlns="http://www.w3.org/2000/svg"><rect width="48" height="48" fill="white"/><path opacity="0.1" d="M26.1875 1.63195C26.1665 1.71936 26.1665 1.81082 26.1875 1.89824C26.1875 1.89824 26.4588 3.78311 26.1452 4.62366L13.3032 40.1491C12.387 42.7634 13.6145 45.6671 16.0762 46.6628C18.5356 47.6585 21.2664 46.3757 22.247 43.7822L35.089 8.2591C35.3381 7.57138 36.7791 6.2214 36.7791 6.2214C36.8398 6.15974 36.8949 6.09229 36.9436 6.01995V5.99679C36.9436 5.97595 36.9659 5.97595 36.9659 5.9528C37.2994 5.0451 35.1513 3.31768 32.1915 2.09738C29.2317 0.879388 26.5433 0.636254 26.2097 1.5648C26.2097 1.5648 26.1875 1.58795 26.1875 1.63426V1.63195Z" fill="black"/><path d="M26.3853 1.86981L26.2149 1.89428L26.2149 1.89427L26.3853 1.86975L26.384 1.86066L26.3819 1.85173C26.371 1.80651 26.3688 1.75957 26.3752 1.71364C26.3969 1.67406 26.405 1.63591 26.4079 1.60737C26.467 1.47645 26.6189 1.35573 26.9186 1.2787C27.2328 1.19792 27.6672 1.17786 28.1979 1.22534C29.2564 1.32005 30.6484 1.67869 32.1152 2.28228C33.5823 2.88712 34.8414 3.61512 35.6881 4.29799C36.1124 4.6402 36.4244 4.9641 36.6091 5.24809C36.7917 5.52884 36.8266 5.73267 36.7827 5.8704C36.7812 5.87263 36.7797 5.87496 36.7781 5.87739C36.7685 5.89263 36.7594 5.91107 36.7529 5.93273C36.7512 5.93837 36.7498 5.944 36.7486 5.94962C36.715 5.99525 36.6784 6.0383 36.6391 6.07847L36.6377 6.07981L36.6252 6.09164L36.5782 6.13651C36.5378 6.17536 36.4799 6.23147 36.4097 6.30089C36.2694 6.43963 36.0795 6.6321 35.8813 6.84666C35.6835 7.06083 35.4755 7.29915 35.3 7.52932C35.1276 7.75552 34.9749 7.98873 34.9012 8.19046L34.9009 8.19111L22.0597 43.7116C22.0596 43.7121 22.0594 43.7125 22.0592 43.7129C21.1167 46.2093 18.4996 47.4273 16.151 46.4774C13.7985 45.525 12.6083 42.7374 13.4914 40.2138C13.4915 40.2135 13.4916 40.2132 13.4917 40.2129L26.3325 4.69356C26.3326 4.69325 26.3327 4.69293 26.3328 4.69262C26.4211 4.4554 26.4645 4.15751 26.4836 3.85584C26.5029 3.55085 26.4981 3.22837 26.4836 2.93582C26.469 2.6428 26.4445 2.37692 26.4237 2.18437C26.4133 2.08801 26.4037 2.0098 26.3968 1.95548C26.3933 1.92832 26.3905 1.90711 26.3885 1.89259L26.3862 1.87589L26.3856 1.87147L26.3854 1.87026L26.3853 1.86992L26.3853 1.86981ZM36.8139 5.83365C36.8144 5.83311 36.8146 5.83301 36.8141 5.83348L36.8139 5.83365Z" fill="url(#paint0_linear_2_2)" stroke="#333333" stroke-width="0.4"/><path d="M30.9976 16L21.1336 43.5203C20.4007 45.4979 18.2964 46.5203 16.412 45.7342C14.5277 44.9506 13.5299 42.6397 14.2179 40.6645L20.5118 23.0697C20.5118 23.0697 21.2897 21.714 22.8407 20.7389C24.3917 19.7612 25.6542 19.9752 27.3613 19.1667C29.0896 18.3558 31 16 31 16H30.9976Z" fill="url(#paint1_linear_2_2)"/><path d="M35.5771 5.87231C35.7736 5.13851 34.0383 3.78628 31.7032 2.85268C29.3707 1.91568 27.3173 1.75011 27.1236 2.48376C26.9297 3.21416 28.6649 4.5664 31 5.5C33.3353 6.43685 35.3859 6.60257 35.5797 5.86892L35.5771 5.87231Z" fill="#333333"/><path opacity="0.3" d="M25.5 7C25.5 7 25.7837 8.81611 25.5 9.5641L14.2768 40.944C13.4401 43.2642 14.5626 45.8399 16.8035 46.7259C17.1852 46.8826 17.5831 46.9815 17.9832 47C17.2321 46.4107 16.6851 45.5864 16.4219 44.6509C16.1586 43.7154 16.1933 42.7222 16.5198 41.8073L28 10.9151C28 10.9151 26.4224 9.40058 26.0224 7H25.5Z" fill="white"/><defs><linearGradient id="paint0_linear_2_2" x1="19.8986" y1="11.8714" x2="31.0072" y2="13.1074" gradientUnits="userSpaceOnUse"><stop stop-color="white"/><stop offset="1" stop-color="white"/></linearGradient><linearGradient id="paint1_linear_2_2" x1="19.0725" y1="22.9551" x2="26.2437" y2="23.9058" gradientUnits="userSpaceOnUse"><stop stop-color="#DC0000"/><stop offset="1" stop-color="#E80000"/></linearGradient></defs></svg>
