<?xml version="1.0" encoding="UTF-8"?><svg id="Layer_2" xmlns="http://www.w3.org/2000/svg" viewBox="0 0 90.86 113.56"><defs><style>.cls-1{fill:#0002d1;}.cls-2{fill:#fff;}</style></defs><g id="Layer_1-2"><g><path class="cls-1" d="m90.86,6.49C90.86,2.91,87.95,0,84.37,0h0s-77.88,0-77.88,0h0s0,0,0,0C2.91,0,0,2.91,0,6.49c0,0,0,0,0,0h0v61.66h0c0,25.04,20.38,45.42,45.43,45.42s45.43-20.37,45.43-45.42h0V6.49h0s0,0,0,0Z"/><path class="cls-2" d="m61.64,25.81c.6,1.1,1.51,2.01,2.61,2.61.92.5,1.97.78,3.09.78,3.58,0,6.49-2.91,6.49-6.49s-2.91-6.49-6.49-6.49c-1.12,0-2.17.28-3.09.78-1.1.6-2.01,1.51-2.61,2.61-.1.18-.19.37-.27.57-.33.78-.51,1.63-.51,2.52s.18,1.75.51,2.52c.08.19.17.38.27.57Z"/><path class="cls-2" d="m56.07,22.71c0-3.58-2.91-6.49-6.49-6.49s-6.49,2.91-6.49,6.49,2.91,6.49,6.49,6.49,6.49-2.91,6.49-6.49Z"/><path class="cls-2" d="m67.35,34.08c-1.12,0-2.17.28-3.09.78-1.1.6-2.01,1.51-2.61,2.61-.1.18-.19.37-.27.57-.33.78-.51,1.63-.51,2.52s.18,1.75.51,2.52c.08.19.17.38.27.57.6,1.1,1.51,2.01,2.61,2.61.92.5,1.97.78,3.09.78,3.58,0,6.49-2.91,6.49-6.49s-2.91-6.49-6.49-6.49Z"/><path class="cls-2" d="m67.35,51.92c-1.12,0-2.17.28-3.09.78-1.1.6-2.01,1.51-2.61,2.61-.1.18-.19.37-.27.57-.33.78-.51,1.63-.51,2.52s.18,1.75.51,2.52c.08.19.17.38.27.57.6,1.1,1.51,2.01,2.61,2.61.92.5,1.97.78,3.09.78,3.58,0,6.49-2.91,6.49-6.49s-2.91-6.49-6.49-6.49Z"/><path class="cls-2" d="m71.45,71.22c-1.36-1.11-3.06-1.58-4.72-1.42-.02,0-.05,0-.07.01-.29.03-.58.09-.87.16-.48.12-.96.29-1.41.52-.01,0-.03.01-.05.02-.57.3-1.1.68-1.57,1.16-1.11,1.11-1.73,2.52-1.87,3.97-.04.41-.04.83,0,1.24s.12.82.24,1.23c.3,1,.84,1.95,1.63,2.74s1.74,1.33,2.74,1.63c.01,0,.02,0,.03,0,.19.06.38.1.58.14.02,0,.03,0,.05,0,.19.03.38.06.57.08.09,0,.17,0,.26.01.12,0,.24.02.36.02,0,0,0,0,0,0,.12,0,.24-.01.37-.02.08,0,.17,0,.25-.01.19-.02.38-.05.57-.08.02,0,.03,0,.05,0,.19-.04.39-.09.58-.14.01,0,.02,0,.03,0,1-.3,1.95-.84,2.74-1.63,2.53-2.53,2.53-6.65,0-9.18-.16-.16-.32-.31-.49-.44Z"/><path class="cls-2" d="m57.46,83.54c-.37-.2-.76-.37-1.16-.49-.2-.06-.41-.12-.62-.16-.42-.09-.86-.13-1.31-.13-3.58,0-6.49,2.91-6.49,6.49s2.91,6.49,6.49,6.49c.45,0,.88-.05,1.31-.13.21-.04.42-.1.62-.16.41-.13.8-.29,1.16-.49,2.02-1.1,3.4-3.25,3.4-5.71s-1.38-4.61-3.4-5.71Z"/><path class="cls-2" d="m24.16,69.8c-1.66-.16-3.36.32-4.72,1.42-.17.14-.33.29-.49.44-2.53,2.53-2.53,6.65,0,9.18.79.79,1.74,1.33,2.74,1.63.01,0,.02,0,.03,0,.19.06.38.1.58.14.02,0,.03,0,.05,0,.19.03.38.06.57.08.09,0,.18,0,.27.01.12,0,.24.02.35.02,0,0,0,0,0,0,.12,0,.24-.01.35-.02.09,0,.18,0,.27-.01.19-.02.38-.05.57-.08.02,0,.03,0,.05,0,.19-.04.39-.09.58-.14.01,0,.02,0,.03,0,.6-.18,1.17-.44,1.71-.79,0,0,.01,0,.02,0,.1-.07.2-.14.29-.22.25-.19.5-.39.72-.61,2.53-2.53,2.53-6.65,0-9.18-1.11-1.11-2.52-1.73-3.97-1.87Z"/><path class="cls-2" d="m36.52,82.75c-3.58,0-6.49,2.91-6.49,6.49s2.91,6.49,6.49,6.49,6.49-2.91,6.49-6.49-2.91-6.49-6.49-6.49Z"/></g></g></svg>