<svg id="Layer_1" data-name="Layer 1" xmlns="http://www.w3.org/2000/svg" viewBox="0 0 644 624"><defs><style>.cls-1{fill:#09f;}.cls-2{fill:#fff;}</style></defs><rect class="cls-1" width="644" height="624"/><path class="cls-2" d="M291.31,447.58q-14.81,0-25.43-3.17V414A68.46,68.46,0,0,0,284,416.45q9.75,0,14.24-5.44t4.49-16.07V247h38.6V400.63q0,22.53-13,34.74T291.31,447.58Z"/><path class="cls-2" d="M322,216.62s53.49-27,53.49-97.29A64.36,64.36,0,0,1,322,91.82a64.36,64.36,0,0,1-53.49,27.51C268.51,189.63,322,216.62,322,216.62Z"/><path class="cls-2" d="M406.68,119.33h0a160.15,160.15,0,0,1-4.74,39.31h77.55V492.87h-315V158.64h77.55a160.15,160.15,0,0,1-4.74-39.31H125.2V532.18H518.8V119.33Z"/></svg>