<svg fill="none" height="48" width="48" xmlns="http://www.w3.org/2000/svg" xmlns:xlink="http://www.w3.org/1999/xlink"><linearGradient id="c" gradientTransform="matrix(9.98717 -2.79419 2.77675 10.0499 -.233 -.954)" gradientUnits="userSpaceOnUse" x2="1"><stop offset="0" stop-color="#f69923"/><stop offset=".312" stop-color="#f79a23"/><stop offset=".838" stop-color="#e97826"/></linearGradient><linearGradient id="a"><stop offset=".323" stop-color="#9e2064"/><stop offset=".63" stop-color="#c92037"/><stop offset=".751" stop-color="#cd2335"/><stop offset="1" stop-color="#e97826"/></linearGradient><linearGradient id="d" gradientTransform="matrix(20.3133 -43.83712 43.5636 20.44084 -36.906 35.202)" gradientUnits="userSpaceOnUse" x2="1" xlink:href="#a"/><linearGradient id="b"><stop offset="0" stop-color="#282662"/><stop offset=".095" stop-color="#662e8d"/><stop offset=".788" stop-color="#9f2064"/><stop offset=".949" stop-color="#cd2032"/></linearGradient><linearGradient id="e" gradientTransform="matrix(12.10473 -26.12268 25.95963 12.18076 -14.694 9.197)" gradientUnits="userSpaceOnUse" x2="1" xlink:href="#b"/><linearGradient id="f" gradientTransform="matrix(20.31326 -43.83712 43.5635 20.44084 -28.967 24.565)" gradientUnits="userSpaceOnUse" x2="1" xlink:href="#a"/><linearGradient id="g" gradientTransform="matrix(10.67523 -23.03768 22.89394 10.74225 -12.519 9.63)" gradientUnits="userSpaceOnUse" x2="1" xlink:href="#b"/><linearGradient id="h" gradientTransform="matrix(20.31326 -43.83712 43.5635 20.44084 -26.64 24.231)" gradientUnits="userSpaceOnUse" x2="1" xlink:href="#a"/><linearGradient id="i" gradientTransform="matrix(20.31326 -43.83712 43.5635 20.44084 -35.221 35.296)" gradientUnits="userSpaceOnUse" x2="1" xlink:href="#a"/><linearGradient id="j" gradientTransform="matrix(20.31321 -43.8363 43.56342 20.44046 -34.257 17.022)" gradientUnits="userSpaceOnUse" x2="1" xlink:href="#a"/><linearGradient id="k" gradientTransform="matrix(20.31355 -43.83613 43.56414 20.44038 -35.404 19.276)" gradientUnits="userSpaceOnUse" x2="1" xlink:href="#a"/><linearGradient id="l" gradientTransform="matrix(5.72648 -12.46997 12.28091 5.81463 -9.002 3.328)" gradientUnits="userSpaceOnUse" x2="1" xlink:href="#a"/><path d="M3.475.228C2.727.672 1.485 1.931 0 3.754l1.363 2.589c.957-1.378 1.93-2.617 2.91-3.675.075-.084.115-.124.115-.124l-.115.124c-.317.352-1.28 1.482-2.732 3.726 1.398-.07 3.547-.358 5.3-.66.52-2.939-.512-4.285-.512-4.285S5.017-.688 3.475.23z" fill="url(#c)" transform="translate(27.827)"/><g fill="#be202e"><path d="M26.723 21.973c-.174.032-.353.062-.537.094l-.003.001a6.5 6.5 0 00.54-.095z"/><path d="M26.723 21.973c-.174.032-.353.062-.537.094l-.003.001a6.5 6.5 0 00.54-.095z" opacity=".35"/><path d="M27.18 19.71h-.002l-.002.002c.03-.004.057-.01.086-.013.116-.017.23-.037.34-.061l-.423.072z"/><path d="M27.18 19.71h-.002l-.002.002c.03-.004.057-.01.086-.013.116-.017.23-.037.34-.061l-.423.072z" opacity=".35"/></g><path d="M2.925 9.28c.414-.78.834-1.542 1.259-2.283.44-.77.886-1.517 1.336-2.237l.079-.129c.445-.708.894-1.39 1.346-2.042L5.582 0c-.103.126-.205.254-.31.385a61.486 61.486 0 00-1.22 1.585 76.48 76.48 0 00-2.829 4.075A85.012 85.012 0 000 7.985l1.774 3.526c.38-.755.763-1.5 1.151-2.232z" fill="url(#d)" transform="translate(22.246 3.754)"/><path d="M1.433 2.254c-.234.65-.47 1.31-.707 1.987l-.01.03-.1.285c-.16.456-.299.866-.616 1.798.523.24.942.871 1.34 1.588a2.887 2.887 0 00-.927-1.979C2.99 6.08 5.21 5.425 6.357 3.53c.103-.17.197-.347.281-.536-.521.665-1.168.948-2.386.879l-.007.003.007-.003C6.045 3.065 6.944 2.29 7.74 1.006 7.927.702 8.109.37 8.297 0 6.73 1.62 4.914 2.08 3.001 1.73l-1.435.159-.133.365z" fill="url(#e)" transform="translate(15.658 30.647)"/><path d="M2.718 17.93a195.04 195.04 0 012.934-7.218 142.875 142.875 0 012.575-5.661c.235-.487.472-.97.711-1.448l.04-.077L7.204 0l-.087.143A78.86 78.86 0 003.533 6.69c-.388.8-.736 1.574-1.052 2.318a46.978 46.978 0 00-1.446 3.864c-.124.397-.243.796-.354 1.192A37.167 37.167 0 000 16.86l1.783 3.542a250.855 250.855 0 01.935-2.471z" fill="url(#f)" transform="translate(15.043 11.737)"/><path d="M4.019.123a27.712 27.712 0 00-.463 3.384c-.002.04-.007.078-.009.118-.556-.897-2.046-1.773-2.043-1.765 1.067 1.556 1.876 3.1 1.997 4.617-.571.118-1.353-.053-2.257-.388.942.871 1.65 1.112 1.925 1.177-.866.054-1.767.653-2.676 1.342 1.329-.545 2.402-.76 3.17-.586C2.444 11.495 1.223 15.33 0 19.4c.375-.11.598-.364.723-.707.218-.737 1.664-5.573 3.929-11.93l.195-.544.056-.152c.239-.667.487-1.347.743-2.041l.176-.475a.078.078 0 01.004-.009L4.045 0c-.008.04-.018.08-.026.123z" fill="url(#g)" transform="translate(11 28.6)"/><path d="M7.072 1.375l-.154.317c-.153.32-.31.644-.467.977-.17.36-.342.728-.516 1.105l-.264.574a150.891 150.891 0 00-1.83 4.172 202.62 202.62 0 00-2.877 7.22c-.015.038-.03.076-.043.115-.298.791-.598 1.605-.9 2.438L0 18.35l1.434-.158c-.028-.006-.057-.009-.085-.015 1.715-.214 3.995-1.504 5.469-3.097.68-.733 1.295-1.599 1.865-2.612.425-.754.823-1.59 1.202-2.515.332-.809.65-1.684.957-2.634a5.178 5.178 0 01-1.343.47 8.532 8.532 0 01-.54.095l.003-.001c1.6-.62 2.608-1.815 3.342-3.279a5.68 5.68 0 01-1.925.848 4.745 4.745 0 01-.34.062l-.086.012.002-.001.001-.001a6.5 6.5 0 001.43-.804 5.053 5.053 0 00.817-.782 5.603 5.603 0 00.575-.83c.053-.103.103-.204.153-.304.224-.452.402-.855.544-1.21a11.537 11.537 0 00.386-1.123c.054-.198.087-.356.105-.471a1.72 1.72 0 01-.186.128c-.483.291-1.312.555-1.98.678l1.317-.145L11.8.806l-.03.006-.202.033.035-.016-4.507.497-.024.05z" fill="url(#h)" transform="translate(17.224 14.187)"/><path d="M5.047.659c-.4.619-.839 1.322-1.31 2.118l-.074.126a81.99 81.99 0 00-1.292 2.274 95.857 95.857 0 00-1.226 2.31C.775 8.204.393 8.967 0 9.775l4.506-.498c1.313-.607 1.9-1.157 2.47-1.952.15-.219.303-.448.455-.686.462-.727.916-1.527 1.322-2.323a24.2 24.2 0 001.002-2.218c.169-.438.304-.844.398-1.2.082-.315.146-.614.196-.899-1.755.3-3.904.59-5.302.659z" fill="url(#i)" transform="translate(24.322 5.736)"/><path d="M26.457 22.025z" fill="#be202e"/><path d="M26.457 22.025z" fill="#be202e" opacity=".35"/><path d="M.274 0z" fill="url(#j)" transform="translate(26.183 22.025)"/><path d="M27.175 19.712c.029-.004.057-.01.085-.013l-.085.013z" fill="#be202e"/><path d="M27.175 19.712c.029-.004.057-.01.085-.013l-.085.013z" fill="#be202e" opacity=".35"/><path d="M0 .012C.03.01.058.003.086 0L0 .012z" fill="url(#k)" transform="translate(27.175 19.7)"/><path d="M27.178 19.711s.002 0 .002-.002c0 0-.002 0-.002.002z" fill="#be202e"/><path d="M27.178 19.711s.002 0 .002-.002c0 0-.002 0-.002.002z" fill="#be202e" opacity=".35"/><path d="M0 .001S.001.001.001 0L0 .001z" fill="url(#l)" transform="translate(27.178 19.71)"/><path d="M36.04 4.395v.133h.309v.879h.143v-.879h.312v-.133zm1.786 0l-.345.707-.348-.707h-.172v1.012h.132v-.803l.342.696h.091l.342-.696v.803H38V4.395z" fill="#6d6e71"/></svg>