<svg fill="none" height="48" viewBox="0 0 48 48" width="48" xmlns="http://www.w3.org/2000/svg" xmlns:xlink="http://www.w3.org/1999/xlink"><linearGradient id="a" gradientTransform="matrix(9.98717321 -2.79418601 2.77674762 10.04989412 -.232831 -.954279)" gradientUnits="userSpaceOnUse" x2="1"><stop offset="0" stop-color="#f69923"/><stop offset=".3123" stop-color="#f79a23"/><stop offset=".8383" stop-color="#e97826"/></linearGradient><linearGradient id="b"><stop offset=".3233" stop-color="#9e2064"/><stop offset=".6302" stop-color="#c92037"/><stop offset=".7514" stop-color="#cd2335"/><stop offset="1" stop-color="#e97826"/></linearGradient><linearGradient id="c" gradientTransform="matrix(20.3132992 -43.83712424 43.56359877 20.44084158 -36.9057 35.2017)" gradientUnits="userSpaceOnUse" x2="1" xlink:href="#b"/><linearGradient id="d"><stop offset="0" stop-color="#282662"/><stop offset=".0954839" stop-color="#662e8d"/><stop offset=".7882" stop-color="#9f2064"/><stop offset=".9487" stop-color="#cd2032"/></linearGradient><linearGradient id="e" gradientTransform="matrix(12.10473467 -26.12267942 25.95963359 12.18076142 -14.6937 9.19663)" gradientUnits="userSpaceOnUse" x2="1" xlink:href="#d"/><linearGradient id="f" gradientTransform="matrix(20.31325694 -43.83712424 43.56350814 20.44084158 -28.967 24.5654)" gradientUnits="userSpaceOnUse" x2="1" xlink:href="#b"/><linearGradient id="g" gradientTransform="matrix(10.67522894 -23.03767826 22.89393691 10.74225419 -12.5188 9.63075)" gradientUnits="userSpaceOnUse" x2="1" xlink:href="#d"/><linearGradient id="h" gradientTransform="matrix(20.31325694 -43.83712424 43.56350814 20.44084158 -26.6399 24.2314)" gradientUnits="userSpaceOnUse" x2="1" xlink:href="#b"/><linearGradient id="i" gradientTransform="matrix(20.31325694 -43.83712424 43.56350814 20.44084158 -35.2215 35.2961)" gradientUnits="userSpaceOnUse" x2="1" xlink:href="#b"/><linearGradient id="j" gradientTransform="matrix(20.31321468 -43.83630856 43.56341751 20.44046123 -34.2574 17.0219)" gradientUnits="userSpaceOnUse" x2="1" xlink:href="#b"/><linearGradient id="k" gradientTransform="matrix(20.31355277 -43.8361273 43.56414256 20.44037671 -35.4035 19.2756)" gradientUnits="userSpaceOnUse" x2="1" xlink:href="#b"/><linearGradient id="l" gradientTransform="matrix(5.72647502 -12.46997003 12.280913 5.81463055 -9.00203 3.32775)" gradientUnits="userSpaceOnUse" x2="1" xlink:href="#b"/><path d="m3.47488.22842c-.74825.444044-1.99081 1.70236-3.47488 3.52509l1.36332 2.58931c.95703-1.37756 1.92873-2.61656 2.90946-3.675.07561-.08404.11512-.12379.11512-.12379-.03838.04089-.07675.08291-.11512.12379-.31713.35205-1.2798 1.48204-2.73228 3.7261 1.39831-.07041 3.54711-.35773 5.29979-.65982.5214-2.93909-.51125-4.28484-.51125-4.28484s-1.31253-2.137318-2.85416-1.22084z" fill="url(#a)" transform="translate(27.827)"/><g fill="#be202e"><path d="m.540586 0c-.173801.0317985-.353244.0624605-.5372011.094259-.00112858 0-.00225633.0011354-.0033849.0011354.0925431-.0136279.183957-.027255.274243-.0431543.090286-.0158992.178314-.0329339.266343-.0522401z" transform="translate(26.1827 21.9729)"/><path d="m.540586 0c-.173801.0317985-.353244.0624605-.5372011.094259-.00112858 0-.00225633.0011354-.0033849.0011354.0925431-.0136279.183957-.027255.274243-.0431543.090286-.0158992.178314-.0329339.266343-.0522401z" opacity=".35" transform="translate(26.1827 21.9729)"/><path d="m.0033849.0715472s-.0011283-.0000003-.0011283.0011354c-.00112858 0-.00112803.0011354-.0022566.0011354.0293429-.003407.057557-.0090851.0857713-.012492.1162427-.017035.2302287-.0374771.3408287-.061326-.138814.0227132-.279886.0476983-.4232151.0715472z" transform="translate(27.1758 19.638)"/><path d="m.0033849.0715472s-.0011283-.0000003-.0011283.0011354c-.00112858 0-.00112803.0011354-.0022566.0011354.0293429-.003407.057557-.0090851.0857713-.012492.1162427-.017035.2302287-.0374771.3408287-.061326-.138814.0227132-.279886.0476983-.4232151.0715472z" opacity=".35" transform="translate(27.1758 19.638)"/></g><path d="m2.92526 9.27949c.41419-.77907.83402-1.5411 1.25836-2.28268.44015-.76998.88593-1.51725 1.33623-2.23726.02596-.04201.05305-.08517.079-.12832.44466-.70866.89384-1.39005 1.34639-2.04192l-1.36331-2.58931c-.1027.126058-.2054.254388-.31036.384989-.39275.492877-.80129 1.023231-1.21999 1.585381-.47174.6337-.95703 1.31055-1.45022 2.02034-.45481.65641-.9164 1.34349-1.37799 2.05441-.392739.60531-.78774 1.22879-1.1793553 1.86817-.0146715.02384-.0293432.04769-.0440147.07154l1.77412 3.52627c.3792-.7553.76291-1.5002 1.15114-2.23161z" fill="url(#c)" transform="translate(22.2462 3.75351)"/><path d="m1.43329 2.25429c-.23474.64959-.470617 1.31055-.707617 1.98627-.003386.01022-.006771.0193-.010157.02952-.033857.0954-.066586.1908-.100443.28619-.159129.4554-.297944.86538-.615073 1.79775.52253.23963.942359.87105 1.33962 1.58765-.04176-.74158-.347604-1.43888-.926562-1.97832 2.576532.11698 4.796442-.5383 5.944202-2.43372.1027-.16921.19637-.34637.28101-.53603-.5214.6655-1.16807.94828-2.3858.879-.00226.00114-.00565.00227-.0079.00341.00225-.00114.00564-.00227.0079-.00341 1.79217-.80745 2.69165-1.58197 3.48616-2.86641.18847-.304353.3713-.6371.55865-1.00619-1.56759 1.61945-3.38347 2.08053-5.2964 1.73075l-1.43442.15785c-.04514.12152-.08916.24304-.13317.36569z" fill="url(#e)" transform="translate(15.6577 30.6471)"/><path d="m2.71761 17.9309c.31035-.8063.62974-1.6217.95703-2.445.31374-.7882.63651-1.5809.96606-2.3781.32954-.7972.66698-1.5956 1.0112-2.3951.34986-.81314.70761-1.62514 1.07102-2.4326.36001-.79837.7268-1.59333 1.09923-2.38034.1343-.28392.26972-.5667.40515-.84834.23475-.4872.47175-.96985.71101-1.44797.01241-.02612.02595-.0511.0395-.07722l-1.77412-3.52623c-.02935.0476978-.05756.0953952-.0869.143093-.41306.679125-.82499 1.374147-1.22902 2.083937-.40854.7166-.80919 1.44683-1.2008 2.18728-.33067.62462-.65345 1.25491-.96719 1.89088-.0632.12946-.12527.25666-.18734.38499-.3871.80064-.73583 1.57402-1.05183 2.31788-.35776.84266-.67263 1.64784-.94801 2.41104-.1817.5019-.34647.9869-.4977 1.4525-.124141.3975-.242641.7961-.35437 1.1924-.265215.9347-.493187 1.8671-.68053 2.796l1.78315 3.5421c.23587-.6337.47738-1.2753.72567-1.926.06884-.1806.13881-.3634.20879-.5452z" fill="url(#f)" transform="translate(15.0425 11.7372)"/><path d="m4.01885.122652c-.22346 1.133388-.38258 2.262238-.46271 3.384268-.00226.03975-.00678.07836-.00903.11811-.55639-.89717-2.04611-1.77277-2.04272-1.76482 1.0665 1.55586 1.87569 3.10036 1.99645 4.61646-.57106.11811-1.35316-.05223-2.25715-.38725.94236.87105 1.64997 1.11181 1.92535 1.17654-.86562.05451-1.76735.653-2.675853 1.34235 1.328333-.54512 2.401603-.76089 3.170163-.586-1.21886 3.47289-2.4411 7.30689-3.66335 11.37709.374687-.1113.598144-.3646.723416-.7076.217815-.737 1.663514-5.5726 3.928564-11.92894.06433-.18057.12979-.36228.19525-.54512.01805-.0511.03724-.10221.0553-.15217.23925-.66664.48754-1.3469.74373-2.04079.05868-.15785.11737-.31571.17605-.4747.00113-.00341.00226-.00682.00339-.00909l-1.78089-3.54099c-.0079.0397481-.01806.0806325-.02596.122652z" fill="url(#g)" transform="translate(11 28.6006)"/><path d="m7.07164 1.37529c-.05078.10448-.10157.21009-.15348.31684-.15349.31913-.30923.64392-.46723.97667-.17042.36001-.34196.72796-.51576 1.105-.08803.18966-.17493.38045-.26409.57465-.26521.58032-.53381 1.17995-.80693 1.79888-.33518.7609-.67714 1.55132-1.02361 2.3724-.33068.78247-.66586 1.59217-1.00556 2.43027-.32277.795-.64893 1.6161-.9796 2.4622-.29456.7552-.59138 1.5297-.891578 2.3269-.014671.0386-.029343.0772-.042886.1159-.297944.7915-.598144 1.6046-.9006018 2.4382-.0067715.0193-.01354276.0386-.0203142.0568l1.43442-.1578c-.02822-.0057-.05756-.0091-.08577-.0148 1.71543-.2147 3.99515-1.5048 5.46906-3.097.67941-.7336 1.29561-1.599 1.86554-2.612.42434-.7541.82273-1.5899 1.20193-2.51547.33182-.80859.65002-1.68418.95702-2.6336-.3939.20897-.84529.36228-1.34299.46903-.08691.01817-.17606.03634-.26635.05224-.09028.0159-.1817.03067-.27424.04316.00113 0 .00226-.00114.00338-.00114 1.5992-.61893 2.6081-1.81478 3.3417-3.27865-.4209.28846-1.1049.66663-1.9242.84834-.1117.02498-.2257.04429-.3408.06132-.0294.00455-.05759.00909-.08581.0125.00113 0 .00113-.00114.00226-.00114 0 0 .00113 0 .00113-.00114.55522-.23394 1.02362-.49514 1.42992-.80404.0869-.06587.1715-.13401.2528-.20556.1241-.10789.2415-.22145.3544-.3407.0722-.07609.1422-.15445.2099-.23621.1591-.19079.3081-.39635.448-.62007.0429-.06814.0847-.13742.1264-.20897.0531-.10334.1038-.20442.1535-.30435.2235-.452.4018-.85516.544-1.20948.0711-.17717.1331-.3407.1862-.49288.0214-.06019.0417-.119243.0609-.176026.0565-.17035.1027-.321392.1388-.454265.0542-.19874.0869-.356597.105-.471299-.0542.0431551-.1162.0863108-.1862.12833-.483.290729-1.3114.554202-1.9795.677989l1.317-.145364-1.317.145364c-.0102.002272-.0203.003407-.0305.005678-.0666.011357-.1343.021578-.202.032935.0124-.005678.0226-.011357.035-.0159l-4.50643.497418c-.0079.0159-.0158.0318-.02483.04884z" fill="url(#h)" transform="translate(17.2241 14.1868)"/><path d="m5.04698.658683c-.40064.618937-.83853 1.321907-1.30914 2.118007-.02483.04088-.04966.08404-.07449.12606-.40629.68935-.83853 1.4457-1.29222 2.27473-.39274.71546-.80128 1.48317-1.22563 2.3088-.37017.71887-.752756 1.48204-1.1455 2.28949l4.50639-.49742c1.31254-.60758 1.89939-1.15724 2.46932-1.9522.15123-.21918.30359-.44859.45482-.68594.46272-.72682.9164-1.52746 1.32269-2.32356.39161-.76885.73696-1.53087 1.00217-2.21795.16816-.43723.30361-.84379.39731-1.200392.0823-.314578.1467-.613257.1963-.898308-1.75491.30095-3.90372.589408-5.30202.658683z" fill="url(#i)" transform="translate(24.3217 5.73636)"/><path d="m.274243 0c-.090286.0158993-.1816999.030662-.274243.0431543.0925431-.0124923.183957-.027255.274243-.0431543z" fill="#be202e" transform="translate(26.1827 22.0252)"/><path d="m.274243 0c-.090286.0158993-.1816999.030662-.274243.0431543.0925431-.0124923.183957-.027255.274243-.0431543z" fill="#be202e" opacity=".35" transform="translate(26.1827 22.0252)"/><path d="m.274243 0c-.090286.0158993-.1816999.030662-.274243.0431543.0925431-.0124923.183957-.027255.274243-.0431543z" fill="url(#j)" transform="translate(26.1827 22.0252)"/><path d="m0 .012492c.0293429-.00340699.0575584-.00908502.0857727-.012492-.0282143.00340698-.0564298.00794935-.0857727.012492z" fill="#be202e" transform="translate(27.1747 19.6993)"/><path d="m0 .012492c.0293429-.00340699.0575584-.00908502.0857727-.012492-.0282143.00340698-.0564298.00794935-.0857727.012492z" fill="#be202e" opacity=".35" transform="translate(27.1747 19.6993)"/><path d="m0 .012492c.0293429-.00340699.0575584-.00908502.0857727-.012492-.0282143.00340698-.0564298.00794935-.0857727.012492z" fill="url(#k)" transform="translate(27.1747 19.6993)"/><path d="m0 .00146155s.00143939.00000036.00143939-.00146155c0 0-.00143939-.00000036-.00143939.00146155z" fill="#be202e" transform="translate(27.1781 19.7095)"/><path d="m0 .00146155s.00143939.00000036.00143939-.00146155c0 0-.00143939-.00000036-.00143939.00146155z" fill="#be202e" opacity=".35" transform="translate(27.1781 19.7095)"/><path d="m0 .00146155s.00143939.00000036.00143939-.00146155c0 0-.00143939-.00000036-.00143939.00146155z" fill="url(#l)" transform="translate(27.1781 19.7095)"/><path d="m0 0v.132872h.309231v.878998h.143328v-.878998h.311485v-.132872zm1.78653 0-.34534.706381-.3476-.706381h-.172673v1.01187h.132043v-.802908l.34196.69616h.09141l.34196-.69616v.802908h.13204v-1.01187z" fill="#6d6e71" transform="translate(36.0397 4.39517)"/></svg>