<svg width="75" height="76" viewBox="0 0 75 76" fill="none" xmlns="http://www.w3.org/2000/svg">
<path d="M37.2411 0.878906C16.7411 0.878906 0.121094 17.4989 0.121094 37.9989C0.121094 58.4989 16.7411 75.1189 37.2411 75.1189C57.7411 75.1189 74.3611 58.4989 74.3611 37.9989C74.3611 17.4989 57.7411 0.878906 37.2411 0.878906ZM10.8911 52.7989H8.94109L19.7111 23.9889H21.6611L10.8911 52.7989ZM41.5211 52.7989H36.0711L25.3011 23.8489H30.7511L37.3711 41.7589L43.9911 23.9789H45.9411L38.4111 44.3589L41.5211 52.7989ZM60.9911 52.7989L50.2211 23.8489H55.6711L66.4411 52.7889H60.9911V52.7989Z" fill="url(#paint0_linear)"/>
<path d="M50.2227 23.8477L60.9927 52.7977H66.4427L55.6727 23.8477H50.2227Z" fill="white"/>
<path d="M8.94141 52.8005H10.8914L21.6614 23.9805H19.7114L8.94141 52.8005Z" fill="white"/>
<path d="M30.7508 23.8477H25.3008L36.0708 52.7977H41.5208L38.4108 44.3577L37.3708 41.7677L30.7508 23.8477Z" fill="white"/>
<path d="M43.9911 23.9805L37.3711 41.7705L38.4111 44.3605L45.9311 23.9805H43.9911Z" fill="white"/>
<defs>
<linearGradient id="paint0_linear" x1="-67.5437" y1="-66.7809" x2="59.5353" y2="60.2982" gradientUnits="userSpaceOnUse">
<stop stop-color="#4029B7"/>
<stop offset="0.1093" stop-color="#4C2AAF"/>
<stop offset="0.3056" stop-color="#6B2E9B"/>
<stop offset="0.5643" stop-color="#9D3379"/>
<stop offset="0.6993" stop-color="#BA3666"/>
<stop offset="0.7816" stop-color="#D13957"/>
<stop offset="0.9026" stop-color="#EE3C44"/>
<stop offset="0.9719" stop-color="#F93D3D"/>
</linearGradient>
</defs>
</svg>
