<svg xmlns="http://www.w3.org/2000/svg" xmlns:xlink="http://www.w3.org/1999/xlink" width="400" zoomAndPan="magnify" viewBox="0 0 300 254.999984" height="340" preserveAspectRatio="xMidYMid meet" version="1.0"><path fill="#000000" d="M 0 30 L 150 0 L 150 22.5 L 0 45 Z M 0 30 " fill-opacity="0.45" fill-rule="nonzero"/><path fill="#ffde59" d="M 150 0 L 300 30 L 300 45 L 150 22.5 Z M 150 0 " fill-opacity="1" fill-rule="nonzero"/><path fill="#000000" d="M 0 58.5 L 0 196.5 L 33.75 200.25 L 33.75 114 L 67.5 176.25 L 102.75 114 L 102.75 210.75 L 142.5 216 L 142.5 39 L 99.75 45 L 67.5 107.25 L 35.25 54.75 Z M 0 58.5 " fill-opacity="0.45" fill-rule="nonzero"/><path fill="#ffde59" d="M 300 58.5 L 300 196.5 L 266.25 200.25 L 266.25 114 L 232.5 176.25 L 197.25 114 L 197.25 210.75 L 157.5 216 L 157.5 39 L 200.25 45 L 232.5 107.25 L 264.75 54.75 Z M 300 58.5 " fill-opacity="1" fill-rule="nonzero"/><path fill="#000000" d="M 0 225 L 150 255 L 150 232.5 L 0 210 Z M 0 225 " fill-opacity="0.45" fill-rule="nonzero"/><path fill="#ffde59" d="M 150 255 L 300 225 L 300 210 L 150 232.5 Z M 150 255 " fill-opacity="1" fill-rule="nonzero"/></svg>