<?xml version="1.0" encoding="UTF-8" standalone="no"?>
<svg xmlns:dc="http://purl.org/dc/elements/1.1/" xmlns:cc="http://creativecommons.org/ns#" xmlns:rdf="http://www.w3.org/1999/02/22-rdf-syntax-ns#" xmlns:svg="http://www.w3.org/2000/svg" xmlns="http://www.w3.org/2000/svg" width="36.777084mm" height="36.777081mm" viewBox="0 0 36.777084 36.777081" version="1.1" id="svg8">
  <defs id="defs2"/>
  <metadata id="metadata5">
    <rdf:RDF>
      <cc:Work rdf:about="">
        <dc:format>image/svg+xml</dc:format>
        <dc:type rdf:resource="http://purl.org/dc/dcmitype/StillImage"/>
        <dc:title/>
      </cc:Work>
    </rdf:RDF>
  </metadata>
  <g id="layer1" transform="translate(-122.70998,-169.48973)">
    <rect style="fill:#894c84;stroke-width:0.274031" id="rect951" width="36.77462" height="36.77879" x="-159.4846" y="-206.26767" transform="scale(-1)"/>
    <path id="rect988" style="opacity:1;fill:#ffffff;fill-opacity:1;fill-rule:nonzero;stroke:none;stroke-width:42.0953;stroke-linecap:butt;stroke-linejoin:bevel;stroke-miterlimit:4;stroke-dasharray:none;stroke-opacity:1;paint-order:markers fill stroke" d="M 48.765625 15.433594 C 48.12537 15.436326 47.453482 15.461252 46.746094 15.505859 C 39.516311 15.961784 35.694609 19.028941 39.773438 21.011719 C 41.520449 21.964273 40.998047 23.6342 40.998047 24.443359 C 40.998047 28.031265 18.099232 78.133071 11.476562 89.035156 C 7.0613297 96.303415 7.365176 98.526602 12.65625 97.667969 C 14.648598 97.344819 18.020944 95.926813 20.150391 94.517578 L 20.152344 94.517578 C 25.627216 90.894485 28.918264 85.062682 37.205078 64.292969 C 41.200473 54.279073 45.132095 44.734526 45.480469 45.398438 C 45.828828 46.062312 46.040347 52.324989 46.412109 57 C 47.772766 74.110526 51.92499 88.566082 57.207031 94.582031 C 60.611025 98.458957 62.903228 98.869769 65.447266 96.058594 C 66.413615 94.990802 71.174997 84.887245 76.027344 73.605469 C 80.87969 62.323692 85.509156 51.526955 86.083984 50.539062 C 86.871978 49.184782 86.952364 51.591433 86.990234 58 C 87.098329 76.311924 90.340434 87.5686 97.199219 93.439453 C 103.52282 98.852266 108.64429 98.64925 114.75 92.748047 C 118.53531 89.08954 118.8059 86.835797 115.90039 83.158203 L 113.80078 80.5 C 101.68569 57.142028 105.96623 40.854547 105.9668 29.310547 L 106.31445 23.998047 C 106.64403 21.214576 106.65947 18.276511 106.34766 17.46875 C 105.56038 15.417185 97.020212 15.545262 92.552734 17.675781 C 88.181257 19.760417 83.858978 27.777847 74.958984 50.308594 C 71.524603 59.002943 68.35986 65.752953 67.925781 65.308594 C 67.49174 64.864272 65.978563 56.590322 64.564453 46.921875 C 60.713445 20.592092 58.369448 15.392604 48.765625 15.433594 z M 81 99 C 75.657335 99 74 100.25987 74 104.32422 C 74 106.56295 75.173266 108.31374 79 111.78516 C 84.893039 117.13111 85.550038 120 80.882812 120 C 78.097679 120 77.817054 119.73431 78.244141 117.5 C 78.644771 115.40425 78.340742 115 76.361328 115 C 74.356591 115 74 115.49913 74 118.30078 C 74 123.04016 75.590688 124.13313 81.992188 123.79297 C 87.283602 123.82698 87.470021 123.96056 87.796875 118.94531 C 88.081851 114.57115 87.894384 114.22416 83.046875 110.13672 C 77.221754 105.22492 76.583622 103 81 103 C 83.533342 103 84 103.38891 84 105.5 C 84 107.33334 84.533317 108 86 108 C 87.595943 108 88 107.33253 88 104.69922 C 88 100.25465 86.458243 99 81 99 z M 93.208984 99 C 91.393791 99 90.940448 99.403718 91.402344 100.60742 C 91.741367 101.49134 93.175557 106.7722 94.587891 112.34375 C 96.999872 121.85898 97.090691 123.80368 95.439453 130.38281 C 94.889532 132.57377 95.1203 133 96.853516 133 C 98.40059 133 99.176906 132.05278 99.925781 129.25 C 101.17964 124.55734 107 100.02644 107 99.435547 C 107 99.195547 106.12199 99 105.04883 99 C 103.41872 99 102.81263 100.3242 101.36719 107.05078 C 100.41448 111.48424 99.327448 114.51746 98.947266 113.80078 C 98.567536 113.0849 97.666711 109.46248 96.945312 105.75 C 95.756916 99.634271 95.404777 99 93.208984 99 z M 117 99 C 111.5692 99 110 100.25741 110 104.60742 C 110 107.23083 110.90968 108.57541 115 112 C 120.83646 116.88659 121.61484 120 117 120 C 114.4667 120 114 119.61113 114 117.5 C 114 115.66666 113.46665 115 112 115 C 110.45689 115 110 115.66643 110 117.91797 C 110 123.57377 110.68146 124.11671 117.375 123.79492 C 123.74441 123.50201 123.405 124.96075 123.79883 118.89453 C 124.08947 114.41575 123.95908 114.18406 119.04883 110.43945 C 113.2036 105.98176 112.38244 103 117 103 C 119.53334 103 120 103.38891 120 105.5 C 120 107.33334 120.53332 108 122 108 C 123.59594 108 124 107.33253 124 104.69922 C 124 100.25465 122.45824 99 117 99 z " transform="matrix(0.26458333,0,0,0.26458333,122.70998,169.48973)"/>
    <g id="g957" transform="translate(60.43039,43.792662)">
      <path id="path961" style="fill:#ffffff;fill-opacity:1;stroke-width:0.264583" d="m 92.863281,132.6875 c -1.325312,-0.004 -2.693816,0.50031 -3.740234,1.26367 -1.046418,0.76336 -1.779297,1.79104 -1.779297,2.85742 0,0.71898 0.268416,1.23699 0.6875,1.44532 0.419084,0.20832 0.954192,0.0768 1.404297,-0.39844 0.450001,-0.47516 0.803753,-0.72041 1.058594,-0.76563 0.12742,-0.0226 0.230649,-0.002 0.33789,0.0605 0.107242,0.063 0.21711,0.17432 0.328125,0.34375 0.299549,0.45717 0.235636,1.27504 -0.238281,2.42969 -0.473917,1.15465 -1.342844,2.63121 -2.568359,4.39062 -0.464348,0.66665 -0.796883,1.15334 -0.97461,1.52539 -0.08886,0.18603 -0.140395,0.34435 -0.140625,0.49414 -2.3e-4,0.1498 0.06691,0.29046 0.185547,0.38086 0.237266,0.18082 0.623937,0.22069 1.222656,0.24219 0.59872,0.0215 1.410329,0.008 2.46875,0.008 1.592343,0 2.492098,-0.0589 2.992188,-0.0234 0.250045,0.0177 0.390525,0.06 0.474609,0.12304 0.08408,0.0631 0.135468,0.15824 0.185547,0.3418 0.05667,0.20772 0.139906,0.36767 0.253906,0.47852 0.114001,0.11084 0.262319,0.16596 0.41211,0.16015 0.299581,-0.0116 0.593206,-0.22512 0.876953,-0.55664 0.567494,-0.66304 1.091253,-1.84401 1.208984,-3.21875 a 0.12981069,0.12981069 0 0 0 0,-0.002 c 0.03553,-0.43648 0.03598,-1.28253 -0.177734,-1.85547 -0.05343,-0.14324 -0.120244,-0.27125 -0.212891,-0.37109 -0.09265,-0.0999 -0.217058,-0.16986 -0.359375,-0.17969 -0.284634,-0.0197 -0.590018,0.17269 -0.966797,0.60742 -0.411927,0.44599 -0.766718,0.67969 -1.017578,0.75195 -0.125655,0.0362 -0.221297,0.0328 -0.292968,0.008 -0.07167,-0.025 -0.125748,-0.0698 -0.167969,-0.14844 -0.08444,-0.15731 -0.103572,-0.45837 0.0059,-0.84766 0.109431,-0.38928 0.342325,-0.8654 0.720703,-1.38086 0.940736,-1.28153 1.514114,-2.48066 1.708985,-3.58203 0.19487,-1.10137 0.0046,-2.10596 -0.574219,-2.96484 -0.39764,-0.59006 -0.816869,-0.99912 -1.345703,-1.25586 -0.528835,-0.25674 -1.15894,-0.3588 -1.976563,-0.36133 z"/>
      <path id="path961-6" style="fill:#ef7e19;fill-opacity:1;stroke-width:0.264583" d="m 92.408203,133.36719 c -1.772302,0.2148 -3.69312,1.19636 -4.329081,2.9583 -0.135384,0.44201 -0.158478,1.35851 0.467753,1.35224 0.735396,-0.41481 1.306877,-1.44088 2.291016,-1.22656 1.18361,0.34724 1.36333,1.84845 0.99414,2.86133 -0.771992,2.52505 -2.503328,4.57989 -3.853515,6.80078 0.196261,0.34154 1.113672,0.11648 1.577678,0.1956 1.661369,0.062 3.335542,-0.12942 4.988728,0.0329 0.508253,0.0868 0.794693,0.55821 0.910156,1.02148 1.140848,-0.94899 1.48432,-2.60526 1.396912,-4.03295 0.0095,-0.46427 -0.171503,-1.11507 -0.57074,-0.40845 -0.547745,0.63432 -1.630048,1.42355 -2.388672,0.67382 -0.711306,-0.9905 0.0185,-2.26055 0.619141,-3.125 1.094164,-1.51495 2.21118,-3.53951 1.346183,-5.41324 -0.469133,-1.08505 -1.580799,-1.77994 -2.765073,-1.70253 -0.228473,-0.02 -0.456216,0.004 -0.684626,0.0123 z"/>
    </g>
  </g>
</svg>