<svg height="256" width="255" xmlns="http://www.w3.org/2000/svg" xmlns:xlink="http://www.w3.org/1999/xlink"><defs><filter id="a" height="102.4%" width="102.1%" x="-1%" y="-.6%"><feOffset dy="1" in="SourceAlpha" result="shadowOffsetOuter1"/><feGaussianBlur in="shadowOffsetOuter1" result="shadowBlurOuter1" stdDeviation=".5"/><feColorMatrix in="shadowBlurOuter1" values="0 0 0 0 0.999901831 0 0 0 0 1 0 0 0 0 0.999879897 0 0 0 0.5 0"/></filter><path id="b" d="M32 80.456v95.616c0 5.76 3.84 10.752 9.6 12.416l83.2 22.144c2.048.64 4.352.64 6.4 0l83.2-22.144c5.76-1.664 9.6-6.656 9.6-12.416V80.456c0-5.76-3.84-10.752-9.6-12.416l-83.2-22.272a17.92 17.92 0 00-6.4 0L41.6 68.04c-5.76 1.664-9.6 6.656-9.6 12.416zm89.6 116.352l-76.8-20.352V89.8l76.8 20.608zM44.8 77l32-8.576L160 90.568l-32 8.576zm166.4 99.456l-76.8 20.352v-86.4l25.6-7.04V134.6l25.6-6.784V96.584l25.6-6.784zm-25.6-92.672L102.4 61.64l25.6-6.784L211.2 77z"/></defs><g fill="none"><use fill="#000" filter="url(#a)" xlink:href="#b"/><use fill="#423608" xlink:href="#b"/></g></svg>