<?xml version="1.0" encoding="utf-8"?>
<svg version="1.1" id="Layer_1" xmlns="http://www.w3.org/2000/svg" xmlns:xlink="http://www.w3.org/1999/xlink" x="0px" y="0px"
	 viewBox="0 0 48 48" style="enable-background:new 0 0 48 48;" xml:space="preserve">
<style type="text/css">
	.st0{fill:#0D80D8;}
</style>
<path class="st0" d="M4.2,36.3C7.8,34,12,30,10.4,25.4c-0.9-2.6-2-4.7-2.3-7.5c-0.1-2.4,0.2-4.7,1-6.8C12.4,2.4,21.9-1.8,30.5,0.8
	c7.9,2.4,13.4,11.8,10.1,19.8c-1.9,4.7-2.8,8.4,1.5,12c1.2,1,3.9,2.5,3.9,4.3c0,2.3-4.5-0.5-4.9-0.9c0.6,1,6.2,6.9,2.6,7.3
	c-3.3,0.4-6.2-4.3-8.1-6.2c-3.3-3.4-2.8,4-2.8,5.6c0,2.4-1.7,7.3-4.7,4.1c-2.5-2.6-1.5-6.8-3.3-9.8c-1.9-3.2-5.1,3.2-5.9,4.4
	c-0.9,1.3-5.3,7.6-7.1,4.3c-1.5-2.7,0.9-7.1,2-9.6c-0.4,0.9-3.3,2.2-4.1,2.6c-1.8,1-3.9,1.5-6,1.4C-1,39.9,2.4,37.5,4.2,36.3z"/>
</svg>
