<svg id="Layer_1" data-name="Layer 1" xmlns="http://www.w3.org/2000/svg" viewBox="0 0 50 50"><defs><style>.cls-1{fill:#fff;}.cls-2{fill:#0072b4;fill-rule:evenodd;}</style></defs><rect class="cls-1" width="50" height="50"/><path class="cls-2" d="M33.05,18.59l1.86,10.29,1.91-10.29h1.91V11H31v7.63Zm5.68,19.94H31V36.62L20.8,34.77,31,32.91v-2h7.69v7.63Zm-22-7.63h2v7.63H11.15V30.9h1.91l1.86-10.24L16.77,30.9Zm2-14.27L29,14.78,18.79,12.87V11H11.15v7.63h7.64Z" transform="translate(0 0.32)"/><path class="cls-2" d="M19.54,24.4l3.29-.91-.29-1,2.67-1.36-3,.16-.29-1.06-3.28.9.9,3.29Zm11.7,4L28,29.24l-.29-1-3,.17L27.34,27,27.06,26l3.32-.87.86,3.29Zm-6.65,1.76-.86-3.28-1.07.29-1.35-2.67.16,3-1,.24.87,3.33,3.28-.91Zm4-11.7.91,3.29L28.41,22l.16,3-1.35-2.67-1,.25-.9-3.29,3.28-.86Z" transform="translate(0 0.32)"/></svg>