<svg fill="none" height="48" viewBox="0 0 48 48" width="48" xmlns="http://www.w3.org/2000/svg" xmlns:xlink="http://www.w3.org/1999/xlink"><radialGradient id="a" cx=".5" cy=".5" gradientTransform="matrix(62.9883 0 0 62.377 -17.0809 -26.8063)" gradientUnits="userSpaceOnUse" r=".5"><stop offset="0" stop-color="#fff"/><stop offset=".5" stop-color="#4c6b97"/><stop offset="1" stop-color="#231f20"/></radialGradient><path d="m24 25c13.2548 0 24-5.5964 24-12.5 0-6.90356-10.7452-12.5-24-12.5s-24 5.59644-24 12.5c0 6.9036 10.7452 12.5 24 12.5z" fill="url(#a)" transform="translate(0 12)"/><path d="m23.0625 23.1432c12.7371 0 23.0625-5.1808 23.0625-11.5716 0-6.39082-10.3254-11.5716-23.0625-11.5716s-23.0625 5.18078-23.0625 11.5716c0 6.3908 10.3254 11.5716 23.0625 11.5716z" fill="#6181b6" transform="translate(.9375 12.9284)"/><path d="m21.7426 12.9753 1.14-5.84517c.255-1.31462.045-2.29501-.6375-2.9189s-1.7775-.89127-3.4275-.89127h-1.9725l.5625-2.874327c.0111-.053962.01-.109698-.0034-.16317-.0133-.053473-.0384-.103344-.0736-.146001-.0352-.0426566-.0795-.0770307-.1297-.1006326-.0503-.023602-.1052-.03584063-.1608-.03582939h-2.7375c-.0865-.00001748-.1703.02954429-.2372.08368199-.067.054138-.113.129526-.1303.213407l-1.215 6.194301c-.0935-.66197-.3773-1.28334-.8175-1.78996-.4881-.48278-1.0761-.85498-1.7236-1.09091-.64737-.23593-1.33875-.33-2.02642-.2757h-5.3325c-.08645-.00002-.17025.02954-.23722.08368s-.11299.12953-.13028.21341l-2.44500347 12.52969c-.01112277.054-.00998643.1097.00332667.1632s.0384693.1033.073647.146c.0351778.0426.0794958.077.1297438.1006s.105169.0359.160782.0359h2.752504c.08645 0 .17025-.0296.23721-.0837.06697-.0542.113-.1296.13029-.2134l.5925-3.0303h2.055c.90527.0198 1.80826-.0979 2.6775-.3491.73636-.2397 1.41002-.638 1.97252-1.1661.4594-.4159.8515-.8994 1.1625-1.4334l-.495 2.5029c-.0111.054-.01.1097.0033.1632s.0385.1033.0737.146c.0351.0427.0794.077.1297.1006.0502.0236.1052.0359.1608.0359h2.7375c.0864 0 .1702-.0296.2372-.0837.067-.0542.113-.1296.1303-.2134l1.3875-6.88506h1.875c.8025 0 1.035.15597 1.095.22282.06.06684.18.28223.045.96554l-1.0875 5.5407c-.0111.054-.01.1097.0033.1632.0133.0534.0385.1033.0736.146.0352.0426.0795.077.1298.1006.0502.0236.1052.0358.1608.0358h2.775c.0838-.0033.1641-.0344.228-.0882.0639-.0539.1078-.1274.1245-.2089zm-12.67502-4.82022c-.09275.71868-.44749 1.37903-.9975 1.85682-.67346.4112-1.46103.601-2.25.5422h-1.1925l.885-4.50092h1.5825c1.1625 0 1.6275.2451 1.815.45306.14331.24787.2315.52321.25866.80757.02717.28436-.00733.57118-.10116.84127z" fill="#fff" transform="translate(6.92993 15.268)"/><path d="m11.8726 1.38155c-.4881-.482779-1.0761-.85497-1.7236-1.090905-.64737-.2359348-1.33875-.3299981-2.02642-.2757014h-5.3175c-.08645-.0000175-.17025.0295446-.23722.0836824-.06697.054138-.11299.129526-.13028.213407l-2.43000378 12.522267c-.01112277.054-.00998571.1097.00332738.1632.0133131.0535.0384679.1033.0736456.146.0351778.0426.0794968.077.1297448.1006s.10517.0359.160783.0358h2.752503c.08645.0001.17025-.0295.23722-.0836.06696-.0542.11299-.1296.13028-.2134l.5925-3.03034h2.055c.90739.02302 1.81296-.09221 2.68499-.34166.73637-.23972 1.41003-.63794 1.97253-1.16607.9619-.85813 1.6106-2.00702 1.845-3.26797.1828-.6481.2081-1.32986.0739-1.98951-.1343-.65964-.4243-1.27845-.8464-1.8058zm-2.86502 3.44623c-.08285.7135-.42389 1.37312-.96 1.8568-.67346.41126-1.46102.60105-2.25.54219h-1.2225l.885-4.50089h1.5825c1.1625 0 1.6275.24509 1.815.45306.14208.24842.22896.52402.25483.80837s-.00987.5709-.10483.84047z" fill="#fff" transform="translate(28.4924 18.5953)"/><g fill="#000004"><path d="m6.75 1.96821c.36964-.04629.74488-.01959 1.10404.07858.35916.09816.69512.26583.98846.49332.18878.28821.30913.61505.352.95596.04287.3409.00714.68699-.1045 1.01225-.09798.8035-.49028 1.54347-1.1025 2.07962-.73756.46842-1.60864.68733-2.4825.62389h-1.6725l1.0275-5.24362zm-6.75 10.55409h2.7525l.6525-3.32741h2.3625c.86937.02277 1.73708-.08746 2.5725-.3268.68679-.22424 1.3145-.59721 1.8375-1.0918.9041-.80468 1.5133-1.8834 1.7325-3.06744.1732-.58881.2037-1.20977.089-1.81244s-.3713-1.17005-.749-1.65607c-.73-.826892-1.8925-1.24034-3.4875-1.24034h-5.28z" transform="translate(7.26752 18.9816)"/><path d="m2.4825 0h2.7675l-.6525 3.32739h2.4375c1.535 0 2.5925.26491 3.1725.79471.58.52981.755 1.38642.525 2.56982l-1.1475 5.83038h-2.835l1.0875-5.54072c.07783-.21146.10613-.43768.08274-.66156s-.09784-.43957-.21774-.63077c-.39688-.2828-.88776-.40499-1.3725-.34166h-2.16l-1.41 7.17471h-2.76z" transform="translate(18.75 15.6468)"/><path d="m6.75 1.97564c.36964-.04629.74488-.01959 1.10404.07857s.69512.26583.98846.49332c.18878.28822.30913.61506.352.95596s.00714.68699-.1045 1.01225c-.10212.80932-.50281 1.55266-1.125 2.08705-.73756.46842-1.60864.68734-2.4825.62389h-1.65l1.0275-5.24361zm-6.75 10.55406h2.79l.675-3.33481h2.3625c.86937.02277 1.73708-.08746 2.5725-.3268.6781-.22503 1.29779-.59526 1.815-1.08437.9041-.80468 1.5133-1.8834 1.7325-3.06744.1732-.58881.2037-1.20977.089-1.81244s-.3713-1.17005-.749-1.65607c-.715-.831847-1.88-1.24777-3.495-1.24777h-5.3025z" transform="translate(28.785 18.9742)"/></g></svg>