<svg fill="none" height="48" width="48" xmlns="http://www.w3.org/2000/svg"><radialGradient id="a" cx=".5" cy=".5" gradientTransform="matrix(62.9883 0 0 62.377 -17.08 -26.806)" gradientUnits="userSpaceOnUse" r=".5"><stop offset="0" stop-color="#fff"/><stop offset=".5" stop-color="#4c6b97"/><stop offset="1" stop-color="#231f20"/></radialGradient><path d="M24 25c13.255 0 24-5.596 24-12.5S37.255 0 24 0 0 5.596 0 12.5 10.745 25 24 25z" fill="url(#a)" transform="translate(0 12)"/><path d="M24 36.072c12.737 0 23.063-5.181 23.063-11.572 0-6.39-10.326-11.572-23.063-11.572S.937 18.11.937 24.5c0 6.39 10.326 11.572 23.063 11.572z" fill="#6181b6"/><path d="M28.673 28.243l1.14-5.845c.255-1.314.045-2.295-.638-2.919s-1.777-.891-3.427-.891h-1.973l.563-2.874a.367.367 0 00-.207-.41.378.378 0 00-.161-.036h-2.737a.377.377 0 00-.368.297L19.65 21.76a3.469 3.469 0 00-.817-1.79 4.775 4.775 0 00-1.724-1.09 4.813 4.813 0 00-2.026-.276H9.75a.377.377 0 00-.367.297L6.938 31.43a.368.368 0 00.206.41c.05.023.105.035.161.035h2.753a.378.378 0 00.367-.297l.593-3.03h2.055a8.94 8.94 0 002.677-.35 5.26 5.26 0 001.973-1.165c.459-.416.851-.9 1.162-1.434l-.495 2.503a.369.369 0 00.207.41c.05.024.105.036.16.036h2.738a.378.378 0 00.368-.297l1.387-6.885h1.875c.803 0 1.035.156 1.095.223.06.066.18.282.045.965l-1.087 5.54a.369.369 0 00.206.41c.05.024.105.036.161.036h2.775a.377.377 0 00.353-.297zm-12.675-4.82A2.962 2.962 0 0115 25.28a3.78 3.78 0 01-2.25.542h-1.192l.885-4.5h1.582c1.163 0 1.628.244 1.815.452a1.992 1.992 0 01.158 1.65zM40.365 19.977a4.775 4.775 0 00-1.724-1.091 4.813 4.813 0 00-2.026-.276h-5.318a.377.377 0 00-.367.297L28.5 31.43a.368.368 0 00.207.41c.05.023.105.035.16.035h2.753a.377.377 0 00.367-.297l.593-3.03h2.055a8.94 8.94 0 002.685-.342 5.26 5.26 0 001.973-1.166 5.801 5.801 0 001.845-3.268 4.225 4.225 0 00-.773-3.795zM37.5 23.423a2.961 2.961 0 01-.96 1.857 3.779 3.779 0 01-2.25.542h-1.223l.885-4.5h1.583c1.162 0 1.627.244 1.815.452a1.992 1.992 0 01.15 1.65z" fill="#fff"/><g fill="#000004"><path d="M14.018 20.95a2.847 2.847 0 012.092.572 2.259 2.259 0 01.248 1.968 3.295 3.295 0 01-1.103 2.08 4.08 4.08 0 01-2.482.623H11.1l1.028-5.243zm-6.75 10.554h2.752l.653-3.328h2.362a8.53 8.53 0 002.573-.326 4.877 4.877 0 001.837-1.092 5.43 5.43 0 001.733-3.068 3.862 3.862 0 00-.66-3.468c-.73-.827-1.893-1.24-3.488-1.24H9.75zM21.233 15.647H24l-.652 3.327h2.437c1.535 0 2.592.265 3.172.795.58.53.755 1.386.525 2.57l-1.147 5.83H25.5l1.087-5.54a1.472 1.472 0 00-.135-1.293 1.934 1.934 0 00-1.372-.342h-2.16l-1.41 7.175h-2.76zM35.535 20.95a2.847 2.847 0 012.093.572 2.259 2.259 0 01.247 1.968 3.296 3.296 0 01-1.125 2.087 4.08 4.08 0 01-2.483.624h-1.65l1.028-5.244zm-6.75 10.554h2.79l.675-3.335h2.362a8.53 8.53 0 002.573-.327A4.877 4.877 0 0039 26.758a5.43 5.43 0 001.732-3.068 3.862 3.862 0 00-.66-3.468c-.715-.832-1.88-1.248-3.495-1.248h-5.302z"/></g></svg>