<?xml version="1.0" standalone="no"?>
<!DOCTYPE svg PUBLIC "-//W3C//DTD SVG 20010904//EN"
 "http://www.w3.org/TR/2001/REC-SVG-20010904/DTD/svg10.dtd">
<svg version="1.0" xmlns="http://www.w3.org/2000/svg"
 width="717.000000pt" height="300.000000pt" viewBox="0 0 717.000000 300.000000"
 preserveAspectRatio="xMidYMid meet">
<metadata>
Created by potrace 1.10, written by Peter Selinger 2001-2011
</metadata>
<g transform="translate(0.000000,300.000000) scale(0.100000,-0.100000)"
fill="#204a87" stroke="none">
<path d="M136 2963 c-11 -68 -7 -1853 4 -1874 10 -18 24 -19 244 -19 204 0
235 2 240 16 3 9 6 155 6 325 l0 309 23 0 c170 -2 430 9 440 19 6 6 29 11 50
11 37 0 75 12 140 46 16 8 33 14 39 14 5 0 20 8 33 18 12 9 33 24 45 32 43 28
120 115 143 160 12 25 28 51 35 58 6 7 12 24 12 36 0 13 7 37 16 54 22 46 22
338 0 384 -9 17 -16 40 -16 51 0 11 -13 42 -30 69 -16 26 -30 52 -30 56 0 10
-102 114 -129 132 -13 8 -34 23 -46 33 -13 9 -28 17 -33 17 -6 0 -25 8 -44 17
-18 9 -40 20 -49 24 -9 4 -44 11 -78 15 -42 4 -61 11 -61 20 0 12 -79 14 -474
14 l-473 0 -7 -37z m844 -12 c25 -5 79 -14 120 -21 41 -6 84 -16 95 -20 11 -5
41 -18 67 -29 26 -12 50 -21 53 -21 4 0 12 -6 19 -12 8 -7 24 -20 37 -28 26
-17 109 -102 109 -112 0 -4 6 -13 13 -20 19 -20 45 -79 53 -118 3 -19 11 -40
16 -47 13 -16 12 -311 -1 -327 -6 -7 -13 -31 -17 -54 -3 -23 -13 -47 -20 -53
-8 -6 -14 -20 -14 -30 0 -11 -4 -19 -9 -19 -5 0 -12 -8 -15 -17 -7 -21 -83
-102 -115 -123 -13 -8 -29 -21 -37 -27 -7 -7 -19 -13 -26 -13 -8 0 -23 -7 -34
-15 -10 -8 -25 -15 -32 -15 -8 0 -28 -6 -45 -14 -53 -24 -202 -40 -407 -43
-135 -3 -197 -8 -202 -16 -5 -7 -8 -149 -7 -317 l1 -305 -201 -3 -201 -2 -2
905 c-2 498 -1 910 0 915 4 12 735 13 802 1z"/>
<path d="M620 2642 c-37 -11 -40 -30 -40 -283 0 -136 3 -254 6 -263 5 -14 32
-16 191 -16 161 0 189 2 226 19 38 18 82 54 114 95 42 51 61 204 34 263 -38
82 -48 97 -80 121 -81 61 -89 63 -268 66 -93 2 -175 1 -183 -2z m370 -70 c19
-9 49 -32 66 -50 69 -71 68 -250 -1 -325 -19 -20 -38 -37 -42 -37 -4 0 -20 -7
-35 -14 -24 -13 -209 -22 -330 -17 -17 1 -18 19 -18 230 0 175 3 230 13 234 6
2 80 2 162 0 113 -3 159 -9 185 -21z"/>
<path d="M1906 2963 c-8 -49 -8 -1856 0 -1877 5 -14 36 -16 244 -16 208 0 239
2 244 16 3 9 6 189 6 400 l0 384 310 0 310 0 0 -388 c0 -288 3 -391 12 -400 9
-9 76 -12 239 -12 194 0 230 2 243 16 14 14 16 112 16 927 0 502 -3 929 -6
950 l-7 37 -248 0 -249 0 0 -360 0 -360 -310 0 -310 0 0 329 c0 181 -3 343 -6
360 l-6 31 -238 0 -237 0 -7 -37z m445 -359 c-2 -297 0 -352 12 -363 17 -14
689 -12 704 2 11 12 16 502 5 610 -5 56 -4 91 2 97 13 13 379 13 391 1 6 -6 8
-349 5 -913 l-5 -903 -194 0 -195 0 3 376 c2 338 1 378 -14 392 -15 15 -54 17
-354 17 -249 0 -340 -3 -349 -12 -9 -9 -12 -110 -12 -395 l0 -383 -200 0 -200
0 -2 908 c-2 499 -2 910 0 915 2 4 94 6 204 5 l201 -3 -2 -351z"/>
<path d="M3932 2972 c-18 -41 -18 -1882 0 -1894 7 -4 115 -8 240 -8 196 0 229
2 243 16 14 15 16 51 13 325 -3 269 -1 309 12 309 176 -1 432 9 442 17 7 6 36
13 65 16 28 3 60 10 70 16 10 6 43 21 73 35 30 13 65 33 77 45 12 12 26 21 31
21 8 0 34 25 125 121 9 11 17 30 17 44 0 14 4 25 8 25 11 0 49 124 63 206 6
39 9 97 6 130 -12 114 -25 186 -36 197 -6 6 -11 21 -11 33 0 13 -5 26 -10 29
-6 4 -17 23 -25 43 -9 20 -48 68 -88 106 -97 95 -197 146 -314 162 -35 4 -53
11 -53 20 0 12 -78 14 -468 14 l-467 0 -13 -28z m838 -21 c25 -5 79 -14 120
-21 73 -12 90 -17 175 -56 44 -21 120 -70 144 -94 50 -48 121 -167 121 -202 0
-8 6 -20 13 -26 9 -10 12 -62 12 -192 0 -130 -3 -182 -12 -192 -7 -6 -13 -19
-13 -28 0 -31 -68 -148 -109 -186 -62 -59 -65 -61 -128 -93 -130 -65 -226 -82
-518 -90 l-200 -6 -5 -315 -5 -315 -189 -3 c-104 -1 -193 1 -198 6 -12 12 -15
1811 -3 1816 19 8 750 5 795 -3z"/>
<path d="M4389 2631 c-19 -15 -19 -28 -17 -281 l3 -265 203 0 c138 0 205 4
210 11 4 6 16 14 28 18 34 10 85 67 110 123 49 107 23 255 -58 331 -69 66 -90
72 -283 76 -151 3 -179 1 -196 -13z m413 -73 c64 -39 98 -110 98 -202 0 -36
-4 -67 -9 -71 -5 -3 -12 -18 -16 -34 -3 -15 -20 -42 -38 -58 -58 -55 -83 -61
-244 -63 -82 -1 -152 -1 -158 -1 -12 1 -14 453 -2 462 4 3 78 4 165 1 151 -5
158 -6 204 -34z"/>
<path d="M5540 2165 c0 -9 -9 -15 -25 -15 -14 0 -28 -7 -31 -15 -4 -8 -12 -15
-20 -15 -7 0 -18 -9 -24 -20 -6 -11 -17 -20 -25 -20 -8 0 -15 -4 -15 -10 0 -5
11 -10 25 -10 14 0 25 5 25 10 0 6 7 10 15 10 9 0 18 7 21 15 4 8 17 15 30 15
14 0 27 7 30 15 5 12 25 15 94 15 85 0 88 -1 122 -34 27 -26 41 -33 61 -29 21
4 35 -4 76 -45 31 -31 51 -60 51 -73 0 -12 7 -30 15 -39 12 -13 15 -52 15
-196 1 -99 -3 -191 -8 -205 -5 -13 -20 -58 -32 -99 -13 -41 -27 -79 -31 -85
-5 -5 -9 -17 -9 -28 0 -24 -33 -95 -81 -173 -21 -35 -39 -69 -39 -74 0 -6 -15
-38 -32 -72 -46 -87 -213 -255 -290 -291 -31 -15 -64 -27 -73 -27 -8 0 -24 -5
-34 -12 -16 -10 -26 -9 -53 4 -18 9 -44 21 -58 26 -23 9 -24 10 -5 17 11 3 28
11 37 16 10 5 24 9 32 9 44 0 289 211 316 271 16 35 36 69 49 82 6 6 11 21 11
34 0 13 5 23 10 23 6 0 10 6 10 14 0 8 6 21 13 28 7 7 24 36 36 63 13 28 27
58 32 67 5 10 9 30 9 46 0 15 7 37 15 48 8 10 15 33 15 50 0 17 7 37 15 44 9
7 15 30 15 54 0 22 7 50 15 60 21 27 22 358 2 375 -8 6 -17 8 -20 4 -4 -3 -7
-89 -7 -190 0 -151 -3 -187 -15 -199 -8 -9 -15 -33 -15 -54 0 -24 -5 -40 -15
-44 -10 -3 -15 -19 -15 -45 0 -25 -5 -41 -15 -45 -10 -3 -15 -19 -15 -44 0
-23 -6 -45 -15 -52 -8 -7 -15 -20 -15 -30 0 -10 -7 -23 -15 -30 -8 -7 -15 -18
-15 -25 0 -7 -7 -18 -15 -25 -8 -7 -15 -20 -15 -30 0 -10 -7 -20 -15 -24 -8
-3 -15 -14 -15 -24 0 -11 -7 -25 -15 -32 -8 -7 -15 -21 -15 -32 0 -10 -7 -21
-15 -24 -8 -4 -15 -12 -15 -20 0 -8 -4 -14 -9 -14 -5 0 -20 -17 -32 -37 -23
-39 -123 -143 -137 -143 -4 0 -22 -14 -40 -30 -18 -17 -42 -30 -52 -30 -11 0
-23 -7 -28 -17 -8 -14 -21 -15 -87 -10 -71 5 -80 8 -106 37 -16 17 -29 38 -29
46 0 8 -7 14 -15 14 -9 0 -15 9 -15 23 0 12 -6 32 -14 43 -21 29 -21 308 0
338 8 11 14 43 14 73 0 29 5 53 10 53 6 0 10 15 10 33 0 17 7 45 15 61 8 15
15 35 15 42 0 8 14 40 30 71 17 31 30 64 30 73 0 10 7 23 15 30 8 7 15 18 15
25 0 16 32 79 43 83 11 5 9 32 -3 32 -5 0 -10 -6 -10 -14 0 -7 -9 -16 -20 -19
-12 -3 -20 -14 -20 -25 0 -11 -7 -22 -15 -26 -8 -3 -15 -14 -15 -25 0 -10 -7
-21 -15 -25 -8 -3 -15 -14 -15 -24 0 -11 -7 -25 -15 -32 -8 -7 -15 -23 -15
-35 0 -12 -7 -28 -15 -35 -8 -7 -15 -25 -15 -40 0 -16 -7 -30 -15 -34 -10 -3
-15 -19 -15 -44 0 -23 -6 -45 -15 -52 -9 -8 -15 -30 -15 -57 0 -26 -6 -51 -15
-59 -12 -13 -15 -49 -15 -195 0 -150 2 -181 15 -185 8 -4 15 -18 15 -34 0 -15
7 -33 15 -40 8 -7 15 -20 15 -29 1 -22 83 -81 113 -81 28 0 65 -45 74 -91 8
-40 28 -47 57 -20 12 11 34 21 48 21 14 0 64 7 111 15 88 15 130 35 196 92 24
21 57 37 90 44 74 16 81 11 75 -53 -9 -87 -12 -95 -41 -103 l-28 -8 32 -13
c30 -13 31 -16 26 -56 -3 -24 -15 -53 -26 -65 -13 -15 -18 -31 -14 -49 11 -60
-54 -143 -112 -145 -37 -1 -35 -3 12 -13 44 -10 29 -35 -33 -56 -56 -19 -80
-14 -80 17 0 7 -25 38 -56 68 -31 30 -54 60 -52 67 2 6 20 17 39 23 38 13 32
17 -46 30 -49 8 -96 35 -87 49 8 13 32 78 32 89 0 4 -16 7 -35 7 -40 0 -85
-25 -85 -46 0 -8 -7 -14 -16 -14 -13 0 -15 7 -10 30 7 35 -8 39 -55 15 -16 -8
-42 -22 -58 -30 -16 -8 -36 -15 -45 -15 -9 0 -16 -8 -16 -19 0 -16 5 -18 40
-14 38 5 40 4 40 -22 0 -24 -11 -67 -42 -160 -5 -16 -14 -49 -20 -72 -5 -24
-14 -43 -19 -43 -5 0 -9 -7 -9 -15 0 -19 48 -20 72 -1 20 15 58 135 77 246 9
53 23 70 64 77 l37 6 0 -60 c0 -51 4 -63 25 -83 14 -13 30 -41 35 -62 7 -23
24 -48 45 -65 19 -16 35 -32 35 -38 0 -11 95 -101 120 -115 8 -4 44 -2 80 6
36 7 78 14 94 14 29 0 76 8 221 35 39 8 111 21 160 30 50 9 122 22 160 30 39
8 111 21 160 30 200 37 253 46 320 60 39 7 100 19 138 25 90 14 115 25 122 52
4 13 21 32 38 43 21 13 33 30 35 48 2 18 11 31 26 37 27 10 36 29 36 76 0 22
6 37 15 40 11 5 15 22 15 64 0 33 -4 61 -9 65 -12 7 -33 -29 -30 -53 3 -38 -1
-42 -49 -42 -27 0 -57 -7 -70 -16 -13 -9 -29 -13 -37 -10 -17 6 -21 66 -5 66
5 0 12 11 16 25 7 29 57 47 144 50 30 1 61 2 68 3 18 3 17 252 -1 252 -8 0
-19 -11 -25 -24 -9 -20 -22 -25 -88 -35 -44 -6 -81 -8 -86 -3 -5 5 -8 38 -6
73 l3 64 108 -1 c96 -1 107 0 107 16 0 10 -9 20 -20 23 -17 4 -20 14 -20 71 0
62 -25 135 -51 152 -5 3 -9 22 -9 43 0 28 -7 44 -30 66 -19 19 -30 39 -30 57
0 21 -6 29 -25 34 -13 3 -27 15 -31 26 -8 27 -41 58 -61 58 -9 0 -24 6 -32 14
-13 12 -30 13 -89 6 -39 -5 -82 -6 -95 -1 -12 4 -159 5 -327 0 -210 -5 -308
-4 -317 3 -9 8 -13 49 -13 148 0 110 -3 140 -15 150 -8 7 -15 25 -15 41 0 16
-4 29 -10 29 -5 0 -12 10 -16 23 -7 27 -88 91 -129 101 -16 4 -32 11 -35 14
-3 4 -20 15 -38 25 -46 23 -222 25 -222 2z m1164 -600 c19 -20 36 -19 36 1 0
15 10 16 82 10 78 -6 102 -17 95 -41 -2 -5 -32 -11 -66 -13 -50 -2 -68 1 -83
15 -19 17 -20 17 -29 0 -9 -16 -38 -17 -355 -17 -297 0 -345 2 -350 15 -4 8
-4 22 0 30 5 13 51 15 330 15 275 0 327 -2 340 -15z m74 -95 c15 -12 22 -28
20 -42 l-3 -23 -395 0 -395 0 3 30 c6 57 -5 55 386 55 342 -1 362 -2 384 -20z
m201 -9 c12 -16 21 -33 21 -39 0 -10 -121 -23 -151 -15 -12 3 -19 14 -19 28 0
13 -7 26 -16 29 -34 13 1 26 71 26 70 0 75 -1 94 -29z m-143 -116 c26 -28 33
-85 12 -85 -102 2 -531 -13 -583 -20 -101 -13 -297 -22 -317 -15 -15 6 -14 11
4 53 37 86 21 81 292 84 133 2 314 4 404 6 l164 3 24 -26z m207 -13 c22 -50
22 -52 -9 -52 -14 0 -45 -5 -70 -11 -49 -13 -74 -2 -74 32 0 10 -7 22 -17 27
-10 6 -14 16 -10 26 5 13 22 16 85 16 l78 0 17 -38z m52 -169 c1 -27 -4 -51
-9 -55 -13 -9 -128 -10 -150 -2 -12 5 -16 20 -16 60 l0 53 78 3 c42 2 81 0 86
-4 6 -4 10 -29 11 -55z m-203 12 c0 -25 1 -51 2 -57 1 -17 -63 -25 -294 -38
-102 -5 -212 -14 -245 -19 -33 -6 -132 -13 -220 -16 -92 -4 -182 -13 -212 -21
-38 -11 -58 -12 -72 -5 -31 17 -12 74 44 129 l46 45 67 -6 c37 -3 153 -1 257
5 182 10 446 22 568 26 l57 2 2 -45z m23 -185 l0 -65 -65 -7 c-36 -3 -139 -13
-230 -22 -570 -54 -713 -70 -726 -78 -7 -4 -16 -2 -22 5 -14 18 -25 92 -17
126 l6 29 97 6 c53 3 187 12 297 21 110 8 291 20 402 28 111 7 205 16 210 20
4 4 16 7 28 5 18 -3 20 -10 20 -68z m219 -106 c10 -27 7 -89 -6 -102 -7 -7
-39 -12 -73 -12 -34 0 -66 -5 -73 -12 -21 -21 -33 6 -30 68 l3 59 70 6 c39 3
77 6 86 7 9 1 20 -5 23 -14z m-219 -70 l0 -69 -95 -6 c-52 -4 -153 -14 -225
-24 -174 -22 -335 -42 -480 -59 -66 -8 -143 -20 -172 -27 -77 -17 -83 -12 -83
70 0 38 4 73 10 76 5 3 92 13 192 21 101 8 246 21 323 29 77 8 210 21 295 29
85 8 169 19 185 24 17 6 35 9 40 8 6 -2 10 -34 10 -72z m2 -119 c3 -9 -1 -23
-10 -33 -8 -9 -17 -28 -19 -42 -3 -22 -9 -26 -58 -31 -30 -4 -73 -12 -95 -18
-22 -6 -65 -11 -95 -11 -30 0 -73 -7 -95 -15 -22 -8 -68 -14 -102 -15 -34 0
-74 -5 -88 -10 -14 -6 -63 -13 -108 -16 -45 -4 -89 -10 -97 -14 -8 -4 -52 -11
-98 -14 -46 -4 -99 -14 -119 -22 -19 -8 -49 -14 -67 -12 -30 3 -31 4 -34 59
-4 74 12 85 134 92 49 4 141 13 204 21 111 14 254 32 485 61 61 7 128 18 150
23 63 15 105 14 112 -3z m143 -144 c0 -40 -13 -51 -66 -51 -12 0 -27 -7 -34
-15 -7 -8 -25 -15 -41 -15 -24 0 -29 4 -29 25 0 16 -6 25 -15 25 -8 0 -15 -9
-15 -20 0 -11 -8 -23 -17 -26 -10 -3 -31 -12 -46 -20 -18 -8 -59 -14 -105 -14
-52 -1 -83 -5 -96 -15 -13 -10 -44 -15 -90 -15 -47 -1 -78 -6 -90 -15 -13 -10
-43 -15 -87 -15 -40 0 -78 -6 -95 -15 -17 -8 -55 -15 -90 -15 -35 0 -74 -6
-90 -15 -16 -8 -56 -15 -89 -15 -37 0 -68 -6 -79 -15 -11 -8 -38 -15 -61 -15
-35 0 -44 4 -53 25 -15 33 -15 32 7 38 11 2 21 15 23 28 3 22 9 24 88 31 47 4
132 14 190 23 58 8 146 20 195 26 50 5 98 14 109 20 10 6 57 14 105 19 212 23
278 32 308 46 37 17 75 18 90 3 7 -7 17 -7 29 -1 21 11 112 40 132 41 8 1 12
-13 12 -38z m-60 -112 c0 -12 -7 -19 -19 -19 -11 0 -33 -11 -49 -25 -34 -28
-89 -34 -98 -10 -9 23 35 54 77 55 19 0 44 6 54 14 23 17 35 12 35 -15z m-189
-38 c-12 -12 -24 -21 -29 -21 -4 0 -16 -9 -25 -21 -15 -17 -28 -20 -87 -17
-74 3 -104 -8 -52 -18 18 -4 32 -11 32 -17 0 -9 -12 -8 -151 9 -26 4 -55 2
-65 -4 -16 -9 -13 -11 19 -17 20 -4 37 -11 37 -15 0 -16 -42 -18 -93 -4 -59
16 -123 18 -131 5 -7 -10 17 -21 45 -21 10 0 19 -4 19 -9 0 -16 -53 -19 -99
-5 -49 15 -109 18 -136 8 -23 -9 0 -24 37 -24 40 0 43 -17 5 -24 -21 -4 -48
-1 -70 9 -40 16 -132 20 -141 6 -7 -11 17 -21 50 -21 13 0 24 -4 24 -9 0 -15
-54 -23 -84 -11 -15 5 -53 10 -84 9 -53 -1 -54 -2 -24 -10 57 -17 34 -39 -41
-39 -23 0 -51 -7 -61 -15 -11 -8 -33 -15 -49 -15 -40 0 -32 29 13 44 26 8 36
18 38 36 7 45 46 70 110 70 31 1 68 7 82 15 14 8 53 15 90 15 37 0 76 7 90 15
14 8 53 15 90 15 37 0 76 7 90 15 14 8 53 15 90 15 41 0 72 6 84 15 13 10 44
15 90 15 47 1 78 6 90 15 13 10 43 15 86 15 55 0 70 4 85 20 16 18 21 19 33 6
12 -12 11 -17 -7 -35z m14 -61 c4 -6 -7 -10 -25 -10 -18 0 -29 4 -25 10 3 6
15 10 25 10 10 0 22 -4 25 -10z"/>
<path d="M5815 2057 c-9 -21 -3 -49 12 -54 19 -7 27 37 9 55 -14 14 -16 14
-21 -1z"/>
<path d="M1036 825 c-15 -8 -34 -15 -41 -15 -22 0 -100 -67 -125 -108 -14 -23
-28 -42 -32 -42 -5 0 -8 -7 -8 -15 0 -7 -6 -18 -13 -22 -12 -8 -37 -38 -67
-83 -8 -12 -20 -28 -25 -34 -6 -6 -22 -29 -35 -51 -13 -22 -26 -42 -29 -45 -9
-8 -30 -43 -41 -68 -15 -34 -30 -17 -30 32 0 24 -5 68 -11 97 -6 30 -14 103
-17 164 l-7 109 -94 -3 c-87 -3 -99 -5 -144 -34 -55 -37 -111 -114 -121 -170
-10 -52 2 -127 21 -127 24 0 73 43 73 64 -1 12 -7 32 -15 46 -21 37 -18 65 9
97 27 32 83 53 140 53 43 0 55 -19 32 -52 -9 -12 -16 -30 -16 -40 0 -9 -6 -32
-14 -50 -8 -18 -24 -67 -36 -108 -53 -180 -63 -193 -148 -197 -49 -2 -60 -6
-80 -30 -12 -15 -21 -35 -19 -43 6 -31 142 -1 193 42 61 53 92 136 139 372 4
16 10 25 14 20 10 -11 35 -279 33 -350 -2 -65 15 -84 44 -51 11 13 23 29 27
37 4 8 16 29 27 45 11 17 23 37 27 45 4 8 39 63 78 121 40 59 75 114 78 123
10 25 27 19 27 -10 0 -24 -12 -71 -42 -159 -6 -16 -13 -48 -17 -70 -4 -22 -12
-49 -18 -60 -6 -11 -13 -40 -15 -65 l-3 -45 87 -3 c95 -3 128 7 128 39 0 19
-5 21 -37 17 -21 -3 -49 -1 -62 4 -28 10 -27 22 24 213 30 115 37 142 44 183
4 24 13 48 19 54 7 7 12 21 12 31 0 10 8 32 17 48 15 25 24 29 59 29 34 0 45
5 59 26 18 27 14 54 -7 54 -7 0 -26 -7 -42 -15z"/>
<path d="M2566 751 c-4 -6 -19 -11 -33 -11 -15 0 -43 -5 -62 -11 -150 -48
-230 -131 -247 -256 -5 -44 -4 -52 13 -62 16 -8 27 -5 52 12 27 18 31 27 26
51 -6 35 12 102 37 136 24 30 83 65 126 75 31 6 32 5 32 -25 0 -18 -6 -53 -14
-79 -8 -25 -21 -71 -29 -101 -28 -106 -51 -175 -70 -212 -18 -36 -66 -68 -104
-68 -26 -1 -67 -34 -61 -51 4 -11 34 -13 159 -10 85 2 162 7 171 12 9 5 27 9
40 9 13 0 32 6 43 14 11 7 31 17 44 21 45 14 132 99 160 159 37 77 51 128 51
193 0 62 -1 65 -44 111 -46 49 -103 75 -191 86 -22 3 -52 8 -66 12 -15 3 -30
1 -33 -5z m128 -63 c35 -9 58 -24 83 -53 35 -40 35 -40 31 -125 -4 -69 -10
-97 -35 -150 -56 -117 -111 -149 -270 -157 -115 -7 -125 0 -72 44 38 32 79 96
79 122 0 11 6 35 14 53 16 37 33 102 46 168 14 73 38 122 58 117 9 -3 39 -11
66 -19z"/>
<path d="M3445 640 c-22 -15 -33 -33 -45 -77 -14 -54 -17 -58 -47 -61 -20 -2
-37 -12 -47 -26 -19 -30 -13 -36 31 -29 l36 6 -7 -34 c-4 -19 -10 -54 -15 -79
-5 -25 -14 -66 -22 -92 -19 -69 -6 -102 44 -106 20 -2 37 1 37 7 0 5 10 13 23
18 46 17 116 69 117 86 0 23 -31 22 -63 -3 -14 -11 -36 -21 -49 -22 -21 -3
-23 2 -26 40 -2 24 4 64 12 90 8 26 16 58 18 72 3 22 7 25 39 22 45 -3 89 13
89 33 0 8 -6 15 -12 16 -7 0 -31 1 -53 2 -38 2 -40 3 -37 32 2 17 10 45 19 62
15 31 12 63 -4 63 -4 0 -21 -9 -38 -20z"/>
<path d="M4440 631 c-27 -23 -34 -37 -38 -80 l-5 -51 -37 0 c-29 0 -39 -5 -48
-24 -13 -30 -7 -37 29 -29 28 5 29 4 29 -35 0 -22 -5 -53 -11 -69 -17 -44 -31
-143 -24 -175 10 -42 49 -37 139 18 84 50 94 60 77 77 -9 9 -24 5 -60 -16 -60
-33 -85 -28 -77 17 3 17 10 60 16 95 12 76 33 105 69 96 29 -8 81 12 81 31 0
10 -15 14 -54 14 -63 0 -73 9 -53 47 8 16 19 43 25 61 9 27 8 34 -8 42 -14 7
-25 3 -50 -19z"/>
<path d="M1546 563 c-10 -3 -24 -9 -30 -14 -6 -5 -23 -18 -38 -29 -14 -11 -36
-40 -48 -65 -28 -57 -18 -84 45 -135 61 -49 59 -82 -8 -123 -33 -21 -67 -8
-67 26 0 42 -14 51 -50 33 -42 -20 -40 -21 -40 9 0 32 -7 31 -50 -5 -19 -16
-40 -34 -47 -39 -18 -16 -61 -24 -87 -17 -17 4 -25 15 -29 38 -6 44 5 62 54
87 79 41 159 131 159 179 0 48 -84 69 -138 35 -45 -29 -102 -85 -102 -101 0
-7 -6 -26 -14 -40 -7 -15 -21 -59 -30 -98 -16 -68 -16 -71 4 -117 l21 -47 53
0 c59 0 82 9 143 57 50 40 59 41 67 6 11 -52 30 -66 89 -66 105 0 208 110 182
193 -4 11 -9 20 -13 20 -4 0 -24 16 -44 35 -40 36 -50 79 -26 103 17 17 63 15
78 -3 11 -13 15 -13 41 1 29 14 36 37 21 62 -10 14 -67 23 -96 15z m-328 -95
c3 -32 -2 -40 -46 -77 -28 -22 -55 -41 -61 -41 -15 0 -13 21 4 44 8 11 15 28
15 38 0 22 57 81 73 75 7 -2 13 -19 15 -39z"/>
<path d="M1843 548 c-54 -30 -113 -105 -113 -144 0 -9 28 -43 62 -75 61 -59
62 -60 48 -86 -8 -15 -30 -35 -49 -45 -39 -22 -54 -14 -76 39 -17 40 -28 41
-61 8 -47 -47 -7 -105 72 -107 98 -2 185 76 183 164 0 40 -4 46 -50 81 -50 38
-59 60 -39 98 13 24 66 26 91 3 16 -14 19 -14 42 6 30 26 25 57 -10 71 -36 14
-54 11 -100 -13z"/>
<path d="M3796 562 c-27 -6 -86 -44 -113 -73 -30 -34 -54 -92 -73 -181 -15
-72 -15 -80 1 -120 16 -42 17 -43 69 -46 57 -3 106 14 149 54 14 14 34 27 44
30 17 5 24 48 9 58 -5 3 -19 -5 -33 -17 -63 -58 -134 -83 -156 -54 -16 20 -23
59 -13 77 5 10 28 27 51 39 78 41 159 133 159 181 0 33 -52 61 -94 52z m2 -94
c3 -32 -2 -40 -45 -77 -26 -22 -54 -41 -60 -41 -17 0 -16 20 2 44 8 11 15 28
15 38 0 22 57 81 73 75 7 -2 13 -20 15 -39z"/>
<path d="M4160 563 c-72 -23 -180 -112 -180 -149 0 -8 -7 -28 -15 -45 -21 -39
-25 -190 -6 -213 23 -27 106 -21 176 14 32 17 62 34 65 38 3 4 14 12 25 18 11
6 20 20 20 30 0 14 -6 18 -25 16 -14 -2 -30 -10 -36 -18 -6 -8 -16 -14 -22
-14 -6 0 -18 -7 -27 -16 -9 -9 -33 -17 -53 -18 -32 -1 -39 3 -54 32 -14 30
-15 38 -2 68 8 18 14 47 14 64 0 39 44 117 71 125 24 8 49 -11 49 -36 0 -26
16 -24 47 6 23 21 26 28 18 51 -11 31 -43 54 -65 47z"/>
<path d="M3080 539 c-83 -67 -99 -92 -131 -209 -23 -83 -23 -111 -2 -155 16
-33 19 -35 69 -35 61 0 91 12 162 63 38 28 52 45 52 63 0 22 -24 35 -32 16 -1
-4 -23 -23 -47 -41 -32 -26 -54 -35 -84 -35 -35 -1 -41 2 -49 27 -13 38 -3 74
25 83 12 4 40 21 62 37 98 76 131 134 104 183 -10 20 -20 24 -58 24 -31 -1
-54 -7 -71 -21z m58 -65 c2 -25 -6 -38 -48 -77 -28 -26 -55 -47 -60 -47 -15 0
-12 34 5 56 8 10 15 26 15 34 1 18 30 55 50 63 25 9 35 2 38 -29z"/>
<path d="M4763 526 c-75 -46 -86 -59 -122 -131 -25 -52 -31 -77 -31 -130 0
-40 6 -78 15 -95 14 -28 20 -30 68 -30 60 0 104 18 165 68 44 36 71 84 96 171
22 76 20 109 -10 148 -23 30 -29 33 -77 32 -40 0 -64 -8 -104 -33z m113 -37
c15 -25 6 -145 -13 -180 -50 -88 -59 -100 -88 -107 -45 -12 -64 -4 -81 36 -13
32 -13 43 0 92 28 110 76 170 135 170 22 0 43 -5 47 -11z"/>
</g>
</svg>
