<?xml version="1.0" encoding="UTF-8" standalone="no"?>
<svg width="256px" height="256px" viewBox="0 0 256 256" version="1.1" xmlns="http://www.w3.org/2000/svg" xmlns:xlink="http://www.w3.org/1999/xlink" preserveAspectRatio="xMidYMid">
	<g>
		<path d="M128,0 C93.81,0 61.666,13.314 37.49,37.49 C13.314,61.666 0,93.81 0,128 C0,162.19 13.314,194.334 37.49,218.51 C61.666,242.686 93.81,256 128,256 C162.19,256 194.334,242.686 218.51,218.51 C242.686,194.334 256,162.19 256,128 C256,93.81 242.686,61.666 218.51,37.49 C194.334,13.314 162.19,0 128,0" fill="#FF7F00"></path>
		<path d="M249.3864,128 C249.3864,195.04 195.0394,249.386 128.0004,249.386 C60.9604,249.386 6.6134,195.04 6.6134,128 C6.6134,60.96 60.9604,6.614 128.0004,6.614 C195.0394,6.614 249.3864,60.96 249.3864,128" fill="#FFFFFF"></path>
		<path d="M160.8686,74.0616 L166.0136,55.5246 C171.2776,55.0556 175.4056,50.6386 175.4056,45.2516 C175.4056,39.5526 170.7856,34.9326 165.0866,34.9326 C159.3866,34.9326 154.7666,39.5526 154.7666,45.2516 C154.7666,49.0066 156.7786,52.2826 159.7766,54.0886 L154.7266,72.2836 C140.2886,68.6146 128.1006,68.8946 128.1006,68.8946 L125.8426,69.9036 L125.8426,210.7756 L128.1006,211.5286 C141.7146,211.5286 201.2776,170.3956 201.4236,126.2586 C201.4236,94.6346 180.4006,80.4336 160.8686,74.0616 Z M146.5306,164.7996 C134.9136,146.2426 139.8246,103.0486 170.1736,96.8746 C178.4946,95.5416 188.6826,101.0086 191.6846,113.1536 C199.2656,138.9196 154.6686,174.9986 146.5306,164.7996 Z M164.7474,125.0476 C159.5564,125.0476 155.3484,129.2556 155.3484,134.4466 C155.3484,139.6376 159.5564,143.8456 164.7474,143.8456 C169.9384,143.8456 174.1464,139.6376 174.1464,134.4466 C174.1464,129.2556 169.9384,125.0476 164.7474,125.0476 Z M167.5574,133.7196 C166.2464,133.7196 165.1834,132.6566 165.1834,131.3456 C165.1834,130.0346 166.2464,128.9716 167.5574,128.9716 C168.8684,128.9716 169.9314,130.0346 169.9314,131.3456 C169.9314,132.6566 168.8684,133.7196 167.5574,133.7196 Z" fill="#E57200"></path>
		<path d="M101.3712,72.7086 L96.3482,53.8076 C99.2222,51.9756 101.1342,48.7676 101.1342,45.1066 C101.1342,39.4076 96.5142,34.7866 90.8142,34.7866 C85.1152,34.7866 80.4952,39.4076 80.4952,45.1066 C80.4952,50.7886 85.0872,55.3956 90.7622,55.4236 L95.7992,74.3776 C76.1902,80.8876 54.9142,95.1196 54.9142,126.2586 C55.3502,171.2676 114.4862,211.5246 128.1002,211.5246 L128.1002,68.8916 C128.1002,68.8916 115.8482,68.8296 101.3712,72.7086 Z M111.7662,164.7996 C103.6282,174.9986 59.0312,138.9196 66.6122,113.1536 C69.6142,101.0086 79.8022,95.5416 88.1232,96.8746 C118.4722,103.0486 123.3832,146.2426 111.7662,164.7996 Z M92.9461,125.3383 C87.7551,125.3383 83.5471,129.5463 83.5471,134.7373 C83.5471,139.9283 87.7551,144.1363 92.9461,144.1363 C98.1371,144.1363 102.3451,139.9283 102.3451,134.7373 C102.3451,129.5463 98.1371,125.3383 92.9461,125.3383 Z M90.1361,134.0103 C88.8251,134.0103 87.7621,132.9473 87.7621,131.6363 C87.7621,130.3253 88.8251,129.2623 90.1361,129.2623 C91.4471,129.2623 92.5101,130.3253 92.5101,131.6363 C92.5101,132.9473 91.4471,134.0103 90.1361,134.0103 Z" fill="#FF7F00"></path>
	</g>
</svg>
