<?xml version="1.0" encoding="UTF-8" standalone="no"?>
<svg
   xmlns:dc="http://purl.org/dc/elements/1.1/"
   xmlns:cc="http://creativecommons.org/ns#"
   xmlns:rdf="http://www.w3.org/1999/02/22-rdf-syntax-ns#"
   xmlns:svg="http://www.w3.org/2000/svg"
   xmlns="http://www.w3.org/2000/svg"
   xmlns:sodipodi="http://sodipodi.sourceforge.net/DTD/sodipodi-0.dtd"
   xmlns:inkscape="http://www.inkscape.org/namespaces/inkscape"
   inkscape:export-ydpi="50.720001"
   inkscape:export-xdpi="50.720001"
   inkscape:export-filename="/home/andreas/PMD/source/pmd7/docs/images/logo/pmd-logo-300px.png"
   inkscape:version="1.0 (4035a4fb49, 2020-05-01)"
   sodipodi:docname="PMD.svg"
   xml:space="preserve"
   enable-background="new 0 0 1600 1200"
   viewBox="0 0 1600 1200"
   y="0px"
   x="0px"
   id="Layer_1"
   version="1.1"><metadata
   id="metadata79"><rdf:RDF><cc:Work
       rdf:about=""><dc:format>image/svg+xml</dc:format><dc:type
         rdf:resource="http://purl.org/dc/dcmitype/StillImage" /><dc:title></dc:title></cc:Work></rdf:RDF></metadata><defs
   id="defs77" /><sodipodi:namedview
   inkscape:pagecheckerboard="false"
   inkscape:current-layer="g72"
   inkscape:window-maximized="0"
   inkscape:window-y="23"
   inkscape:window-x="26"
   inkscape:cy="600"
   inkscape:cx="800"
   inkscape:zoom="0.748125"
   showgrid="false"
   id="namedview75"
   inkscape:window-height="883"
   inkscape:window-width="1619"
   inkscape:pageshadow="2"
   inkscape:pageopacity="0"
   guidetolerance="10"
   gridtolerance="10"
   objecttolerance="10"
   borderopacity="1"
   bordercolor="#666666"
   pagecolor="#ffffff" />
<g
   id="g72"><g
   id="g947"><path
     fill="none"
     d="M934.8,558.4h-24.9v79.3h26.1c21.4,0,37.1-16.1,37.1-39.5C973.2,574.7,956.7,558.4,934.8,558.4z"
     id="path4" /><path
     fill="#58595B"
     d="M569.6,682.1c-0.5-3.1-1.1-6.2-1.1-9.3c-0.1-17.6,0-35.2-0.2-52.8c-0.1-7.3-1.9-14.2-7.1-19.7   c-1.8-1.9-3.9-3.6-5.9-5.4c2-1.8,4.1-3.5,5.9-5.4c5.2-5.5,7-12.3,7.1-19.7c0.2-17.6,0.1-35.2,0.2-52.8c0-3.1,0.6-6.2,1.1-9.3   c0.6-4,3.1-6.3,7-6.8h20.8v-22.2h-14.3c-11.2-0.5-22,1-31.3,9c-7.6,6.6-10.1,15.5-10.3,25c-0.4,16.3-0.1,32.6-0.3,48.9   c0,3.6-0.4,7.2-1.3,10.7c-0.1,0.3-0.2,0.6-0.3,0.9c-1.2,3.2-3.2,5.3-5.6,6.8c-1.2,0.7-2.6,1.3-4.1,1.7c-1.3,0.4-2.4,0.6-3.2,0.9   c-0.8,0.1-1.5,0.2-2.2,0.3h-8.5v11.8v11.8h8.5c0.7,0.1,1.4,0.1,2.2,0.3c0.8,0.3,1.8,0.6,3.2,0.9c1.5,0.4,2.9,1,4.1,1.7   c2.3,1.5,4.4,3.6,5.6,6.8c0.1,0.3,0.2,0.6,0.3,0.9c0.9,3.5,1.3,7.1,1.3,10.7c0.2,16.3-0.1,32.6,0.3,48.9c0.2,9.5,2.8,18.4,10.3,25   c9.3,8.1,20.1,9.5,31.3,9h14.3v-22.2h-20.8C572.8,688.4,570.2,686.1,569.6,682.1z"
     id="path60" /><path
     fill="#58595B"
     d="M1075.3,583.3c-0.7-0.1-1.4-0.1-2.2-0.3c-0.8-0.3-1.8-0.6-3.2-0.9c-1.5-0.4-2.9-1-4.1-1.7   c-2.3-1.5-4.4-3.6-5.6-6.8c-0.1-0.3-0.2-0.6-0.3-0.9c-0.9-3.5-1.3-7.1-1.3-10.7c-0.2-16.3,0.1-32.6-0.3-48.9   c-0.2-9.5-2.8-18.4-10.3-25c-9.3-8.1-20.1-9.5-31.3-9h-14.3v22.2h20.8c3.9,0.5,6.4,2.8,7,6.8c0.5,3.1,1.1,6.2,1.1,9.3   c0.1,17.6,0,35.2,0.2,52.8c0.1,7.3,1.9,14.2,7.1,19.7c1.8,1.9,3.9,3.6,5.9,5.4c-2,1.8-4.1,3.5-5.9,5.4c-5.2,5.5-7,12.3-7.1,19.7   c-0.2,17.6-0.1,35.2-0.2,52.8c0,3.1-0.6,6.2-1.1,9.3c-0.6,4-3.1,6.3-7,6.8h-20.8v22.2h14.3c11.2,0.5,22-1,31.3-9   c7.6-6.6,10.1-15.5,10.3-25c0.4-16.3,0.1-32.6,0.3-48.9c0-3.6,0.4-7.2,1.3-10.7c0.1-0.3,0.2-0.6,0.3-0.9c1.2-3.2,3.2-5.3,5.6-6.8   c1.2-0.7,2.6-1.3,4.1-1.7c1.3-0.4,2.4-0.6,3.2-0.9c0.8-0.1,1.5-0.2,2.2-0.3h8.5v-11.8v-11.8H1075.3z"
     id="path62" /><g
     id="g70">
		<polygon
   fill="#1DBF73"
   points="791,612.3 753.7,534.1 721.4,534.1 721.4,662 747.5,662 747.5,575.8 781.5,649.1 800.3,649.1     834.3,575.8 834.3,662 860.2,662 860.2,534.1 828.1,534.1   "
   id="polygon64" />
		<path
   fill="#1DBF73"
   d="M935.3,534.1h-54.3V662h53.2c40.4,0,68.3-26.3,68.3-64C1002.6,560.2,975,534.1,935.3,534.1z M936.1,637.7    h-26.1v-79.3h24.9c21.9,0,38.4,16.3,38.4,39.8C973.2,621.6,957.5,637.7,936.1,637.7z"
   id="path66" />
		<path
   fill="#1DBF73"
   d="M723.3,525.6c-4,2.2-7.9,4.7-11.7,7.2c-7.4,5-14.1,10.3-19.8,15.2c-2.7,2.4-5.2,4.6-7.4,6.7    c-1.1,0.9-2.1,1.8-3.1,2.7c-3.4,3-6.6,6-9.7,8.8c-17,15.8-29.2,28.9-29.2,28.9l-16-18l-8-8.9l-5.7-6.4c0.6-3.1,2.9-5.7,5.7-7.9    c1.9-1.5,4-2.7,6.1-3.8c4.1-2.1,7.7-3.2,7.7-3.2l2.7,3.2l6.8,7.9l8,9.3c2.9-3,5.8-5.9,8.6-8.6c3.2-3.1,6.4-6,9.5-8.6    c2.2-1.9,4.4-3.8,6.6-5.5c2.1-1.6,4.2-3.1,6.5-4.6c-7.8-3.8-17.6-5.9-29-5.9h-54.3V662h28.9v-36.5h25.4c32.5,0,51.2-17.2,51.2-47    c0-9.9-2.3-18.4-6.7-25.1L723.3,525.6z"
   id="path68" />
	</g></g>
</g>
</svg>
