<?xml version="1.0" encoding="UTF-8" standalone="no"?>
<svg
   xml:space="preserve"
   enable-background="new 0 0 1600 1200"
   viewBox="0 0 567.79999 232.97284"
   y="0px"
   x="0px"
   id="Layer_1"
   version="1.1"
   width="567.79999"
   height="232.97284"
   xmlns="http://www.w3.org/2000/svg"
   xmlns:svg="http://www.w3.org/2000/svg"
   xmlns:rdf="http://www.w3.org/1999/02/22-rdf-syntax-ns#"
   xmlns:cc="http://creativecommons.org/ns#"
   xmlns:dc="http://purl.org/dc/elements/1.1/"><metadata
   id="metadata79"><rdf:RDF><cc:Work
       rdf:about=""><dc:format>image/svg+xml</dc:format><dc:type
         rdf:resource="http://purl.org/dc/dcmitype/StillImage" /></cc:Work></rdf:RDF></metadata><defs
   id="defs77" />
<g
   id="g72"
   transform="translate(-516,-478.61358)"><g
   id="g947"><path
     fill="none"
     d="m 934.8,558.4 h -24.9 v 79.3 H 936 c 21.4,0 37.1,-16.1 37.1,-39.5 0.1,-23.5 -16.4,-39.8 -38.3,-39.8 z"
     id="path4" /><path
     fill="#58595b"
     d="m 569.6,682.1 c -0.5,-3.1 -1.1,-6.2 -1.1,-9.3 -0.1,-17.6 0,-35.2 -0.2,-52.8 -0.1,-7.3 -1.9,-14.2 -7.1,-19.7 -1.8,-1.9 -3.9,-3.6 -5.9,-5.4 2,-1.8 4.1,-3.5 5.9,-5.4 5.2,-5.5 7,-12.3 7.1,-19.7 0.2,-17.6 0.1,-35.2 0.2,-52.8 0,-3.1 0.6,-6.2 1.1,-9.3 0.6,-4 3.1,-6.3 7,-6.8 h 20.8 v -22.2 h -14.3 c -11.2,-0.5 -22,1 -31.3,9 -7.6,6.6 -10.1,15.5 -10.3,25 -0.4,16.3 -0.1,32.6 -0.3,48.9 0,3.6 -0.4,7.2 -1.3,10.7 -0.1,0.3 -0.2,0.6 -0.3,0.9 -1.2,3.2 -3.2,5.3 -5.6,6.8 -1.2,0.7 -2.6,1.3 -4.1,1.7 -1.3,0.4 -2.4,0.6 -3.2,0.9 -0.8,0.1 -1.5,0.2 -2.2,0.3 H 516 v 11.8 11.8 h 8.5 c 0.7,0.1 1.4,0.1 2.2,0.3 0.8,0.3 1.8,0.6 3.2,0.9 1.5,0.4 2.9,1 4.1,1.7 2.3,1.5 4.4,3.6 5.6,6.8 0.1,0.3 0.2,0.6 0.3,0.9 0.9,3.5 1.3,7.1 1.3,10.7 0.2,16.3 -0.1,32.6 0.3,48.9 0.2,9.5 2.8,18.4 10.3,25 9.3,8.1 20.1,9.5 31.3,9 h 14.3 v -22.2 h -20.8 c -3.8,-0.1 -6.4,-2.4 -7,-6.4 z"
     id="path60" /><path
     fill="#58595b"
     d="m 1075.3,583.3 c -0.7,-0.1 -1.4,-0.1 -2.2,-0.3 -0.8,-0.3 -1.8,-0.6 -3.2,-0.9 -1.5,-0.4 -2.9,-1 -4.1,-1.7 -2.3,-1.5 -4.4,-3.6 -5.6,-6.8 -0.1,-0.3 -0.2,-0.6 -0.3,-0.9 -0.9,-3.5 -1.3,-7.1 -1.3,-10.7 -0.2,-16.3 0.1,-32.6 -0.3,-48.9 -0.2,-9.5 -2.8,-18.4 -10.3,-25 -9.3,-8.1 -20.1,-9.5 -31.3,-9 h -14.3 v 22.2 h 20.8 c 3.9,0.5 6.4,2.8 7,6.8 0.5,3.1 1.1,6.2 1.1,9.3 0.1,17.6 0,35.2 0.2,52.8 0.1,7.3 1.9,14.2 7.1,19.7 1.8,1.9 3.9,3.6 5.9,5.4 -2,1.8 -4.1,3.5 -5.9,5.4 -5.2,5.5 -7,12.3 -7.1,19.7 -0.2,17.6 -0.1,35.2 -0.2,52.8 0,3.1 -0.6,6.2 -1.1,9.3 -0.6,4 -3.1,6.3 -7,6.8 h -20.8 v 22.2 h 14.3 c 11.2,0.5 22,-1 31.3,-9 7.6,-6.6 10.1,-15.5 10.3,-25 0.4,-16.3 0.1,-32.6 0.3,-48.9 0,-3.6 0.4,-7.2 1.3,-10.7 0.1,-0.3 0.2,-0.6 0.3,-0.9 1.2,-3.2 3.2,-5.3 5.6,-6.8 1.2,-0.7 2.6,-1.3 4.1,-1.7 1.3,-0.4 2.4,-0.6 3.2,-0.9 0.8,-0.1 1.5,-0.2 2.2,-0.3 h 8.5 v -11.8 -11.8 h -8.5 z"
     id="path62" /><g
     id="g70">
		<polygon
   fill="#1dbf73"
   points="721.4,534.1 721.4,662 747.5,662 747.5,575.8 781.5,649.1 800.3,649.1 834.3,575.8 834.3,662 860.2,662 860.2,534.1 828.1,534.1 791,612.3 753.7,534.1 "
   id="polygon64" />
		<path
   fill="#1dbf73"
   d="M 935.3,534.1 H 881 V 662 h 53.2 c 40.4,0 68.3,-26.3 68.3,-64 0.1,-37.8 -27.5,-63.9 -67.2,-63.9 z m 0.8,103.6 H 910 v -79.3 h 24.9 c 21.9,0 38.4,16.3 38.4,39.8 -0.1,23.4 -15.8,39.5 -37.2,39.5 z"
   id="path66" />
		<path
   fill="#1dbf73"
   d="m 723.3,525.6 c -4,2.2 -7.9,4.7 -11.7,7.2 -7.4,5 -14.1,10.3 -19.8,15.2 -2.7,2.4 -5.2,4.6 -7.4,6.7 -1.1,0.9 -2.1,1.8 -3.1,2.7 -3.4,3 -6.6,6 -9.7,8.8 -17,15.8 -29.2,28.9 -29.2,28.9 l -16,-18 -8,-8.9 -5.7,-6.4 c 0.6,-3.1 2.9,-5.7 5.7,-7.9 1.9,-1.5 4,-2.7 6.1,-3.8 4.1,-2.1 7.7,-3.2 7.7,-3.2 l 2.7,3.2 6.8,7.9 8,9.3 c 2.9,-3 5.8,-5.9 8.6,-8.6 3.2,-3.1 6.4,-6 9.5,-8.6 2.2,-1.9 4.4,-3.8 6.6,-5.5 2.1,-1.6 4.2,-3.1 6.5,-4.6 -7.8,-3.8 -17.6,-5.9 -29,-5.9 H 597.6 V 662 h 28.9 v -36.5 h 25.4 c 32.5,0 51.2,-17.2 51.2,-47 0,-9.9 -2.3,-18.4 -6.7,-25.1 z"
   id="path68" />
	</g></g>
</g>
</svg>
