
<svg id="Layer_1" data-name="Layer 1" xmlns="http://www.w3.org/2000/svg" width="191.6" height="38" viewBox="0 0 191.6 38">
  <title>Artboard 1</title>
  <g id="g3772">
    <g id="g3770">
      <path id="path3768" d="M39.5,3.85H9.249a2.237,2.237,0,0,0-2.1,1.7l-6.1,26.6a1.3,1.3,0,0,0,1.3,1.7h30.3a2.237,2.237,0,0,0,2.1-1.7l6.1-26.55A1.355,1.355,0,0,0,39.5,3.85Z" fill="#0072c6"/>
    </g>
  </g>
  <path id="path3778" d="M24.4,19.3c-.1.3-.4.5-.9.9L9.9,30a1.868,1.868,0,0,1-2.4-.4,1.73,1.73,0,0,1,.3-2.4l12.3-8.9v-.2L12.4,9.9a1.72,1.72,0,0,1,.1-2.4,1.633,1.633,0,0,1,2.4,0l9.3,9.9A1.3,1.3,0,0,1,24.4,19.3Z" fill="#fff"/>
  <path id="path3780" d="M19.8,26.7h7.4a1.5,1.5,0,1,1,0,3H19.8a1.5,1.5,0,1,1,0-3Z" fill="#fff"/>
  <g>
    <path d="M46.336,21.018v4.316H44.369V13.43H47.98a4.788,4.788,0,0,1,3.179.954,3.329,3.329,0,0,1,1.129,2.69,3.718,3.718,0,0,1-1.179,2.84,4.478,4.478,0,0,1-3.187,1.1Zm0-5.961v4.35h1.279a2.833,2.833,0,0,0,1.934-.589,2.1,2.1,0,0,0,.664-1.66q0-2.1-2.441-2.1Z" fill="#fff"/>
    <path d="M57.285,25.533a4.215,4.215,0,0,1-3.142-1.191,4.3,4.3,0,0,1-1.174-3.158,4.481,4.481,0,0,1,1.224-3.347,4.507,4.507,0,0,1,3.3-1.2,4.082,4.082,0,0,1,3.1,1.17,4.523,4.523,0,0,1,1.112,3.247,4.455,4.455,0,0,1-1.2,3.258A4.31,4.31,0,0,1,57.285,25.533Zm.091-7.364a2.2,2.2,0,0,0-1.784.789,3.307,3.307,0,0,0-.656,2.176,3.108,3.108,0,0,0,.664,2.1,2.231,2.231,0,0,0,1.776.768,2.116,2.116,0,0,0,1.748-.756,3.34,3.34,0,0,0,.61-2.149,3.4,3.4,0,0,0-.61-2.168A2.107,2.107,0,0,0,57.376,18.169Z" fill="#fff"/>
    <path d="M75.1,16.833l-2.507,8.5H70.575l-1.544-5.761a3.613,3.613,0,0,1-.116-.747h-.034a3.431,3.431,0,0,1-.149.73l-1.677,5.778H65.08l-2.5-8.5h1.992l1.544,6.127a3.643,3.643,0,0,1,.1.73h.058a3.984,3.984,0,0,1,.133-.747l1.718-6.11h1.81l1.527,6.151a4.3,4.3,0,0,1,.108.731h.058a3.979,3.979,0,0,1,.124-.731l1.511-6.151Z" fill="#fff"/>
    <path d="M83.64,21.607H77.846a2.445,2.445,0,0,0,.727,1.818,2.7,2.7,0,0,0,1.905.639,4.2,4.2,0,0,0,2.5-.814V24.8a5.707,5.707,0,0,1-3.071.73,3.8,3.8,0,0,1-2.943-1.158A4.629,4.629,0,0,1,75.9,21.117a4.531,4.531,0,0,1,1.174-3.234,3.842,3.842,0,0,1,2.918-1.249,3.349,3.349,0,0,1,2.7,1.121,4.653,4.653,0,0,1,.954,3.113Zm-1.859-1.361a2.487,2.487,0,0,0-.49-1.616,1.638,1.638,0,0,0-1.328-.576,1.865,1.865,0,0,0-1.407.606,2.768,2.768,0,0,0-.71,1.586Z" fill="#fff"/>
    <path d="M90.405,18.667a1.6,1.6,0,0,0-1-.273,1.722,1.722,0,0,0-1.428.772,3.453,3.453,0,0,0-.573,2.1v4.067H85.475v-8.5H87.4v1.752h.034a2.966,2.966,0,0,1,.867-1.4,1.956,1.956,0,0,1,1.307-.5,1.635,1.635,0,0,1,.8.157Z" fill="#fff"/>
    <path d="M91.435,24.861V22.827a3.084,3.084,0,0,0,.651.448,4.916,4.916,0,0,0,.8.336,6.268,6.268,0,0,0,.846.212,4.522,4.522,0,0,0,.782.075,3.32,3.32,0,0,0,1.855-.416,1.364,1.364,0,0,0,.609-1.2,1.314,1.314,0,0,0-.2-.734,2.127,2.127,0,0,0-.568-.568,6.055,6.055,0,0,0-.859-.5c-.33-.158-.682-.322-1.059-.494q-.606-.324-1.129-.656a4.832,4.832,0,0,1-.909-.735,3.085,3.085,0,0,1-.606-.908,2.974,2.974,0,0,1-.22-1.188,2.743,2.743,0,0,1,.378-1.457,3.19,3.19,0,0,1,1-1.02,4.55,4.55,0,0,1,1.406-.6,6.7,6.7,0,0,1,1.611-.2,6.523,6.523,0,0,1,2.723.423v1.951a4.353,4.353,0,0,0-2.607-.73,4.614,4.614,0,0,0-.875.083,2.562,2.562,0,0,0-.78.274,1.664,1.664,0,0,0-.56.489,1.2,1.2,0,0,0-.217.722,1.383,1.383,0,0,0,.166.689,1.789,1.789,0,0,0,.486.532,4.985,4.985,0,0,0,.78.468q.462.229,1.066.494.624.324,1.176.681a5.586,5.586,0,0,1,.971.789,3.465,3.465,0,0,1,.664.959,2.8,2.8,0,0,1,.244,1.2A2.825,2.825,0,0,1,97.706,24.8a4.4,4.4,0,0,1-1.424.564,8.033,8.033,0,0,1-1.7.174,7.066,7.066,0,0,1-.734-.046q-.436-.045-.893-.133a7.691,7.691,0,0,1-.864-.211A2.7,2.7,0,0,1,91.435,24.861Z" fill="#fff"/>
    <path d="M108.575,25.334h-1.926V20.686q0-2.526-1.684-2.524a1.762,1.762,0,0,0-1.428.73,2.905,2.905,0,0,0-.581,1.868v4.574h-1.934V12.75h1.934v5.5h.033a3.042,3.042,0,0,1,2.756-1.611q2.831,0,2.83,3.462Z" fill="#fff"/>
    <path d="M118.113,21.607h-5.794a2.453,2.453,0,0,0,.727,1.818,2.7,2.7,0,0,0,1.9.639,4.2,4.2,0,0,0,2.5-.814V24.8a5.707,5.707,0,0,1-3.071.73,3.8,3.8,0,0,1-2.942-1.158,4.629,4.629,0,0,1-1.068-3.258,4.531,4.531,0,0,1,1.175-3.234,3.842,3.842,0,0,1,2.918-1.249,3.349,3.349,0,0,1,2.7,1.121,4.653,4.653,0,0,1,.954,3.113Zm-1.859-1.361a2.492,2.492,0,0,0-.489-1.616,1.639,1.639,0,0,0-1.328-.576,1.867,1.867,0,0,0-1.408.606,2.774,2.774,0,0,0-.71,1.586Z" fill="#fff"/>
    <path d="M121.882,25.334h-1.934V12.75h1.934Z" fill="#fff"/>
    <path d="M126.323,25.334H124.39V12.75h1.933Z" fill="#fff"/>
    <path d="M143.007,24.521a8.528,8.528,0,0,1-4.143,1.012,5.765,5.765,0,0,1-4.274-1.643,5.9,5.9,0,0,1-1.636-4.35A6.116,6.116,0,0,1,134.743,15a6.192,6.192,0,0,1,4.545-1.772,8.455,8.455,0,0,1,3.337.581v2.033a5.751,5.751,0,0,0-3.263-.912,4.152,4.152,0,0,0-3.116,1.253,4.468,4.468,0,0,0-1.216,3.245,4.679,4.679,0,0,0,1.045,3.226,3.612,3.612,0,0,0,2.84,1.175,4.49,4.49,0,0,0,2.125-.474V20.527h-2.508v-1.66h4.475Z" fill="#fff"/>
    <path d="M151.88,25.334h-1.867V24.006h-.034a2.812,2.812,0,0,1-2.582,1.527,2.718,2.718,0,0,1-1.962-.68,2.383,2.383,0,0,1-.709-1.8q0-2.407,2.771-2.8l2.524-.358q0-1.818-1.727-1.818a4.094,4.094,0,0,0-2.738,1.047V17.431a5.97,5.97,0,0,1,3.1-.8q3.222,0,3.221,3.171Zm-1.859-4.176-1.785.25a2.812,2.812,0,0,0-1.249.4,1.177,1.177,0,0,0-.42,1.033,1.131,1.131,0,0,0,.387.884,1.5,1.5,0,0,0,1.033.344,1.906,1.906,0,0,0,1.457-.618,2.192,2.192,0,0,0,.577-1.557Z" fill="#fff"/>
    <path d="M156.164,25.334H154.23V12.75h1.934Z" fill="#fff"/>
    <path d="M160.6,25.334h-1.933V12.75H160.6Z" fill="#fff"/>
    <path d="M170.309,21.607h-5.794a2.449,2.449,0,0,0,.726,1.818,2.7,2.7,0,0,0,1.9.639,4.2,4.2,0,0,0,2.5-.814V24.8a5.711,5.711,0,0,1-3.072.73,3.8,3.8,0,0,1-2.942-1.158,4.629,4.629,0,0,1-1.068-3.258,4.531,4.531,0,0,1,1.175-3.234,3.842,3.842,0,0,1,2.918-1.249,3.348,3.348,0,0,1,2.7,1.121,4.654,4.654,0,0,1,.955,3.113Zm-1.86-1.361a2.492,2.492,0,0,0-.489-1.616,1.638,1.638,0,0,0-1.328-.576,1.863,1.863,0,0,0-1.407.606,2.768,2.768,0,0,0-.71,1.586Z" fill="#fff"/>
    <path d="M177.073,18.667a1.6,1.6,0,0,0-1-.273,1.719,1.719,0,0,0-1.427.772,3.453,3.453,0,0,0-.573,2.1v4.067h-1.925v-8.5h1.925v1.752h.034a2.95,2.95,0,0,1,.867-1.4,1.954,1.954,0,0,1,1.306-.5,1.629,1.629,0,0,1,.8.157Z" fill="#fff"/>
    <path d="M186.479,16.833,182.644,26.7q-1.2,2.64-3.354,2.64a4.025,4.025,0,0,1-1.013-.108v-1.6a2.683,2.683,0,0,0,.83.149,1.714,1.714,0,0,0,1.611-1.062l.572-1.395-3.378-8.484h2.134l2.025,6.177q.033.115.149.614h.042q.04-.19.149-.6l2.125-6.193Z" fill="#fff"/>
  </g>
</svg>