<svg width="56" height="56" viewBox="0 0 56 56" fill="none" xmlns="http://www.w3.org/2000/svg">
  <g clip-path="url(#clip0)">
  <path d="M8.79286 56.16C10.0629 56.16 11.0329 55.74 11.5229 55.37V53.81H11.5129C10.7829 54.36 9.99286 54.76 8.90286 54.76C7.35286 54.76 6.57286 53.78 6.57286 52.53C6.57286 51.22 7.41286 50.24 8.91286 50.24C10.0229 50.24 10.7629 50.73 11.5129 51.23H11.5229V49.67C11.0129 49.27 10.0929 48.84 8.94286 48.84C6.32286 48.84 4.99286 50.6 4.99286 52.54C4.99286 54.44 6.10286 56.16 8.79286 56.16Z" fill="white"/>
  <path d="M14.8554 56H20.3354L20.3854 54.58H16.3954V49H14.8554V56Z" fill="white"/>
  <path d="M26.6253 56.16C28.9853 56.16 30.4753 54.72 30.4753 52.5C30.4753 50.28 28.9853 48.84 26.6253 48.84C24.2653 48.84 22.7753 50.28 22.7753 52.5C22.7753 54.72 24.2653 56.16 26.6253 56.16ZM26.6153 54.77C25.1653 54.77 24.3553 53.91 24.3553 52.5C24.3553 51.09 25.1853 50.23 26.6353 50.23C28.0853 50.23 28.8953 51.09 28.8953 52.5C28.8953 53.91 28.0653 54.77 26.6153 54.77Z" fill="white"/>
  <path d="M37.0408 56.16C38.9208 56.16 40.4108 55.39 40.4108 53.25V49H38.8708V53.28C38.8708 54.39 38.0008 54.74 37.0608 54.74C36.1208 54.74 35.2508 54.37 35.2508 53.23V49H33.7108V53.3C33.7108 55.38 35.1608 56.16 37.0408 56.16Z" fill="white"/>
  <path d="M44.0534 56H47.4834C49.6834 56 51.0034 54.67 51.0034 52.49C51.0034 50.3 49.6834 49 47.4834 49H44.0534V56ZM45.5934 54.61V50.39H47.4734C48.7134 50.39 49.4234 51.07 49.4234 52.51C49.4234 53.96 48.7134 54.61 47.4734 54.61H45.5934Z" fill="white"/>
  <path d="M33.2199 26.6697V8.14819L43 26.6697H33.2199Z" fill="#54BEE4"/>
  <path d="M33.2151 8.14832L23.435 26.6698H33.2151V40L13 20L33.2151 0V8.14832Z" fill="#54BEE4"/>
  </g>
  <defs>
  <clipPath id="clip0">
  <rect width="56" height="56" fill="white"/>
  </clipPath>
  </defs>
  </svg>
