<?xml version="1.0" encoding="UTF-8"?>
<!DOCTYPE svg PUBLIC "-//W3C//DTD SVG 1.1//EN" "http://www.w3.org/Graphics/SVG/1.1/DTD/svg11.dtd">
<svg xmlns="http://www.w3.org/2000/svg" version="1.1" width="580px" height="580px" style="shape-rendering:geometricPrecision; text-rendering:geometricPrecision; image-rendering:optimizeQuality; fill-rule:evenodd; clip-rule:evenodd" xmlns:xlink="http://www.w3.org/1999/xlink">
<g><path style="opacity:0.093" fill="#000000" d="M 67.5,21.5 C 214.167,21.3333 360.834,21.5 507.5,22C 534.676,26.5091 550.509,42.3424 555,69.5C 555.667,216.167 555.667,362.833 555,509.5C 550.509,536.658 534.676,552.491 507.5,557C 360.833,557.667 214.167,557.667 67.5,557C 40.3242,552.491 24.4909,536.658 20,509.5C 19.3333,362.833 19.3333,216.167 20,69.5C 24.6701,42.3303 40.5034,26.3303 67.5,21.5 Z"/></g>
<g><path style="opacity:1" fill="#fcfcfc" d="M 543.5,262.5 C 541.322,261.796 539.322,261.463 537.5,261.5C 537.167,261.833 536.833,262.167 536.5,262.5C 539.136,264.064 538.969,265.397 536,266.5C 534.159,264.841 532.992,262.841 532.5,260.5C 534.527,260.662 536.527,260.495 538.5,260C 535.202,259.45 532.202,258.95 529.5,258.5C 528.376,263.721 527.542,263.721 527,258.5C 526.755,260.663 525.755,262.33 524,263.5C 523.667,263.167 523.333,262.833 523,262.5C 520.667,263.5 518.333,264.5 516,265.5C 514.43,264.386 513.097,263.053 512,261.5C 511.374,263.991 510.541,263.991 509.5,261.5C 506.833,262.833 504.167,262.833 501.5,261.5C 501.167,261.833 500.833,262.167 500.5,262.5C 502.423,263.308 504.423,263.808 506.5,264C 503.666,264.045 501.166,264.879 499,266.5C 496.667,265.833 494.333,265.167 492,264.5C 488.712,264.658 485.212,264.658 481.5,264.5C 481.5,257.5 481.5,250.5 481.5,243.5C 404.833,243.5 328.167,243.5 251.5,243.5C 251.5,249.5 251.5,255.5 251.5,261.5C 249.38,261.93 247.38,261.93 245.5,261.5C 245.167,261.833 244.833,262.167 244.5,262.5C 246.423,263.308 248.423,263.808 250.5,264C 247.666,264.045 245.166,264.879 243,266.5C 240.931,265.736 238.764,265.236 236.5,265C 238.5,264.667 240.5,264.333 242.5,264C 241.333,263.5 240.5,262.667 240,261.5C 239.667,262.167 239.333,262.833 239,263.5C 238.161,262.376 236.994,261.709 235.5,261.5C 229.471,262.706 223.471,262.706 217.5,261.5C 217.167,261.833 216.833,262.167 216.5,262.5C 217.167,263.167 217.833,263.833 218.5,264.5C 217.01,266.376 215.343,267.043 213.5,266.5C 213.5,258.833 213.5,251.167 213.5,243.5C 172.167,243.5 130.833,243.5 89.5,243.5C 89.5,248.833 89.5,254.167 89.5,259.5C 86.513,259.348 83.8464,259.015 81.5,258.5C 80.3756,263.721 79.5423,263.721 79,258.5C 78.7547,260.663 77.7547,262.33 76,263.5C 75.6667,263.167 75.3333,262.833 75,262.5C 72.6667,263.5 70.3333,264.5 68,265.5C 66.4301,264.386 65.0968,263.053 64,261.5C 63.3741,263.991 62.5407,263.991 61.5,261.5C 58.8333,262.833 56.1667,262.833 53.5,261.5C 53.1667,261.833 52.8333,262.167 52.5,262.5C 54.4233,263.308 56.4233,263.808 58.5,264C 55.666,264.045 53.166,264.879 51,266.5C 48.9307,265.736 46.764,265.236 44.5,265C 46.5,264.667 48.5,264.333 50.5,264C 49.3333,263.5 48.5,262.667 48,261.5C 47.6667,262.167 47.3333,262.833 47,263.5C 46.1612,262.376 44.9945,261.709 43.5,261.5C 39.7886,261.966 35.7886,262.3 31.5,262.5C 31.3333,198.166 31.5,133.832 32,69.5C 36.3876,49.4455 48.5543,36.9455 68.5,32C 214.167,31.3333 359.833,31.3333 505.5,32C 526,36.5 538.5,49 543,69.5C 543.5,133.832 543.667,198.166 543.5,262.5 Z"/></g>
<g><path style="opacity:1" fill="#575757" d="M 177.5,88.5 C 201.366,88.9222 210.199,100.589 204,123.5C 200.702,127.8 197.035,131.8 193,135.5C 190.137,139.38 188.97,143.713 189.5,148.5C 182.5,147.167 175.5,147.167 168.5,148.5C 168.113,143.92 168.947,139.586 171,135.5C 175.667,129.5 180.333,123.5 185,117.5C 185.595,108.193 181.428,105.36 172.5,109C 169.368,110.635 166.368,112.468 163.5,114.5C 161.228,110.096 159.561,105.43 158.5,100.5C 159.606,97.5589 161.606,95.3922 164.5,94C 168.741,91.6512 173.075,89.8179 177.5,88.5 Z"/></g>
<g><path style="opacity:1" fill="#b6b6b6" d="M 389.5,133.5 C 340.167,133.5 290.833,133.5 241.5,133.5C 241.5,124.167 241.5,114.833 241.5,105.5C 290.833,105.5 340.167,105.5 389.5,105.5C 389.5,114.833 389.5,124.167 389.5,133.5 Z"/></g>
<g><path style="opacity:1" fill="#565656" d="M 134.5,107.5 C 135.822,110.768 136.489,114.435 136.5,118.5C 136.333,122.167 136.167,125.833 136,129.5C 129.92,133.79 123.753,137.957 117.5,142C 123.751,145.708 129.917,149.541 136,153.5C 136.667,161.833 136.667,170.167 136,178.5C 121.329,166.659 106.829,154.659 92.5,142.5C 106.519,130.81 120.519,119.144 134.5,107.5 Z"/></g>
<g><path style="opacity:1" fill="#9a9a9a" d="M 241.5,133.5 C 290.833,133.5 340.167,133.5 389.5,133.5C 389.5,149.5 389.5,165.5 389.5,181.5C 340.167,181.5 290.833,181.5 241.5,181.5C 241.5,165.5 241.5,149.5 241.5,133.5 Z"/></g>
<g><path style="opacity:1" fill="#565656" d="M 174.5,158.5 C 179.734,157.835 184.568,158.835 189,161.5C 193.585,174.926 188.751,180.426 174.5,178C 169.365,174.945 167.532,170.445 169,164.5C 170.36,161.977 172.193,159.977 174.5,158.5 Z"/></g>
<g><path style="opacity:1" fill="#b4b4b4" d="M 213.5,266.5 C 213.5,268.167 213.5,269.833 213.5,271.5C 172.167,271.5 130.833,271.5 89.5,271.5C 89.5,267.5 89.5,263.5 89.5,259.5C 89.5,254.167 89.5,248.833 89.5,243.5C 130.833,243.5 172.167,243.5 213.5,243.5C 213.5,251.167 213.5,258.833 213.5,266.5 Z"/></g>
<g><path style="opacity:1" fill="#b4b4b4" d="M 481.5,264.5 C 481.5,266.833 481.5,269.167 481.5,271.5C 404.833,271.5 328.167,271.5 251.5,271.5C 251.5,268.167 251.5,264.833 251.5,261.5C 251.5,255.5 251.5,249.5 251.5,243.5C 328.167,243.5 404.833,243.5 481.5,243.5C 481.5,250.5 481.5,257.5 481.5,264.5 Z"/></g>
<g><path style="opacity:1" fill="#f6f6f6" d="M 89.5,259.5 C 89.5,263.5 89.5,267.5 89.5,271.5C 89.5,287.5 89.5,303.5 89.5,319.5C 130.833,319.5 172.167,319.5 213.5,319.5C 213.5,303.5 213.5,287.5 213.5,271.5C 213.5,269.833 213.5,268.167 213.5,266.5C 215.343,267.043 217.01,266.376 218.5,264.5C 217.833,263.833 217.167,263.167 216.5,262.5C 216.833,262.167 217.167,261.833 217.5,261.5C 223.471,262.706 229.471,262.706 235.5,261.5C 236.994,261.709 238.161,262.376 239,263.5C 239.333,262.833 239.667,262.167 240,261.5C 240.5,262.667 241.333,263.5 242.5,264C 240.5,264.333 238.5,264.667 236.5,265C 238.764,265.236 240.931,265.736 243,266.5C 245.166,264.879 247.666,264.045 250.5,264C 248.423,263.808 246.423,263.308 244.5,262.5C 244.833,262.167 245.167,261.833 245.5,261.5C 247.38,261.93 249.38,261.93 251.5,261.5C 251.5,264.833 251.5,268.167 251.5,271.5C 251.5,287.5 251.5,303.5 251.5,319.5C 328.167,319.5 404.833,319.5 481.5,319.5C 481.5,303.5 481.5,287.5 481.5,271.5C 481.5,269.167 481.5,266.833 481.5,264.5C 485.212,264.658 488.712,264.658 492,264.5C 494.333,265.167 496.667,265.833 499,266.5C 501.166,264.879 503.666,264.045 506.5,264C 504.423,263.808 502.423,263.308 500.5,262.5C 500.833,262.167 501.167,261.833 501.5,261.5C 504.167,262.833 506.833,262.833 509.5,261.5C 510.541,263.991 511.374,263.991 512,261.5C 513.097,263.053 514.43,264.386 516,265.5C 518.333,264.5 520.667,263.5 523,262.5C 523.333,262.833 523.667,263.167 524,263.5C 525.755,262.33 526.755,260.663 527,258.5C 527.542,263.721 528.376,263.721 529.5,258.5C 532.202,258.95 535.202,259.45 538.5,260C 536.527,260.495 534.527,260.662 532.5,260.5C 532.992,262.841 534.159,264.841 536,266.5C 538.969,265.397 539.136,264.064 536.5,262.5C 536.833,262.167 537.167,261.833 537.5,261.5C 539.322,261.463 541.322,261.796 543.5,262.5C 543.5,342.5 543.5,422.5 543.5,502.5C 542.5,502.5 541.5,502.5 540.5,502.5C 540.307,506.449 539.807,506.449 539,502.5C 538.585,504.291 537.585,505.624 536,506.5C 535.259,505.359 534.425,505.359 533.5,506.5C 532.396,505.369 532.729,504.535 534.5,504C 531.802,502.571 529.635,503.405 528,506.5C 527.667,505.833 527.333,505.167 527,504.5C 526.161,505.624 524.994,506.291 523.5,506.5C 522.167,505.833 520.833,505.167 519.5,504.5C 518.006,504.709 516.839,505.376 516,506.5C 515.667,505.833 515.333,505.167 515,504.5C 514.333,505.833 513.333,506.833 512,507.5C 511.259,506.359 510.425,506.359 509.5,507.5C 509.167,507.167 508.833,506.833 508.5,506.5C 511.211,504.257 511.044,502.257 508,500.5C 507.02,502.059 506.187,503.726 505.5,505.5C 504.325,504.145 503.325,504.312 502.5,506C 499.805,506.254 497.305,506.421 495,506.5C 492.524,504.185 490.191,504.518 488,507.5C 486.333,507.5 484.667,507.5 483,507.5C 480.101,506.126 479.934,504.626 482.5,503C 479.666,502.955 477.166,502.121 475,500.5C 474.25,501.126 473.416,501.626 472.5,502C 475.066,503.626 474.899,505.126 472,506.5C 471.259,505.359 470.425,505.359 469.5,506.5C 468.396,505.369 468.729,504.535 470.5,504C 467.802,502.571 465.635,503.405 464,506.5C 463.667,505.833 463.333,505.167 463,504.5C 462.161,505.624 460.994,506.291 459.5,506.5C 458.167,505.833 456.833,505.167 455.5,504.5C 454.006,504.709 452.839,505.376 452,506.5C 451.667,505.833 451.333,505.167 451,504.5C 450.333,505.833 449.333,506.833 448,507.5C 447.259,506.359 446.425,506.359 445.5,507.5C 445.167,507.167 444.833,506.833 444.5,506.5C 447.211,504.257 447.044,502.257 444,500.5C 443.02,502.059 442.187,503.726 441.5,505.5C 440.325,504.145 439.325,504.312 438.5,506C 435.805,506.254 433.305,506.421 431,506.5C 428.524,504.185 426.191,504.518 424,507.5C 422.333,507.5 420.667,507.5 419,507.5C 416.101,506.126 415.934,504.626 418.5,503C 415.666,502.955 413.166,502.121 411,500.5C 410.25,501.126 409.416,501.626 408.5,502C 411.066,503.626 410.899,505.126 408,506.5C 407.259,505.359 406.425,505.359 405.5,506.5C 404.396,505.369 404.729,504.535 406.5,504C 403.802,502.571 401.635,503.405 400,506.5C 399.667,505.833 399.333,505.167 399,504.5C 398.161,505.624 396.994,506.291 395.5,506.5C 394.167,505.833 392.833,505.167 391.5,504.5C 390.006,504.709 388.839,505.376 388,506.5C 387.667,505.833 387.333,505.167 387,504.5C 386.333,505.833 385.333,506.833 384,507.5C 383.259,506.359 382.425,506.359 381.5,507.5C 381.167,507.167 380.833,506.833 380.5,506.5C 383.211,504.257 383.044,502.257 380,500.5C 379.02,502.059 378.187,503.726 377.5,505.5C 376.325,504.145 375.325,504.312 374.5,506C 371.805,506.254 369.305,506.421 367,506.5C 364.524,504.185 362.191,504.518 360,507.5C 358.333,507.5 356.667,507.5 355,507.5C 352.101,506.126 351.934,504.626 354.5,503C 351.666,502.955 349.166,502.121 347,500.5C 346.25,501.126 345.416,501.626 344.5,502C 347.066,503.626 346.899,505.126 344,506.5C 343.259,505.359 342.425,505.359 341.5,506.5C 340.396,505.369 340.729,504.535 342.5,504C 339.802,502.571 337.635,503.405 336,506.5C 335.667,505.833 335.333,505.167 335,504.5C 334.161,505.624 332.994,506.291 331.5,506.5C 330.167,505.833 328.833,505.167 327.5,504.5C 326.006,504.709 324.839,505.376 324,506.5C 323.667,505.833 323.333,505.167 323,504.5C 322.333,505.833 321.333,506.833 320,507.5C 319.259,506.359 318.425,506.359 317.5,507.5C 317.167,507.167 316.833,506.833 316.5,506.5C 319.211,504.257 319.044,502.257 316,500.5C 315.02,502.059 314.187,503.726 313.5,505.5C 312.325,504.145 311.325,504.312 310.5,506C 307.805,506.254 305.305,506.421 303,506.5C 300.524,504.185 298.191,504.518 296,507.5C 294.333,507.5 292.667,507.5 291,507.5C 288.101,506.126 287.934,504.626 290.5,503C 287.666,502.955 285.166,502.121 283,500.5C 282.25,501.126 281.416,501.626 280.5,502C 283.066,503.626 282.899,505.126 280,506.5C 279.259,505.359 278.425,505.359 277.5,506.5C 276.396,505.369 276.729,504.535 278.5,504C 275.802,502.571 273.635,503.405 272,506.5C 271.667,505.833 271.333,505.167 271,504.5C 270.161,505.624 268.994,506.291 267.5,506.5C 266.167,505.833 264.833,505.167 263.5,504.5C 262.006,504.709 260.839,505.376 260,506.5C 259.667,505.833 259.333,505.167 259,504.5C 258.333,505.833 257.333,506.833 256,507.5C 255.259,506.359 254.425,506.359 253.5,507.5C 253.167,507.167 252.833,506.833 252.5,506.5C 255.211,504.257 255.044,502.257 252,500.5C 251.02,502.059 250.187,503.726 249.5,505.5C 248.325,504.145 247.325,504.312 246.5,506C 243.805,506.254 241.305,506.421 239,506.5C 236.524,504.185 234.191,504.518 232,507.5C 230.333,507.5 228.667,507.5 227,507.5C 224.101,506.126 223.934,504.626 226.5,503C 223.666,502.955 221.166,502.121 219,500.5C 218.25,501.126 217.416,501.626 216.5,502C 219.066,503.626 218.899,505.126 216,506.5C 215.259,505.359 214.425,505.359 213.5,506.5C 212.396,505.369 212.729,504.535 214.5,504C 211.802,502.571 209.635,503.405 208,506.5C 207.667,505.833 207.333,505.167 207,504.5C 206.161,505.624 204.994,506.291 203.5,506.5C 202.167,505.833 200.833,505.167 199.5,504.5C 198.006,504.709 196.839,505.376 196,506.5C 195.667,505.833 195.333,505.167 195,504.5C 194.333,505.833 193.333,506.833 192,507.5C 191.259,506.359 190.425,506.359 189.5,507.5C 189.167,507.167 188.833,506.833 188.5,506.5C 191.211,504.257 191.044,502.257 188,500.5C 187.02,502.059 186.187,503.726 185.5,505.5C 184.325,504.145 183.325,504.312 182.5,506C 179.805,506.254 177.305,506.421 175,506.5C 172.524,504.185 170.191,504.518 168,507.5C 166.333,507.5 164.667,507.5 163,507.5C 160.101,506.126 159.934,504.626 162.5,503C 159.666,502.955 157.166,502.121 155,500.5C 154.25,501.126 153.416,501.626 152.5,502C 155.066,503.626 154.899,505.126 152,506.5C 151.259,505.359 150.425,505.359 149.5,506.5C 148.396,505.369 148.729,504.535 150.5,504C 147.802,502.571 145.635,503.405 144,506.5C 143.667,505.833 143.333,505.167 143,504.5C 142.161,505.624 140.994,506.291 139.5,506.5C 138.167,505.833 136.833,505.167 135.5,504.5C 134.006,504.709 132.839,505.376 132,506.5C 131.667,505.833 131.333,505.167 131,504.5C 130.333,505.833 129.333,506.833 128,507.5C 127.259,506.359 126.425,506.359 125.5,507.5C 125.167,507.167 124.833,506.833 124.5,506.5C 127.211,504.257 127.044,502.257 124,500.5C 123.02,502.059 122.187,503.726 121.5,505.5C 120.325,504.145 119.325,504.312 118.5,506C 115.805,506.254 113.305,506.421 111,506.5C 108.524,504.185 106.191,504.518 104,507.5C 102.333,507.5 100.667,507.5 99,507.5C 96.1009,506.126 95.9342,504.626 98.5,503C 95.666,502.955 93.166,502.121 91,500.5C 90.2496,501.126 89.4162,501.626 88.5,502C 91.0658,503.626 90.8991,505.126 88,506.5C 87.2588,505.359 86.4255,505.359 85.5,506.5C 84.3961,505.369 84.7295,504.535 86.5,504C 83.8015,502.571 81.6349,503.405 80,506.5C 79.6667,505.833 79.3333,505.167 79,504.5C 78.1612,505.624 76.9945,506.291 75.5,506.5C 74.1667,505.833 72.8333,505.167 71.5,504.5C 70.0055,504.709 68.8388,505.376 68,506.5C 67.6667,505.833 67.3333,505.167 67,504.5C 66.3333,505.833 65.3333,506.833 64,507.5C 63.2588,506.359 62.4255,506.359 61.5,507.5C 61.1667,507.167 60.8333,506.833 60.5,506.5C 63.211,504.257 63.0443,502.257 60,500.5C 59.0201,502.059 58.1867,503.726 57.5,505.5C 56.3247,504.145 55.3247,504.312 54.5,506C 51.805,506.254 49.305,506.421 47,506.5C 44.5245,504.185 42.1911,504.518 40,507.5C 37.5465,506.888 35.0465,506.554 32.5,506.5C 31.503,425.237 31.1697,343.904 31.5,262.5C 35.7886,262.3 39.7886,261.966 43.5,261.5C 44.9945,261.709 46.1612,262.376 47,263.5C 47.3333,262.833 47.6667,262.167 48,261.5C 48.5,262.667 49.3333,263.5 50.5,264C 48.5,264.333 46.5,264.667 44.5,265C 46.764,265.236 48.9307,265.736 51,266.5C 53.166,264.879 55.666,264.045 58.5,264C 56.4233,263.808 54.4233,263.308 52.5,262.5C 52.8333,262.167 53.1667,261.833 53.5,261.5C 56.1667,262.833 58.8333,262.833 61.5,261.5C 62.5407,263.991 63.3741,263.991 64,261.5C 65.0968,263.053 66.4301,264.386 68,265.5C 70.3333,264.5 72.6667,263.5 75,262.5C 75.3333,262.833 75.6667,263.167 76,263.5C 77.7547,262.33 78.7547,260.663 79,258.5C 79.5423,263.721 80.3756,263.721 81.5,258.5C 83.8464,259.015 86.513,259.348 89.5,259.5 Z"/></g>
<g><path style="opacity:1" fill="#989898" d="M 89.5,271.5 C 130.833,271.5 172.167,271.5 213.5,271.5C 213.5,287.5 213.5,303.5 213.5,319.5C 172.167,319.5 130.833,319.5 89.5,319.5C 89.5,303.5 89.5,287.5 89.5,271.5 Z"/></g>
<g><path style="opacity:1" fill="#989898" d="M 251.5,271.5 C 328.167,271.5 404.833,271.5 481.5,271.5C 481.5,287.5 481.5,303.5 481.5,319.5C 404.833,319.5 328.167,319.5 251.5,319.5C 251.5,303.5 251.5,287.5 251.5,271.5 Z"/></g>
<g><path style="opacity:1" fill="#b2b2b2" d="M 323.5,403.5 C 257.5,403.5 191.5,403.5 125.5,403.5C 125.5,394.167 125.5,384.833 125.5,375.5C 191.5,375.5 257.5,375.5 323.5,375.5C 323.5,384.833 323.5,394.167 323.5,403.5 Z"/></g>
<g><path style="opacity:1" fill="#b2b2b2" d="M 479.5,403.5 C 440.167,403.5 400.833,403.5 361.5,403.5C 361.5,394.167 361.5,384.833 361.5,375.5C 400.833,375.5 440.167,375.5 479.5,375.5C 479.5,384.833 479.5,394.167 479.5,403.5 Z"/></g>
<g><path style="opacity:1" fill="#969696" d="M 125.5,403.5 C 191.5,403.5 257.5,403.5 323.5,403.5C 323.5,409.5 323.5,415.5 323.5,421.5C 257.5,421.5 191.5,421.5 125.5,421.5C 125.5,415.5 125.5,409.5 125.5,403.5 Z"/></g>
<g><path style="opacity:1" fill="#969696" d="M 361.5,403.5 C 400.833,403.5 440.167,403.5 479.5,403.5C 479.5,419.5 479.5,435.5 479.5,451.5C 440.167,451.5 400.833,451.5 361.5,451.5C 361.5,435.5 361.5,419.5 361.5,403.5 Z"/></g>
<g><path style="opacity:1" fill="#fd8472" d="M 125.5,421.5 C 125.5,431.5 125.5,441.5 125.5,451.5C 191.5,451.5 257.5,451.5 323.5,451.5C 323.5,441.5 323.5,431.5 323.5,421.5C 328.833,421.5 334.167,421.5 339.5,421.5C 339.5,436.833 339.5,452.167 339.5,467.5C 262.833,467.5 186.167,467.5 109.5,467.5C 109.5,452.167 109.5,436.833 109.5,421.5C 114.833,421.5 120.167,421.5 125.5,421.5 Z"/></g>
<g><path style="opacity:1" fill="#9b5145" d="M 125.5,421.5 C 191.5,421.5 257.5,421.5 323.5,421.5C 323.5,431.5 323.5,441.5 323.5,451.5C 257.5,451.5 191.5,451.5 125.5,451.5C 125.5,441.5 125.5,431.5 125.5,421.5 Z"/></g>
<g><path style="opacity:1" fill="#f2f2f2" d="M 543.5,502.5 C 539.274,523.893 526.608,537.393 505.5,543C 360.167,543.667 214.833,543.667 69.5,543C 53.5776,539.414 42.0776,530.247 35,515.5C 33.8551,512.568 33.0218,509.568 32.5,506.5C 35.0465,506.554 37.5465,506.888 40,507.5C 42.1911,504.518 44.5245,504.185 47,506.5C 49.305,506.421 51.805,506.254 54.5,506C 55.3247,504.312 56.3247,504.145 57.5,505.5C 58.1867,503.726 59.0201,502.059 60,500.5C 63.0443,502.257 63.211,504.257 60.5,506.5C 60.8333,506.833 61.1667,507.167 61.5,507.5C 62.4255,506.359 63.2588,506.359 64,507.5C 65.3333,506.833 66.3333,505.833 67,504.5C 67.3333,505.167 67.6667,505.833 68,506.5C 68.8388,505.376 70.0055,504.709 71.5,504.5C 72.8333,505.167 74.1667,505.833 75.5,506.5C 76.9945,506.291 78.1612,505.624 79,504.5C 79.3333,505.167 79.6667,505.833 80,506.5C 81.6349,503.405 83.8015,502.571 86.5,504C 84.7295,504.535 84.3961,505.369 85.5,506.5C 86.4255,505.359 87.2588,505.359 88,506.5C 90.8991,505.126 91.0658,503.626 88.5,502C 89.4162,501.626 90.2496,501.126 91,500.5C 93.166,502.121 95.666,502.955 98.5,503C 95.9342,504.626 96.1009,506.126 99,507.5C 100.667,507.5 102.333,507.5 104,507.5C 106.191,504.518 108.524,504.185 111,506.5C 113.305,506.421 115.805,506.254 118.5,506C 119.325,504.312 120.325,504.145 121.5,505.5C 122.187,503.726 123.02,502.059 124,500.5C 127.044,502.257 127.211,504.257 124.5,506.5C 124.833,506.833 125.167,507.167 125.5,507.5C 126.425,506.359 127.259,506.359 128,507.5C 129.333,506.833 130.333,505.833 131,504.5C 131.333,505.167 131.667,505.833 132,506.5C 132.839,505.376 134.006,504.709 135.5,504.5C 136.833,505.167 138.167,505.833 139.5,506.5C 140.994,506.291 142.161,505.624 143,504.5C 143.333,505.167 143.667,505.833 144,506.5C 145.635,503.405 147.802,502.571 150.5,504C 148.729,504.535 148.396,505.369 149.5,506.5C 150.425,505.359 151.259,505.359 152,506.5C 154.899,505.126 155.066,503.626 152.5,502C 153.416,501.626 154.25,501.126 155,500.5C 157.166,502.121 159.666,502.955 162.5,503C 159.934,504.626 160.101,506.126 163,507.5C 164.667,507.5 166.333,507.5 168,507.5C 170.191,504.518 172.524,504.185 175,506.5C 177.305,506.421 179.805,506.254 182.5,506C 183.325,504.312 184.325,504.145 185.5,505.5C 186.187,503.726 187.02,502.059 188,500.5C 191.044,502.257 191.211,504.257 188.5,506.5C 188.833,506.833 189.167,507.167 189.5,507.5C 190.425,506.359 191.259,506.359 192,507.5C 193.333,506.833 194.333,505.833 195,504.5C 195.333,505.167 195.667,505.833 196,506.5C 196.839,505.376 198.006,504.709 199.5,504.5C 200.833,505.167 202.167,505.833 203.5,506.5C 204.994,506.291 206.161,505.624 207,504.5C 207.333,505.167 207.667,505.833 208,506.5C 209.635,503.405 211.802,502.571 214.5,504C 212.729,504.535 212.396,505.369 213.5,506.5C 214.425,505.359 215.259,505.359 216,506.5C 218.899,505.126 219.066,503.626 216.5,502C 217.416,501.626 218.25,501.126 219,500.5C 221.166,502.121 223.666,502.955 226.5,503C 223.934,504.626 224.101,506.126 227,507.5C 228.667,507.5 230.333,507.5 232,507.5C 234.191,504.518 236.524,504.185 239,506.5C 241.305,506.421 243.805,506.254 246.5,506C 247.325,504.312 248.325,504.145 249.5,505.5C 250.187,503.726 251.02,502.059 252,500.5C 255.044,502.257 255.211,504.257 252.5,506.5C 252.833,506.833 253.167,507.167 253.5,507.5C 254.425,506.359 255.259,506.359 256,507.5C 257.333,506.833 258.333,505.833 259,504.5C 259.333,505.167 259.667,505.833 260,506.5C 260.839,505.376 262.006,504.709 263.5,504.5C 264.833,505.167 266.167,505.833 267.5,506.5C 268.994,506.291 270.161,505.624 271,504.5C 271.333,505.167 271.667,505.833 272,506.5C 273.635,503.405 275.802,502.571 278.5,504C 276.729,504.535 276.396,505.369 277.5,506.5C 278.425,505.359 279.259,505.359 280,506.5C 282.899,505.126 283.066,503.626 280.5,502C 281.416,501.626 282.25,501.126 283,500.5C 285.166,502.121 287.666,502.955 290.5,503C 287.934,504.626 288.101,506.126 291,507.5C 292.667,507.5 294.333,507.5 296,507.5C 298.191,504.518 300.524,504.185 303,506.5C 305.305,506.421 307.805,506.254 310.5,506C 311.325,504.312 312.325,504.145 313.5,505.5C 314.187,503.726 315.02,502.059 316,500.5C 319.044,502.257 319.211,504.257 316.5,506.5C 316.833,506.833 317.167,507.167 317.5,507.5C 318.425,506.359 319.259,506.359 320,507.5C 321.333,506.833 322.333,505.833 323,504.5C 323.333,505.167 323.667,505.833 324,506.5C 324.839,505.376 326.006,504.709 327.5,504.5C 328.833,505.167 330.167,505.833 331.5,506.5C 332.994,506.291 334.161,505.624 335,504.5C 335.333,505.167 335.667,505.833 336,506.5C 337.635,503.405 339.802,502.571 342.5,504C 340.729,504.535 340.396,505.369 341.5,506.5C 342.425,505.359 343.259,505.359 344,506.5C 346.899,505.126 347.066,503.626 344.5,502C 345.416,501.626 346.25,501.126 347,500.5C 349.166,502.121 351.666,502.955 354.5,503C 351.934,504.626 352.101,506.126 355,507.5C 356.667,507.5 358.333,507.5 360,507.5C 362.191,504.518 364.524,504.185 367,506.5C 369.305,506.421 371.805,506.254 374.5,506C 375.325,504.312 376.325,504.145 377.5,505.5C 378.187,503.726 379.02,502.059 380,500.5C 383.044,502.257 383.211,504.257 380.5,506.5C 380.833,506.833 381.167,507.167 381.5,507.5C 382.425,506.359 383.259,506.359 384,507.5C 385.333,506.833 386.333,505.833 387,504.5C 387.333,505.167 387.667,505.833 388,506.5C 388.839,505.376 390.006,504.709 391.5,504.5C 392.833,505.167 394.167,505.833 395.5,506.5C 396.994,506.291 398.161,505.624 399,504.5C 399.333,505.167 399.667,505.833 400,506.5C 401.635,503.405 403.802,502.571 406.5,504C 404.729,504.535 404.396,505.369 405.5,506.5C 406.425,505.359 407.259,505.359 408,506.5C 410.899,505.126 411.066,503.626 408.5,502C 409.416,501.626 410.25,501.126 411,500.5C 413.166,502.121 415.666,502.955 418.5,503C 415.934,504.626 416.101,506.126 419,507.5C 420.667,507.5 422.333,507.5 424,507.5C 426.191,504.518 428.524,504.185 431,506.5C 433.305,506.421 435.805,506.254 438.5,506C 439.325,504.312 440.325,504.145 441.5,505.5C 442.187,503.726 443.02,502.059 444,500.5C 447.044,502.257 447.211,504.257 444.5,506.5C 444.833,506.833 445.167,507.167 445.5,507.5C 446.425,506.359 447.259,506.359 448,507.5C 449.333,506.833 450.333,505.833 451,504.5C 451.333,505.167 451.667,505.833 452,506.5C 452.839,505.376 454.006,504.709 455.5,504.5C 456.833,505.167 458.167,505.833 459.5,506.5C 460.994,506.291 462.161,505.624 463,504.5C 463.333,505.167 463.667,505.833 464,506.5C 465.635,503.405 467.802,502.571 470.5,504C 468.729,504.535 468.396,505.369 469.5,506.5C 470.425,505.359 471.259,505.359 472,506.5C 474.899,505.126 475.066,503.626 472.5,502C 473.416,501.626 474.25,501.126 475,500.5C 477.166,502.121 479.666,502.955 482.5,503C 479.934,504.626 480.101,506.126 483,507.5C 484.667,507.5 486.333,507.5 488,507.5C 490.191,504.518 492.524,504.185 495,506.5C 497.305,506.421 499.805,506.254 502.5,506C 503.325,504.312 504.325,504.145 505.5,505.5C 506.187,503.726 507.02,502.059 508,500.5C 511.044,502.257 511.211,504.257 508.5,506.5C 508.833,506.833 509.167,507.167 509.5,507.5C 510.425,506.359 511.259,506.359 512,507.5C 513.333,506.833 514.333,505.833 515,504.5C 515.333,505.167 515.667,505.833 516,506.5C 516.839,505.376 518.006,504.709 519.5,504.5C 520.833,505.167 522.167,505.833 523.5,506.5C 524.994,506.291 526.161,505.624 527,504.5C 527.333,505.167 527.667,505.833 528,506.5C 529.635,503.405 531.802,502.571 534.5,504C 532.729,504.535 532.396,505.369 533.5,506.5C 534.425,505.359 535.259,505.359 536,506.5C 537.585,505.624 538.585,504.291 539,502.5C 539.807,506.449 540.307,506.449 540.5,502.5C 541.5,502.5 542.5,502.5 543.5,502.5 Z"/></g>
</svg>
