<svg fill="none" height="48" viewBox="0 0 48 48" width="48" xmlns="http://www.w3.org/2000/svg"><path d="m0 23.5914c.0207101-.0661.0357643-.1339.045-.2025.0375-.6973.045-1.4022.12-2.0995.116978-2.2601.871-4.4411 2.175-6.291.51253-.6933 1.1615-1.2744 1.907-1.7077.7455-.4332 1.57177-.7095 2.428-.8117.2488-.0308.4993-.0458.75-.045h16.185c.315 0 .315 0 .315-.3149s0-.7498 0-1.1247c0-.2325-.0675-.2849-.285-.2849h-8.9325c-.6975 0-1.395 0-2.085 0-.1875 0-.255-.0525-.255-.2475 0-1.82954 0-3.6666 0-5.49616.0367-.7958.3682-1.54949.93-2.11449.7464-.79445 1.676-1.39425 2.7075-1.74708 1.2594-.452922 2.5689-.752508 3.9-.892281 1.8197-.20776015 3.6536-.2629394 5.4825-.1649606 1.971.0365572 3.9223.3988626 5.775 1.0722416 1.271.42856 2.3944 1.20853 3.24 2.24946.68.87498 1.0161 1.96851.945 3.07426-.045.92977 0 1.86705 0 2.80432v5.18879c0 1.0197 0 2.047-.045 3.0592-.0075 1.0971-.3477 2.1661-.9757 3.0658-.6281.8996-1.5144 1.5876-2.5418 1.973-.9967.4084-2.0654.6124-3.1425.5999h-11.46c-1.2119-.0231-2.4063.291-3.45.9072-1.3351.839-2.2861 2.1696-2.6475 3.7042-.2173.7735-.3258 1.5734-.3225 2.3769v5.1962c0 .3449 0 .3374-.345.3449-1.245 0-2.49.0375-3.75 0-1.23354-.0501-2.40994-.5333-3.3225-1.3646-1.06105-.9651-1.85207-2.1901-2.295-3.5542-.448763-1.2398-.733671-2.5329-.8475-3.8465-.075-.8398-.105-1.6796-.1575-2.5119-.0097303-.0933-.0247545-.1859-.045-.2775 0-.1699 0-.3424 0-.5173z" fill="#3772a4"/><path d="m0 2.12199c.00296216.41607.129077.82195.362446 1.16647.233368.34451.563541.61223.948884.76941.38535.15718.80862.19677 1.21644.11378.40782-.08298.78194-.28483 1.07518-.58008.29324-.29526.49247-.67071.57258-1.07901s.03751-.83118-.12243-1.2153c-.15994-.384134-.43007-.71232-.77631-.943183-.34624-.230863-.75311-.35406646-1.16929-.354077-.56032.00395899-1.09634.229271-1.491147.626793-.394807.397517-.61636699.934997-.616353 1.495197z" fill="#000" transform="translate(15.2025 3.61617)"/><path d="m0 2.11074c0-.5598.222434-1.09668.61837-1.492518.39594-.395841.93294-.618222 1.49288-.618222s1.09694.222381 1.49288.618222c.39594.395838.61837.932718.61837 1.492518s-.22243 1.09668-.61837 1.49252-.93294.61822-1.49288.61822-1.09694-.22238-1.49288-.61822c-.395936-.39584-.61837-.93272-.61837-1.49252z" fill="#fff" transform="translate(15.2025 3.62742)"/><path d="m35.3494 12.0888c-.0208.066-.0358.1338-.045.2024-.0375.6973-.045 1.4022-.12 2.0995-.117 2.2601-.871 4.4411-2.175 6.291-.5119.6947-1.1605 1.2772-1.9061 1.7118-.7455.4346-1.5721.712-2.4289.8151-.2488.0308-.4993.0458-.75.045h-16.185c-.315 0-.315 0-.315.3149v1.1247c0 .2325.0675.2849.285.2849h8.9325 2.085c.1875 0 .255.0525.255.2475v5.4962c-.0368.7958-.3683 1.5495-.93 2.1144-.7465.7945-1.676 1.3943-2.7075 1.7471-1.2571.4524-2.564.7519-3.8925.8923-1.8197.2078-3.6536.263-5.48254.165-1.97098-.0366-3.92233-.3989-5.77501-1.0723-1.27096-.4285-2.39439-1.2085-3.239995-2.2494-.679967-.875-1.0161093-1.9685-.94500023-3.0743.04500003-.9298 0-1.867 0-2.8043 0-1.7321 0-3.4642 0-5.1888 0-1.0197.00000102-2.047.04500103-3.0592.0074685-1.0971.3477002-2.1661.9757442-3.0658.62804-.8996 1.51433-1.5876 2.54175-1.973.99673-.4084 2.06539-.6124 3.14251-.5999h11.45254c1.2118.0231 2.4063-.291 3.45-.9072 1.3366-.8407 2.2879-2.17433 2.6475-3.71165.2172-.77351.3258-1.5735.3225-2.37692 0-1.73209 0-3.46417 0-5.196251 0-.344917 0-.3374182.345-.3449164 1.245 0 2.49-.0374909 3.75 0 1.2335.0501833 2.4099.5333724 3.3225 1.3646674 1.061.9651 1.852 2.19011 2.295 3.55415.4474 1.24499.7298 2.54322.84 3.86156.075.8398.105 1.67956.1575 2.51186.01.0908.025.1809.045.27.005.1649.0075.3349.0075.5099z" fill="#ffda4b" transform="translate(12.6506 12.3124)"/><path d="m4.21495 2.092c-.00297-.41608-.12908-.82196-.36245-1.16647-.23337-.344514-.56354-.612239-.94889-.769415-.38534-.15717609-.80861-.1967684-1.21643-.113784-.40783.082984-.781942.284831-1.075182.580087-.293241.295256-.492475.670702-.5725855 1.079002-.08011.40831-.03750834.83118.1224345 1.21531.159943.38413.430066.71232.77631.94318.346243.23086.753103.35407 1.169293.35408.56031-.00396 1.09634-.22927 1.49114-.6268.39481-.39752.61637-.935.61636-1.49519z" fill="#000" transform="translate(28.5825 39.8999)"/><path d="m4.2225 2.11074c0 .5598-.22243 1.09668-.61837 1.49252s-.93294.61822-1.49288.61822-1.09694-.22238-1.492877-.61822c-.395936-.39584-.618373-.93272-.618373-1.49252s.222437-1.09668.618373-1.492519c.395937-.395841.932937-.618221 1.492877-.618221s1.09694.22238 1.49288.618221c.39594.395839.61837.932719.61837 1.492519z" fill="#fff" transform="translate(28.575 39.8812)"/></svg>