<svg fill="none" height="48" width="48" xmlns="http://www.w3.org/2000/svg"><path d="M0 23.591c.02-.066.036-.134.045-.202.037-.697.045-1.402.12-2.1.117-2.26.871-4.44 2.175-6.29a6.322 6.322 0 015.085-2.565H23.61c.315 0 .315 0 .315-.315v-1.125c0-.232-.068-.284-.285-.284H12.623c-.188 0-.255-.053-.255-.248V4.966c.036-.796.368-1.55.93-2.115a6.683 6.683 0 012.707-1.747 16.668 16.668 0 013.9-.892 32.843 32.843 0 015.482-.165c1.972.037 3.923.399 5.776 1.072a7.095 7.095 0 013.24 2.25 4.536 4.536 0 01.945 3.074c-.045.93 0 1.867 0 2.804v5.19c0 1.019 0 2.046-.045 3.058a5.421 5.421 0 01-3.518 5.04 8.042 8.042 0 01-3.143.599h-11.46a6.54 6.54 0 00-3.45.907 5.999 5.999 0 00-2.647 3.704 8.656 8.656 0 00-.323 2.377v5.196c0 .345 0 .338-.345.345-1.245 0-2.49.038-3.75 0A5.25 5.25 0 013.345 34.3a8.248 8.248 0 01-2.295-3.554 15.142 15.142 0 01-.848-3.847c-.075-.84-.105-1.68-.157-2.512A2.475 2.475 0 000 24.11v-.518z" fill="#3772a4"/><path d="M15.203 5.738a2.107 2.107 0 102.107-2.122 2.123 2.123 0 00-2.107 2.122z" fill="#000"/><path d="M15.203 5.738a2.11 2.11 0 114.22 0 2.11 2.11 0 01-4.22 0z" fill="#fff"/><path d="M48 24.401c-.02.066-.036.134-.045.203-.037.697-.045 1.402-.12 2.1a11.995 11.995 0 01-2.175 6.29 6.322 6.322 0 01-5.085 2.572H24.39c-.315 0-.315 0-.315.315v1.125c0 .232.068.285.285.285h11.018c.187 0 .255.052.255.247v5.496a3.209 3.209 0 01-.93 2.115 6.683 6.683 0 01-2.708 1.747 16.669 16.669 0 01-3.892.892c-1.82.208-3.654.263-5.483.165a17.877 17.877 0 01-5.775-1.072 7.095 7.095 0 01-3.24-2.25 4.536 4.536 0 01-.945-3.074c.045-.93 0-1.867 0-2.804v-5.19c0-1.019 0-2.046.045-3.058a5.42 5.42 0 013.517-5.04 8.042 8.042 0 013.143-.599h11.453a6.54 6.54 0 003.45-.907 6 6 0 002.647-3.712 8.66 8.66 0 00.323-2.377v-5.196c0-.345 0-.337.345-.345 1.245 0 2.49-.037 3.75 0a5.25 5.25 0 013.322 1.365 8.249 8.249 0 012.295 3.554 15.15 15.15 0 01.84 3.861c.075.84.105 1.68.158 2.512.01.091.025.181.045.27.005.165.007.335.007.51z" fill="#ffda4b"/><path d="M32.797 41.992a2.107 2.107 0 10-2.107 2.122 2.123 2.123 0 002.107-2.122z" fill="#000"/><path d="M32.797 41.992a2.11 2.11 0 11-4.22 0 2.11 2.11 0 014.22 0z" fill="#fff"/></svg>