<?xml version="1.0" encoding="UTF-8" standalone="no"?>
<svg
   version="1.1"
   width="668"
   height="536"
   style="clip-rule:evenodd;fill-rule:evenodd;image-rendering:optimizeQuality;shape-rendering:geometricPrecision;text-rendering:geometricPrecision"
   id="svg12"
   sodipodi:docname="roxctl.svg"
   inkscape:version="1.3.2 (091e20e, 2023-11-25)"
   xmlns:inkscape="http://www.inkscape.org/namespaces/inkscape"
   xmlns:sodipodi="http://sodipodi.sourceforge.net/DTD/sodipodi-0.dtd"
   xmlns="http://www.w3.org/2000/svg"
   xmlns:svg="http://www.w3.org/2000/svg">
  <defs
     id="defs12" />
  <sodipodi:namedview
     id="namedview12"
     pagecolor="#ffffff"
     bordercolor="#000000"
     borderopacity="0.25"
     inkscape:showpageshadow="2"
     inkscape:pageopacity="0.0"
     inkscape:pagecheckerboard="0"
     inkscape:deskcolor="#d1d1d1"
     inkscape:zoom="0.67421875"
     inkscape:cx="640"
     inkscape:cy="320.3708"
     inkscape:window-width="2560"
     inkscape:window-height="1387"
     inkscape:window-x="4352"
     inkscape:window-y="25"
     inkscape:window-maximized="1"
     inkscape:current-layer="svg12" />
  <g
     id="g1"
     transform="translate(-304.05562,-51.571263)">
    <path
       style="opacity:0.99"
       fill="#1c345d"
       d="m 717.5,54.5 c 3.561,-0.1352 6.395,1.1981 8.5,4 6.167,17.8333 12.333,35.6667 18.5,53.5 -0.145,0.772 -0.478,1.439 -1,2 -71.509,37.588 -143.176,74.922 -215,112 -1.243,1.154 -2.243,2.488 -3,4 20.831,55.661 41.164,111.494 61,167.5 -24.908,0.328 -49.741,-0.006 -74.5,-1 -23.137,-63.743 -46.47,-127.41 -70,-191 -0.93,-3.35 -0.097,-6.183 2.5,-8.5 91.345,-47.004 182.345,-94.504 273,-142.5 z"
       id="path1" />
  </g>
  <g
     id="g2"
     transform="translate(-304.05562,-51.571263)">
    <path
       style="opacity:0.99"
       fill="#1c345d"
       d="m 793.5,113.5 c 4.681,-1.044 7.848,0.623 9.5,5 5.735,16.704 11.568,33.371 17.5,50 -58.72,31.111 -117.553,62.111 -176.5,93 -0.401,3.816 0.266,7.483 2,11 15.445,41.225 30.612,82.558 45.5,124 -25.991,1 -51.991,1.333 -78,1 -18.702,-52.274 -37.702,-104.441 -57,-156.5 0.691,-1.067 1.191,-2.234 1.5,-3.5 78.482,-41.49 156.982,-82.823 235.5,-124 z"
       id="path2" />
  </g>
  <g
     id="g3"
     transform="translate(-304.05562,-51.571263)">
    <path
       style="opacity:0.993"
       fill="#1c345d"
       d="m 858.5,174.5 c 3.682,-0.775 6.182,0.559 7.5,4 22.803,66.075 45.803,132.075 69,198 2.461,4.013 1.961,7.513 -1.5,10.5 -7.333,3.333 -14.667,6.667 -22,10 -64.666,0.5 -129.332,0.667 -194,0.5 -13.33,-38.489 -27.164,-76.822 -41.5,-115 -1.525,-3.22 -2.192,-6.553 -2,-10 5.585,-3.877 11.418,-7.377 17.5,-10.5 56.043,-28.686 111.71,-57.853 167,-87.5 z"
       id="path3" />
  </g>
  <g
     id="g4"
     transform="translate(-304.05562,-51.571263)">
    <path
       style="opacity:0.989"
       fill="#1c345d"
       d="m 414.5,211.5 c 1.644,-0.214 3.144,0.12 4.5,1 23.003,61.51 45.503,123.177 67.5,185 -38.387,0.657 -76.554,-0.01 -114.5,-2 -8.136,-24.741 -16.469,-49.408 -25,-74 -0.667,-1.667 -0.667,-3.333 0,-5 23.02,-34.717 45.52,-69.717 67.5,-105 z"
       id="path4" />
  </g>
  <g
     id="g5"
     transform="translate(-304.05562,-51.571263)">
    <path
       style="opacity:0.919"
       fill="#1b345d"
       d="m 625.5,455.5 c 4,0 8,0 12,0 -0.167,27.002 0,54.002 0.5,81 11.5,-10.833 23,-21.667 34.5,-32.5 5.696,-0.83 11.363,-0.663 17,0.5 -12.636,11.301 -24.969,22.968 -37,35 13.973,13.306 27.64,26.973 41,41 -5.972,1.164 -11.972,1.33 -18,0.5 -12.137,-13.138 -24.637,-25.971 -37.5,-38.5 -0.5,12.996 -0.667,25.996 -0.5,39 -4,0 -8,0 -12,0 0,-42 0,-84 0,-126 z"
       id="path5" />
  </g>
  <g
     id="g6"
     transform="translate(-304.05562,-51.571263)">
    <path
       style="opacity:0.954"
       fill="#1c345d"
       d="m 343.5,460.5 c 16.119,-1.795 29.786,3.038 41,14.5 -3.306,3.317 -6.972,6.151 -11,8.5 -11.86,-12.397 -25.193,-14.23 -40,-5.5 -8.92,9.425 -9.253,19.091 -1,29 10.082,5.696 20.749,10.029 32,13 17.489,7.145 24.323,19.978 20.5,38.5 -3.317,10.652 -10.15,18.152 -20.5,22.5 -16.127,5.534 -31.461,3.867 -46,-5 -3.183,-3.015 -6.183,-6.182 -9,-9.5 3.706,-2.876 7.539,-5.543 11.5,-8 12.213,14.679 26.713,17.513 43.5,8.5 10.667,-10.333 10.667,-20.667 0,-31 -12.886,-5.52 -25.886,-10.853 -39,-16 -11.02,-8.041 -15.186,-18.875 -12.5,-32.5 1.715,-8.707 6.215,-15.54 13.5,-20.5 5.52,-2.89 11.186,-5.057 17,-6.5 z"
       id="path6" />
  </g>
  <g
     id="g7"
     transform="translate(-304.05562,-51.571263)">
    <path
       style="opacity:0.95"
       fill="#1c345d"
       d="m 708.5,463.5 c 17.042,-0.41 34.042,0.09 51,1.5 18.135,4.441 26.302,15.941 24.5,34.5 -2.943,15.276 -12.11,24.109 -27.5,26.5 -0.457,0.414 -0.791,0.914 -1,1.5 10.918,17.501 21.585,35.167 32,53 -5.333,1.333 -10.667,1.333 -16,0 -9.955,-17.747 -20.289,-35.247 -31,-52.5 -6.325,-0.5 -12.658,-0.666 -19,-0.5 0,18 0,36 0,54 -4.333,0 -8.667,0 -13,0 0,-39.333 0,-78.667 0,-118 z m 13,12 c 9.339,-0.166 18.673,0 28,0.5 18.155,2.465 24.322,12.299 18.5,29.5 -5.238,5.702 -11.738,8.869 -19.5,9.5 -8.994,0.5 -17.994,0.666 -27,0.5 0,-13.333 0,-26.667 0,-40 z"
       id="path7" />
  </g>
  <g
     id="g8"
     transform="translate(-304.05562,-51.571263)">
    <path
       style="opacity:0.932"
       fill="#1c345d"
       d="m 412.5,481.5 c 3.667,0 7.333,0 11,0 0,7.333 0,14.667 0,22 7.667,0 15.333,0 23,0 0,3.667 0,7.333 0,11 -7.667,0 -15.333,0 -23,0 -0.396,17.371 0.104,34.705 1.5,52 2.919,5.525 7.419,7.358 13.5,5.5 2.5,-0.375 4.833,-1.208 7,-2.5 1.295,3.88 1.295,7.714 0,11.5 -8.343,3.279 -16.676,3.279 -25,0 -3.813,-2.124 -6.313,-5.291 -7.5,-9.5 -1.449,-18.945 -1.949,-37.945 -1.5,-57 -5.333,0 -10.667,0 -16,0 0,-3.667 0,-7.333 0,-11 5.667,0 11.333,0 17,0 0,-7.333 0,-14.667 0,-22 z"
       id="path8" />
  </g>
  <g
     id="g9"
     transform="translate(-304.05562,-51.571263)">
    <path
       style="opacity:0.945"
       fill="#1c345d"
       d="m 484.5,501.5 c 10.535,-1.448 20.201,0.718 29,6.5 3.416,4 5.916,8.5 7.5,13.5 0.3,20.01 0.8,40.01 1.5,60 -3.726,0.323 -7.393,-0.011 -11,-1 -0.754,-3.277 -1.254,-6.61 -1.5,-10 -6.452,8.975 -15.285,13.309 -26.5,13 -24.045,-2.097 -31.879,-14.431 -23.5,-37 7.452,-7.807 16.619,-11.974 27.5,-12.5 7.326,-0.5 14.659,-0.666 22,-0.5 -0.025,-16.703 -8.358,-23.537 -25,-20.5 -6.574,1.371 -12.407,4.204 -17.5,8.5 -2.872,-2.537 -5.372,-5.37 -7.5,-8.5 7.159,-6.582 15.492,-10.416 25,-11.5 z m 7,42 c 6,0 12,0 18,0 1.27,20.898 -8.396,30.398 -29,28.5 -7.134,-1.466 -11.134,-5.8 -12,-13 1.151,-5.818 4.485,-9.818 10,-12 4.419,-1.352 8.752,-2.519 13,-3.5 z"
       id="path9" />
  </g>
  <g
     id="g10"
     transform="translate(-304.05562,-51.571263)">
    <path
       style="opacity:0.944"
       fill="#1c345d"
       d="m 572.5,501.5 c 10.964,-1.386 21.297,0.447 31,5.5 3.145,1.978 5.812,4.478 8,7.5 -2.395,3.361 -5.395,6.028 -9,8 -10.419,-11.206 -22.419,-13.039 -36,-5.5 -11.322,10.733 -14.489,23.566 -9.5,38.5 7.88,15.521 20.047,20.354 36.5,14.5 3.146,-2.312 6.146,-4.812 9,-7.5 2.972,1.806 5.805,3.806 8.5,6 -0.893,2.936 -2.726,5.436 -5.5,7.5 -19.508,11.266 -37.675,9.433 -54.5,-5.5 -11.336,-16.707 -12.336,-34.04 -3,-52 6.166,-8.684 14.332,-14.35 24.5,-17 z"
       id="path10" />
  </g>
  <g
     id="g11"
     transform="translate(-304.05562,-51.571263)">
    <path
       style="opacity:0.948"
       fill="#1c345d"
       d="m 831.5,501.5 c 34.654,-1.846 51.154,14.487 49.5,49 -5.33,21.328 -18.997,32.328 -41,33 -28.125,-2.457 -41.791,-17.791 -41,-46 3.022,-19.183 13.855,-31.183 32.5,-36 z m 1,11 c 18.575,-2.476 30.408,5.191 35.5,23 2.532,14.09 -1.968,25.256 -13.5,33.5 -13.735,6.236 -25.902,4.069 -36.5,-6.5 -9.987,-16.632 -8.154,-31.799 5.5,-45.5 3.092,-1.546 6.092,-3.046 9,-4.5 z"
       id="path11" />
  </g>
  <g
     id="g12"
     transform="translate(-304.05562,-51.571263)">
    <path
       style="opacity:0.946"
       fill="#1c345d"
       d="m 892.5,503.5 c 5.344,-0.166 10.677,10e-4 16,0.5 6.712,9.256 13.545,18.423 20.5,27.5 6.5,-9.167 13,-18.333 19.5,-27.5 5.033,-0.829 10.033,-0.662 15,0.5 -8.667,11.667 -17.333,23.333 -26,35 10.093,14.261 20.759,28.095 32,41.5 -5.333,0.667 -10.667,0.667 -16,0 -8.621,-10.743 -17.121,-21.576 -25.5,-32.5 -8.167,10.833 -16.333,21.667 -24.5,32.5 -5,0.667 -10,0.667 -15,0 10.348,-13.678 20.681,-27.344 31,-41 -8.842,-12.333 -17.842,-24.5 -27,-36.5 z"
       id="path12" />
  </g>
</svg>
