<svg fill="none" height="48" width="48" xmlns="http://www.w3.org/2000/svg" xmlns:xlink="http://www.w3.org/1999/xlink"><linearGradient id="b" gradientTransform="matrix(-10.1261 -17.55404 17.89127 -9.93524 23.443 46.739)" gradientUnits="userSpaceOnUse" x2="1"><stop offset="0" stop-color="#fb7655"/><stop offset=".41" stop-color="#e42b1e"/><stop offset=".99" stop-color="#900"/><stop offset="1" stop-color="#900"/></linearGradient><linearGradient id="a"><stop offset="0" stop-color="#871101"/><stop offset=".99" stop-color="#911209"/><stop offset="1" stop-color="#911209"/></linearGradient><linearGradient id="c" gradientTransform="matrix(-13.0503 -8.59875 4.72491 -23.74991 10.886 24.46)" gradientUnits="userSpaceOnUse" x2="1" xlink:href="#a"/><linearGradient id="d" gradientTransform="matrix(-13.04973 -8.59843 75.00808 -1.49593 -10.63 9.665)" gradientUnits="userSpaceOnUse" x2="1" xlink:href="#a"/><linearGradient id="e" gradientTransform="matrix(2.02317 12.9098 -8.83177 2.95736 10.559 -.18)" gradientUnits="userSpaceOnUse" x2="1"><stop offset="0" stop-color="#fff"/><stop offset=".23" stop-color="#e57252"/><stop offset=".46" stop-color="#de3b20"/><stop offset=".99" stop-color="#a60003"/><stop offset="1" stop-color="#a60003"/></linearGradient><linearGradient id="f" gradientTransform="matrix(.74537 13.1754 -13.22922 .74234 15.773 2.858)" gradientUnits="userSpaceOnUse" x2="1"><stop offset="0" stop-color="#fff"/><stop offset=".23" stop-color="#e4714e"/><stop offset=".56" stop-color="#be1a0d"/><stop offset=".99" stop-color="#a80d00"/><stop offset="1" stop-color="#a80d00"/></linearGradient><linearGradient id="g" gradientTransform="matrix(2.23154 9.44253 -13.65678 1.54292 13.395 1.144)" gradientUnits="userSpaceOnUse" x2="1"><stop offset="0" stop-color="#fff"/><stop offset=".18" stop-color="#e46342"/><stop offset=".4" stop-color="#c82410"/><stop offset=".99" stop-color="#a80d00"/><stop offset="1" stop-color="#a80d00"/></linearGradient><linearGradient id="h" gradientTransform="matrix(9.61619 -4.72108 14.0019 3.24233 -5.187 1)" gradientUnits="userSpaceOnUse" x2="1"><stop offset="0" stop-color="#fff"/><stop offset=".54" stop-color="#c81f11"/><stop offset=".99" stop-color="#bf0905"/><stop offset="1" stop-color="#bf0905"/></linearGradient><linearGradient id="i" gradientTransform="matrix(.79147 7.78052 -1.98273 3.10584 1.937 1.286)" gradientUnits="userSpaceOnUse" x2="1"><stop offset="0" stop-color="#fff"/><stop offset=".31" stop-color="#de4024"/><stop offset=".99" stop-color="#bf190b"/><stop offset="1" stop-color="#bf190b"/></linearGradient><linearGradient id="j" gradientTransform="matrix(37.20521 -37.56417 38.31177 36.47921 -25.312 17.472)" gradientUnits="userSpaceOnUse" x2="1"><stop offset="0" stop-color="#bd0012"/><stop offset=".07" stop-color="#fff"/><stop offset=".17" stop-color="#fff"/><stop offset=".27" stop-color="#c82f1c"/><stop offset=".33" stop-color="#820c01"/><stop offset=".46" stop-color="#a31601"/><stop offset=".72" stop-color="#b31301"/><stop offset=".99" stop-color="#e82609"/><stop offset="1" stop-color="#e82609"/></linearGradient><linearGradient id="k" gradientTransform="matrix(-11.20637 -2.71573 3.60811 -8.43473 12.265 15.962)" gradientUnits="userSpaceOnUse" x2="1"><stop offset="0" stop-color="#8c0c01"/><stop offset=".54" stop-color="#990c00"/><stop offset=".99" stop-color="#a80d0e"/><stop offset="1" stop-color="#a80d0e"/></linearGradient><linearGradient id="l" gradientTransform="matrix(-9.95539 -8.76114 7.9433 -10.9804 10.071 17.744)" gradientUnits="userSpaceOnUse" x2="1"><stop offset="0" stop-color="#7e110b"/><stop offset=".99" stop-color="#9e0c00"/><stop offset="1" stop-color="#9e0c00"/></linearGradient><linearGradient id="m" gradientTransform="matrix(-4.9591 -5.20543 5.16607 -4.9969 11.358 13.709)" gradientUnits="userSpaceOnUse" x2="1"><stop offset="0" stop-color="#79130d"/><stop offset=".99" stop-color="#9e120b"/><stop offset="1" stop-color="#9e120b"/></linearGradient><radialGradient id="n" cx=".5" cy=".5" gradientTransform="matrix(24.4001 0 0 12.5189 -6.588 -2.642)" gradientUnits="userSpaceOnUse" r=".5"><stop offset="0" stop-color="#a80d00"/><stop offset=".99" stop-color="#7e0e08"/><stop offset="1" stop-color="#7e0e08"/></radialGradient><radialGradient id="o" cx=".5" cy=".5" gradientTransform="matrix(32.4362 0 0 24.7927 -13.732 -6.666)" gradientUnits="userSpaceOnUse" r=".5"><stop offset="0" stop-color="#a30c00"/><stop offset=".99" stop-color="#800e08"/><stop offset="1" stop-color="#800e08"/></radialGradient><linearGradient id="p" gradientTransform="matrix(-4.04119 -13.46259 6.78185 -8.02213 .885 19.273)" gradientUnits="userSpaceOnUse" x2="1"><stop offset="0" stop-color="#8b2114"/><stop offset=".43" stop-color="#9e100a"/><stop offset=".99" stop-color="#b3100c"/><stop offset="1" stop-color="#b3100c"/></linearGradient><linearGradient id="q" gradientTransform="matrix(9.0603 3.9268 -9.5742 3.71602 9.328 .29)" gradientUnits="userSpaceOnUse" x2="1"><stop offset="0" stop-color="#b31000"/><stop offset=".44" stop-color="#910f08"/><stop offset=".99" stop-color="#791c12"/><stop offset="1" stop-color="#791c12"/></linearGradient><path d="M27.405 21.518L0 37.498l35.484-2.365L38.217 0 27.405 21.518z" fill="url(#b)" transform="translate(9.783 9.503)"/><path d="M11.357 20.669L8.307 0 0 10.771l11.357 9.898z" fill="url(#c)" transform="translate(33.968 23.942)"/><path d="M35.465 1.722L13.121 0 0 4.065z" fill="url(#d)" transform="translate(9.901 42.89)"/><path d="M6.701 17.955L12.283 0 0 2.579l6.701 15.376z" fill="url(#e)" transform="translate(3.232 29.005)"/><path d="M19.834 19.753L14.698 0 0 13.528l19.834 6.225z" fill="url(#f)" transform="translate(14.132 15.02)"/><path d="M17.763 11.142L3.869 0 0 12.281z" fill="url(#g)" transform="translate(29.072 4.156)"/><path d="M13.327.06L5.156 4.493 0 0l13.327.06z" fill="url(#h)" transform="translate(27.01 .124)"/><path d="M0 13.433l3.423-6.13L.654 0z" fill="url(#i)" transform="translate(0 24.173)"/><path d="M.47 23.942l2.786 7.76 12.106-2.667 13.821-12.612 3.9-12.165L26.944 0 16.5 3.837c-3.29 3.004-9.674 8.949-9.904 9.06-.228.115-4.215 7.515-6.127 11.046z" fill="#fff"/><path d="M8.592 8.819c7.13-6.941 16.322-11.042 19.85-7.548 3.524 3.494-.214 11.987-7.344 18.926-7.13 6.939-16.208 11.265-19.733 7.771-3.527-3.492.097-12.21 7.227-19.15z" fill="url(#j)" transform="translate(1.66 1.184)"/><path d="M0 18.012L5.538 0l18.393 5.802C17.28 11.925 9.884 17.102 0 18.012z" fill="url(#k)" transform="translate(9.933 28.94)"/><path d="M0 1.163l4.722 18.364C10.277 13.792 15.262 7.627 17.704 0L0 1.163z" fill="url(#l)" transform="translate(29.207 15.224)"/><path d="M13.897 15.124C15.787 9.524 16.222 1.492 7.312 0L0 3.965z" fill="url(#m)" transform="translate(32.967 .193)"/><path d="M0 37.525c.262 9.242 7.052 9.38 9.945 9.46L3.263 31.665z" fill="#9e1209"/><path d="M0 1.149c4.269 2.576 12.872 7.75 13.046 7.845.272.15 3.71-5.692 4.49-8.994z" fill="url(#n)" transform="translate(29.234 15.267)"/><path d="M0 0l7.404 14.025c4.377-2.33 7.806-5.171 10.945-8.214z" fill="url(#o)" transform="translate(15.464 28.94)"/><path d="M1.049.003L0 12.268c1.98 2.655 4.702 2.886 7.559 2.679C5.492 9.897 1.364-.201 1.049.003z" fill="url(#p)" transform="translate(2.185 31.68)"/><path d="M0 4.006l14.708 2.026C13.923 2.766 11.512.66 7.404 0z" fill="url(#q)" transform="translate(32.924 .183)"/></svg>