<svg fill="none" height="48" viewBox="0 0 48 48" width="48" xmlns="http://www.w3.org/2000/svg" xmlns:xlink="http://www.w3.org/1999/xlink"><linearGradient id="a" gradientTransform="matrix(-10.12610327 -17.55403619 17.89126905 -9.93523617 23.4433 46.7386)" gradientUnits="userSpaceOnUse" x2="1"><stop offset="0" stop-color="#fb7655"/><stop offset=".41" stop-color="#e42b1e"/><stop offset=".99" stop-color="#900"/><stop offset="1" stop-color="#900"/></linearGradient><linearGradient id="b"><stop offset="0" stop-color="#871101"/><stop offset=".99" stop-color="#911209"/><stop offset="1" stop-color="#911209"/></linearGradient><linearGradient id="c" gradientTransform="matrix(-13.05029362 -8.59875446 4.72491321 -23.74991149 10.8861 24.4604)" gradientUnits="userSpaceOnUse" x2="1" xlink:href="#b"/><linearGradient id="d" gradientTransform="matrix(-13.0497299 -8.59843047 75.0080817 -1.49593474 -10.6307 9.66468)" gradientUnits="userSpaceOnUse" x2="1" xlink:href="#b"/><linearGradient id="e" gradientTransform="matrix(2.02316738 12.90979802 -8.83177099 2.95735502 10.559 -.17982)" gradientUnits="userSpaceOnUse" x2="1"><stop offset="0" stop-color="#fff"/><stop offset=".23" stop-color="#e57252"/><stop offset=".46" stop-color="#de3b20"/><stop offset=".99" stop-color="#a60003"/><stop offset="1" stop-color="#a60003"/></linearGradient><linearGradient id="f" gradientTransform="matrix(.74537233 13.17540377 -13.22921842 .74234026 15.7729 2.85813)" gradientUnits="userSpaceOnUse" x2="1"><stop offset="0" stop-color="#fff"/><stop offset=".23" stop-color="#e4714e"/><stop offset=".56" stop-color="#be1a0d"/><stop offset=".99" stop-color="#a80d00"/><stop offset="1" stop-color="#a80d00"/></linearGradient><linearGradient id="g" gradientTransform="matrix(2.2315382 9.44253241 -13.6567827 1.54292356 13.3945 1.14372)" gradientUnits="userSpaceOnUse" x2="1"><stop offset="0" stop-color="#fff"/><stop offset=".18" stop-color="#e46342"/><stop offset=".4" stop-color="#c82410"/><stop offset=".99" stop-color="#a80d00"/><stop offset="1" stop-color="#a80d00"/></linearGradient><linearGradient id="h" gradientTransform="matrix(9.61618707 -4.7210779 14.00189781 3.24232964 -5.18725 1.00065)" gradientUnits="userSpaceOnUse" x2="1"><stop offset="0" stop-color="#fff"/><stop offset=".54" stop-color="#c81f11"/><stop offset=".99" stop-color="#bf0905"/><stop offset="1" stop-color="#bf0905"/></linearGradient><linearGradient id="i" gradientTransform="matrix(.79146892 7.78051518 -1.98272645 3.10584245 1.93698 1.28614)" gradientUnits="userSpaceOnUse" x2="1"><stop offset="0" stop-color="#fff"/><stop offset=".31" stop-color="#de4024"/><stop offset=".99" stop-color="#bf190b"/><stop offset="1" stop-color="#bf190b"/></linearGradient><linearGradient id="j" gradientTransform="matrix(37.20521082 -37.5641745 38.31176773 36.47921029 -25.3117 17.4724)" gradientUnits="userSpaceOnUse" x2="1"><stop offset="0" stop-color="#bd0012"/><stop offset=".07" stop-color="#fff"/><stop offset=".17" stop-color="#fff"/><stop offset=".27" stop-color="#c82f1c"/><stop offset=".33" stop-color="#820c01"/><stop offset=".46" stop-color="#a31601"/><stop offset=".72" stop-color="#b31301"/><stop offset=".99" stop-color="#e82609"/><stop offset="1" stop-color="#e82609"/></linearGradient><linearGradient id="k" gradientTransform="matrix(-11.20636815 -2.71572885 3.60811411 -8.43472696 12.2654 15.9622)" gradientUnits="userSpaceOnUse" x2="1"><stop offset="0" stop-color="#8c0c01"/><stop offset=".54" stop-color="#990c00"/><stop offset=".99" stop-color="#a80d0e"/><stop offset="1" stop-color="#a80d0e"/></linearGradient><linearGradient id="l" gradientTransform="matrix(-9.95538595 -8.7611411 7.94329822 -10.98039361 10.0714 17.7444)" gradientUnits="userSpaceOnUse" x2="1"><stop offset="0" stop-color="#7e110b"/><stop offset=".99" stop-color="#9e0c00"/><stop offset="1" stop-color="#9e0c00"/></linearGradient><linearGradient id="m" gradientTransform="matrix(-4.95910806 -5.20543349 5.16607337 -4.99689132 11.3581 13.7088)" gradientUnits="userSpaceOnUse" x2="1"><stop offset="0" stop-color="#79130d"/><stop offset=".99" stop-color="#9e120b"/><stop offset="1" stop-color="#9e120b"/></linearGradient><radialGradient id="n" cx=".5" cy=".5" gradientTransform="matrix(24.4001 0 0 12.5189 -6.58847 -2.64178)" gradientUnits="userSpaceOnUse" r=".5"><stop offset="0" stop-color="#a80d00"/><stop offset=".99" stop-color="#7e0e08"/><stop offset="1" stop-color="#7e0e08"/></radialGradient><radialGradient id="o" cx=".5" cy=".5" gradientTransform="matrix(32.4362 0 0 24.7927 -13.732 -6.66564)" gradientUnits="userSpaceOnUse" r=".5"><stop offset="0" stop-color="#a30c00"/><stop offset=".99" stop-color="#800e08"/><stop offset="1" stop-color="#800e08"/></radialGradient><linearGradient id="p" gradientTransform="matrix(-4.04119001 -13.46259036 6.78185023 -8.02213021 .884957 19.2731)" gradientUnits="userSpaceOnUse" x2="1"><stop offset="0" stop-color="#8b2114"/><stop offset=".43" stop-color="#9e100a"/><stop offset=".99" stop-color="#b3100c"/><stop offset="1" stop-color="#b3100c"/></linearGradient><linearGradient id="q" gradientTransform="matrix(9.06030546 3.92679336 -9.5742072 3.7160202 9.32751 .289465)" gradientUnits="userSpaceOnUse" x2="1"><stop offset="0" stop-color="#b31000"/><stop offset=".44" stop-color="#910f08"/><stop offset=".99" stop-color="#791c12"/><stop offset="1" stop-color="#791c12"/></linearGradient><path d="m27.4049 21.5185-27.4049 15.9783 35.4844-2.3645 2.7327-35.1323-10.8124 21.5183z" fill="url(#a)" transform="translate(9.7829 9.50322)"/><path d="m11.3574 20.669-3.04987-20.669-8.30753 10.7712 11.3574 9.898z" fill="url(#c)" transform="translate(33.9678 23.9425)"/><path d="m35.4652 1.72209-22.3439-1.72209-13.1213 4.06549z" fill="url(#d)" transform="translate(9.90131 42.8894)"/><path d="m6.70132 17.955 5.58188-17.955-12.2832 2.57861 6.70113 15.37619z" fill="url(#e)" transform="translate(3.23163 29.0045)"/><path d="m19.8343 19.7531-5.1362-19.7531-14.6981 13.5282 19.8343 6.2253z" fill="url(#f)" transform="translate(14.1315 15.0197)"/><path d="m17.7629 11.1421-13.89397-11.1421-3.86893 12.2815z" fill="url(#g)" transform="translate(29.072 4.15573)"/><path d="m13.3271.059357-8.17154 4.434203-5.15556-4.49356 13.3271.0595419z" fill="url(#h)" transform="translate(27.0102 .123703)"/><path d="m0 13.433 3.42316-6.13006-2.769111-7.30294z" fill="url(#i)" transform="translate(0 24.1731)"/><path d="m0 23.9425 2.78606 7.7595 12.10604-2.6668 13.8211-12.6124 3.9005-12.16482-6.1416-4.25798-10.4416 3.83694c-3.2898 3.00446-9.67344 8.94906-9.90357 9.06076-.22787.1142-4.21544 7.5146-6.12693 11.0448z" fill="#fff" transform="translate(.470032)"/><path d="m8.59233 8.81878c7.12997-6.94125 16.32147-11.04225 19.84877-7.54777 3.5254 3.49448-.2132 11.98659-7.3431 18.92559-7.13 6.9389-16.20755 11.2658-19.7326 7.7714-3.52731-3.4921.09699-12.2102 7.22693-19.14922z" fill="url(#j)" transform="translate(1.6604 1.18388)"/><path d="m0 18.0122 5.53823-18.0122 18.39267 5.80182c-6.6501 6.12298-14.04653 11.29928-23.9309 12.21038z" fill="url(#k)" transform="translate(9.93298 28.9401)"/><path d="m0 1.1631 4.72184 18.3642c5.55516-5.7352 10.54086-11.90095 12.98266-19.5273l-17.70431034 1.1631z" fill="url(#l)" transform="translate(29.2075 15.2242)"/><path d="m13.8966 15.1242c1.8898-5.59953 2.3258-13.63269-6.58492-15.1242l-7.31168 3.96545z" fill="url(#m)" transform="translate(32.9672 .192673)"/><path d="m0 5.86136c.26177 9.24174 7.05235 9.37954 9.94501 9.46054l-6.68173-15.3219z" fill="#9e1209" transform="translate(0 31.6639)"/><path d="m0 1.14905c4.26874 2.5762 12.8719 7.75006 13.0463 7.8451.2712.14978 3.7091-5.69235 4.4893-8.99415z" fill="url(#n)" transform="translate(29.2339 15.267)"/><path d="m0 0 7.40358 14.0253c4.37782-2.3312 7.80602-5.1715 10.94562-8.21386z" fill="url(#o)" transform="translate(15.4639 28.9401)"/><path d="m1.04896.00306003-1.04896 12.26483997c1.97928 2.6548 4.70245 2.8856 7.55857 2.6787-2.06648-5.05015-6.19473-15.148053-6.50961-14.94353997z" fill="url(#p)" transform="translate(2.1853 31.6799)"/><path d="m0 4.00576 14.7081 2.02665c-.7851-3.26593-3.1957-5.373566-7.30452-6.03241z" fill="url(#q)" transform="translate(32.9239 .183243)"/></svg>