<?xml version="1.0" encoding="UTF-8" standalone="no"?>
<!-- Copyright (c) Microsoft Corporation. All rights reserved. Licensed under the MIT license. -->

<svg xmlns:dc="http://purl.org/dc/elements/1.1/" xmlns:cc="http://creativecommons.org/ns#" xmlns:rdf="http://www.w3.org/1999/02/22-rdf-syntax-ns#" xmlns:svg="http://www.w3.org/2000/svg" xmlns="http://www.w3.org/2000/svg" xmlns:sodipodi="http://sodipodi.sourceforge.net/DTD/sodipodi-0.dtd" xmlns:inkscape="http://www.inkscape.org/namespaces/inkscape" id="svg4136" version="1.1" inkscape:version="0.91 r13725" xml:space="preserve" width="543.15625" height="743.15625" viewBox="0 0 543.15625 743.15625" sodipodi:docname="rush.svg"><title id="title4200">Rush</title><metadata id="metadata4142"><rdf:RDF><cc:Work rdf:about=""><dc:format>image/svg+xml</dc:format><dc:type rdf:resource="http://purl.org/dc/dcmitype/StillImage" /><dc:title>Rush</dc:title><cc:license rdf:resource="https://opensource.org/licenses/MIT" /><dc:creator><cc:Agent><dc:title>https://github.com/pgonzal</dc:title></cc:Agent></dc:creator><dc:rights><cc:Agent><dc:title></dc:title></cc:Agent></dc:rights><dc:description>Copyright (c) Microsoft Corporation. All rights reserved. Licensed under the MIT license.</dc:description></cc:Work></rdf:RDF></metadata><defs id="defs4140"><clipPath clipPathUnits="userSpaceOnUse" id="clipPath4152"><path d="m 0,594.525 434.525,0 L 434.525,0 0,0 0,594.525 Z" id="path4154" inkscape:connector-curvature="0" /></clipPath></defs><sodipodi:namedview pagecolor="#ffffff" bordercolor="#666666" borderopacity="1" objecttolerance="10" gridtolerance="10" guidetolerance="10" inkscape:pageopacity="0" inkscape:pageshadow="2" inkscape:window-width="1200" inkscape:window-height="1516" id="namedview4138" showgrid="false" inkscape:zoom="1.3900236" inkscape:cx="271.57812" inkscape:cy="371.57813" inkscape:window-x="-8" inkscape:window-y="-8" inkscape:window-maximized="1" inkscape:current-layer="g4144" /><g id="g4144" inkscape:groupmode="layer" inkscape:label="rush" transform="matrix(1.25,0,0,-1.25,0,743.15625)"><path d="m 13.322,583.603 407.88,0 0,-572.68 -407.88,0 0,572.68 z" style="fill:#ffffff;fill-opacity:1;fill-rule:nonzero;stroke:none" id="path4146" inkscape:connector-curvature="0" /><g id="g4148"><g id="g4150" clip-path="url(#clipPath4152)"><g id="g4156" transform="translate(369.9775,374.4111)"><path d="m 0,0 c -2.08,-21.437 -21.145,-37.131 -42.582,-35.051 -21.401,2.076 -37.085,21.082 -35.061,42.488 0.139,1.424 0.355,2.84 0.646,4.241 l 22.189,-7.91 c -0.046,-8.874 7.11,-16.106 15.984,-16.153 8.874,-0.047 16.105,7.11 16.152,15.984 0.047,8.874 -7.109,16.106 -15.983,16.152 -4.828,0.025 -9.411,-2.122 -12.483,-5.847 l -21.847,8.646 c 6.859,12.414 19.91,20.136 34.093,20.172 1.257,0 2.52,-0.061 3.789,-0.182 C -13.662,40.486 2.054,21.44 0,0 Z m -187.214,-164.419 c -2.037,-21.45 -21.076,-37.187 -42.526,-35.15 -21.449,2.037 -37.186,21.076 -35.149,42.526 1.901,20.02 18.709,35.314 38.819,35.324 2.837,0 5.665,-0.308 8.436,-0.917 l -23.618,-25.197 2.398,-3.338 c -5.274,-7.076 -3.813,-17.087 3.263,-22.361 7.076,-5.273 17.087,-3.812 22.361,3.264 0.758,1.018 1.393,2.122 1.89,3.29 l 19.951,24.188 c 3.456,-6.654 4.907,-14.168 4.175,-21.629 z m -8.741,28.539 c 0.294,-0.357 0.573,-0.723 0.854,-1.087 l -15.668,-18.995 c -1.021,3.325 -3.112,6.219 -5.948,8.234 l 15.576,17.035 c 1.888,-1.562 3.624,-3.299 5.186,-5.187 z m 12.347,24.363 c 0.465,0.071 0.944,0.162 1.448,0.288 4.012,1.241 7.853,2.979 11.433,5.174 0.221,-0.195 0.439,-0.383 0.656,-0.568 l -15.454,-18.736 c -1.74,1.996 -3.623,3.861 -5.637,5.58 l 7.554,8.262 z m -23.983,28.245 c 3.764,2.267 8.037,4.894 12.709,7.869 2.382,-3.623 5.602,-8.371 9.151,-13.197 l -4.454,-4.752 c -2.84,5.431 -7.555,9.829 -17.406,10.08 m 44.322,113.529 c -6.074,-2.13 -11.551,-5.047 -15.299,-8.756 -5.167,5.014 -9.207,8.693 -10.303,10.675 0.406,0.018 0.797,0.154 1.127,0.389 1.737,1.269 0.192,4.358 2.409,6.064 3.627,2.792 10.052,-3.705 14.231,-1.134 1.897,1.167 2.968,3.983 2.959,6.678 l 10.636,-3.792 -5.76,-10.124 z m 40.225,-2.317 c -0.001,0.052 -0.002,0.105 -0.004,0.155 l 0.059,-0.02 c -0.019,-0.045 -0.036,-0.09 -0.055,-0.135 M 2.657,37.946 c -18.926,22.91 -52.84,26.141 -75.75,7.216 -5.702,-4.71 -10.372,-10.545 -13.718,-17.141 l -12.985,5.138 c 3.915,5.543 8.402,10.659 13.388,15.264 10.924,10.174 22.923,17.025 32.92,18.797 0.665,0.117 1.253,0.504 1.626,1.067 0.804,1.121 1.687,2.183 2.642,3.179 2.024,2.223 3.936,4.322 2.104,6.392 -0.468,0.528 -1.14,0.83 -1.845,0.83 -0.05,0 -0.1,-0.001 -0.149,-0.004 -17.359,-1.058 -42.005,-9.201 -59.125,-28.882 -3.135,-3.604 -5.807,-6.934 -8.068,-10.111 l -50.585,20.018 c -2.862,3.676 -6.883,6.475 -9.257,6.687 -0.508,0.001 -1.01,-0.111 -1.47,-0.328 1.47,3.645 2.567,7.431 3.271,11.298 1.504,8.323 1.702,15.302 4.089,15.851 4.41,1.013 3.931,-1.24 4.815,1.985 1.317,4.809 -4.975,10.505 -3.14,14.641 1.047,2.434 2.35,4.751 3.886,6.909 4.462,-0.85 8.384,-1.56 12.214,-4.065 4.027,3.731 7.392,9.286 6.642,13.466 -0.773,4.306 -9.1,4.1 -7.383,11.848 1.128,5.091 8.324,6.639 12.882,6.545 2.528,-0.052 1.705,10.901 -1.314,12.638 -3.811,2.191 -37.235,13.79 -48.506,2.367 -6.302,-6.388 -9.326,-23.395 -2.13,-29.556 0.819,-0.701 1.617,-1.349 2.405,-1.972 -1.188,-0.735 -2.533,-1.18 -3.925,-1.298 -3.914,-0.394 -6.088,1.317 -7.779,-0.068 -1.714,-1.405 1.23,-3.143 -0.095,-5.432 -2.419,-4.182 -4.646,1.542 -12.591,-6.322 -3.693,-3.654 -4.616,-10.652 -8.264,-19.419 -5.862,-14.087 -11.004,-11.378 -17.752,-33.074 -1.654,-5.316 5.402,-2.703 18.49,-9.113 -6.381,-12.081 -10.515,-23.525 -8.562,-30.683 2.403,-8.812 19.469,-22.55 28.325,-30.378 0.677,-0.616 1.312,-1.277 1.901,-1.977 -24.371,-23.72 -66.832,-41.151 -123.482,-83.479 -2.669,-4.311 2.95,-11.455 5.453,-11.957 33.331,28.122 73.422,37.163 114.894,34.188 -5.47,-3.42 -10.264,-6.289 -14.212,-8.621 l 2.087,5.336 -14.236,-4.404 -65.806,-20.695 -7.853,-9.061 3.777,-10.592 11.814,-2.048 64.01,25.598 0.608,1.555 c 20.694,5.856 24.526,0.38 26.826,-5.909 l -10.149,-10.827 c -27.626,10.804 -58.78,-2.834 -69.583,-30.461 -10.803,-27.626 2.835,-58.779 30.461,-69.583 27.627,-10.802 58.78,2.835 69.583,30.461 6.419,16.413 4.377,34.931 -5.464,49.551 l 16.984,20.591 c 0.69,-0.228 1.422,-0.297 2.142,-0.202 2.417,0.387 6.011,3.094 10.118,7.141 0.788,-1.529 2.422,-2.432 4.136,-2.285 2.366,0.263 4.072,2.392 3.812,4.759 -0.078,0.802 -0.372,1.567 -0.851,2.216 7.696,-1.196 13.946,-1.448 14.463,0.3 2.123,7.171 -1.866,10.268 -6.688,12.371 2.689,3.541 5.293,7.171 7.662,10.67 8.526,7.987 14.834,15.408 15.842,19.951 2.098,9.458 -5.807,24.32 -13.374,32.868 0.551,5.682 1.217,12.199 1.852,18.692 1.486,-5.974 3.314,-11.858 5.476,-17.622 1.323,-3.784 2.691,-7.696 3.821,-11.337 0.404,-1.299 1.784,-2.026 3.082,-1.622 0.485,0.15 0.911,0.446 1.221,0.848 0.454,0.549 0.962,1.05 1.517,1.496 1.577,1.362 3.96,3.42 2.36,7.772 -6.893,18.752 -1.669,34.731 0.841,42.41 0.311,0.951 0.58,1.772 0.796,2.498 0.109,0.369 0.241,0.749 0.373,1.129 l 14.799,-5.276 c -0.633,-2.575 -1.079,-5.193 -1.33,-7.832 -2.832,-29.566 18.839,-55.828 48.405,-58.66 1.748,-0.168 3.489,-0.251 5.224,-0.251 29.703,0.055 53.737,24.178 53.681,53.88 -0.022,12.458 -4.37,24.522 -12.299,34.131 l 0,-0.001 z" style="fill:#555555;fill-opacity:1;fill-rule:nonzero;stroke:none" id="path4158" inkscape:connector-curvature="0" /></g><g id="g4160" transform="translate(369.9775,374.4111)"><path d="m 0,0 c -2.08,-21.437 -21.145,-37.131 -42.582,-35.051 -21.401,2.076 -37.085,21.082 -35.061,42.488 0.139,1.424 0.355,2.84 0.646,4.241 l 22.189,-7.91 c -0.046,-8.874 7.11,-16.106 15.984,-16.153 8.874,-0.047 16.105,7.11 16.152,15.984 0.047,8.874 -7.109,16.106 -15.983,16.152 -4.828,0.025 -9.411,-2.122 -12.483,-5.847 l -21.847,8.646 c 6.859,12.414 19.91,20.136 34.093,20.172 1.257,0 2.52,-0.061 3.789,-0.182 C -13.662,40.486 2.054,21.44 0,0 l 0,0 z m -187.214,-164.419 c -2.037,-21.45 -21.076,-37.187 -42.526,-35.15 -21.449,2.037 -37.186,21.076 -35.149,42.526 1.901,20.02 18.709,35.314 38.819,35.324 2.837,0 5.665,-0.308 8.436,-0.917 l -23.618,-25.197 2.398,-3.338 c -5.274,-7.076 -3.813,-17.087 3.263,-22.361 7.076,-5.273 17.087,-3.812 22.361,3.264 0.758,1.018 1.393,2.122 1.89,3.29 l 19.951,24.188 c 3.456,-6.654 4.907,-14.168 4.175,-21.629 l 0,0 z m -8.741,28.539 c 0.294,-0.357 0.573,-0.723 0.854,-1.087 l -15.668,-18.995 c -1.021,3.325 -3.112,6.219 -5.948,8.234 l 15.576,17.035 c 1.888,-1.562 3.624,-3.299 5.186,-5.187 l 0,0 z m 12.347,24.363 c 0.465,0.071 0.944,0.162 1.448,0.288 4.012,1.241 7.853,2.979 11.433,5.174 0.221,-0.195 0.439,-0.383 0.656,-0.568 l -15.454,-18.736 c -1.74,1.996 -3.623,3.861 -5.637,5.58 l 7.554,8.262 z m -23.983,28.245 c 3.764,2.267 8.037,4.894 12.709,7.869 2.382,-3.623 5.602,-8.371 9.151,-13.197 l -4.454,-4.752 c -2.84,5.431 -7.555,9.829 -17.406,10.08 z m 44.322,113.529 c -6.074,-2.13 -11.551,-5.047 -15.299,-8.756 -5.167,5.014 -9.207,8.693 -10.303,10.675 0.406,0.018 0.797,0.154 1.127,0.389 1.737,1.269 0.192,4.358 2.409,6.064 3.627,2.792 10.052,-3.705 14.231,-1.134 1.897,1.167 2.968,3.983 2.959,6.678 l 10.636,-3.792 -5.76,-10.124 z m 40.225,-2.317 c -0.001,0.052 -0.002,0.105 -0.004,0.155 l 0.059,-0.02 c -0.019,-0.045 -0.036,-0.09 -0.055,-0.135 z M 2.657,37.946 c -18.926,22.91 -52.84,26.141 -75.75,7.216 -5.702,-4.71 -10.372,-10.545 -13.718,-17.141 l -12.985,5.138 c 3.915,5.543 8.402,10.659 13.388,15.264 10.924,10.174 22.923,17.025 32.92,18.797 0.665,0.117 1.253,0.504 1.626,1.067 0.804,1.121 1.687,2.183 2.642,3.179 2.024,2.223 3.936,4.322 2.104,6.392 -0.468,0.528 -1.14,0.83 -1.845,0.83 -0.05,0 -0.1,-0.001 -0.149,-0.004 -17.359,-1.058 -42.005,-9.201 -59.125,-28.882 -3.135,-3.604 -5.807,-6.934 -8.068,-10.111 l -50.585,20.018 c -2.862,3.676 -6.883,6.475 -9.257,6.687 -0.508,0.001 -1.01,-0.111 -1.47,-0.328 1.47,3.645 2.567,7.431 3.271,11.298 1.504,8.323 1.702,15.302 4.089,15.851 4.41,1.013 3.931,-1.24 4.815,1.985 1.317,4.809 -4.975,10.505 -3.14,14.641 1.047,2.434 2.35,4.751 3.886,6.909 4.462,-0.85 8.384,-1.56 12.214,-4.065 4.027,3.731 7.392,9.286 6.642,13.466 -0.773,4.306 -9.1,4.1 -7.383,11.848 1.128,5.091 8.324,6.639 12.882,6.545 2.528,-0.052 1.705,10.901 -1.314,12.638 -3.811,2.191 -37.235,13.79 -48.506,2.367 -6.302,-6.388 -9.326,-23.395 -2.13,-29.556 0.819,-0.701 1.617,-1.349 2.405,-1.972 -1.188,-0.735 -2.533,-1.18 -3.925,-1.298 -3.914,-0.394 -6.088,1.317 -7.779,-0.068 -1.714,-1.405 1.23,-3.143 -0.095,-5.432 -2.419,-4.182 -4.646,1.542 -12.591,-6.322 -3.693,-3.654 -4.616,-10.652 -8.264,-19.419 -5.862,-14.087 -11.004,-11.378 -17.752,-33.074 -1.654,-5.316 5.402,-2.703 18.49,-9.113 -6.381,-12.081 -10.515,-23.525 -8.562,-30.683 2.403,-8.812 19.469,-22.55 28.325,-30.378 0.677,-0.616 1.312,-1.277 1.901,-1.977 -24.371,-23.72 -66.832,-41.151 -123.482,-83.479 -2.669,-4.311 2.95,-11.455 5.453,-11.957 33.331,28.122 73.422,37.163 114.894,34.188 -5.47,-3.42 -10.264,-6.289 -14.212,-8.621 l 2.087,5.336 -14.236,-4.404 -65.806,-20.695 -7.853,-9.061 3.777,-10.592 11.814,-2.048 64.01,25.598 0.608,1.555 c 20.694,5.856 24.526,0.38 26.826,-5.909 l -10.149,-10.827 c -27.626,10.804 -58.78,-2.834 -69.583,-30.461 -10.803,-27.626 2.835,-58.779 30.461,-69.583 27.627,-10.802 58.78,2.835 69.583,30.461 6.419,16.413 4.377,34.931 -5.464,49.551 l 16.984,20.591 c 0.69,-0.228 1.422,-0.297 2.142,-0.202 2.417,0.387 6.011,3.094 10.118,7.141 0.788,-1.529 2.422,-2.432 4.136,-2.285 2.366,0.263 4.072,2.392 3.812,4.759 -0.078,0.802 -0.372,1.567 -0.851,2.216 7.696,-1.196 13.946,-1.448 14.463,0.3 2.123,7.171 -1.866,10.268 -6.688,12.371 2.689,3.541 5.293,7.171 7.662,10.67 8.526,7.987 14.834,15.408 15.842,19.951 2.098,9.458 -5.807,24.32 -13.374,32.868 0.551,5.682 1.217,12.199 1.852,18.692 1.486,-5.974 3.314,-11.858 5.476,-17.622 1.323,-3.784 2.691,-7.696 3.821,-11.337 0.404,-1.299 1.784,-2.026 3.082,-1.622 0.485,0.15 0.911,0.446 1.221,0.848 0.454,0.549 0.962,1.05 1.517,1.496 1.577,1.362 3.96,3.42 2.36,7.772 -6.893,18.752 -1.669,34.731 0.841,42.41 0.311,0.951 0.58,1.772 0.796,2.498 0.109,0.369 0.241,0.749 0.373,1.129 l 14.799,-5.276 c -0.633,-2.575 -1.079,-5.193 -1.33,-7.832 -2.832,-29.566 18.839,-55.828 48.405,-58.66 1.748,-0.168 3.489,-0.251 5.224,-0.251 29.703,0.055 53.737,24.178 53.681,53.88 -0.022,12.458 -4.37,24.522 -12.299,34.131 l 0,-0.001 z" style="fill:none;stroke:#555555;stroke-width:1;stroke-linecap:butt;stroke-linejoin:miter;stroke-miterlimit:10;stroke-dasharray:none;stroke-opacity:1" id="path4162" inkscape:connector-curvature="0" /></g><g id="g4164" transform="translate(415.2627,594.5249)"><path d="m 0,0 -396,0 c -10.639,0 -19.263,-8.624 -19.263,-19.263 l 0,-556 c 0,-10.637 8.624,-19.262 19.263,-19.262 l 396,0 c 10.638,0 19.263,8.625 19.263,19.262 l 0,556 C 19.263,-8.624 10.638,0 0,0 m 0,-575.263 -396,0 0,556 396,0 0,-556 z" style="fill:#c95228;fill-opacity:1;fill-rule:nonzero;stroke:none" id="path4166" inkscape:connector-curvature="0" /></g><g id="g4168" transform="translate(110.8223,113.8608)"><path d="m 0,0 c -3.705,2.516 -8.101,3.815 -12.578,3.722 -6.05,0 -11.83,-2.417 -17.339,-7.251 -5.287,-4.458 -8.925,-10.562 -10.332,-17.333 l -9.792,-47.617 -17.07,0 16.98,83.058 17.07,0 -2.695,-13.261 c 8.265,9.874 18.536,14.812 30.815,14.813 3.286,-0.124 6.559,-0.487 9.793,-1.086 L 0,0 Z" style="fill:#c95228;fill-opacity:1;fill-rule:nonzero;stroke:none" id="path4170" inkscape:connector-curvature="0" /></g><g id="g4172" transform="translate(110.8223,113.8608)"><path d="m 0,0 c -3.705,2.516 -8.101,3.815 -12.578,3.722 -6.05,0 -11.83,-2.417 -17.339,-7.251 -5.287,-4.458 -8.925,-10.562 -10.332,-17.333 l -9.792,-47.617 -17.07,0 16.98,83.058 17.07,0 -2.695,-13.261 c 8.265,9.874 18.536,14.812 30.815,14.813 3.286,-0.124 6.559,-0.487 9.793,-1.086 L 0,0 Z" style="fill:none;stroke:#c95228;stroke-width:6.61299992;stroke-linecap:butt;stroke-linejoin:round;stroke-miterlimit:4;stroke-dasharray:none;stroke-opacity:1" id="path4174" inkscape:connector-curvature="0" /></g><g id="g4176" transform="translate(151.1606,128.4399)"><path d="m 0,0 -11.23,-52.968 c -0.456,-2.063 -0.697,-4.169 -0.719,-6.282 0,-8.635 5.211,-12.951 15.633,-12.951 6.652,0.08 13.111,2.25 18.462,6.204 5.898,4.136 9.446,9.073 10.646,14.812 L 43.752,0 61.72,0 44.111,-83.059 l -17.967,0 2.515,11.711 c -6.709,-8.841 -18.328,-13.261 -34.858,-13.261 -7.488,0 -13.327,1.913 -17.519,5.738 -4.193,3.826 -6.29,9.255 -6.289,16.286 0.025,2.712 0.326,5.415 0.899,8.065 L -17.968,0 0,0 Z" style="fill:#c95228;fill-opacity:1;fill-rule:nonzero;stroke:none" id="path4178" inkscape:connector-curvature="0" /></g><g id="g4180" transform="translate(151.1606,128.4399)"><path d="m 0,0 -11.23,-52.968 c -0.456,-2.063 -0.697,-4.169 -0.719,-6.282 0,-8.635 5.211,-12.951 15.633,-12.951 6.652,0.08 13.111,2.25 18.462,6.204 5.898,4.136 9.446,9.073 10.646,14.812 L 43.752,0 61.72,0 44.111,-83.059 l -17.967,0 2.515,11.711 c -6.709,-8.841 -18.328,-13.261 -34.858,-13.261 -7.488,0 -13.327,1.913 -17.519,5.738 -4.193,3.826 -6.29,9.255 -6.289,16.286 0.025,2.712 0.326,5.415 0.899,8.065 L -17.968,0 0,0 Z" style="fill:none;stroke:#c95228;stroke-width:6.61299992;stroke-linecap:butt;stroke-linejoin:round;stroke-miterlimit:4;stroke-dasharray:none;stroke-opacity:1" id="path4182" inkscape:connector-curvature="0" /></g><g id="g4184" transform="translate(215.666,50.3442)"><path d="m 0,0 8.895,13.96 c 3.017,-2.4 6.419,-4.275 10.061,-5.545 3.562,-1.506 7.366,-2.36 11.231,-2.52 5.33,0 9.731,1.241 13.206,3.722 3.35,2.245 5.317,6.05 5.211,10.082 -0.034,2.243 -1.032,4.363 -2.741,5.817 -1.827,1.706 -4.987,3.671 -9.478,5.893 l -12.667,6.049 c -3.514,1.595 -6.538,4.098 -8.76,7.252 -1.894,2.749 -2.911,6.007 -2.92,9.345 0,7.703 3.474,13.894 10.422,18.574 6.947,4.679 15.481,7.018 25.604,7.018 7.008,0 15.453,-1.913 25.335,-5.739 L 65.763,60.259 c -5.32,4.452 -12.02,6.92 -18.956,6.979 -4.08,0.108 -8.11,-0.926 -11.634,-2.985 -3.266,-1.991 -4.899,-4.615 -4.897,-7.872 -0.012,-2.351 1.005,-4.59 2.786,-6.126 1.855,-1.706 5.059,-3.619 9.612,-5.739 l 12.578,-5.894 c 3.489,-1.483 6.504,-3.898 8.714,-6.98 1.883,-2.737 2.886,-5.984 2.875,-9.306 C 66.841,13.442 63.112,6.411 55.656,1.241 48.199,-3.93 38.721,-6.515 27.222,-6.514 17.744,-6.67 8.38,-4.43 0,0" style="fill:#c95228;fill-opacity:1;fill-rule:nonzero;stroke:none" id="path4186" inkscape:connector-curvature="0" /></g><g id="g4188" transform="translate(215.666,50.3442)"><path d="m 0,0 8.895,13.96 c 3.017,-2.4 6.419,-4.275 10.061,-5.545 3.562,-1.506 7.366,-2.36 11.231,-2.52 5.33,0 9.731,1.241 13.206,3.722 3.35,2.245 5.317,6.05 5.211,10.082 -0.034,2.243 -1.032,4.363 -2.741,5.817 -1.827,1.706 -4.987,3.671 -9.478,5.893 l -12.667,6.049 c -3.514,1.595 -6.538,4.098 -8.76,7.252 -1.894,2.749 -2.911,6.007 -2.92,9.345 0,7.703 3.474,13.894 10.422,18.574 6.947,4.679 15.481,7.018 25.604,7.018 7.008,0 15.453,-1.913 25.335,-5.739 L 65.763,60.259 c -5.32,4.452 -12.02,6.92 -18.956,6.979 -4.08,0.108 -8.11,-0.926 -11.634,-2.985 -3.266,-1.991 -4.899,-4.615 -4.897,-7.872 -0.012,-2.351 1.005,-4.59 2.786,-6.126 1.855,-1.706 5.059,-3.619 9.612,-5.739 l 12.578,-5.894 c 3.489,-1.483 6.504,-3.898 8.714,-6.98 1.883,-2.737 2.886,-5.984 2.875,-9.306 C 66.841,13.442 63.112,6.411 55.656,1.241 48.199,-3.93 38.721,-6.515 27.222,-6.514 17.744,-6.67 8.38,-4.43 0,0 Z" style="fill:none;stroke:#c95228;stroke-width:6.61299992;stroke-linecap:butt;stroke-linejoin:round;stroke-miterlimit:4;stroke-dasharray:none;stroke-opacity:1" id="path4190" inkscape:connector-curvature="0" /></g><g id="g4192" transform="translate(355.457,45.3813)"><path d="m 0,0 10.691,52.193 c 0.397,1.863 0.607,3.758 0.629,5.661 0,9.565 -5.39,14.347 -16.171,14.347 -4.533,-0.093 -8.992,-1.164 -13.072,-3.14 -4.1,-1.773 -7.856,-4.253 -11.096,-7.329 L -41.686,0 l -17.428,0 23.448,117.104 16.979,0 -7.906,-43.196 c 2.935,3.05 7.142,5.597 12.623,7.639 5.207,1.991 10.731,3.029 16.306,3.063 8.504,0 15.106,-2.093 19.81,-6.282 4.701,-4.187 7.051,-10.081 7.052,-17.682 C 29.177,57.807 28.876,54.975 28.3,52.193 L 17.609,0 0,0 Z" style="fill:#c95228;fill-opacity:1;fill-rule:nonzero;stroke:none" id="path4194" inkscape:connector-curvature="0" /></g><g id="g4196" transform="translate(355.457,45.3813)"><path d="m 0,0 10.691,52.193 c 0.397,1.863 0.607,3.758 0.629,5.661 0,9.565 -5.39,14.347 -16.171,14.347 -4.533,-0.093 -8.992,-1.164 -13.072,-3.14 -4.1,-1.773 -7.856,-4.253 -11.096,-7.329 L -41.686,0 l -17.428,0 23.448,117.104 16.979,0 -7.906,-43.196 c 2.935,3.05 7.142,5.597 12.623,7.639 5.207,1.991 10.731,3.029 16.306,3.063 8.504,0 15.106,-2.093 19.81,-6.282 4.701,-4.187 7.051,-10.081 7.052,-17.682 C 29.177,57.807 28.876,54.975 28.3,52.193 L 17.609,0 0,0 Z" style="fill:none;stroke:#c95228;stroke-width:6.61299992;stroke-linecap:butt;stroke-linejoin:round;stroke-miterlimit:4;stroke-dasharray:none;stroke-opacity:1" id="path4198" inkscape:connector-curvature="0" /></g></g></g></g></svg>