<svg width="32" height="32" fill="none" xmlns="http://www.w3.org/2000/svg"><path d="M15.124 5.3a.832.832 0 111.664 0 .832.832 0 01-1.664 0zM5.2 12.834a.832.832 0 111.664 0 .832.832 0 01-1.664 0zm19.856.039a.832.832 0 111.664 0 .832.832 0 01-1.664 0zm-17.451 1.14a.76.76 0 00.386-1l-.369-.835h1.452v6.545h-2.93a10.246 10.246 0 01-.332-3.911l1.793-.799zm6.074.161v-1.929h3.458c.179 0 1.261.206 1.261 1.016 0 .672-.83.913-1.513.913h-3.206zM8.958 24.561a.832.832 0 111.664 0 .832.832 0 01-1.664 0zm12.331.039a.832.832 0 111.664 0 .832.832 0 01-1.664 0zm.257-1.887a.76.76 0 00-.9.584l-.418 1.949a10.246 10.246 0 01-8.545-.041l-.417-1.949a.758.758 0 00-.9-.583l-1.721.37c-.32-.33-.617-.68-.89-1.049h8.374c.095 0 .158-.017.158-.1v-2.966c0-.086-.063-.1-.158-.1h-2.45v-1.881h2.649a1.665 1.665 0 011.629 1.412c.105.413.336 1.757.494 2.187.157.483.8 1.447 1.482 1.447h4.323c-.29.389-.607.756-.949 1.1l-1.761-.38zm4.65-7.821c.059.591.066 1.186.022 1.779h-1.051c-.105 0-.148.069-.148.172v.483c0 1.136-.641 1.384-1.2 1.447-.535.06-1.128-.224-1.2-.551a3.616 3.616 0 00-1.671-2.808c1.03-.654 2.1-1.619 2.1-2.911a3.294 3.294 0 00-1.608-2.7 4.562 4.562 0 00-2.2-.724H8.367A10.246 10.246 0 0114.1 5.84l1.282 1.344a.76.76 0 001.073.025l1.434-1.372a10.246 10.246 0 017.015 5l-.982 2.217a.761.761 0 00.386 1l1.888.838zm2.448.036l-.033-.343 1.011-.943a.42.42 0 00-.134-.676l-1.288-.483-.1-.334.806-1.12a.42.42 0 00-.263-.636l-1.363-.222-.164-.306.573-1.257a.418.418 0 00-.382-.573l-1.383.048-.224-.264.318-1.347a.42.42 0 00-.487-.487l-1.348.315-.266-.219.049-1.381a.42.42 0 00-.572-.383l-1.257.573-.306-.164-.222-1.363a.421.421 0 00-.636-.263l-1.121.806-.333-.1-.483-1.293a.421.421 0 00-.675-.135l-.943 1.012-.343-.033-.728-1.177a.421.421 0 00-.688 0l-.728 1.177-.343.033-.943-1.012a.42.42 0 00-.675.135L12.483 3.8l-.333.1-1.12-.8a.421.421 0 00-.636.263l-.222 1.363-.306.164-1.258-.573a.42.42 0 00-.572.383l.048 1.383-.266.217-1.347-.316a.42.42 0 00-.487.487L6.3 7.819l-.218.265L4.7 8.036a.422.422 0 00-.383.573l.573 1.257-.164.306-1.363.222a.42.42 0 00-.263.636l.806 1.12-.1.334-1.293.483a.421.421 0 00-.134.676l1.011.943-.033.343-1.177.728a.421.421 0 000 .688l1.177.728.033.343-1.011.943a.421.421 0 00.134.675l1.293.483.1.334-.806 1.121a.421.421 0 00.264.636l1.363.222.164.307-.573 1.257a.42.42 0 00.383.573l1.383-.048.219.266-.317 1.348a.42.42 0 00.487.486l1.345-.319.266.218-.049 1.382a.42.42 0 00.572.382l1.257-.573.306.164.222 1.362a.421.421 0 00.636.264l1.12-.807.334.1.483 1.292a.421.421 0 00.675.134l.943-1.011.343.034.728 1.177a.422.422 0 00.688 0l.728-1.177.343-.034.943 1.011a.421.421 0 00.675-.134l.483-1.292.334-.1 1.12.807a.42.42 0 00.636-.264l.222-1.362.306-.164 1.257.573a.42.42 0 00.572-.382l-.048-1.384.265-.218 1.347.317a.419.419 0 00.487-.486l-.312-1.346.218-.266 1.383.048a.42.42 0 00.382-.573l-.573-1.257.164-.307 1.363-.222a.42.42 0 00.263-.636l-.806-1.12.1-.334 1.293-.483a.42.42 0 00.134-.675l-1.011-.943.033-.343 1.177-.728a.42.42 0 000-.688l-1.176-.728z" fill="url(#paint0_radial)"/><defs><radialGradient id="paint0_radial" cx="0" cy="0" r="1" gradientUnits="userSpaceOnUse" gradientTransform="matrix(12.12436 -7 4.2 7.27461 16 16)"><stop stop-color="#7D7D7D"/><stop offset=".267" stop-color="#7E7C7A"/><stop offset=".45" stop-color="#817871"/><stop offset=".608" stop-color="#867162"/><stop offset=".753" stop-color="#8D684C"/><stop offset=".886" stop-color="#965C30"/><stop offset="1" stop-color="#A04F12"/></radialGradient></defs></svg>