<svg width="32" height="32" viewBox="0 0 32 32" fill="none" xmlns="http://www.w3.org/2000/svg">
<path d="M15.124 5.30001C15.124 5.13545 15.1728 4.97459 15.2642 4.83777C15.3556 4.70095 15.4856 4.59431 15.6376 4.53134C15.7896 4.46837 15.9569 4.45189 16.1183 4.48399C16.2797 4.5161 16.428 4.59534 16.5443 4.71169C16.6607 4.82805 16.7399 4.9763 16.772 5.13769C16.8041 5.29908 16.7876 5.46637 16.7247 5.6184C16.6617 5.77043 16.5551 5.90037 16.4182 5.99179C16.2814 6.08321 16.1206 6.13201 15.956 6.13201C15.7353 6.13201 15.5237 6.04435 15.3677 5.88832C15.2117 5.73229 15.124 5.52067 15.124 5.30001ZM5.20001 12.834C5.20001 12.6695 5.2488 12.5086 5.34022 12.3718C5.43164 12.2349 5.56158 12.1283 5.71361 12.0653C5.86564 12.0024 6.03293 11.9859 6.19432 12.018C6.35571 12.0501 6.50396 12.1293 6.62032 12.2457C6.73668 12.3621 6.81592 12.5103 6.84802 12.6717C6.88012 12.8331 6.86365 13.0004 6.80067 13.1524C6.7377 13.3044 6.63106 13.4344 6.49424 13.5258C6.35742 13.6172 6.19656 13.666 6.03201 13.666C5.92275 13.666 5.81456 13.6445 5.71361 13.6027C5.61267 13.5609 5.52095 13.4996 5.44369 13.4223C5.36643 13.3451 5.30515 13.2533 5.26334 13.1524C5.22153 13.0515 5.20001 12.9433 5.20001 12.834ZM25.056 12.873C25.056 12.7085 25.1048 12.5476 25.1962 12.4108C25.2876 12.2739 25.4176 12.1673 25.5696 12.1043C25.7216 12.0414 25.8889 12.0249 26.0503 12.057C26.2117 12.0891 26.36 12.1683 26.4763 12.2847C26.5927 12.401 26.6719 12.5493 26.704 12.7107C26.7361 12.8721 26.7196 13.0394 26.6567 13.1914C26.5937 13.3434 26.4871 13.4734 26.3502 13.5648C26.2134 13.6562 26.0526 13.705 25.888 13.705C25.7787 13.705 25.6706 13.6835 25.5696 13.6417C25.4687 13.5999 25.377 13.5386 25.2997 13.4613C25.2224 13.3841 25.1611 13.2923 25.1193 13.1914C25.0775 13.0905 25.056 12.9823 25.056 12.873ZM7.60501 14.013C7.78843 13.9312 7.932 13.78 8.00433 13.5926C8.07666 13.4053 8.07187 13.1969 7.99101 13.013L7.62201 12.178H9.07401V18.723H6.14401C5.78233 17.4529 5.6696 16.1249 5.81201 14.812L7.60501 14.013ZM13.679 14.174V12.245H17.137C17.316 12.245 18.398 12.451 18.398 13.261C18.398 13.933 17.568 14.174 16.885 14.174H13.679ZM8.95801 24.561C8.95801 24.3965 9.0068 24.2356 9.09822 24.0988C9.18964 23.962 9.31958 23.8553 9.47161 23.7923C9.62364 23.7294 9.79093 23.7129 9.95232 23.745C10.1137 23.7771 10.262 23.8563 10.3783 23.9727C10.4947 24.0891 10.5739 24.2373 10.606 24.3987C10.6381 24.5601 10.6216 24.7274 10.5587 24.8794C10.4957 25.0314 10.3891 25.1614 10.2522 25.2528C10.1154 25.3442 9.95456 25.393 9.79001 25.393C9.68075 25.393 9.57256 25.3715 9.47161 25.3297C9.37067 25.2879 9.27895 25.2266 9.20169 25.1493C9.12443 25.0721 9.06315 24.9803 9.02134 24.8794C8.97953 24.7785 8.95801 24.6703 8.95801 24.561ZM21.289 24.6C21.289 24.4355 21.3378 24.2746 21.4292 24.1378C21.5206 24.0009 21.6506 23.8943 21.8026 23.8313C21.9546 23.7684 22.1219 23.7519 22.2833 23.784C22.4447 23.8161 22.593 23.8953 22.7093 24.0117C22.8257 24.128 22.9049 24.2763 22.937 24.4377C22.9691 24.5991 22.9526 24.7664 22.8897 24.9184C22.8267 25.0704 22.7201 25.2004 22.5832 25.2918C22.4464 25.3832 22.2856 25.432 22.121 25.432C21.9003 25.432 21.6887 25.3443 21.5327 25.1883C21.3767 25.0323 21.289 24.8207 21.289 24.6ZM21.546 22.713C21.3492 22.6712 21.1439 22.7092 20.9751 22.8187C20.8064 22.9282 20.688 23.1003 20.646 23.297L20.228 25.246C18.8847 25.8545 17.4258 26.1659 15.951 26.1588C14.4763 26.1517 13.0205 25.8264 11.683 25.205L11.266 23.256C11.2452 23.1586 11.2055 23.0663 11.149 22.9843C11.0925 22.9022 11.0204 22.8322 10.9368 22.778C10.8532 22.7239 10.7598 22.6867 10.6619 22.6687C10.5639 22.6507 10.4634 22.6522 10.366 22.673L8.64501 23.043C8.32517 22.7137 8.02784 22.3632 7.75501 21.994H16.129C16.224 21.994 16.287 21.977 16.287 21.894V18.928C16.287 18.842 16.224 18.828 16.129 18.828H13.679V16.947H16.328C16.7229 16.951 17.1035 17.0951 17.4019 17.3538C17.7003 17.6124 17.897 17.9687 17.957 18.359C18.062 18.772 18.293 20.116 18.451 20.546C18.608 21.029 19.251 21.993 19.933 21.993H24.256C23.9661 22.3817 23.649 22.7493 23.307 23.093L21.546 22.713ZM26.196 14.892C26.2549 15.4832 26.2623 16.0785 26.218 16.671H25.167C25.062 16.671 25.019 16.74 25.019 16.843V17.326C25.019 18.462 24.378 18.71 23.819 18.773C23.284 18.833 22.691 18.549 22.619 18.222C22.5804 17.6556 22.4091 17.1063 22.1188 16.6185C21.8285 16.1307 21.4274 15.718 20.948 15.414C21.978 14.76 23.048 13.795 23.048 12.503C23.0262 11.9546 22.8677 11.4204 22.5869 10.9488C22.306 10.4773 21.9118 10.0834 21.44 9.80301C20.7812 9.37644 20.0234 9.12707 19.24 9.07901H8.36701C9.86957 7.39796 11.8847 6.25947 14.1 5.84001L15.382 7.18401C15.4508 7.25621 15.5331 7.31414 15.6242 7.35449C15.7154 7.39483 15.8136 7.4168 15.9133 7.41912C16.013 7.42144 16.1121 7.40408 16.2051 7.36802C16.298 7.33197 16.383 7.27793 16.455 7.20901L17.889 5.83701C19.3512 6.11119 20.7361 6.70049 21.9475 7.56394C23.1589 8.42739 24.1678 9.54429 24.904 10.837L23.922 13.054C23.8414 13.2379 23.8368 13.4462 23.9091 13.6335C23.9814 13.8208 24.1248 13.972 24.308 14.054L26.196 14.892ZM28.644 14.928L28.611 14.585L29.622 13.642C29.6687 13.5932 29.703 13.5338 29.7219 13.4689C29.7408 13.404 29.7438 13.3355 29.7307 13.2692C29.7176 13.2029 29.6886 13.1407 29.6464 13.0879C29.6042 13.0352 29.5498 12.9933 29.488 12.966L28.2 12.483L28.1 12.149L28.906 11.029C28.9421 10.972 28.964 10.9072 28.9698 10.84C28.9756 10.7728 28.9652 10.7051 28.9394 10.6428C28.9136 10.5805 28.8733 10.5252 28.8217 10.4818C28.7701 10.4383 28.7088 10.4078 28.643 10.393L27.28 10.171L27.116 9.86501L27.689 8.60801C27.7139 8.54506 27.7232 8.47703 27.716 8.40972C27.7089 8.34241 27.6855 8.27783 27.648 8.22152C27.6104 8.1652 27.5598 8.11881 27.5004 8.08633C27.441 8.05385 27.3747 8.03624 27.307 8.03501L25.924 8.08301L25.7 7.81901L26.018 6.47201C26.0296 6.40548 26.025 6.33713 26.0046 6.27275C25.9843 6.20836 25.9487 6.14982 25.9009 6.10207C25.8532 6.05432 25.7947 6.01875 25.7303 5.99838C25.6659 5.978 25.5975 5.97342 25.531 5.98501L24.183 6.30001L23.917 6.08101L23.966 4.70001C23.9644 4.63254 23.9466 4.56645 23.9141 4.5073C23.8817 4.44815 23.8354 4.39767 23.7794 4.36013C23.7233 4.32258 23.659 4.29907 23.5919 4.29156C23.5249 4.28406 23.457 4.29278 23.394 4.31701L22.137 4.89001L21.831 4.72601L21.609 3.36301C21.5942 3.2972 21.5637 3.23592 21.5203 3.18434C21.4768 3.13275 21.4215 3.09237 21.3592 3.06659C21.2969 3.04081 21.2292 3.03039 21.162 3.0362C21.0948 3.04202 21.03 3.0639 20.973 3.10001L19.852 3.90601L19.519 3.80601L19.036 2.51301C19.0087 2.45129 18.967 2.39703 18.9144 2.35481C18.8617 2.3126 18.7997 2.28365 18.7335 2.27042C18.6674 2.25718 18.599 2.26005 18.5341 2.27877C18.4693 2.2975 18.4099 2.33153 18.361 2.37801L17.418 3.39001L17.075 3.35701L16.347 2.18001C16.3081 2.12491 16.2566 2.07996 16.1967 2.04893C16.1369 2.0179 16.0704 2.00171 16.003 2.00171C15.9356 2.00171 15.8691 2.0179 15.8093 2.04893C15.7494 2.07996 15.6979 2.12491 15.659 2.18001L14.931 3.35701L14.588 3.39001L13.645 2.37801C13.5961 2.33153 13.5367 2.2975 13.4719 2.27877C13.407 2.26005 13.3387 2.25718 13.2725 2.27042C13.2063 2.28365 13.1443 2.3126 13.0917 2.35481C13.039 2.39703 12.9973 2.45129 12.97 2.51301L12.483 3.80001L12.15 3.90001L11.03 3.10001C10.973 3.0639 10.9082 3.04202 10.841 3.0362C10.7738 3.03039 10.7061 3.04081 10.6438 3.06659C10.5815 3.09237 10.5262 3.13275 10.4828 3.18434C10.4393 3.23592 10.4088 3.2972 10.394 3.36301L10.172 4.72601L9.86601 4.89001L8.60801 4.31701C8.54503 4.29254 8.47708 4.28363 8.40992 4.29103C8.34276 4.29843 8.27838 4.32192 8.22224 4.35951C8.1661 4.3971 8.11986 4.44768 8.08744 4.50696C8.05502 4.56623 8.03737 4.63246 8.03601 4.70001L8.08401 6.08301L7.81801 6.30001L6.47101 5.98401C6.40447 5.97242 6.33613 5.977 6.27175 5.99738C6.20736 6.01775 6.14882 6.05332 6.10107 6.10107C6.05332 6.14882 6.01775 6.20736 5.99738 6.27175C5.977 6.33613 5.97242 6.40447 5.98401 6.47101L6.30001 7.81901L6.08201 8.08401L4.70001 8.03601C4.6325 8.03777 4.56641 8.0557 4.50727 8.0883C4.44814 8.1209 4.39769 8.16722 4.36017 8.22336C4.32264 8.27949 4.29914 8.34382 4.29163 8.41092C4.28412 8.47803 4.29282 8.54596 4.31701 8.60901L4.89001 9.86601L4.72601 10.172L3.36301 10.394C3.2972 10.4088 3.23592 10.4393 3.18434 10.4828C3.13275 10.5262 3.09237 10.5815 3.06659 10.6438C3.04081 10.7061 3.03039 10.7738 3.0362 10.841C3.04202 10.9082 3.0639 10.973 3.10001 11.03L3.90601 12.15L3.80601 12.484L2.51301 12.967C2.45118 12.9943 2.39686 13.0362 2.35461 13.0889C2.31237 13.1417 2.28345 13.2039 2.27031 13.2702C2.25716 13.3365 2.26018 13.405 2.2791 13.4699C2.29802 13.5348 2.33229 13.5942 2.37901 13.643L3.39001 14.586L3.35701 14.929L2.18001 15.657C2.12491 15.6959 2.07996 15.7474 2.04893 15.8073C2.0179 15.8671 2.00171 15.9336 2.00171 16.001C2.00171 16.0684 2.0179 16.1349 2.04893 16.1947C2.07996 16.2546 2.12491 16.3061 2.18001 16.345L3.35701 17.073L3.39001 17.416L2.37901 18.359C2.3325 18.4079 2.29841 18.4672 2.27962 18.532C2.26082 18.5967 2.25787 18.6651 2.271 18.7312C2.28414 18.7974 2.31297 18.8594 2.35509 18.9121C2.39721 18.9648 2.45136 19.0066 2.51301 19.034L3.80601 19.517L3.90601 19.851L3.10001 20.972C3.0639 21.0291 3.04205 21.094 3.03629 21.1612C3.03054 21.2285 3.04104 21.2962 3.06693 21.3585C3.09281 21.4209 3.13332 21.4761 3.18502 21.5195C3.23672 21.5629 3.29811 21.5933 3.36401 21.608L4.72701 21.83L4.89101 22.137L4.31801 23.394C4.29358 23.457 4.28469 23.525 4.2921 23.5922C4.29951 23.6594 4.32299 23.7239 4.36056 23.7801C4.39812 23.8363 4.44868 23.8826 4.50793 23.9151C4.56719 23.9477 4.63342 23.9655 4.70101 23.967L6.08401 23.919L6.30301 24.185L5.98601 25.533C5.97436 25.5995 5.97892 25.6678 5.99929 25.7322C6.01966 25.7966 6.05525 25.8551 6.10303 25.9027C6.15082 25.9504 6.20939 25.9859 6.2738 26.0061C6.3382 26.0264 6.40653 26.0308 6.47301 26.019L7.81801 25.7L8.08401 25.918L8.03501 27.3C8.03653 27.3675 8.05429 27.4336 8.08678 27.4927C8.11926 27.5519 8.16552 27.6023 8.22164 27.6398C8.27776 27.6773 8.34208 27.7007 8.40916 27.708C8.47624 27.7154 8.54411 27.7064 8.60701 27.682L9.86401 27.109L10.17 27.273L10.392 28.635C10.4067 28.7009 10.4371 28.7623 10.4805 28.814C10.5239 28.8657 10.5791 28.9062 10.6415 28.9321C10.7038 28.958 10.7715 28.9685 10.8388 28.9627C10.9061 28.957 10.971 28.9351 11.028 28.899L12.148 28.092L12.482 28.192L12.965 29.484C12.9924 29.5456 13.0342 29.5998 13.0869 29.6419C13.1396 29.684 13.2016 29.7129 13.2678 29.726C13.3339 29.7391 13.4023 29.7362 13.4671 29.7174C13.5318 29.6986 13.5911 29.6645 13.64 29.618L14.583 28.607L14.926 28.641L15.654 29.818C15.693 29.8729 15.7446 29.9177 15.8044 29.9486C15.8643 29.9795 15.9307 29.9956 15.998 29.9956C16.0654 29.9956 16.1317 29.9795 16.1916 29.9486C16.2514 29.9177 16.303 29.8729 16.342 29.818L17.07 28.641L17.413 28.607L18.356 29.618C18.4049 29.6645 18.4642 29.6986 18.529 29.7174C18.5937 29.7362 18.6621 29.7391 18.7282 29.726C18.7944 29.7129 18.8564 29.684 18.9091 29.6419C18.9618 29.5998 19.0036 29.5456 19.031 29.484L19.514 28.192L19.848 28.092L20.968 28.899C21.0251 28.9351 21.09 28.957 21.1572 28.9627C21.2245 28.9685 21.2922 28.958 21.3545 28.9321C21.4169 28.9062 21.4721 28.8657 21.5155 28.814C21.5589 28.7623 21.5893 28.7009 21.604 28.635L21.826 27.273L22.132 27.109L23.389 27.682C23.4519 27.7064 23.5198 27.7154 23.5868 27.708C23.6539 27.7007 23.7183 27.6773 23.7744 27.6398C23.8305 27.6023 23.8767 27.5519 23.9092 27.4927C23.9417 27.4336 23.9595 27.3675 23.961 27.3L23.913 25.916L24.178 25.698L25.525 26.015C25.5915 26.0268 25.6598 26.0224 25.7242 26.0021C25.7886 25.9819 25.8472 25.9464 25.895 25.8987C25.9428 25.8511 25.9784 25.7926 25.9987 25.7282C26.0191 25.6638 26.0236 25.5955 26.012 25.529L25.7 24.183L25.918 23.917L27.301 23.965C27.3685 23.9633 27.4346 23.9454 27.4937 23.9128C27.5529 23.8802 27.6033 23.8338 27.6407 23.7777C27.6782 23.7215 27.7016 23.6571 27.709 23.59C27.7163 23.5229 27.7074 23.455 27.683 23.392L27.11 22.135L27.274 21.828L28.637 21.606C28.7029 21.5914 28.7644 21.561 28.8161 21.5176C28.8678 21.4742 28.9083 21.4189 28.9341 21.3565C28.9599 21.2941 28.9703 21.2264 28.9644 21.1591C28.9584 21.0918 28.9363 21.0269 28.9 20.97L28.094 19.85L28.194 19.516L29.487 19.033C29.5488 19.0058 29.6031 18.9641 29.6454 18.9114C29.6877 18.8587 29.7166 18.7966 29.7297 18.7304C29.7429 18.6642 29.7399 18.5957 29.7209 18.5309C29.702 18.4661 29.6677 18.4068 29.621 18.358L28.61 17.415L28.643 17.072L29.82 16.344C29.8751 16.3051 29.9201 16.2536 29.9511 16.1937C29.9821 16.1339 29.9983 16.0674 29.9983 16C29.9983 15.9326 29.9821 15.8661 29.9511 15.8063C29.9201 15.7464 29.8751 15.6949 29.82 15.656L28.644 14.928Z" fill="url(#paint0_radial)"/>
<defs>
<radialGradient id="paint0_radial" cx="0" cy="0" r="1" gradientUnits="userSpaceOnUse" gradientTransform="translate(16.0004 15.9998) rotate(-30) scale(14 8.4)">
<stop stop-color="#7D7D7D"/>
<stop offset="0.267" stop-color="#7E7C7A"/>
<stop offset="0.45" stop-color="#817871"/>
<stop offset="0.608" stop-color="#867162"/>
<stop offset="0.753" stop-color="#8D684C"/>
<stop offset="0.886" stop-color="#965C30"/>
<stop offset="1" stop-color="#A04F12"/>
</radialGradient>
</defs>
</svg>