<svg id="Layer_1" data-name="Layer 1" xmlns="http://www.w3.org/2000/svg" viewBox="0 0 362.74 385.82"><defs><style>.cls-1{fill:#0c3555;}.cls-1,.cls-10,.cls-2,.cls-3,.cls-4,.cls-7,.cls-8{fill-rule:evenodd;}.cls-2{fill:#fff5d1;}.cls-3{fill:#fac47b;}.cls-4{fill:#fff;}.cls-5{fill:#ab2423;}.cls-5,.cls-6{stroke:#0c3555;stroke-miterlimit:10;stroke-width:3px;}.cls-6,.cls-7{fill:#a4cad3;}.cls-8{fill:#d3e7eb;}.cls-9{fill:#6998b9;}.cls-10{fill:#fee7ae;}</style></defs><path class="cls-1" d="M10.38,105.3H166.14a10.42,10.42,0,0,1,10.38,10.38V309a10.42,10.42,0,0,1-10.38,10.38H10.38A10.42,10.42,0,0,1,0,309V115.68A10.36,10.36,0,0,1,10.38,105.3Z"/><path class="cls-2" d="M10.38,112.53H166.14a3.16,3.16,0,0,1,3.15,3.15V309a3.17,3.17,0,0,1-3.15,3.16H10.38A3.18,3.18,0,0,1,7.22,309V115.68A3.17,3.17,0,0,1,10.38,112.53Z"/><path class="cls-3" d="M169.19,192.39V309a3.17,3.17,0,0,1-3.15,3.16H10.38A3.18,3.18,0,0,1,7.22,309V260.45C82.82,276.73,138.37,248.86,169.19,192.39Z"/><path class="cls-4" d="M14.65,219.45v21.27l70.1-119H17.6a2.92,2.92,0,0,0-2.85,2.85v94.92Z"/><path class="cls-1" d="M66.72,149.81h-14c-4.17,10.08-17.6,15.57-33.78,16.69v14H46.58v102H66.72V149.81ZM110,147.88c-20.14,0-32.45,12.72-32.45,33.57v69.39c0,20.86,12.31,33.57,32.45,33.57s32.45-12.71,32.45-33.57V181.45c0-20.85-12.31-33.57-32.45-33.57Zm0,18.62c7.94,0,12.31,5.29,12.31,15.16v69c0,9.87-4.37,15.16-12.31,15.16s-12.31-5.29-12.31-15.16v-69C97.65,171.79,102,166.5,110,166.5Z"/><ellipse class="cls-5" cx="207.7" cy="339.89" rx="102.83" ry="44.43"/><ellipse class="cls-6" cx="208.97" cy="324.84" rx="79.94" ry="35.14"/><path class="cls-1" d="M349.34,130.4c-41.49,56.89-95.25,119.35-105.07,182.26-3.9,25.2-54.43,15.95-71.27,4.35-34-23.43,49.74-118,100.16-160.4,14.39-12.15,27.66-18.73,32.68-19.85C325.36,132.63,348.67,133.75,349.34,130.4Z"/><path class="cls-1" d="M335.73,139.1c-7.36.56-14.61,1.12-21.86,2.23-2.23.34-4.57.78-6.8,1.23-3.24.67-8.37,3.46-11.16,5.13a124.43,124.43,0,0,0-19,13.5,509.12,509.12,0,0,0-52.53,51.64c-8.37,9.48-16.51,19.18-24.09,29.22a248.82,248.82,0,0,0-18.63,28.11c-4.91,8.81-14.72,28.44-8.81,38.48a11.56,11.56,0,0,0,3.57,3.79c7.25,5,19.29,8.26,27.88,9.59,9.26,1.45,32.23,3.24,34.24-10.15,3.57-23.19,12.83-45.5,23.87-66,11.82-22.08,26.21-43.05,41.05-63.35C314,167.88,325,153.49,335.73,139.1Z"/><path class="cls-7" d="M266.47,170.11a106.67,106.67,0,0,1,17.73,6.47,73.32,73.32,0,0,1,16.06,10.15c-.89,1.23-1.78,2.56-2.67,3.79a67.48,67.48,0,0,0-15.28-9.81,100,100,0,0,0-20-6.92c1.34-1.11,2.68-2.34,4.13-3.68Zm-20.19,19.3c-1.34,1.33-2.68,2.67-4,4.12A59.64,59.64,0,0,1,261,199.11a83.1,83.1,0,0,1,20.75,14.61c.89-1.34,1.78-2.56,2.56-3.9A89.16,89.16,0,0,0,263,194.87a63.56,63.56,0,0,0-16.73-5.46ZM223,214.28c-1.12,1.34-2.35,2.68-3.46,3.9a132.8,132.8,0,0,1,25.1,8.37A115.4,115.4,0,0,1,266,239.15l2.34-4a120.34,120.34,0,0,0-21.86-12.83,142.46,142.46,0,0,0-23.53-8ZM202,239.6c-.56.78-1.12,1.56-1.79,2.34l-1,1.34a149,149,0,0,0,17.4,8c12.49,5.13,27.33,10.37,36.47,13.27.67-1.45,1.23-2.79,1.9-4.24-9-2.9-24.09-8.25-36.7-13.38A164.37,164.37,0,0,1,202,239.6Zm-17.07,24.65c5.13,4.79,14.73,9.37,25.32,12.94,12.49,4.24,26.21,6.91,35.36,6.58-.56,1.56-1,3-1.45,4.57-9.82-.11-23.2-2.68-35.36-6.8-10.48-3.57-20.19-8.26-26.1-13.39C183.37,266.93,184.15,265.59,184.93,264.25Z"/><path class="cls-1" d="M177.35,281.76c-1,1.78-.45,5.35,0,7.36,1.56,2.23,8.48,5.36,10.82,6.25a77.12,77.12,0,0,0,24.54,5,75.32,75.32,0,0,0,11.26-.23c4.91-.44,16.95-2.23,19.41-7.25a6.28,6.28,0,0,0,.44-1.33c.23-1.34.34-2.68.45-3.91,0-.67.11-1.45.11-2.12.45-3.57,2.9-6.58,6.92-6.8a23,23,0,0,1,17.51,6.13,24.18,24.18,0,0,1,7.14,20.3c-.89,8.59-5.91,15.95-12.94,21-13.5,9.82-32,13.5-48.63,13.72-13.72.22-28.55-2-41.16-7-10.82-4.35-22.08-11.82-25.54-23.31a25.19,25.19,0,0,1-.89-9.14c1.45-15.4,6.13-26.55,23.53-29.23,2.9-.44,7.14-.67,8.7,1.79,1.34,2.23-.22,6.47-1.67,8.81Z"/><path class="cls-7" d="M171.33,278c-13.72,2.12-16.4,10.71-17.52,23-2.78,30.68,72.06,43.39,104.85,19.63,17.85-12.93,10.26-35.91-6.92-34.91-.55,0,.12,6.25-1.89,10.27-4.69,9.7-23.43,12.15-37.48,11.48-21.64-1-40.15-10-41.83-16.17C168.09,282.32,171.33,278,171.33,278Z"/><path class="cls-1" d="M164.41,299.27a4.66,4.66,0,0,1,4.46,4.69,4.6,4.6,0,0,1-4.79,4.35,4.68,4.68,0,0,1-4.47-4.69,4.54,4.54,0,0,1,4.8-4.35ZM256.76,304a4.66,4.66,0,0,1,4.46,4.68,4.6,4.6,0,0,1-4.79,4.35,4.66,4.66,0,0,1-4.46-4.68,4.58,4.58,0,0,1,4.79-4.35Zm-16.39,9a4.67,4.67,0,0,1,4.46,4.68A4.59,4.59,0,0,1,240,322a4.67,4.67,0,0,1-4.46-4.68,4.59,4.59,0,0,1,4.8-4.35Zm-20,3.9a4.67,4.67,0,0,1,4.46,4.69,4.6,4.6,0,0,1-4.79,4.35,4.66,4.66,0,0,1-4.46-4.69,4.53,4.53,0,0,1,4.79-4.35Zm-21.52-1.78a4.67,4.67,0,0,1,4.46,4.68,4.59,4.59,0,0,1-4.8,4.35,4.67,4.67,0,0,1-4.46-4.68,4.53,4.53,0,0,1,4.8-4.35Zm-19.19-6.25a4.66,4.66,0,0,1,4.46,4.69,4.6,4.6,0,0,1-4.79,4.35,4.67,4.67,0,0,1-4.47-4.69A4.62,4.62,0,0,1,179.69,308.86Z"/><path class="cls-8" d="M170.21,285.78c-2.68,21.86,58.22,29,76.85,16.39l1.78-1.23c-8.81,18.63-88.89,17.85-86.21-16.5a3.85,3.85,0,1,1,7.58,1.34Z"/><path class="cls-1" d="M272,.13A86.17,86.17,0,1,1,190.51,90.7,86.1,86.1,0,0,1,272,.13Z"/><circle class="cls-9" cx="276.6" cy="86.11" r="79.19"/><path class="cls-7" d="M272.38,7A79.14,79.14,0,0,0,198.43,73.3a79.23,79.23,0,0,0,155.82-2.9A79.24,79.24,0,0,0,272.38,7Z"/><path class="cls-1" d="M209.36,38.27c-11.71,14.61-14.83,41.16-14.28,52.2s2.68,3.46,2.9,5.13c16.4-18.07,22-13.16,30.34-8.81,8.59,4.46,10.93,20.64,33.69,22.87S312.87,75,295.69,57.57C282.19,44,246.06,33.92,219.4,36.15,217.84,36.38,210.92,38.05,209.36,38.27Z"/><path class="cls-7" d="M275.39,67.16a12.79,12.79,0,1,0,13.5,12A12.83,12.83,0,0,0,275.39,67.16Z"/><path class="cls-1" d="M277.4,121.81c2.34.56,7.92.34,10.26.34,6.47.11,17.51-.34,20.08,7.25a9.24,9.24,0,0,1,0,5.46c-2.68,7.7-14.28,14.17-21.08,17.85-11.27,6.14-23.54,11.27-35.47,15.95-8,3.12-16.07,6.14-24.1,8.92-19.74,6.92-39,13.16-60.23,11-6.13-.56-13.16-2.46-15.72-8.82-2.35-5.68.44-11.37,3.79-15.95,3.9-5.35,9.26-10.48,14.16-15.05,9.15-8.37,23-21.53,27.78-33.24,2.79-6.81,6.47-14.17,11.26-19.74,4.13-4.8,9.59-8.82,16.29-8.48,10.82.67,16.62,12.05,19.63,21C248.17,120.36,267.47,117.24,277.4,121.81Z"/><path class="cls-3" d="M237.47,110.77c5.91,16.84,28.22,13.16,37.14,17.51,4.35,2.12,28.33-1,26.55,4.47C297.7,143,256,160.41,224.86,171.23c-18.62,6.47-37.14,12.71-57.22,10.7-16.73-1.67-11.71-11.37,6.25-27.77,18.29-16.84,26-27.21,29.56-35.69C214.16,91.81,228.43,84.67,237.47,110.77Z"/><path class="cls-1" d="M279.41,128.84c-.67,3.68-4,6.81-6.81,9.15a141,141,0,0,1-15.28,10.37A428.22,428.22,0,0,1,209,173.23c-16.84,7.37-37.58,15.28-55.88,17.51-8.58,1-25.2,2.9-29.33-7.24-3-7.7,3.68-15.73,8.59-21,6.36-6.81,13.61-13.17,20.63-19.41,1.56-1.45,3.24-2.9,4.8-4.35,7.92-7.25,30-27.33,34-37,2.56-6.25,6.13-12.83,11-17.63,4.24-4.12,9.59-7.13,15.62-6.8a18.51,18.51,0,0,1,8.7,2.68,74.55,74.55,0,0,1,13.27,10.26A111.06,111.06,0,0,0,250,98.61a24.29,24.29,0,0,0,12.16,4.91c7.58,1,16.39-.56,23.75-2.34,4.91-1.23,11.27-2,13.95,3.68,2.23,4.91-1.23,8.92-4.69,11.94-2.45,2.23-5.24,4.23-7.92,6.24-1.89,1.45-3.9,2.9-5.8,4.46A10.28,10.28,0,0,0,279.41,128.84Z"/><path class="cls-10" d="M270.59,130.51c-12.38,12.05-79.86,48.64-118.34,53.21-43.61,5.24-13.72-18,10.15-39.93,18.29-16.84,32.24-31,35.69-39.49,7.14-17.29,16.85-23.53,25.32-18.4,21.64,13,21.86,32,63.8,22C304.39,103.75,275.5,125.72,270.59,130.51Z"/><path class="cls-1" d="M292.68,99.17a20.61,20.61,0,1,1-19.52,21.64A20.59,20.59,0,0,1,292.68,99.17Z"/><path class="cls-7" d="M292.9,104.08a15.69,15.69,0,1,0,16.51,14.83A15.64,15.64,0,0,0,292.9,104.08Z"/><path class="cls-1" d="M302.05,110.55a12.32,12.32,0,1,1-17.4.89A12.34,12.34,0,0,1,302.05,110.55Z"/><path class="cls-7" d="M300.37,112.33a9.88,9.88,0,1,0,.79,14A10,10,0,0,0,300.37,112.33Z"/><path class="cls-1" d="M300.37,112.33a7.7,7.7,0,0,0-1.56-1.11l-12.94,14.39a5.89,5.89,0,0,0,1.34,1.45,8.31,8.31,0,0,0,1.56,1.11l12.94-14.39A17.28,17.28,0,0,0,300.37,112.33Z"/><path class="cls-1" d="M280.86,71.29a5.53,5.53,0,1,0,5.8,5.24A5.44,5.44,0,0,0,280.86,71.29Z"/><path class="cls-7" d="M210.25,62.7c-2.79-.78-6.24,3-7.69,8.48s-.23,10.37,2.56,11,6.25-3,7.7-8.48S213.15,63.37,210.25,62.7Z"/><path class="cls-1" d="M211.48,66.6c-1.23-.33-2.68,1.34-3.35,3.68s-.11,4.47,1.12,4.8,2.67-1.34,3.34-3.68S212.71,66.94,211.48,66.6Z"/><path class="cls-8" d="M334.62,79.1c-1.9-34-23-55-55.1-64C260.89,9.83,284.09,17,264.68,11c10.49-2.23,12.61-2.46,23.43-.45C323.8,17.08,345.77,43,350.23,78.43a7.7,7.7,0,0,1-7.47,8.14A7.83,7.83,0,0,1,334.62,79.1Z"/><path class="cls-4" d="M218.62,98.84c-10.71,23.64-17.07,26.54-36.92,42.27-13.5,10.71-27.33,22.53-42.39,30.79,9-15.06,22.65-26.89,35-39.15,15.84-15.62,21.75-18.19,29.33-39.27a7.83,7.83,0,0,1,10-4.79A8,8,0,0,1,218.62,98.84Z"/></svg>