<?xml version="1.0" encoding="utf-8"?>
<!-- Generator: Adobe Illustrator 25.0.0, SVG Export Plug-In . SVG Version: 6.00 Build 0)  -->
<svg version="1.1" id="Layer_1" xmlns="http://www.w3.org/2000/svg" xmlns:xlink="http://www.w3.org/1999/xlink" x="0px" y="0px"
	 viewBox="0 0 585.3 995.3" style="enable-background:new 0 0 585.3 995.3;" xml:space="preserve">
<style type="text/css">
	.st0{fill-rule:evenodd;clip-rule:evenodd;fill:#A4CAD3;}
	.st1{fill-rule:evenodd;clip-rule:evenodd;fill:#0C3555;}
	.st2{fill-rule:evenodd;clip-rule:evenodd;fill:#6998B9;}
	.st3{fill-rule:evenodd;clip-rule:evenodd;fill:#FAC47B;}
	.st4{fill-rule:evenodd;clip-rule:evenodd;fill:#FEE7AE;}
	.st5{fill-rule:evenodd;clip-rule:evenodd;fill:#FEE9AE;}
	.st6{fill-rule:evenodd;clip-rule:evenodd;fill:#FFF5D1;}
	.st7{fill-rule:evenodd;clip-rule:evenodd;fill:#FFFFFF;}
	.st8{fill-rule:evenodd;clip-rule:evenodd;fill:#D3E7EB;}
	.st9{fill-rule:evenodd;clip-rule:evenodd;fill:#C92F27;}
	.st10{fill-rule:evenodd;clip-rule:evenodd;fill:url(#SVGID_1_);}
	.st11{fill-rule:evenodd;clip-rule:evenodd;fill:#AB2423;}
	.st12{fill-rule:evenodd;clip-rule:evenodd;fill:url(#SVGID_2_);}
</style>
<g>
	<circle class="st0" cx="291.7" cy="634.7" r="274.2"/>
	<g>
		<path class="st1" d="M199.9,625.6c-4.6,7.3-14.6,7.1-22.2,5.9c-10.1-1.6-20.8-5.3-30.3-8.8c-28.3-10.7-85-40.3-118.6-69.9
			C5.2,531.8-1.6,518.2,0.3,486.5c2.4-38.6,19.6-85.9,35.3-89.6c13.4-3.2,0.5,7.3,11.4,14l2.2,1.4l1.1,2.4c2,4.4,5,9.2,7.7,13.2
			c8.3,12.6,18.1,24.5,28.3,35.6c4.7,5.1,5.9,10.2,10.1,14.9c37.8,40.9,67.5,66,126.9,98.2c5.1,2.8,9.1,7,9.8,13
			c0.7,5.9-2.3,11.1-6.1,15.4c-3.3,3.7-7.4,7-11.4,9.9c-3.4,2.5-6.9,4.8-10.4,7.1C203.7,622.9,201.3,624.4,199.9,625.6z"/>
		<path class="st0" d="M27.1,538c46.8,46.5,162.1,100.8,170.8,83.6c2.6-5.1,46.6-25.3,26.3-36.4C73.7,503.5,42.4,418.4,42.4,418.4
			c-10.5-6.5-26.9,45.1-32.3,71.7C5.6,512.3,11.6,522.6,27.1,538z"/>
		<path class="st2" d="M157.5,616.4c-5.5-2-3.6-18.8-9.5-21.3C98.4,574.1,35.2,541.5,9.6,494.7c-0.1-0.1-0.2-0.3-0.2-0.4
			c-0.1-0.2-0.2-0.4-0.3-0.6c0,0.8,0,1.6,0.1,2.4c0,0.8,0.1,1.6,0.2,2.4c-0.2,5.5,0.6,11.5,1.1,15.9c2.6,8.2,8.3,15.1,16.8,23.6
			c30.4,30.2,89.7,63.7,129.9,78.8c2.9-4,6-7.8,9.3-11.5C166.6,604.9,157.2,616.8,157.5,616.4z"/>
		<path class="st1" d="M326.8,808.7c18.5,1.1,34.6,11.8,46,25.9c12.4,15.4,19.7,35,21.1,54.6c-31.6,12.7-66.1,19.7-102.3,19.7
			c-6.5,0-12.9-0.2-19.3-0.7c-2.4-7.7-3.9-15.7-4.4-23.7c-1-15.1,1.4-30.6,8.2-44.2c6-12,15.4-22.2,27.9-27.7
			C311.3,809.5,319,808.2,326.8,808.7z"/>
		<path class="st1" d="M175.6,870.9l29.2,9.9c2.5,0.9,4.3,2.8,5,5.4l2.6,10.9c-16.3-4.9-32-11.3-46.9-19.1c0-2,0.8-4,2.4-5.5
			C170,870.6,172.8,870,175.6,870.9z"/>
		<path class="st3" d="M173.1,878.1l1.3,4.4c9.5,4.5,19.3,8.5,29.4,11.9l-1.5-6.4L173.1,878.1z"/>
		<path class="st1" d="M194.8,774.8c2.2,0.1,4.4,0.4,6.6,0.8c17,3.2,31.2,14.2,41.2,27.9c11.1,15.2,17.2,33.9,18.1,52.7
			c0.7,15.3-2.1,30.9-9.2,44.5c-0.9,1.6-1.8,3.2-2.8,4.8c-41.5-6.6-80-22.4-113.1-45.5c-0.5-3.2-0.8-6.4-0.9-9.6
			c-0.7-15.3,2.1-30.9,9.2-44.5c6.4-12.1,16.2-22.2,29-27.5C179.8,775.6,187.3,774.4,194.8,774.8z"/>
		<path class="st2" d="M194.3,782.4c-30.6-1.8-53.9,28.5-52.1,67.7c0.3,5.4,1,10.7,2.1,15.8c28.8,18.4,61.3,31.6,96,38.1
			c8.7-12.1,13.5-28.8,12.7-47.5C251.2,817.4,224.9,784.2,194.3,782.4z"/>
		<path class="st1" d="M262.4,566.1c-82.5-4.8-146.5,73.4-146.9,174.4c-0.3,64.3,27.1,113.9,65.3,144.9
			c33.9,15.1,71.5,23.4,111,23.4c18.2,0,36.1-1.8,53.3-5.2c38.2-23.6,65.7-70.8,66-145.9C411.4,656.7,344.9,570.9,262.4,566.1z"/>
		<path class="st1" d="M127.6,776.8c50,46.9,162.5,42,223.6,24c12.6-3.7,35.1-9.7,46.8-0.8c3.8,2.9,6,6.8,7,11.5
			c0.2,0.9,0.3,1.8,0.5,2.7c0.9,0.3,1.8,0.8,2.6,1.5c2.2,2,3.1,4.8,2.3,7.7c-7.8,29.5-22,55.9-43.4,75
			c-23.9,6.8-49.2,10.5-75.3,10.5c-47.1,0-91.4-11.9-130.1-32.8c-14.4-17.5-24.4-38.5-33.5-62.8c-1.6-4.2-3.6-8.5-5.4-12.6
			c-1.4-3.1-2.2-10.1-3.5-13.2c-0.9-2.1-2.5-5.2-2.5-7.4c0-3.2,1.5-6.4,3.4-9c3.8-4.9-3.1-6.8,2.5-2.8
			C126.1,770.7,126.3,773.6,127.6,776.8z"/>
		<path class="st0" d="M122.5,807.9c11.7,31.4,31.9,57.5,56.4,76.8c34.4,15.6,72.6,24.2,112.9,24.2c19.5,0,38.5-2,56.8-5.9
			c24.5-16.1,44.2-42.7,54.5-81.6c-13.1,5.2,12.2-31.6-49.6-13.3c-59.9,17.7-178.2,24.9-231.8-26.6c-1-1-2.1-6.2-3.3-7.1
			c-2.7-2-7.2,3.7-7.2,6.6C111.1,781.6,120.8,803.3,122.5,807.9z"/>
		<path class="st1" d="M156.2,811.6c57.3,24.3,143.5,17.9,194.3,3.2c12.7-3.7,35.4-10.1,47.3-1.3c3.8,2.9,6.1,6.8,7.1,11.5
			c0.3,1.5,0.5,2.9,0.7,4.4c0.1,0.5,0.1,1.1,0.2,1.7c1,1.9,1.2,3.9,0.5,6c-10.8,32.1-30.4,53.1-55.7,65.5c-19,4.2-38.7,6.3-58.9,6.3
			c-47.7,0-92.6-12.2-131.7-33.7c-13.2-17.8-18.9-38.8-27.9-63c-1.6-4.2-3.6-8.5-5.4-12.6c-1.1-2.5-2.2-4.9-3.2-7.4
			c-1.2-2.8-0.7-5.8,1.3-8.1c2-2.3-0.7-7.4,2.2-6.5c0.2,0.7,0.4,1.4,0.6,2.1c2.2,5.9-7.2,11.6,3.3,18.4
			C139.6,803.6,151.2,809.4,156.2,811.6z"/>
		<path class="st0" d="M122.5,807.9c11.6,31.2,32.3,57.5,56.8,77c34.3,15.4,72.3,24,112.4,24c19.3,0,38.1-2,56.2-5.8
			c22.9-14.6,40.6-37.5,51.1-68.5c-3.4-4.9,6.2-28.3-46.3-13C293.6,838.8,178.1,846,122,798.6c-6.8-5.7-6.6-7.5-2.4,2.3
			C120.9,804,122,806.6,122.5,807.9z"/>
		<path class="st0" d="M261.8,566.1c-73.3-4.3-132.9,58.2-145.1,144.1c20.2,9.8,35,10.6,35,10.6l30.3-30.6l73.3,10.7
			c0,0,20.7,43.3,34.4,44.1c13.7,0.8,92.2-6.5,117.7-26.6c0.1-0.1,0.2-0.2,0.3-0.3C393.1,635.2,335.2,570.4,261.8,566.1z"/>
		<path class="st0" d="M326.4,816.3c-30.6-1.8-53.3,28.6-50.8,67.8c0.6,8.6,2.3,16.9,5,24.6c3.7,0.1,7.4,0.2,11.1,0.2
			c33.3,0,65.3-6,94.8-16.8c0-0.5-0.1-1-0.1-1.6C383.9,851.3,357,818.1,326.4,816.3z"/>
		<path class="st1" d="M369.8,731.2c-3.8-3.2-7.4-6.4-10.9-9.7c-13.7-12.8-26.7-27.6-36.2-43.8c-9.6-16.3,35.7-16.5,37.6-35.6
			c0-0.2,0.4-6.9,0.5-7.1c2.4-12.9-50.9-40.8-38.9-47.2c-13.4-5.8,54.5-8.2,98.7,38.2c26.3,27.7,83.7,98.1,82.8,138.3
			c-0.4,18.8-21.9,30.3-37,36.3c-22.4,8.9-48.9,13.5-72.8,15.4c-12.9,1-26,1.2-39,0.5c-7.6-0.4-15.7-0.8-23.3,0
			c-0.6,0.1-1.7,0.2-2.9,0.4c0.6,0.4,1.2,0.8,1.6,1c3.3,1.9,4.6,5.9,3.2,9.4c-1.4,3.5-5.1,5.5-8.8,4.6c-5.1-1.2-10.9-4.1-15.2-7
			c-10.1-7-16.1-17.1-17.1-29.4c-0.8-9.8,6.8-18.5,13.5-24.7c8.2-7.6,18.3-14.3,27.9-20.1c10.5-6.3,21.4-12.1,32.4-17.6
			C367.2,732.5,368.5,731.8,369.8,731.2z"/>
		<path class="st0" d="M321.4,626.3c3.1-17.1,0.4-28.9,12.3-31.2c18-3.5,55.1,11.6,83.2,41.1c46.8,49.1,84.8,101,84.2,130.1
			c-0.6,29.1-79.5,48.3-140.8,44.7c-61.3-3.6-29,15.6-29,15.6s-24.5-5.7-26.3-29.6c-1.9-23.9,84.6-62,84.6-62S316,682.1,321.4,626.3
			z"/>
		<path class="st4" d="M173.8,713.9c-7.3,18-7.5,35.6-5.3,48.4c3.4,20.4,11.4,25.7,30.8,37.1c20.2-5.4,29.3-8.1,36.4-26.2
			c4.6-11.9,8.1-29.5,4.2-49.7c-21.3,2.3-32.2-13.6-32.2-13.6S194.1,722.3,173.8,713.9z"/>
		<path class="st5" d="M232.1,732.5c-7.6-0.6-14.9-3.1-21.4-7.5c-1.5-1-3.1-2.2-4.6-3.6c-1.7,0.8-3.4,1.6-5,2.1
			c-7.2,2.4-14.5,2.8-21.7,1.3c-3.4,11.6-4.1,24.1-2.2,36c0.9,5.6,2.4,11.3,5.9,15.8c3.9,5.1,11.3,9.6,17.4,13.2
			c6.3-1.6,14-3.9,18.6-7.4c4-3.1,6.4-7.8,8.2-12.5C231.9,758.3,233.4,745.2,232.1,732.5z"/>
		<path class="st1" d="M229.2,735.4c-3.2-0.4-6.3-1.2-9.3-2.2c-3.8-1.3-7.5-3.2-10.9-5.6c-0.8-0.6-1.7-1.2-2.5-1.8
			c-0.3-0.2-0.5-0.4-0.8-0.6c-0.3,0.1-0.5,0.2-0.8,0.3c-0.9,0.4-1.8,0.7-2.7,1c-3.8,1.3-7.6,2-11.5,2.3c-3,0.2-6,0.1-8.9-0.3
			c-1.2,4.7-1.9,9.6-2.2,14.5c-0.3,5.8-0.1,11.7,0.9,17.4c0.4,2.6,1,5.3,1.8,7.8c0.8,2.4,1.9,4.7,3.4,6.6c1.7,2.3,4.3,4.5,7.2,6.5
			c2.6,1.9,5.5,3.6,8.1,5.2c2.7-0.7,5.6-1.6,8.4-2.6c3-1.1,5.8-2.4,7.8-3.9c1.7-1.3,3-3,4.2-4.8c1.2-2,2.2-4.1,3-6.3
			c2.2-5.5,3.6-11.4,4.4-17.4C229.4,746.2,229.6,740.7,229.2,735.4L229.2,735.4z M222,727.2c3.4,1.2,6.8,1.9,10.4,2.2l2.7,0.2
			l0.3,2.6c0.7,6.7,0.6,13.4-0.2,20.1c-0.8,6.5-2.4,12.9-4.8,18.9c-1,2.5-2.1,5-3.5,7.3c-1.5,2.4-3.3,4.7-5.7,6.5
			c-2.6,2-5.9,3.6-9.5,4.9c-3.4,1.2-7,2.2-10.2,3.1l-1.3,0.3l-1.1-0.7c-3.1-1.8-6.6-3.9-9.8-6.2c-3.3-2.4-6.4-5-8.6-7.8
			c-2-2.6-3.4-5.4-4.4-8.4c-1-2.9-1.6-5.8-2.1-8.8c-1-6.2-1.3-12.5-1-18.8c0.4-6.3,1.4-12.6,3.2-18.6l0.8-2.8l2.9,0.6
			c3.4,0.7,6.8,0.9,10.2,0.7c3.3-0.2,6.6-0.8,9.8-2c0.7-0.3,1.5-0.5,2.3-0.9c0.8-0.3,1.6-0.7,2.3-1.1l1.9-0.9l1.6,1.4
			c0.7,0.6,1.4,1.2,2.1,1.8c0.7,0.6,1.5,1.1,2.2,1.6C215.5,724.4,218.7,726,222,727.2z"/>
		<path class="st1" d="M118.4,698.8c16.6,8,27.7,10.1,31.4,10.5l31.9-30.9l75.9,11.1l0.6,1.2c0,0,8.6,14.4,17.6,27l-1.7,3.8
			c-7.8-10.9-16.1-24.8-18.1-28.9l-73.8-10.6l-30.6,30.2l-1.2-0.1c0,0-13.6,1.1-34.3-8.9L118.4,698.8z"/>
		<path class="st0" d="M153,871.2c-3.4-3.6-6.7-7.4-9.8-11.3c0.3,2,0.7,4.1,1.1,6.1C147.2,867.8,150.1,869.5,153,871.2z"/>
		<path class="st1" d="M193.6,365.5l-11.5,17.2c-7.8,11.8-17.1,23.1-26.3,33.7c-11.1,12.8-22.9,25.2-35,37.1
			c-6.2,6.1-13.9,13.9-20.3,19.8c-2.2,2-3.6,5.9,1.8,11.3c2.4,2.4-12-2.7-14.5-0.6c-2.4,2-25.4,11.9-31.5,11.9
			c-19.5,0.2-34.1-15.6-42.4-10.1c-11.7,7.9,3.6,47.7-7.9,30.6c-27-40.5,49.7-180.7,70.3-217.8c1.9-6,4.4-12.6,8-17.7
			c5.9-8.4,17.3-14.4,27.4-16.6l95-33.4l6.4,27.5c2.8-2.8,5.8-5.4,8.6-7.5c18.5-14,40.4-18.1,63-13l16.4,3.7l-12.5,11.3
			c-11.6,10.5-21.8,22.9-31.3,35.3c-9.8,12.8-19,26.1-28.6,39.1c-8.2,11.1-17.4,23-27.7,32.2C198.9,361.7,196.3,363.7,193.6,365.5z"
			/>
		<path class="st0" d="M282.9,246.5c-34.6,31.4-61.5,83.5-87.5,106.6c-2.2,1.9-4.9,4-8.1,6.2l-12.4,18.6
			C144.2,424,55.7,509.6,23.5,514.8c-5.4-6.4-10.1-13.1-13.9-20.1c-0.1-0.1-0.2-0.3-0.2-0.4c-0.1-0.2-0.2-0.4-0.3-0.6
			c-0.4-35.2,27-104.8,75.4-191.5c2-6.6,4.5-12.4,7.1-16.1c7.2-10.2,22.6-13.2,22.6-13.2l86.4-30.4l8.3,35.6
			C208.8,278.1,232.5,235.3,282.9,246.5z"/>
		<path class="st1" d="M241.7,244c-1.1,3.3-1.1,6.5-0.1,9.5c0.8,2.3,2.1,4.4,3.9,6.1c1.8,1.8,4.1,3.2,6.7,4.1
			c4.2,1.4,9.3,1.5,14.9-0.3l1.7,5c-6.7,2.2-13,2.1-18.2,0.3c-3.4-1.1-6.3-3-8.7-5.3c-2.4-2.3-4.2-5.2-5.2-8.2
			c-1.3-4-1.4-8.4,0.1-12.8L241.7,244z"/>
		<path class="st1" d="M221.5,0h187c6.9,0,12.5,5.6,12.5,12.5v232.1c0,6.9-5.6,12.5-12.5,12.5h-187c-6.9,0-12.5-5.6-12.5-12.5V12.5
			C209,5.6,214.6,0,221.5,0z"/>
		<path class="st6" d="M221.5,8.7h187c2.1,0,3.8,1.7,3.8,3.8v232.1c0,2.1-1.7,3.8-3.8,3.8h-187c-2.1,0-3.8-1.7-3.8-3.8V12.5
			C217.7,10.4,219.4,8.7,221.5,8.7z"/>
		<path class="st3" d="M412.2,104.6v140c0,2.1-1.7,3.8-3.8,3.8h-187c-2.1,0-3.8-1.7-3.8-3.8v-58.2
			C308.5,205.9,375.1,172.3,412.2,104.6z"/>
		<path class="st7" d="M226.6,137l0,25.6l84.1-143H230c-1.9,0-3.4,1.5-3.4,3.4V137z"/>
		<path class="st1" d="M223.8,225.4l-31.1,53.3l-29.6-48.1l0.4-3.1c1.2-9.1,13.3-28.9,18.6-36.5c1.7-2.5,3.5-5,5.4-7.4
			c2.8-3.7,5.4-7.5,8.2-11.1c2.7-3.5,5.6-6.6,10-7.8c7.6-2.1,15.4,3.2,21.6,6.9L290,209l-10.8,7.7
			C260.5,230.1,243.3,234.4,223.8,225.4z"/>
		<path class="st0" d="M172.1,228.6c0.6-4.8,10.5-24.7,22.2-39.7c13.7-17.6,10.7-20.5,28.4-9.9l51.4,30.7
			c-18.3,13.1-33.8,16.4-53.6,4l-28,48L172.1,228.6z"/>
		<path class="st1" d="M147.5,225.8c4.9-5.3,9.7-11,15-16c5.2-4.9,11.9-9.9,19.5-8.6c11.9,2,15.5,16.8,17.2,26.8
			c0.8,4.5,1.1,9.5,1.4,14c0.5,6.7,0.9,13.4,1.2,20.2c0.4,6.7,0.7,13.5,1,20.2c1.3,29.3-10.9,28.6-30.6,44.3l-11.9,9.5l-15.7-107.4
			L147.5,225.8z"/>
		<path class="st0" d="M153.9,231.7c16.6-17.8,30.4-37.9,36.8-2.2c1.3,7.4,2.7,35.5,3.5,53.3c1,23.8-6.1,20.2-27.3,37.1L153.9,231.7
			z"/>
		<path class="st1" d="M145.5,307.5l-31.8-57.2l2.5-4.3c1.7-2.9,3.5-5.8,5.5-8.6c4-5.8,8.7-11.7,14.1-16.2
			c5.5-4.6,12.3-8.4,19.7-7.3c11.8,1.8,17,14.1,19.4,24.3c2.6,10.9,6.2,21.4,9.1,32.2c2.7,10.2,4.8,20.8,3.5,31.5
			c-1.9,15.7-10.6,27.6-22.5,37.5l-2.7,2.3l-3.5-0.3c-3.8-0.3-7.3-1.7-9.9-4.5c-5.6-5.9-4.8-14.7-4-22.1
			C145,312.6,145.4,309.9,145.5,307.5z"/>
		<path class="st0" d="M123.7,250.5c12.4-21,34.3-45.4,42.7-10.1c9.1,37.9,26.5,64.5-7,92.4c-10.8-0.8-4.6-18.1-5.3-27.6
			L123.7,250.5z"/>
		<path class="st1" d="M122.9,308.1c-1.9-3.8-3.7-7.7-5.6-11.5c-1.4,1.1-7.3-18.8-8.6-17.9c-6.7,4.4-10.7,2-15.9,6.2
			c-3.2,2.6-7.7,15.1-10.9,10.8l-2.8-3.8l1.6-4.4c3.6-10.1,6.8-20.7,11-30.6c3.7-8.5,9.2-18.9,19.2-20.7
			c13.4-2.4,33.9-0.4,39.5,14.4c4.7,12.5,9.2,25,14,37.5c2,5.2,4.8,11,4.7,16.6c-0.1,6.1-3.5,11.5-6.6,16.5l-19.3,30.8l-5.4-0.6
			c-3.2-0.3-6.8-1.8-9.5-3.5c-6.4-4.1-9.8-10.7-10.3-18.2C117.6,322.8,119.3,314.7,122.9,308.1z"/>
		<path class="st0" d="M88.9,290.5c7.6-21.2,13.4-43.8,23.6-45.6c10.2-1.8,26.2-0.6,29.8,8.9c2.9,7.8,7.7,21.1,14,37.5
			c5,12.9,6.3,13.4-1.2,25.4l-16.4,26.2c0,0-11.2-1.2-12-13.6c-0.8-12.4,6.2-20.4,6.2-20.4c-4.4-9.1-8.8-18.1-13.2-27.2
			C119.7,281.7,100.9,306.5,88.9,290.5z"/>
		<path class="st1" d="M298.2,53.3h-16.9c-5,12.1-21.2,18.7-40.5,20v16.9h33.2v122.5h24.1V53.3L298.2,53.3z M350.2,51.1
			c-24.1,0-38.9,15.3-38.9,40.3v83.3c0,25,14.8,40.3,38.9,40.3c24.1,0,38.9-15.3,38.9-40.3V91.4C389.1,66.3,374.3,51.1,350.2,51.1
			L350.2,51.1z M350.2,73.4c9.6,0,14.8,6.4,14.8,18.2v82.9c0,11.8-5.2,18.2-14.8,18.2c-9.6,0-14.8-6.4-14.8-18.2V91.6
			C335.4,79.8,340.6,73.4,350.2,73.4z"/>
		<path class="st1" d="M89.5,287.7c-5.9,18.3-9.6,37.1-15.4,54.6c0.2-11.2-0.2-25.4,2.2-36.7c1.6-7.6,5.6-12.5,7.5-19.7
			c0.5-1.6,2.2-2.4,3.7-2C89.1,284.4,90,286.1,89.5,287.7z"/>
		<path class="st1" d="M231.2,324.1c-4.9,10.1-15,18.4-21.8,24.5c-17.3,15.4-36.1,18.8-62.3,20.3c18.2-6.3,33.9-9.4,49.4-22
			c6.7-5.4,21.4-13.3,26.8-26.1c0.9-2.2,3.4-3.2,5.6-2.3C231,319.3,232.1,321.9,231.2,324.1z"/>
		<path class="st1" d="M96,474.4c-2.1,23-17.2,53.9-16.9,52.6l-0.1,0c3.3-17.7,8-34.5,8.3-52.5c0-2.4,1.9-4.3,4.3-4.3
			C94.1,470.1,96,472.1,96,474.4z"/>
		<path class="st1" d="M114.3,321.6c0.4-12.6-7.5-23.5-17.8-24.4c-10.3-0.8-19,8.7-19.4,21.3c-0.4,12.6,7.5,23.5,17.8,24.4
			C105.2,343.7,113.8,334.2,114.3,321.6z"/>
		<path class="st0" d="M109.9,321.2c-0.3,9.6-7,16.9-14.8,16.2c-7.8-0.6-13.9-9-13.5-18.6c0.3-9.6,7-16.9,14.8-16.2
			C104.1,303.3,110.2,311.6,109.9,321.2z"/>
		<path class="st1" d="M103.9,311c-4.2-5.7-11.2-6.3-15.7-1.3c-4.5,5-4.8,13.6-0.7,19.4c4.2,5.7,11.2,6.3,15.7,1.3
			C107.8,325.4,108.1,316.7,103.9,311z"/>
		<path class="st0" d="M102.3,312.8c3.3,4.6,3.1,11.5-0.5,15.5c-3.6,4-9.3,3.5-12.6-1c-3.3-4.6-3.1-11.5,0.5-15.5
			C93.3,307.8,99,308.2,102.3,312.8z"/>
		<path class="st1" d="M102.3,312.8c0.4,0.6,0.8,1.1,1,1.7l-12.9,14.2c-0.5-0.4-0.9-0.9-1.3-1.5c-0.4-0.6-0.8-1.1-1.1-1.7l12.9-14.2
			C101.4,311.7,101.9,312.2,102.3,312.8z"/>
		<path class="st1" d="M235.7,228.4c-15.7-8.9-26.1-10.7-25.9-31.8l0.3-3.6c4,6.2,5.1,14.1,9.7,18.9c2.7,2.8,17.1,7.7,20.6,9.3
			c2,1.3,2.6,4,1.3,6C240.4,229.1,237.7,229.7,235.7,228.4z"/>
		<path class="st1" d="M218.3,222.8c-1.3-0.6-18.4-8.4-15.4-12c3.6,0.2,13.8,3,17.8,3.7c2.3,0.7,3.6,3,3,5.3
			C223,222.2,220.6,223.5,218.3,222.8z"/>
		<path class="st8" d="M68.5,348.3c-15.7,25.1-55.2,104.8-53.6,134.2l1.8,12c11.1-38.2,40.2-103.2,64.7-136.9
			c2.6-3.6,1.8-8.6-1.8-11.1C76.1,343.9,71.1,344.7,68.5,348.3z"/>
		<path class="st1" d="M128.4,300.3c2.3,5.9,5.8,9.6,9.7,11.6c3.2,1.7,6.7,2.3,9.9,2.1c3.3-0.2,6.3-1.2,8.6-2.7
			c2-1.3,3.4-2.9,3.8-4.7l5.2,1.1c-0.7,3.2-2.9,5.9-6.1,8c-3,2-6.9,3.3-11.1,3.5c-4.2,0.3-8.6-0.5-12.7-2.7
			c-4.9-2.6-9.4-7.2-12.2-14.4L128.4,300.3z"/>
		<path class="st1" d="M121.8,281.7c2.8,4.5,7.4,6.8,12.2,7.5c3,0.4,6.1,0.2,8.8-0.7c2.6-0.8,5-2.1,6.6-3.9c1.8-1.9,2.7-4.4,2.3-7.4
			l5.2-0.7c0.6,4.6-0.8,8.6-3.6,11.6c-2.3,2.5-5.4,4.3-8.9,5.4c-3.4,1.1-7.3,1.4-11,0.9c-6.2-0.8-12.2-4-16-9.9L121.8,281.7z"/>
		<path class="st1" d="M156.7,273.3c2.3,0.4,4.6,0.4,6.8,0.1c2.6-0.4,5-1.2,6.8-2.7c1.7-1.3,2.9-3.2,3.3-5.6c0.2-1.2,0.2-2.5,0-4
			l5.2-0.7c0.3,2,0.3,3.9,0,5.6c-0.6,3.8-2.5,6.8-5.2,8.9c-2.6,2-5.8,3.3-9.4,3.7c-2.7,0.4-5.5,0.3-8.4-0.2L156.7,273.3z"/>
		<path class="st1" d="M164.5,307.4c1.3,0.1,2.6,0,3.9-0.2c2.9-0.4,5.4-1.4,7.3-3c1.9-1.7,3.5-4.7,4.1-12.6l4,2.6
			c0.2,1.3,0.2,2.4,0.2,3.6c-0.2,4.4-2,7.8-4.8,10.3c-2.7,2.4-6.2,3.8-10.1,4.3c-1.6,0.2-3.2,0.3-4.8,0.2L164.5,307.4z"/>
		<path class="st1" d="M178.8,258.6c1.2,0,2.4,0,3.6-0.2c2.9-0.4,5.5-1.4,7.3-3.1c1.7-1.6,2.9-3.8,3-6.7c0-0.8,0-1.6-0.1-2.5
			l5.2-0.7c0.2,1.2,0.2,2.3,0.2,3.3c-0.1,4.5-1.9,8-4.7,10.5c-2.7,2.4-6.2,3.8-10.1,4.4c-1.4,0.2-2.9,0.3-4.4,0.2L178.8,258.6z"/>
		<path class="st1" d="M184.7,289.2c0.2,0,0.5-0.1,0.8-0.1c3.1-0.4,5.9-1.6,7.8-3.5c1.8-1.9,2.8-4.5,2.4-8.1c0-0.2,0-0.4-0.1-0.6
			l5.2-0.7c0,0.3,0.1,0.5,0.1,0.8c0.5,5.3-1,9.3-3.8,12.3c-2.7,2.8-6.6,4.5-10.9,5.1c-0.3,0-0.6,0.1-0.9,0.1L184.7,289.2z"/>
		<path class="st1" d="M110.9,291.7c4.4-6.6,5.9-16.9,12.9-20.8c-2.4,4.4-5,30.4-13,29.3C108.4,299.9,110.1,294,110.9,291.7z"/>
		<path class="st1" d="M220,261.6c0.1,4,0.7,8,2,11.8c1.6,4.8,4,9.1,7.3,12.1c3.1,2.9,7,4.7,11.6,4.6c1.9,0,3.9-0.4,6-1.1l1.6,5
			c-2.6,0.9-5.2,1.3-7.6,1.3c-6.1,0.1-11.2-2.2-15.3-6.1c-3.9-3.7-6.9-8.8-8.7-14.3c-1.4-4.3-2.2-8.9-2.3-13.4L220,261.6z"/>
		<path class="st2" d="M185,362.8c-21.2,5.7-40.2,6.1-51.9,7.3c0,0-27.6,57.8-48.9,91.3c-2.4,3.8-4.7,7.3-6.9,10.3
			c-3.1,4.3-6,7.8-8.4,10.1c-8.2,7.6-11.9,12.8-10.2,13.9c0.1,0.1,0.2,0.1,0.4,0.2c0.2-0.1,0.3-0.2,0.5-0.3
			c7.2-5.3,14.8-11.4,22.7-18.1c32.7-28,69.4-64.5,92.7-99.5L185,362.8z"/>
		<path class="st1" d="M141.9,629.8c11-13.6,7.5-19.4,4.5-37c10.5,17.9,13.6,24.8,2.2,42.4c-1.5,1.8-4.2,2.1-6.1,0.6
			C140.7,634.3,140.4,631.6,141.9,629.8z"/>
		<path class="st1" d="M386.2,603.3c-2.7,6-10.9-6.3-18,2.9c-11,9.3-16,28.2-18.3,40.1c-3.5,18.2-1.3,41.7,4.4,59.7
			c1.2,3.9,4.4,11.6,7.5,14.6c1.4,1.3,2.1,3,1.9,4.9l-6.2,78l17.9,92.3c-26.4,8.4-54.4,13-83.6,13c-60.6,0-116.7-19.7-162.1-53
			c-6.5-18.6-11.4-37.2-14.6-53.8c-0.1-0.6-3.9-4.7-4.4-5.2c-4.4-5-5.9-11.2-5.5-17.7c0.1-2.6,1-5,1.9-7.4c0.3-0.9,1-2.6,1.1-3.6
			c0.7-11.2,2.1-22.4,3.7-33.5c2.1-14.1,4.6-28.2,7.8-42.1c3-13.6,6.7-27.2,11.3-40.3c3.8-10.7,8.7-22.4,15.3-31.7
			c2-2.7,5.2-3.9,8.3-5c0.7-0.2,0.4-1.5,1.3-1.8c9.4-16.7,26.4-45.5,35.4-53.7c1.4-1.3,1.5-2.1,3.4-1.8l16.4-0.3
			c4.3,0.8,5.6,4.7,4.8,8.4c-0.2,1-0.5,2-0.8,2.9c-0.8,2.6-3.3,4.9-4.2,7.5c-0.9,2.8-2,6.1-2.6,9c-1.8,9.5-2.9,19.7-1.8,29.3
			c2.7,21.7,16.1,30.1,37.3,29.8c32.2-0.5,72-26.7,95.5-51.7c3.3-3.5,6.9-15.8,7.5-15.6C353.1,580.5,380.8,593.3,386.2,603.3z"/>
		<path class="st9" d="M195.1,564.5c-14.4,16.4-20,34.6-33.2,54.2c-1.5,2.2-9,2.9-10.8,5.4c-21.9,30.6-34.8,110.9-36.9,144.4
			c-0.2,3.4-2.9,7.5-3,10.9c-0.2,3.3,0.2,6,1,8.2c55.8,43.7,153,55.2,218.5,30c8.7-3.4,14.7-6.5,21.3-10.7l-0.6-3l6.3-78.9
			c1-12.3-12-25.9-16.3-40.8c-4.1-14.1,0.3-29.4,3.3-43.6c4.1-19.2,16.4-37.3,23.6-41c1.1-0.6,1.3-1.5,0.3-2l-17.2-8.1
			c0,0-56.8,62.4-107.5,61.4c-50.4-1-45.7-45.3-41.6-66.3c1.1-5.4,6.7-19.2,6-19.3L195.1,564.5L195.1,564.5z M121.6,804.3
			c57.6,34.6,142.3,41.8,203.1,19c10.5-4,19.3-8.2,27.5-14.6l17.2,89c-24.7,7.3-50.8,11.2-77.8,11.2c-56.8,0-109.6-17.3-153.4-46.9
			C131.1,842.7,125.5,822.8,121.6,804.3z"/>
		<linearGradient id="SVGID_1_" gradientUnits="userSpaceOnUse" x1="181.4861" y1="901.8814" x2="33.1848" y2="677.1057">
			<stop  offset="0" style="stop-color:#C92F27"/>
			<stop  offset="1" style="stop-color:#FFFFFF"/>
		</linearGradient>
		<path class="st10" d="M140.5,814.3c-0.1,11.2,3.6,32,12.5,57c-5-2.9-9.9-6-14.7-9.3c-7.2-19.2-12.8-39.1-16.7-57.6
			C127.7,807.9,134,811.3,140.5,814.3z"/>
		<path class="st11" d="M271,830.2c21.3-1.5,41.6-5.6,59.6-12.5c2.3-0.9,4.3-1.7,6.3-2.6c-25.6-22.9-53.8-41.1-61.5-18.6
			C271.6,807.3,270.5,818.9,271,830.2L271,830.2z M256.8,906.7c2.5-0.2,4.7-0.4,6.7-0.7c28.3-3.8-4.1-54-10.7-69.6
			c1.4-0.1,21.2-1.4,22.5-1.5c17.4-2,34.2-5.8,49.4-11.5c5.2-1.9,9.9-3.9,14.4-6.2c6.4,5.8,12.6,11.8,18.2,17.5l12.2,63.1
			c-24.7,7.3-50.8,11.2-77.8,11.2C279.9,908.9,268.3,908.1,256.8,906.7z"/>
		<g>
			<path class="st1" d="M427.1,389.7c-45.4,62.3-104.3,130.7-115,199.6c-4.3,27.6-59.6,17.5-78,4.8
				c-37.2-25.6,54.5-129.2,109.7-175.7c15.7-13.3,30.3-20.5,35.8-21.7C400.9,392.1,426.3,393.3,427.1,389.7z"/>
			<path class="st1" d="M412.2,399.1c-8,0.6-16,1.2-23.9,2.4c-2.5,0.4-5,0.8-7.4,1.3c-3.6,0.7-9.1,3.8-12.3,5.6
				c-7.3,4.2-14.3,9.3-20.8,14.7c-20.4,17.2-39.9,36.7-57.6,56.5c-9.2,10.3-18.1,21-26.4,32.1c-7.4,9.8-14.4,20.1-20.4,30.8
				c-5.4,9.6-16.1,31.1-9.6,42.1c1,1.7,2.3,3,3.9,4.1c7.9,5.5,21.1,9.1,30.6,10.6c10.2,1.6,35.3,3.5,37.6-11.1
				c3.9-25.4,14-49.8,26.1-72.3c13-24.2,28.8-47.1,44.9-69.4C388.4,430.6,400.4,414.9,412.2,399.1z"/>
			<path class="st0" d="M336.3,433.2c5.5,1.4,12.5,3.7,19.5,7.1c6.1,2.9,12.3,6.6,17.6,11.1c-1,1.4-2,2.8-3,4.1
				c-5-4.4-10.9-7.9-16.7-10.7c-8.2-3.9-16.4-6.4-21.9-7.5C333.3,435.9,334.8,434.5,336.3,433.2L336.3,433.2z M314.2,454.2
				c-1.5,1.5-3,3-4.4,4.5c6.6,0.7,13.6,2.8,20.5,6.1c7.8,3.7,15.5,9.1,22.7,16.1c0.9-1.4,1.9-2.9,2.9-4.3
				c-7.4-7-15.3-12.5-23.3-16.3C326.4,457.3,320.2,455.3,314.2,454.2L314.2,454.2z M288.7,481.4c-1.3,1.4-2.5,2.9-3.8,4.3
				c9.6,2.3,18.8,5.2,27.5,9.2c8.2,3.7,16,8.3,23.5,13.8c0.8-1.5,1.7-3,2.5-4.4c-7.6-5.6-15.6-10.2-24-14
				C306.2,486.6,297.6,483.7,288.7,481.4L288.7,481.4z M265.7,509.2c-0.6,0.8-1.3,1.7-1.9,2.5c-0.4,0.5-0.7,1-1.1,1.5
				c4.7,2.6,11.5,5.7,19,8.8c13.6,5.6,29.9,11.3,40,14.6c0.7-1.6,1.4-3.1,2.1-4.6c-9.9-3.1-26.4-9-40.2-14.6
				C276.3,514.4,269.9,511.5,265.7,509.2L265.7,509.2z M247,536.2c5.6,5.3,16.1,10.3,27.7,14.2c13.7,4.6,28.7,7.5,38.7,7.2
				c-0.6,1.7-1.1,3.4-1.6,5c-10.7-0.1-25.4-3-38.7-7.5c-11.5-3.9-22.1-9-28.6-14.7C245.3,539.2,246.1,537.7,247,536.2z"/>
			<g>
				<path class="st1" d="M238.7,555.4c-1,2-0.5,5.9,0.1,8.1c1.7,2.5,9.3,5.9,11.9,6.9c8.4,3.2,17.9,5.1,26.9,5.5
					c4.1,0.2,8.3,0.1,12.4-0.3c5.3-0.5,18.6-2.5,21.2-8c0.2-0.4,0.3-1,0.4-1.5c0.3-1.4,0.4-2.9,0.5-4.3c0-0.8,0.1-1.6,0.2-2.3
					c0.5-3.9,3.2-7.2,7.5-7.4c7.1-0.4,14,1.8,19.1,6.7c6.1,5.7,8.7,14.1,7.8,22.2c-1,9.4-6.5,17.4-14.2,23
					c-14.8,10.7-35.1,14.8-53.2,15c-15,0.2-31.2-2.1-45.1-7.7c-11.9-4.8-24.2-12.9-27.9-25.6c-1-3.3-1.3-6.6-1-10
					c1.6-16.9,6.7-29.1,25.8-32c3.2-0.5,7.8-0.7,9.5,1.9C242.1,548.2,240.4,552.9,238.7,555.4L238.7,555.4z M238.5,555.7"/>
				<path class="st0" d="M232.1,551.2c-15.1,2.3-17.9,11.7-19.2,25.1c-3.1,33.5,78.9,47.6,114.8,21.5c19.5-14.2,11.3-39.3-7.6-38.2
					c-0.7,0,0.1,6.8-2,11.2c-5.1,10.7-25.7,13.3-41,12.6c-23.7-1.1-44-11-45.9-17.7C228.6,556.1,232.1,551.2,232.1,551.2z"/>
				<path class="st1" d="M224.5,574.6c2.8,0.1,4.9,2.4,4.8,5.1c-0.1,2.7-2.5,4.8-5.2,4.7c-2.8-0.1-4.9-2.4-4.8-5.1
					C219.4,576.6,221.7,574.5,224.5,574.6L224.5,574.6z M325.7,579.7c2.8,0.1,4.9,2.4,4.8,5.1c-0.1,2.7-2.5,4.8-5.2,4.7
					c-2.8-0.1-4.9-2.4-4.8-5.1C320.6,581.7,323,579.6,325.7,579.7L325.7,579.7z M307.8,589.5c2.8,0.1,4.9,2.4,4.8,5.1
					c-0.1,2.7-2.5,4.8-5.2,4.7c-2.8-0.1-4.9-2.4-4.8-5.1C302.7,591.5,305,589.4,307.8,589.5L307.8,589.5z M285.9,593.8
					c2.8,0.1,4.9,2.4,4.8,5.1c-0.1,2.7-2.5,4.8-5.2,4.7c-2.8-0.1-4.9-2.4-4.8-5.1C280.7,595.8,283.1,593.7,285.9,593.8L285.9,593.8z
					 M262.3,591.9c2.8,0.1,4.9,2.4,4.8,5.1c-0.1,2.7-2.5,4.8-5.2,4.7c-2.8-0.1-4.9-2.4-4.8-5.1C257.2,593.9,259.5,591.8,262.3,591.9
					L262.3,591.9z M241.2,585.1c2.8,0.1,4.9,2.4,4.8,5.1c-0.1,2.7-2.5,4.8-5.2,4.7c-2.8-0.1-4.9-2.4-4.8-5.1
					C236.1,587.1,238.5,585,241.2,585.1z"/>
				<path class="st8" d="M230.9,559.8c-2.9,23.9,63.8,31.7,84.2,17.9l1.9-1.3c-9.7,20.4-97.3,19.6-94.5-18.1
					c0.4-2.3,2.6-3.8,4.9-3.4C229.8,555.4,231.3,557.5,230.9,559.8z"/>
			</g>
		</g>
		<g>
			<path class="st1" d="M342.5,246.9c52.1-2.8,96.5,37.2,99.3,89.3c2.8,52.1-37.2,96.5-89.3,99.3c-52.1,2.8-96.5-37.2-99.3-89.3
				C250.4,294.1,290.4,249.6,342.5,246.9z"/>
			<path class="st2" d="M342.9,254.5c-47.8,2.5-84.6,43.4-82,91.2c2.5,47.8,43.4,84.6,91.2,82c47.8-2.5,84.6-43.4,82-91.2
				C431.5,288.7,390.7,252,342.9,254.5z"/>
			<path class="st0" d="M342.9,254.5c-41.5,2.2-74.6,33.2-81,72.6c8.3,41.5,46.1,71.7,89.6,69.4c41.5-2.2,74.6-33.2,81-72.6
				C424.1,282.4,386.4,252.2,342.9,254.5z"/>
			<path class="st1" d="M273.8,288.7c-12.8,16-16.3,45.1-15.6,57.2c0.6,12,3,3.7,3.2,5.7c18-19.8,24.1-14.4,33.3-9.6
				c9.4,4.9,12,22.6,36.9,25c25,2.5,55.7-38,36.9-57c-14.8-15-54.4-25.9-83.6-23.5C283,286.6,275.5,288.5,273.8,288.7z"/>
			<path class="st0" d="M346.1,320.3c-7.7,0.4-13.7,7-13.2,14.7c0.4,7.7,7,13.7,14.7,13.2c7.7-0.4,13.7-7,13.2-14.7
				C360.4,325.8,353.8,319.9,346.1,320.3z"/>
			<path class="st1" d="M348.3,380.2c2.5,0.6,8.7,0.4,11.3,0.4c7.1,0.1,19.2-0.3,22,7.9c0.7,2,0.6,4.1-0.1,6
				c-2.9,8.4-15.7,15.5-23,19.5c-12.4,6.7-25.7,12.3-38.8,17.5c-8.7,3.5-17.6,6.7-26.4,9.8c-21.6,7.5-42.7,14.4-66,12.1
				c-6.7-0.7-14.4-2.7-17.2-9.6c-2.5-6.2,0.5-12.5,4.1-17.5c4.2-5.9,10.1-11.5,15.5-16.4c10-9.2,25.1-23.5,30.4-36.4
				c3.1-7.5,7.1-15.5,12.4-21.6c4.5-5.2,10.6-9.7,17.8-9.2c11.8,0.7,18.1,13.2,21.5,23C316.3,378.6,337.4,375.2,348.3,380.2z"/>
			<path class="st3" d="M304.6,368.1c6.4,18.5,30.9,14.4,40.7,19.1c4.8,2.3,31.1-1.1,29,4.8c-3.8,11.2-49.5,30.3-83.6,42.1
				c-20.4,7.1-40.7,13.9-62.7,11.7c-18.3-1.8-12.8-12.4,6.8-30.4c20.1-18.4,28.5-29.9,32.3-39.1
				C279.1,347.4,294.7,339.5,304.6,368.1z"/>
			<path class="st1" d="M350.5,387.9c-0.7,4-4.4,7.5-7.5,10c-5.2,4.2-11.1,7.9-16.8,11.4c-16.8,10.2-34.9,19.3-52.9,27.2
				c-18.5,8.1-41.2,16.7-61.2,19.1c-9.4,1.1-27.6,3.2-32.1-8c-3.3-8.4,4.1-17.2,9.4-22.9c7-7.5,15-14.4,22.6-21.3
				c1.7-1.6,3.5-3.2,5.2-4.7c8.7-8,32.9-30,37.2-40.5c2.8-6.9,6.7-14,12-19.3c4.6-4.6,10.5-7.8,17.1-7.5c3.4,0.1,6.6,1.2,9.5,2.9
				c5.4,3.2,10,7,14.6,11.2c3.3,3.1,6.7,6.4,10.3,9.1c4.1,3,8.2,4.7,13.3,5.4c8.3,1.1,17.9-0.6,26-2.5c5.4-1.3,12.4-2.2,15.2,4.1
				c2.4,5.4-1.3,9.8-5.1,13.1c-2.7,2.4-5.7,4.6-8.6,6.8c-2.1,1.6-4.2,3.2-6.3,4.8C352,386.7,351.2,387.3,350.5,387.9z"/>
			<path class="st4" d="M340.8,389.7c-13.5,13.2-87.5,53.2-129.6,58.3c-47.7,5.8-15.1-19.7,11.2-43.8c20.1-18.4,35.3-34,39.1-43.3
				c7.8-19,18.5-25.7,27.7-20.2c23.7,14.2,24,35.1,69.9,24.1C377.9,360.4,346.2,384.4,340.8,389.7z"/>
			<path class="st1" d="M365,355.4c12.4-0.7,23.1,8.9,23.7,21.3c0.7,12.4-8.9,23.1-21.3,23.7c-12.4,0.7-23.1-8.9-23.7-21.3
				C343,366.6,352.6,356,365,355.4z"/>
			<g>
				<path class="st0" d="M365.3,360.7c-9.5,0.5-16.8,8.6-16.2,18.1c0.5,9.5,8.6,16.7,18.1,16.2c9.5-0.5,16.7-8.6,16.2-18.1
					C382.9,367.5,374.8,360.2,365.3,360.7z"/>
				<path class="st1" d="M375.3,367.8c5.5,5,6,13.5,1,19.1c-5,5.6-13.5,6-19.1,1c-5.6-5-6-13.5-1-19.1
					C361.2,363.3,369.7,362.8,375.3,367.8z"/>
				<path class="st0" d="M373.5,369.8c-4.4-4-11.3-3.6-15.3,0.8c-4,4.4-3.6,11.3,0.8,15.3c4.4,4,11.3,3.6,15.3-0.8
					C378.3,380.7,377.9,373.8,373.5,369.8z"/>
				<path class="st1" d="M373.5,369.8c-0.5-0.5-1.1-0.9-1.7-1.3l-14.2,15.8c0.4,0.6,0.9,1.1,1.4,1.6c0.5,0.5,1.1,0.9,1.7,1.3
					l14.2-15.8C374.5,370.8,374,370.3,373.5,369.8z"/>
			</g>
			<path class="st1" d="M352.1,324.8c-3.3,0.2-5.9,3-5.7,6.4c0.2,3.3,3,5.9,6.4,5.7c3.3-0.2,5.9-3,5.7-6.4
				C358.3,327.2,355.4,324.6,352.1,324.8z"/>
			<path class="st0" d="M274.8,315.4c-3.1-0.8-6.8,3.3-8.4,9.2c-1.5,5.9-0.3,11.3,2.8,12.1c3.1,0.8,6.8-3.3,8.4-9.2
				C279.2,321.7,277.9,316.2,274.8,315.4z"/>
			<path class="st1" d="M276.2,319.7c-1.3-0.3-3,1.4-3.6,4c-0.7,2.6-0.1,4.9,1.2,5.3c1.3,0.3,3-1.4,3.6-4
				C278.1,322.4,277.5,320.1,276.2,319.7z"/>
			<path class="st8" d="M411,333.4c-2.1-37.3-25.2-60.2-60.4-70.1c-20.3-5.7,5,2.1-16.2-4.6c11.4-2.4,13.8-2.7,25.7-0.5
				c39.1,7.3,63.1,35.6,68,74.4c0.2,4.7-3.5,8.8-8.2,9C415.3,341.8,411.3,338.2,411,333.4z"/>
			<path class="st7" d="M283.9,355c-11.7,25.9-18.7,29.1-40.4,46.3c-14.7,11.7-30,24.7-46.4,33.7c9.9-16.5,24.8-29.4,38.4-42.8
				c17.4-17.1,23.8-19.9,32.2-43c1.6-4.5,6.5-6.8,11-5.2C283.1,345.6,285.5,350.5,283.9,355z"/>
		</g>
		<path class="st11" d="M259.1,772.5c1.1,20.4,2.7,52.5-22.9,57.8c4,0.3,7.9,0.4,11.9,0.5c2.7,0.1,5.4,0.1,8,0
			c7.5-0.1,14.9-0.5,22.2-1.2c-0.2-0.9-0.4-1.8-0.6-2.6c-0.5-2.1-0.9-4.2-1.4-6.3c-0.5-2.5-1-5-1.5-7.5c-4.6-24.3-7.1-48.9-7.6-73.5
			c0-1.2,0-2.4-0.1-3.6c-0.1-4.5-0.1-9,0-13.4c0.1-3.5,0.2-7.1,0.3-10.6c0.1-1.9,0.2-3.9,0.3-5.8c1.1-20.6,3.5-41.1,7.4-61.3
			C255.2,652.6,258.4,758.7,259.1,772.5z"/>
		<path class="st2" d="M320,611c-25.8,11.2-61.6,10-85.9,0.3c-3-1.2-6.1-2.7-9.1-4.3c-1.3-0.8-2.6-1.6-3.9-2.4
			c-5.8-3.9-10.8-8.9-13.6-15.1c-0.7,4.3-1.3,8.7-1.5,13.1c2.2,2.9,4.8,5.4,7.7,7.6c1.3,1,2.7,2,4.2,2.9c3.6,2.2,7.3,4.1,11.1,5.6
			c14.6,5.9,33.4,8.6,51.6,7.5c0.6-0.6,1.3-1.2,2-1.7c2.4-1.5,5-1.9,7.8-1.3c1.6,0.4,3.3,0.8,4.9,1.1c3.4-0.6,6.7-1.4,9.9-2.4
			C310.4,618.4,315.3,614.8,320,611z"/>
		<linearGradient id="SVGID_2_" gradientUnits="userSpaceOnUse" x1="117.6713" y1="839.4065" x2="204.4934" y2="427.5804">
			<stop  offset="0" style="stop-color:#C92F27"/>
			<stop  offset="1" style="stop-color:#FFFFFF"/>
		</linearGradient>
		<path class="st12" d="M122,775.8c0.1-2.2,0.3-4.8,0.5-7.7c1.1-13.2,3.5-32.7,6.7-52.7c0.4-2.2,0.7-4.3,1.1-6.5
			c0.3-1.6,0.5-3.1,0.8-4.7c4.1-22.8,8.7-43.6,14.4-56.3c5.7-12.7,10.1-20.9,13.9-23c0.3-0.2,5.7-0.9,6.1-1.9
			c7.4-15.4,20.2-46.3,33-58.2l-3.3-0.3c-0.8,0.9-1.5,1.8-2.3,2.7c-7.5,9.2-12.6,19-18,29.3c0,0.1-0.1,0.2-0.1,0.2
			c-3.8,7.1-7.7,14.4-12.7,21.9c0,0-0.1,0.1-0.1,0.1c-0.9,1.3-4.1,2.1-6.9,3.1c-1.7,0.6-3.2,1.3-3.9,2.2c0,0,0,0.1-0.1,0.1
			c-2.5,3.5-4.9,7.7-7.2,12.4c-8.3,17.1-15,41.1-20,64.7c-0.3,1.7-0.7,3.3-1,5c-0.4,2.1-0.8,4.1-1.2,6.2c-2.7,14.3-4.7,28-6,39.5
			c-0.7,6.3-1.2,11.9-1.5,16.6c-0.2,3.4-2.9,7.5-3,10.9c-0.2,3.3,0.2,6,1,8.2c0.9,0.7,1.7,1.3,2.6,2c2.1,1.6,4.2,3.1,6.4,4.5
			c0.4,0.3,0.8,0.6,1.3,0.8c1.1,0.7,2.2,1.4,3.3,2.1c2.3,1.5,4.7,2.9,7.1,4.2c-3.3-2.5-5.7-3.8-7.4-4.8c-1.7-1-2.8-1.7-3.4-2.8
			c-0.3-0.6-0.5-1.3-0.6-2.3c-0.2-1.9,0-4.9,0.3-9.7C121.8,780,121.9,778,122,775.8z"/>
		<path class="st2" d="M245.5,259.6c0.7,0.7,1.4,1.3,2.2,1.8c1.5-1.5,2.9-3,4.4-4.4h-8.8C243.9,258,244.6,258.8,245.5,259.6z"/>
		<path class="st2" d="M241.8,263.4c-1.9-1.8-3.4-4-4.5-6.3h-9c-3.1,2.3-5.9,4.6-8.2,6.9c0.2,3.2,0.9,6.5,1.9,9.5
			c1.2,3.6,2.8,6.9,5,9.6c0.2-0.3,0.5-0.5,0.7-0.8c2.7-3.3,9.2-9.9,16.3-17C243.2,264.6,242.5,264,241.8,263.4z"/>
		<path class="st2" d="M223.6,287.3c-2.9-3.4-5.1-7.6-6.6-12.1c-0.7-2-1.2-4.1-1.6-6.2c-4.5,5.2-6.7,9.1-6.7,9.1l-4.5-19.3l-2.4,4.1
			c0.3,6.5,0.6,13,0.9,19.6c1,24.2-7.1,28-21.1,37.4c-4,7.5-9.9,13.9-16.8,19.7l-2.7,2.3l-3.5-0.3c-2.7-0.2-5.2-1-7.3-2.4l-7.4,11.9
			c0.1,0,0.1,0,0.2,0c19-5.3,48.3-22.6,58.7-35.8C211.3,304.4,217.5,295.2,223.6,287.3z"/>
		<path class="st2" d="M219.8,211.9c2.7,2.8,17.1,7.7,20.6,9.3c0,0,0,0,0,0c11.3,1.2,21.9-3.1,33.7-11.5v0l-3.2-1.9
			c-2.6,1.4-7.4,2.9-16.1,3.4c-13,0.8-28.6-6.6-37.1-11.3c-2.9-1.6-4.9-2.9-5.8-3.4c2.1,4.4,3.4,9.1,5.8,12.9
			C218.3,210.2,219,211.1,219.8,211.9z"/>
		<path class="st2" d="M213.2,212.8c-1.9-3.1-3.1-7.1-3.4-12.5l-0.8,2.2l-3.3,8.7c1,0.2,2.1,0.4,3.3,0.7
			C210.4,212.2,211.8,212.5,213.2,212.8z"/>
		<path class="st2" d="M209,217.9c-1.9-1.1-3.6-2.4-4.8-3.5c-0.8,1.5-2.4,4.5-5.6,10.2c0.2,1.2,0.4,2.3,0.6,3.3
			c0.3,1.8,0.5,3.6,0.7,5.4c0.3,2.9,0.5,5.8,0.7,8.5c0,0.6,0.1,1.2,0.1,1.7c0.1,1.1,0.2,2.3,0.2,3.4l0.4-0.7l6.4-11l1.2-2l6.9-11.8
			C214,220.7,211.4,219.4,209,217.9z"/>
	</g>
	<g>
		<path class="st1" d="M564.8,619.1c11.1,35.6,17.7,72.8,19.8,110c1.1,19.3,0.9,38.7-0.5,58c-1.4,19.2-4.1,38.3-8.1,57.1
			c-19.2,89.6-58.4,110.7-135.1,150c-2.7,1.4-5.7,1.5-8.5,0.3c-82.8-34.2-122.3-52.3-148.4-143.6c-10.3-36.1-15.8-73.7-16.6-111.3
			c-0.8-36.5,2.8-73.2,10.8-108.8c0.6-2.7,2.2-4.9,4.5-6.4c2.4-1.5,5-1.9,7.8-1.3c31.4,7.5,62.3,3.7,90.1-13.1
			c8.5-5.2,16.5-11.4,23.5-18.4c2.7-2.7,5.5-5.6,7.8-8.8c1.9-2.6,4.6-4,7.8-4.2c3.2-0.1,6,1.1,8.1,3.5c2.5,2.9,5.5,5.6,8.5,8.1
			c7.6,6.4,16,12,24.9,16.4c29.1,14.5,60.1,15.8,90.8,5.7c2.7-0.9,5.4-0.6,7.8,0.6C562.3,614.4,564,616.4,564.8,619.1z"/>
		<path class="st1" d="M562.4,619.8c22.3,71.3,26.7,150.6,11,223.8c-19,88.7-57.6,109.2-133.8,148.2c-2.1,1.1-4.3,1.1-6.4,0.3
			c-82.3-34-121.1-51.6-146.9-142c-20.1-70.4-21.8-147.5-5.7-218.8c0.5-2.1,1.6-3.7,3.4-4.8c1.8-1.1,3.8-1.4,5.8-0.9
			c32.1,7.7,63.6,3.7,92-13.4c8.7-5.3,16.8-11.6,24-18.8c2.7-2.7,5.8-5.9,8-9.1c1.4-1.9,3.5-3,5.9-3.1c2.4-0.1,4.5,0.8,6.1,2.6
			c2.5,2.9,5.8,5.9,8.8,8.4c7.7,6.6,16.4,12.2,25.4,16.8c29.6,14.8,61.3,16.2,92.8,5.9c2-0.7,4-0.5,5.9,0.5
			C560.5,616.3,561.8,617.8,562.4,619.8z"/>
		<path class="st0" d="M288.1,633c-18.9,84.3-9.8,161,5.6,215c24.6,86.1,59.5,102.7,142.5,137c77-39.4,111.7-58.7,129.8-143
			c11.9-55.4,15.7-134.9-10.9-219.9c-83,27.1-135.1-33.3-135.1-33.3S373,653.3,288.1,633z"/>
		<path class="st2" d="M304.3,645c30.3,3.5,60-2.8,86.1-18.6c8.5-5.1,16.5-11.2,23.8-17.9c3.7-3.4,9.2-3.6,13.2-0.5
			c7.8,6.1,16.3,11.5,25.2,15.9c27.3,13.6,57.4,17.5,87.3,11.6c5.3-1,10.5,2.2,11.8,7.4c14.1,53.2,17.9,109.4,11.1,164
			c-2.7,21.9-7.1,43.6-13.9,64.6c-18.2,56.2-60.4,75.6-108.8,101.4c-2.8,1.5-6,1.6-8.9,0.4c-50.3-21.8-94-37.7-116.7-92.2
			c-8.5-20.4-14.6-41.7-19.1-63.3c-11.3-53.9-12-110.1-2.3-164.3C294.1,648.1,299,644.4,304.3,645z"/>
		<path class="st1" d="M303.8,650.1c31.5,3.6,62.1-2.9,89.3-19.3c8.7-5.3,17.1-11.7,24.6-18.6c1.8-1.7,4.6-1.8,6.6-0.3
			c8,6.3,16.9,12,26,16.5c28.4,14.2,59.5,18.2,90.6,12c2.6-0.5,5.2,1.1,5.9,3.7c13.9,52.6,17.7,108.1,11,162.1
			c-2.7,21.5-7,43-13.7,63.7c-17.6,54.6-59.3,73.3-106.3,98.5c-1.4,0.8-3,0.8-4.4,0.2c-48.9-21.2-92-36.5-114-89.5
			c-8.3-20-14.4-41.1-18.8-62.3c-11.1-53.2-11.9-108.9-2.3-162.4C298.6,651.6,301.1,649.8,303.8,650.1z"/>
		<path class="st4" d="M541.9,645.4c-31.9,6.3-63.9,2.5-93.9-12.4c-8.6-4.3-18.2-10.3-26.9-17c-8.1,7.4-17.2,14.2-25.4,19.2
			c-28.6,17.3-60.2,23.8-92.5,20.1c-9.5,52.9-8.7,107.9,2.3,160.5c4.4,20.8,10.4,41.8,18.6,61.4c21.1,50.8,62.1,65.4,111.3,86.8
			c47.4-25.4,87-43.2,103.9-95.6c6.5-20.3,10.8-41.6,13.5-62.7C559.4,752.2,555.6,697.4,541.9,645.4z"/>
		<path class="st6" d="M541.9,645.4c-31.9,6.3-63.9,2.5-93.9-12.4c-8.6-4.3-18.2-10.3-26.9-17c-8.1,7.4-17.2,14.2-25.4,19.2
			c-28.6,17.3-60.2,23.8-92.5,20.1c-6.1,34.3-8,69.5-5.5,104.4c53.6,33.9,134.7,53.8,224.6,50.1c10.2-0.4,20.2-1.1,30.1-2.1
			c0.1-0.7,0.2-1.3,0.3-2C559.4,752.2,555.6,697.4,541.9,645.4z"/>
		<path class="st3" d="M391.8,906.5c-21.1-8.4-40.5-22.1-55.4-40.9c-2.3-2.9-4.5-5.9-6.5-9c-3.8-5.7-7.2-11.7-10.1-18.2
			c-0.6-1.4-1.3-2.9-1.9-4.3c-0.3-0.7-0.6-1.5-0.9-2.2c-0.8-2-1.6-4.1-2.4-6.2c-0.9-2.4-1.8-4.9-2.7-7.3
			c-5.2-14.9-9.3-30.4-12.6-45.7c-0.4-1.8-0.7-3.6-1.1-5.5c1.4,16.3,3.8,32.4,7.2,48.4c0.2,1.2,0.5,2.3,0.7,3.5
			c0.5,2.5,1.1,5,1.7,7.5c0.5,2.1,1,4.2,1.6,6.3c0.6,2.2,1.2,4.5,1.8,6.7c3.5,12.7,7.7,25.3,12.8,37.4c1.9,4.6,4,8.9,6.2,12.9
			c4.3,7.7,9.1,14.5,14.4,20.5c3.5,4,7.3,7.6,11.2,11c0.1,0.1,0.2,0.1,0.2,0.2c0.1,0.1,0.2,0.2,0.4,0.3c2.3,2,4.7,3.8,7.2,5.6
			c0.1,0.1,0.3,0.2,0.4,0.3c5.8,4.2,12,8.1,18.6,11.6c1.4,0.8,2.8,1.5,4.3,2.3c0.9,0.5,1.8,0.9,2.7,1.4c2.3,1.2,4.7,2.3,7,3.5
			c4.9,2.4,10,4.7,15.3,7c3.5,1.5,7,3,10.6,4.6c1.1,0.5,2.2,0.9,3.3,1.4c1.6,0.7,3.2,1.4,4.8,2.1c1.3,0.6,2.6,1.1,4,1.7
			c0.3,0.1,0.5,0.2,0.8,0.4c2.5-1.3,4.9-2.6,7.4-3.9c41.8-22.2,76.8-40.1,93.9-84.3c-20.5,24.8-50.3,38.1-81.6,40.6
			c-2.6,0.2-5.3,0.3-8,0.4c-15,0.3-30.1-1.8-44.7-6.4c-0.1,0-0.2-0.1-0.4-0.1c-2.9-0.9-5.9-1.9-8.7-3.1c-0.1,0-0.2-0.1-0.4-0.1
			C392.5,906.7,392.2,906.6,391.8,906.5z"/>
		<path class="st7" d="M309.3,664c-5.5,49.3-6.9,96.3,1.2,121.8c8.1,25.6,8.1,25.6,8.1,25.6l104-187.1
			C422.6,624.3,384,669.1,309.3,664z"/>
	</g>
</g>
</svg>
