<svg width="64" height="64" viewBox="0 0 64 64" fill="none" xmlns="http://www.w3.org/2000/svg">
  <path fill-rule="evenodd" clip-rule="evenodd" d="M26.8269 1.44335C30.028 -0.481118 33.972 -0.481117 37.1731 1.44335L54.8269 12.0567C58.028 13.9812 60 17.5377 60 21.3867V42.6133C60 46.4623 58.028 50.0188 54.8269 51.9433L37.1731 62.5567C33.972 64.4811 30.028 64.4811 26.8269 62.5567L9.17306 51.9433C5.97196 50.0188 4 46.4623 4 42.6133V21.3867C4 17.5377 5.97196 13.9812 9.17306 12.0567L26.8269 1.44335ZM34.5742 12.546C32.9813 11.5861 31.0187 11.5861 29.4257 12.546L17.2409 19.8883C15.648 20.8481 14.6667 22.6221 14.6667 24.5418V39.2263C14.6667 41.1461 15.648 42.92 17.2409 43.8799L29.4257 51.2221C31.0187 52.182 32.9813 52.182 34.5742 51.2221L46.7591 43.8799C48.352 42.92 49.3333 41.1461 49.3333 39.2263V24.5418C49.3333 22.6221 48.352 20.8481 46.7591 19.8883L34.5742 12.546Z" fill="#10222F"/>
  <path fill-rule="evenodd" clip-rule="evenodd" d="M26.8269 1.44335C30.028 -0.481118 33.972 -0.481117 37.1731 1.44335L54.8269 12.0567C58.028 13.9812 60 17.5377 60 21.3867V42.6133C60 46.4623 58.028 50.0188 54.8269 51.9433L37.1731 62.5567C33.972 64.4811 30.028 64.4811 26.8269 62.5567L9.17306 51.9433C5.97196 50.0188 4 46.4623 4 42.6133V21.3867C4 17.5377 5.97196 13.9812 9.17306 12.0567L26.8269 1.44335ZM34.5742 12.546C32.9813 11.5861 31.0187 11.5861 29.4257 12.546L17.2409 19.8883C15.648 20.8481 14.6667 22.6221 14.6667 24.5418V39.2263C14.6667 41.1461 15.648 42.92 17.2409 43.8799L29.4257 51.2221C31.0187 52.182 32.9813 52.182 34.5742 51.2221L46.7591 43.8799C48.352 42.92 49.3333 41.1461 49.3333 39.2263V24.5418C49.3333 22.6221 48.352 20.8481 46.7591 19.8883L34.5742 12.546Z" fill="#0974D7"/>
  </svg>
