<svg xmlns="http://www.w3.org/2000/svg" version="1.1" viewBox="0 0 512 200">
     <g id="semgrep-ellipsis" fill="#13bf95">
          <path d="m412-4e-7c55.22847 0 100 44.77153 100 100 0 55.22847-44.77153 100-100 100s-100-44.77153-100-100c1e-3 -22.75534 7.76297-44.82984 22.00391-62.57812 5.79468 6.661495 7.89062 10.6061 13.99609 20.57812h3.5c-3.0923-7.636258-7.63896-15.06492-13.76367-24.96093 18.96049-21.03049 45.94792-33.03689 74.26367-33.03906zm0 44c-30.92795 0-56 25.07205-56 56 0 30.92795 25.07205 56 56 56s56-25.07205 56-56c0-30.92794-25.07205-56-56-56z"/>
          <path d="m256 0c-55.22841 0-100 44.77158-100 100 8e-3 22.74213 7.76844 44.80216 22 62.54102 0.04153-0.05203 0.07004-0.09276 0.11133-0.14454 0.01252 0.01556 0.02458 0.03133 0.03711 0.04688 0.96022-1.20705 1.88357-2.443 2.78711-3.69336 4.19703-5.49557 7.10017-10.10355 9.92773-17.07812 0.25397-0.55649 0.51186-1.11021 0.75586-1.67188h3.38086c-0.72386 2.98756-1.74037 5.91654-2.99414 8.88477-2.79519 5.99462-6.2697 12.37905-9.80078 18.10937-0.05698 0.09227-0.10092 0.17302-0.1582 0.26563 18.94128 20.83966 45.79173 32.72679 73.95312 32.74023 28.16139-0.01344 55.01184-11.90057 73.95312-32.74023-0.05728-0.09261-0.10122-0.17336-0.1582-0.26563-3.53108-5.73032-7.00559-12.11475-9.80078-18.10937-1.25377-2.96823-2.27028-5.89721-2.99414-8.88477h3.38086c0.244 0.56167 0.50189 1.11539 0.75586 1.67188 2.82756 6.97457 5.7307 11.58255 9.92773 17.07812 0.90354 1.25036 1.82689 2.48631 2.78711 3.69336 0.01253-0.01555 0.02459-0.03132 0.03711-0.04688 0.04129 0.05178 0.0698 0.09251 0.11133 0.14454 14.23156-17.73886 21.992-39.79889 22-62.54102 0-55.22842-44.77159-100-100-100zm0 44c30.92792 0 56 25.07208 56 56 0 30.92792-25.07208 56-56 56s-56-25.07208-56-56c0-0.966497 0.02388-1.926386 0.07227-2.880859 1.49985-29.58868 25.96631-53.11914 55.92773-53.11914z"/>
          <path d="m100 0c-55.22848 0-100 44.77152-100 100 0 55.22847 44.77152 100 100 100 55.22847 0 100-44.77153 100-100-1e-3 -22.75534-7.76297-44.82984-22.00391-62.57812-5.79468 6.661495-7.89062 10.6061-13.99609 20.57812h-3.5c3.0923-7.636258 7.63896-15.06492 13.76367-24.96093-18.96049-21.03049-45.94792-33.03689-74.26367-33.03906zm0 44c30.92795 0 56 25.07205 56 56 0 30.92795-25.07205 56-56 56-30.92795 0-56-25.07205-56-56 0-30.92795 25.07205-56 56-56z"/>
     </g>
</svg>
