<svg xmlns="http://www.w3.org/2000/svg" width="48" height="56" viewBox="0 0 12 14">
    <g fill="none" transform="translate(.273)">
        <path fill="#3ECF8E" d="M6.58331113,6.33077948 L11.6238175,2.4479014 L11.6238175,2.4479014 L11.2060959,7.99085054 C11.2211336,8.91495832 10.9483693,9.82047503 10.4263491,10.5794359 L6.58331113,7.62507217 C6.38528073,7.46998821 6.26938579,7.23107476 6.26938579,6.97792583 C6.26938579,6.7247769 6.38528073,6.48586344 6.58331113,6.33077948 Z"/>
        <path fill="#272E41" d="M3.01875417,7.62507217 C2.82072377,7.46998821 2.70482883,7.23107476 2.70482883,6.97792583 C2.70482883,6.7247769 2.82072377,6.48586344 3.01875417,6.33077948 L10.2592605,0.73155674 C8.8076625,0.269755812 7.29739607,0.0233334477 5.77571619,-6.66133815e-14 C4.20929977,0.0333974525 2.65444039,0.2794543 1.15293138,0.73155674 C0.419515934,0.961133276 -0.057529416,1.67476042 0.00558960995,2.4479014 L0.423311129,7.99085054 C0.428880749,11.4516767 3.90432379,13.2242949 5.27445037,13.8714413 C5.61344719,14.0121506 5.99368139,14.0121506 6.33267822,13.8714413 C7.29277353,13.4733716 8.17818289,12.9118747 8.95039974,12.2113702 L3.01875417,7.62507217 Z"/>
    </g>
</svg>
