<?xml version="1.0" encoding="UTF-8"?>
<svg xmlns="http://www.w3.org/2000/svg" width="200" height="200" viewBox="30 25 140 155">
   <g fill="none" fill-rule="evenodd">
      <path fill="#FFF" d="M123.99 136.43l2.48 22.85 5.49-3.97-3.97-36.51c2.94-3.82 6.37-8.55 7.27-10.84 1.46-3.71-.47-22.71-1.44-31.45l5.97-16.04v-.52c0-8.9-13.18-33.54-14.68-36.32l-1.02-1.89c-1-1.95-1.75-3.34-2.03-3.86l-3.7-6.85-5.3 36.7-1.95 14.13c-1.44-.44-3.25-.93-5.23-1.29-1.76-2.02-3.72-3.89-5.69-3.89-1.03 0-1.96 1.4-2.82 3.49-3.19.32-6.16 1.09-8.27 1.76l-1.73-14.21-1.87-12.85c0-.02-3.45-23.83-3.45-23.83l-3.78 6.85c-.34.63-1.37 2.54-2.71 5.16l-.33.59c-1.51 2.78-14.79 27.42-14.79 36.32v.52l6.08 16.04c-.97 8.74-2.83 27.74-1.37 31.45.91 2.32 4.41 7.11 7.36 10.95l-3.98 36.76 5.49 3.83 2.48-22.84.71.5.19-1.78c.37 1.78.85 3.56 1.46 5.22 1.26 3.42 3.48 6.01 6.33 7.54.17 8.18 7.85 12.6 15.09 12.6 7.18 0 14.8-4.42 14.96-12.6 2.84-1.53 5.06-4.12 6.32-7.54.63-1.71 1.12-3.55 1.49-5.38l.19 1.75.75-.55z" />
      <path fill="#FFF" d="M154.33 145.38l-54.17 38.26-54.17-38.26V56.17s20.03-7.44 54.24-7.44 54.1 7.44 54.1 7.44v89.21z" />
      <path fill="#3B3B63" d="M123.47 121.31h-23.35V82.33l-23.69 37.84-3.69 38.86 27.02 19.23.36.26 27.62-19.63z" />
      <path fill="#DBDBDB" d="M99.723 178.122l-50.27-35.53v-82.84s18.59-6.91 50.33-6.91 50.2 6.91 50.2 6.91v82.85l-50.26 35.52z" />
      <path fill="#C6C6C6" d="M100.443 52.832h-.07v125.29l50.27-35.53v-82.84s-18.45-6.92-50.2-6.92z" />
      <path fill="#3B3B63" d="M127.61 158.81l-4.27-37.5H99.99v57.12z" />
      <path fill="#53537A" d="M72.74 159.03l27.38 19.49V82.33l-23.69 37.84z" />
      <path fill="#BC9375" d="M111.9 147.95c0 6.43-6.06 9.62-11.62 9.62s-11.74-3.19-11.74-9.62" />
      <path fill="#083251" d="M108.5 144.31c0 7.54-4.1 9.56-8.27 9.56s-8.27-2.02-8.27-9.56" />
      <path fill="#FFF" d="M100.22 151.28c-4.46 0-6.63-3.24-6.63-9.91h2.13c0 7.81 3.04 7.81 4.5 7.81s4.5 0 4.5-7.81h2.13c0 6.66-2.16 9.91-6.63 9.91z" />
      <path fill="#C49A7E" d="M135.644 64.517c0-8.13-13.87-33.73-13.87-33.73l-4.69 32.46-4.21 6.85-12.62.51-.05.1v-.1l-12.62-.51-4.21-6.85-4.69-32.46s-13.87 25.59-13.87 33.73l5.86 15.63s-2.96 26.25-1.61 29.69c1.34 3.44 10.69 14.93 10.69 14.93s-.03 9.66 2.53 16.61c1.83 4.96 5.85 6.97 9.7 6.97 5.9 0 8.21-5.37 8.21-5.37s2.36 5.37 8.26 5.37c3.85 0 7.87-2.01 9.7-6.97 2.56-6.95 2.53-16.61 2.53-16.61s9.35-11.5 10.69-14.93c1.35-3.44-1.61-29.69-1.61-29.69l5.88-15.63z" />
      <path fill="#D8B7A0" d="M100.224 70.657l-.02.05v-.1l-12.62-.51-4.21-6.85-4.69-32.46s-13.87 25.59-13.87 33.73l5.86 15.63s-2.96 26.25-1.61 29.69c1.34 3.44 10.69 14.93 10.69 14.93s-.02 9.66 2.53 16.61c1.83 4.96 5.85 6.97 9.7 6.97 5.9 0 8.21-5.37 8.21-5.37s.01.02.03.05v-72.37z" />
      <path fill="#3B3B63" d="M129.91 81.68c-1.08-2.23.45-7.51.45-7.51-8.76-8.9-10.95-27.45-10.95-27.45-1.64 5.85-5.19 23.08-5.19 23.08s-6.54-2.41-13.97-2.42h-.06c-.41 0-.81.01-1.21.03v72.74l.56.81v-.4h.34v.4-.4h.68v.4-.4h.35v.4l6.05-8.76 1.32-24.6 7.54 8.52 9.71 2.81s3.63-2.57 3.63-2.56c1.54-2.14 2.05-3.96 2.43-4.91 1.35-3.45-1.68-29.78-1.68-29.78z" />
      <path fill="#53537A" d="M100.29 67.39h-.03c-7.44.01-13.98 2.42-13.98 2.42s-3.56-17.24-5.19-23.08c0 0-2.19 18.55-10.95 27.45 0 0 1.53 5.28.45 7.51 0 0-3.03 26.33-1.68 29.77.37.95.89 2.77 2.43 4.91 0-.01 3.64 2.56 3.64 2.56l9.71-2.81 7.54-8.52 1.32 24.6 6.05 8.76v-.4h.35v.4-.4h.34V67.39z" />
      <path fill="#333152" d="M117.839 98.154h-11.35v.12c0 3.92 3.43 7.1 7.44 7.1 4.02 0 7.44-3.18 7.44-7.1v-.12h-3.53z" />
      <path fill="#FFF" d="M109.339 98.154v.12c0 2.33 1.9 4.22 4.25 4.22 2.36 0 4.25-1.89 4.25-4.22v-.12h-8.5z" />
      <path fill="#333152" d="M114.899 98.154h-1.99c-.02 0-.04.01-.05.01.25.05.38.61.33.98-.08.56-.57.96-1.12.97.16.74.77 1.33 1.58 1.44 1.03.14 1.98-.56 2.13-1.58.1-.75-.27-1.82-.88-1.82zm-24.433 0h-11.35v.12c0 3.92 3.43 7.1 7.44 7.1 4.02 0 7.45-3.18 7.45-7.1v-.12h-3.54z" />
      <path fill="#FFF" d="M81.956 98.154v.12c0 2.33 1.9 4.22 4.25 4.22 2.36 0 4.25-1.89 4.25-4.22v-.12h-8.5z" />
      <path fill="#333152" d="M87.526 98.154h-2c-.02 0-.04.01-.05.01.25.05.38.61.33.98-.08.56-.56.96-1.12.97.16.74.77 1.33 1.58 1.44 1.03.14 1.99-.56 2.13-1.58.1-.75-.26-1.82-.87-1.82z" />
      <path fill="#C49A7E" d="M116.99 94.8c.48-.52 4.52-5.06-.89-5.06-4.89 0-8.4 3.9-9.33 5.06h10.22z" />
      <path fill="#D8B7A0" d="M93.66 94.8c-.93-1.16-4.45-5.06-9.34-5.06-5.41 0-1.36 4.54-.89 5.06h10.23z" />
      <path fill="#53537A" d="M76.51 96.19H97.2v1.93H76.51z" />
      <path fill="#333152" d="M138.4 64.58c0-8.59-12.72-32.37-14.17-35.05L120.17 22l-5.82 40.35-2.69 4.38c-2.6-.86-7.01-2.07-11.46-2.07-4.44 0-8.83 1.2-11.41 2.06l-2.69-4.38-2.05-14.14c0-.02.01-.05.01-.07h-.02L80.26 22l-4.15 7.53c-1.46 2.68-14.27 26.46-14.27 35.05v.5l5.87 15.48c-.94 8.44-2.73 26.77-1.32 30.35.88 2.24 4.25 6.87 7.11 10.57l-3.85 35.48 5.29 3.7 2.8-25.81c.4 2.51 1 5.16 1.88 7.55 1.21 3.3 3.36 5.8 6.11 7.28.16 7.9 7.58 12.16 14.57 12.16 6.93 0 14.28-4.26 14.44-12.16 2.74-1.48 4.88-3.98 6.1-7.27.92-2.49 1.52-5.26 1.92-7.86l2.81 25.9 5.29-3.83-3.84-35.24c2.83-3.69 6.14-8.25 7.01-10.46 1.41-3.58-.46-21.91-1.39-30.35l5.77-15.48-.01-.51zm-70.74-.45c.32-4.46 5-15.13 9.47-24.13l1.19 8.23c-.45 3.08-2.53 15.14-8.1 22.74l-2.56-6.84zm32.63 92.1c-3.11 0-7.54-1.37-8.64-5.02.11 0 .22.01.34.01.6 0 1.17-.05 1.71-.13 1.58 2.18 4.04 2.84 6.53 2.84 2.5 0 4.96-.66 6.54-2.84.54.07 1.1.13 1.7.13.12 0 .23-.01.35-.01-1.1 3.65-5.47 5.02-8.53 5.02zm-3.6-5.98c.76-.33 1.44-.73 2.04-1.17.55.16 1.08.16 1.49.16.4 0 .93 0 1.47-.16.6.43 1.29.83 2.05 1.16-.95.7-2.12 1.1-3.52 1.1s-2.57-.39-3.53-1.09zm32.06-41.36c-.82 2.09-6.49 9.55-10.26 14.19l-.63.78v.99c0 .09 0 9.24-2.36 15.64-1.7 4.63-5.49 5.13-7.04 5.13-3.92 0-5.61-3.55-5.66-3.68l-.22-3.33h-4.76l-.21 3.31c-.07.15-1.72 3.69-5.61 3.69-1.55 0-5.33-.49-7.04-5.12-2.35-6.38-2.36-15.55-2.36-15.64v-.99l-.63-.77c-3.77-4.63-9.44-12.1-10.24-14.13-.64-2.21.42-16.46 1.76-28.41l.07-.66-1.06-2.83c3.65-3.79 6.21-9 7.97-13.96l.17 1.21 5.79 9.42 2.26-.96c.06-.02 5.86-2.47 11.5-2.47 5.6 0 11.5 2.45 11.56 2.47l2.26.95 5.79-9.42.23-1.57c1.75 5.01 4.3 10.31 7.97 14.18l-1.11 2.97.07.66c1.35 11.93 2.41 26.19 1.79 28.35zm1.53-38.08c-6.02-8.37-7.9-21.98-8.07-23.22l1.1-7.59c4.47 9 9.15 19.67 9.47 24.13l-2.5 6.68z" />
      <path fill="#333152" d="M106.903 128.965h-13.31s-1.79 3.09-1.79 4.09c0 2.98 8.19 7.71 8.19 7.71s8.65-4.88 8.65-7.71c0-1.35-1.74-4.09-1.74-4.09z" />
      <path fill="#C49A7E" d="M104.336 138.037c-.74-1.3-1.7-1.54-2.14-.54-.44 1.01-.19 2.88.55 4.18.74 1.3 1.7 1.54 2.14.54.44-1.01.19-2.88-.55-4.18z" />
      <path fill="#D8B7A0" d="M96.116 138.037c-.74 1.3-.99 3.17-.55 4.18.44 1.01 1.39.77 2.14-.54.74-1.3.99-3.17.55-4.18-.44-1-1.4-.77-2.14.54z" />
   </g>
</svg>
