<?xml version="1.0" standalone="no"?>
<!DOCTYPE svg PUBLIC "-//W3C//DTD SVG 20010904//EN"
 "http://www.w3.org/TR/2001/REC-SVG-20010904/DTD/svg10.dtd">
<svg version="1.0" xmlns="http://www.w3.org/2000/svg"
 width="500.000000pt" height="500.000000pt" viewBox="0 0 500.000000 500.000000"
 preserveAspectRatio="xMidYMid meet">

<g transform="translate(0.000000,500.000000) scale(0.100000,-0.100000)"
fill="#000000" stroke="none">
<path d="M430 4255 c0 -3 250 -438 555 -967 305 -528 555 -963 555 -965 0 -1
-180 -3 -400 -3 l-400 0 0 -75 0 -75 447 -2 446 -3 431 -747 c237 -411 433
-748 436 -747 3 0 199 336 435 747 l431 747 447 3 447 2 0 75 0 75 -400 0
c-220 0 -400 2 -400 4 0 2 248 433 551 957 303 525 553 960 556 967 4 9 -413
12 -2066 12 -1139 0 -2071 -2 -2071 -5z m3833 -223 c-21 -38 -252 -438 -513
-890 l-475 -822 -775 0 -776 0 -494 857 c-272 471 -503 871 -513 890 l-17 33
1801 0 1801 0 -39 -68z m-1087 -1878 c-10 -25 -658 -1147 -670 -1161 -8 -8
-98 140 -343 565 -182 318 -335 585 -338 595 -7 16 29 17 675 17 629 0 682 -1
676 -16z"/>
</g>
</svg>
