<?xml version="1.0" encoding="utf-8"?>
<!-- Generator: Adobe Illustrator 23.0.3, SVG Export Plug-In . SVG Version: 6.00 Build 0)  -->
<svg version="1.1" id="Calque_1" xmlns="http://www.w3.org/2000/svg" xmlns:xlink="http://www.w3.org/1999/xlink" x="0px" y="0px"
	 viewBox="0 0 512 512" style="enable-background:new 0 0 512 512;" xml:space="preserve">
<style type="text/css">
	.st0{fill:#F3702A;}
</style>
<title>SonarCloud icon</title>
<g id="Illustration_6">
	<path class="st0" d="M427.5,237.9c-14.5-17.7-33.9-30.7-55.8-37.5c0-0.4,0-0.9,0-1.4c0.6-64.3-51-116.9-115.3-117.5
		s-116.9,51-117.5,115.3c0,0.7,0,1.4,0,2.2c0,0.5,0,1.1,0,1.6C77.6,220,43.6,285.4,63,346.7s84.8,95.3,146.1,75.9
		c17.6-5.5,33.6-15.2,46.7-28.1c45.8,45.1,119.4,44.6,164.6-1.1C462.1,351,465.2,284,427.5,237.9L427.5,237.9z M337.5,398.8
		c-48.1,0-87.1-39-87.1-87.1c0.2-8.1-6.2-14.8-14.3-15s-14.8,6.2-15,14.3c0,0.3,0,0.5,0,0.8c0,21,5.7,41.6,16.4,59.6
		c-32.9,35-88,36.6-123,3.7s-36.6-88-3.7-123c23.9-25.4,60.6-34,93.3-22l0.3,0.1c3.3,1.1,8.1,3.3,9.5,4.6c5.9,5.5,15.2,5.2,20.7-0.8
		c5.5-5.9,5.2-15.2-0.8-20.7c-0.3-0.3-0.6-0.5-0.9-0.7c-6.4-5.5-16.5-9.2-19-10c-12.8-4.7-26.4-7.1-40.1-7.1c-1.9,0-3.8,0-5.6,0.1
		c2-48.1,42.6-85.4,90.7-83.3s85.4,42.6,83.3,90.7c-1.1,26.9-14.6,51.7-36.5,67.3c-6.7,4.6-8.3,13.7-3.7,20.4s13.7,8.3,20.4,3.7
		c0.1-0.1,0.2-0.2,0.4-0.3c21.8-15.6,37.6-38.2,44.7-64c45.1,16.6,68.2,66.7,51.6,111.8C406.5,376,373.9,398.7,337.5,398.8
		L337.5,398.8z"/>
</g>
</svg>
