<?xml version="1.0" encoding="UTF-8"?><svg id="Layer_2" xmlns="http://www.w3.org/2000/svg" viewBox="0 0 207 234"><defs><style>.cls-1{opacity:.2;}.cls-1,.cls-2,.cls-3,.cls-4,.cls-5,.cls-6,.cls-7,.cls-8,.cls-9{stroke-width:0px;}.cls-1,.cls-5{fill:#242b5a;}.cls-2{fill:#26265d;}.cls-3{fill:#4161aa;}.cls-4{fill:#244583;}.cls-6{fill:#cc2348;}.cls-7{fill:#fff;}.cls-8{fill:#e73e64;}.cls-9{fill:#001369;}</style></defs><path class="cls-7" d="M84.29,111.96c.54.08,1.08.17,1.62.24,0-.02.02-.03.03-.05l-1.65-.2Z"/><path class="cls-7" d="M130.26,137.53c.28.57.55,1.15.79,1.77,1.47,3.78,3.13,9.55,1.53,14.55-1.88-1.58-3.54-2.74-5.06-3.6-.95,3.06-2.7,6.27-5.92,8.39-1.49.98-2.7,2.42-3.66,3.9,2.02,7.99,6.7,19.4,16.24,28.24,5.99,5.55,4.67,11.15.62,16.02.42,2.68-.12,5.6-2.39,8.59,6.1-1.84,11.95-4.27,17.49-7.2-8.03-25.59-12.76-54.55-15.37-75.34-.94,1.81-2.34,3.32-4.25,4.68Z"/><path class="cls-7" d="M134.51,132.84c-.1-.82-.2-1.62-.3-2.41-1.76,1.61-3.91,2.8-6.32,3.41.9,1.09,1.69,2.32,2.37,3.68,1.91-1.37,3.31-2.87,4.25-4.68Z"/><path class="cls-1" d="M134.51,132.84c-.1-.82-.2-1.62-.3-2.41-1.76,1.61-3.91,2.8-6.32,3.41.9,1.09,1.69,2.32,2.37,3.68,1.91-1.37,3.31-2.87,4.25-4.68Z"/><path class="cls-7" d="M84.09,120.58h-.02c-.8,9.95,1.92,14.04,10.64,18.11.42-1.35,1.02-2.88,1.84-4.4-6.73-1.11-11.95-6.75-12.46-13.71Z"/><path class="cls-1" d="M84.09,120.58h-.02c-.8,9.95,1.92,14.04,10.64,18.11.42-1.35,1.02-2.88,1.84-4.4-6.73-1.11-11.95-6.75-12.46-13.71Z"/><path class="cls-7" d="M112.16,101.32s-11.68-12.84-22.61-14c-7.21-.76-9.86,6.58-10.44,12.69,4.34-16,33.05,1.31,33.05,1.31Z"/><path class="cls-1" d="M112.16,101.32s-11.68-12.84-22.61-14c-7.21-.76-9.86,6.58-10.44,12.69,4.34-16,33.05,1.31,33.05,1.31Z"/><path class="cls-2" d="M133.85,106.22c-.73-.69-1.55-1.26-2.19-1.64l2.19,1.64Z"/><path class="cls-2" d="M134.22,130.44c.1.79.2,1.59.3,2.41,2.62,20.79,7.34,49.74,15.37,75.34,2.25-1.19,4.45-2.47,6.6-3.83-6.78-14.78-13-37.89-18.44-79.42-.85,2.11-2.17,3.99-3.83,5.5Z"/><path class="cls-8" d="M97.96,84.07c8.38,3.92,15.76,10.91,15.78,10.94-.97-1.06-7.94-7.4-15.78-10.94Z"/><path class="cls-7" d="M113.87,119.47c0,2.32-.54,4.51-1.47,6.47.39.04.77.08,1.18.14,4.62.72,9.6,2.75,13.31,6.63,6.78-1.35,11.57-7.73,10.84-14.81-.17-1.67-.65-3.24-1.35-4.66-.66.39-1.33.65-1.98.85-.93.28-1.85.44-2.76.55-.76.09-1.51.14-2.25.17,1.1,1.22,1.78,2.83,1.8,4.6.04,3.84-3.01,6.99-6.82,7.03-3.81.04-6.93-3.04-6.97-6.88-.01-.99.19-1.93.55-2.79-.41-.45-.68-1.04-.68-1.7,0-.39.09-.76.24-1.1-.52-.08-1.05-.15-1.57-.23-.65-.1-1.29-.23-1.94-.34-.38.25-.76.45-1.15.63.65,1.69,1.03,3.52,1.03,5.44Z"/><path class="cls-2" d="M136.37,113.24c.7,1.42,1.18,2.99,1.35,4.66.73,7.08-4.06,13.46-10.84,14.81.35.36.68.74,1.01,1.14,2.41-.61,4.56-1.8,6.32-3.41,1.66-1.52,2.98-3.39,3.83-5.5.89-2.2,1.27-4.64,1.01-7.16-.2-1.93-.76-3.73-1.6-5.35-.09.08-.17.18-.25.25-.28.22-.56.4-.84.57Z"/><path class="cls-2" d="M119.81,117.59c-.74,0-1.4-.31-1.87-.81-.36.86-.56,1.8-.55,2.79.04,3.84,3.16,6.92,6.97,6.88,3.81-.04,6.86-3.19,6.82-7.03-.02-1.78-.7-3.39-1.8-4.6-1.04.04-2.06.04-3.09,0-1.36-.05-2.7-.15-4.04-.27.03.15.05.31.05.47.02,1.4-1.1,2.56-2.49,2.57Z"/><path class="cls-7" d="M117.94,116.77c.47.5,1.13.82,1.87.81,1.39-.01,2.51-1.17,2.49-2.57,0-.16-.02-.32-.05-.47-1.59-.15-3.18-.34-4.75-.57-.15.33-.25.7-.24,1.1,0,.66.27,1.25.68,1.7Z"/><path class="cls-7" d="M134.79,206.8c-4.08,4.9-10.93,9.05-15.89,11.64,4.59-.71,9.08-1.72,13.44-3.03.02,0,.04-.01.06-.02,2.27-2.99,2.81-5.91,2.39-8.59Z"/><path class="cls-1" d="M134.79,206.8c-4.08,4.9-10.93,9.05-15.89,11.64,4.59-.71,9.08-1.72,13.44-3.03.02,0,.04-.01.06-.02,2.27-2.99,2.81-5.91,2.39-8.59Z"/><path class="cls-7" d="M91.58,188.9c-2.95,8.65-3.19,19.48,14.93,18.15l3.17,12.36c.94-.06,1.88-.12,2.82-.21l-3.11-18.8s-16.42,2.78-17.81-11.5Z"/><path class="cls-1" d="M91.58,188.9c-2.95,8.65-3.19,19.48,14.93,18.15l3.17,12.36c.94-.06,1.88-.12,2.82-.21l-3.11-18.8s-16.42,2.78-17.81-11.5Z"/><path class="cls-2" d="M134.79,206.8c4.05-4.87,5.37-10.47-.62-16.02-9.53-8.83-14.22-20.25-16.24-28.24-.62.96-1.14,1.93-1.55,2.81,2.03,7.3,7.28,20.15,14.79,28.15.62.66,1.26,1.29,1.91,1.88,6.14,5.54-15.69,17.77-15.69,17.77l-3.71-15.61c2.2-2.49,3.45-4.72,4.04-6.7,2.36-7.89-5.79-11.75-6.02-11.85.18.19,4.4,4.56,3.63,9.65-.12.81-.37,1.64-.78,2.47-3.05,6.18-17.62,1.25-16.86-12.8.44-8.14,3.9-12.84,6.75-15.36.35-.31.68-.57,1-.82-1.21-1.01-2.29-2.02-3.26-3.02-4.26,5.69-10.2,15.54-10.68,26.77-.05,1.08-.02,2.08.07,3.01,1.38,14.28,17.81,11.5,17.81,11.5l3.11,18.8c2.15-.19,4.29-.44,6.4-.76,4.96-2.59,11.81-6.74,15.89-11.64Z"/><path class="cls-8" d="M105.45,162.14c-.32.24-.65.51-1,.82h0s-11.25,22.94,10.89,25.69c.77-5.09-3.44-9.47-3.63-9.65.23.1,8.38,3.96,6.02,11.85,3.01,9.53,13.27,8.02,13.44,2.65-7.51-7.99-12.76-20.85-14.79-28.15-.84,1.78-1.24,3.15-1.24,3.15-3.9-2.03-7.08-4.19-9.69-6.36Z"/><path class="cls-6" d="M104.45,162.95h0c-2.84,2.52-6.31,7.22-6.75,15.35-.77,14.05,13.81,18.98,16.86,12.8.41-.83.66-1.66.78-2.47-22.13-2.75-10.89-25.69-10.89-25.69Z"/><path class="cls-2" d="M119.13,156.16c-1.21.54-2.24,1.59-3.07,2.76-1.61,2.26-2.46,4.93-2.46,4.93-7.97-3.81-11.89-9.59-13.79-13.75-.85-1.88-1.29-3.43-1.5-4.32-1.43-.72-2.94-1.57-4.6-2.61,0,0,.36,7.64,8.47,15.96.97,1,2.05,2.01,3.26,3.02,2.61,2.17,5.8,4.33,9.69,6.36,0,0,.41-1.37,1.24-3.15.41-.88.93-1.85,1.55-2.81.96-1.48,2.17-2.92,3.66-3.9,3.22-2.13,4.98-5.34,5.92-8.39-1.16-.65-2.23-1.12-3.23-1.45-.94,2.69-2.61,6.24-5.16,7.37Z"/><path class="cls-3" d="M99.81,150.09c1.89,4.16,5.82,9.94,13.79,13.75,0,0,.86-2.67,2.46-4.93.83-1.16,1.85-2.22,3.07-2.76-1.21.54-12.06.38-19.32-6.06Z"/><path class="cls-4" d="M119.13,156.16c2.54-1.13,4.22-4.67,5.16-7.37-8.19-2.68-12.28,3.9-25.97-3.02.21.89.65,2.44,1.5,4.32,7.26,6.44,18.1,6.6,19.32,6.06Z"/><path class="cls-2" d="M113.57,126.09c-.4-.06-.79-.1-1.18-.14-.35.73-.74,1.42-1.19,2.08,5.4.03,17.65,3.64,18.69,20.65,0,0-5.35-5.17-13.14-3.76-7.8,1.41-11.07,1.75-18.79-2.96,0,0,.23-3.86,2.24-7.51-.41.03-.82.06-1.24.06-.82,0-1.62-.08-2.4-.21-.82,1.52-1.42,3.05-1.84,4.4-.8,2.56-1,4.47-1,4.47,1.65,1.04,3.17,1.89,4.6,2.61,13.69,6.92,17.79.34,25.97,3.02,1.01.33,2.08.8,3.23,1.45,1.52.86,3.18,2.02,5.06,3.6,1.6-5-.06-10.77-1.53-14.55-.24-.62-.51-1.2-.79-1.77-.68-1.36-1.47-2.58-2.37-3.68-.32-.4-.66-.77-1.01-1.14-3.72-3.88-8.7-5.91-13.31-6.63Z"/><path class="cls-3" d="M100.2,134.44c-2.01,3.65-2.24,7.51-2.24,7.51,7.72,4.7,10.99,4.37,18.79,2.96,7.8-1.41,13.14,3.76,13.14,3.76-1.04-17-13.29-20.62-18.69-20.65-2.47,3.59-6.45,6.03-11,6.42Z"/><path class="cls-7" d="M88.52,112.46s-.06.02-.09.03c.64.07,1.27.16,1.91.22l-.31-.07-1.5-.18Z"/><path class="cls-7" d="M85.38,119.47c0,7.55,6.09,13.69,13.58,13.69s13.57-6.14,13.57-13.69c0-1.76-.34-3.43-.94-4.98-1.7.53-3.37.71-5.01.8-.59.03-1.17.02-1.75.02.92,1.18,1.47,2.66,1.47,4.28,0,3.84-3.09,6.95-6.9,6.95s-6.9-3.11-6.9-6.95c0-.99.21-1.93.58-2.78-.41-.45-.67-1.05-.67-1.71,0-.37.08-.71.22-1.03-.6-.11-1.2-.21-1.79-.32-1.21-.23-2.4-.5-3.6-.76-.13.06-.23.11-.31.15-.99,1.9-1.54,4.05-1.54,6.33Z"/><path class="cls-2" d="M85.93,112.15s-.02.03-.03.05c.08.01.17.02.26.03l-.03-.06-.19-.02Z"/><path class="cls-2" d="M96.55,134.29c.78.13,1.58.21,2.4.21.42,0,.83-.03,1.24-.06,4.55-.38,8.53-2.83,11-6.42.45-.66.85-1.35,1.19-2.08.94-1.96,1.47-4.15,1.47-6.47,0-1.92-.37-3.75-1.03-5.44-.26.12-.51.22-.77.31-.17.06-.33.09-.49.15.6,1.54.94,3.22.94,4.98,0,7.55-6.09,13.69-13.57,13.69s-13.58-6.14-13.58-13.69c0-2.28.55-4.43,1.54-6.33-.1.06-.16.09-.17.09l-.23-.39c-.28-.06-.57-.12-.85-.18-1.04,2.05-1.64,4.36-1.64,6.81,0,.37.03.74.06,1.11.51,6.96,5.73,12.6,12.46,13.71Z"/><path class="cls-2" d="M94.93,117.65c-.74,0-1.4-.32-1.86-.83-.37.85-.58,1.79-.58,2.78,0,3.84,3.09,6.95,6.9,6.95s6.9-3.11,6.9-6.95c0-1.62-.55-3.1-1.47-4.28-1.2,0-2.4-.03-3.59-.12-1.28-.1-2.55-.24-3.81-.39.01.1.03.2.03.3,0,1.4-1.13,2.54-2.52,2.54Z"/><path class="cls-7" d="M93.07,116.81c.46.51,1.12.83,1.86.83,1.39,0,2.52-1.14,2.52-2.54,0-.1-.02-.2-.03-.3-1.61-.2-3.21-.45-4.79-.73-.14.32-.22.66-.22,1.03,0,.66.26,1.26.67,1.71Z"/><path class="cls-5" d="M86.13,112.18l.03.06c.76.1,1.51.17,2.27.26.03-.01.06-.02.09-.03l-2.39-.28Z"/><path class="cls-5" d="M86.92,113.14c.08-.04.18-.09.31-.15-.24-.05-.48-.1-.71-.15l.23.39s.06-.03.17-.09Z"/><path class="cls-6" d="M117.73,190.84c-.59,1.98-1.84,4.21-4.04,6.7l3.71,15.61s21.83-12.22,15.69-17.77c-.65-.59-1.29-1.22-1.91-1.88-.17,5.37-10.44,6.88-13.44-2.65Z"/><path class="cls-7" d="M80.67,113.17l2.9-1.04c-.82-.2-1.65-.4-2.46-.62l-.44,1.66Z"/><path class="cls-7" d="M133.85,106.22l-2.19-1.64c-.32-4.8-.91-6.83-1.62-9.32-.64-2.28-1.43-3.99-1.45-4.05,0,0-9.07,7.79-16.43,10.11,0,0-28.71-17.31-33.05-1.31,0,0,0,0,0,.01h0s-3.79,57.99-9.94,113.32c10.78,4.04,22.44,6.25,34.63,6.25,1.97,0,3.93-.07,5.87-.19l-3.17-12.36c-18.12,1.33-17.87-9.49-14.93-18.15-.09-.93-.12-1.93-.07-3.01.48-11.23,6.42-21.08,10.68-26.77-8.11-8.32-8.47-15.96-8.47-15.96,0,0,.19-1.92,1-4.47-8.72-4.07-11.44-8.16-10.64-18.12h.02c-.03-.36-.06-.72-.06-1.1,0-2.45.6-4.76,1.64-6.81-.71-.16-1.4-.35-2.1-.53l-2.9,1.04.44-1.66c-.14-.04-.29-.07-.44-.11.15.03.3.04.45.07,1.05.18,2.11.33,3.17.49l1.65.2.19.02,2.39.28,1.5.18.31.07c.21.02.42.05.63.07,3.44.33,6.89.53,10.31.46,1.71-.03,3.41-.14,5.06-.37,1.64-.24,3.27-.6,4.63-1.23.67-.32,1.26-.71,1.66-1.14.38-.45.6-.88.64-1.4.12-1.04-.45-2.44-1.24-3.74l1.34-.72,2.08-1.13c.42.88.79,1.8,1.05,2.82.25,1.02.37,2.17.12,3.36-.17.91-.62,1.77-1.2,2.46.23.02.46.05.69.07,3.4.27,6.81.42,10.17.27,1.68-.07,3.34-.23,4.93-.54.79-.16,1.56-.36,2.25-.63.69-.27,1.3-.62,1.69-1,.38-.4.49-.71.48-1.15-.13-1.12-.89-2.14-1.78-2.98Z"/><path class="cls-2" d="M116.63,109.7c.25-1.2.13-2.35-.12-3.36-.25-1.02-.63-1.95-1.05-2.82l-2.08,1.13-1.34.72c.79,1.3,1.35,2.7,1.24,3.74-.04.52-.26.96-.64,1.4-.4.43-.99.82-1.66,1.14-1.36.63-2.99.99-4.63,1.23-1.65.23-3.35.34-5.06.37-3.42.07-6.87-.14-10.31-.46-.21-.02-.42-.05-.63-.07-.64-.06-1.27-.15-1.91-.22-.76-.09-1.51-.16-2.27-.26-.09-.01-.17-.02-.26-.03-.54-.07-1.08-.17-1.62-.24-1.06-.15-2.11-.31-3.17-.49-.15-.03-.3-.04-.45-.07.14.04.29.07.44.11.82.22,1.64.41,2.46.62.7.17,1.4.37,2.1.53.28.06.57.12.85.18.24.05.48.1.71.15,1.2.26,2.39.53,3.6.76.6.11,1.19.22,1.79.32,1.59.28,3.19.52,4.79.73,1.26.16,2.53.3,3.81.39,1.19.09,2.38.12,3.59.12.58,0,1.16,0,1.75-.02,1.64-.09,3.31-.28,5.01-.8.16-.05.33-.09.49-.15.26-.09.51-.2.77-.31.39-.17.77-.38,1.15-.63.28-.18.56-.38.83-.62.21-.19.41-.4.6-.63.58-.69,1.03-1.56,1.2-2.46Z"/><path class="cls-2" d="M136.78,103.51c-.37-.53-.76-1.03-1.15-1.51-.73-5.42-1.81-10.76-3.46-13.77,16.62-17.59,22.06-51.07-8.39-51.42-21.43.21-33.27,2.37-49.25,0,0,0-7.71-.29-17.06-3.01-.17.09-.34.19-.51.28-10.18-2.84-22.06-8.7-28.5-19.97,0,0-2.42,19.51,2.08,40.72,0,0-.01.01-.02.02,4.29,21.22,15.54,44,43.36,50.63-2.56,30.78-7.16,71.06-11.49,105.04,2.22,1.03,4.48,1.97,6.78,2.84,6.15-55.33,9.94-113.31,9.94-113.31h0s0-.02,0-.02c.58-6.11,3.23-13.45,10.44-12.69,10.93,1.16,22.61,14,22.61,14,7.36-2.32,16.43-10.11,16.43-10.11.03.06.81,1.77,1.45,4.05.7,2.49,1.3,4.51,1.62,9.32.63.38,1.45.95,2.19,1.64.89.84,1.66,1.85,1.78,2.98.01.44-.1.75-.48,1.15-.39.38-1,.73-1.69,1-.69.27-1.46.47-2.25.63-1.58.31-3.25.47-4.93.54-3.36.14-6.77,0-10.17-.27-.23-.02-.46-.05-.69-.07-.19.23-.39.44-.6.63-.27.23-.55.43-.83.62.65.11,1.29.24,1.94.34.52.08,1.05.15,1.57.23,1.57.23,3.16.42,4.75.57,1.34.13,2.69.23,4.04.27,1.02.03,2.05.03,3.09,0,.75-.03,1.49-.08,2.25-.17.91-.11,1.82-.27,2.76-.55.65-.2,1.32-.46,1.98-.85.28-.17.56-.35.84-.57.09-.08.17-.17.25-.25.35-.34.69-.72.94-1.2.3-.59.5-1.26.53-1.89.08-1.29-.29-2.35-.69-3.29-.41-.94-.92-1.76-1.46-2.53ZM113.74,95.01s-7.4-7.02-15.78-10.94c-9.64-4.34-20.6-4.43-23.33,14.85,0,0-20.64-1.74-32.47-27.41-2.76-5.2-4.57-13.96-5.72-21.99.01-.01.02-.02.03-.03-1.48-9.5-2.03-17.85-2.03-17.85,0,0,3.93,6.35,14.38,7.61,4.59,1.55,10.4,2.67,17.96,3.34,24.59,2.18,32.3,24.32,32.43,24.73.13.41-1.52-19.76-13.35-23.86,0,0,24.98,2.73,35.13,21.56-.14-.48-4.83-15.97-13.94-21.63,0,0,25.02-3.55,30.75,5.1,5.2,7.84,2.4,31.97-24.06,46.51Z"/><path class="cls-8" d="M137.8,48.49c-5.74-8.66-30.75-5.1-30.75-5.1,9.11,5.66,13.8,21.15,13.94,21.63-10.15-18.82-35.13-21.56-35.13-21.56,11.83,4.11,13.48,24.27,13.35,23.86-.13-.41-7.85-22.55-32.43-24.73-7.7-.68-13.65-1.97-18.22-3.43,0,0,0,0,0,0-10.6-3.31-14.11-7.51-14.11-7.51,0,0,.65,7.02,3.91,16.07.02-.02.05-.04.07-.06,4.66,13.15,14.76,28.88,36.22,25.72,35.41-5.2,37.11,17.89,39.09,21.63,26.45-14.55,29.25-38.67,24.06-46.51Z"/><path class="cls-6" d="M74.65,73.38c-21.73,3.19-31.54-12.88-36.34-26.11-.02.02,0-.04-.02-.02-3-8.43-3.85-15.61-3.85-15.61,0,0,.49,7.96,1.91,17.21,0,0,.02.05.01.06,1.14,8.2,2.97,17.27,5.81,22.6,11.83,25.67,32.47,27.41,32.47,27.41,2.73-19.28,13.99-19.08,23.33-14.85,7.86,3.56,12.35,9.05,15.78,10.94-1.98-3.73-3.69-26.82-39.09-21.63Z"/><path class="cls-9" d="M122.87,36.96c30.58.35,25.12,33.98,8.43,51.64,1.65,3.02,2.73,8.38,3.47,13.82.4.49.79.99,1.16,1.53.54.77,1.05,1.6,1.47,2.54.4.94.77,2.01.69,3.31-.02.64-.23,1.31-.53,1.9-.25.48-.58.87-.93,1.21.84,1.63,1.4,3.44,1.59,5.37.26,2.54-.12,4.99-1.01,7.2,5.43,41.39,11.61,64.56,18.37,79.42,27.67-17.49,46.05-48.36,46.05-83.51,0-54.53-44.21-98.74-98.74-98.74-16.67,0-32.38,4.14-46.15,11.44,9.19,2.62,16.69,2.89,16.69,2.89,16.05,2.37,27.94.2,49.45,0Z"/><path class="cls-9" d="M30.59,55.14C14.94,72.62,5.41,95.69,5.41,121c0,39.67,23.4,73.88,57.15,89.57,4.33-34.02,8.97-74.61,11.53-105.39-27.74-6.61-39.13-28.86-43.51-50.04Z"/></svg>