<svg width="512" height="512" viewBox="0 0 512 512" fill="none" xmlns="http://www.w3.org/2000/svg">
<path d="M142.382 149.093C144.738 151.049 146.789 152.888 148.745 154.537L256 92.576L362.053 153.736L368.393 148.292L256 83.4551L142.382 149.093Z" fill="#576573"/>
<path d="M405.441 278.437C402.863 279.72 400.22 280.869 397.522 281.878V337.617L326.82 378.39C328.871 378.932 330.237 379.168 330.237 379.168C327.881 382.326 322.036 384.683 317.275 386.238L321.989 390.433L405.394 342.283L405.441 278.437Z" fill="#576573"/>
<path d="M273.888 502.643L299.106 488.078L284.564 478.25L280.747 480.442C278.906 487.973 276.615 495.386 273.888 502.643Z" fill="#576573"/>
<path d="M181.74 379.168C181.74 379.168 183.13 378.909 185.18 378.39L114.596 337.617V282.75C111.956 281.83 109.293 280.77 106.701 279.568V342.189L191.991 391.423L197.058 386.71C192.156 385.484 184.426 382.868 181.74 379.168Z" fill="#576573"/>
<path d="M114.36 123.476C117.377 126.398 120.394 129.226 123.34 131.984L256 55.3396L387.294 131.159C390.248 128.409 393.233 125.566 396.25 122.627L256 41.6699L114.36 123.476Z" fill="#576573"/>
<path d="M441.618 245.913C437.96 250.748 434.026 255.368 429.834 259.748V356.237L340.278 407.922C343.13 410.845 345.934 413.838 348.55 416.831L441.618 363.072V245.913Z" fill="#576573"/>
<path d="M100.031 109.145L257.673 18.2419L411.733 107.189C415.504 103.206 419.133 99.1993 422.574 95.1927L257.602 0L89.001 97.3374C92.5832 101.203 96.2598 105.186 100.031 109.145Z" fill="#576573"/>
<path d="M200.876 460.974L51.7174 374.855V175.042C46.3912 169.291 41.0178 162.692 35.9272 156.022V383.976L200.145 478.791C200.051 473.229 200.357 467.078 200.876 460.974Z" fill="#576573"/>
<path d="M463.628 168.797V374.855L314.352 461.045C314.871 467.172 315.154 473.324 315.059 478.886L479.442 383.976V148.575C474.493 155.363 469.096 162.386 463.628 168.797Z" fill="#576573"/>
<path d="M205.33 427.247L200.333 424.372L183.412 428.331L203.326 439.832C204.151 434.6 204.811 430.24 205.33 427.247Z" fill="#576573"/>
<path d="M173.845 409.053L82.356 356.236V262.08C78.1683 257.92 74.2334 253.513 70.5723 248.882V363.071L165.69 418.009C168.212 415.039 170.993 412.022 173.845 409.053Z" fill="#576573"/>
<path d="M241.27 502.549C238.561 495.291 236.286 487.877 234.459 480.348L230.712 478.203L216.171 488.055L241.27 502.549Z" fill="#576573"/>
<path d="M312.561 423.854L309.498 425.622C309.969 428.238 310.723 432.692 311.548 438.136L329.506 427.766L312.561 423.854Z" fill="#576573"/>
<path d="M250.486 259.629C252.843 264.72 255.459 269.952 257.91 275.279C260.267 269.952 262.883 264.72 265.357 259.629C282.397 224.277 290.999 203.772 269.081 192.436L268.115 191.705C264.556 188.17 261.044 186.379 257.91 186.379C253.947 186.744 250.289 188.658 247.729 191.705L246.739 192.436C224.845 203.772 233.423 224.3 250.486 259.629Z" fill="#00CBC6"/>
<path d="M488.139 105.445C437.492 188.312 330.237 227.506 330.237 227.506C519.059 115.697 511.965 3.27625 511.965 3.27625C444.28 130.64 330.661 199.507 288.994 221.52C286.449 234.176 279.567 248.435 272.497 263.071C268.844 270.636 265.073 278.484 261.585 286.639L257.956 295.076L254.327 286.639C250.862 278.579 247.068 270.754 243.415 263.071C236.769 249.283 230.264 235.826 227.413 223.759C189.705 204.456 70.2416 135.283 0.0343264 3.25269C0.0343264 3.25269 -7.0359 115.674 181.763 227.482C181.763 227.482 74.5545 188.288 23.861 105.422C23.861 105.422 59.9898 214.732 168.895 239.479C168.895 239.479 100.172 238.583 61.121 198.116C61.121 198.116 58.8821 246.785 163.686 254.115C163.686 254.115 112.168 266.606 86.9509 243.697C86.9509 243.697 88.2 268.397 165.289 270.754C165.289 270.754 199.273 268.397 220.884 283.481C220.201 311.15 226.658 339.833 233.139 361.256C232.008 362.034 231.678 367.502 193.334 379.616C193.334 380.205 217.915 386.192 229.864 374.903C232.432 377.613 202.031 385.909 173.514 421.592C173.844 420.177 210.821 408.11 236.887 396.491C237.17 396.326 217.632 415.747 213.673 473.631C214.333 473.442 225.739 454.776 243.651 434.036C242.396 460.732 247.131 487.371 257.508 512V421.851V512C267.476 488.447 272.235 463.017 271.46 437.453C287.698 456.803 297.903 473.442 298.539 473.631C294.58 415.747 274.972 396.326 275.325 396.491C301.249 408.11 338.368 420.06 338.698 421.592C310.205 385.909 279.567 377.613 282.301 374.926C294.25 386.145 318.948 380.158 318.854 379.64C280.062 367.384 280.18 361.94 279.002 361.256C285.506 339.88 292.011 311.197 291.398 283.481C313.033 268.444 346.781 270.895 346.781 270.895C423.87 268.538 425.12 243.839 425.12 243.839C399.902 266.747 348.384 254.256 348.384 254.256C453.188 246.926 450.949 198.258 450.949 198.258C411.828 238.583 343.199 239.479 343.199 239.479C452.01 214.732 488.139 105.445 488.139 105.445Z" fill="#00CBC6"/>
</svg>
