<svg xmlns="http://www.w3.org/2000/svg" viewBox="0 0 333334 333015" shape-rendering="geometricPrecision" text-rendering="geometricPrecision" image-rendering="optimizeQuality" fill-rule="evenodd" clip-rule="evenodd"><defs><linearGradient id="b" gradientUnits="userSpaceOnUse" x1="173948" y1="-2539.76" x2="125024" y2="274914"><stop offset="0" stop-color="#e5a235"/><stop offset="1" stop-color="#d23629"/></linearGradient><linearGradient id="a" gradientUnits="userSpaceOnUse" x1="196383" y1="-1115.35" x2="137302" y2="333952"><stop offset="0" stop-color="#f9b13d"/><stop offset="1" stop-color="#e63830"/></linearGradient></defs><g fill-rule="nonzero"><path d="M73350 243h186101c41094-298 73883 32298 73883 73585v185770c0 40626-32789 73763-73883 73415H73350c-39718 0-72999-32789-72999-73415V73828C351 32541 33632-523 73350 243z" fill="url(#a)"/><path d="M281382 272374s-12972-21008-34183-21008c-21660 0-32351 21008-75206 21008-92987 0-137068-76506-138071-78316 0 519 519 519 519 519L0 158396V73558C0 32462 33572 1 73099 1h66538l48550 49735c52 0 52-519 532-1015 110252 76190 74705 158613 74705 158613s30525 34574 17958 65042z" fill="url(#b)"/><path d="M189263 49490c109868 74795 74378 157625 74378 157625s30534 34878 18035 65459c0 0-12991-21231-34161-21231-21219 0-33928 21231-75302 21231-94193 0-137215-78533-137215-78533 83546 56856 141921 16544 141921 16544C138636 188424 57167 83892 57167 83892c70392 59101 100324 74754 100324 74754-17690-14066-68076-87098-68076-87098 41046 40763 121543 98528 121543 98528 22163-64076-21694-120586-21694-120586z" fill="#fefefe"/></g></svg>