<svg id="svg" xmlns="http://www.w3.org/2000/svg" xmlns:xlink="http://www.w3.org/1999/xlink" width="400" height="400" viewBox="0, 0, 400,400"><g id="svgg"><path id="path0" d="M23.600 0.800 C 23.600 1.020,23.870 1.200,24.200 1.200 C 24.530 1.200,24.800 1.020,24.800 0.800 C 24.800 0.580,24.530 0.400,24.200 0.400 C 23.870 0.400,23.600 0.580,23.600 0.800 M389.200 7.813 C 389.200 8.222,392.055 10.878,392.267 10.667 C 392.384 10.549,391.838 9.811,391.053 9.027 C 389.692 7.666,389.200 7.343,389.200 7.813 M188.400 26.250 C 139.321 28.149,110.896 41.324,103.924 65.407 L 103.000 68.600 103.000 96.600 C 103.000 128.706,102.884 127.525,106.796 135.400 C 110.831 143.524,117.407 150.767,133.200 164.483 C 138.150 168.782,147.336 176.777,153.614 182.250 C 159.892 187.722,170.504 196.970,177.198 202.800 C 198.269 221.154,211.603 232.777,217.600 238.019 C 230.263 249.087,235.713 256.265,238.238 265.200 C 239.309 268.989,239.613 322.891,238.589 327.501 C 235.746 340.307,224.239 346.910,203.757 347.491 C 178.137 348.218,163.936 341.095,161.405 326.248 C 160.914 323.362,160.800 318.428,160.800 299.948 L 160.800 277.200 129.775 277.200 L 98.749 277.200 98.907 303.900 C 99.074 332.096,99.072 332.067,101.002 337.800 C 109.176 362.080,140.834 373.573,199.600 373.594 C 261.715 373.615,296.828 358.059,301.007 328.666 C 301.852 322.728,301.850 270.423,301.005 264.600 C 298.571 247.821,293.209 240.556,266.062 217.262 C 257.177 209.638,233.323 189.174,213.054 171.787 C 169.107 134.091,169.458 134.461,166.113 122.200 L 165.021 118.200 164.892 95.260 C 164.736 67.476,164.911 66.264,169.867 60.778 C 175.541 54.498,190.259 51.203,207.275 52.405 C 224.257 53.605,232.324 57.698,236.041 67.000 L 237.000 69.400 237.200 93.200 L 237.400 117.000 268.292 117.102 L 299.184 117.205 299.429 116.226 C 299.990 113.992,299.317 67.910,298.681 65.000 C 293.758 42.473,271.111 30.402,227.400 27.007 C 219.661 26.406,196.161 25.950,188.400 26.250 " stroke="none" fill="#fbfafb" fill-rule="evenodd"></path><path id="path1" d="M28.500 0.891 C 28.555 1.160,28.150 1.431,27.600 1.492 C 25.679 1.705,22.197 2.532,21.820 2.864 C 21.611 3.049,21.222 3.200,20.956 3.200 C 18.860 3.200,11.111 8.880,8.405 12.400 C 7.643 13.390,6.897 14.291,6.745 14.402 C 5.266 15.487,2.056 23.972,1.604 27.989 C 1.420 29.632,1.073 31.042,0.834 31.122 C 0.123 31.359,0.228 368.285,0.939 368.996 C 1.236 369.293,1.585 370.765,1.715 372.268 C 2.349 379.570,8.821 389.922,15.008 393.528 C 20.140 396.518,25.230 398.400,28.190 398.400 C 29.097 398.400,29.710 398.621,29.855 399.000 C 30.206 399.914,369.343 399.914,370.257 399.000 C 370.587 398.670,371.560 398.400,372.419 398.400 C 379.968 398.400,392.459 389.468,395.484 381.906 C 395.816 381.078,396.235 380.400,396.417 380.400 C 396.598 380.400,396.804 379.905,396.873 379.300 C 396.949 378.643,397.213 378.244,397.530 378.310 C 397.838 378.374,397.941 378.229,397.777 377.963 C 397.622 377.712,397.714 376.492,397.982 375.253 C 398.250 374.014,398.549 372.588,398.647 372.084 C 398.744 371.580,398.998 371.275,399.212 371.407 C 399.463 371.562,399.600 310.897,399.600 200.066 C 399.600 56.381,399.512 28.452,399.060 28.278 C 398.561 28.087,397.961 25.324,397.848 22.700 C 397.821 22.095,397.575 21.600,397.300 21.600 C 397.025 21.600,396.800 21.397,396.800 21.149 C 396.800 20.742,395.239 17.478,393.918 15.123 C 393.245 13.924,386.076 6.755,384.877 6.082 C 380.302 3.516,375.311 1.600,373.200 1.600 C 372.480 1.600,371.880 1.353,371.745 1.000 C 371.431 0.183,28.334 0.074,28.500 0.891 M218.400 25.605 C 269.195 28.382,293.725 40.133,299.435 64.423 C 300.326 68.215,300.818 116.414,299.976 117.429 C 299.331 118.206,237.655 118.295,236.880 117.520 C 236.518 117.158,236.399 111.473,236.394 94.420 C 236.387 66.684,236.244 65.792,231.034 60.870 C 219.968 50.415,182.634 50.207,171.327 60.537 C 165.858 65.534,165.503 67.772,165.697 96.077 C 165.878 122.650,166.296 125.038,172.303 133.848 C 175.349 138.315,177.601 140.321,228.998 184.354 C 257.379 208.668,282.506 230.461,284.836 232.781 C 293.012 240.924,297.986 249.062,300.864 259.002 L 301.789 262.200 301.908 295.200 C 302.039 331.576,302.055 331.301,299.546 337.600 C 288.514 365.294,240.094 379.016,172.600 373.576 C 128.854 370.051,105.511 357.763,99.315 335.000 L 98.227 331.000 98.092 304.010 C 97.967 278.715,98.002 276.988,98.656 276.510 C 99.519 275.878,160.209 275.764,161.200 276.393 C 161.723 276.724,161.800 279.911,161.801 301.086 C 161.803 328.078,161.779 327.792,164.534 332.989 C 169.314 342.007,182.016 346.817,200.985 346.792 C 221.948 346.765,234.148 340.576,237.636 328.200 C 238.098 326.563,238.200 320.935,238.200 297.200 C 238.200 253.055,243.649 261.755,182.826 208.788 C 116.394 150.938,120.190 154.312,115.134 148.629 C 106.334 138.737,102.819 131.123,101.947 120.068 C 101.292 111.761,101.732 71.398,102.517 67.800 C 108.203 41.740,135.197 28.218,187.000 25.478 C 192.969 25.163,211.690 25.238,218.400 25.605 " stroke="none" fill="#4c2484" fill-rule="evenodd"></path><path id="path2" d="M25.446 1.025 C 25.272 1.478,24.877 1.632,24.215 1.505 C 23.594 1.386,23.159 1.531,23.016 1.904 C 22.836 2.371,23.013 2.427,23.895 2.181 C 24.503 2.012,25.771 1.767,26.713 1.637 C 28.836 1.343,29.101 0.642,27.151 0.479 C 26.091 0.390,25.633 0.537,25.446 1.025 M371.700 0.900 C 371.792 1.175,372.691 1.518,373.698 1.662 C 374.705 1.806,375.904 2.042,376.362 2.188 C 376.981 2.384,377.139 2.307,376.977 1.885 C 376.841 1.530,376.396 1.388,375.785 1.505 C 375.132 1.630,374.728 1.478,374.562 1.046 C 374.257 0.251,371.436 0.108,371.700 0.900 M20.800 2.400 C 20.800 2.620,20.459 2.800,20.043 2.800 C 19.626 2.800,19.186 3.060,19.064 3.378 C 18.942 3.696,18.203 4.076,17.421 4.222 C 16.639 4.369,16.000 4.653,16.000 4.853 C 16.000 5.053,15.522 5.435,14.939 5.701 C 14.355 5.967,13.379 6.683,12.769 7.292 C 12.160 7.901,11.370 8.400,11.013 8.400 C 10.098 8.400,8.581 10.026,8.244 11.366 C 7.943 12.566,7.118 13.600,6.460 13.600 C 6.242 13.600,5.948 14.126,5.807 14.768 C 5.666 15.411,5.109 16.413,4.569 16.996 C 4.029 17.579,3.691 18.224,3.819 18.430 C 3.946 18.637,3.789 18.906,3.470 19.029 C 3.125 19.161,2.971 19.567,3.091 20.026 C 3.229 20.556,3.089 20.800,2.647 20.800 C 2.159 20.800,2.000 21.193,2.000 22.400 C 2.000 23.280,1.845 24.000,1.655 24.000 C 1.466 24.000,1.397 24.448,1.501 24.995 C 1.630 25.668,1.483 26.070,1.046 26.238 C 0.323 26.515,0.074 31.200,0.782 31.200 C 1.163 31.200,1.373 30.249,1.762 26.761 C 2.092 23.813,5.525 15.297,6.745 14.402 C 6.897 14.291,7.643 13.390,8.405 12.400 C 11.132 8.852,18.863 3.200,20.987 3.200 C 21.270 3.200,21.726 2.930,22.000 2.600 C 22.416 2.099,22.358 2.000,21.649 2.000 C 21.182 2.000,20.800 2.180,20.800 2.400 M378.220 2.361 C 377.521 2.635,377.562 2.710,378.620 3.092 C 379.269 3.326,380.160 3.656,380.600 3.824 C 381.214 4.059,381.140 3.883,380.279 3.065 C 379.663 2.479,379.123 2.013,379.079 2.028 C 379.036 2.044,378.649 2.193,378.220 2.361 M381.820 4.343 C 382.029 4.531,383.010 5.114,384.000 5.638 C 386.327 6.868,393.132 13.673,394.362 16.000 C 395.546 18.238,396.000 18.766,396.000 17.904 C 396.000 17.543,395.804 17.126,395.565 16.978 C 395.326 16.831,395.211 16.401,395.310 16.023 C 395.528 15.189,394.917 14.299,393.669 13.635 C 393.105 13.334,392.826 12.908,392.962 12.554 C 393.093 12.214,392.896 11.868,392.493 11.728 C 391.475 11.372,388.780 8.741,388.375 7.708 C 388.159 7.155,387.804 6.900,387.443 7.039 C 387.092 7.174,386.665 6.893,386.365 6.331 C 385.701 5.083,384.811 4.472,383.977 4.690 C 383.599 4.789,383.169 4.674,383.022 4.435 C 382.874 4.196,382.457 4.000,382.096 4.000 C 381.703 4.000,381.592 4.137,381.820 4.343 M396.180 19.400 C 396.351 19.840,396.581 20.515,396.692 20.900 C 396.900 21.624,398.000 21.893,398.000 21.221 C 398.000 21.012,397.521 20.337,396.935 19.721 C 396.121 18.864,395.943 18.788,396.180 19.400 M397.877 23.400 C 398.013 24.280,398.231 25.705,398.362 26.567 C 398.671 28.605,399.600 28.986,399.600 27.076 C 399.600 26.165,399.377 25.600,398.954 25.438 C 398.517 25.270,398.370 24.868,398.499 24.195 C 398.603 23.648,398.547 23.200,398.374 23.200 C 398.201 23.200,397.962 22.885,397.845 22.500 C 397.727 22.115,397.742 22.520,397.877 23.400 M195.300 25.499 C 198.765 25.566,204.435 25.566,207.900 25.499 C 211.365 25.433,208.530 25.378,201.600 25.378 C 194.670 25.378,191.835 25.433,195.300 25.499 M179.200 26.000 L 176.200 26.256 178.800 26.278 C 180.230 26.291,182.660 26.171,184.200 26.013 L 187.000 25.726 184.600 25.735 C 183.280 25.740,180.850 25.859,179.200 26.000 M219.600 26.022 C 221.470 26.186,224.170 26.310,225.600 26.297 C 227.992 26.275,227.912 26.250,224.600 25.979 C 222.620 25.817,219.920 25.694,218.600 25.704 C 216.478 25.722,216.593 25.758,219.600 26.022 M169.800 26.800 L 167.800 27.074 169.600 27.098 C 170.590 27.110,172.390 26.984,173.600 26.817 L 175.800 26.513 173.800 26.519 C 172.700 26.523,170.900 26.649,169.800 26.800 M231.000 26.815 C 232.320 26.979,234.210 27.106,235.200 27.098 C 236.835 27.084,236.780 27.055,234.600 26.785 C 233.280 26.621,231.390 26.494,230.400 26.502 C 228.765 26.516,228.820 26.545,231.000 26.815 M163.800 27.600 L 162.200 27.886 163.600 27.896 C 164.370 27.901,165.540 27.768,166.200 27.600 C 167.828 27.186,166.113 27.186,163.800 27.600 M238.600 27.585 C 239.822 27.911,243.070 28.120,242.767 27.853 C 242.675 27.772,241.430 27.607,240.000 27.485 C 238.362 27.346,237.844 27.382,238.600 27.585 M158.400 28.400 C 157.338 28.624,157.241 28.702,158.000 28.724 C 158.550 28.741,159.720 28.605,160.600 28.423 C 161.934 28.147,162.000 28.093,161.000 28.099 C 160.340 28.102,159.170 28.238,158.400 28.400 M244.600 28.423 C 245.480 28.605,246.650 28.744,247.200 28.731 C 247.841 28.716,247.626 28.589,246.600 28.377 C 245.720 28.195,244.550 28.056,244.000 28.069 C 243.359 28.084,243.574 28.211,244.600 28.423 M154.200 29.200 C 153.122 29.474,153.102 29.506,154.000 29.513 C 154.550 29.517,155.450 29.376,156.000 29.200 C 157.344 28.769,155.892 28.769,154.200 29.200 M150.400 30.000 C 149.608 30.254,149.567 30.320,150.200 30.320 C 150.640 30.320,151.450 30.176,152.000 30.000 C 152.792 29.746,152.833 29.680,152.200 29.680 C 151.760 29.680,150.950 29.824,150.400 30.000 M256.800 30.824 C 259.330 31.456,261.580 31.919,261.800 31.853 C 262.262 31.715,253.528 29.581,252.731 29.638 C 252.439 29.658,254.270 30.192,256.800 30.824 M147.200 30.800 C 146.396 31.057,146.357 31.123,147.000 31.132 C 147.440 31.138,148.160 30.989,148.600 30.800 C 149.619 30.362,148.568 30.362,147.200 30.800 M144.200 31.600 C 143.696 31.817,143.622 31.944,144.000 31.944 C 144.330 31.944,144.960 31.789,145.400 31.600 C 145.904 31.383,145.978 31.256,145.600 31.256 C 145.270 31.256,144.640 31.411,144.200 31.600 M141.400 32.400 C 140.896 32.617,140.822 32.744,141.200 32.744 C 141.530 32.744,142.160 32.589,142.600 32.400 C 143.104 32.183,143.178 32.056,142.800 32.056 C 142.470 32.056,141.840 32.211,141.400 32.400 M262.433 32.164 C 262.525 32.255,264.220 32.868,266.200 33.526 C 268.180 34.185,270.160 34.844,270.600 34.992 C 271.308 35.230,271.321 35.209,270.711 34.816 C 269.587 34.093,261.887 31.626,262.433 32.164 M133.060 35.394 C 118.329 41.429,106.526 52.322,104.233 62.000 L 103.996 63.000 104.453 62.000 C 110.406 48.990,118.667 41.505,133.600 35.592 C 135.910 34.678,137.875 33.855,137.967 33.765 C 138.433 33.305,136.991 33.783,133.060 35.394 M273.648 36.181 C 274.050 36.583,279.389 39.145,279.530 39.003 C 279.614 38.920,278.408 38.210,276.851 37.426 C 274.279 36.130,273.164 35.697,273.648 36.181 M280.000 39.318 C 280.000 39.408,281.263 40.323,282.807 41.349 C 286.753 43.973,291.273 48.397,293.654 51.964 C 295.875 55.293,296.379 55.926,295.593 54.400 C 293.023 49.408,286.549 42.994,280.500 39.446 C 280.225 39.285,280.000 39.227,280.000 39.318 M190.600 53.157 C 189.720 53.291,194.381 53.400,200.958 53.400 C 207.535 53.400,212.215 53.275,211.358 53.123 C 209.473 52.788,192.848 52.815,190.600 53.157 M185.000 53.996 C 184.502 54.208,185.031 54.251,186.400 54.112 C 187.610 53.989,188.675 53.823,188.767 53.744 C 189.111 53.447,185.767 53.670,185.000 53.996 M213.633 53.746 C 213.725 53.826,214.790 53.994,216.000 54.119 C 217.420 54.266,217.846 54.229,217.200 54.013 C 216.209 53.683,213.313 53.465,213.633 53.746 M181.800 54.800 C 180.781 55.238,181.832 55.238,183.200 54.800 C 184.004 54.543,184.043 54.477,183.400 54.468 C 182.960 54.462,182.240 54.611,181.800 54.800 M218.433 54.544 C 218.525 54.623,219.140 54.808,219.800 54.956 C 220.676 55.152,220.838 55.115,220.400 54.818 C 219.860 54.453,218.032 54.198,218.433 54.544 M222.976 56.009 C 224.063 56.433,225.028 56.706,225.120 56.614 C 225.359 56.375,222.429 55.196,221.651 55.219 C 221.293 55.229,221.889 55.585,222.976 56.009 M175.600 57.109 C 172.841 58.462,168.439 62.793,167.279 65.296 C 165.854 68.369,166.275 68.357,167.814 65.281 C 169.511 61.889,172.329 59.156,176.024 57.320 C 177.441 56.615,178.420 56.037,178.200 56.034 C 177.980 56.032,176.810 56.515,175.600 57.109 M227.838 58.349 C 230.668 60.205,232.783 62.360,234.168 64.800 C 234.731 65.790,235.193 66.410,235.195 66.178 C 235.219 64.091,227.962 56.800,225.860 56.800 C 225.649 56.800,226.539 57.497,227.838 58.349 M297.813 59.844 C 298.350 62.055,299.178 64.227,298.940 62.800 C 298.811 62.030,298.459 60.860,298.157 60.200 C 297.855 59.540,297.701 59.380,297.813 59.844 M299.269 65.200 C 299.256 65.750,299.395 66.920,299.577 67.800 C 299.789 68.826,299.916 69.041,299.931 68.400 C 299.944 67.850,299.805 66.680,299.623 65.800 C 299.411 64.774,299.284 64.559,299.269 65.200 M102.618 67.418 C 102.465 68.439,102.422 69.355,102.522 69.455 C 102.622 69.555,102.829 68.802,102.982 67.782 C 103.135 66.761,103.178 65.845,103.078 65.745 C 102.978 65.645,102.771 66.398,102.618 67.418 M235.444 67.800 C 235.773 69.271,236.002 69.590,235.994 68.567 C 235.991 68.145,235.805 67.530,235.582 67.200 C 235.285 66.762,235.248 66.924,235.444 67.800 M165.856 69.284 C 165.721 69.788,165.630 70.740,165.653 71.400 C 165.681 72.228,165.797 71.984,166.026 70.613 C 166.376 68.523,166.274 67.726,165.856 69.284 M236.315 93.310 C 236.394 109.550,236.566 117.118,236.864 117.477 C 237.473 118.211,299.187 118.253,299.920 117.520 C 300.285 117.155,300.377 111.410,300.305 93.620 L 300.210 70.200 300.005 93.800 L 299.800 117.400 268.400 117.400 L 237.000 117.400 236.800 93.733 C 236.690 80.716,236.510 69.976,236.400 69.866 C 236.290 69.756,236.252 80.306,236.315 93.310 M101.862 73.900 C 101.533 78.872,101.595 115.894,101.940 120.400 C 102.083 122.270,102.200 111.695,102.200 96.900 C 102.200 82.105,102.182 70.000,102.160 70.000 C 102.139 70.000,102.004 71.755,101.862 73.900 M165.385 93.800 C 165.385 104.580,165.437 108.933,165.500 103.472 C 165.563 98.012,165.563 89.192,165.500 83.872 C 165.437 78.553,165.385 83.020,165.385 93.800 M165.640 116.833 C 165.662 117.805,165.825 119.050,166.002 119.600 C 166.195 120.200,166.237 119.560,166.106 118.000 C 165.851 114.962,165.582 114.289,165.640 116.833 M166.431 121.234 C 166.335 123.209,169.331 130.063,172.028 134.038 C 175.022 138.452,178.483 141.536,229.600 185.335 C 258.090 209.746,282.850 231.177,284.623 232.959 C 289.528 237.892,293.609 243.303,296.205 248.316 C 296.808 249.480,297.388 250.345,297.495 250.238 C 297.859 249.874,292.778 241.815,290.032 238.400 C 285.756 233.082,283.689 231.253,228.995 184.373 C 200.615 160.047,176.611 139.257,175.651 138.173 C 171.882 133.909,168.734 128.309,167.218 123.167 C 166.802 121.755,166.447 120.885,166.431 121.234 M102.487 124.800 C 102.483 125.350,102.624 126.250,102.800 126.800 C 103.231 128.144,103.231 126.692,102.800 125.000 C 102.526 123.922,102.494 123.902,102.487 124.800 M103.256 128.400 C 103.256 128.730,103.411 129.360,103.600 129.800 C 103.817 130.304,103.944 130.378,103.944 130.000 C 103.944 129.670,103.789 129.040,103.600 128.600 C 103.383 128.096,103.256 128.022,103.256 128.400 M104.248 131.600 C 105.214 135.436,109.852 142.691,115.134 148.629 C 120.190 154.312,116.394 150.938,182.826 208.788 C 232.822 252.327,233.370 252.883,236.844 263.600 C 237.236 264.810,237.567 265.508,237.578 265.150 C 237.647 263.075,234.661 257.080,231.381 252.710 C 227.310 247.286,224.514 244.630,205.000 227.648 C 202.360 225.351,199.030 222.447,197.600 221.196 C 194.953 218.880,180.881 206.634,175.803 202.227 C 174.265 200.892,172.375 199.239,171.603 198.554 C 170.387 197.474,152.780 182.134,144.603 175.030 C 143.065 173.693,141.175 172.039,140.403 171.354 C 139.632 170.669,135.349 166.924,130.886 163.031 C 114.326 148.587,110.229 143.712,104.471 131.600 L 103.996 130.600 104.248 131.600 M297.796 251.500 C 297.951 251.885,298.447 253.149,298.897 254.308 C 299.348 255.468,299.789 256.344,299.876 256.257 C 300.074 256.059,297.991 250.800,297.715 250.800 C 297.605 250.800,297.641 251.115,297.796 251.500 M300.049 257.200 C 300.046 257.530,300.390 259.060,300.812 260.600 C 301.306 262.396,301.504 262.810,301.365 261.756 C 301.127 259.946,300.056 256.242,300.049 257.200 M301.791 296.400 C 301.791 314.550,301.840 321.975,301.900 312.900 C 301.960 303.825,301.960 288.975,301.900 279.900 C 301.840 270.825,301.791 278.250,301.791 296.400 M237.888 268.000 C 238.011 269.210,238.177 270.275,238.256 270.367 C 238.553 270.711,238.330 267.367,238.004 266.600 C 237.792 266.102,237.749 266.631,237.888 268.000 M238.589 297.800 C 238.589 312.540,238.639 318.512,238.700 311.071 C 238.761 303.630,238.761 291.570,238.700 284.271 C 238.639 276.972,238.589 283.060,238.589 297.800 M98.672 276.500 C 98.042 276.963,98.000 278.898,98.099 302.800 L 98.206 328.600 98.303 302.747 L 98.400 276.893 99.300 276.652 C 100.944 276.212,159.991 276.367,160.826 276.814 C 161.271 277.052,161.600 277.070,161.600 276.857 C 161.600 276.653,161.315 276.376,160.967 276.243 C 159.617 275.725,99.389 275.973,98.672 276.500 M161.780 291.200 C 161.780 298.790,161.834 301.895,161.899 298.100 C 161.965 294.305,161.965 288.095,161.899 284.300 C 161.834 280.505,161.780 283.610,161.780 291.200 M161.659 323.542 C 161.443 331.420,168.055 340.522,175.800 343.009 C 176.240 343.151,175.496 342.652,174.147 341.902 C 166.198 337.480,162.830 332.573,161.996 324.200 C 161.722 321.443,161.716 321.433,161.659 323.542 M238.056 325.800 C 237.778 330.982,233.555 337.435,228.200 340.858 C 226.880 341.702,225.944 342.394,226.119 342.396 C 230.239 342.445,238.999 330.441,238.288 325.719 L 238.120 324.600 238.056 325.800 M98.493 330.200 C 98.494 330.860,98.632 331.940,98.800 332.600 C 99.223 334.263,99.242 332.626,98.823 330.600 C 98.545 329.255,98.492 329.191,98.493 330.200 M301.022 331.422 C 300.872 332.225,300.828 332.962,300.926 333.060 C 301.024 333.157,301.227 332.581,301.378 331.778 C 301.528 330.975,301.572 330.238,301.474 330.140 C 301.376 330.043,301.173 330.619,301.022 331.422 M300.229 334.629 C 300.081 335.215,300.038 335.772,300.132 335.866 C 300.227 335.960,300.424 335.558,300.571 334.971 C 300.719 334.385,300.762 333.828,300.668 333.734 C 300.573 333.640,300.376 334.042,300.229 334.629 M99.268 334.400 C 99.288 335.439,99.918 337.146,99.932 336.200 C 99.938 335.760,99.789 335.040,99.600 334.600 C 99.389 334.110,99.261 334.032,99.268 334.400 M100.182 338.000 C 102.173 345.072,109.989 354.553,117.540 359.055 C 119.926 360.479,119.589 359.931,117.100 358.343 C 110.193 353.936,104.378 347.233,101.566 340.438 C 100.253 337.266,99.702 336.296,100.182 338.000 M298.246 339.751 C 295.188 347.070,286.627 355.053,275.800 360.684 C 273.160 362.057,271.138 363.184,271.307 363.190 C 273.632 363.267,286.048 355.203,290.649 350.628 C 294.718 346.582,300.313 338.400,299.011 338.400 C 298.901 338.400,298.557 339.008,298.246 339.751 M223.032 343.417 C 221.730 343.958,220.380 344.414,220.032 344.432 C 219.593 344.454,219.558 344.527,219.918 344.671 C 220.432 344.877,224.653 343.383,225.380 342.738 C 225.932 342.247,225.661 342.326,223.032 343.417 M178.200 344.000 C 179.080 344.407,180.160 344.748,180.600 344.756 C 181.040 344.764,180.417 344.418,179.215 343.986 C 176.514 343.014,176.084 343.020,178.200 344.000 M181.660 344.994 C 182.074 345.407,188.041 346.446,189.091 346.287 C 190.072 346.139,190.038 346.111,188.800 346.046 C 188.030 346.005,186.230 345.715,184.800 345.400 C 181.964 344.776,181.365 344.699,181.660 344.994 M217.200 345.200 C 216.396 345.457,216.357 345.523,217.000 345.532 C 217.440 345.538,218.160 345.389,218.600 345.200 C 219.619 344.762,218.568 344.762,217.200 345.200 M213.000 346.000 L 211.400 346.286 212.800 346.303 C 213.570 346.313,214.650 346.176,215.200 346.000 C 216.485 345.588,215.299 345.588,213.000 346.000 M192.400 346.870 C 193.390 347.019,197.170 347.141,200.800 347.141 C 204.430 347.141,208.210 347.019,209.200 346.870 C 210.190 346.722,206.410 346.600,200.800 346.600 C 195.190 346.600,191.410 346.722,192.400 346.870 M119.600 360.191 C 119.600 360.530,126.869 364.064,127.097 363.836 C 127.215 363.719,126.854 363.449,126.295 363.236 C 125.736 363.024,124.001 362.206,122.439 361.420 C 120.878 360.633,119.600 360.080,119.600 360.191 M268.600 364.029 C 267.720 364.452,267.450 364.686,268.000 364.549 C 269.133 364.267,271.212 363.225,270.600 363.246 C 270.380 363.253,269.480 363.606,268.600 364.029 M128.111 364.398 C 129.041 364.992,138.995 368.245,140.800 368.545 C 141.570 368.673,141.030 368.418,139.600 367.977 C 138.170 367.537,135.200 366.538,133.000 365.758 C 128.125 364.029,127.074 363.737,128.111 364.398 M259.466 367.074 C 258.403 367.400,257.609 367.742,257.703 367.836 C 257.796 367.930,258.937 367.663,260.236 367.243 C 261.536 366.823,262.330 366.481,262.000 366.482 C 261.670 366.483,260.530 366.749,259.466 367.074 M255.000 368.400 C 253.981 368.838,255.032 368.838,256.400 368.400 C 257.204 368.143,257.243 368.077,256.600 368.068 C 256.160 368.062,255.440 368.211,255.000 368.400 M0.400 371.157 C 0.400 372.958,0.553 373.573,1.046 373.762 C 1.478 373.928,1.630 374.332,1.505 374.985 C 1.386 375.606,1.531 376.041,1.904 376.184 C 2.315 376.342,2.416 376.219,2.244 375.771 C 2.109 375.419,1.898 374.112,1.774 372.866 C 1.309 368.172,0.400 367.043,0.400 371.157 M144.231 369.370 C 146.886 370.126,153.223 371.310,153.442 371.091 C 153.536 370.997,151.585 370.517,149.106 370.023 C 143.266 368.860,141.704 368.651,144.231 369.370 M251.800 369.200 C 250.781 369.638,251.832 369.638,253.200 369.200 C 254.004 368.943,254.043 368.877,253.400 368.868 C 252.960 368.862,252.240 369.011,251.800 369.200 M248.000 370.000 C 246.656 370.431,248.108 370.431,249.800 370.000 C 250.878 369.726,250.898 369.694,250.000 369.687 C 249.450 369.683,248.550 369.824,248.000 370.000 M244.000 370.800 C 242.656 371.231,244.108 371.231,245.800 370.800 C 246.878 370.526,246.898 370.494,246.000 370.487 C 245.450 370.483,244.550 370.624,244.000 370.800 M155.600 371.620 C 158.014 372.050,159.906 372.013,157.800 371.577 C 156.920 371.395,155.660 371.258,155.000 371.273 C 154.100 371.293,154.250 371.380,155.600 371.620 M239.200 371.600 C 238.138 371.824,238.041 371.902,238.800 371.924 C 239.350 371.941,240.520 371.805,241.400 371.623 C 242.734 371.347,242.800 371.293,241.800 371.299 C 241.140 371.302,239.970 371.438,239.200 371.600 M398.638 372.084 C 398.536 372.588,398.355 373.540,398.236 374.200 C 398.117 374.860,397.903 375.808,397.761 376.306 C 397.564 377.000,397.641 377.159,398.092 376.986 C 398.469 376.841,398.614 376.408,398.495 375.785 C 398.370 375.132,398.522 374.728,398.954 374.562 C 399.370 374.403,399.600 373.839,399.600 372.981 C 399.600 371.409,398.906 370.762,398.638 372.084 M160.300 372.282 C 160.795 372.378,161.605 372.378,162.100 372.282 C 162.595 372.187,162.190 372.109,161.200 372.109 C 160.210 372.109,159.805 372.187,160.300 372.282 M235.505 372.283 C 236.002 372.379,236.722 372.375,237.105 372.275 C 237.487 372.175,237.080 372.096,236.200 372.101 C 235.320 372.105,235.007 372.187,235.505 372.283 M168.400 373.214 C 169.830 373.375,171.900 373.500,173.000 373.492 C 174.889 373.479,174.855 373.462,172.400 373.186 C 170.970 373.025,168.900 372.900,167.800 372.908 C 165.911 372.921,165.945 372.938,168.400 373.214 M225.800 373.200 L 223.800 373.474 225.600 373.498 C 226.590 373.510,228.390 373.384,229.600 373.217 L 231.800 372.913 229.800 372.919 C 228.700 372.923,226.900 373.049,225.800 373.200 M179.400 374.019 C 181.600 374.177,184.750 374.298,186.400 374.287 C 189.285 374.269,189.247 374.257,185.400 373.981 C 183.200 373.823,180.050 373.702,178.400 373.713 C 175.515 373.731,175.553 373.743,179.400 374.019 M218.711 373.893 C 219.651 373.978,221.091 373.977,221.911 373.891 C 222.730 373.805,221.960 373.736,220.200 373.737 C 218.440 373.739,217.770 373.809,218.711 373.893 M212.311 374.293 C 213.251 374.378,214.691 374.377,215.511 374.291 C 216.330 374.205,215.560 374.136,213.800 374.137 C 212.040 374.139,211.370 374.209,212.311 374.293 M196.700 374.698 C 198.735 374.771,202.065 374.771,204.100 374.698 C 206.135 374.625,204.470 374.566,200.400 374.566 C 196.330 374.566,194.665 374.625,196.700 374.698 M2.206 377.582 C 2.009 378.201,2.056 378.619,2.331 378.710 C 2.572 378.791,3.262 379.879,3.865 381.128 C 4.469 382.378,5.074 383.490,5.211 383.600 C 5.348 383.710,5.807 384.560,6.230 385.490 C 6.654 386.419,7.180 387.188,7.400 387.199 C 7.620 387.210,8.302 387.890,8.916 388.709 C 9.530 389.529,10.643 390.650,11.390 391.200 C 12.136 391.750,12.832 392.514,12.936 392.898 C 13.039 393.282,13.456 393.698,13.862 393.823 C 15.141 394.218,17.388 395.376,17.683 395.793 C 17.839 396.013,18.199 396.204,18.483 396.218 C 19.406 396.264,21.200 397.169,21.200 397.590 C 21.200 397.816,21.830 398.000,22.600 398.000 C 23.370 398.000,24.000 398.163,24.000 398.363 C 24.000 398.562,24.387 398.624,24.860 398.500 C 25.432 398.351,25.906 398.530,26.276 399.036 C 26.758 399.695,26.887 399.717,27.246 399.198 C 27.558 398.748,27.711 398.724,27.864 399.100 C 27.975 399.375,28.517 399.600,29.067 399.600 C 31.066 399.600,29.723 398.599,27.367 398.332 C 23.646 397.912,20.198 396.536,14.426 393.168 C 10.461 390.855,5.262 383.834,2.897 377.600 L 2.518 376.600 2.206 377.582 M397.280 378.080 C 397.016 378.344,396.800 378.974,396.800 379.480 C 396.800 379.986,396.640 380.400,396.443 380.400 C 396.247 380.400,395.816 381.078,395.484 381.906 C 392.502 389.360,379.973 398.400,372.624 398.400 C 371.044 398.400,370.000 398.735,370.000 399.243 C 370.000 399.897,373.891 399.660,374.148 398.990 C 374.308 398.574,374.686 398.457,375.337 398.620 C 376.001 398.787,376.366 398.665,376.537 398.220 C 376.708 397.775,377.073 397.653,377.737 397.820 C 378.409 397.988,378.766 397.865,378.944 397.402 C 379.114 396.958,379.456 396.827,379.998 396.999 C 380.459 397.146,380.800 397.072,380.800 396.827 C 380.800 396.592,381.160 396.400,381.600 396.400 C 382.040 396.400,382.400 396.220,382.400 396.000 C 382.400 395.780,382.760 395.600,383.200 395.600 C 383.640 395.600,384.000 395.350,384.000 395.043 C 384.000 394.737,384.477 394.367,385.060 394.221 C 385.644 394.074,386.475 393.504,386.908 392.953 C 387.342 392.402,387.929 392.040,388.212 392.149 C 388.846 392.393,392.477 389.039,392.359 388.319 C 392.223 387.488,392.837 386.400,393.443 386.400 C 393.749 386.400,394.000 386.130,394.000 385.800 C 394.000 385.470,394.342 384.858,394.759 384.441 C 395.177 384.023,395.644 383.111,395.797 382.414 C 395.950 381.716,396.328 381.049,396.638 380.930 C 396.947 380.812,397.200 380.374,397.200 379.957 C 397.200 379.541,397.369 379.200,397.575 379.200 C 397.781 379.200,397.923 378.840,397.890 378.400 C 397.857 377.960,397.814 377.600,397.795 377.600 C 397.776 377.600,397.544 377.816,397.280 378.080 " stroke="none" fill="#8568aa" fill-rule="evenodd"></path><path id="path3" d="M14.900 5.082 C 14.405 5.178,14.000 5.423,14.000 5.628 C 14.000 6.166,14.534 6.086,15.424 5.413 C 15.851 5.090,16.110 4.844,16.000 4.867 C 15.890 4.890,15.395 4.987,14.900 5.082 M12.881 6.818 C 12.613 7.248,12.035 7.600,11.597 7.600 C 11.158 7.600,10.800 7.780,10.800 8.000 C 10.800 8.220,10.970 8.400,11.178 8.400 C 11.722 8.400,13.841 6.509,13.585 6.252 C 13.467 6.134,13.150 6.388,12.881 6.818 M187.500 25.882 C 187.995 25.978,188.805 25.978,189.300 25.882 C 189.795 25.787,189.390 25.709,188.400 25.709 C 187.410 25.709,187.005 25.787,187.500 25.882 M213.900 25.882 C 214.395 25.978,215.205 25.978,215.700 25.882 C 216.195 25.787,215.790 25.709,214.800 25.709 C 213.810 25.709,213.405 25.787,213.900 25.882 M200.500 52.676 C 200.885 52.776,201.515 52.776,201.900 52.676 C 202.285 52.575,201.970 52.493,201.200 52.493 C 200.430 52.493,200.115 52.575,200.500 52.676 M170.378 60.700 L 169.000 62.200 170.500 60.822 C 171.325 60.063,172.000 59.388,172.000 59.322 C 172.000 59.016,171.662 59.304,170.378 60.700 M299.693 70.400 C 299.693 71.170,299.775 71.485,299.876 71.100 C 299.976 70.715,299.976 70.085,299.876 69.700 C 299.775 69.315,299.693 69.630,299.693 70.400 M165.293 73.200 C 165.293 73.970,165.375 74.285,165.476 73.900 C 165.576 73.515,165.576 72.885,165.476 72.500 C 165.375 72.115,165.293 72.430,165.293 73.200 M102.186 96.600 C 102.186 108.260,102.237 112.972,102.300 107.072 C 102.362 101.171,102.362 91.631,102.300 85.872 C 102.237 80.112,102.186 84.940,102.186 96.600 M165.301 114.600 C 165.305 115.480,165.387 115.793,165.483 115.295 C 165.579 114.798,165.575 114.078,165.475 113.695 C 165.375 113.313,165.296 113.720,165.301 114.600 M114.700 276.700 C 123.115 276.760,136.885 276.760,145.300 276.700 C 153.715 276.640,146.830 276.590,130.000 276.590 C 113.170 276.590,106.285 276.640,114.700 276.700 M161.387 300.200 C 161.387 312.960,161.438 318.238,161.500 311.929 C 161.562 305.619,161.562 295.179,161.500 288.729 C 161.438 282.278,161.387 287.440,161.387 300.200 M290.386 350.300 L 288.200 352.600 290.500 350.414 C 292.637 348.382,292.983 348.000,292.686 348.000 C 292.624 348.000,291.589 349.035,290.386 350.300 M182.900 373.876 C 183.285 373.976,183.915 373.976,184.300 373.876 C 184.685 373.775,184.370 373.693,183.600 373.693 C 182.830 373.693,182.515 373.775,182.900 373.876 M215.300 373.876 C 215.685 373.976,216.315 373.976,216.700 373.876 C 217.085 373.775,216.770 373.693,216.000 373.693 C 215.230 373.693,214.915 373.775,215.300 373.876 M190.500 374.291 C 191.325 374.378,192.675 374.378,193.500 374.291 C 194.325 374.205,193.650 374.134,192.000 374.134 C 190.350 374.134,189.675 374.205,190.500 374.291 M207.100 374.289 C 207.815 374.378,208.985 374.378,209.700 374.289 C 210.415 374.201,209.830 374.128,208.400 374.128 C 206.970 374.128,206.385 374.201,207.100 374.289 M397.200 379.800 C 397.200 380.130,397.380 380.400,397.600 380.400 C 397.820 380.400,398.000 380.130,398.000 379.800 C 398.000 379.470,397.820 379.200,397.600 379.200 C 397.380 379.200,397.200 379.470,397.200 379.800 M3.100 380.665 C 3.375 380.776,3.600 381.192,3.600 381.591 C 3.600 381.989,3.849 382.410,4.154 382.527 C 4.615 382.704,4.610 382.543,4.125 381.570 C 3.804 380.926,3.330 380.414,3.071 380.432 C 2.741 380.454,2.750 380.523,3.100 380.665 M394.414 384.774 C 393.896 385.741,393.893 386.000,394.400 386.000 C 394.620 386.000,394.800 385.655,394.800 385.233 C 394.800 384.812,395.025 384.376,395.300 384.265 C 395.677 384.113,395.680 384.055,395.314 384.032 C 395.047 384.014,394.642 384.348,394.414 384.774 M5.884 385.708 C 5.999 386.308,6.252 386.800,6.447 386.800 C 6.960 386.800,6.881 386.263,6.238 385.384 C 5.712 384.665,5.689 384.686,5.884 385.708 M8.978 389.232 C 9.321 389.799,9.512 390.384,9.401 390.532 C 9.291 390.679,9.321 390.709,9.468 390.599 C 9.616 390.488,10.201 390.679,10.768 391.022 L 11.800 391.647 10.880 390.844 C 10.374 390.401,9.599 389.626,9.156 389.120 L 8.353 388.200 8.978 389.232 M386.998 392.802 C 385.958 393.951,386.420 394.080,387.514 392.946 C 388.017 392.426,388.270 392.000,388.076 392.000 C 387.882 392.000,387.397 392.361,386.998 392.802 M384.600 394.400 C 383.891 394.705,383.925 394.747,384.900 394.772 C 385.505 394.787,386.000 394.620,386.000 394.400 C 386.000 393.931,385.693 393.931,384.600 394.400 M380.800 396.800 C 380.800 397.020,381.070 397.200,381.400 397.200 C 381.730 397.200,382.000 397.020,382.000 396.800 C 382.000 396.580,381.730 396.400,381.400 396.400 C 381.070 396.400,380.800 396.580,380.800 396.800 M22.262 398.300 C 22.160 398.465,22.509 398.626,23.038 398.658 C 23.567 398.689,24.000 398.554,24.000 398.358 C 24.000 397.925,22.523 397.876,22.262 398.300 " stroke="none" fill="#9c88bc" fill-rule="evenodd"></path><path id="path4" d="M374.892 0.875 C 374.979 1.136,375.264 1.421,375.525 1.508 C 375.818 1.606,375.907 1.423,375.757 1.033 C 375.478 0.306,374.652 0.155,374.892 0.875 M22.000 1.600 C 22.000 1.820,22.270 2.000,22.600 2.000 C 22.930 2.000,23.200 1.820,23.200 1.600 C 23.200 1.380,22.930 1.200,22.600 1.200 C 22.270 1.200,22.000 1.380,22.000 1.600 M377.300 1.700 C 377.392 1.975,377.707 2.200,378.000 2.200 C 378.293 2.200,378.608 1.975,378.700 1.700 C 378.799 1.403,378.516 1.200,378.000 1.200 C 377.484 1.200,377.201 1.403,377.300 1.700 M380.032 2.482 C 380.010 2.952,380.427 3.244,381.372 3.421 C 382.127 3.563,382.841 3.931,382.960 4.239 C 383.078 4.548,383.459 4.800,383.806 4.800 C 384.281 4.800,384.191 4.554,383.436 3.800 C 382.886 3.250,381.993 2.800,381.452 2.800 C 380.910 2.800,380.376 2.575,380.265 2.300 C 380.142 1.994,380.051 2.065,380.032 2.482 M16.860 3.442 C 16.562 3.778,16.402 4.136,16.504 4.238 C 16.810 4.543,18.800 3.652,18.800 3.210 C 18.800 2.590,17.473 2.748,16.860 3.442 M12.060 6.642 C 11.762 6.978,11.623 7.356,11.750 7.483 C 12.028 7.761,13.200 6.846,13.200 6.351 C 13.200 5.820,12.665 5.957,12.060 6.642 M388.400 7.917 C 388.400 8.436,391.962 11.771,392.230 11.503 C 392.366 11.367,391.655 10.434,390.649 9.428 C 388.825 7.604,388.400 7.318,388.400 7.917 M6.500 12.198 C 5.927 12.849,5.840 13.600,6.338 13.600 C 6.873 13.600,8.030 12.164,7.734 11.868 C 7.348 11.481,7.065 11.557,6.500 12.198 M4.400 15.400 C 4.400 15.767,4.594 16.002,4.830 15.923 C 5.067 15.845,5.260 15.609,5.260 15.400 C 5.260 15.191,5.067 14.956,4.830 14.877 C 4.594 14.798,4.400 15.033,4.400 15.400 M395.200 16.194 C 395.200 16.541,395.452 16.922,395.761 17.040 C 396.069 17.159,396.437 17.873,396.579 18.628 C 396.756 19.573,397.048 19.990,397.518 19.968 C 397.935 19.949,398.006 19.858,397.700 19.735 C 397.425 19.624,397.200 19.090,397.200 18.548 C 397.200 18.007,396.750 17.114,396.200 16.564 C 395.446 15.809,395.200 15.719,395.200 16.194 M3.600 17.000 C 3.600 17.330,3.780 17.600,4.000 17.600 C 4.220 17.600,4.400 17.330,4.400 17.000 C 4.400 16.670,4.220 16.400,4.000 16.400 C 3.780 16.400,3.600 16.670,3.600 17.000 M2.000 20.200 C 2.000 20.567,2.194 20.802,2.430 20.723 C 2.667 20.645,2.860 20.409,2.860 20.200 C 2.860 19.991,2.667 19.756,2.430 19.677 C 2.194 19.598,2.000 19.833,2.000 20.200 M1.200 22.824 C 1.200 23.277,1.380 23.536,1.600 23.400 C 2.119 23.079,2.119 22.000,1.600 22.000 C 1.380 22.000,1.200 22.371,1.200 22.824 M398.492 24.475 C 398.691 25.073,399.600 25.402,399.600 24.876 C 399.600 24.661,399.315 24.376,398.967 24.243 C 398.577 24.093,398.394 24.182,398.492 24.475 M0.800 25.200 C 0.483 25.396,0.356 25.689,0.518 25.852 C 0.681 26.014,1.023 25.937,1.280 25.680 C 1.884 25.076,1.547 24.738,0.800 25.200 M186.800 25.975 C 184.930 26.099,191.680 26.200,201.800 26.200 C 211.920 26.200,218.400 26.086,216.200 25.947 C 211.370 25.641,191.542 25.660,186.800 25.975 M175.000 26.817 C 173.859 26.983,174.890 27.019,177.400 26.902 C 179.820 26.789,181.875 26.629,181.967 26.548 C 182.239 26.306,177.163 26.502,175.000 26.817 M221.633 26.549 C 221.725 26.630,223.960 26.793,226.600 26.910 C 229.777 27.050,230.656 27.014,229.200 26.801 C 226.938 26.470,221.336 26.283,221.633 26.549 M167.000 27.617 C 166.268 27.814,166.969 27.853,168.800 27.718 C 170.450 27.596,171.875 27.429,171.967 27.348 C 172.277 27.072,168.208 27.293,167.000 27.617 M232.433 27.346 C 232.525 27.426,234.040 27.591,235.800 27.712 C 237.694 27.841,238.510 27.801,237.800 27.613 C 236.597 27.294,232.120 27.071,232.433 27.346 M161.600 28.400 C 160.538 28.624,160.441 28.702,161.200 28.724 C 161.750 28.741,162.920 28.605,163.800 28.423 C 165.134 28.147,165.200 28.093,164.200 28.099 C 163.540 28.102,162.370 28.238,161.600 28.400 M241.200 28.420 C 243.614 28.850,245.506 28.813,243.400 28.377 C 242.520 28.195,241.260 28.058,240.600 28.073 C 239.700 28.093,239.850 28.180,241.200 28.420 M156.600 29.220 C 156.061 29.465,156.454 29.505,157.800 29.341 C 158.900 29.207,159.875 29.031,159.967 28.949 C 160.317 28.636,157.361 28.874,156.600 29.220 M245.233 28.949 C 245.325 29.031,246.300 29.207,247.400 29.341 C 248.746 29.505,249.139 29.465,248.600 29.220 C 247.839 28.874,244.883 28.636,245.233 28.949 M152.800 30.000 C 152.008 30.254,151.967 30.320,152.600 30.320 C 153.040 30.320,153.850 30.176,154.400 30.000 C 155.192 29.746,155.233 29.680,154.600 29.680 C 154.160 29.680,153.350 29.824,152.800 30.000 M250.000 29.703 C 250.284 29.999,256.491 31.243,256.690 31.043 C 256.781 30.952,255.988 30.695,254.928 30.470 C 251.616 29.770,249.792 29.486,250.000 29.703 M149.000 30.819 C 148.442 31.071,148.685 31.107,149.800 30.938 C 150.680 30.804,151.475 30.628,151.567 30.547 C 151.910 30.244,149.768 30.471,149.000 30.819 M144.681 31.887 C 143.406 32.222,142.441 32.574,142.537 32.670 C 142.716 32.850,147.668 31.659,147.967 31.364 C 148.262 31.073,147.056 31.265,144.681 31.887 M258.000 31.600 C 259.368 32.038,260.419 32.038,259.400 31.600 C 258.960 31.411,258.240 31.262,257.800 31.268 C 257.157 31.277,257.196 31.343,258.000 31.600 M260.433 32.144 C 260.525 32.223,261.140 32.408,261.800 32.556 C 262.676 32.752,262.838 32.715,262.400 32.418 C 261.860 32.053,260.032 31.798,260.433 32.144 M140.400 33.200 C 139.867 33.545,139.867 33.588,140.400 33.588 C 140.730 33.588,141.270 33.413,141.600 33.200 C 142.133 32.855,142.133 32.812,141.600 32.812 C 141.270 32.812,140.730 32.987,140.400 33.200 M265.666 33.792 C 269.227 35.038,270.375 35.349,269.600 34.859 C 268.841 34.379,264.013 32.790,263.434 32.830 C 263.195 32.846,264.200 33.279,265.666 33.792 M134.200 35.365 C 131.300 36.483,124.112 40.083,123.000 40.974 C 122.560 41.327,124.090 40.633,126.400 39.431 C 128.710 38.230,132.040 36.675,133.800 35.977 C 135.560 35.279,137.075 34.639,137.167 34.554 C 137.555 34.196,136.445 34.499,134.200 35.365 M274.752 37.412 C 284.633 42.152,290.651 47.390,295.018 55.053 C 296.872 58.307,297.431 58.808,295.944 55.884 C 293.214 50.515,288.371 45.227,282.777 41.506 C 279.572 39.374,271.489 35.201,270.600 35.220 C 270.380 35.224,272.249 36.211,274.752 37.412 M117.954 44.396 C 112.406 48.563,104.745 58.642,104.811 61.689 C 104.817 61.970,105.508 60.760,106.346 59.000 C 109.030 53.363,113.137 48.572,119.614 43.519 C 122.047 41.621,120.703 42.331,117.954 44.396 M195.000 52.387 C 192.812 52.530,195.164 52.626,201.000 52.632 C 207.853 52.638,209.513 52.562,206.800 52.365 C 202.454 52.050,200.080 52.054,195.000 52.387 M187.000 53.200 C 185.234 53.649,187.245 53.669,189.400 53.223 L 191.000 52.892 189.600 52.893 C 188.830 52.894,187.660 53.032,187.000 53.200 M212.800 53.220 C 215.214 53.650,217.106 53.613,215.000 53.177 C 214.120 52.995,212.860 52.858,212.200 52.873 C 211.300 52.893,211.450 52.980,212.800 53.220 M183.400 53.810 C 183.180 53.891,182.217 54.158,181.260 54.405 C 180.302 54.651,179.603 54.937,179.706 55.040 C 179.809 55.142,181.132 54.873,182.647 54.442 C 184.161 54.010,185.040 53.658,184.600 53.660 C 184.160 53.662,183.620 53.729,183.400 53.810 M217.800 54.000 C 218.240 54.189,218.960 54.338,219.400 54.332 C 220.043 54.323,220.004 54.257,219.200 54.000 C 217.832 53.562,216.781 53.562,217.800 54.000 M223.178 55.567 C 224.816 56.232,226.217 56.717,226.290 56.643 C 226.490 56.443,222.783 54.903,221.400 54.611 C 220.740 54.471,221.540 54.902,223.178 55.567 M175.749 56.580 C 172.718 58.096,170.118 60.145,168.719 62.120 C 168.220 62.824,168.890 62.303,170.206 60.962 C 171.937 59.199,173.542 58.064,176.000 56.865 C 177.870 55.954,179.199 55.206,178.954 55.204 C 178.708 55.202,177.266 55.821,175.749 56.580 M227.364 57.294 C 229.894 58.969,232.378 61.291,233.575 63.102 C 234.332 64.246,235.024 65.109,235.114 65.019 C 235.781 64.352,230.299 58.547,227.946 57.428 C 227.206 57.076,226.944 57.016,227.364 57.294 M297.061 59.200 C 297.517 61.002,298.452 63.203,298.184 61.844 C 298.059 61.208,297.698 60.128,297.382 59.444 C 296.951 58.508,296.871 58.448,297.061 59.200 M166.981 64.837 C 166.629 65.518,166.412 66.145,166.499 66.232 C 166.586 66.319,166.956 65.762,167.322 64.995 C 168.144 63.270,167.859 63.138,166.981 64.837 M298.673 65.200 C 298.804 66.190,298.976 67.075,299.056 67.167 C 299.357 67.514,299.128 64.964,298.790 64.200 C 298.553 63.666,298.514 63.998,298.673 65.200 M103.400 66.000 C 103.248 66.691,103.207 67.341,103.309 67.442 C 103.411 67.544,103.609 67.053,103.750 66.350 C 104.083 64.683,103.760 64.360,103.400 66.000 M236.068 68.200 C 236.074 68.640,236.224 69.450,236.400 70.000 L 236.720 71.000 236.732 70.000 C 236.738 69.450,236.589 68.640,236.400 68.200 L 236.056 67.400 236.068 68.200 M299.537 91.324 C 299.613 104.482,299.564 115.688,299.429 116.226 L 299.184 117.205 268.292 117.102 L 237.400 117.000 237.195 94.000 L 236.990 71.000 236.895 93.820 C 236.823 111.143,236.916 116.756,237.280 117.120 C 238.231 118.071,299.074 117.784,299.586 116.826 C 300.042 115.974,300.105 73.996,299.657 69.800 C 299.515 68.480,299.462 78.166,299.537 91.324 M102.657 69.900 C 102.333 71.859,102.418 122.641,102.747 124.177 C 102.886 124.825,103.000 112.540,103.000 96.877 C 103.000 81.215,102.979 68.400,102.952 68.400 C 102.926 68.400,102.793 69.075,102.657 69.900 M165.057 71.100 C 164.717 73.153,164.778 115.416,165.123 117.359 C 165.275 118.217,165.400 107.822,165.400 94.259 C 165.400 80.697,165.379 69.600,165.352 69.600 C 165.326 69.600,165.193 70.275,165.057 71.100 M165.668 120.000 C 165.688 121.039,166.318 122.746,166.332 121.800 C 166.338 121.360,166.189 120.640,166.000 120.200 C 165.789 119.710,165.661 119.632,165.668 120.000 M166.456 123.200 C 166.456 123.530,166.611 124.160,166.800 124.600 C 167.017 125.104,167.144 125.178,167.144 124.800 C 167.144 124.470,166.989 123.840,166.800 123.400 C 166.583 122.896,166.456 122.822,166.456 123.200 M103.268 126.400 C 103.262 126.950,103.411 127.760,103.600 128.200 L 103.944 129.000 103.932 128.200 C 103.926 127.760,103.776 126.950,103.600 126.400 L 103.280 125.400 103.268 126.400 M168.182 128.200 C 170.294 134.787,172.931 137.361,211.236 170.219 C 230.460 186.709,246.775 200.714,247.494 201.341 C 248.212 201.969,248.793 202.329,248.784 202.141 C 248.775 201.954,247.920 201.129,246.884 200.310 C 245.848 199.490,244.549 198.410,243.999 197.910 C 243.448 197.409,241.828 196.011,240.399 194.802 C 238.969 193.594,237.710 192.513,237.600 192.400 C 237.490 192.287,236.232 191.206,234.804 189.998 C 233.376 188.789,231.666 187.323,231.004 186.740 C 230.342 186.157,225.660 182.132,220.600 177.795 C 215.540 173.459,210.950 169.521,210.400 169.045 C 209.850 168.569,202.380 162.161,193.800 154.804 C 174.385 138.158,173.329 137.092,169.598 130.400 C 168.679 128.750,168.041 127.760,168.182 128.200 M105.605 133.810 C 105.596 134.573,109.206 140.553,111.507 143.584 C 116.186 149.747,120.749 154.087,142.000 172.584 C 146.510 176.509,151.370 180.746,152.800 182.000 C 155.306 184.196,168.833 195.972,174.597 200.973 C 176.135 202.308,178.025 203.960,178.797 204.645 C 179.568 205.330,183.170 208.473,186.800 211.630 C 190.430 214.786,196.100 219.723,199.400 222.599 C 202.700 225.475,209.000 230.951,213.400 234.767 C 226.572 246.192,231.622 251.688,235.281 258.580 C 237.042 261.896,237.331 261.822,235.636 258.489 C 232.597 252.512,227.335 246.541,217.600 238.024 C 211.774 232.926,199.798 222.486,177.198 202.800 C 170.504 196.970,159.892 187.722,153.614 182.250 C 147.336 176.777,138.150 168.784,133.200 164.487 C 118.274 151.531,111.528 144.243,107.313 136.520 C 106.376 134.804,105.608 133.584,105.605 133.810 M249.326 202.670 C 249.482 202.929,257.033 209.517,266.105 217.311 C 282.976 231.803,287.007 235.628,290.898 240.832 C 293.105 243.785,297.200 250.619,297.200 251.350 C 297.200 251.561,297.311 251.622,297.447 251.486 C 298.034 250.900,293.261 243.110,289.551 238.600 C 285.061 233.143,283.273 231.492,264.600 215.568 C 262.180 213.504,260.110 211.721,260.000 211.606 C 259.890 211.490,258.630 210.407,257.200 209.200 C 255.770 207.993,254.510 206.913,254.400 206.800 C 253.517 205.895,249.103 202.303,249.326 202.670 M299.256 256.400 C 299.256 256.730,299.411 257.360,299.600 257.800 C 299.817 258.304,299.944 258.378,299.944 258.000 C 299.944 257.670,299.789 257.040,299.600 256.600 C 299.383 256.096,299.256 256.022,299.256 256.400 M300.068 259.200 C 300.088 260.239,300.718 261.946,300.732 261.000 C 300.738 260.560,300.589 259.840,300.400 259.400 C 300.189 258.910,300.061 258.832,300.068 259.200 M236.812 262.000 C 236.812 262.330,236.987 262.870,237.200 263.200 C 237.545 263.733,237.588 263.733,237.588 263.200 C 237.588 262.870,237.413 262.330,237.200 262.000 C 236.855 261.467,236.812 261.467,236.812 262.000 M301.074 264.600 C 301.198 266.140,301.366 267.475,301.449 267.567 C 301.727 267.874,301.558 265.017,301.202 263.400 C 300.931 262.170,300.902 262.448,301.074 264.600 M237.656 264.600 C 237.656 265.040,237.811 265.760,238.000 266.200 L 238.344 267.000 238.344 266.200 C 238.344 265.760,238.189 265.040,238.000 264.600 L 237.656 263.800 237.656 264.600 M238.600 297.418 C 238.600 314.102,238.714 327.224,238.853 326.577 C 239.199 324.963,239.222 270.583,238.877 268.641 C 238.725 267.784,238.600 280.733,238.600 297.418 M98.667 277.067 C 98.322 277.412,98.386 326.365,98.735 329.000 C 98.881 330.100,98.944 318.895,98.875 304.100 L 98.749 277.200 129.775 277.200 L 160.800 277.200 160.830 300.100 C 160.846 312.695,161.019 323.810,161.213 324.800 C 161.532 326.425,161.549 326.351,161.383 324.041 C 161.283 322.634,161.200 311.429,161.200 299.141 L 161.200 276.800 130.067 276.800 C 112.943 276.800,98.813 276.920,98.667 277.067 M301.040 328.240 C 300.890 329.703,300.849 330.982,300.948 331.082 C 301.048 331.181,301.257 330.071,301.413 328.613 C 301.569 327.156,301.611 325.877,301.505 325.772 C 301.399 325.666,301.190 326.777,301.040 328.240 M161.820 328.400 C 162.479 332.449,167.145 338.902,170.873 340.917 C 172.134 341.599,172.150 341.599,171.200 340.921 C 167.145 338.026,164.127 334.109,162.556 329.702 C 161.985 328.101,161.685 327.570,161.820 328.400 M237.829 329.029 C 237.681 329.615,237.638 330.172,237.732 330.266 C 237.827 330.360,238.024 329.958,238.171 329.371 C 238.319 328.785,238.362 328.228,238.268 328.134 C 238.173 328.040,237.976 328.442,237.829 329.029 M236.205 333.093 C 234.575 336.207,231.377 339.527,228.243 341.360 C 225.100 343.198,224.718 343.725,227.688 342.125 C 231.576 340.030,238.609 332.076,237.529 330.996 C 237.447 330.914,236.852 331.858,236.205 333.093 M99.228 332.233 C 99.244 332.875,99.416 333.760,99.610 334.200 C 99.847 334.734,99.886 334.402,99.727 333.200 C 99.446 331.080,99.188 330.580,99.228 332.233 M300.250 332.850 C 300.109 333.553,300.069 334.202,300.159 334.292 C 300.250 334.383,300.448 333.891,300.600 333.200 C 300.752 332.509,300.793 331.859,300.691 331.758 C 300.589 331.656,300.391 332.147,300.250 332.850 M299.222 336.200 C 296.722 344.063,288.587 353.077,279.307 358.267 C 277.905 359.051,276.836 359.769,276.931 359.864 C 277.138 360.071,280.386 358.183,283.736 355.908 C 290.836 351.086,300.910 338.109,299.895 335.090 C 299.805 334.821,299.502 335.320,299.222 336.200 M100.056 335.600 C 100.056 335.930,100.211 336.560,100.400 337.000 C 100.617 337.504,100.744 337.578,100.744 337.200 C 100.744 336.870,100.589 336.240,100.400 335.800 C 100.183 335.296,100.056 335.222,100.056 335.600 M172.612 342.020 C 172.845 342.396,178.823 344.911,179.018 344.715 C 179.096 344.638,177.643 343.931,175.791 343.144 C 173.939 342.358,172.508 341.852,172.612 342.020 M102.400 342.195 C 102.400 344.912,112.909 356.141,117.900 358.757 C 119.477 359.583,118.870 358.960,116.683 357.507 C 111.305 353.937,106.017 348.375,103.754 343.908 C 102.900 342.224,102.400 341.591,102.400 342.195 M180.200 345.200 C 180.640 345.389,181.360 345.544,181.800 345.544 L 182.600 345.544 181.800 345.200 C 181.360 345.011,180.640 344.856,180.200 344.856 L 179.400 344.856 180.200 345.200 M219.400 345.200 C 218.896 345.417,218.822 345.544,219.200 345.544 C 219.530 345.544,220.160 345.389,220.600 345.200 C 221.104 344.983,221.178 344.856,220.800 344.856 C 220.470 344.856,219.840 345.011,219.400 345.200 M183.600 346.000 C 184.150 346.176,184.960 346.320,185.400 346.320 C 186.033 346.320,185.992 346.254,185.200 346.000 C 184.650 345.824,183.840 345.680,183.400 345.680 C 182.767 345.680,182.808 345.746,183.600 346.000 M215.800 346.000 L 215.000 346.344 215.800 346.332 C 216.240 346.326,217.050 346.176,217.600 346.000 L 218.600 345.680 217.600 345.668 C 217.050 345.662,216.240 345.811,215.800 346.000 M188.200 346.802 C 189.817 347.158,192.674 347.327,192.367 347.049 C 192.275 346.966,190.940 346.798,189.400 346.674 C 187.248 346.502,186.970 346.531,188.200 346.802 M210.600 346.800 L 209.000 347.086 210.600 347.096 C 211.480 347.101,212.740 346.968,213.400 346.800 L 214.600 346.495 213.400 346.504 C 212.740 346.509,211.480 346.642,210.600 346.800 M196.900 347.498 C 199.045 347.570,202.555 347.570,204.700 347.498 C 206.845 347.426,205.090 347.367,200.800 347.367 C 196.510 347.367,194.755 347.426,196.900 347.498 M120.000 359.967 C 120.963 360.752,121.600 361.008,121.600 360.610 C 121.600 360.506,121.015 360.135,120.300 359.786 L 119.000 359.152 120.000 359.967 M123.820 361.930 C 124.877 362.849,136.552 367.246,137.730 367.169 C 137.989 367.153,136.220 366.458,133.800 365.626 C 131.380 364.793,128.160 363.547,126.645 362.856 C 123.822 361.569,123.152 361.350,123.820 361.930 M271.200 362.400 C 270.430 362.822,269.913 363.174,270.051 363.183 C 270.465 363.211,273.200 362.005,273.200 361.795 C 273.200 361.446,272.625 361.620,271.200 362.400 M265.200 364.698 C 264.210 365.048,263.595 365.398,263.834 365.478 C 264.073 365.558,265.063 365.270,266.034 364.840 C 268.159 363.897,267.694 363.818,265.200 364.698 M259.000 366.800 C 258.496 367.017,258.422 367.144,258.800 367.144 C 259.130 367.144,259.760 366.989,260.200 366.800 C 260.704 366.583,260.778 366.456,260.400 366.456 C 260.070 366.456,259.440 366.611,259.000 366.800 M139.971 367.835 C 140.946 368.140,142.386 368.481,143.171 368.591 C 143.957 368.701,143.340 368.437,141.800 368.004 C 138.628 367.114,137.273 366.988,139.971 367.835 M256.200 367.600 L 255.400 367.944 256.200 367.966 C 256.640 367.978,257.270 367.813,257.600 367.600 C 258.395 367.086,257.396 367.086,256.200 367.600 M253.000 368.400 C 251.981 368.838,253.032 368.838,254.400 368.400 C 255.204 368.143,255.243 368.077,254.600 368.068 C 254.160 368.062,253.440 368.211,253.000 368.400 M145.400 369.181 C 146.168 369.529,148.310 369.756,147.967 369.453 C 147.875 369.372,147.080 369.196,146.200 369.062 C 145.085 368.893,144.842 368.929,145.400 369.181 M249.800 369.200 C 248.711 369.477,248.693 369.507,249.600 369.525 C 250.150 369.535,250.960 369.389,251.400 369.200 C 252.386 368.776,251.466 368.776,249.800 369.200 M149.200 370.000 C 149.750 370.176,150.650 370.320,151.200 370.320 L 152.200 370.320 151.200 370.000 C 150.650 369.824,149.750 369.680,149.200 369.680 L 148.200 369.680 149.200 370.000 M245.600 370.000 L 244.600 370.320 245.600 370.320 C 246.150 370.320,247.050 370.176,247.600 370.000 L 248.600 369.680 247.600 369.680 C 247.050 369.680,246.150 369.824,245.600 370.000 M153.600 370.787 C 154.591 371.117,157.487 371.335,157.167 371.054 C 157.075 370.974,156.010 370.806,154.800 370.681 C 153.380 370.534,152.954 370.571,153.600 370.787 M241.400 370.800 L 239.800 371.086 241.200 371.115 C 241.970 371.131,242.960 370.989,243.400 370.800 C 244.343 370.395,243.662 370.395,241.400 370.800 M159.000 371.623 C 159.880 371.805,161.140 371.942,161.800 371.927 C 162.700 371.907,162.550 371.820,161.200 371.580 C 158.786 371.150,156.894 371.187,159.000 371.623 M236.000 371.600 C 234.938 371.824,234.841 371.902,235.600 371.924 C 236.150 371.941,237.320 371.805,238.200 371.623 C 239.534 371.347,239.600 371.293,238.600 371.299 C 237.940 371.302,236.770 371.438,236.000 371.600 M165.000 372.387 C 166.203 372.706,170.680 372.929,170.367 372.654 C 170.275 372.574,168.760 372.409,167.000 372.288 C 165.106 372.159,164.290 372.199,165.000 372.387 M229.600 372.400 L 227.400 372.670 229.200 372.712 C 230.190 372.735,231.720 372.605,232.600 372.423 C 234.620 372.005,232.928 371.992,229.600 372.400 M174.200 373.197 C 176.697 373.526,182.658 373.711,182.367 373.451 C 182.275 373.369,179.860 373.207,177.000 373.092 C 173.607 372.954,172.634 372.991,174.200 373.197 M219.600 373.200 L 216.600 373.456 219.400 373.488 C 220.940 373.506,223.190 373.384,224.400 373.217 L 226.600 372.913 224.600 372.928 C 223.500 372.937,221.250 373.059,219.600 373.200 M0.400 374.108 C 0.400 374.442,0.670 374.818,1.000 374.945 C 1.330 375.071,1.600 375.023,1.600 374.836 C 1.600 374.650,1.330 374.274,1.000 374.000 C 0.512 373.595,0.400 373.615,0.400 374.108 M192.689 374.079 C 197.441 374.289,203.710 374.289,207.889 374.079 C 214.424 373.750,213.768 373.721,199.800 373.721 C 185.103 373.722,184.868 373.734,192.689 374.079 M1.200 377.200 C 1.200 377.640,1.380 378.000,1.600 378.000 C 1.820 378.000,2.000 377.640,2.000 377.200 C 2.000 376.760,1.820 376.400,1.600 376.400 C 1.380 376.400,1.200 376.760,1.200 377.200 M2.000 379.351 C 2.000 379.434,2.270 379.726,2.600 380.000 C 3.091 380.408,3.200 380.380,3.200 379.849 C 3.200 379.492,2.930 379.200,2.600 379.200 C 2.270 379.200,2.000 379.268,2.000 379.351 M2.800 381.400 C 2.800 381.730,2.980 382.000,3.200 382.000 C 3.420 382.000,3.600 381.730,3.600 381.400 C 3.600 381.070,3.420 380.800,3.200 380.800 C 2.980 380.800,2.800 381.070,2.800 381.400 M396.187 381.800 C 396.084 382.130,395.917 382.667,395.815 382.994 C 395.660 383.490,395.760 383.507,396.415 383.098 C 396.847 382.828,397.200 382.291,397.200 381.904 C 397.200 381.045,396.447 380.968,396.187 381.800 M3.600 382.967 C 3.600 383.315,3.780 383.600,4.000 383.600 C 4.220 383.600,4.400 383.883,4.400 384.229 C 4.400 384.953,5.525 386.208,5.868 385.866 C 6.183 385.551,4.660 382.687,4.073 382.491 C 3.813 382.404,3.600 382.618,3.600 382.967 M392.782 387.234 C 392.536 387.693,392.431 388.165,392.549 388.282 C 392.826 388.560,394.000 387.385,394.000 386.829 C 394.000 386.105,393.253 386.353,392.782 387.234 M6.800 387.593 C 6.800 388.105,11.895 393.200,12.407 393.200 C 13.262 393.200,12.721 392.359,11.232 391.374 C 10.370 390.803,9.197 389.630,8.626 388.768 C 7.641 387.279,6.800 386.738,6.800 387.593 M387.260 393.042 C 386.531 393.866,387.000 394.257,387.781 393.476 C 388.121 393.136,388.400 392.754,388.400 392.629 C 388.400 392.209,387.806 392.424,387.260 393.042 M14.000 394.229 C 14.000 394.698,15.165 395.600,15.771 395.600 C 16.761 395.600,16.505 394.820,15.374 394.390 C 14.185 393.938,14.000 393.916,14.000 394.229 M384.000 395.200 C 384.000 395.420,384.270 395.600,384.600 395.600 C 384.930 395.600,385.200 395.420,385.200 395.200 C 385.200 394.980,384.930 394.800,384.600 394.800 C 384.270 394.800,384.000 394.980,384.000 395.200 M16.656 395.478 C 16.205 395.928,16.381 396.400,17.000 396.400 C 17.330 396.400,17.600 396.231,17.600 396.024 C 17.600 395.519,16.975 395.158,16.656 395.478 M18.000 396.800 C 18.000 397.020,18.270 397.200,18.600 397.200 C 18.930 397.200,19.200 397.020,19.200 396.800 C 19.200 396.580,18.930 396.400,18.600 396.400 C 18.270 396.400,18.000 396.580,18.000 396.800 M19.856 397.078 C 19.405 397.528,19.581 398.000,20.200 398.000 C 20.530 398.000,20.800 397.831,20.800 397.624 C 20.800 397.119,20.175 396.758,19.856 397.078 M379.200 397.600 C 379.200 397.820,379.470 398.000,379.800 398.000 C 380.130 398.000,380.400 397.820,380.400 397.600 C 380.400 397.380,380.130 397.200,379.800 397.200 C 379.470 397.200,379.200 397.380,379.200 397.600 M377.056 397.878 C 376.605 398.328,376.781 398.800,377.400 398.800 C 377.730 398.800,378.000 398.631,378.000 398.424 C 378.000 397.919,377.375 397.558,377.056 397.878 M25.043 398.967 C 25.176 399.315,25.461 399.600,25.676 399.600 C 26.202 399.600,25.873 398.691,25.275 398.492 C 24.982 398.394,24.893 398.577,25.043 398.967 M374.400 398.967 C 374.400 399.315,374.685 399.600,375.033 399.600 C 375.740 399.600,375.617 398.739,374.875 398.492 C 374.614 398.405,374.400 398.618,374.400 398.967 " stroke="none" fill="#a494bc" fill-rule="evenodd"></path></g></svg>