<?xml version="1.0" encoding="UTF-8"?>
<svg width="238px" height="238px" viewBox="0 0 238 238" version="1.1" xmlns="http://www.w3.org/2000/svg" xmlns:xlink="http://www.w3.org/1999/xlink">
    <title>SYNOPSYS</title>
    <g id="Page-1" stroke="none" stroke-width="1" fill="none" fill-rule="evenodd">
        <g id="SYNOPSYS">
            <rect id="Rectangle" fill="#4E2A6C" x="0" y="0" width="238" height="238"></rect>
            <path d="M39.2122986,109.5251 C39.2122986,108.2336 38.5779105,107.2648 35.7732837,107.2648 C32.9686568,107.2648 32.3349553,108.2336 32.3349553,109.5251 L32.3349553,113.0286 C32.3349553,114.0919 32.6974628,115.1531 33.6916121,116.0288 L43.1916419,124.3322 C44.5496717,125.4844 45.3632538,126.9152 45.3632538,128.3908 L45.3625673,133.6492 C45.3625673,136.788 41.7436717,138.5373 35.7705374,138.5373 C29.1664479,138.5373 25.9993135,137.0183 26,133.6492 L26,129.0838 L31.9724479,129.0838 L31.9710747,133.4651 C31.9710747,135.0345 33.1478509,135.9557 35.7705374,135.9557 C38.2147165,135.9557 39.3908061,135.0345 39.3908061,133.4651 L39.3921792,128.8066 C39.3921792,127.6523 38.9383583,126.7759 37.673015,125.6237 L28.896627,117.8278 C27.2674031,116.3984 26.3631941,115.2896 26.3631941,113.5837 L26.3631941,109.5713 C26.3631941,106.2967 29.7115822,104.6811 35.7732837,104.6811 C42.4700598,104.6811 45.1833732,106.2967 45.1833732,109.341 L45.1826867,113.5844 L39.2122986,113.5837 L39.2122986,109.5251" id="Fill-1" fill="#FFFFFF" fill-rule="nonzero"></path>
            <polyline id="Fill-9" fill="#FFFFFF" fill-rule="nonzero" points="63.8271074 104.870295 69.7708413 104.870295 56.7621846 145.996557 50.8191331 145.996557 63.8271074 104.870295"></polyline>
            <polyline id="Fill-10" fill="#FFFFFF" fill-rule="nonzero" points="54.4495194 130.415934 46.4094422 104.943967 52.3518113 104.943967 57.4200216 121.003115 54.4495194 130.415934"></polyline>
            <path d="M92.0000001,109.876363 C92.0000001,106.242797 89.7867878,105 82.2668352,105 L71.0033575,105 L71.0000001,137 L76.8385561,137 L76.842585,107.482904 L81.6463837,107.482904 C84.3000896,107.482904 86.1587582,107.837988 86.1587582,109.477566 L86.1587582,136.990585 L91.9724692,136.990585 L92.0000001,109.876363 Z" id="Fill-14" fill="#FFFFFF" fill-rule="nonzero"></path>
            <path d="M102.774687,132.7448 C102.774687,134.5907 103.496955,135.8829 107.299164,135.8829 C111.099314,135.8829 111.823642,134.5907 111.823642,132.7448 L111.824329,110.328 C111.824329,108.4828 111.099314,107.1913 107.300537,107.1913 C103.499015,107.1913 102.774687,108.4828 102.774687,110.328 L102.774687,132.7448 Z M96.803612,110.2342 C96.803612,106.9596 99.246418,104.6076 107.300537,104.608999 C115.352597,104.608999 117.796776,106.9596 117.79609,110.2342 L117.79403,132.8372 C117.79403,136.1132 115.352597,138.4652 107.299164,138.4652 C99.2457314,138.4652 96.8022389,136.1132 96.8022389,132.8372 L96.803612,110.2342 L96.803612,110.2342 Z" id="Fill-3" fill="#FFFFFF" fill-rule="nonzero"></path>
            <path d="M129.658915,120.112867 C132.311902,120.112867 134.164367,119.757745 134.164367,118.117996 L134.164367,109.476691 C134.164367,107.836941 132.311902,107.482492 129.658915,107.482492 L126.83161,107.482492 L126.83161,120.112867 L129.658915,120.112867 Z M121,105 L130.279756,105 C137.790854,105 140,106.241582 140,109.876203 L139.996648,117.720501 C139.996648,121.353777 137.787501,122.596032 130.279756,122.596032 L126.83161,122.596032 L126.83161,137 L121,137 L121,105 L121,105 Z" id="Fill-5" fill="#FFFFFF" fill-rule="nonzero"></path>
            <path d="M153.96511,108.863871 C153.96511,107.564777 153.344644,106.593268 150.593979,106.593268 C147.839272,106.593268 147.214764,107.564777 147.214764,108.863871 L147.214764,112.384361 C147.214764,113.449365 147.573166,114.515776 148.548665,115.395195 L157.872496,123.73316 C159.201681,124.890957 160,126.326428 160,127.809701 L160,133.091138 C160,136.241864 156.451016,138 150.591285,138 C144.10974,138 141,136.471033 141,133.087624 L141,128.504942 L146.861752,128.504942 L146.861752,132.906256 C146.861752,134.481619 148.017126,135.406732 150.591285,135.406732 C152.98759,135.406732 154.139595,134.481619 154.139595,132.906256 L154.139595,128.227267 C154.139595,127.068064 153.699004,126.187239 152.455377,125.030848 L143.843634,117.20043 C142.2443,115.765662 141.358402,114.654261 141.358402,112.941116 L141.358402,108.909565 C141.358402,105.61965 144.641279,104 150.593979,104 C157.163103,104 159.825515,105.61965 159.825515,108.678989 L159.825515,112.941116 L153.96511,112.941116 L153.96511,108.863871" id="Fill-6" fill="#FFFFFF" fill-rule="nonzero"></path>
            <polyline id="Fill-11" fill="#FFFFFF" fill-rule="nonzero" points="179.31024 104.870295 185.253292 104.870295 172.245318 146 166.302266 146 179.31024 104.870295"></polyline>
            <polyline id="Fill-13" fill="#FFFFFF" fill-rule="nonzero" points="170.031043 130 162 105 167.935188 105 173 120.75921 170.031043 130"></polyline>
            <path d="M198.696639,109.362918 C198.696639,108.09259 198.064052,107.140361 195.277798,107.140361 C192.49018,107.140361 191.858957,108.09259 191.858957,109.362918 L191.858957,112.811738 C191.858957,113.855541 192.218584,114.899344 193.208751,115.76 L202.650485,123.928656 C204.000961,125.061279 204.808927,126.468623 204.808927,127.920721 L204.808927,133.09223 C204.808927,136.178197 201.211296,137.900197 195.277798,137.900197 C188.709665,137.900197 185.561056,136.402656 185.561056,133.09223 L185.561056,128.600295 L191.500013,128.600295 L191.496601,132.911147 C191.496601,134.454131 192.667605,135.36023 195.277798,135.36023 C197.701695,135.36023 198.873382,134.454131 198.873382,132.911147 L198.873382,128.328328 C198.873382,127.193639 198.423678,126.331607 197.163279,125.197607 L188.440798,117.529508 C186.820773,116.124229 185.92273,115.034984 185.92273,113.356361 L185.92273,109.407672 C185.92273,106.187443 189.251494,104.599016 195.277798,104.599016 C201.931914,104.599016 204.629455,106.187443 204.629455,109.181836 L204.629455,113.356361 L198.696639,113.356361 L198.696639,109.362918" id="Fill-7" fill="#FFFFFF" fill-rule="nonzero"></path>
            <path d="M210.5,108.249481 C211.012651,108.249481 211.470421,108.212835 211.470421,107.593014 C211.470421,107.092608 211.022006,106.999729 210.602904,106.999729 L209.779045,106.999729 L209.779045,108.249481 L210.5,108.249481 Z M209.779045,110.518368 L209.174715,110.518368 L209.174715,106.480368 L210.693959,106.480368 C211.635068,106.480368 212.100321,106.832927 212.100321,107.628396 C212.100321,108.350573 211.65253,108.666486 211.066287,108.741042 L212.200107,110.518368 L211.52655,110.518368 L210.473182,108.768842 L209.779045,108.768842 L209.779045,110.518368 Z M210.51185,111.417456 C212.074751,111.417456 213.304615,110.177182 213.304615,108.489575 C213.304615,106.832927 212.074751,105.582544 210.51185,105.582544 C208.92712,105.582544 207.695385,106.832927 207.695385,108.489575 C207.695385,110.177182 208.92712,111.417456 210.51185,111.417456 Z M207,108.489575 C207,106.480368 208.609052,105 210.51185,105 C212.393443,105 214,106.480368 214,108.489575 C214,110.518368 212.393443,112 210.51185,112 C208.609052,112 207,110.518368 207,108.489575 L207,108.489575 Z" id="Fill-15" fill="#FFFFFF" fill-rule="nonzero"></path>
        </g>
    </g>
</svg>