<?xml version="1.0" encoding="utf-8"?>
<!-- Generator: Adobe Illustrator 27.1.1, SVG Export Plug-In . SVG Version: 6.00 Build 0)  -->
<svg version="1.1" id="svg" xmlns="http://www.w3.org/2000/svg" xmlns:xlink="http://www.w3.org/1999/xlink" x="0px" y="0px"
	 viewBox="0 0 200 200" style="enable-background:new 0 0 200 200;" xml:space="preserve">
<style type="text/css">
	.st0{fill-rule:evenodd;clip-rule:evenodd;fill:#FBFAFB;}
	.st1{fill-rule:evenodd;clip-rule:evenodd;fill:#4C2484;}
	.st2{fill-rule:evenodd;clip-rule:evenodd;fill:#8568AA;}
	.st3{fill-rule:evenodd;clip-rule:evenodd;fill:#9C88BC;}
	.st4{fill-rule:evenodd;clip-rule:evenodd;fill:#A494BC;}
</style>
<g id="svgg">
	<path id="path0" class="st0" d="M13,1.7c0,0.1,0.1,0.2,0.3,0.2s0.3-0.1,0.3-0.2c0-0.1-0.1-0.2-0.3-0.2S13,1.6,13,1.7 M193.3,5.2
		c0,0.2,1.4,1.5,1.5,1.4c0.1-0.1-0.2-0.4-0.6-0.8C193.6,5.1,193.3,4.9,193.3,5.2 M94.3,14.3C70,15.2,56,21.7,52.6,33.6l-0.5,1.6V49
		c0,15.8-0.1,15.3,1.9,19.1c2,4,5.2,7.6,13,14.3c2.4,2.1,7,6.1,10.1,8.8c3.1,2.7,8.3,7.3,11.6,10.1c10.4,9.1,17,14.8,19.9,17.4
		c6.2,5.5,8.9,9,10.2,13.4c0.5,1.9,0.7,28.5,0.2,30.7c-1.4,6.3-7.1,9.6-17.2,9.9c-12.6,0.4-19.6-3.2-20.9-10.5
		c-0.2-1.4-0.3-3.9-0.3-13v-11.2H65.3H50l0.1,13.2c0.1,13.9,0.1,13.9,1,16.7c4,12,19.7,17.7,48.6,17.7c30.6,0,48-7.7,50-22.2
		c0.4-2.9,0.4-28.7,0-31.6c-1.2-8.3-3.8-11.9-17.2-23.4c-4.4-3.8-16.2-13.9-26.2-22.4C84.7,67.5,84.9,67.7,83.3,61.6l-0.5-2
		l-0.1-11.3c-0.1-13.7,0-14.3,2.5-17c2.8-3.1,10.1-4.7,18.5-4.1c8.4,0.6,12.4,2.6,14.2,7.2l0.5,1.2l0.1,11.7l0.1,11.7l15.2,0.1
		l15.2,0.1l0.1-0.5c0.3-1.1-0.1-23.8-0.4-25.3c-2.4-11.1-13.6-17.1-35.2-18.7C109.7,14.3,98.1,14.1,94.3,14.3"/>
	<path id="path1" class="st1" d="M15.4,1.8c0,0.1-0.2,0.3-0.4,0.3c-0.9,0.1-2.7,0.5-2.9,0.7c-0.1,0.1-0.3,0.2-0.4,0.2
		c-1,0-4.9,2.8-6.2,4.5c-0.4,0.5-0.7,0.9-0.8,1C3.9,9,2.3,13.1,2.1,15.1c-0.1,0.8-0.3,1.5-0.4,1.5C1.4,16.8,1.4,183,1.8,183.4
		c0.1,0.1,0.3,0.9,0.4,1.6c0.3,3.6,3.5,8.7,6.6,10.5c2.5,1.5,5,2.4,6.5,2.4c0.4,0,0.7,0.1,0.8,0.3c0.2,0.5,167.5,0.5,168,0
		c0.2-0.2,0.6-0.3,1.1-0.3c3.7,0,9.9-4.4,11.4-8.1c0.2-0.4,0.4-0.7,0.5-0.7c0.1,0,0.2-0.2,0.2-0.5c0-0.3,0.2-0.5,0.3-0.5
		c0.2,0,0.2,0,0.1-0.2c-0.1-0.1,0-0.7,0.1-1.3c0.1-0.6,0.3-1.3,0.3-1.6c0-0.2,0.2-0.4,0.3-0.3c0.1,0.1,0.2-29.9,0.2-84.5
		c0-70.9,0-84.7-0.3-84.8c-0.2-0.1-0.5-1.5-0.6-2.8c0-0.3-0.1-0.5-0.3-0.5c-0.1,0-0.2-0.1-0.2-0.2c0-0.2-0.8-1.8-1.4-3
		c-0.3-0.6-3.9-4.1-4.5-4.5c-2.3-1.3-4.7-2.2-5.8-2.2c-0.4,0-0.7-0.1-0.7-0.3C184.6,1.4,15.3,1.4,15.4,1.8 M109.1,13.9
		c25.1,1.4,37.2,7.2,40,19.2c0.4,1.9,0.7,25.7,0.3,26.2c-0.3,0.4-30.7,0.4-31.1,0c-0.2-0.2-0.2-3-0.2-11.4c0-13.7-0.1-14.1-2.6-16.6
		c-5.5-5.2-23.9-5.3-29.5-0.2c-2.7,2.5-2.9,3.6-2.8,17.5c0.1,13.1,0.3,14.3,3.3,18.6c1.5,2.2,2.6,3.2,28,24.9
		c14,12,26.4,22.7,27.6,23.9c4,4,6.5,8,7.9,12.9l0.5,1.6l0.1,16.3c0.1,17.9,0.1,17.8-1.2,20.9c-5.4,13.7-29.3,20.4-62.6,17.8
		c-21.6-1.7-33.1-7.8-36.2-19l-0.5-2l-0.1-13.3c-0.1-12.5,0-13.3,0.3-13.6c0.4-0.3,30.4-0.4,30.9-0.1c0.3,0.2,0.3,1.7,0.3,12.2
		c0,13.3,0,13.2,1.3,15.7c2.4,4.4,8.6,6.8,18,6.8c10.3,0,16.4-3.1,18.1-9.2c0.2-0.8,0.3-3.6,0.3-15.3c0-21.8,2.7-17.5-27.3-43.6
		C58.7,75.8,60.6,77.5,58.1,74.6c-4.3-4.9-6.1-8.6-6.5-14.1c-0.3-4.1-0.1-24,0.3-25.8C54.7,21.9,68,15.2,93.6,13.9
		C96.5,13.7,105.8,13.8,109.1,13.9"/>
	<path id="path2" class="st2" d="M13.9,1.8c-0.1,0.2-0.3,0.3-0.6,0.2c-0.3-0.1-0.5,0-0.6,0.2c-0.1,0.2,0,0.3,0.4,0.1
		c0.3-0.1,0.9-0.2,1.4-0.3c1-0.1,1.2-0.5,0.2-0.6C14.2,1.5,14,1.6,13.9,1.8 M184.7,1.8c0,0.1,0.5,0.3,1,0.4c0.5,0.1,1.1,0.2,1.3,0.3
		c0.3,0.1,0.4,0.1,0.3-0.1c-0.1-0.2-0.3-0.2-0.6-0.2c-0.3,0.1-0.5,0-0.6-0.2C186,1.4,184.6,1.4,184.7,1.8 M11.6,2.5
		c0,0.1-0.2,0.2-0.4,0.2c-0.2,0-0.4,0.1-0.5,0.3c-0.1,0.2-0.4,0.3-0.8,0.4C9.5,3.5,9.2,3.6,9.2,3.7C9.2,3.8,9,4,8.7,4.1
		C8.4,4.3,7.9,4.6,7.6,4.9C7.3,5.2,6.9,5.5,6.7,5.5c-0.5,0-1.2,0.8-1.4,1.5C5.2,7.5,4.8,8,4.5,8C4.4,8,4.2,8.3,4.2,8.6
		C4.1,8.9,3.8,9.4,3.6,9.7c-0.3,0.3-0.4,0.6-0.4,0.7c0.1,0.1,0,0.2-0.2,0.3c-0.2,0.1-0.2,0.3-0.2,0.5c0.1,0.3,0,0.4-0.2,0.4
		c-0.2,0-0.3,0.2-0.3,0.8c0,0.4-0.1,0.8-0.2,0.8C2,13.2,2,13.4,2,13.6c0.1,0.3,0,0.5-0.2,0.6c-0.4,0.1-0.5,2.4-0.1,2.4
		c0.2,0,0.3-0.5,0.5-2.2C2.3,13.1,4,8.9,4.6,8.4c0.1-0.1,0.4-0.5,0.8-1c1.3-1.8,5.2-4.5,6.2-4.5c0.1,0,0.4-0.1,0.5-0.3
		c0.2-0.2,0.2-0.3-0.2-0.3C11.8,2.3,11.6,2.4,11.6,2.5 M187.9,2.5c-0.3,0.1-0.3,0.2,0.2,0.4c0.3,0.1,0.8,0.3,1,0.4
		c0.3,0.1,0.3,0-0.2-0.4c-0.3-0.3-0.6-0.5-0.6-0.5C188.3,2.3,188.1,2.4,187.9,2.5 M189.7,3.5c0.1,0.1,0.6,0.4,1.1,0.6
		c1.1,0.6,4.5,4,5.1,5.1c0.6,1.1,0.8,1.4,0.8,0.9c0-0.2-0.1-0.4-0.2-0.5c-0.1-0.1-0.2-0.3-0.1-0.5c0.1-0.4-0.2-0.9-0.8-1.2
		c-0.3-0.1-0.4-0.4-0.3-0.5c0.1-0.2,0-0.3-0.2-0.4c-0.5-0.2-1.8-1.5-2-2c-0.1-0.3-0.3-0.4-0.5-0.3c-0.2,0.1-0.4-0.1-0.5-0.3
		c-0.3-0.6-0.8-0.9-1.2-0.8c-0.2,0-0.4,0-0.5-0.1c-0.1-0.1-0.3-0.2-0.5-0.2C189.6,3.3,189.6,3.4,189.7,3.5 M196.8,10.9
		c0.1,0.2,0.2,0.6,0.3,0.7c0.1,0.4,0.6,0.5,0.6,0.2c0-0.1-0.2-0.4-0.5-0.7C196.8,10.6,196.7,10.6,196.8,10.9 M197.6,12.9
		c0.1,0.4,0.2,1.1,0.2,1.6c0.2,1,0.6,1.2,0.6,0.3c0-0.4-0.1-0.7-0.3-0.8c-0.2-0.1-0.3-0.3-0.2-0.6c0.1-0.3,0-0.5-0.1-0.5
		s-0.2-0.2-0.3-0.3C197.5,12.2,197.6,12.4,197.6,12.9 M97.7,13.9c1.7,0,4.5,0,6.2,0c1.7,0,0.3-0.1-3.1-0.1
		C97.4,13.8,96,13.9,97.7,13.9 M89.7,14.1l-1.5,0.1l1.3,0c0.7,0,1.9-0.1,2.7-0.1l1.4-0.1l-1.2,0C91.7,14,90.5,14.1,89.7,14.1
		 M109.7,14.2c0.9,0.1,2.3,0.1,3,0.1c1.2,0,1.1,0-0.5-0.2c-1-0.1-2.3-0.1-3-0.1C108.1,14,108.2,14,109.7,14.2 M85.1,14.5l-1,0.1
		l0.9,0c0.5,0,1.4-0.1,2-0.1l1.1-0.1l-1,0C86.5,14.4,85.6,14.5,85.1,14.5 M115.3,14.5c0.7,0.1,1.6,0.1,2.1,0.1c0.8,0,0.8,0-0.3-0.2
		c-0.7-0.1-1.6-0.1-2.1-0.1C114.2,14.4,114.2,14.4,115.3,14.5 M82.1,14.9l-0.8,0.1l0.7,0c0.4,0,1-0.1,1.3-0.1
		C84.1,14.7,83.3,14.7,82.1,14.9 M119,14.9c0.6,0.2,2.2,0.3,2.1,0.1c0,0-0.7-0.1-1.4-0.2C118.9,14.8,118.7,14.8,119,14.9 M79.5,15.3
		c-0.5,0.1-0.6,0.1-0.2,0.2c0.3,0,0.8-0.1,1.3-0.1c0.7-0.1,0.7-0.2,0.2-0.2C80.4,15.2,79.8,15.2,79.5,15.3 M122,15.3
		c0.4,0.1,1,0.2,1.3,0.2c0.3,0,0.2-0.1-0.3-0.2c-0.4-0.1-1-0.2-1.3-0.2C121.4,15.2,121.5,15.2,122,15.3 M77.4,15.7
		c-0.5,0.1-0.5,0.2-0.1,0.2c0.3,0,0.7-0.1,1-0.2C78.9,15.5,78.2,15.5,77.4,15.7 M75.5,16.1c-0.4,0.1-0.4,0.2-0.1,0.2
		c0.2,0,0.6-0.1,0.9-0.2c0.4-0.1,0.4-0.2,0.1-0.2C76.2,16,75.8,16,75.5,16.1 M128,16.5c1.2,0.3,2.4,0.5,2.5,0.5
		c0.2-0.1-4.1-1.1-4.5-1.1C125.9,15.9,126.8,16.2,128,16.5 M73.9,16.5c-0.4,0.1-0.4,0.2-0.1,0.2c0.2,0,0.6-0.1,0.8-0.2
		C75.1,16.3,74.6,16.3,73.9,16.5 M72.5,16.9c-0.2,0.1-0.3,0.2-0.1,0.2c0.2,0,0.5-0.1,0.7-0.2c0.2-0.1,0.3-0.2,0.1-0.2
		C73,16.7,72.7,16.8,72.5,16.9 M71.1,17.3c-0.2,0.1-0.3,0.2-0.1,0.2c0.2,0,0.5-0.1,0.7-0.2c0.2-0.1,0.3-0.2,0.1-0.2
		C71.6,17.1,71.3,17.2,71.1,17.3 M130.8,17.2c0,0,0.9,0.3,1.9,0.7c1,0.3,2,0.7,2.2,0.7c0.3,0.1,0.4,0.1,0.1-0.1
		C134.3,18.1,130.5,16.9,130.8,17.2 M67,18.8c-7.3,3-13.1,8.4-14.2,13.1l-0.1,0.5l0.2-0.5c2.9-6.4,7-10.1,14.4-13
		c1.1-0.5,2.1-0.9,2.2-0.9C69.6,17.7,68.9,18,67,18.8 M136.3,19.2c0.2,0.2,2.8,1.5,2.9,1.4c0,0-0.6-0.4-1.3-0.8
		C136.6,19.1,136.1,18.9,136.3,19.2 M139.5,20.7c0,0,0.6,0.5,1.4,1c1.9,1.3,4.2,3.5,5.4,5.2c1.1,1.6,1.3,2,1,1.2
		c-1.3-2.5-4.5-5.6-7.4-7.4C139.6,20.7,139.5,20.7,139.5,20.7 M95.3,27.5c-0.4,0.1,1.9,0.1,5.1,0.1c3.2,0,5.6-0.1,5.1-0.1
		C104.7,27.4,96.5,27.4,95.3,27.5 M92.6,28c-0.2,0.1,0,0.1,0.7,0.1c0.6-0.1,1.1-0.1,1.2-0.2C94.6,27.7,93,27.8,92.6,28 M106.7,27.8
		c0,0,0.6,0.1,1.2,0.2c0.7,0.1,0.9,0.1,0.6-0.1C108,27.8,106.6,27.7,106.7,27.8 M91,28.4c-0.5,0.2,0,0.2,0.7,0
		c0.4-0.1,0.4-0.2,0.1-0.2C91.6,28.2,91.2,28.3,91,28.4 M109.1,28.2c0,0,0.3,0.1,0.7,0.2c0.4,0.1,0.5,0.1,0.3-0.1
		C109.8,28.2,108.9,28.1,109.1,28.2 M111.3,29c0.5,0.2,1,0.3,1.1,0.3c0.1-0.1-1.3-0.7-1.7-0.7C110.5,28.6,110.8,28.7,111.3,29
		 M87.9,29.5c-1.4,0.7-3.5,2.8-4.1,4c-0.7,1.5-0.5,1.5,0.3,0c0.8-1.7,2.2-3,4.1-3.9c0.7-0.3,1.2-0.6,1.1-0.6
		C89.1,29,88.5,29.2,87.9,29.5 M113.7,30.1c1.4,0.9,2.4,2,3.1,3.2c0.3,0.5,0.5,0.8,0.5,0.7c0-1-3.6-4.6-4.6-4.6
		C112.6,29.3,113.1,29.7,113.7,30.1 M148.2,30.8c0.3,1.1,0.7,2.2,0.6,1.5c-0.1-0.4-0.2-1-0.4-1.3S148.2,30.6,148.2,30.8 M149,33.5
		c0,0.3,0.1,0.8,0.2,1.3c0.1,0.5,0.2,0.6,0.2,0.3c0-0.3-0.1-0.8-0.2-1.3C149,33.3,149,33.2,149,33.5 M51.9,34.6c-0.1,0.5-0.1,1,0,1
		c0,0,0.2-0.3,0.2-0.8c0.1-0.5,0.1-1,0-1C52.1,33.7,52,34.1,51.9,34.6 M117.5,34.8c0.2,0.7,0.3,0.9,0.3,0.4c0-0.2-0.1-0.5-0.2-0.7
		C117.4,34.3,117.4,34.3,117.5,34.8 M83.1,35.5c-0.1,0.2-0.1,0.7-0.1,1c0,0.4,0.1,0.3,0.2-0.4C83.4,35.1,83.3,34.7,83.1,35.5
		 M117.9,47.4c0,8,0.1,11.7,0.3,11.9c0.3,0.4,30.8,0.4,31.1,0c0.2-0.2,0.2-3,0.2-11.8l0-11.6l-0.1,11.6l-0.1,11.6h-15.5h-15.5
		l-0.1-11.7c-0.1-6.4-0.1-11.7-0.2-11.8C117.9,35.7,117.9,40.9,117.9,47.4 M51.6,37.8c-0.2,2.5-0.1,20.7,0,22.9
		c0.1,0.9,0.1-4.3,0.1-11.6s0-13.3,0-13.3C51.7,35.9,51.6,36.7,51.6,37.8 M82.9,47.6c0,5.3,0,7.5,0.1,4.8c0-2.7,0-7,0-9.7
		C82.9,40.1,82.9,42.3,82.9,47.6 M83,59c0,0.5,0.1,1.1,0.2,1.4c0.1,0.3,0.1,0,0.1-0.8C83.1,58,83,57.7,83,59 M83.4,61.1
		c0,1,1.4,4.4,2.8,6.3c1.5,2.2,3.2,3.7,28.4,25.3c14.1,12,26.3,22.6,27.1,23.5c2.4,2.4,4.4,5.1,5.7,7.6c0.3,0.6,0.6,1,0.6,0.9
		c0.2-0.2-2.3-4.2-3.7-5.8c-2.1-2.6-3.1-3.5-30.1-26.7c-14-12-25.8-22.3-26.3-22.8c-1.9-2.1-3.4-4.9-4.2-7.4
		C83.6,61.4,83.4,61,83.4,61.1 M51.9,62.9c0,0.3,0.1,0.7,0.2,1c0.2,0.7,0.2-0.1,0-0.9C51.9,62.5,51.9,62.4,51.9,62.9 M52.3,64.7
		c0,0.2,0.1,0.5,0.2,0.7c0.1,0.2,0.2,0.3,0.2,0.1c0-0.2-0.1-0.5-0.2-0.7C52.3,64.5,52.3,64.5,52.3,64.7 M52.7,66.2
		c0.5,1.9,2.8,5.5,5.4,8.4c2.5,2.8,0.6,1.1,33.4,29.7c24.7,21.5,24.9,21.8,26.7,27c0.2,0.6,0.4,0.9,0.4,0.8c0-1-1.4-4-3.1-6.1
		c-2-2.7-3.4-4-13-12.4c-1.3-1.1-2.9-2.6-3.7-3.2c-1.3-1.1-8.2-7.2-10.8-9.4c-0.8-0.7-1.7-1.5-2.1-1.8c-0.6-0.5-9.3-8.1-13.3-11.6
		c-0.8-0.7-1.7-1.5-2.1-1.8c-0.4-0.3-2.5-2.2-4.7-4.1c-8.2-7.1-10.2-9.5-13-15.5l-0.2-0.5L52.7,66.2 M148.2,125.4
		c0.1,0.2,0.3,0.8,0.5,1.4c0.2,0.6,0.4,1,0.5,1c0.1-0.1-0.9-2.7-1.1-2.7C148.1,125.1,148.2,125.2,148.2,125.4 M149.4,128.2
		c0,0.2,0.2,0.9,0.4,1.7c0.2,0.9,0.3,1.1,0.3,0.6C149.9,129.6,149.4,127.7,149.4,128.2 M150.2,147.6c0,9,0,12.6,0.1,8.1
		c0-4.5,0-11.8,0-16.3S150.2,138.6,150.2,147.6 M118.7,133.5c0.1,0.6,0.1,1.1,0.2,1.2c0.1,0.2,0-1.5-0.1-1.9
		C118.6,132.6,118.6,132.9,118.7,133.5 M119,148.3c0,7.3,0,10.2,0.1,6.5c0-3.7,0-9.6,0-13.2C119.1,138,119,141,119,148.3 M50,137.7
		c-0.3,0.2-0.3,1.2-0.3,13l0.1,12.7l0-12.8l0-12.8l0.4-0.1c0.8-0.2,29.9-0.1,30.4,0.1c0.2,0.1,0.4,0.1,0.4,0c0-0.1-0.1-0.2-0.3-0.3
		C80.1,137.4,50.3,137.5,50,137.7 M81.1,145c0,3.7,0,5.3,0.1,3.4c0-1.9,0-4.9,0-6.8C81.2,139.7,81.1,141.2,81.1,145 M81.1,161
		c-0.1,3.9,3.2,8.4,7,9.6c0.2,0.1-0.1-0.2-0.8-0.5c-3.9-2.2-5.6-4.6-6-8.7C81.1,159.9,81.1,159.9,81.1,161 M118.8,162.1
		c-0.1,2.6-2.2,5.7-4.9,7.4c-0.7,0.4-1.1,0.8-1,0.8c2,0,6.4-5.9,6-8.2l-0.1-0.6L118.8,162.1 M49.9,164.2c0,0.3,0.1,0.9,0.2,1.2
		c0.2,0.8,0.2,0,0-1C49.9,163.8,49.9,163.7,49.9,164.2 M149.8,164.8c-0.1,0.4-0.1,0.8,0,0.8c0,0,0.1-0.2,0.2-0.6
		c0.1-0.4,0.1-0.8,0-0.8C150,164.2,149.9,164.4,149.8,164.8 M149.4,166.4c-0.1,0.3-0.1,0.6,0,0.6c0,0,0.1-0.2,0.2-0.4
		c0.1-0.3,0.1-0.6,0-0.6C149.6,165.9,149.5,166.1,149.4,166.4 M50.3,166.3c0,0.5,0.3,1.4,0.3,0.9c0-0.2-0.1-0.6-0.2-0.8
		C50.3,166.2,50.3,166.1,50.3,166.3 M50.7,168.1c1,3.5,4.8,8.2,8.6,10.4c1.2,0.7,1,0.4-0.2-0.4c-3.4-2.2-6.3-5.5-7.7-8.8
		C50.8,167.7,50.5,167.2,50.7,168.1 M148.5,168.9c-1.5,3.6-5.7,7.6-11.1,10.3c-1.3,0.7-2.3,1.2-2.2,1.2c1.1,0,7.3-3.9,9.5-6.2
		c2-2,4.8-6,4.1-6C148.8,168.3,148.6,168.6,148.5,168.9 M111.4,170.8c-0.6,0.3-1.3,0.5-1.5,0.5c-0.2,0-0.2,0-0.1,0.1
		c0.3,0.1,2.3-0.6,2.7-1C112.8,170.2,112.6,170.2,111.4,170.8 M89.2,171c0.4,0.2,1,0.4,1.2,0.4c0.2,0-0.1-0.2-0.7-0.4
		C88.4,170.6,88.2,170.6,89.2,171 M90.9,171.5c0.2,0.2,3.1,0.7,3.7,0.6c0.5-0.1,0.5-0.1-0.1-0.1c-0.4,0-1.3-0.2-2-0.3
		C91.1,171.4,90.8,171.4,90.9,171.5 M108.5,171.6c-0.4,0.1-0.4,0.2-0.1,0.2c0.2,0,0.6-0.1,0.8-0.2
		C109.7,171.4,109.1,171.4,108.5,171.6 M106.4,172l-0.8,0.1l0.7,0c0.4,0,0.9-0.1,1.2-0.1C108.1,171.8,107.5,171.8,106.4,172
		 M96.2,172.5c0.5,0.1,2.4,0.1,4.1,0.1c1.8,0,3.7-0.1,4.1-0.1c0.5-0.1-1.4-0.1-4.1-0.1C97.6,172.3,95.7,172.4,96.2,172.5 M60.3,179
		c0,0.2,3.6,1.9,3.7,1.8c0.1-0.1-0.1-0.2-0.4-0.3c-0.3-0.1-1.1-0.5-1.9-0.9C60.9,179.3,60.3,179,60.3,179 M133.8,180.9
		c-0.4,0.2-0.6,0.3-0.3,0.3c0.6-0.1,1.6-0.7,1.3-0.6C134.7,180.5,134.3,180.7,133.8,180.9 M64.5,181.1c0.5,0.3,5.4,1.9,6.3,2
		c0.4,0.1,0.1-0.1-0.6-0.3c-0.7-0.2-2.2-0.7-3.3-1.1C64.5,180.9,64,180.8,64.5,181.1 M129.3,182.4c-0.5,0.2-0.9,0.3-0.9,0.4
		c0,0,0.6-0.1,1.2-0.3c0.6-0.2,1-0.4,0.9-0.4C130.4,182.1,129.9,182.3,129.3,182.4 M127.1,183.1c-0.5,0.2,0,0.2,0.7,0
		c0.4-0.1,0.4-0.2,0.1-0.2C127.7,182.9,127.3,183,127.1,183.1 M1.5,184.4c0,0.9,0.1,1.2,0.3,1.3c0.2,0.1,0.3,0.3,0.2,0.6
		c-0.1,0.3,0,0.5,0.2,0.6c0.2,0.1,0.3,0,0.2-0.2c-0.1-0.2-0.2-0.8-0.2-1.4C2,183,1.5,182.4,1.5,184.4 M72.5,183.6
		c1.3,0.4,4.4,1,4.5,0.8c0,0-0.9-0.3-2.1-0.5C72,183.3,71.2,183.2,72.5,183.6 M125.5,183.5c-0.5,0.2,0,0.2,0.7,0
		c0.4-0.1,0.4-0.2,0.1-0.2C126.1,183.3,125.8,183.4,125.5,183.5 M123.7,183.9c-0.7,0.2,0.1,0.2,0.9,0c0.5-0.1,0.5-0.2,0.1-0.2
		C124.4,183.7,123.9,183.8,123.7,183.9 M121.7,184.3c-0.7,0.2,0.1,0.2,0.9,0c0.5-0.1,0.5-0.2,0.1-0.2
		C122.4,184.1,122,184.2,121.7,184.3 M78.1,184.7c1.2,0.2,2.1,0.2,1.1,0c-0.4-0.1-1.1-0.2-1.4-0.1C77.3,184.5,77.4,184.6,78.1,184.7
		 M119.3,184.7c-0.5,0.1-0.6,0.1-0.2,0.2c0.3,0,0.8-0.1,1.3-0.1c0.7-0.1,0.7-0.2,0.2-0.2C120.3,184.5,119.7,184.6,119.3,184.7
		 M198,184.9c-0.1,0.2-0.1,0.7-0.2,1s-0.2,0.8-0.2,1c-0.1,0.3-0.1,0.4,0.2,0.3c0.2-0.1,0.3-0.3,0.2-0.6c-0.1-0.3,0-0.5,0.2-0.6
		c0.2-0.1,0.3-0.4,0.3-0.8C198.5,184.6,198.1,184.3,198,184.9 M80.4,185c0.2,0,0.6,0,0.9,0c0.2,0,0-0.1-0.4-0.1
		C80.4,184.9,80.2,185,80.4,185 M117.5,185c0.2,0,0.6,0,0.8,0c0.2,0,0-0.1-0.4-0.1C117.4,184.9,117.3,185,117.5,185 M84.4,185.5
		c0.7,0.1,1.7,0.1,2.3,0.1c0.9,0,0.9,0-0.3-0.2c-0.7-0.1-1.7-0.1-2.3-0.1C83.2,185.3,83.2,185.3,84.4,185.5 M112.7,185.5l-1,0.1
		l0.9,0c0.5,0,1.4-0.1,2-0.1l1.1-0.1l-1,0C114.1,185.3,113.3,185.4,112.7,185.5 M89.8,185.9c1.1,0.1,2.6,0.1,3.5,0.1
		c1.4,0,1.4,0-0.5-0.2c-1.1-0.1-2.6-0.1-3.5-0.1C87.9,185.7,87.9,185.7,89.8,185.9 M109.2,185.8c0.5,0,1.2,0,1.6,0
		c0.4,0,0-0.1-0.8-0.1C109.1,185.7,108.8,185.8,109.2,185.8 M106.1,186c0.5,0,1.2,0,1.6,0c0.4,0,0-0.1-0.8-0.1
		C105.9,185.9,105.6,186,106.1,186 M98.4,186.2c1,0,2.6,0,3.7,0c1,0,0.2-0.1-1.8-0.1C98.2,186.1,97.4,186.2,98.4,186.2 M2.4,187.6
		c-0.1,0.3-0.1,0.5,0.1,0.6c0.1,0,0.5,0.6,0.8,1.2c0.3,0.6,0.6,1.2,0.7,1.2c0.1,0.1,0.3,0.5,0.5,0.9c0.2,0.5,0.5,0.8,0.6,0.8
		c0.1,0,0.4,0.3,0.7,0.7c0.3,0.4,0.9,1,1.2,1.2c0.4,0.3,0.7,0.6,0.8,0.8c0.1,0.2,0.3,0.4,0.5,0.5c0.6,0.2,1.7,0.8,1.9,1
		c0.1,0.1,0.3,0.2,0.4,0.2c0.5,0,1.3,0.5,1.3,0.7c0,0.1,0.3,0.2,0.7,0.2c0.4,0,0.7,0.1,0.7,0.2c0,0.1,0.2,0.1,0.4,0.1
		c0.3-0.1,0.5,0,0.7,0.3c0.2,0.3,0.3,0.3,0.5,0.1c0.2-0.2,0.2-0.2,0.3,0c0.1,0.1,0.3,0.2,0.6,0.2c1,0,0.3-0.5-0.8-0.6
		c-1.8-0.2-3.5-0.9-6.4-2.5c-2-1.1-4.5-4.6-5.7-7.7l-0.2-0.5L2.4,187.6 M197.3,187.9c-0.1,0.1-0.2,0.4-0.2,0.7
		c0,0.2-0.1,0.5-0.2,0.5c-0.1,0-0.3,0.3-0.5,0.7c-1.5,3.7-7.7,8.1-11.3,8.1c-0.8,0-1.3,0.2-1.3,0.4c0,0.3,1.9,0.2,2-0.1
		c0.1-0.2,0.3-0.3,0.6-0.2c0.3,0.1,0.5,0,0.6-0.2c0.1-0.2,0.3-0.3,0.6-0.2c0.3,0.1,0.5,0,0.6-0.2c0.1-0.2,0.3-0.3,0.5-0.2
		c0.2,0.1,0.4,0,0.4-0.1c0-0.1,0.2-0.2,0.4-0.2c0.2,0,0.4-0.1,0.4-0.2s0.2-0.2,0.4-0.2s0.4-0.1,0.4-0.3c0-0.2,0.2-0.3,0.5-0.4
		c0.3-0.1,0.7-0.4,0.9-0.6c0.2-0.3,0.5-0.5,0.6-0.4c0.3,0.1,2.1-1.5,2-1.9c-0.1-0.4,0.2-0.9,0.5-0.9c0.2,0,0.3-0.1,0.3-0.3
		c0-0.2,0.2-0.5,0.4-0.7c0.2-0.2,0.4-0.7,0.5-1c0.1-0.3,0.3-0.7,0.4-0.7c0.2-0.1,0.3-0.3,0.3-0.5c0-0.2,0.1-0.4,0.2-0.4
		c0.1,0,0.2-0.2,0.2-0.4c0-0.2,0-0.4,0-0.4C197.6,187.6,197.5,187.7,197.3,187.9"/>
	<path id="path3" class="st3" d="M8.7,3.8C8.4,3.9,8.2,4,8.2,4.1c0,0.3,0.3,0.2,0.7-0.1c0.2-0.2,0.3-0.3,0.3-0.3
		C9.1,3.7,8.9,3.8,8.7,3.8 M7.7,4.7C7.5,4.9,7.2,5.1,7,5.1c-0.2,0-0.4,0.1-0.4,0.2c0,0.1,0.1,0.2,0.2,0.2c0.3,0,1.3-0.9,1.2-1.1
		C8,4.3,7.8,4.5,7.7,4.7 M93.8,14.1c0.2,0,0.6,0,0.9,0c0.2,0,0-0.1-0.4-0.1S93.6,14,93.8,14.1 M106.8,14.1c0.2,0,0.6,0,0.9,0
		c0.2,0,0-0.1-0.4-0.1S106.6,14,106.8,14.1 M100.2,27.3c0.2,0,0.5,0,0.7,0c0.2,0,0-0.1-0.3-0.1S100,27.3,100.2,27.3 M85.4,31.3
		L84.7,32L85.4,31.3c0.5-0.3,0.8-0.6,0.8-0.7C86.2,30.4,86,30.6,85.4,31.3 M149.2,36.1c0,0.4,0,0.5,0.1,0.3c0-0.2,0-0.5,0-0.7
		C149.2,35.5,149.2,35.7,149.2,36.1 M82.9,37.4c0,0.4,0,0.5,0.1,0.3c0-0.2,0-0.5,0-0.7C82.9,36.9,82.9,37.1,82.9,37.4 M51.7,49
		c0,5.8,0,8.1,0.1,5.2c0-2.9,0-7.6,0-10.5C51.8,40.8,51.7,43.2,51.7,49 M82.9,57.9c0,0.4,0,0.6,0.1,0.3c0-0.2,0-0.6,0-0.8
		C82.9,57.2,82.9,57.4,82.9,57.9 M57.9,137.8c4.2,0,10.9,0,15.1,0s0.8-0.1-7.5-0.1S53.7,137.8,57.9,137.8 M80.9,149.4
		c0,6.3,0,8.9,0.1,5.8c0-3.1,0-8.3,0-11.4C81,140.6,80.9,143.1,80.9,149.4 M144.6,174.2l-1.1,1.1L144.6,174.2
		c1.1-0.9,1.3-1.1,1.1-1.1C145.7,173,145.2,173.5,144.6,174.2 M91.6,185.8c0.2,0,0.5,0,0.7,0c0.2,0,0-0.1-0.3-0.1
		C91.5,185.7,91.4,185.7,91.6,185.8 M107.5,185.8c0.2,0,0.5,0,0.7,0c0.2,0,0-0.1-0.3-0.1S107.3,185.7,107.5,185.8 M95.3,186
		c0.4,0,1.1,0,1.5,0c0.4,0,0.1-0.1-0.7-0.1C95.2,185.9,94.9,185.9,95.3,186 M103.5,186c0.4,0,0.9,0,1.3,0c0.4,0,0.1-0.1-0.6-0.1
		S103.1,185.9,103.5,186 M197.3,188.7c0,0.2,0.1,0.3,0.2,0.3s0.2-0.1,0.2-0.3c0-0.2-0.1-0.3-0.2-0.3S197.3,188.5,197.3,188.7
		 M2.8,189.1c0.1,0.1,0.2,0.3,0.2,0.5c0,0.2,0.1,0.4,0.3,0.5c0.2,0.1,0.2,0,0-0.5C3.2,189.3,3,189,2.8,189
		C2.7,189,2.7,189.1,2.8,189.1 M195.9,191.2c-0.3,0.5-0.3,0.6,0,0.6c0.1,0,0.2-0.2,0.2-0.4c0-0.2,0.1-0.4,0.2-0.5
		c0.2-0.1,0.2-0.1,0-0.1C196.2,190.8,196,191,195.9,191.2 M4.2,191.6c0.1,0.3,0.2,0.5,0.3,0.5c0.3,0,0.2-0.3-0.1-0.7
		C4.1,191.1,4.1,191.1,4.2,191.6 M5.7,193.4c0.2,0.3,0.3,0.6,0.2,0.6c-0.1,0.1,0,0.1,0,0c0.1-0.1,0.4,0,0.6,0.2l0.5,0.3l-0.5-0.4
		C6.4,193.9,6,193.6,5.7,193.4l-0.3-0.5L5.7,193.4 M192.3,195.1c-0.5,0.6-0.3,0.6,0.3,0.1c0.2-0.3,0.4-0.5,0.3-0.5
		S192.4,194.9,192.3,195.1 M191.1,195.9c-0.3,0.2-0.3,0.2,0.1,0.2c0.3,0,0.5-0.1,0.5-0.2C191.8,195.7,191.6,195.7,191.1,195.9
		 M189.2,197.1c0,0.1,0.1,0.2,0.3,0.2s0.3-0.1,0.3-0.2s-0.1-0.2-0.3-0.2S189.2,197,189.2,197.1 M12.3,197.8
		c-0.1,0.1,0.1,0.2,0.4,0.2c0.3,0,0.5-0.1,0.5-0.1C13.1,197.7,12.4,197.6,12.3,197.8"/>
	<path id="path4" class="st4" d="M186.3,1.7c0,0.1,0.2,0.3,0.3,0.3c0.1,0,0.2,0,0.1-0.2C186.6,1.5,186.2,1.4,186.3,1.7 M12.2,2.1
		c0,0.1,0.1,0.2,0.3,0.2s0.3-0.1,0.3-0.2c0-0.1-0.1-0.2-0.3-0.2S12.2,2,12.2,2.1 M187.5,2.2c0,0.1,0.2,0.2,0.3,0.2
		c0.1,0,0.3-0.1,0.3-0.2c0-0.1-0.1-0.2-0.3-0.2C187.6,1.9,187.4,2,187.5,2.2 M188.8,2.5c0,0.2,0.2,0.4,0.7,0.5
		c0.4,0.1,0.7,0.3,0.8,0.4c0.1,0.2,0.2,0.3,0.4,0.3c0.2,0,0.2-0.1-0.2-0.5c-0.3-0.3-0.7-0.5-1-0.5c-0.3,0-0.5-0.1-0.6-0.2
		C188.9,2.3,188.8,2.3,188.8,2.5 M9.6,3C9.5,3.2,9.4,3.4,9.5,3.4c0.2,0.2,1.1-0.3,1.1-0.5C10.6,2.6,9.9,2.7,9.6,3 M7.3,4.6
		C7.1,4.8,7,4.9,7.1,5c0.1,0.1,0.7-0.3,0.7-0.6C7.8,4.2,7.6,4.3,7.3,4.6 M192.9,5.2c0,0.3,1.8,1.9,1.9,1.8c0.1-0.1-0.3-0.5-0.8-1
		C193.2,5.1,192.9,4.9,192.9,5.2 M4.5,7.3C4.2,7.7,4.2,8,4.4,8c0.3,0,0.8-0.7,0.7-0.9C4.9,7,4.8,7,4.5,7.3 M3.5,8.9
		c0,0.2,0.1,0.3,0.2,0.3c0.1,0,0.2-0.2,0.2-0.3S3.8,8.7,3.7,8.7C3.6,8.6,3.5,8.7,3.5,8.9 M196.3,9.3c0,0.2,0.1,0.4,0.3,0.4
		c0.2,0.1,0.3,0.4,0.4,0.8c0.1,0.5,0.2,0.7,0.5,0.7c0.2,0,0.2-0.1,0.1-0.1c-0.1-0.1-0.2-0.3-0.2-0.6c0-0.3-0.2-0.7-0.5-1
		C196.4,9.1,196.3,9.1,196.3,9.3 M3.1,9.7c0,0.2,0.1,0.3,0.2,0.3c0.1,0,0.2-0.1,0.2-0.3S3.4,9.4,3.3,9.4C3.2,9.4,3.1,9.5,3.1,9.7
		 M2.3,11.3c0,0.2,0.1,0.3,0.2,0.3c0.1,0,0.2-0.2,0.2-0.3c0-0.1-0.1-0.2-0.2-0.3C2.4,11,2.3,11.1,2.3,11.3 M1.9,12.6
		c0,0.2,0.1,0.4,0.2,0.3c0.3-0.2,0.3-0.7,0-0.7C2,12.2,1.9,12.4,1.9,12.6 M197.9,13.4c0.1,0.3,0.5,0.5,0.5,0.2
		c0-0.1-0.1-0.2-0.3-0.3C198,13.2,197.9,13.2,197.9,13.4 M1.7,13.7c-0.2,0.1-0.2,0.2-0.1,0.3c0.1,0.1,0.2,0,0.4-0.1
		C2.2,13.7,2.1,13.5,1.7,13.7 M93.5,14.1c-0.9,0.1,2.4,0.1,7.4,0.1c5,0,8.2-0.1,7.1-0.1C105.6,14,95.8,14,93.5,14.1 M87.7,14.5
		c-0.6,0.1-0.1,0.1,1.2,0c1.2-0.1,2.2-0.1,2.3-0.2C91.2,14.3,88.7,14.4,87.7,14.5 M110.7,14.4c0,0,1.1,0.1,2.5,0.2
		c1.6,0.1,2,0.1,1.3-0.1C113.3,14.4,110.5,14.3,110.7,14.4 M83.7,14.9c-0.4,0.1,0,0.1,0.9,0c0.8-0.1,1.5-0.1,1.6-0.2
		C86.3,14.7,84.3,14.8,83.7,14.9 M116,14.8c0,0,0.8,0.1,1.7,0.2c0.9,0.1,1.3,0,1,0C118,14.8,115.8,14.7,116,14.8 M81,15.3
		c-0.5,0.1-0.6,0.1-0.2,0.2c0.3,0,0.8-0.1,1.3-0.1c0.7-0.1,0.7-0.2,0.2-0.2C82,15.2,81.4,15.2,81,15.3 M120.3,15.3
		c1.2,0.2,2.1,0.2,1.1,0c-0.4-0.1-1.1-0.2-1.4-0.1C119.6,15.2,119.6,15.2,120.3,15.3 M78.6,15.7c-0.3,0.1-0.1,0.1,0.6,0.1
		c0.5-0.1,1-0.2,1.1-0.2C80.4,15.4,78.9,15.6,78.6,15.7 M122.3,15.6c0,0,0.5,0.1,1.1,0.2c0.7,0.1,0.9,0.1,0.6-0.1
		C123.6,15.6,122.1,15.4,122.3,15.6 M76.7,16.1c-0.4,0.1-0.4,0.2-0.1,0.2c0.2,0,0.6-0.1,0.9-0.2c0.4-0.1,0.4-0.2,0.1-0.2
		C77.4,16,77,16,76.7,16.1 M124.7,16c0.1,0.1,3.2,0.8,3.3,0.7c0,0-0.3-0.2-0.9-0.3C125.5,16,124.6,15.9,124.7,16 M74.8,16.5
		c-0.3,0.1-0.2,0.1,0.4,0.1c0.4-0.1,0.8-0.2,0.9-0.2C76.3,16.2,75.2,16.4,74.8,16.5 M72.7,17c-0.6,0.2-1.1,0.3-1.1,0.4
		c0.1,0.1,2.5-0.5,2.7-0.6C74.5,16.6,73.9,16.7,72.7,17 M128.6,16.9c0.7,0.2,1.2,0.2,0.7,0c-0.2-0.1-0.6-0.2-0.8-0.2
		C128.2,16.7,128.2,16.8,128.6,16.9 M129.8,17.2c0,0,0.3,0.1,0.7,0.2c0.4,0.1,0.5,0.1,0.3-0.1C130.5,17.1,129.6,17,129.8,17.2
		 M70.6,17.7c-0.3,0.2-0.3,0.2,0,0.2c0.2,0,0.4-0.1,0.6-0.2c0.3-0.2,0.3-0.2,0-0.2C71,17.5,70.7,17.6,70.6,17.7 M132.4,18
		c1.8,0.6,2.3,0.8,1.9,0.5c-0.4-0.2-2.8-1-3-1C131.2,17.5,131.7,17.7,132.4,18 M67.5,18.8c-1.4,0.6-5,2.3-5.5,2.8
		c-0.2,0.2,0.5-0.2,1.7-0.8c1.1-0.6,2.8-1.4,3.7-1.7c0.9-0.3,1.6-0.7,1.7-0.7C69.2,18.2,68.6,18.3,67.5,18.8 M136.9,19.8
		c4.9,2.3,7.8,4.9,10,8.7c0.9,1.6,1.2,1.9,0.5,0.4c-1.3-2.6-3.7-5.3-6.5-7.1c-1.6-1.1-5.6-3.1-6-3.1
		C134.7,18.7,135.6,19.2,136.9,19.8 M59.5,23.2c-2.7,2.1-6.5,7-6.5,8.5c0,0.1,0.3-0.5,0.8-1.3c1.3-2.8,3.4-5.1,6.5-7.6
		C61.5,21.9,60.9,22.2,59.5,23.2 M97.5,27.2c-1.1,0.1,0.1,0.1,3,0.1c3.4,0,4.2,0,2.9-0.1C101.2,27,100,27,97.5,27.2 M93.6,27.6
		c-0.9,0.2,0.1,0.2,1.2,0l0.8-0.2l-0.7,0C94.5,27.4,93.9,27.5,93.6,27.6 M106.3,27.6c1.2,0.2,2.1,0.2,1.1,0
		c-0.4-0.1-1.1-0.2-1.4-0.1C105.6,27.4,105.6,27.5,106.3,27.6 M91.8,27.9c-0.1,0-0.6,0.2-1.1,0.3c-0.5,0.1-0.8,0.3-0.8,0.3
		c0.1,0.1,0.7-0.1,1.5-0.3c0.7-0.2,1.2-0.4,1-0.4C92.2,27.8,91.9,27.8,91.8,27.9 M108.8,28c0.2,0.1,0.6,0.2,0.8,0.2
		c0.3,0,0.3,0-0.1-0.2C108.8,27.7,108.3,27.7,108.8,28 M111.4,28.7c0.8,0.3,1.5,0.6,1.5,0.5c0.1-0.1-1.7-0.9-2.4-1
		C110.2,28.2,110.6,28.4,111.4,28.7 M88,29.2C86.5,30,85.2,31,84.6,32c-0.2,0.3,0.1,0.1,0.7-0.6c0.9-0.9,1.6-1.4,2.9-2
		c0.9-0.4,1.6-0.8,1.5-0.8C89.5,28.6,88.8,28.9,88,29.2 M113.5,29.6c1.2,0.8,2.5,2,3.1,2.9c0.4,0.6,0.7,1,0.8,0.9
		c0.3-0.3-2.4-3.2-3.5-3.7C113.4,29.5,113.3,29.4,113.5,29.6 M147.9,30.5c0.2,0.9,0.7,2,0.6,1.3c-0.1-0.3-0.2-0.8-0.4-1.2
		C147.8,30.2,147.8,30.2,147.9,30.5 M83.7,33.3c-0.2,0.3-0.3,0.6-0.2,0.7c0,0,0.2-0.2,0.4-0.6C84.3,32.5,84.1,32.5,83.7,33.3
		 M148.7,33.5c0.1,0.5,0.1,0.9,0.2,1c0.1,0.2,0-1.1-0.1-1.5C148.6,32.7,148.6,32.9,148.7,33.5 M52.3,33.9c-0.1,0.3-0.1,0.7,0,0.7
		c0.1,0.1,0.1-0.2,0.2-0.5C52.7,33.2,52.5,33.1,52.3,33.9 M117.8,35c0,0.2,0.1,0.6,0.2,0.9l0.2,0.5l0-0.5c0-0.3-0.1-0.7-0.2-0.9
		l-0.2-0.4L117.8,35 M149.1,46.4c0,6.5,0,12-0.1,12.3l-0.1,0.5l-15.2-0.1L118.4,59l-0.1-11.3l-0.1-11.3l0,11.3
		c0,8.5,0,11.3,0.2,11.5c0.5,0.5,30.5,0.3,30.7-0.1c0.2-0.4,0.3-21.1,0-23.2C149.1,35.1,149.1,39.9,149.1,46.4 M52,35.8
		c-0.2,1-0.1,26,0,26.8c0.1,0.3,0.1-5.7,0.1-13.5c0-7.7,0-14.1,0-14.1C52.1,35.1,52,35.4,52,35.8 M82.7,36.4c-0.2,1-0.1,21.9,0,22.8
		c0.1,0.4,0.1-4.7,0.1-11.4c0-6.7,0-12.2,0-12.2C82.9,35.7,82.8,36,82.7,36.4 M83,60.5c0,0.5,0.3,1.4,0.3,0.9c0-0.2-0.1-0.6-0.2-0.8
		C83.1,60.4,83,60.3,83,60.5 M83.4,62.1c0,0.2,0.1,0.5,0.2,0.7c0.1,0.2,0.2,0.3,0.2,0.1c0-0.2-0.1-0.5-0.2-0.7
		C83.5,62,83.4,61.9,83.4,62.1 M52.3,63.7c0,0.3,0.1,0.7,0.2,0.9l0.2,0.4l0-0.4c0-0.2-0.1-0.6-0.2-0.9l-0.2-0.5L52.3,63.7
		 M84.3,64.6c1,3.3,2.3,4.5,21.2,20.7c9.5,8.1,17.5,15,17.9,15.4c0.4,0.3,0.6,0.5,0.6,0.4c0-0.1-0.4-0.5-0.9-0.9
		c-0.5-0.4-1.2-0.9-1.4-1.2c-0.3-0.2-1.1-0.9-1.8-1.5c-0.7-0.6-1.3-1.1-1.4-1.2c-0.1-0.1-0.7-0.6-1.4-1.2c-0.7-0.6-1.5-1.3-1.9-1.6
		c-0.3-0.3-2.6-2.3-5.1-4.4c-2.5-2.1-4.8-4.1-5-4.3c-0.3-0.2-4-3.4-8.2-7c-9.6-8.2-10.1-8.7-11.9-12C84.5,64.8,84.2,64.4,84.3,64.6
		 M53.4,67.3c0,0.4,1.8,3.3,2.9,4.8c2.3,3,4.6,5.2,15,14.3c2.2,1.9,4.6,4,5.3,4.6c1.2,1.1,7.9,6.9,10.8,9.4c0.8,0.7,1.7,1.5,2.1,1.8
		c0.4,0.3,2.2,1.9,3.9,3.4c1.8,1.6,4.6,4,6.2,5.4c1.6,1.4,4.7,4.1,6.9,6c6.5,5.6,9,8.3,10.8,11.7c0.9,1.6,1,1.6,0.2,0
		c-1.5-2.9-4.1-5.9-8.9-10.1c-2.9-2.5-8.8-7.7-19.9-17.4c-3.3-2.9-8.5-7.4-11.6-10.1c-3.1-2.7-7.6-6.6-10.1-8.8
		c-7.4-6.4-10.7-10-12.8-13.8C53.8,67.8,53.4,67.2,53.4,67.3 M124.3,101.3c0.1,0.1,3.8,3.4,8.3,7.2c8.3,7.2,10.3,9,12.2,11.6
		c1.1,1.5,3.1,4.8,3.1,5.2c0,0.1,0.1,0.1,0.1,0.1c0.3-0.3-2.1-4.1-3.9-6.4c-2.2-2.7-3.1-3.5-12.3-11.4c-1.2-1-2.2-1.9-2.3-2
		c-0.1-0.1-0.7-0.6-1.4-1.2c-0.7-0.6-1.3-1.1-1.4-1.2C126.4,102.9,124.2,101.1,124.3,101.3 M149,127.8c0,0.2,0.1,0.5,0.2,0.7
		c0.1,0.2,0.2,0.3,0.2,0.1c0-0.2-0.1-0.5-0.2-0.7C149,127.7,149,127.6,149,127.8 M149.4,129.2c0,0.5,0.3,1.4,0.3,0.9
		c0-0.2-0.1-0.6-0.2-0.8C149.4,129.1,149.4,129,149.4,129.2 M118.2,130.6c0,0.2,0.1,0.4,0.2,0.6c0.2,0.3,0.2,0.3,0.2,0
		c0-0.2-0.1-0.4-0.2-0.6C118.2,130.3,118.2,130.3,118.2,130.6 M149.9,131.9c0.1,0.8,0.1,1.4,0.2,1.5c0.1,0.2,0.1-1.3-0.1-2.1
		C149.8,130.7,149.8,130.8,149.9,131.9 M118.6,131.9c0,0.2,0.1,0.6,0.2,0.8l0.2,0.4v-0.4c0-0.2-0.1-0.6-0.2-0.8l-0.2-0.4V131.9
		 M119,148.1c0,8.2,0.1,14.7,0.1,14.4c0.2-0.8,0.2-27.6,0-28.6C119.1,133.4,119,139.8,119,148.1 M50,138c-0.2,0.2-0.1,24.3,0,25.6
		c0.1,0.5,0.1-5,0.1-12.3L50,138l15.3,0.1h15.3l0,11.3c0,6.2,0.1,11.7,0.2,12.2c0.2,0.8,0.2,0.8,0.1-0.4c0-0.7-0.1-6.2-0.1-12.3v-11
		H65.5C57,137.9,50.1,137.9,50,138 M149.8,163.3c-0.1,0.7-0.1,1.4,0,1.4c0,0,0.2-0.5,0.2-1.2c0.1-0.7,0.1-1.3,0-1.4
		C150,162,149.9,162.5,149.8,163.3 M81.1,163.3c0.3,2,2.6,5.2,4.5,6.2c0.6,0.3,0.6,0.3,0.2,0c-2-1.4-3.5-3.4-4.3-5.5
		C81.2,163.2,81.1,162.9,81.1,163.3 M118.7,163.7c-0.1,0.3-0.1,0.6,0,0.6c0,0,0.1-0.2,0.2-0.4c0.1-0.3,0.1-0.6,0-0.6
		C118.8,163.2,118.7,163.4,118.7,163.7 M117.9,165.7c-0.8,1.5-2.4,3.2-3.9,4.1c-1.6,0.9-1.7,1.2-0.3,0.4c1.9-1,5.4-5,4.9-5.5
		C118.5,164.6,118.2,165.1,117.9,165.7 M50.3,165.2c0,0.3,0.1,0.8,0.2,1c0.1,0.3,0.1,0.1,0.1-0.5C50.4,164.7,50.2,164.4,50.3,165.2
		 M149.5,165.5c-0.1,0.3-0.1,0.7,0,0.7c0,0,0.1-0.2,0.2-0.5c0.1-0.3,0.1-0.7,0-0.7C149.6,165,149.5,165.2,149.5,165.5 M148.9,167.2
		c-1.2,3.9-5.2,8.3-9.8,10.9c-0.7,0.4-1.2,0.7-1.2,0.8c0.1,0.1,1.7-0.8,3.4-2c3.5-2.4,8.5-8.8,8-10.3
		C149.2,166.5,149.1,166.8,148.9,167.2 M50.7,166.9c0,0.2,0.1,0.5,0.2,0.7c0.1,0.2,0.2,0.3,0.2,0.1c0-0.2-0.1-0.5-0.2-0.7
		C50.7,166.8,50.7,166.7,50.7,166.9 M86.5,170.1c0.1,0.2,3.1,1.4,3.2,1.3c0,0-0.7-0.4-1.6-0.8C87.1,170.2,86.4,170,86.5,170.1
		 M51.8,170.2c0,1.3,5.2,6.9,7.6,8.2c0.8,0.4,0.5,0.1-0.6-0.6c-2.7-1.8-5.3-4.5-6.4-6.7C52.1,170.2,51.8,169.9,51.8,170.2
		 M90.2,171.6c0.2,0.1,0.6,0.2,0.8,0.2h0.4l-0.4-0.2c-0.2-0.1-0.6-0.2-0.8-0.2h-0.4L90.2,171.6 M109.6,171.6
		c-0.2,0.1-0.3,0.2-0.1,0.2c0.2,0,0.5-0.1,0.7-0.2c0.2-0.1,0.3-0.2,0.1-0.2C110.1,171.5,109.8,171.5,109.6,171.6 M91.9,172
		c0.3,0.1,0.7,0.2,0.9,0.2c0.3,0,0.3,0-0.1-0.2c-0.3-0.1-0.7-0.2-0.9-0.2C91.5,171.9,91.5,171.9,91.9,172 M107.8,172l-0.4,0.2l0.4,0
		c0.2,0,0.6-0.1,0.9-0.2l0.5-0.2l-0.5,0C108.4,171.9,108,171.9,107.8,172 M94.2,172.4c0.8,0.2,2.2,0.3,2.1,0.1c0,0-0.7-0.1-1.5-0.2
		C93.7,172.3,93.6,172.3,94.2,172.4 M105.2,172.4l-0.8,0.1l0.8,0c0.4,0,1.1-0.1,1.4-0.1l0.6-0.2l-0.6,0
		C106.3,172.3,105.7,172.3,105.2,172.4 M98.5,172.8c1.1,0,2.8,0,3.8,0c1.1,0,0.2-0.1-1.9-0.1C98.3,172.7,97.4,172.7,98.5,172.8
		 M60.5,178.9c0.5,0.4,0.8,0.5,0.8,0.3c0-0.1-0.3-0.2-0.6-0.4l-0.6-0.3L60.5,178.9 M62.4,179.9c0.5,0.5,6.3,2.6,6.9,2.6
		c0.1,0-0.7-0.4-1.9-0.8c-1.2-0.4-2.8-1-3.5-1.4C62.4,179.7,62.1,179.6,62.4,179.9 M135.1,180.1c-0.4,0.2-0.6,0.4-0.6,0.4
		c0.2,0,1.6-0.6,1.6-0.7C136.1,179.7,135.8,179.7,135.1,180.1 M132.2,181.3c-0.5,0.2-0.8,0.3-0.7,0.4c0.1,0,0.6-0.1,1.1-0.3
		C133.6,180.9,133.4,180.8,132.2,181.3 M129.1,182.3c-0.2,0.1-0.3,0.2-0.1,0.2c0.2,0,0.5-0.1,0.7-0.2c0.2-0.1,0.3-0.2,0.1-0.2
		C129.6,182.1,129.3,182.2,129.1,182.3 M70.4,182.8c0.5,0.2,1.2,0.3,1.6,0.4c0.4,0.1,0.1-0.1-0.7-0.3
		C69.7,182.5,69,182.4,70.4,182.8 M127.7,182.7l-0.4,0.2l0.4,0c0.2,0,0.5-0.1,0.7-0.2C128.8,182.4,128.3,182.4,127.7,182.7
		 M126.1,183.1c-0.5,0.2,0,0.2,0.7,0c0.4-0.1,0.4-0.2,0.1-0.2C126.7,182.9,126.4,183,126.1,183.1 M73,183.5c0.4,0.2,1.4,0.3,1.3,0.1
		c0,0-0.4-0.1-0.9-0.2C72.9,183.3,72.8,183.3,73,183.5 M124.6,183.5c-0.5,0.1-0.5,0.2-0.1,0.2c0.3,0,0.7-0.1,0.9-0.2
		C125.8,183.3,125.4,183.3,124.6,183.5 M74.9,183.9c0.3,0.1,0.7,0.2,1,0.2h0.5l-0.5-0.2c-0.3-0.1-0.7-0.2-1-0.2h-0.5L74.9,183.9
		 M122.5,183.9L122,184h0.5c0.3,0,0.7-0.1,1-0.2l0.5-0.2h-0.5C123.2,183.7,122.8,183.8,122.5,183.9 M77.1,184.3
		c0.5,0.2,1.9,0.3,1.8,0.1c0,0-0.6-0.1-1.2-0.2C77,184.1,76.8,184.2,77.1,184.3 M120.4,184.3l-0.8,0.1l0.7,0c0.4,0,0.9-0.1,1.1-0.2
		C121.9,184.1,121.5,184.1,120.4,184.3 M79.8,184.7c0.4,0.1,1.1,0.2,1.4,0.1c0.4,0,0.4-0.1-0.3-0.2
		C79.7,184.4,78.7,184.5,79.8,184.7 M117.7,184.7c-0.5,0.1-0.6,0.1-0.2,0.2c0.3,0,0.8-0.1,1.3-0.1c0.7-0.1,0.7-0.2,0.2-0.2
		C118.7,184.5,118.1,184.6,117.7,184.7 M82.7,185.1c0.6,0.2,2.8,0.3,2.6,0.1c0,0-0.8-0.1-1.7-0.2C82.8,184.9,82.4,185,82.7,185.1
		 M114.6,185.1l-1.1,0.1l0.9,0c0.5,0,1.2-0.1,1.7-0.1C117.1,184.9,116.2,184.9,114.6,185.1 M87.3,185.5c1.2,0.2,4.2,0.3,4,0.1
		c0,0-1.2-0.1-2.6-0.2C87,185.3,86.5,185.3,87.3,185.5 M109.7,185.5l-1.5,0.1l1.4,0c0.8,0,1.9-0.1,2.5-0.1l1.1-0.1l-1,0
		C111.6,185.3,110.5,185.4,109.7,185.5 M1.5,185.9c0,0.2,0.1,0.4,0.3,0.4c0.2,0.1,0.3,0,0.3-0.1c0-0.1-0.1-0.3-0.3-0.4
		C1.6,185.6,1.5,185.7,1.5,185.9 M96.4,185.9c2.3,0.1,5.4,0.1,7.5,0c3.2-0.2,2.9-0.2-4-0.2C92.6,185.7,92.5,185.7,96.4,185.9
		 M1.9,187.4c0,0.2,0.1,0.4,0.2,0.4c0.1,0,0.2-0.2,0.2-0.4c0-0.2-0.1-0.4-0.2-0.4C2,187,1.9,187.2,1.9,187.4 M2.3,188.5
		c0,0,0.1,0.2,0.3,0.3c0.2,0.2,0.3,0.2,0.3-0.1c0-0.2-0.1-0.3-0.3-0.3S2.3,188.4,2.3,188.5 M2.7,189.5c0,0.2,0.1,0.3,0.2,0.3
		c0.1,0,0.2-0.1,0.2-0.3s-0.1-0.3-0.2-0.3C2.8,189.2,2.7,189.3,2.7,189.5 M196.8,189.7c-0.1,0.2-0.1,0.4-0.2,0.6
		c-0.1,0.2,0,0.3,0.3,0.1c0.2-0.1,0.4-0.4,0.4-0.6C197.3,189.3,196.9,189.3,196.8,189.7 M3.1,190.3c0,0.2,0.1,0.3,0.2,0.3
		c0.1,0,0.2,0.1,0.2,0.3c0,0.4,0.6,1,0.7,0.8c0.2-0.2-0.6-1.6-0.9-1.7C3.2,190,3.1,190.1,3.1,190.3 M195.1,192.4
		c-0.1,0.2-0.2,0.5-0.1,0.5c0.1,0.1,0.7-0.4,0.7-0.7C195.7,191.8,195.3,191.9,195.1,192.4 M4.7,192.6c0,0.3,2.5,2.8,2.8,2.8
		c0.4,0,0.2-0.4-0.6-0.9c-0.4-0.3-1-0.9-1.3-1.3C5.1,192.4,4.7,192.1,4.7,192.6 M192.4,195.2c-0.4,0.4-0.1,0.6,0.3,0.2
		c0.2-0.2,0.3-0.4,0.3-0.4C192.9,194.8,192.7,194.9,192.4,195.2 M8.2,195.8c0,0.2,0.6,0.7,0.9,0.7c0.5,0,0.4-0.4-0.2-0.6
		C8.3,195.7,8.2,195.7,8.2,195.8 M190.8,196.3c0,0.1,0.1,0.2,0.3,0.2s0.3-0.1,0.3-0.2s-0.1-0.2-0.3-0.2S190.8,196.2,190.8,196.3
		 M9.5,196.4c-0.2,0.2-0.1,0.5,0.2,0.5c0.2,0,0.3-0.1,0.3-0.2C10,196.5,9.7,196.3,9.5,196.4 M10.2,197.1c0,0.1,0.1,0.2,0.3,0.2
		s0.3-0.1,0.3-0.2s-0.1-0.2-0.3-0.2S10.2,197,10.2,197.1 M11.1,197.2c-0.2,0.2-0.1,0.5,0.2,0.5c0.2,0,0.3-0.1,0.3-0.2
		C11.6,197.3,11.3,197.1,11.1,197.2 M188.4,197.5c0,0.1,0.1,0.2,0.3,0.2c0.2,0,0.3-0.1,0.3-0.2s-0.1-0.2-0.3-0.2
		C188.5,197.3,188.4,197.4,188.4,197.5 M187.3,197.6c-0.2,0.2-0.1,0.5,0.2,0.5c0.2,0,0.3-0.1,0.3-0.2
		C187.8,197.6,187.5,197.5,187.3,197.6 M13.7,198.2c0.1,0.2,0.2,0.3,0.3,0.3c0.3,0,0.1-0.4-0.2-0.5C13.6,197.9,13.6,198,13.7,198.2
		 M186,198.2c0,0.2,0.1,0.3,0.3,0.3c0.3,0,0.3-0.4-0.1-0.5C186.1,197.9,186,198,186,198.2"/>
</g>
</svg>
