<?xml version="1.0" encoding="UTF-8"?>
<svg width="408px" height="408px" viewBox="0 0 408 408" version="1.1" xmlns="http://www.w3.org/2000/svg" xmlns:xlink="http://www.w3.org/1999/xlink">
    <!-- Generator: Sketch 64 (93537) - https://sketch.com -->
    <title>矩形</title>
    <desc>Created with Sketch.</desc>
    <g id="CI" stroke="none" stroke-width="1" fill="none" fill-rule="evenodd">
        <g id="子步骤状态" transform="translate(-3765.000000, -1220.000000)" fill-rule="nonzero">
            <g id="编组-21" transform="translate(3765.000000, 1220.000000)">
                <g id="资源-1" transform="translate(59.000000, 6.000000)">
                    <polygon id="路径" fill="#000000" points="9.86 258.979338 9.86 264.595013 27.69 264.595013 27.69 310.448041 33.86 310.448041 33.86 264.595013 51.69 264.595013 51.69 258.979338"></polygon>
                    <path d="M162.600098,300.992163 C162.602922,300.8445 162.517305,300.709318 162.382359,300.64853 C162.247414,300.587742 162.08913,300.613055 161.98,300.712875 C158.486262,303.659231 154.135693,305.407619 149.57,305.700153 C141.29,305.700153 135.94,300.164275 135.94,291.596132 C135.94,283.02799 141.29,277.482137 149.57,277.482137 C152.13,277.482137 157.79,278.200305 161.99,281.811094 C162.100984,281.905507 162.257223,281.92607 162.38896,281.8636 C162.520697,281.801131 162.603343,281.667289 162.600098,281.521832 L162.600098,275.896183 C158.574082,273.414902 153.969533,272.022614 149.24,271.856489 C137.81,271.856489 130.12,279.836132 130.12,291.636031 C130.12,303.435929 137.81,311.405598 149.24,311.405598 C154.005805,311.464668 158.672975,310.04996 162.600098,307.355929 L162.600098,300.992163 Z" id="路径" fill="#000000"></path>
                    <path d="M81.94,299.775267 C81.9415062,299.614539 81.8385478,299.471323 81.6854452,299.421178 C81.5323427,299.371034 81.3643097,299.425494 81.27,299.555827 C78.52,303.156641 71.96,306.069211 67.93,306.069211 C64.08,306.069211 60.45,304.802443 58.47,302.757659 C56.0642711,300.227376 54.7469768,296.858385 54.8,293.371603 L83.66,293.371603 L83.66,292.932723 C83.66,284.813435 82.28,280.205191 78.72,276.514606 C75.72,273.422494 71.65,271.856489 66.55,271.856489 C55.75,271.856489 48.77,279.566819 48.77,291.516336 C49.17,303.944631 56.25,311.355725 67.71,311.355725 C72.9708836,311.398409 78.0536497,309.456696 81.94,305.919593 L81.94,299.775267 Z M77.83,288.085089 L54.83,288.085089 L54.83,287.965394 C55.2183231,281.904498 60.3017935,277.211182 66.39,277.292621 C73.11,277.292621 77.5,281.402137 77.82,288.015267 L77.83,288.085089 Z" id="形状" fill="#000000"></path>
                    <path d="M107.92,271.856489 C103.2,271.856489 99.19,273.432468 96.51,276.325089 L96.51,272.7143 L90.68,272.7143 L90.68,310.517863 L96.68,310.517863 L96.68,288.972824 C96.68,285.421883 97.77,282.399593 99.75,280.464529 C101.87779,278.359934 104.8103,277.269853 107.8,277.472163 C112.47,277.611807 117.19,280.693944 117.19,287.267176 L117.19,310.477964 L123.19,310.477964 L123.19,287.027786 C123.19,282.369669 121.71,278.489567 118.9,275.806412 C115.904809,273.098035 111.958826,271.678515 107.92,271.856489 L107.92,271.856489 Z" id="路径" fill="#000000"></path>
                    <path d="M201.54,299.775267 C201.534544,299.615728 201.429461,299.476697 201.277193,299.427559 C201.124924,299.378421 200.95811,299.429709 200.86,299.555827 C198.12,303.156641 191.56,306.069211 187.53,306.069211 C183.67,306.069211 180.05,304.802443 178.07,302.757659 C175.657868,300.230709 174.336453,296.860361 174.39,293.371603 L203.26,293.371603 L203.26,292.932723 C203.26,284.813435 201.87,280.205191 198.31,276.514606 C195.31,273.422494 191.25,271.856489 186.15,271.856489 C175.35,271.856489 168.37,279.566819 168.37,291.516336 C168.76,303.944631 175.84,311.355725 187.31,311.355725 C192.570884,311.398409 197.65365,309.456696 201.54,305.919593 L201.54,299.775267 Z M197.43,288.085089 L174.38,288.085089 L174.38,287.965394 C174.769312,281.881016 179.888753,277.178896 186,277.292621 C192.73,277.292621 197.11,281.402137 197.44,288.015267 L197.43,288.085089 Z" id="形状" fill="#000000"></path>
                    <path d="M227.42,271.856489 C222.7,271.856489 218.69,273.432468 216.01,276.325089 L216.01,272.7143 L210.18,272.7143 L210.18,310.517863 L216.18,310.517863 L216.18,288.972824 C216.18,285.421883 217.27,282.399593 219.25,280.464529 C221.365949,278.373398 224.277294,277.284422 227.25,277.472163 C231.92,277.611807 236.64,280.693944 236.64,287.267176 L236.64,310.477964 L242.64,310.477964 L242.64,287.027786 C242.64,282.369669 241.16,278.489567 238.35,275.806412 C235.366188,273.112284 231.441441,271.693944 227.42,271.856489 L227.42,271.856489 Z" id="路径" fill="#000000"></path>
                    <path d="M262.1,311.01659 C264.752334,310.771362 267.361123,310.181183 269.86,309.261069 L269.86,303.565598 C269.86,303.44641 269.802293,303.334559 269.705058,303.265283 C269.607824,303.196006 269.483033,303.177833 269.37,303.216489 C267.285785,303.953815 265.150024,304.537238 262.98,304.962036 C262.35,305.061781 261.81,305.151552 261.4,304.802443 C261.078204,304.492509 260.925614,304.04704 260.99,303.605496 L260.99,278.21028 L271.9,278.21028 L271.9,272.704326 L261,272.704326 L261,262.64 L254.8,262.64 L254.8,272.704326 L248.59,272.704326 L248.59,278.21028 L254.8,278.21028 L254.8,304.223919 C254.67187,306.147035 255.404207,308.028006 256.8,309.360814 C258.30623,310.536846 260.190306,311.125451 262.1,311.01659 Z" id="路径" fill="#000000"></path>
                    <path d="M94.75,377.457099 C94.7579836,377.299566 94.6647125,377.154386 94.5178864,377.095805 C94.3710602,377.037224 94.2031394,377.078193 94.1,377.197761 C89.4165254,382.525687 82.6737991,385.603551 75.57,385.656183 C63.63,385.656183 55.93,377.427176 55.93,364.709618 C55.93,351.742697 63.27,343.683257 75.1,343.683257 C81.9768429,343.81517 88.5395976,346.579298 93.43,351.403562 C93.534689,351.515069 93.6974325,351.550715 93.8393274,351.493217 C93.9812224,351.435718 94.072935,351.296963 94.07,351.144224 L94.07,344.580967 C88.7903924,340.040322 82.0410497,337.560049 75.07,337.598332 C67.65,337.598332 61.36,340.182188 56.89,345.079695 C52.42,349.977201 50.12,356.710025 50.12,364.679695 C50.12,380.868397 60.34,391.760611 75.55,391.760611 C82.6072831,391.809123 89.4352359,389.263145 94.73,384.608855 L94.75,377.457099 Z" id="路径" fill="#000000"></path>
                    <path d="M231.41,356.560407 C228.21,353.109211 222.88,351.862392 219.04,351.862392 C214.142993,351.748518 209.424203,353.696402 206.04,357.228702 C202.72,360.789618 200.96,365.736997 200.96,371.522239 C200.96,385.247226 210.1,391.391552 219.15,391.391552 C224.44,391.391552 228.8,389.506361 231.37,386.17486 L231.37,390.523766 L237.52,390.523766 L237.52,339.055064 L231.37,339.055064 L231.41,356.560407 Z M231.24,371.661883 C231.24,378.693944 227.15,385.805802 219.34,385.805802 C213.47,385.805802 207.15,381.46687 207.15,371.96112 C207.15,364.978931 210.85,357.448142 218.97,357.448142 C228,357.448142 231.24,365.068702 231.24,371.661883 Z" id="形状" fill="#000000"></path>
                    <rect id="矩形" fill="#000000" x="102.92" y="339.055064" width="6.25" height="51.4587277"></rect>
                    <path d="M187.86,371.96112 C187.86,382.204987 181.94,385.8457 176.86,385.8457 C171.94,385.8457 166.71,382.454351 166.71,376.160407 L166.71,352.740153 L160.84,352.740153 L160.84,376.040712 C160.84,385.067684 167.3,391.381578 176.56,391.381578 C181.69,391.381578 185.69,389.65598 188.23,386.3943 L188.23,390.513791 L193.83,390.513791 L193.83,352.740153 L187.83,352.740153 L187.86,371.96112 Z" id="路径" fill="#000000"></path>
                    <path d="M135.71,351.932214 C124.71,351.932214 117.33,359.861985 117.33,371.661883 C117.33,383.461781 124.72,391.391552 135.71,391.391552 C146.7,391.391552 154.09,383.461781 154.09,371.661883 C154.09,359.861985 146.7,351.932214 135.71,351.932214 Z M123,371.621985 L123,371.621985 C123,363.253333 128.12,357.657608 135.68,357.657608 C143.24,357.657608 148.36,363.303206 148.36,371.691807 C148.36,380.080407 143.26,385.726005 135.68,385.726005 C128.1,385.726005 123,380.030534 123,371.621985 Z" id="形状" fill="#000000"></path>
                    <path d="M273.69,96.2145547 C260.970259,83.2015251 243.520752,75.8639726 225.3,75.8664625 C208.87,75.8664625 194.72,81.5120611 182.37,91.5564377 C176.98,95.9252926 171.37,101.161934 164.23,108.044377 L58.37,210.463104 C64.7799695,211.19146 71.2288914,211.524578 77.68,211.46056 C83.85,211.46056 201.42,211.46056 206.34,211.46056 C216.25,211.46056 222.7,211.46056 229.62,210.951858 C245.5,209.794809 260.51,203.969669 272.62,192.099949 C285.532064,179.516901 292.898223,162.329189 293.095179,144.324509 C293.292136,126.319828 286.303726,108.975887 273.67,96.1148092 M254,173.218117 C248.78,178.374962 239.46,184.190127 224.18,184.748702 C217.12,184.988092 208.87,185.008041 205.09,185.008041 L123,185.008041 L181.9,127.953588 C184.61,125.33028 190.7,119.515115 195.95,114.79715 C207.48,104.443562 217.87,102.35888 225.21,102.418728 C242.031016,102.439436 257.164758,112.61703 263.491331,128.16331 C269.817905,143.709589 266.077561,161.528973 254.03,173.238066" id="形状" fill="#00A1FF"></path>
                    <path d="M108.58,89.8408142 C96.58,80.863715 83.09,75.8764377 67.82,75.8764377 C40.2140733,75.9574907 15.3968291,92.6778459 5.01348954,118.191658 C-5.36985,143.70547 0.741557328,172.948864 20.48,192.199695 C30.7776083,202.2428 44.0823459,208.655834 58.37,210.463104 L84.72,184.968142 C80.45,184.968142 74.34,184.878372 68.91,184.708804 C53.64,184.180153 44.33,178.335064 39.11,173.188193 C27.0650269,161.481639 23.3234368,143.667105 29.6448761,128.122656 C35.9663154,112.578206 51.0926265,102.397656 67.91,102.368855 C75.13,102.368855 84.91,104.423613 95.97,113.57028 C101.25,117.939135 112.97,128.212926 118.11,132.84112 C118.2264,132.958072 118.384783,133.023847 118.55,133.023847 C118.715217,133.023847 118.8736,132.958072 118.99,132.84112 L137.14,115.186158 C137.291999,115.06502 137.3805,114.881494 137.3805,114.68743 C137.3805,114.493367 137.291999,114.30984 137.14,114.188702 C128.41,106.318779 116.05,95.3068702 108.6,89.7809669" id="路径" fill="#00C4D6"></path>
                    <path d="M232.43,60.5455471 C218.513105,21.3349352 179.678777,-3.44192042 138.155364,0.396982225 C96.6319507,4.23588487 63.0246852,35.7100758 56.57,76.8040712 C60.2876467,76.1825044 64.0504894,75.868898 67.82,75.8664631 C72.993426,75.8524349 78.1499931,76.4551825 83.18,77.661883 L83.47,77.661883 C89.1701919,50.5078467 111.696216,30.0675628 139.335847,26.9687933 C166.975478,23.8700239 193.488629,38.8123653 205.09,64.0266667 C205.131779,64.1725921 205.230313,64.295801 205.363665,64.3688647 C205.497018,64.4419284 205.654121,64.4587822 205.8,64.4156743 C214.165555,62.1093392 222.85788,61.2092827 231.52,61.7524682 C232.38,61.8123155 232.71,61.3335369 232.43,60.5455471" id="路径" fill="#006EFF"></path>
                </g>
            </g>
        </g>
    </g>
</svg>