<?xml version="1.0" encoding="utf-8"?>
<!-- Generator: Adobe Illustrator 22.0.0, SVG Export Plug-In . SVG Version: 6.00 Build 0)  -->
<svg version="1.1" id="图层_1" xmlns="http://www.w3.org/2000/svg" xmlns:xlink="http://www.w3.org/1999/xlink" x="0px" y="0px"
	 width="78px" height="18px" viewBox="0 0 78 18" style="enable-background:new 0 0 78 18;" xml:space="preserve">
<style type="text/css">
	.st0{fill:#FFFFFF;}
	.st1{fill:#00A3FF;}
	.st2{fill:#00C8DC;}
	.st3{fill:#006EFF;}
</style>
<g id="XMLID_25_">
	<path id="XMLID_38_" class="st0" d="M59.3,1.7h-8.9V3h2.7v4.8h-3.2v1.3h3.2V17h1.5V9.1H58v7.6h2.7v-1.3h-1.2V1.7H59.3z M54.5,7.6V3
		H58v4.8h-3.4V7.6z"/>
	<rect id="XMLID_14_" x="34.5" y="13.3" class="st0" width="7.1" height="1.3"/>
	<path id="XMLID_33_" class="st0" d="M29.6,10.9c0,2.3-0.1,4.2-0.6,5.7c0,0.1,0,0.1,0.1,0.1c0,0,1.1,0,1.3,0c0.5-2.2,0.5-4,0.5-5.3
		h1.8v4h-1.2c-0.1,0-0.1,0-0.1,0.1l0.4,1.2h2.3V1.7h-4.4L29.6,10.9L29.6,10.9z M31,10.3V7.3h1.8v3.2H31V10.3z M32.8,3v3.1H31V3H32.8
		z"/>
	<path id="XMLID_30_" class="st0" d="M42.1,7h1.7V5.8h-5.1c0.1-0.4,0.2-0.9,0.5-1.2h4.4V3.4h-1.2c0.1-0.7,0.5-1.6,0.5-1.6
		c0-0.1,0-0.1-0.1-0.1h-1.1l-0.5,1.7h-1.6c0.1-0.7,0.2-1.5,0.4-2.2c0-0.1,0-0.1-0.1-0.1s-0.9,0-1.2,0c-0.1,0.9-0.2,1.7-0.5,2.4h-0.9
		l-0.5-1.7h-1.1c-0.1,0-0.1,0-0.1,0.1s0.2,0.9,0.5,1.6h-1.2v1.2h2.8c-0.1,0.4-0.2,0.9-0.5,1.2h-2.7v1.2h2.1c-0.9,1.2-1.7,1.7-2.1,2
		c0,0.1,0,1.3,0,1.3c0,0.1,0.1,0.1,0.2,0c0.4-0.1,0.9-0.5,1.2-0.9h4.9v1.8h-3.8l0.1-1.1c0-0.1,0-0.1-0.1-0.1c-0.1,0-1.2,0-1.2,0
		l-0.1,2.2c0,0.1,0,0.1,0.1,0.1s6.6,0,6.6,0v3.2h-2.9c-0.1,0-0.1,0-0.1,0.1l0.4,1.2h4.2v-5.6h-1.6l0-2.4c0.6,0.5,1.2,1,1.8,1.2
		c0.1,0.1,0.2,0.1,0.2,0c0,0,0-1.2,0-1.3C43.8,8.6,42.9,8.1,42.1,7z M40.5,7c0.2,0.5,0.6,1,1,1.3h-4.3c0.4-0.4,0.6-0.9,1-1.3H40.5z"
		/>
	<path id="XMLID_8_" class="st0" d="M51.2,12.4c0,0-1.2,0.9-2.4,1.8V5.8h-3.2v1.5h1.8v8.1c-0.5,0.4-0.9,0.5-0.9,0.5l0.9,1.1l3.9-2.9
		L51.2,12.4C51.5,12.4,51.4,12.3,51.2,12.4z"/>
	<path id="XMLID_7_" class="st0" d="M47.6,4.5H49c0.2,0,0.2-0.1,0.2-0.1l-2-3.1h-1.5l-0.1,0.1C45.7,1.5,47.6,4.5,47.6,4.5z"/>
	<rect id="XMLID_6_" x="63.6" y="2" class="st0" width="11.2" height="1.5"/>
	<path id="XMLID_5_" class="st0" d="M67.7,8.9h8.8V7.4H62v1.5h4c-0.9,2.2-2.8,7.6-2.9,7.7c0,0.1,0,0.1,0.1,0.1h12.5
		c0.1,0,0.1-0.1,0.1-0.1L74,11.7h-1.5c-0.1,0-0.1,0.1-0.1,0.1c0,0.1,1.3,3.5,1.3,3.5h-8.2L67.7,8.9z"/>
</g>
<g id="XMLID_19_">
	<path id="XMLID_22_" class="st1" d="M21.5,14.7c-0.4,0.4-1.2,1-2.6,1c-0.6,0-1.3,0-1.6,0c-0.4,0-3.4,0-7,0c2.6-2.5,4.8-4.6,5-4.8
		c0.2-0.2,0.7-0.7,1.2-1.1c1-0.9,1.8-1,2.5-1c1,0,1.8,0.4,2.5,1C22.9,11.1,22.9,13.4,21.5,14.7 M23.2,8.2c-1-1.1-2.5-1.8-4.1-1.8
		c-1.4,0-2.6,0.5-3.7,1.3c-0.4,0.4-1,0.8-1.5,1.4c-0.4,0.4-9,8.8-9,8.8C5.4,18,6,18,6.5,18s10.5,0,10.9,0c0.8,0,1.4,0,2-0.1
		c1.3-0.1,2.6-0.6,3.7-1.6C25.4,14.1,25.4,10.4,23.2,8.2z"/>
	<path id="XMLID_2_" class="st2" d="M9.2,7.6C8.1,6.8,7,6.4,5.7,6.4c-1.6,0-3.1,0.7-4.1,1.8c-2.2,2.3-2.2,5.9,0.1,8.2
		c1,0.9,2,1.4,3.2,1.5l2.3-2.2c-0.4,0-0.9,0-1.3,0c-1.3-0.1-2.1-0.5-2.6-1c-1.4-1.4-1.4-3.6-0.1-5c0.7-0.7,1.5-1,2.5-1
		c0.6,0,1.5,0.1,2.4,1c0.4,0.4,1.5,1.2,1.9,1.6h0.1l1.5-1.5V9.7C10.9,9,9.8,8.1,9.2,7.6"/>
	<path id="XMLID_1_" class="st3" d="M19.7,5.1c-1.1-3-4-5.1-7.3-5.1c-3.9,0-7,2.9-7.6,6.5c0.3,0,0.6-0.1,1-0.1s0.9,0.1,1.3,0.1l0,0
		C7.6,4,9.8,2.2,12.4,2.2c2.2,0,4.1,1.3,5,3.2c0,0,0.1,0.1,0.1,0C18.2,5.3,19,5.1,19.7,5.1C19.7,5.2,19.7,5.2,19.7,5.1"/>
</g>
</svg>
