<?xml version="1.0" encoding="UTF-8" standalone="no"?>
<svg
   xmlns:dc="http://purl.org/dc/elements/1.1/"
   xmlns:cc="http://creativecommons.org/ns#"
   xmlns:rdf="http://www.w3.org/1999/02/22-rdf-syntax-ns#"
   xmlns:svg="http://www.w3.org/2000/svg"
   xmlns="http://www.w3.org/2000/svg"
   viewBox="0 0 120 120"
   height="180"
   width="180"
   xml:space="preserve"
   id="svg2"
   version="1.1"><metadata
     id="metadata8"><rdf:RDF><cc:Work
         rdf:about=""><dc:format>image/svg+xml</dc:format><dc:type
           rdf:resource="http://purl.org/dc/dcmitype/StillImage" /></cc:Work></rdf:RDF></metadata><defs
     id="defs6" /><g
     transform="matrix(1.3,0,0,-1.3,0,117.3)"
     id="g10"><g
       transform="scale(0.1)"
       id="g12"><path
         id="path16"
         style="fill: #7247cf; fill-rule: evenodd; stroke: none; fill-opacity: 1"
         d="M 28.7 626.7 C 138 678.6 234.1 712.5 325.2 729.1 c 24.3 4.4 48.3 7.6 72.2 9.6 v -0.4 v -71.9 v -0.2 v -41.9 v -41.9 c 15.8 12.8 36 20.5 58 20.5 c 22 0 42.1 -7.7 58 -20.5 v 41.9 v 41.8 v 0.3 v 71.8 v 0.5 c 23.9 -2 47.9 -5.2 72.2 -9.7 c 92.1 -16.9 187.9 -51.2 296.4 -102.4 c 4.5 37.7 6.7 75.4 6.7 112.8 c -111.3 52.9 -209.1 88.4 -303.1 105.6 c -24.2 4.4 -48.2 7.7 -72.2 9.7 c -38.6 3.2 -77 3.2 -115.9 0 c -23.8 -2 -47.8 -5.2 -72.2 -9.6 C 232.2 828.1 134.2 793.2 22.1 739.5 c 0 -37.7 2.2 -75.4 6.6 -112.8" /><path
         id="path18"
         style="fill: #7247cf; fill-rule: evenodd; stroke: none; fill-opacity: 1"
         d="M 140.8 288.7 l -0.1 1.2 c 0 -0.4 0.1 -0.8 0.1 -1.2 z m 518.8 42.2 c -21.7 -34.1 -46.4 -66.4 -74.1 -96.3 c -22.1 -23.9 -46.2 -46.3 -72.2 -67 c -18.4 -14.7 -37.7 -28.5 -58 -41.5 c -20.3 12.9 -39.6 26.7 -57.9 41.3 c -26 20.7 -50 43 -72.2 66.7 c -28.1 30.1 -53 62.6 -74.8 97 c 25.6 8 50.4 14.6 74.8 19.8 v 116.7 c -41 -8.2 -83.1 -20.2 -127.3 -36 c -16 -5.7 -32.2 -12 -48.8 -18.7 c -8.8 -3.6 -17.6 -7.2 -26.5 -11.1 L 91.4 388.2 L 95.9 376.4 c 13.1 -29.9 28 -59.2 44.9 -87.7 c 25.8 -43.6 56 -85.2 90.9 -124 l 0.4 -0.6 c 5 -5.5 10 -11 15.2 -16.4 c 24 -25.1 50 -48.8 78 -71.1 c 22.7 -18 46.7 -35.1 72.2 -51 c 18.6 -11.7 37.9 -22.7 58 -33.2 c 20.1 10.5 39.4 21.5 58 33.2 c 25.5 16 49.5 33.1 72.2 51.1 c 27.6 22 53.1 45.4 76.7 70 c 5.1 5.3 10.1 10.7 15 16.1 c 35.5 39.3 66.3 81.5 92.4 125.7 c 16.8 28.5 31.8 57.8 44.9 87.7 l 4.5 11.8 l -5.9 2.5 l -0.4 0.2 l -0.4 0.2 l -0.4 0.2 l -0.4 0.2 c -7.9 3.5 -15.7 6.9 -23.5 10.2 c -8.9 3.8 -17.7 7.5 -26.4 11 c -16.7 6.7 -33 13 -49.1 18.7 c -3.6 1.3 -7.2 2.6 -10.8 3.8 v 75.9 c 11.8 -3.8 23.6 -7.9 35.6 -12.2 c 34.6 -12.4 70.3 -27 107.4 -43.6 c 11.1 34.1 20 68.8 26.8 103.7 c -37.8 17.6 -74 33.1 -109.1 46.5 c -20.6 7.9 -40.8 15 -60.7 21.5 c -39.7 12.8 -78.1 22.7 -115.9 29.7 V 540.7 V 467.3 V 350.5 c 24.2 -5.2 48.8 -11.7 74.1 -19.7 z m 110.1 -41.1 l 0 -0.1 l 0 -0.1 v -0.1 l 0 -0.1 l 0 -0.1 v -0.1 l 0 -0.1 l 0 -0.1 l 0 -0.1 l 0 -0.1 v 0 v -0.1 l 0 -0.1 l 0 -0.1 v -0.1 l 0 -0.1 l 0 -0.1 z m 0 -0.5 v 0 l 0 -0.1 z m -33.1 14.2 c 4.7 -1.9 9.5 -3.8 14.3 -5.7 z M 159.6 297.9 c 4.9 2 9.7 4 14.6 5.9 l -14.6 -5.9" /><path
         id="path20"
         style="fill: #7247cf; fill-rule: evenodd; stroke: none; fill-opacity: 1"
         d="M 65.6 456 c 37.2 16.7 73 31.2 107.5 43.6 c 53 18.9 103.3 32.7 152.1 41.6 v 115.9 C 268.8 646.8 210.5 629.9 148.3 606.2 C 113.2 592.9 76.9 577.4 39 559.7 C 45.8 524.6 54.6 489.9 65.6 456" /><path
         id="path22"
         style="fill: #7247cf; fill-rule: evenodd; stroke: none; fill-opacity: 1"
         d="M 518.9 510.7 c 0 35.1 -28.5 63.6 -63.6 63.6 c -35.1 0 -63.6 -28.5 -63.6 -63.6 c 0 -26.5 16.2 -49.2 39.3 -58.8 L 410.8 275.3 h 89.1 l -20.2 176.6 c 23.1 9.6 39.3 32.3 39.3 58.8" /><path
         id="path24"
         style="fill: #7247cf; fill-rule: evenodd; stroke: none; fill-opacity: 1"
         d="M 65.6 456 c 37.2 16.7 73 31.2 107.5 43.6 c 53 18.9 103.3 32.7 152.1 41.6 v 115.9 C 268.8 646.8 210.5 629.9 148.3 606.2 C 113.2 592.9 76.9 577.4 39 559.7 C 45.8 524.6 54.6 489.9 65.6 456" /></g></g></svg>