<?xml version="1.0" encoding="iso-8859-1"?>
<!-- Generator: Adobe Illustrator 24.2.1, SVG Export Plug-In . SVG Version: 6.00 Build 0)  -->
<svg version="1.1" id="_x30_1" xmlns="http://www.w3.org/2000/svg" xmlns:xlink="http://www.w3.org/1999/xlink" x="0px" y="0px"
	 width="500px" height="500px" viewBox="0 0 500 500" enable-background="new 0 0 500 500" xml:space="preserve">
<g>
	<path fill="#07242D" d="M186.582,441.1v8.203c-5.588,0-10.623-2.012-14.594-5.346c-4.989-4.186-8.157-10.469-8.157-17.489v-41.085
		h8.157v18.642h14.594v8.257h-14.594v14.386C172.1,434.656,178.571,441.1,186.582,441.1z"/>
	<path fill="#07242D" d="M215.674,404.024v8.149c-7.739,0.015-14.037,6.152-14.317,13.818v23.312h-8.176v-45.279h8.176v5.169
		C205.243,405.967,210.232,404.032,215.674,404.024z"/>
	<path fill="#07242D" d="M220.928,393.524v-8.165h8.161v8.165H220.928z M220.928,449.303v-45.279h8.161v45.279H220.928z"/>
	<path fill="#07242D" d="M279.137,404.024l-22.624,45.279l-22.647-45.279h9.271l13.376,26.737l13.349-26.737H279.137z"/>
	<path fill="#07242D" d="M328.08,404.024c0,0,0,49.504,0,52.776c0,12.643-10.369,22.736-22.655,22.728
		c-5.753,0-11.084-2.181-15.131-5.807l5.868-5.868c2.504,2.12,5.734,3.41,9.263,3.403c7.95,0,14.386-6.498,14.386-14.456v-12.65
		c-3.944,3.264-8.979,5.154-14.386,5.154c-12.309,0.008-22.674-9.924-22.674-22.659c0-0.269,0-22.62,0-22.62h8.265
		c0,0,0.004,22.014,0.004,22.62c0,7.919,6.448,14.463,14.406,14.456c7.95,0,14.386-6.506,14.386-14.456v-22.62H328.08z"/>
</g>
<g>
	<g>
		<polygon id="XMLID_13_" fill="#F69421" points="250.003,198.745 380.124,123.604 250.005,48.462 119.856,123.622 		"/>
		<g>
			<g>
				<path fill="#FFFFFF" d="M307.849,164.921c-0.317-0.628-0.644-1.249-0.978-1.86c-6.381-11.683-15.986-20.898-27.774-26.646
					c-30.74-14.993-69.14-2.215-87.41,29.095l-3.16-1.844c19.231-32.951,59.717-46.365,92.173-30.537
					c12.474,6.083,22.634,15.828,29.381,28.179c0.378,0.691,0.747,1.395,1.104,2.106L307.849,164.921z"/>
			</g>
			<g>
				<path fill="#FFFFFF" d="M340.029,145.899c-0.693-0.851-1.408-1.727-1.95-2.604c-10.641-17.213-24.699-30.163-41.784-38.496
					c-48.873-23.834-108.91-5.31-136.682,42.169l-3.158-1.848c28.734-49.117,90.861-68.274,141.443-43.609
					c17.716,8.64,32.282,22.051,43.292,39.859c0.417,0.674,1.028,1.425,1.675,2.218L340.029,145.899z"/>
			</g>
		</g>
		<g id="XMLID_12_">
			<path fill="#FFFFFF" d="M250.003,200.562c-0.314,0-0.627-0.081-0.908-0.243l-130.147-75.123
				c-0.562-0.325-0.908-0.924-0.908-1.574c0-0.648,0.346-1.249,0.908-1.574l130.149-75.159c0.562-0.325,1.255-0.325,1.817,0
				l130.118,75.141c0.562,0.325,0.908,0.924,0.908,1.574c0,0.649-0.346,1.249-0.908,1.574l-130.12,75.141
				C250.631,200.48,250.317,200.562,250.003,200.562z M123.49,123.622l126.513,73.025l126.488-73.043L250.005,50.56L123.49,123.622z
				"/>
		</g>
	</g>
	<g>
		<polygon fill="#08B1D5" points="251.169,351.078 119.864,275.288 119.864,123.625 251.169,199.451 		"/>
		<g>
			<g>
				<path fill="#FFFFFF" d="M255.56,307.022c-74.72-22.26-119.248-94.96-99.258-162.058l0.157-0.479l3.502,1.058l-0.155,0.472
					c-19.412,65.158,24.011,135.818,96.799,157.503L255.56,307.022z"/>
			</g>
			<g>
				<path fill="#FFFFFF" d="M192.616,165.145c-3.08,18.413,0.649,37.88,10.683,54.644c12.932,21.607,34.745,36.525,61.42,42.004
					l-0.735,3.584c-27.692-5.689-50.358-21.212-63.824-43.71c-10.643-17.783-14.493-38.494-10.996-58.022L192.616,165.145z"/>
			</g>
		</g>
		<g>
			<path fill="#FFFFFF" d="M251.169,352.895c-0.314,0-0.627-0.081-0.908-0.243l-131.304-75.79c-0.562-0.325-0.908-0.924-0.908-1.574
				V123.625c0-0.649,0.346-1.249,0.908-1.574c0.562-0.325,1.255-0.325,1.817,0l131.304,75.826c0.562,0.325,0.908,0.924,0.908,1.574
				v151.628c0,0.649-0.346,1.249-0.908,1.574C251.796,352.815,251.482,352.895,251.169,352.895z M121.681,274.239l127.671,73.693
				V200.499l-127.671-73.727V274.239z"/>
		</g>
	</g>
	<g>
		<polygon fill="#0D819B" points="251.169,351.108 380.143,275.319 380.143,123.656 249.99,199.481 		"/>
		<g>
			<g>
				<path fill="#FFFFFF" d="M249.425,301.621c69.14-23.695,109.647-92.235,90.775-155.582l-0.15-0.456l3.495-1.076l0.162,0.489
					c19.488,65.415-22.346,136.155-93.696,160.288L249.425,301.621z"/>
			</g>
			<g>
				<path fill="#FFFFFF" d="M248.84,258.208c22.672-7.355,39.791-20.048,49.948-37.174c9.685-16.328,12.678-35.968,8.695-56.093
					l3.465-1.325c4.344,21.224,1.236,42.002-9.014,59.284c-10.793,18.197-29.004,31.576-53.095,39.149L248.84,258.208z"/>
			</g>
		</g>
		<g>
			<path fill="#FFFFFF" d="M251.169,352.895c-0.309,0-0.618-0.079-0.896-0.237c-0.565-0.32-0.915-0.917-0.92-1.566l-1.179-151.597
				c-0.005-0.652,0.339-1.256,0.902-1.584l130.154-75.826c0.562-0.326,1.256-0.328,1.82-0.005c0.564,0.325,0.911,0.925,0.911,1.575
				v151.663c0,0.644-0.341,1.24-0.896,1.567l-128.975,75.76C251.805,352.812,251.487,352.895,251.169,352.895z M251.814,200.521
				l1.147,147.398l125.366-73.64V126.816L251.814,200.521z"/>
		</g>
	</g>
	<g>
		<path fill="#F0DF36" d="M226.242,183.387c-0.112,0.184-0.061,0.803-0.061,0.803c-0.02,0.26-0.049,0.798-0.063,1.057
			c-0.817,14.92,8.01,28.668,22.73,35.291l0.303,0.152c0.005-0.002,0.01-0.005,0.016-0.007c0.123,0.055,0.202-0.085,0.202-0.085
			c18.107-8.831,25.339-20.666,24.35-36.399l-0.019-0.382c-0.199-0.424-0.398-0.848-0.618-1.26
			c-2.487-4.665-6.321-8.547-11.298-10.974c-12.526-6.109-27.837-0.817-35.526,11.777"/>
		<path fill="#FFFFFF" d="M248.969,222.646l-0.941-0.472c-15.247-6.861-24.591-21.406-23.736-37.026
			c0.013-0.238,0.036-0.671,0.056-0.961c-0.065-1.1,0.222-1.57,0.332-1.752l3.125,1.9c0.004-0.007,0.009-0.014,0.013-0.023
			l-3.12-1.906c8.299-13.592,24.587-18.954,37.889-12.467c5.164,2.519,9.351,6.585,12.11,11.758c0.235,0.44,0.45,0.893,0.661,1.347
			l0.152,0.325l0.037,0.737c1.067,16.968-6.916,29.06-25.122,38.013c-0.295,0.225-0.645,0.363-1.01,0.398L248.969,222.646z
			 M228.002,184.018c0.001,0.012,0.002,0.021,0.002,0.024l0.011,0.141l-0.01,0.147c-0.019,0.246-0.046,0.755-0.059,1.008
			c-0.764,13.955,7.546,26.985,21.209,33.33c16.468-8.202,23.698-19.134,22.74-34.354l-0.002-0.044
			c-0.136-0.286-0.275-0.571-0.424-0.851c-2.395-4.49-6.02-8.015-10.486-10.193C249.48,167.621,235.366,172.262,228.002,184.018z
			 M228,183.814v0.002V183.814z"/>
	</g>
</g>
</svg>
