<svg fill="none" height="48" width="48" xmlns="http://www.w3.org/2000/svg"><path d="M24.5 0L46 12v24L24.5 48 3 36V12z" fill="#fff"/><path d="M42.16 35.172l-16.95 9.46v-7.368l10.561-5.732zm1.16-1.036V14.352l-6.203 3.532V30.6zM6.77 35.172l16.952 9.46v-7.368L13.16 31.532zm-1.159-1.036V14.352l6.203 3.532V30.6zm.726-21.064l17.385-9.704v7.124l-11.138 6.044-.085.048zm36.257 0L25.21 3.368v7.124l11.137 6.044.085.048z" fill="#8ed6fb"/><path d="M23.722 35.588l-10.42-5.652v-11.2l10.42 5.936zm1.488 0l10.42-5.652v-11.2l-10.42 5.936zM14.007 17.44l10.46-5.676 10.46 5.676-10.46 5.96z" fill="#1c78c0"/></svg>