<svg fill="none" height="48" viewBox="0 0 48 48" width="48" xmlns="http://www.w3.org/2000/svg"><path d="m21.5 0 21.5 12v24l-21.5 12-21.5-12v-24z" fill="#fff" transform="translate(3)"/><path d="m36.5496 31.804-16.9511 9.46v-7.368l10.5615-5.732zm1.1595-1.036v-19.784l-6.2031 3.532v12.716zm-36.54957 1.036 16.95107 9.46v-7.368l-10.56148-5.732zm-1.15953-1.036v-19.784l6.20309 3.532v12.716zm.725721-21.064 17.384879-9.704v7.124l-11.13719 6.044-.08514.048zm36.257679 0-17.3849-9.704v7.124l11.1372 6.044.0852.048z" fill="#8ed6fb" transform="translate(5.61102 3.368)"/><path d="m10.4196 23.824-10.4196-5.652v-11.2l10.4196 5.936zm1.4879 0 10.4196-5.652v-11.2l-10.4196 5.936zm-11.202049-18.148 10.460149-5.676 10.4601 5.676-10.4601 5.96z" fill="#1c78c0" transform="translate(13.302 11.764)"/></svg>