<?xml version="1.0" encoding="UTF-8" standalone="no"?>
<svg
   xmlns:dc="http://purl.org/dc/elements/1.1/"
   xmlns:cc="http://creativecommons.org/ns#"
   xmlns:rdf="http://www.w3.org/1999/02/22-rdf-syntax-ns#"
   xmlns:svg="http://www.w3.org/2000/svg"
   xmlns="http://www.w3.org/2000/svg"
   xmlns:sodipodi="http://sodipodi.sourceforge.net/DTD/sodipodi-0.dtd"
   xmlns:inkscape="http://www.inkscape.org/namespaces/inkscape"
   viewBox="0 0 164 162.66667"
   height="162.66667"
   width="164"
   xml:space="preserve"
   id="svg2"
   version="1.1"
   sodipodi:docname="xanitizer_X_icon.svg"
   inkscape:version="0.92.2 (5c3e80d, 2017-08-06)"><sodipodi:namedview
     pagecolor="#ffffff"
     bordercolor="#666666"
     borderopacity="1"
     objecttolerance="10"
     gridtolerance="10"
     guidetolerance="10"
     inkscape:pageopacity="0"
     inkscape:pageshadow="2"
     inkscape:window-width="1920"
     inkscape:window-height="1017"
     id="namedview9"
     showgrid="false"
     inkscape:zoom="2.9016393"
     inkscape:cx="101.64955"
     inkscape:cy="84.512623"
     inkscape:window-x="1912"
     inkscape:window-y="-8"
     inkscape:window-maximized="1"
     inkscape:current-layer="g12" /><metadata
     id="metadata8"><rdf:RDF><cc:Work
         rdf:about=""><dc:format>image/svg+xml</dc:format><dc:type
           rdf:resource="http://purl.org/dc/dcmitype/StillImage" /></cc:Work></rdf:RDF></metadata><defs
     id="defs6" /><g
     transform="matrix(1.3333333,0,0,-1.3333333,0,162.66667)"
     id="g10"><g
       transform="scale(0.1)"
       id="g12"><path
         id="path14"
         style="fill:#cc3333;fill-opacity:1;fill-rule:nonzero;stroke:none"
         d="m 889.723,1181.03 c 127.137,56.65 221.497,62.22 245.987,-78.94 27.5,-158.606 54.99,-317.254 82.49,-475.891 C 1244.93,471.898 1114.34,389.652 1033.43,351.957 800.992,246.551 568.578,141.133 336.137,35.7344 254.895,-0.078125 114.621,-26.4805 90.1523,114.668 62.6602,273.289 35.1602,431.93 7.64844,590.551 -16.8242,731.695 111.5,827.113 192.418,864.809 424.855,970.215 657.297,1075.61 889.723,1181.03" /><path
         id="path16"
         style="fill:#fdfdfd;fill-opacity:1;fill-rule:nonzero;stroke:none"
         d="M 431.984,790.398 C 352.719,810.324 327.957,805.18 263.91,774.402 234.824,760.438 175.977,731.047 121.871,706.313 c -34.8905,-15.946 -56.4022,-31.34 12.367,-48.606 97.961,-30.91 195.914,-61.805 293.864,-92.738 43.128,-7.321 41.339,-19.371 7.39,-69.406 C 363.875,387.539 292.234,279.488 220.594,171.457 c -65.676,-92.664 -6.508,-56.781 36.269,-37.312 46.418,21.109 113.559,52.265 137.133,62.996 63.988,29.078 69.805,30.136 130.078,115.156 24.469,37.359 48.965,74.683 73.446,112.008 53.558,78.261 54.23,86.375 127.207,65.675 32.976,-10.425 65.968,-20.832 98.972,-31.25 79.262,-19.925 85.082,-22.222 148.813,8.278 23.48,11.234 90.568,42.687 136.798,64.789 42.62,20.383 104.56,40.992 18.19,62.711 -97.3,29.824 -194.598,59.652 -291.879,89.476 -37.555,9.246 -38.066,24.254 -10.945,69.871 71.168,108.524 142.328,217.024 213.524,325.505 52.3,73.8 29.01,68.26 -5.78,51.72 -53.924,-25.67 -112.002,-50.84 -141.217,-64.05 -64.336,-29.11 -86.973,-46.07 -147.246,-131.096 -24.457,-36.86 -48.891,-73.719 -73.32,-110.575 -63.055,-98.476 -52.469,-90.824 -139.465,-65.355 -33.078,10.129 -66.137,20.277 -99.188,30.394" /></g></g></svg>