<svg id="Icons" xmlns="http://www.w3.org/2000/svg" viewBox="0 0 64 64">
  <defs>
    <style>
      .cls-1, .cls-7 {
        fill: #63b2ff;
      }

      .cls-2 {
        fill: none;
      }

      .cls-2, .cls-7 {
        stroke: #fff;
        stroke-miterlimit: 10;
      }

      .cls-3 {
        fill: #58595b;
      }

      .cls-4 {
        fill: #939598;
      }

      .cls-5 {
        fill: #a7a9ac;
      }

      .cls-6 {
        fill: #231f20;
      }
    </style>
  </defs>
  <title>logo_xcode</title>
  <g>
    <rect class="cls-1" x="3.62" y="14.95" width="54" height="41" transform="translate(-5.06 5.1) rotate(-8.8)"/>
    <line class="cls-2" x1="10" y1="58" x2="4" y2="20"/>
    <line class="cls-2" x1="15" y1="46" x2="13" y2="33"/>
    <line class="cls-2" x1="47" y1="41" x2="45" y2="28"/>
    <line class="cls-2" x1="58" y1="49" x2="8" y2="57"/>
    <line class="cls-2" x1="58" y1="47.04" x2="8" y2="55.04"/>
    <line class="cls-2" x1="51" y1="13" x2="57" y2="51"/>
    <line class="cls-2" x1="3" y1="22" x2="54" y2="14"/>
    <line class="cls-2" x1="10" y1="37" x2="50" y2="30"/>
    <line class="cls-2" x1="12" y1="44" x2="51" y2="37"/>
  </g>
  <path class="cls-3" d="M63.27,9.18c-2-.85-3.92-2.24-6.42-1.37a2.78,2.78,0,0,1-2.53-.89C52.79,4.18,50,3.48,47.48,3,36.22.88,31.55,6.65,30.34,7.74c.12.26.24.52.37.78a.61.61,0,0,0,0,.12c.68-.1,5.63-2.19,9.22.06,1.62,1,2.75,2.35,2.45,4.25a3.84,3.84,0,0,1-.09.44c-.06.2,0,.24-.06.45l.18.06,4.73,1.54c.07-.14.15-.35.23-.48,1.8-2.92,5.4-1.68,7.37.35,1.41,1.45,3,2,5,2.71,1.1.39,1.46-.22,1.6-.56.92-2.2,1.68-4.43,2.43-6.69A1.14,1.14,0,0,0,63.27,9.18Z"/>
  <path class="cls-4" d="M63.27,10.33c-2-.86-3.92-2.25-6.42-1.38a2.78,2.78,0,0,1-2.53-.89C52.79,5.33,50,4.62,47.48,4.14,37.15,2.2,32.37,6.89,30.71,8.52a.61.61,0,0,0,0,.12c.68-.1,5.63-2.19,9.22.06,1.62,1,2.75,2.35,2.45,4.25a3.32,3.32,0,0,1,0,.95l4.73,1.54c.07-.14.15-.35.23-.48,1.8-2.92,5.4-1.68,7.37.35,1.41,1.45,3,2,5,2.71,1.1.39,1.46-.22,1.6-.56.92-2.2,1.68-4.43,2.43-6.69A1.07,1.07,0,0,0,63.27,10.33Z"/>
  <polygon class="cls-4" points="42.34 13.49 37.12 27.13 41.58 28.89 47.3 15.19 42.34 13.49"/>
  <polygon class="cls-5" points="37.7 28.25 43.34 13.72 46.38 14.81 40.26 29.77 37.7 28.25"/>
  <path class="cls-3" d="M42.3,13.44l-.44,1.33c.37-1,4.49.31,5,1.56l.53-1.25C47.75,14.06,42.7,12.42,42.3,13.44Z"/>
  <path d="M41.73,28.61l-11,31a2,2,0,0,1-2.59,1.13l-2.83-1.1a2,2,0,0,1-1.14-2.59L37.09,27c.14-.37.82-.4,1.63-.24C40.16,27,42,28,41.73,28.61Z"/>
  <path class="cls-6" d="M41.73,28.61l-11,31a2,2,0,0,1-1.11,1.11h0l-2.83-1.1A2,2,0,0,1,25.65,57L38.54,27a.39.39,0,0,1,.18-.2C40.16,27,42,28,41.73,28.61Z"/>
  <path class="cls-7" d="M29.8,22.76l-.61-.24a2.63,2.63,0,0,0-3.4,1.5L18,44v7l6-5,7.3-19.84A2.63,2.63,0,0,0,29.8,22.76Z"/>
  <line class="cls-7" x1="25.33" y1="25.28" x2="30.83" y2="27.39"/>
  <line class="cls-7" x1="18.06" y1="43.67" x2="23.78" y2="46.17"/>
</svg>
