<svg xmlns="http://www.w3.org/2000/svg" width="55px" viewBox="0 0 54.98 55"><defs><radialGradient id="a" cx="29.16" cy="29.18" r="25.82" gradientUnits="userSpaceOnUse"><stop offset="0" stop-color="#4389ff"></stop><stop offset="1" stop-color="#00549e"></stop></radialGradient></defs><circle cx="29.16" cy="29.18" r="25.82" fill="url(#a)"></circle><path d="M2.17 10.82L22.67 2a.34.34 0 0 1 .42.12l11.08 15.74a.37.37 0 0 1-.18.57l-3 1a.37.37 0 0 0-.16.58l8.75 11a.37.37 0 0 1-.19.59l-3.79.93a.37.37 0 0 0-.2.59l12.92 16.32a.36.36 0 0 1-.44.55l-29-16.74a.37.37 0 0 1 .05-.66l3.5-1.39a.37.37 0 0 0 .07-.64l-11.78-8.5a.38.38 0 0 1 .07-.64l2.69-1.18a.37.37 0 0 0 .06-.64L2.1 11.46a.37.37 0 0 1 .07-.64z" fill="#fff"></path><path d="M22.8 2a.35.35 0 0 1 .29.15l11.08 15.71a.37.37 0 0 1-.18.57l-3 1a.37.37 0 0 0-.16.58l8.75 11a.37.37 0 0 1-.19.59l-3.79.93a.37.37 0 0 0-.2.59l12.92 16.32a.37.37 0 0 1-.27.6.3.3 0 0 1-.17 0l-29-16.74a.37.37 0 0 1 .05-.66l3.5-1.39a.37.37 0 0 0 .07-.64l-11.78-8.5a.38.38 0 0 1 .07-.64l2.69-1.18a.37.37 0 0 0 .06-.64L2.1 11.46a.37.37 0 0 1 .07-.64L22.67 2a.31.31 0 0 1 .13 0m0-2a2.22 2.22 0 0 0-.91.19L1.4 9a2.32 2.32 0 0 0-.43 4l9.16 6.52-.14.06a2.34 2.34 0 0 0-.42 4L19 30.45l-.81.32a2.33 2.33 0 0 0-.3 4.17l29 16.74a2.23 2.23 0 0 0 1.15.31 2.32 2.32 0 0 0 1.8-3.76L38.48 33.82l1.41-.34A2.32 2.32 0 0 0 41.52 32a2.36 2.36 0 0 0-.38-2.2l-7.34-9.26.79-.26a2.29 2.29 0 0 0 1.48-1.46 2.36 2.36 0 0 0-.3-2.08L24.68 1a2.3 2.3 0 0 0-1.88-1z"></path></svg>