<?xml version="1.0" encoding="UTF-8" ?>
<!DOCTYPE svg PUBLIC "-//W3C//DTD SVG 1.1//EN" "http://www.w3.org/Graphics/SVG/1.1/DTD/svg11.dtd">
<svg width="900pt" height="750pt" viewBox="0 0 900 750" version="1.1" xmlns="http://www.w3.org/2000/svg">
<g id="#63788eff">
<path fill="#63788e" opacity="1.00" d=" M 169.76 58.08 C 248.92 45.26 328.85 36.97 408.99 34.00 C 434.66 34.01 460.32 33.98 485.98 34.01 C 566.09 36.97 645.97 45.22 725.07 58.14 C 773.12 123.20 820.59 188.70 868.62 253.78 C 857.86 253.89 847.46 250.91 836.96 248.98 C 699.42 221.76 559.34 204.66 418.96 206.84 C 416.92 207.01 414.93 207.43 412.94 207.86 C 389.26 208.73 365.56 209.50 341.91 211.16 C 286.53 214.80 231.34 221.09 176.45 229.24 C 125.58 236.94 74.79 245.53 24.64 257.10 C 25.55 254.66 27.15 252.60 28.71 250.54 C 75.59 186.29 122.48 122.04 169.76 58.08 Z" />
<path fill="#63788e" opacity="1.00" d=" M 428.98 510.59 C 522.23 511.26 615.32 501.64 707.12 485.63 C 622.30 560.00 537.49 634.39 452.56 708.65 C 450.19 710.68 448.64 713.49 446.12 715.36 C 441.25 709.40 435.10 704.72 429.35 699.67 C 349.99 630.09 270.59 560.55 191.23 490.97 C 198.21 487.63 205.87 489.81 213.04 491.12 C 273.93 500.89 335.34 507.54 396.96 510.28 C 407.63 510.63 418.31 511.53 428.98 510.59 Z" />
</g>
<g id="#4b596bff">
<path fill="#4b596b" opacity="1.00" d=" M 412.94 207.86 C 414.93 207.43 416.92 207.01 418.96 206.84 C 559.34 204.66 699.42 221.76 836.96 248.98 C 847.46 250.91 857.86 253.89 868.62 253.78 C 869.28 254.66 869.96 255.54 870.64 256.43 C 797.25 290.57 724.44 326.00 652.91 363.93 C 616.99 383.02 581.36 402.69 546.42 423.53 C 504.39 448.39 465.24 477.93 428.98 510.59 C 418.31 511.53 407.63 510.63 396.96 510.28 C 335.34 507.54 273.93 500.89 213.04 491.12 C 205.87 489.81 198.21 487.63 191.23 490.97 C 189.47 489.44 187.72 487.92 185.95 486.42 C 235.44 401.48 297.86 324.65 366.59 254.58 C 381.76 238.73 397.58 223.52 412.94 207.86 Z" />
</g>
</svg>
