<svg width="250" height="52" viewBox="0 0 250 52" fill="none" xmlns="http://www.w3.org/2000/svg">
<path d="M83.3617 26.2877C84.7182 34.5501 77.5226 39.2067 70.2361 39.7434C65.5982 49.2532 49.2595 55.6749 35.0768 48.758C29.0142 49.6727 25.6911 48.1608 23.1259 45.2769C28.3094 38.6246 44.0002 26.6505 63.1694 32.8303C73.4 36.13 76.0524 28.3778 73.4872 25.4712C63.8325 14.5328 42.0374 24.3789 41.2493 25.1991C49.8127 12.1327 80.4402 8.46634 83.3617 26.2877ZM54.0073 11.2709C54.0603 11.252 47.0466 8.78383 37.2366 13.0095C36.8417 12.8634 36.4546 12.6969 36.0771 12.5106C45.512 6.25899 53.7837 3.60563 60.8542 4.63749C56.5725 -0.279907 35.9975 -3.89331 24.2095 7.88804C9.63655 5.0268 -0.556211 17.3449 0.0235256 28.5933C0.603262 39.8417 12.9066 46.8455 19.9165 44.9481C20.0849 44.9254 20.2557 44.9254 20.4242 44.9481C21.9777 37.5134 28.3207 20.2175 54.0073 11.2709ZM112.693 21.5441L114.001 15.8141H92.0539L91.5575 18.0328C90.9854 19.9944 92.5389 21.3854 94.2099 21.34H104.376L86.3551 37.2148L85.1387 42.5404H108.385L109.723 36.7083H95.0208L112.693 21.5441ZM127.334 26.1629C126.304 25.9021 120.533 25.029 120.893 23.0485C121.298 20.8146 124.034 20.603 125.364 20.6446C128.104 20.7239 128.968 21.9259 129.112 22.3492C129.491 23.4831 130.366 24.0539 131.647 24.0539H135.974C136.447 21.3816 136.576 15.2169 126.524 15.2169C123.295 15.2169 118.995 16.0258 116.149 19.2952C114.633 21.049 112 25.4032 114.686 28.6764C116.092 30.3282 119.756 31.6208 123.689 32.3881C126.232 32.887 127.577 33.9 127.297 35.0982C127.126 35.9032 126.114 37.7175 122.371 37.7137C120.696 37.7137 117.066 37.4491 117.759 33.6959H110.916C110.113 37.0976 109.817 43.0356 120.253 43.0356C124.277 43.0356 132.469 42.5253 134.602 33.9907C136.14 27.86 129.21 26.6467 127.334 26.1743V26.1629ZM151.524 35.6122C150.934 36.1561 150.242 36.5784 149.488 36.8547C148.733 37.131 147.932 37.256 147.129 37.2224C141.961 37.2715 142.544 32.1689 143.249 29.0884C143.954 26.008 145.617 21.0452 150.532 21.0565C154.014 21.0565 154.415 23.3055 154.594 23.9669H161.637C161.387 16.5511 155.689 15.1337 151.661 15.232C140.619 15.5042 137.425 24.7115 136.436 28.9902C133.552 41.4897 141.566 43.0507 145.401 43.0507C148.546 43.0507 155.431 42.2947 159.474 34.312H154.446C152.994 34.2591 152.324 34.9016 151.524 35.6084V35.6122ZM180.288 38.1748C178.256 40.5655 175.433 42.1506 172.33 42.6425C166.211 43.6516 157.799 43.3984 159.917 34.6106C160.595 31.806 161.645 29.9691 163.756 28.5857C167.291 26.2688 171.986 25.9399 173.509 25.7736C174.028 25.7169 177.878 25.4297 178.537 23.1581C179.181 20.9469 175.65 20.7655 174.661 20.7542C171.629 20.7202 170.603 21.9259 170.114 22.644H163.369C166.094 15.4928 173.6 15.2131 175.646 15.2131C177.919 15.2131 187.036 15.2131 185.297 22.7499C182.637 34.2628 182.523 35.4119 180.288 38.1748ZM177.256 29.1035C176.173 29.697 173.467 30.279 173.035 30.4038C171.648 30.812 168.996 30.9934 167.708 32.1954C166.605 33.2348 164.657 37.5285 169.284 37.6192C172.149 37.6721 175.725 36.0658 176.741 31.4016C176.953 30.3471 177.271 29.1035 177.271 29.1035H177.256ZM194.61 8.00143H190.973L183.069 42.5442H190.113L197.255 11.3162C197.566 10.3335 197.365 8.09593 194.61 8.00143ZM212.87 34.3082H217.906C216.322 37.4983 212.222 43.0507 203.826 43.0469C193.11 43.0469 193.769 33.5107 194.864 28.9864C197.896 16.4151 206.334 15.2282 210.093 15.2282C215.102 15.2282 222.949 17.2995 218.963 30.9934H201.533C201.109 32.8077 200.745 37.2715 205.55 37.2186C208.077 37.1921 209.024 36.2812 209.252 36.164C209.919 35.8314 210.525 34.3498 212.87 34.3082ZM202.583 26.4767H212.848C213.727 21.563 210.676 21.0528 208.956 21.0528C207.482 21.0528 203.973 21.5857 202.583 26.4767ZM227.97 18.7434C223.253 21.9523 221.691 27.1154 221.15 29.5911C220.718 31.5415 218.183 42.5442 218.183 42.5442H225.234C225.234 42.5442 227.906 30.4491 228.375 28.7898C228.932 26.8508 230.747 21.6084 237.772 21.8238L239.402 15.8254C233.718 15.644 229.967 17.3865 227.966 18.7434H227.97ZM240.27 10.617L240.448 9.7779H244.237L244.055 10.617H242.695L241.937 14.3135H240.914L241.69 10.617H240.27ZM246.506 9.7779L246.855 13.0625L248.606 9.7779H250L249.038 14.3135H248.113L248.947 10.7039L247.022 14.3135H246.264L245.824 10.7039L245.146 14.3135H244.203L245.157 9.7779H246.506Z" fill="#236BF5"/>
</svg>
